<?xml version="1.0" encoding="utf-8"?>
<!-- Generator: Adobe Illustrator 25.0.0, SVG Export Plug-In . SVG Version: 6.00 Build 0)  -->
<svg version="1.1" id="Layer_1" xmlns="http://www.w3.org/2000/svg" xmlns:xlink="http://www.w3.org/1999/xlink" x="0px" y="0px"
	 viewBox="0 0 100 100" style="enable-background:new 0 0 100 100;" xml:space="preserve">
<style type="text/css">
	.st0{fill:#A8A240;}
	.st1{fill:none;}
	.st2{fill:#40875E;}
	.st3{fill:#F0AB00;}
</style>
<rect x="14.3" y="60" class="st0" width="21.4" height="6.4"/>
<rect x="14.3" y="43.2" class="st0" width="21.4" height="6.4"/>
<rect x="44.2" y="28.3" class="st1" width="5.1" height="1.8"/>
<path class="st1" d="M10.9,36h44.3V22.8H10.9V36z M14.3,26.2h37.5v6.4H14.3V26.2z"/>
<path class="st0" d="M51.9,26.2H14.3v6.4h37.5v-6.4H51.9z M49.2,30h-5.1v-1.8h5.1V30z"/>
<path class="st2" d="M6,1.5v75.4h29.7v-7.2H10.9V56.6h24.8V53H10.9V39.8h24.8v-2h23.9V1.5H6z M43.5,8.8c2.1,0,3.7,1.7,3.7,3.7
	s-1.7,3.7-3.7,3.7c-2.1,0-3.7-1.7-3.7-3.7S41.5,8.8,43.5,8.8z M33.7,8.8c2.1,0,3.7,1.7,3.7,3.7s-1.7,3.7-3.7,3.7
	c-2.1,0-3.7-1.7-3.7-3.7S31.7,8.8,33.7,8.8z M55.2,36H10.9V22.8h44.3C55.1,22.8,55.1,36,55.2,36z"/>
<path class="st3" d="M33.7,14.2c0.9,0,1.7-0.7,1.7-1.7c0-0.9-0.7-1.7-1.7-1.7c-0.9,0-1.7,0.7-1.7,1.7C32,13.4,32.8,14.2,33.7,14.2z"
	/>
<path class="st3" d="M43.5,14.2c0.9,0,1.7-0.7,1.7-1.7c0-0.9-0.7-1.7-1.7-1.7c-0.9,0-1.7,0.7-1.7,1.7C41.9,13.4,42.5,14.2,43.5,14.2
	z"/>
<g>
	<g>
		<path class="st3" d="M34.8,91c-0.2,0-0.4,0-0.6,0c-0.8,0-1.8,0.2-2.6,0.1c-1.8,0-3.3-0.7-4.8-1.5c-3-1.7-5.1-5.3-6-9.2h-0.6
			c-0.3,2.1,0,4.3,0.6,6.4s1.8,4.2,3.5,5.9c1.7,1.6,3.9,2.9,6.2,3.6c1.1,0.4,2.3,0.7,3.4,0.9c0.7,0.1,1.3,0.1,2,0l0.5,2.9l9.2-7.8
			l-11.4-4.1L34.8,91z"/>
		<path class="st3" d="M89.2,23.3c-0.6-2.1-1.8-4.2-3.5-5.9c-1.7-1.6-3.9-2.9-6.2-3.6c-1.1-0.4-2.3-0.7-3.4-0.9
			c-0.7-0.1-1.3-0.1-2,0L73.7,10l-9.3,7.8l11.3,4.1l-0.5-2.8c0.2,0,0.4,0,0.6,0c0.8,0,1.8-0.2,2.6-0.1c1.8,0,3.3,0.7,4.8,1.5
			c3,1.7,5.1,5.3,6,9.2h0.6C90.1,27.6,89.9,25.4,89.2,23.3z"/>
	</g>
</g>
<path class="st2" d="M39,74.1V78c0,0.8,0.6,1.4,1.4,1.4h19c-0.4,1.5-0.7,3-1.1,4.5h-1c-0.5,0-0.8,0.4-0.8,1v0.4h19.9v-0.5
	c0-0.5-0.4-1-0.8-1h-1c-0.4-1.5-0.7-3-1.1-4.5h19.1c0.8,0,1.4-0.6,1.4-1.4V74H39V74.1z"/>
<path class="st0" d="M92.6,40.3H40.4c-0.8,0-1.4,0.6-1.4,1.4v31.7h54.9V41.6C93.9,40.9,93.4,40.3,92.6,40.3z M91.6,71H41.2V42.4
	h50.4V71z"/>
<rect x="-432" y="-46" class="st3" width="21.9" height="23.6"/>
<rect x="-404.2" y="-70.5" class="st0" width="21.9" height="48"/>
<rect x="-376.1" y="-92.6" class="st2" width="21.1" height="70.2"/>
</svg>
