<?xml version="1.0" encoding="utf-8"?>
<!-- Generator: Adobe Illustrator 25.0.0, SVG Export Plug-In . SVG Version: 6.00 Build 0)  -->
<svg version="1.1" id="Layer_1" xmlns="http://www.w3.org/2000/svg" xmlns:xlink="http://www.w3.org/1999/xlink" x="0px" y="0px"
	 viewBox="0 0 36 36" style="enable-background:new 0 0 36 36;" xml:space="preserve">
<style type="text/css">
	.st0{fill:#FFFFFF;}
</style>
<g>
	<g>
		<polygon class="st0" points="4.4,29.7 0,29.7 0,0.6 20.8,0.6 20.8,5.1 19.8,5.1 19.8,1.6 1,1.6 1,28.7 4.4,28.7 		"/>
	</g>
	<g>
		<polygon class="st0" points="28.3,34.9 3.9,34.9 3.9,4.6 22.3,4.6 28.3,10.2 28.3,13.3 27.3,13.3 27.3,10.6 21.9,5.6 4.9,5.6 
			4.9,33.9 27.3,33.9 27.3,29.2 28.3,29.2 		"/>
	</g>
	<g>
		<polygon class="st0" points="27.8,11 21.6,11 21.6,5.1 22.6,5.1 22.6,10 27.8,10 		"/>
	</g>
	<g>
		<rect x="7" y="10" class="st0" width="12.7" height="1"/>
	</g>
	<g>
		<rect x="7" y="30.5" class="st0" width="15.7" height="1"/>
	</g>
	<g>
		<rect x="7" y="14.2" class="st0" width="5.7" height="1"/>
	</g>
	<g>
		<rect x="7" y="18.5" class="st0" width="5.7" height="1"/>
	</g>
	<g>
		<rect x="7" y="22.7" class="st0" width="5.7" height="1"/>
	</g>
	<g>
		<rect x="7" y="26.4" class="st0" width="5.7" height="1"/>
	</g>
	<g>
		<path class="st0" d="M21.4,28.8c-4.4,0-8-3.6-8-8s3.6-8,8-8s8,3.6,8,8S25.8,28.8,21.4,28.8z M21.4,13.8c-3.9,0-7,3.1-7,7
			s3.1,7,7,7s7-3.1,7-7S25.3,13.8,21.4,13.8z"/>
	</g>
	<g>
		
			<rect x="30.8" y="24.2" transform="matrix(0.7229 -0.6909 0.6909 0.7229 -12.4028 30.0923)" class="st0" width="1" height="12.7"/>
	</g>
	<g>
		<polygon class="st0" points="19.4,23.9 17.5,20.6 18.3,20.1 19.7,22.5 26.1,18.8 26.6,19.6 		"/>
	</g>
</g>
</svg>
