<?xml version="1.0" encoding="utf-8"?>
<!-- Generator: Adobe Illustrator 25.0.0, SVG Export Plug-In . SVG Version: 6.00 Build 0)  -->
<svg version="1.1" id="Layer_1" xmlns="http://www.w3.org/2000/svg" xmlns:xlink="http://www.w3.org/1999/xlink" x="0px" y="0px"
	 viewBox="0 0 36 36" style="enable-background:new 0 0 36 36;" xml:space="preserve">
<style type="text/css">
	.st0{fill:#FFFFFF;}
</style>
<g id="path5149_1_">
	<path class="st0" d="M18,36C8.1,36,0,27.9,0,18S8.1,0,18,0s18,8.1,18,18S27.9,36,18,36z M18,1.4C8.9,1.4,1.4,8.9,1.4,18
		S8.9,34.6,18,34.6S34.6,27.1,34.6,18S27.1,1.4,18,1.4z"/>
</g>
<g>
	<g id="path5159_1_">
		<path class="st0" d="M24.6,25.3c-0.2,0-0.4-0.1-0.5-0.2L10.8,11.8c-0.3-0.3-0.3-0.8,0-1.1s0.8-0.3,1.1,0L25.2,24
			c0.3,0.3,0.3,0.8,0,1.1C25,25.3,24.8,25.3,24.6,25.3z"/>
	</g>
	<g id="path5161_1_">
		<path class="st0" d="M11.3,25.5c-0.2,0-0.4-0.1-0.5-0.2c-0.3-0.3-0.3-0.8,0-1.1l13.4-13.4c0.3-0.3,0.8-0.3,1.1,0s0.3,0.8,0,1.1
			L11.8,25.2C11.7,25.4,11.5,25.5,11.3,25.5z"/>
	</g>
</g>
</svg>
