<svg width="36" height="36" viewBox="0 0 36 36" fill="none" xmlns="http://www.w3.org/2000/svg">
<path d="M32.9 9.2H25.6V25.4H32.9V9.2Z" fill="white"/>
<path d="M10.2 22.8H1.5V7.8H10.2V22.8ZM3.1 21.2H8.7V9.4H3.1V21.2Z" fill="white"/>
<path d="M6.6 3.6H5V8.5H6.6V3.6Z" fill="white"/>
<path d="M6.6 21.8H5V31.4H6.6V21.8Z" fill="white"/>
<path d="M21.8 27.8H13.1V14.3H21.8V27.8ZM14.7 26.2H20.3V15.9H14.7V26.2Z" fill="white"/>
<path d="M18.3 3.6H16.7V14.9H18.3V3.6Z" fill="white"/>
<path d="M18.3 27H16.7V31.4H18.3V27Z" fill="white"/>
<path d="M33.5 26.1H24.8V8.5H33.5V26.1ZM26.3 24.5H31.9V10.1H26.3V24.5Z" fill="white"/>
<path d="M29.9 3.6H28.3V8.5H29.9V3.6Z" fill="white"/>
<path d="M29.9 25.4H28.3V31.4H29.9V25.4Z" fill="white"/>
</svg>
