<svg width="36" height="36" viewBox="0 0 36 36" fill="none" xmlns="http://www.w3.org/2000/svg">
<path d="M16.6 32.6H12.7C12 32.6 11.5 32 11.5 31.4V29.1C10.7 28.9 9.8 28.6 9 28.1L7.4 29.7C6.9 30.2 6.1 30.2 5.7 29.7L2.9 26.9C2.4 26.4 2.4 25.6 2.9 25.2L4.5 23.6C4.1 22.9 3.7 22 3.5 21.2H1.3C0.6 21.2 0 20.6 0 20V16C0 15.3 0.6 14.8 1.2 14.8H3.5C3.7 14 4 13.1 4.5 12.3L2.9 10.7C2.4 10.2 2.4 9.4 2.9 9L5.7 6.2C6.2 5.7 7 5.7 7.4 6.2L9 7.9C9.7 7.4 10.6 7.1 11.4 6.9V4.7C11.4 4 12 3.5 12.6 3.5H16.5C17.2 3.5 17.7 4.1 17.7 4.7V7C18.5 7.2 19.4 7.5 20.2 8L21.8 6.4C22.3 5.9 23.1 5.9 23.5 6.4L26.3 9.2C26.5 9.4 26.7 9.7 26.7 10.1C26.7 10.4 26.6 10.7 26.3 11L24.7 12.6L23.8 11.7L25.4 10.1L22.6 7.4L21.1 9C20.7 9.4 20.1 9.5 19.6 9.2C18.9 8.8 18.2 8.5 17.4 8.3C16.9 8.1 16.5 7.7 16.5 7.1V4.6H12.6V6.8C12.6 7.4 12.2 7.8 11.7 8C11 8.3 10.3 8.6 9.6 9C9.1 9.3 8.5 9.2 8.1 8.8L6.5 7.2L3.8 10L5.4 11.5C5.8 11.9 5.9 12.5 5.6 13C5.2 13.7 4.9 14.4 4.7 15.2C4.5 15.7 4.1 16.1 3.5 16.1H1.2V20H3.4C3.9 20 4.4 20.4 4.6 20.9C4.8 21.7 5.1 22.4 5.5 23.1C5.8 23.6 5.7 24.2 5.3 24.6L3.7 26.2L6.5 28.9L8 27.3C8.4 26.9 9 26.8 9.5 27.1C10.2 27.5 10.9 27.8 11.7 28C12.2 28.2 12.6 28.6 12.6 29.2V31.5H16.5V29.3C16.5 28.8 16.9 28.3 17.4 28.1C18.2 27.9 18.9 27.6 19.6 27.2C20.1 26.9 20.7 27 21.1 27.4L22.7 29L25.4 26.2L23.8 24.7L24.7 23.8L26.3 25.4C26.5 25.6 26.7 25.9 26.7 26.3C26.7 26.6 26.6 26.9 26.3 27.2L23.5 30C23 30.5 22.2 30.5 21.8 30L20.2 28.4C19.5 28.9 18.6 29.2 17.8 29.4V31.6C17.8 32 17.2 32.6 16.6 32.6ZM14.6 25.2V23.9C16.3 23.9 18 23.1 19.1 21.8L20.1 22.6C18.7 24.2 16.7 25.2 14.6 25.2ZM14.6 25.2C10.6 25.2 7.4 22 7.4 18C7.4 14 10.6 10.8 14.6 10.8C16.7 10.8 18.7 11.7 20.1 13.3L19.1 14.1C18 12.8 16.3 12 14.6 12C11.4 12 8.7 14.6 8.7 17.9C8.7 21.1 11.3 23.8 14.6 23.8V25.2Z" fill="white"/>
<path d="M29.8 21.6H24.9L17.4 16H12.4V14.7H17.8L25.4 20.3H29.8V21.6Z" fill="white"/>
<path d="M29.3 22.9L32.6 21L29.3 19.1V22.9Z" fill="white"/>
<path d="M22.8 17.3L22.1 16.3L24.9 14.3H33.3V15.5H25.3L22.8 17.3Z" fill="white"/>
<path d="M32.7 16.8L36 14.9L32.7 13V16.8Z" fill="white"/>
<path d="M17.5 21H12.4V19.8H17.1L19.4 18.2L20.1 19.2L17.5 21Z" fill="white"/>
</svg>
