<?xml version="1.0" encoding="utf-8"?>
<!-- Generator: Adobe Illustrator 25.0.0, SVG Export Plug-In . SVG Version: 6.00 Build 0)  -->
<svg version="1.1" id="Layer_1" xmlns="http://www.w3.org/2000/svg" xmlns:xlink="http://www.w3.org/1999/xlink" x="0px" y="0px"
	 viewBox="0 0 36 36" style="enable-background:new 0 0 36 36;" xml:space="preserve">
<style type="text/css">
	.st0{fill:#FFFFFF;}
</style>
<g>
	<g>
		<path class="st0" d="M10.6,27.9H2.2V6l5.1-6h16.8v6.2h-1.3V1.3h-15L3.5,6.5v20.2h7.1V27.9z M9.5,7.7H4.7V6.5h3.5V2.4h1.3V7.7z"/>
	</g>
	<g>
		<path class="st0" d="M33.8,36h-22V14.1l5.1-6h16.8V36H33.8z M13.1,34.7h19.4V9.3h-15L13,14.5v20.2H13.1z M19,15.8h-4.7v-1.3h3.5
			v-4.1H19V15.8z"/>
	</g>
	<g>
		<rect x="13.4" y="5.4" class="st0" width="7.4" height="1.3"/>
	</g>
	<g>
		<rect x="16.4" y="3.3" class="st0" width="4.5" height="1.3"/>
	</g>
	<g>
		<rect x="22.3" y="12.7" class="st0" width="7.4" height="1.3"/>
	</g>
	<g>
		<rect x="25.2" y="10.6" class="st0" width="4.5" height="1.3"/>
	</g>
	<g>
		<g>
			<rect x="9.3" y="10.7" class="st0" width="5.4" height="1.3"/>
		</g>
		<g>
			<path class="st0" d="M8.3,13H4.6V9.3h3.7V13z M5.9,11.7h1.2v-1.2H5.9V11.7z"/>
		</g>
	</g>
	<g>
		<g>
			<rect x="9.3" y="16.6" class="st0" width="3.1" height="1.3"/>
		</g>
		<g>
			<path class="st0" d="M8.3,19H4.6v-3.7h3.7V19z M5.9,17.7h1.2v-1.2H5.9V17.7z"/>
		</g>
	</g>
	<g>
		<g>
			<rect x="9.3" y="22.5" class="st0" width="3.1" height="1.3"/>
		</g>
		<g>
			<path class="st0" d="M8.3,25H4.6v-3.7h3.7V25z M5.9,23.7h1.2v-1.2H5.9V23.7z"/>
		</g>
	</g>
	<g>
		<rect x="18.8" y="19.2" class="st0" width="11.6" height="1.3"/>
	</g>
	<g>
		<path class="st0" d="M17.8,21.5h-3.7v-3.7h3.7V21.5z M15.4,20.2h1.2V19h-1.2C15.4,19,15.4,20.2,15.4,20.2z"/>
	</g>
	<g>
		<rect x="18.8" y="25.1" class="st0" width="11.6" height="1.3"/>
	</g>
	<g>
		<path class="st0" d="M17.8,27.5h-3.7v-3.7h3.7V27.5z M15.4,26.2h1.2V25h-1.2C15.4,25,15.4,26.2,15.4,26.2z"/>
	</g>
	<g>
		<rect x="18.8" y="31" class="st0" width="11.6" height="1.3"/>
	</g>
	<g>
		<path class="st0" d="M17.8,33.4h-3.7v-3.7h3.7V33.4z M15.4,32.2h1.2V31h-1.2C15.4,31,15.4,32.2,15.4,32.2z"/>
	</g>
</g>
</svg>
