<?xml version="1.0" encoding="utf-8"?>
<!-- Generator: Adobe Illustrator 25.0.0, SVG Export Plug-In . SVG Version: 6.00 Build 0)  -->
<svg version="1.1" id="Layer_1" xmlns="http://www.w3.org/2000/svg" xmlns:xlink="http://www.w3.org/1999/xlink" x="0px" y="0px"
	 viewBox="0 0 36 36" style="enable-background:new 0 0 36 36;" xml:space="preserve">
<style type="text/css">
	.st0{fill:#FFFFFF;}
</style>
<g>
	<path class="st0" d="M34.9,31.9H10.3V0H29l5.8,6.8L34.9,31.9L34.9,31.9z M11.3,31h22.7V7.2l-5.3-6.2H11.3V31z"/>
	<polygon class="st0" points="34.4,7.8 28.3,7.8 28.3,0.5 29.3,0.5 29.3,6.8 34.4,6.8 	"/>
	<rect x="14" y="9.4" class="st0" width="13" height="0.9"/>
	<rect x="14" y="17" class="st0" width="17.4" height="0.9"/>
	<rect x="14" y="24.6" class="st0" width="17.4" height="0.9"/>
	<rect x="4.7" y="11.1" class="st0" width="5.7" height="0.9"/>
	<rect x="4.7" y="18.7" class="st0" width="5.7" height="0.9"/>
	<rect x="4.7" y="26.4" class="st0" width="5.7" height="0.9"/>
	<polygon class="st0" points="24.7,31.3 24.7,35.1 2.1,35.1 2.1,5.1 10.8,5.1 10.8,4.1 1.1,4.1 1.1,36 25.7,36 25.7,31.3 	"/>
</g>
</svg>
