<?xml version="1.0" encoding="utf-8"?>
<!-- Generator: Adobe Illustrator 25.0.0, SVG Export Plug-In . SVG Version: 6.00 Build 0)  -->
<svg version="1.1" id="Layer_1" xmlns="http://www.w3.org/2000/svg" xmlns:xlink="http://www.w3.org/1999/xlink" x="0px" y="0px"
	 viewBox="0 0 36 36" style="enable-background:new 0 0 36 36;" xml:space="preserve">
<style type="text/css">
	.st0{fill:#FFFFFF;}
</style>
<g>
	<polygon class="st0" points="31.4,36 4.5,36 4.5,31 5.8,31 5.8,34.7 30.1,34.7 30.1,31 31.4,31 	"/>
	<polygon class="st0" points="5.8,21.7 4.5,21.7 4.5,0 25.1,0 31.4,7.6 31.4,21.5 30.1,21.5 30.1,8.1 24.5,1.3 5.8,1.3 	"/>
	<polygon class="st0" points="30.6,8.3 24.2,8.3 24.2,0.6 25.5,0.6 25.5,7 30.6,7 	"/>
	<rect x="9.4" y="8.7" class="st0" width="11.4" height="1.3"/>
	<rect x="9.4" y="12.8" class="st0" width="16.5" height="1.3"/>
	<rect x="9.4" y="16.9" class="st0" width="16.5" height="1.3"/>
	<path class="st0" d="M34.1,31.6H1.9V21h32.1V31.6z M3.2,30.3h29.5v-8H3.2V30.3z"/>
	<path class="st0" d="M14.5,29c-0.4,0.2-1,0.3-1.6,0.3c-0.9,0-1.6-0.3-2.1-0.8C10.3,28,10,27.3,10,26.5c0-0.9,0.3-1.7,0.8-2.2
		c0.6-0.6,1.3-0.9,2.2-0.9c0.6,0,1,0.1,1.4,0.2v1.2c-0.4-0.2-0.8-0.3-1.3-0.3c-0.5,0-1,0.2-1.3,0.5c-0.3,0.3-0.5,0.8-0.5,1.4
		c0,0.6,0.2,1,0.5,1.3c0.3,0.3,0.7,0.5,1.3,0.5c0.5,0,1-0.1,1.4-0.4V29z"/>
	<path class="st0" d="M15.2,29v-1.3c0.2,0.2,0.5,0.3,0.8,0.4c0.3,0.1,0.5,0.1,0.8,0.1c0.2,0,0.3,0,0.4,0c0.1,0,0.2-0.1,0.3-0.1
		c0.1-0.1,0.1-0.1,0.2-0.2c0-0.1,0.1-0.1,0.1-0.2c0-0.1,0-0.2-0.1-0.3c-0.1-0.1-0.2-0.2-0.3-0.2c-0.1-0.1-0.2-0.1-0.4-0.2
		c-0.2-0.1-0.3-0.1-0.5-0.2c-0.4-0.2-0.8-0.4-1-0.7c-0.2-0.3-0.3-0.6-0.3-1c0-0.3,0.1-0.6,0.2-0.8c0.1-0.2,0.3-0.4,0.5-0.5
		c0.2-0.1,0.4-0.2,0.7-0.3c0.3-0.1,0.6-0.1,0.9-0.1c0.3,0,0.6,0,0.8,0.1c0.2,0,0.4,0.1,0.6,0.2v1.2c-0.1-0.1-0.2-0.1-0.3-0.2
		c-0.1-0.1-0.2-0.1-0.3-0.1c-0.1,0-0.2-0.1-0.4-0.1c-0.1,0-0.2,0-0.3,0c-0.1,0-0.3,0-0.4,0c-0.1,0-0.2,0.1-0.3,0.1
		c-0.1,0.1-0.1,0.1-0.2,0.2c0,0.1-0.1,0.1-0.1,0.2c0,0.1,0,0.2,0.1,0.3c0.1,0.1,0.1,0.1,0.2,0.2c0.1,0.1,0.2,0.1,0.3,0.2
		c0.1,0.1,0.3,0.1,0.5,0.2c0.2,0.1,0.4,0.2,0.6,0.3c0.2,0.1,0.3,0.2,0.5,0.4c0.1,0.1,0.2,0.3,0.3,0.5c0.1,0.2,0.1,0.4,0.1,0.6
		c0,0.3-0.1,0.6-0.2,0.8c-0.1,0.2-0.3,0.4-0.5,0.5c-0.2,0.1-0.4,0.2-0.7,0.3s-0.6,0.1-0.9,0.1c-0.3,0-0.6,0-0.9-0.1
		C15.7,29.2,15.4,29.1,15.2,29z"/>
	<path class="st0" d="M24.9,23.5l-2,5.7h-1.5l-1.9-5.7h1.4l1.2,4c0.1,0.2,0.1,0.4,0.1,0.6h0c0-0.2,0.1-0.4,0.1-0.6l1.2-4H24.9z"/>
</g>
</svg>
