<svg width="36" height="36" viewBox="0 0 36 36" fill="none" xmlns="http://www.w3.org/2000/svg">
<path d="M33.5 33.2H2.5C1.1 33.2 0 32.1 0 30.7V7.3C0 5.9 1.1 4.8 2.5 4.8H7.4C7.7 4.8 8 5.1 8 5.4C8.1 5.8 7.8 6 7.5 6H2.5C1.8 6 1.3 6.6 1.3 7.3V30.7C1.3 31.4 1.9 32 2.6 32H33.5C34.2 32 34.8 31.4 34.8 30.7V7.3C34.8 6.6 34.2 6 33.5 6H29.6C29.3 6 29 5.8 29 5.4C29 5.1 29.3 4.8 29.6 4.8H33.5C34.9 4.8 36 5.9 36 7.3V30.7C36 32.1 34.9 33.2 33.5 33.2Z" fill="white"/>
<path d="M24.5 6H12.9C12.6 6 12.3 5.7 12.3 5.4C12.3 5.1 12.6 4.8 12.9 4.8H24.5C24.8 4.8 25.1 5.1 25.1 5.4C25.1 5.8 24.9 6 24.5 6Z" fill="white"/>
<path d="M10.5 7.7C10.2 7.7 9.90002 7.4 9.90002 7.1V3.4C9.90002 3.1 10.2 2.8 10.5 2.8C10.8 2.8 11.1 3.1 11.1 3.4V7.1C11.1 7.5 10.8 7.7 10.5 7.7Z" fill="white"/>
<path d="M27.3 7.7C27 7.7 26.7 7.4 26.7 7.1V3.4C26.7 3.1 27 2.8 27.3 2.8C27.6 2.8 27.9 3.1 27.9 3.4V7.1C27.9 7.5 27.6 7.7 27.3 7.7Z" fill="white"/>
<path d="M31.3 12.3H4.69998C4.39998 12.3 4.09998 12 4.09998 11.7C4.09998 11.4 4.39998 11.1 4.69998 11.1H31.4C31.7 11.1 32 11.4 32 11.7C32 12 31.7 12.3 31.3 12.3Z" fill="white"/>
<path d="M11.8 18.5H6.50002C6.20002 18.5 5.90002 18.2 5.90002 17.9C5.90002 17.6 6.20002 17.3 6.50002 17.3H11.7C12 17.3 12.3 17.6 12.3 17.9C12.4 18.2 12.1 18.5 11.8 18.5Z" fill="white"/>
<path d="M20.6 18.5H15.4C15.1 18.5 14.8 18.2 14.8 17.9C14.8 17.6 15.1 17.3 15.4 17.3H20.6C20.9 17.3 21.2 17.6 21.2 17.9C21.2 18.2 21 18.5 20.6 18.5Z" fill="white"/>
<path d="M29.5 18.5H24.3C24 18.5 23.7 18.2 23.7 17.9C23.7 17.6 24 17.3 24.3 17.3H29.5C29.8 17.3 30.1 17.6 30.1 17.9C30.1 18.2 29.8 18.5 29.5 18.5Z" fill="white"/>
<path d="M11.8 23H6.50002C6.20002 23 5.90002 22.7 5.90002 22.4C5.90002 22.1 6.20002 21.8 6.50002 21.8H11.7C12 21.8 12.3 22.1 12.3 22.4C12.4 22.7 12.1 23 11.8 23Z" fill="white"/>
<path d="M20.6 23H15.4C15.1 23 14.8 22.7 14.8 22.4C14.8 22.1 15.1 21.8 15.4 21.8H20.6C20.9 21.8 21.2 22.1 21.2 22.4C21.2 22.7 21 23 20.6 23Z" fill="white"/>
<path d="M29.5 23H24.3C24 23 23.7 22.7 23.7 22.4C23.7 22.1 24 21.8 24.3 21.8H29.5C29.8 21.8 30.1 22.1 30.1 22.4C30.1 22.7 29.8 23 29.5 23Z" fill="white"/>
<path d="M11.8 27.5H6.50002C6.20002 27.5 5.90002 27.2 5.90002 26.9C5.90002 26.6 6.20002 26.3 6.50002 26.3H11.7C12 26.3 12.3 26.6 12.3 26.9C12.4 27.3 12.1 27.5 11.8 27.5Z" fill="white"/>
<path d="M20.6 27.5H15.4C15.1 27.5 14.8 27.2 14.8 26.9C14.8 26.6 15.1 26.3 15.4 26.3H20.6C20.9 26.3 21.2 26.6 21.2 26.9C21.2 27.3 21 27.5 20.6 27.5Z" fill="white"/>
</svg>
