<?xml version="1.0" encoding="utf-8"?>
<!-- Generator: Adobe Illustrator 25.0.0, SVG Export Plug-In . SVG Version: 6.00 Build 0)  -->
<svg version="1.1" id="Layer_1" xmlns="http://www.w3.org/2000/svg" xmlns:xlink="http://www.w3.org/1999/xlink" x="0px" y="0px"
	 viewBox="0 0 36 36" style="enable-background:new 0 0 36 36;" xml:space="preserve">
<style type="text/css">
	.st0{fill:#CB1618;}
	.st1{fill:#185ABD;}
	.st2{fill:#D83039;}
	.st3{fill:#103F91;}
	.st4{fill:#185C37;}
	.st5{fill:#33C481;}
	.st6{fill:#107C41;}
	.st7{fill:#21A366;}
	.st8{fill:#0B4A99;}
	.st9{fill:none;}
	.st10{fill:#FFFFFF;}
	.st11{fill:#41A5EE;}
	.st12{fill:#2B7CD3;}
	.st13{opacity:0.5;enable-background:new    ;}
	.st14{fill:url(#SVGID_1_);}
	.st15{fill:url(#SVGID_2_);}
	.st16{fill:url(#SVGID_3_);}
	.st17{fill:url(#SVGID_4_);}
	.st18{fill:#E24951;}
	.st19{fill-rule:evenodd;clip-rule:evenodd;}
	.st20{fill:#262625;}
	.st21{fill:none;stroke:#000000;stroke-width:0.75;stroke-miterlimit:10;}
	.st22{fill:none;stroke:#000000;stroke-width:1.2;stroke-miterlimit:10;}
	.st23{fill-rule:evenodd;clip-rule:evenodd;fill:#FFFFFF;}
	.st24{fill:none;stroke:#0071C5;stroke-width:1.3;stroke-linecap:round;stroke-miterlimit:10;}
	.st25{fill:none;stroke:#F0AB00;stroke-width:1.3;stroke-miterlimit:10;}
	.st26{fill:none;stroke:#1C55A6;stroke-width:1.3;stroke-linecap:round;}
	.st27{fill-rule:evenodd;clip-rule:evenodd;fill:none;stroke:#1C55A6;stroke-width:1.3;stroke-linecap:round;}
	.st28{fill:none;stroke:#1C55A6;stroke-width:1.3;stroke-linecap:round;stroke-miterlimit:10;}
	.st29{fill:#FFFFFF;stroke:#231F20;}
	.st30{fill:none;stroke:#0B4A99;stroke-width:1.3;stroke-miterlimit:10;}
</style>
<g>
	<g>
		<path class="st10" d="M19.4,29.9h-18c-0.8,0-1.4-0.6-1.4-1.3v-6.8c0-0.7,0.7-1.3,1.4-1.3h18l-0.7,0.8c-1,1.2-1.5,2.4-1.5,3.9
			c0,1.5,0.5,2.9,1.5,4L19.4,29.9z M1.4,21.4c-0.3,0-0.5,0.2-0.5,0.4v6.8c0,0.3,0.2,0.4,0.5,0.4h16c-0.8-1.2-1.1-2.4-1.1-3.9
			c0-1.4,0.4-2.6,1.1-3.7H1.4z M10.4,23.4c-0.2,0-0.3,0.1-0.3,0.3v3.1c0,0.2,0.1,0.3,0.3,0.3s0.3-0.1,0.3-0.3v-3.1
			C10.7,23.5,10.6,23.4,10.4,23.4z M7.6,23.4c-0.2,0-0.3,0.1-0.3,0.3v3.1c0,0.2,0.1,0.3,0.3,0.3c0.2,0,0.3-0.1,0.3-0.3v-3.1
			C7.9,23.5,7.8,23.4,7.6,23.4z M4.7,23.4c-0.2,0-0.3,0.1-0.3,0.3v3.1c0,0.2,0.1,0.3,0.3,0.3C4.9,27.1,5,27,5,26.8v-3.1
			C5,23.5,4.9,23.4,4.7,23.4z"/>
	</g>
	<g>
		<path class="st10" d="M26.7,10.5H1.5c-0.8,0-1.4-0.6-1.4-1.3V2.4c0-0.7,0.7-1.3,1.4-1.3h25.1c0.8,0,1.4,0.6,1.5,1.2l0,0.1v6.8
			C28.1,9.9,27.4,10.5,26.7,10.5z M1.5,2C1.2,2,1,2.2,1,2.4v6.8c0,0.3,0.2,0.4,0.5,0.4h25.2c0.3,0,0.5-0.2,0.5-0.4V2.4
			C27.1,2.2,26.9,2,26.6,2H1.5z M10.4,4c-0.2,0-0.3,0.1-0.3,0.3v3.1c0,0.2,0.1,0.3,0.3,0.3s0.3-0.1,0.3-0.3V4.2
			C10.7,4.1,10.6,4,10.4,4z M7.6,4C7.4,4,7.3,4.1,7.3,4.2v3.1c0,0.2,0.1,0.3,0.3,0.3c0.2,0,0.3-0.1,0.3-0.3V4.2C7.9,4.1,7.8,4,7.6,4
			z M4.7,4C4.5,4,4.4,4.1,4.4,4.2v3.1c0,0.2,0.1,0.3,0.3,0.3C4.9,7.7,5,7.6,5,7.4V4.2C5,4.1,4.9,4,4.7,4z M23.2,4.6
			c-0.4,0-0.8,0.3-0.8,0.8c0,0.4,0.3,0.8,0.8,0.8S24,5.8,24,5.4C24,5,23.6,4.6,23.2,4.6z M19.3,4.6c-0.4,0-0.8,0.3-0.8,0.8
			c0,0.4,0.3,0.8,0.8,0.8c0.4,0,0.8-0.3,0.8-0.8C20.1,5,19.8,4.6,19.3,4.6z"/>
	</g>
	<g>
		<path class="st10" d="M19.9,20.3H1.5c-0.8,0-1.4-0.6-1.4-1.3v-6.8c0-0.7,0.7-1.3,1.4-1.3h25.1c0.8,0,1.4,0.6,1.4,1.3v6.8
			c0,0.5-0.3,0.9-0.5,1l-0.3,0.3L27,20c-1-0.6-2.2-1-3.4-1c-1.6,0-2.8,0.6-3.6,1.2L19.9,20.3z M1.5,11.8C1.2,11.8,1,12,1,12.1v6.8
			c0,0.3,0.2,0.4,0.5,0.4h18.1c1.3-0.8,2.6-1.3,4-1.3c1.2,0.1,2.4,0.4,3.4,1c0,0,0-0.1,0-0.1v-6.8c0-0.3-0.2-0.4-0.5-0.4H1.5z
			 M10.4,13.7c-0.2,0-0.3,0.1-0.3,0.3v3.1c0,0.2,0.1,0.3,0.3,0.3s0.3-0.1,0.3-0.3V14C10.7,13.8,10.6,13.7,10.4,13.7z M7.6,13.7
			c-0.2,0-0.3,0.1-0.3,0.3v3.1c0,0.2,0.1,0.3,0.3,0.3c0.2,0,0.3-0.1,0.3-0.3V14C7.9,13.8,7.8,13.7,7.6,13.7z M4.7,13.7
			c-0.2,0-0.3,0.1-0.3,0.3v3.1c0,0.2,0.1,0.3,0.3,0.3c0.2,0,0.3-0.1,0.3-0.3v-3.2C5,13.7,4.8,13.7,4.7,13.7z M23.2,14.9
			c-0.4,0-0.8,0.3-0.8,0.8c0,0.4,0.3,0.8,0.8,0.8s0.8-0.3,0.8-0.8C24,15.3,23.6,14.9,23.2,14.9z M19.3,14.9c-0.4,0-0.8,0.3-0.8,0.8
			c0,0.4,0.3,0.8,0.8,0.8c0.4,0,0.8-0.3,0.8-0.8C20.1,15.3,19.8,14.9,19.3,14.9z"/>
	</g>
	<g>
		<rect x="6.6" y="10" class="st10" width="0.9" height="1.2"/>
	</g>
	<g>
		<rect x="6.6" y="19.6" class="st10" width="0.9" height="1.2"/>
	</g>
	<g>
		<rect x="20.4" y="10" class="st10" width="0.9" height="1.2"/>
	</g>
	<g>
		<path class="st10" d="M24.2,27.1c-0.2,0-0.4-0.1-0.6-0.2l-1.9-1.6c-0.2-0.2-0.2-0.5-0.1-0.7c0.2-0.2,0.5-0.2,0.7-0.1l1.9,1.6
			c0.2-0.2,4.2-5.6,6-6.8c0.2-0.1,0.5-0.1,0.6,0.1c0.1,0.2,0.1,0.5-0.1,0.6C29,21.2,25,26.6,25,26.7c-0.2,0.2-0.4,0.4-0.7,0.4
			C24.3,27.1,24.2,27.1,24.2,27.1z"/>
	</g>
	<g>
		<polygon class="st10" points="36,34 30.4,29.5 29.6,30.4 35.2,34.9 		"/>
	</g>
	<g>
		<path class="st10" d="M28.5,28.2l0.3,0.2c1.1-1.7,1.1-4,0-5.8l-0.7,0.8c1,2.1,0.4,4.6-1.6,6c-2.1,1.4-5.1,0.8-6.5-1.3
			c-1.4-2.1-0.9-5.1,1.3-6.5c1.7-1.2,3.9-1,5.5,0.2l0.7-0.8c-1.9-1.5-4.6-1.7-6.7-0.3c-2.6,1.8-3.3,5.3-1.5,7.9
			c1.7,2.5,5.4,3.2,7.9,1.5c0.5-0.3,0.9-0.7,1.2-1.1L28,28.8L28.5,28.2z"/>
	</g>
	<g>
		<path class="st10" d="M28.8,28.5c-0.1,0.2-0.3,0.4-0.4,0.6l0.6,0.5l0.5-0.6L28.8,28.5z"/>
	</g>
	<g>
		<path class="st10" d="M28.5,28.2L28,28.8l0.3,0.3c0.2-0.2,0.3-0.4,0.4-0.6L28.5,28.2z"/>
	</g>
	<g>
		<polygon class="st10" points="30,29.1 30.4,29.5 30.9,28.9 30.1,28.2 29.4,29 29.8,29.3 29.3,29.9 29,29.6 28.4,30.3 29.2,30.9 
			29.6,30.4 29.2,30.1 		"/>
	</g>
	<g>
		<polygon class="st10" points="30,29.1 29.2,30.1 29.6,30.4 30.4,29.5 		"/>
	</g>
	<g>
		<polygon class="st10" points="29.8,29.3 29.4,29 29,29.6 29.3,29.9 		"/>
	</g>
</g>
</svg>
