<?xml version="1.0" encoding="utf-8"?>
<!-- Generator: Adobe Illustrator 26.5.0, SVG Export Plug-In . SVG Version: 6.00 Build 0)  -->
<svg version="1.1" id="Layer_1" xmlns="http://www.w3.org/2000/svg" xmlns:xlink="http://www.w3.org/1999/xlink" x="0px" y="0px"
	 viewBox="0 0 36 36" style="enable-background:new 0 0 36 36;" xml:space="preserve">
<style type="text/css">
	.st0{fill:#3A80E8;}
	.st1{fill:#E80A0A;}
	.st2{fill:#4CC058;}
	.st3{fill:none;stroke:#E80A0A;stroke-width:1.4;stroke-miterlimit:10;}
	.st4{fill:none;stroke:#E80A0A;stroke-width:1.5;stroke-linecap:round;stroke-miterlimit:10;}
	.st5{fill:#FFFFFF;}
	.st6{fill:#044FB9;}
	.st7{fill:none;stroke:#3A80E8;stroke-width:1.5;stroke-miterlimit:10;}
	.st8{fill:none;stroke:#044FB9;stroke-width:1.5;stroke-miterlimit:10;}
	.st9{fill:#063E82;}
	.st10{fill:#A0C8F9;}
</style>
<g>
	<g>
		<path class="st5" d="M34.6,36h-5.1V13.3h5.1V36z M30.6,34.9h2.9V14.4h-2.9V34.9z"/>
	</g>
	<g>
		<path class="st5" d="M28.8,36h-5.1V19.2h5.1V36z M24.8,34.9h2.9V20.3h-2.9V34.9z"/>
	</g>
	<g>
		<path class="st5" d="M22.8,36h-5.1V16.8h5.1V36z M18.8,34.9h2.9v-17h-2.9V34.9z"/>
	</g>
	<g>
		<path class="st5" d="M16.9,36h-5.1V21.6h5.1V36z M12.9,34.9h2.9V22.7h-2.9V34.9z"/>
	</g>
	<g>
		<path class="st5" d="M11.7,2.6c-0.2,0-0.4-0.1-0.5-0.3c-0.1-0.3,0-0.6,0.3-0.7c1.9-0.8,3.9-1.2,6-1.2c0.3,0,0.5,0.2,0.5,0.5
			s-0.2,0.5-0.5,0.5c-1.9,0-3.8,0.4-5.6,1.1C11.8,2.6,11.7,2.6,11.7,2.6z"/>
	</g>
	<g>
		<path class="st5" d="M2.1,16C2,16,2,16,2.1,16c-0.3,0-0.6-0.3-0.5-0.6c0.1-1,0.2-1.9,0.4-2.8c0.1-0.3,0.4-0.5,0.7-0.4
			c0.3,0.1,0.5,0.4,0.4,0.7c-0.2,0.9-0.3,1.7-0.4,2.6C2.6,15.8,2.3,16,2.1,16z"/>
	</g>
	<g>
		<path class="st5" d="M12.4,31.4c-0.1,0-0.1,0-0.2,0c-5.7-2-9.7-6.8-10.6-12.7c0-0.3,0.2-0.6,0.5-0.6c0.3,0,0.6,0.2,0.6,0.5
			c0.8,5.5,4.6,10,9.8,11.9c0.3,0.1,0.4,0.4,0.3,0.7C12.8,31.3,12.6,31.4,12.4,31.4z"/>
	</g>
	<g>
		<path class="st5" d="M14.2,20c-1,0-1.9-0.8-1.9-1.9c0-1,0.8-1.9,1.9-1.9s1.9,0.8,1.9,1.9C16.1,19.2,15.3,20,14.2,20z M14.2,17.4
			c-0.4,0-0.8,0.3-0.8,0.8c0,0.4,0.3,0.8,0.8,0.8c0.4,0,0.8-0.3,0.8-0.8C15,17.7,14.7,17.4,14.2,17.4z"/>
	</g>
	<g>
		<path class="st5" d="M20.3,16c-1,0-1.9-0.8-1.9-1.9s0.8-1.9,1.9-1.9c1,0,1.9,0.8,1.9,1.9S21.3,16,20.3,16z M20.3,13.3
			c-0.4,0-0.8,0.3-0.8,0.8c0,0.4,0.3,0.8,0.8,0.8c0.4,0,0.8-0.3,0.8-0.8C21,13.7,20.7,13.3,20.3,13.3z"/>
	</g>
	<g>
		<path class="st5" d="M26.2,18.4c-1,0-1.9-0.8-1.9-1.9s0.8-1.9,1.9-1.9s1.9,0.8,1.9,1.9S27.2,18.4,26.2,18.4z M26.2,15.8
			c-0.4,0-0.8,0.3-0.8,0.8s0.3,0.8,0.8,0.8c0.4,0,0.8-0.3,0.8-0.8S26.6,15.8,26.2,15.8z"/>
	</g>
	<g>
		<path class="st5" d="M32,12.1c-2.2,0-3.9-1.8-3.9-3.9s1.8-3.9,3.9-3.9S36,6,36,8.2S34.2,12.1,32,12.1z M32,5.4
			c-1.6,0-2.8,1.3-2.8,2.8S30.5,11,32,11c1.6,0,2.8-1.3,2.8-2.8S33.6,5.4,32,5.4z"/>
	</g>
	<g>
		<path class="st5" d="M15.4,18.2c-0.2,0-0.3-0.1-0.4-0.2c-0.2-0.2-0.1-0.6,0.1-0.8l3.8-2.8c0.2-0.2,0.6-0.1,0.8,0.1
			c0.2,0.2,0.1,0.6-0.1,0.8L15.7,18C15.6,18.1,15.5,18.2,15.4,18.2z"/>
	</g>
	<g>
		<path class="st5" d="M25,16.6c-0.1,0-0.2,0-0.2-0.1L21.4,15c-0.3-0.1-0.4-0.5-0.3-0.7c0.1-0.3,0.5-0.4,0.7-0.3l3.4,1.6
			c0.3,0.1,0.4,0.5,0.3,0.7C25.4,16.5,25.2,16.6,25,16.6z"/>
	</g>
	<g>
		<path class="st5" d="M26.9,16c-0.1,0-0.2,0-0.3-0.1c-0.2-0.2-0.3-0.5-0.1-0.8l3.2-4.5c0.2-0.2,0.5-0.3,0.8-0.1
			c0.2,0.2,0.3,0.5,0.1,0.8l-3.2,4.5C27.2,15.9,27,16,26.9,16z"/>
	</g>
	<g>
		<path class="st5" d="M25.4,5.2h-8c-0.3,0-0.5-0.2-0.5-0.5c0-0.3,0.2-0.5,0.5-0.5h8c0.3,0,0.5,0.2,0.5,0.5
			C26,4.9,25.7,5.2,25.4,5.2z"/>
	</g>
	<g>
		<path class="st5" d="M25.4,7.6h-8c-0.3,0-0.5-0.2-0.5-0.5c0-0.3,0.2-0.5,0.5-0.5h8C25.7,6.5,26,6.7,26,7C26,7.3,25.7,7.6,25.4,7.6
			z"/>
	</g>
	<g>
		<path class="st5" d="M18.3,9.8h-1c-0.3,0-0.5-0.2-0.5-0.5s0.2-0.5,0.5-0.5h1c0.3,0,0.5,0.2,0.5,0.5S18.6,9.8,18.3,9.8z"/>
	</g>
	<g>
		<path class="st5" d="M20.7,9.8h-1c-0.3,0-0.5-0.2-0.5-0.5s0.2-0.5,0.5-0.5h1c0.3,0,0.5,0.2,0.5,0.5S21,9.8,20.7,9.8z"/>
	</g>
	<g>
		<path class="st5" d="M23.1,9.8h-1c-0.3,0-0.5-0.2-0.5-0.5s0.2-0.5,0.5-0.5h1c0.3,0,0.5,0.2,0.5,0.5S23.4,9.8,23.1,9.8z"/>
	</g>
	<g>
		<path class="st5" d="M25.5,9.8h-1c-0.3,0-0.5-0.2-0.5-0.5s0.2-0.5,0.5-0.5h1C25.8,8.7,26,9,26,9.3S25.8,9.8,25.5,9.8z"/>
	</g>
	<g>
		<path class="st5" d="M6.2,14.2c-0.1,0-0.2,0-0.2,0l-1.8-0.5c-0.2-0.1-0.4-0.2-0.5-0.4c-0.1-0.2-0.1-0.4-0.1-0.6l0.3-0.8
			c-0.3-0.2-0.5-0.4-0.7-0.6l-0.8,0.4c-0.4,0.2-0.9,0.1-1.1-0.3L0.4,9.7C0.3,9.5,0.3,9.2,0.4,9c0.1-0.2,0.2-0.4,0.4-0.5l0.8-0.4
			C1.5,7.8,1.4,7.5,1.4,7.2L0.6,7C0.4,6.9,0.2,6.8,0.1,6.6C0,6.4,0,6.1,0.1,5.9l0.5-1.8C0.7,4,0.8,3.8,1,3.7
			c0.2-0.1,0.4-0.1,0.6-0.1l0.8,0.3C2.6,3.6,2.8,3.4,3,3.2L2.6,2.4C2.5,2.2,2.5,2,2.6,1.8C2.6,1.5,2.8,1.4,3,1.3l1.6-0.9
			C5,0.2,5.5,0.3,5.7,0.7l0.4,0.8C6.4,1.5,6.7,1.4,7,1.4l0.3-0.8c0.1-0.2,0.2-0.4,0.4-0.5C7.9,0,8.1,0,8.3,0l1.8,0.5
			c0.2,0.1,0.4,0.2,0.5,0.4c0.1,0.2,0.1,0.4,0.1,0.6l-0.3,0.8c0.3,0.2,0.5,0.4,0.7,0.6l0.8-0.4c0.2-0.1,0.4-0.1,0.6-0.1
			C12.7,2.6,12.9,2.8,13,3l0.9,1.6c0.2,0.4,0.1,0.9-0.3,1.1l-0.8,0.4c0.1,0.3,0.1,0.6,0.1,0.9l0.8,0.3c0.4,0.1,0.7,0.6,0.5,1
			l-0.5,1.8c-0.1,0.4-0.6,0.7-1,0.6l-0.8-0.3c-0.2,0.3-0.4,0.5-0.6,0.7l0.4,0.8c0.2,0.4,0.1,0.9-0.3,1.1l-1.6,0.9
			c-0.2,0.1-0.4,0.1-0.6,0.1c-0.2-0.1-0.4-0.2-0.5-0.4l-0.4-0.8c-0.3,0.1-0.6,0.1-0.9,0.1L7,13.7C6.9,14,6.5,14.2,6.2,14.2z
			 M4.8,12.7L6,13.1l0.2-0.8c0.1-0.4,0.5-0.6,0.8-0.6c0.4,0,0.7,0,1.1-0.1C8.5,11.6,8.9,11.7,9,12l0.4,0.7l1.2-0.6l-0.4-0.7
			c-0.2-0.3-0.1-0.7,0.2-1c0.3-0.2,0.5-0.5,0.7-0.8c0.2-0.3,0.6-0.5,0.9-0.3l0.8,0.2l0.4-1.3L12.3,8c-0.4-0.1-0.6-0.4-0.6-0.8
			c0-0.4,0-0.7-0.1-1.1c-0.1-0.4,0.1-0.7,0.4-0.9l0.7-0.4l-0.6-1.2l-0.7,0.4c-0.3,0.2-0.7,0.1-1-0.2c-0.2-0.3-0.5-0.5-0.8-0.7
			C9.3,3,9.2,2.7,9.3,2.3l0.2-0.8L8.3,1.2L8,1.9C7.9,2.3,7.6,2.5,7.2,2.5c-0.4,0-0.7,0-1.1,0.1C5.8,2.7,5.4,2.5,5.2,2.2L4.9,1.5
			L3.7,2.1l0.4,0.7c0.2,0.3,0.1,0.7-0.2,1C3.7,4.1,3.5,4.3,3.3,4.6C3.1,4.9,2.7,5.1,2.3,5L1.6,4.7L1.2,6l0.8,0.2
			C2.3,6.3,2.5,6.7,2.5,7c0,0.4,0,0.7,0.1,1.1C2.7,8.5,2.5,8.8,2.2,9L1.5,9.4l0.6,1.2l0.7-0.4c0.3-0.2,0.7-0.1,1,0.2
			c0.2,0.3,0.5,0.5,0.8,0.7C5,11.2,5.1,11.6,5,11.9L4.8,12.7z M9.2,12.9C9.2,12.9,9.2,12.9,9.2,12.9L9.2,12.9z M4.5,12.6L4.5,12.6
			C4.5,12.6,4.5,12.6,4.5,12.6z M1.3,9.5L1.3,9.5C1.3,9.5,1.3,9.5,1.3,9.5z M1.7,8C1.7,8,1.7,8,1.7,8L1.7,8z M1.6,7.3
			C1.6,7.3,1.6,7.3,1.6,7.3L1.6,7.3z M0.9,5.9L0.9,5.9C0.9,5.9,0.9,5.9,0.9,5.9z M12.7,5.9C12.7,5.9,12.7,5.9,12.7,5.9
			C12.7,5.9,12.7,5.9,12.7,5.9z M2.6,3.9L2.6,3.9C2.6,3.9,2.6,3.9,2.6,3.9z M12,3.5C12,3.5,12,3.5,12,3.5L12,3.5z M11.2,3.2
			C11.2,3.2,11.2,3.2,11.2,3.2C11.2,3.2,11.2,3.2,11.2,3.2z M3.2,3C3.2,3,3.2,3,3.2,3C3.2,3,3.2,3,3.2,3z M9.8,1.6
			C9.8,1.6,9.8,1.6,9.8,1.6L9.8,1.6z M5.9,1.5C5.9,1.5,5.9,1.5,5.9,1.5C5.9,1.5,5.9,1.5,5.9,1.5z M7.1,10.4c-0.3,0-0.6,0-0.9-0.1
			C4.5,9.7,3.5,7.9,4,6.2c0.5-1.7,2.3-2.7,4-2.2c1.7,0.5,2.7,2.3,2.2,4C9.8,9.5,8.5,10.4,7.1,10.4z M7.1,5C6.2,5,5.4,5.6,5.1,6.5
			C4.9,7,5,7.6,5.2,8.1S6,9,6.5,9.2c1.1,0.3,2.3-0.3,2.7-1.4c0.3-1.1-0.3-2.3-1.4-2.7C7.6,5,7.3,5,7.1,5z"/>
	</g>
</g>
</svg>
