<?xml version="1.0" encoding="utf-8"?>
<!-- Generator: Adobe Illustrator 25.0.0, SVG Export Plug-In . SVG Version: 6.00 Build 0)  -->
<svg version="1.1" id="Layer_1" xmlns="http://www.w3.org/2000/svg" xmlns:xlink="http://www.w3.org/1999/xlink" x="0px" y="0px"
	 viewBox="0 0 36 36" style="enable-background:new 0 0 36 36;" xml:space="preserve">
<style type="text/css">
	.st0{fill:#CB1618;}
	.st1{fill:#185ABD;}
	.st2{fill:#D83039;}
	.st3{fill:#103F91;}
	.st4{fill:#185C37;}
	.st5{fill:#33C481;}
	.st6{fill:#107C41;}
	.st7{fill:#21A366;}
	.st8{fill:#0B4A99;}
	.st9{fill:none;}
	.st10{fill:#FFFFFF;}
	.st11{fill:#41A5EE;}
	.st12{fill:#2B7CD3;}
	.st13{opacity:0.5;enable-background:new    ;}
	.st14{fill:url(#SVGID_1_);}
	.st15{fill:url(#SVGID_2_);}
	.st16{fill:url(#SVGID_3_);}
	.st17{fill:url(#SVGID_4_);}
	.st18{fill:#E24951;}
	.st19{fill-rule:evenodd;clip-rule:evenodd;}
	.st20{fill:#262625;}
	.st21{fill:none;stroke:#000000;stroke-width:0.75;stroke-miterlimit:10;}
	.st22{fill:none;stroke:#000000;stroke-width:1.2;stroke-miterlimit:10;}
	.st23{fill-rule:evenodd;clip-rule:evenodd;fill:#FFFFFF;}
	.st24{fill:none;stroke:#0071C5;stroke-width:1.3;stroke-linecap:round;stroke-miterlimit:10;}
	.st25{fill:none;stroke:#F0AB00;stroke-width:1.3;stroke-miterlimit:10;}
	.st26{fill:none;stroke:#1C55A6;stroke-width:1.3;stroke-linecap:round;}
	.st27{fill-rule:evenodd;clip-rule:evenodd;fill:none;stroke:#1C55A6;stroke-width:1.3;stroke-linecap:round;}
	.st28{fill:none;stroke:#1C55A6;stroke-width:1.3;stroke-linecap:round;stroke-miterlimit:10;}
	.st29{fill:#FFFFFF;stroke:#231F20;}
	.st30{fill:none;stroke:#0B4A99;stroke-width:1.3;stroke-miterlimit:10;}
</style>
<g>
	<g>
		<path class="st10" d="M20.5,10.5c-2.9,0-5.2-2.4-5.2-5.2S17.6,0,20.5,0s5.2,2.4,5.2,5.2S23.4,10.5,20.5,10.5z M20.5,1.2
			c-2.3,0-4.1,1.8-4.1,4.1s1.8,4.1,4.1,4.1s4.1-1.8,4.1-4.1S22.8,1.2,20.5,1.2z"/>
	</g>
	<g>
		<path class="st10" d="M6.7,31.8c-2.9,0-5.2-2.4-5.2-5.2c0-2.9,2.4-5.2,5.2-5.2c2.9,0,5.2,2.4,5.2,5.2C12,29.5,9.6,31.8,6.7,31.8z
			 M6.7,22.5c-2.3,0-4.1,1.8-4.1,4.1s1.8,4.1,4.1,4.1s4.1-1.8,4.1-4.1S9,22.5,6.7,22.5z"/>
	</g>
	<g>
		<path class="st10" d="M5.6,15.5c-2.9,0-5.2-2.4-5.2-5.2S2.8,5,5.6,5s5.2,2.4,5.2,5.2S8.5,15.5,5.6,15.5z M5.6,6.2
			c-2.3,0-4.1,1.8-4.1,4.1s1.8,4.1,4.1,4.1s4.1-1.8,4.1-4.1S7.9,6.2,5.6,6.2z"/>
	</g>
	<g>
		<path class="st10" d="M21.4,36c-2.9,0-5.2-2.4-5.2-5.2s2.4-5.2,5.2-5.2s5.2,2.4,5.2,5.2S24.3,36,21.4,36z M21.4,26.7
			c-2.3,0-4.1,1.8-4.1,4.1s1.8,4.1,4.1,4.1s4.1-1.8,4.1-4.1S23.7,26.7,21.4,26.7z"/>
	</g>
	<g>
		<path class="st10" d="M30.4,23c-2.9,0-5.2-2.4-5.2-5.2c0-2.9,2.4-5.2,5.2-5.2c2.9,0,5.2,2.4,5.2,5.2C35.6,20.7,33.2,23,30.4,23z
			 M30.4,13.7c-2.3,0-4.1,1.8-4.1,4.1s1.8,4.1,4.1,4.1s4.1-1.8,4.1-4.1S32.6,13.7,30.4,13.7z"/>
	</g>
	<g>
		
			<rect x="13.4" y="25.9" transform="matrix(0.3162 -0.9487 0.9487 0.3162 -17.8686 33.0173)" class="st10" width="1.2" height="6.1"/>
	</g>
	<g>
		
			<rect x="22.8" y="23.6" transform="matrix(0.5877 -0.8091 0.8091 0.5877 -8.8058 31.0875)" class="st10" width="6.6" height="1.2"/>
	</g>
	<g>
		<rect x="25" y="8" transform="matrix(0.7674 -0.6412 0.6412 0.7674 -1.2481 19.016)" class="st10" width="1.2" height="6.6"/>
	</g>
	<g>
		<rect x="9.7" y="6.9" transform="matrix(0.9525 -0.3045 0.3045 0.9525 -1.6665 4.3268)" class="st10" width="6.6" height="1.2"/>
	</g>
	<g>
		
			<rect x="5.5" y="14.8" transform="matrix(0.9987 -5.157326e-02 5.157326e-02 0.9987 -0.9432 0.339)" class="st10" width="1.2" height="7.3"/>
	</g>
	<g>
		
			<rect x="5.5" y="15.3" transform="matrix(0.5212 -0.8534 0.8534 0.5212 -6.9391 19.3561)" class="st10" width="16.6" height="1.2"/>
	</g>
	<g>
		
			<rect x="17.5" y="5.6" transform="matrix(0.3082 -0.9513 0.9513 0.3082 -0.8614 26.957)" class="st10" width="1.2" height="16.9"/>
	</g>
	<g>
		
			<rect x="20.5" y="9.7" transform="matrix(0.9998 -1.881696e-02 1.881696e-02 0.9998 -0.334 0.4006)" class="st10" width="1.2" height="16.5"/>
	</g>
	<g>
		
			<rect x="13.1" y="12.2" transform="matrix(0.7869 -0.6171 0.6171 0.7869 -9.7376 12.7979)" class="st10" width="1.2" height="16.6"/>
	</g>
</g>
</svg>
