<?xml version="1.0" encoding="utf-8"?>
<!-- Generator: Adobe Illustrator 25.0.0, SVG Export Plug-In . SVG Version: 6.00 Build 0)  -->
<svg version="1.1" id="Layer_1" xmlns="http://www.w3.org/2000/svg" xmlns:xlink="http://www.w3.org/1999/xlink" x="0px" y="0px"
	 viewBox="0 0 36 36" style="enable-background:new 0 0 36 36;" xml:space="preserve">
<style type="text/css">
	.st0{fill:#CB1618;}
	.st1{fill:#185ABD;}
	.st2{fill:#D83039;}
	.st3{fill:#103F91;}
	.st4{fill:#185C37;}
	.st5{fill:#33C481;}
	.st6{fill:#107C41;}
	.st7{fill:#21A366;}
	.st8{fill:#0B4A99;}
	.st9{fill:none;}
	.st10{fill:#FFFFFF;}
	.st11{fill:#41A5EE;}
	.st12{fill:#2B7CD3;}
	.st13{opacity:0.5;enable-background:new    ;}
	.st14{fill:url(#SVGID_1_);}
	.st15{fill:url(#SVGID_2_);}
	.st16{fill:url(#SVGID_3_);}
	.st17{fill:url(#SVGID_4_);}
	.st18{fill:#E24951;}
	.st19{fill-rule:evenodd;clip-rule:evenodd;}
	.st20{fill:#262625;}
	.st21{fill:none;stroke:#000000;stroke-width:0.75;stroke-miterlimit:10;}
	.st22{fill:none;stroke:#000000;stroke-width:1.2;stroke-miterlimit:10;}
	.st23{fill-rule:evenodd;clip-rule:evenodd;fill:#FFFFFF;}
	.st24{fill:none;stroke:#0071C5;stroke-width:1.3;stroke-linecap:round;stroke-miterlimit:10;}
	.st25{fill:none;stroke:#F0AB00;stroke-width:1.3;stroke-miterlimit:10;}
	.st26{fill:none;stroke:#1C55A6;stroke-width:1.3;stroke-linecap:round;}
	.st27{fill-rule:evenodd;clip-rule:evenodd;fill:none;stroke:#1C55A6;stroke-width:1.3;stroke-linecap:round;}
	.st28{fill:none;stroke:#1C55A6;stroke-width:1.3;stroke-linecap:round;stroke-miterlimit:10;}
	.st29{fill:#FFFFFF;stroke:#231F20;}
	.st30{fill:none;stroke:#0B4A99;stroke-width:1.3;stroke-miterlimit:10;}
</style>
<g>
	
		<rect x="13.8" y="31.7" transform="matrix(0.2961 -0.9551 0.9551 0.2961 -18.5005 39.4172)" class="st10" width="7.5" height="1.2"/>
</g>
<g>
	<path class="st10" d="M20.9,27.9c-3,0-5.5-2.5-5.5-5.5s2.5-5.5,5.5-5.5s5.5,2.5,5.5,5.5C26.4,25.3,23.8,27.9,20.9,27.9z M20.9,17.8
		c-2.5,0-4.5,2-4.5,4.5s2,4.5,4.5,4.5c2.4,0,4.5-2.1,4.5-4.5C25.4,19.9,23.4,17.8,20.9,17.8z"/>
</g>
<g>
	<path class="st10" d="M12.8,25.2c-2.1-0.2-3.4-0.6-3.4-0.6c-2.2-0.7-3.5-1.7-3.7-2.9l1.1-0.2c0.1,0.7,1.2,1.5,2.9,2
		c0,0,1.2,0.4,3.2,0.6L12.8,25.2z"/>
</g>
<g>
	<path class="st10" d="M15.3,8.3c-4.8,0-9.7-1.4-9.7-4.1c0-2.7,4.9-4.1,9.7-4.1s9.7,1.4,9.7,4.1C25.1,6.9,20.2,8.3,15.3,8.3z
		 M15.3,1.2c-5.1,0-8.6,1.5-8.6,3c0,1.4,3.4,3,8.6,3s8.6-1.5,8.6-3C23.9,2.7,20.5,1.2,15.3,1.2z"/>
</g>
<g>
	<path class="st10" d="M15.5,16.5c-5.3,0-9.4-1.5-9.9-3.8l1.1-0.3c0.3,1.4,3.7,2.9,8.7,2.9V16.5z"/>
</g>
<g>
	<path class="st10" d="M15,16.5v-1.2c5,0,8.4-1.5,8.7-2.9l1.1,0.3C24.4,15,20.3,16.5,15,16.5z"/>
</g>
<g>
	<path class="st10" d="M6.8,29.8c-1.3,0-2.3-1-2.3-2.3s1-2.3,2.3-2.3s2.3,1,2.3,2.3S8.1,29.8,6.8,29.8z M6.8,26.3
		c-0.6,0-1.1,0.5-1.1,1.1s0.5,1.1,1.1,1.1s1.1-0.5,1.1-1.1S7.4,26.3,6.8,26.3z"/>
</g>
<g>
	<path class="st10" d="M11.6,33.9c-1.3,0-2.3-1-2.3-2.3s1-2.3,2.3-2.3s2.3,1,2.3,2.3S12.9,33.9,11.6,33.9z M11.6,30.4
		c-0.6,0-1.1,0.5-1.1,1.1c0,0.6,0.5,1.1,1.1,1.1s1.1-0.5,1.1-1.1C12.7,30.9,12.2,30.4,11.6,30.4z"/>
</g>
<g>
	<path class="st10" d="M28.4,30.7c-1.3,0-2.3-1-2.3-2.3s1-2.3,2.3-2.3s2.3,1,2.3,2.3S29.7,30.7,28.4,30.7z M28.4,27.3
		c-0.6,0-1.1,0.5-1.1,1.1s0.5,1.1,1.1,1.1s1.1-0.5,1.1-1.1S29,27.3,28.4,27.3z"/>
</g>
<g>
	<path class="st10" d="M20.8,24.8c-1.3,0-2.3-1-2.3-2.3s1-2.3,2.3-2.3c1.3,0,2.3,1,2.3,2.3S22.1,24.8,20.8,24.8z M20.8,21.3
		c-0.6,0-1.1,0.5-1.1,1.1s0.5,1.1,1.1,1.1c0.6,0,1.1-0.5,1.1-1.1S21.4,21.3,20.8,21.3z"/>
</g>
<g>
	<path class="st10" d="M33.7,25.2c-1.3,0-2.3-1-2.3-2.3c0-1.3,1-2.3,2.3-2.3c1.3,0,2.3,1,2.3,2.3C36,24.1,35,25.2,33.7,25.2z
		 M33.7,21.7c-0.6,0-1.1,0.5-1.1,1.1s0.5,1.1,1.1,1.1c0.6,0,1.1-0.5,1.1-1.1S34.3,21.7,33.7,21.7z"/>
</g>
<g>
	<rect x="18" y="27.5" transform="matrix(0.2578 -0.9662 0.9662 0.2578 -12.9495 38.9219)" class="st10" width="1.7" height="0.7"/>
</g>
<g>
	<rect x="18.1" y="27.4" transform="matrix(0.3024 -0.9532 0.9532 0.3024 -14.4133 37.7135)" class="st10" width="1" height="2.6"/>
</g>
<g>
	<rect x="28.9" y="25.1" transform="matrix(0.6873 -0.7264 0.7264 0.6873 -8.9458 30.5053)" class="st10" width="4" height="1.2"/>
</g>
<g>
	<rect x="24.1" y="22.5" transform="matrix(0.6393 -0.769 0.769 0.6393 -10.5955 28.1547)" class="st10" width="1.2" height="5.8"/>
</g>
<g>
	<rect x="11.6" y="26.3" transform="matrix(0.689 -0.7248 0.7248 0.689 -14.4642 20.0494)" class="st10" width="9.1" height="1.2"/>
</g>
<g>
	
		<rect x="8.7" y="28.2" transform="matrix(0.6722 -0.7403 0.7403 0.6722 -18.8244 16.5937)" class="st10" width="1.2" height="2.7"/>
</g>
<g>
	<rect x="-0.5" y="30.3" transform="matrix(0.7327 -0.6806 0.6806 0.7327 -20.2573 10.2746)" class="st10" width="7" height="1.2"/>
</g>
<g>
	<path class="st10" d="M26.8,18.3h-1v-1.2h0.7v-0.6c0-0.4,0.3-0.7,0.6-0.8c0.3-0.1,0.6-0.2,0.9-0.4c0.3-0.2,0.7-0.1,1,0.1l0.4,0.4
		l0.7-0.7l-0.4-0.4c-0.3-0.3-0.3-0.7-0.1-1c0.2-0.3,0.3-0.6,0.4-0.9c0.1-0.4,0.4-0.6,0.8-0.6h0.6v-1h-0.6c-0.4,0-0.7-0.3-0.8-0.6
		c-0.1-0.3-0.2-0.6-0.4-0.9c-0.2-0.3-0.1-0.7,0.1-1l0.4-0.4l-0.7-0.7l-0.4,0.4c-0.3,0.3-0.7,0.3-1,0.1c-0.3-0.2-0.6-0.3-0.9-0.4
		c-0.4-0.1-0.6-0.4-0.6-0.8V6.4h-0.7V5.2h1c0.5,0,0.8,0.4,0.8,0.8v0.7c0.2,0.1,0.4,0.2,0.7,0.3l0.5-0.5c0.2-0.2,0.4-0.2,0.6-0.2
		c0.2,0,0.4,0.1,0.6,0.2l1.2,1.2c0.3,0.3,0.3,0.9,0,1.2l-0.5,0.5c0.1,0.2,0.2,0.4,0.3,0.7h0.7c0.5,0,0.8,0.4,0.8,0.8v1.7
		c0,0.5-0.4,0.8-0.8,0.8h-0.7c-0.1,0.2-0.2,0.4-0.3,0.7l0.5,0.5c0.3,0.3,0.3,0.9,0,1.2L30,16.9c-0.2,0.2-0.4,0.2-0.6,0.2
		c-0.2,0-0.4-0.1-0.6-0.2l-0.5-0.5c-0.2,0.1-0.4,0.2-0.7,0.3v0.7C27.6,17.9,27.3,18.3,26.8,18.3z M29.2,16.1
		C29.2,16.1,29.2,16.1,29.2,16.1L29.2,16.1z M30.5,13.9L30.5,13.9C30.5,13.9,30.5,13.9,30.5,13.9z M29.2,7.4
		C29.2,7.4,29.2,7.4,29.2,7.4L29.2,7.4z"/>
</g>
<g>
	<path class="st10" d="M26,14.8c-0.1,0-0.1,0-0.2,0l0.1-1.2l0.1,0c0,0,0,0,0,0c1.1,0,1.9-0.8,1.9-1.8c0-1-0.8-1.8-1.8-1.8l-0.2,0
		l-0.1-1.2l0,0.6l0-0.6c0.1,0,0.1,0,0.2,0c1.7,0,3,1.4,3,3S27.6,14.8,26,14.8z"/>
</g>
</svg>
