<?xml version="1.0" encoding="utf-8"?>
<!-- Generator: Adobe Illustrator 25.0.0, SVG Export Plug-In . SVG Version: 6.00 Build 0)  -->
<svg version="1.1" id="Layer_1" xmlns="http://www.w3.org/2000/svg" xmlns:xlink="http://www.w3.org/1999/xlink" x="0px" y="0px"
	 viewBox="0 0 36 36" style="enable-background:new 0 0 36 36;" xml:space="preserve">
<style type="text/css">
	.st0{fill:#FFFFFF;}
</style>
<g>
	<g>
		<path class="st0" d="M0,12.5l0.3-4.3c0.3-3.8,3.6-6.8,7.4-6.8h6.6c2,0,4,0.7,5.5,2.1l-0.7,0.8c-1.3-1.2-3-1.8-4.8-1.8H7.8
			C4.5,2.4,1.7,5,1.4,8.3v0.6c1.1-1.1,2.5-2,4.4-2.9l0.4,1c-2.4,1.1-4,2.3-5.1,3.8L0,12.5z"/>
	</g>
	<g>
		<path class="st0" d="M11.2,24.2H5.7c-1.7,0-3-1.4-3-3v-4.1l-1.4-1.4l0.8-1.1c0.4-0.5,0.6-1.1,0.6-1.7V8.1h1.1v4.8
			c0,0.8-0.3,1.7-0.8,2.3l-0.3,0.3l1.1,1.1v4.5c0,1.1,0.9,2,2,2h5.5c0.6,0,1.1-0.2,1.5-0.6l1-1l0.8,0.8l-1,1
			C12.8,23.9,12,24.2,11.2,24.2z"/>
	</g>
	<g>
		<path class="st0" d="M5.4,22H3.2v-1.1h2.2c1.5,0,2.7-1.1,3-2.5H3.2v-1.1h6.3v0.5C9.5,20.1,7.7,22,5.4,22z"/>
	</g>
	<g>
		<rect x="9.6" y="23.7" class="st0" width="1.1" height="4.5"/>
	</g>
	<g>
		<path class="st0" d="M21.7,35.7h-19v-0.5c0-4.2,3.4-7.6,7.6-7.6h2.6c0.3,0,0.5,0.2,0.6,0.5s-0.1,0.6-0.3,0.7
			c-2.7,1.3-2.6,4.6-2.5,5.8h11.2v1.1H21.7z M3.7,34.6h5.8c-0.1-1.3-0.1-4.2,1.9-6h-1.2C6.8,28.6,4,31.3,3.7,34.6z"/>
	</g>
	<g>
		<path class="st0" d="M18.7,21.8c-0.3-2.3,0.9-4.8,0.9-4.9l1,0.4c0,0-1.1,2.4-0.8,4.4L18.7,21.8z"/>
	</g>
	<g>
		<path class="st0" d="M19.2,35c-0.5,0-0.8-0.2-0.9-0.7L18.1,34c-0.1-0.2-0.1-0.4-0.2-0.6c0,0-0.1,0-0.2,0.1s-0.3,0.1-0.4,0.2
			l-0.2,0.1c-0.4,0.2-0.7,0.1-1.1-0.1c-0.6-0.4-1.1-0.9-1.5-1.5c-0.2-0.3-0.3-0.7-0.1-1.1c0.1-0.2,0.2-0.4,0.3-0.6l0.1-0.1
			c0,0,0,0-0.1,0h-0.2c-0.2-0.1-0.5-0.2-0.7-0.2c-0.4-0.1-0.7-0.5-0.7-0.9c0-0.6,0-1.3,0-1.9c0-0.5,0.2-0.8,0.7-0.9l0.9-0.3
			c0,0,0,0,0-0.1c-0.1-0.2-0.2-0.4-0.4-0.7c-0.2-0.4-0.1-0.7,0.1-1.1c0.4-0.6,1-1.1,1.5-1.5c0.1-0.1,0.2-0.1,0.3-0.2l0.2-0.1
			l0.4,0.1c0.1,0,0.1,0.1,0.2,0.1c0.2,0.1,0.5,0.2,0.7,0.3l0.1-0.2l0.2-0.6c0.2-0.5,0.5-0.7,1-0.7c0.6,0,1.3,0,1.9,0
			c0.5,0,0.8,0.2,0.9,0.7l0.1,0.4c0.1,0.2,0.1,0.3,0.2,0.5c0.1,0,0.1,0.1,0.2,0c0.2-0.2,0.5-0.3,0.7-0.3c0.1,0,0.5-0.1,0.9,0.1
			c0.7,0.5,1.2,1,1.6,1.6c0.3,0.4,0.2,0.8,0,1c-0.1,0.2-0.2,0.4-0.3,0.6v0.1c0,0,0,0.1,0.1,0.1c0.2,0,0.4,0.1,0.5,0.2l0.2,0.1
			c0.6,0.2,0.7,0.6,0.7,0.9v1.9c0,0.5-0.2,0.8-0.7,1l-0.2,0.1c-0.2,0.1-0.5,0.2-0.7,0.2c0,0,0,0.1,0.1,0.2s0.1,0.3,0.2,0.4l0.1,0.1
			c0.2,0.4,0.1,0.8-0.1,1.1c-0.4,0.6-0.9,1.1-1.5,1.5c-0.3,0.3-0.7,0.3-1.1,0.1C22.7,34,22.6,34,22.5,34c-0.1-0.1-0.2-0.1-0.4-0.2
			c-0.1,0-0.1,0-0.1,0.2s-0.1,0.4-0.2,0.6l0.2-0.3c-0.2,0.5-0.5,0.7-1,0.7H19.2z M19.2,33.9H21v-0.1c0-0.1,0.1-0.3,0.1-0.4
			c0.1-0.5,0.4-0.8,0.9-1c0.1,0,0.4-0.1,0.7,0.1c0.1,0.1,0.2,0.1,0.4,0.2c0.1,0.1,0.2,0.1,0.3,0.2c0.5-0.4,0.9-0.8,1.3-1.3l-0.1-0.2
			c0-0.1-0.1-0.2-0.1-0.2c-0.3-0.5-0.3-1,0-1.4c0.1-0.1,0.2-0.3,0.4-0.4c0.3-0.1,0.5-0.2,0.8-0.3h0.1v-1.8l-0.1-0.1
			c-0.1,0-0.3-0.1-0.4-0.1c-0.7-0.2-0.9-0.6-1-0.9c0-0.2-0.1-0.3,0-0.6c0.1-0.3,0.2-0.6,0.4-0.9c-0.3-0.5-0.7-0.9-1.3-1.3
			c-0.1,0.1-0.2,0.1-0.4,0.2c-0.5,0.3-1,0.3-1.4,0c-0.2-0.1-0.3-0.3-0.4-0.4c-0.1-0.2-0.1-0.4-0.2-0.6l-0.1-0.3c-0.6,0-1.2,0-1.8,0
			L19,23.1c-0.1,0.3-0.3,0.5-0.6,0.6c-0.3,0.1-0.6,0.1-0.9,0c-0.2-0.1-0.5-0.2-0.7-0.3l0,0l0,0c-0.5,0.3-0.9,0.8-1.3,1.3
			c0.1,0.2,0.3,0.5,0.4,0.8c0.1,0.2,0.1,0.5,0,0.8s-0.3,0.5-0.6,0.6l-0.9,0.3c0,0.6,0,1.2,0,1.8c0.2,0.1,0.4,0.1,0.6,0.2l0.2,0.1
			c0.3,0.1,0.5,0.3,0.6,0.6c0.1,0.3,0.1,0.6,0,0.8l-0.1,0.1c-0.1,0.2-0.2,0.4-0.3,0.7c0.4,0.5,0.8,0.9,1.3,1.3l0.2-0.1
			c0.1,0,0.2-0.1,0.3-0.1c0.6-0.4,1.1-0.2,1.4,0c0.1,0.1,0.3,0.2,0.4,0.4s0.1,0.4,0.2,0.6L19.2,33.9z M22.4,33.4L22.4,33.4
			L22.4,33.4z M25.4,25.9L25.4,25.9L25.4,25.9z"/>
	</g>
	<g>
		<path class="st0" d="M20.1,31.2L20.1,31.2c-1.7,0-3-1.4-3-3.1c0-0.8,0.3-1.6,0.9-2.2s1.4-0.9,2.2-0.9c0.8,0,1.6,0.4,2.2,1
			s0.9,1.4,0.8,2.1c0,0.8-0.3,1.6-0.9,2.2C21.7,30.9,20.9,31.2,20.1,31.2z M20.2,26.1c-0.5,0-1,0.2-1.4,0.6s-0.6,0.9-0.6,1.4
			c0,1.1,0.9,2,1.9,2c0.6,0,1.1-0.2,1.5-0.6s0.6-0.9,0.6-1.4l0,0c0-0.5-0.2-1-0.6-1.4C21.2,26.3,20.7,26.1,20.2,26.1L20.2,26.1z"/>
	</g>
	<g>
		<path class="st0" d="M31.1,23.5h-1.5c-0.4,0-0.7-0.2-0.9-0.6l-0.1-0.3c0-0.1-0.1-0.2-0.1-0.3c-0.2,0.1-0.3,0.1-0.4,0.2l-0.1,0
			c-0.3,0.2-0.7,0.1-1-0.1c-0.5-0.4-0.9-0.8-1.2-1.2c-0.2-0.3-0.3-0.7-0.1-1c0.1-0.2,0.2-0.3,0.2-0.5h-0.1c-0.2-0.1-0.4-0.1-0.5-0.2
			c-0.4-0.1-0.6-0.4-0.6-0.8c0-0.5,0-1,0-1.6c0-0.4,0.2-0.7,0.6-0.9l0.6-0.2c-0.1-0.2-0.2-0.3-0.2-0.5c-0.2-0.3-0.1-0.7,0.1-1
			c0.4-0.5,0.8-0.9,1.2-1.3c0.1-0.1,0.2-0.1,0.3-0.1l0.2-0.1h0.3l-0.2,0.5l0.3-0.5c0.1,0,0.1,0,0.2,0.1c0.2,0.1,0.3,0.2,0.5,0.2
			l0.2-0.6c0.1-0.4,0.4-0.6,0.9-0.6s1,0,1.5,0c0.4,0,0.7,0.2,0.9,0.6l0.1,0.3c0,0.1,0.1,0.2,0.1,0.3c0.3-0.1,0.5-0.2,0.6-0.3
			c0.1,0,0.5-0.1,0.8,0.1c0.6,0.4,1,0.8,1.3,1.3c0.2,0.3,0.2,0.6,0,0.9c-0.1,0.2-0.2,0.3-0.2,0.5l0,0c0.2,0,0.3,0.1,0.5,0.1h0.1
			c0.4,0.1,0.6,0.4,0.6,0.9v1.5c0,0.4-0.2,0.7-0.6,0.9h-0.1c-0.2,0-0.3,0.1-0.4,0.2c0.1,0.2,0.1,0.3,0.2,0.4l0.1,0.1
			c0.2,0.3,0.1,0.7-0.1,1c-0.3,0.5-0.8,0.9-1.2,1.2c-0.3,0.2-0.7,0.3-1,0.1l-0.2-0.1c-0.1,0-0.1-0.1-0.2-0.1
			c-0.1,0.2-0.1,0.3-0.2,0.5v0.1C31.9,23.3,31.6,23.5,31.1,23.5z M29.7,22.4H31l0,0c0-0.1,0.1-0.2,0.1-0.3c0.1-0.6,0.5-0.8,0.8-0.9
			c0.1,0,0.4-0.1,0.7,0.1c0.1,0.1,0.2,0.1,0.3,0.1l0.2,0.1c0.4-0.3,0.7-0.6,0.9-0.9v-0.1c0-0.1-0.1-0.1-0.1-0.2
			c-0.3-0.4-0.3-0.8,0-1.2c0.1-0.1,0.2-0.3,0.4-0.3c0.2-0.1,0.4-0.1,0.6-0.2l0,0v-1.3h-0.1c-0.1,0-0.2-0.1-0.3-0.1
			c-0.6-0.1-0.8-0.6-0.8-0.8c0-0.1-0.1-0.3,0-0.5c0.1-0.2,0.2-0.4,0.3-0.6c-0.2-0.3-0.5-0.6-0.9-0.9c-0.1,0-0.2,0.1-0.3,0.1
			c-0.4,0.3-0.9,0.3-1.2,0c-0.2-0.1-0.3-0.2-0.3-0.4c-0.1-0.2-0.1-0.3-0.2-0.5L31,13.3c-0.4,0-0.9,0-1.3,0l-0.2,0.6
			c-0.1,0.3-0.3,0.5-0.5,0.6c-0.3,0.1-0.6,0.1-0.8,0c-0.2-0.1-0.3-0.2-0.5-0.2c-0.4,0.3-0.7,0.6-0.9,0.9c0.1,0.2,0.2,0.4,0.3,0.6
			c0.1,0.2,0.1,0.5,0,0.8s-0.3,0.5-0.5,0.5L26,17.3c0,0.4,0,0.9,0,1.3c0.1,0,0.3,0.1,0.4,0.1l0.2,0.1c0.2,0.1,0.4,0.3,0.5,0.5
			c0.1,0.3,0.1,0.5,0,0.7v0.1c-0.1,0.2-0.2,0.3-0.2,0.5c0.3,0.3,0.6,0.7,0.9,0.9h0.1c0.1,0,0.1-0.1,0.2-0.1c0.6-0.4,1-0.2,1.2,0
			c0.1,0.1,0.3,0.2,0.3,0.4c0.1,0.2,0.1,0.3,0.2,0.5L29.7,22.4z M32.1,22.2L32.1,22.2L32.1,22.2z M28.5,22.2L28.5,22.2L28.5,22.2z
			 M27.6,21.6L27.6,21.6L27.6,21.6z M34.7,19.8L34.7,19.8L34.7,19.8z M26,19.6L26,19.6L26,19.6z M34.8,16l-0.5,0.2l0.5-0.1
			C34.8,16,34.8,16,34.8,16z"/>
	</g>
	<g>
		<path class="st0" d="M30.3,20.5L30.3,20.5c-1.4,0-2.5-1.2-2.5-2.6c0-0.7,0.3-1.3,0.8-1.8s1.2-0.7,1.8-0.7c0.7,0,1.3,0.3,1.8,0.8
			s0.7,1.1,0.7,1.8c0,0.7-0.3,1.3-0.8,1.8C31.7,20.2,31,20.5,30.3,20.5z M30.4,16.4c-0.4,0-0.8,0.2-1.1,0.4
			c-0.3,0.3-0.5,0.7-0.5,1.1c0,0.8,0.7,1.5,1.4,1.5l0,0c0.4,0,0.8-0.2,1.1-0.4c0.3-0.3,0.4-0.7,0.4-1.1l0,0c0-0.4-0.1-0.7-0.4-1
			C31.2,16.6,30.8,16.4,30.4,16.4L30.4,16.4z"/>
	</g>
	<g>
		<path class="st0" d="M25.2,19.4c-5-0.3-8.9-4.5-8.9-9.5c0-5.3,4.3-9.6,9.6-9.6s9.6,4.3,9.6,9.6c0,1.6-0.4,3.1-1.1,4.5l-0.9-0.5
			c0.7-1.2,1-2.6,1-4c0-4.7-3.8-8.5-8.5-8.5s-8.5,3.8-8.5,8.5c0,4.5,3.5,8.2,7.9,8.5L25.2,19.4z"/>
	</g>
	<g>
		<rect x="18.1" y="4.8" class="st0" width="15.7" height="1.1"/>
	</g>
	<g>
		<rect x="18.1" y="13.9" class="st0" width="8.4" height="1.1"/>
	</g>
	<g>
		<rect x="16.9" y="9.4" class="st0" width="18.1" height="1.1"/>
	</g>
	<g>
		<path class="st0" d="M29.4,14.2l-1-0.2c0.1-0.4,0.2-0.9,0.2-1.3l1.1,0.1C29.6,13.3,29.5,13.8,29.4,14.2z"/>
	</g>
	<g>
		<path class="st0" d="M25,19.1c-1.7-1-2.9-4.7-2.9-9.3s1.3-9.5,3.9-9.5c2.5,0,3.8,4.9,3.8,9.5c0,1-0.1,2-0.2,3l-1.1-0.1
			c0.1-0.9,0.2-1.9,0.2-2.9c0-4.9-1.5-8.5-2.8-8.5s-2.8,3.6-2.8,8.5c0,4.5,1.2,7.7,2.3,8.3L25,19.1z"/>
	</g>
	<g>
		<rect x="6.5" y="7.2" transform="matrix(0.813 -0.5822 0.5822 0.813 -2.9226 6.4029)" class="st0" width="4" height="1.1"/>
	</g>
	<g>
		<rect x="10.3" y="7.2" transform="matrix(0.829 -0.5592 0.5592 0.829 -2.2135 8.2303)" class="st0" width="4.1" height="1.1"/>
	</g>
	<g>
		<path class="st0" d="M7.2,12.8c-1.3,0-2.3-1-2.3-2.3H6c0,0.7,0.6,1.3,1.3,1.3s1.3-0.6,1.3-1.3h1.1C9.5,11.8,8.5,12.8,7.2,12.8z"/>
	</g>
</g>
</svg>
