<?xml version="1.0" encoding="utf-8"?>
<!-- Generator: Adobe Illustrator 25.0.0, SVG Export Plug-In . SVG Version: 6.00 Build 0)  -->
<svg version="1.1" id="Layer_1" xmlns="http://www.w3.org/2000/svg" xmlns:xlink="http://www.w3.org/1999/xlink" x="0px" y="0px"
	 viewBox="0 0 36 36" style="enable-background:new 0 0 36 36;" xml:space="preserve">
<style type="text/css">
	.st0{fill:#FFFFFF;}
</style>
<g>
	<g>
		<g>
			<path class="st0" d="M9.8,36c-0.5,0-1.1-0.2-1.5-0.6c-0.5-0.4-0.7-1-0.7-1.6L6.4,8.5h23.4l-1.2,25.3c0,1.2-1.1,2.2-2.3,2.2H10
				C9.9,36,9.9,36,9.8,36z M7.6,9.7l1.1,24.1c0,0.3,0.1,0.6,0.4,0.8c0.2,0.2,0.5,0.3,0.8,0.3h16.3c0.6,0,1.2-0.5,1.2-1.1l1.1-24.1
				C28.5,9.7,7.6,9.7,7.6,9.7z"/>
		</g>
		<g>
			<path class="st0" d="M29.8,3h-7.9V1.2h-7.5V3H6.2V1.8h7V1c0-0.5,0.5-1,1-1h7.9c0.5,0,1,0.5,1,1v0.9h6.7V3z"/>
		</g>
	</g>
	<g>
		
			<rect x="12" y="14.4" transform="matrix(0.9981 -6.153678e-02 6.153678e-02 0.9981 -1.3454 0.8175)" class="st0" width="1.2" height="15.7"/>
	</g>
	<g>
		
			<rect x="15.4" y="21.7" transform="matrix(6.187047e-02 -0.9981 0.9981 6.187047e-02 -0.3896 44.1537)" class="st0" width="15.7" height="1.2"/>
	</g>
	<g>
		<rect x="17.5" y="14.4" class="st0" width="1.2" height="15.7"/>
	</g>
</g>
</svg>
