<svg width="36" height="36" viewBox="0 0 36 36" fill="none" xmlns="http://www.w3.org/2000/svg">
<g clip-path="url(#clip0_11_64)">
<path d="M17.4 0.700003V10C17.4 10 23 9.8 25.3 14.8L33.3 9.7C33.3 9.7 27.9 -0.199996 17.4 0.700003Z" fill="white"/>
<path d="M25 15.7L24.7 15C23.5 12.3 20.9 10.6 18 10.6C17.9 10.6 17.7 10.6 17.6 10.6H16.9L16.8 10V0H17.6C17.7 0 17.8 0 18 0C24.6 0 30.7 3.6 33.8 9.4L34.1 9.9L25 15.7ZM18.1 9.4C21.3 9.4 24.1 11.2 25.6 13.9L32.5 9.5C29.5 4.4 24.1 1.3 18.1 1.2V9.4Z" fill="white"/>
<path d="M10.7 19.3H0.0999926V18.5C0.0999926 18.4 0.0999926 18.2 0.0999926 18.1C-7.37375e-06 8.2 7.69999 0.3 17.4 0H18V10.6H17.4C13.6 10.9 10.5 14.1 10.5 17.9C10.5 18.1 10.5 18.3 10.5 18.5L10.7 19.3ZM1.29999 18H9.39999C9.39999 13.7 12.6 10 16.8 9.5V1.3C7.99999 1.9 1.29999 9.1 1.29999 18Z" fill="white"/>
<path d="M5.6 31.1L5.2 30.6C2 27.4 0.2 23.1 0 18.6V18H10.6V18.6C10.7 20.3 11.4 21.9 12.6 23.1L13 23.5L5.6 31.1ZM1.3 19.3C1.6 23 3.1 26.6 5.6 29.3L11.3 23.5C10.3 22.3 9.6 20.8 9.4 19.3H1.3Z" fill="white"/>
<path d="M18 36C13.2 36 8.59999 34.1 5.19999 30.6L4.79999 30.2L12.3 22.6L12.7 23.1C14.1 24.6 16 25.4 18 25.4C22.1 25.4 25.4 22.1 25.4 18C25.4 17 25.2 16 24.8 15.1L24.6 14.6L33.6 8.9L33.9 9.5C35.2 12 36 15 36 18C36 27.9 27.9 36 18 36ZM6.49999 30.2C9.59999 33.1 13.7 34.7 18 34.7C27.2 34.7 34.7 27.2 34.7 18C34.7 15.4 34.1 12.9 33 10.6L26.1 15C26.4 15.9 26.6 16.9 26.6 18C26.6 22.8 22.7 26.6 18 26.6C15.8 26.6 13.8 25.8 12.2 24.4L6.49999 30.2Z" fill="white"/>
</g>
<defs>
<clipPath id="clip0_11_64">
<rect width="36" height="36" fill="white"/>
</clipPath>
</defs>
</svg>
