<?xml version="1.0" encoding="utf-8"?>
<!-- Generator: Adobe Illustrator 26.5.1, SVG Export Plug-In . SVG Version: 6.00 Build 0)  -->
<svg version="1.1" id="Layer_1" xmlns="http://www.w3.org/2000/svg" xmlns:xlink="http://www.w3.org/1999/xlink" x="0px" y="0px"
	 viewBox="0 0 36 36" style="enable-background:new 0 0 36 36;" xml:space="preserve">
<style type="text/css">
	.st0{fill:#FFFFFF;}
</style>
<path class="st0" d="M33.3,36.2H2.7C1.2,36.2,0,35,0,33.5V22.7C0,22.3,0.3,22,0.7,22s0.7,0.3,0.7,0.7v10.8c0,0.7,0.6,1.2,1.2,1.2
	h30.7c0.7,0,1.2-0.6,1.2-1.2V22.9c0-0.4,0.3-0.7,0.7-0.7s0.7,0.3,0.7,0.7v10.6C36,35,34.8,36.2,33.3,36.2z"/>
<g>
	<path class="st0" d="M18,29.5c-0.9,0-1.7-0.4-2.2-1l-7.9-9.3c-0.4-0.5-0.5-1.1-0.2-1.7c0.3-0.6,0.8-0.9,1.4-0.9H13V2.7
		C13,1.2,14.2,0,15.6,0h4.7C21.8,0,23,1.2,23,2.7v13.9h3.9c0.6,0,1.2,0.4,1.4,0.9c0.3,0.6,0.2,1.2-0.2,1.7l-7.9,9.3
		C19.7,29.1,18.9,29.5,18,29.5L18,29.5z M9.1,17.8c-0.2,0-0.2,0.1-0.3,0.2c0,0.1-0.1,0.2,0,0.3l7.9,9.3c0.3,0.4,0.8,0.6,1.2,0.6l0,0
		c0.5,0,0.9-0.2,1.2-0.6l7.9-9.3c0.1-0.1,0.1-0.2,0-0.3c0-0.1-0.1-0.2-0.3-0.2h-4.3c-0.5,0-0.9-0.4-0.9-0.9V2.7
		c0-0.7-0.6-1.4-1.4-1.4h-4.7c-0.7,0-1.4,0.6-1.4,1.4V17c0,0.5-0.4,0.9-0.9,0.9h-4V17.8z"/>
</g>
</svg>
