<?xml version="1.0" encoding="utf-8"?>
<!-- Generator: Adobe Illustrator 25.0.0, SVG Export Plug-In . SVG Version: 6.00 Build 0)  -->
<svg version="1.1" id="Layer_1" xmlns="http://www.w3.org/2000/svg" xmlns:xlink="http://www.w3.org/1999/xlink" x="0px" y="0px"
	 viewBox="0 0 36 36" style="enable-background:new 0 0 36 36;" xml:space="preserve">
<style type="text/css">
	.st0{fill:#FFFFFF;}
	.st1{fill:#0B4A99;}
</style>
<g>
	<g>
		<path class="st0" d="M30.8,29.4h-3.1v-1.2h3.1c0.7,0,1.2-0.5,1.2-1.2V9.8c0-0.6-0.4-1.5-0.9-1.9l-7.3-6c-0.5-0.4-1.4-0.7-2.1-0.7
			H10.4c-0.7,0-1.2,0.5-1.2,1.2v4.9H8V2.4C8,1.1,9,0,10.4,0h11.4c0.9,0,2.1,0.4,2.8,1l7.3,6c0.8,0.6,1.3,1.8,1.3,2.8V27
			C33.2,28.3,32.1,29.4,30.8,29.4z"/>
	</g>
	<g>
		<g>
			<path class="st0" d="M25.6,36H5.2c-0.8,0-2.4-0.5-2.4-2.4V9c0-1.3,1.1-2.4,2.4-2.4h11.4c0.9,0,2.1,0.4,2.8,1l7.3,6
				c0.8,0.6,1.3,1.8,1.3,2.8v17.3C28,34.9,27,36,25.6,36z M5.2,7.8C4.5,7.8,4,8.3,4,9v24.6c0,1.2,0.9,1.3,1.2,1.3h20.5
				c0.7,0,1.2-0.5,1.2-1.2V16.4c0-0.6-0.4-1.5-0.9-1.9l-7.3-6c-0.5-0.4-1.4-0.7-2.1-0.7H5.2z"/>
		</g>
	</g>
	<g>
		<path class="st0" d="M17,15.4H6.7c-0.3,0-0.6-0.3-0.6-0.6c0-0.3,0.3-0.6,0.6-0.6H17c0.3,0,0.6,0.3,0.6,0.6
			C17.6,15.1,17.3,15.4,17,15.4z"/>
	</g>
	<g>
		<path class="st0" d="M17,19.7H6.7c-0.3,0-0.6-0.3-0.6-0.6c0-0.3,0.3-0.6,0.6-0.6H17c0.3,0,0.6,0.3,0.6,0.6
			C17.6,19.4,17.3,19.7,17,19.7z"/>
	</g>
	<g>
		<path class="st0" d="M12.7,30.1c-2.3,0-4.1-1.8-4.1-4.1s1.8-4.1,4.1-4.1s4.1,1.8,4.1,4.1S15,30.1,12.7,30.1z M12.7,23
			c-1.6,0-3,1.3-3,3c0,1.6,1.3,3,3,3s3-1.3,3-3C15.7,24.3,14.4,23,12.7,23z"/>
	</g>
	<g>
		<path class="st0" d="M19.6,33.4c-0.1,0-0.3-0.1-0.4-0.2l-4.4-4.4c-0.2-0.2-0.2-0.6,0-0.8c0.2-0.2,0.6-0.2,0.8,0l4.4,4.4
			c0.2,0.2,0.2,0.6,0,0.8C19.9,33.4,19.8,33.4,19.6,33.4z"/>
	</g>
</g>
</svg>
