<?xml version="1.0" encoding="utf-8"?>
<!-- Generator: Adobe Illustrator 25.0.0, SVG Export Plug-In . SVG Version: 6.00 Build 0)  -->
<svg version="1.1" id="Layer_1" xmlns="http://www.w3.org/2000/svg" xmlns:xlink="http://www.w3.org/1999/xlink" x="0px" y="0px"
	 viewBox="0 0 36 36" style="enable-background:new 0 0 36 36;" xml:space="preserve">
<style type="text/css">
	.st0{fill:#FFFFFF;}
</style>
<g>
	<path class="st0" d="M11.1,27.9c-5.4,0-9.9-4.4-9.9-9.9c0-5.4,4.4-9.9,9.9-9.9c2.2,0,4.3,0.7,5.9,2c0.4-0.2,0.7-0.5,1-0.8
		c-1.9-1.5-4.3-2.4-6.9-2.4C5,6.9,0,11.9,0,18s5,11.1,11.1,11.1c2.6,0,5-0.9,6.9-2.4c-0.3-0.3-0.7-0.5-1-0.8
		C15.4,27.1,13.3,27.9,11.1,27.9z"/>
	<path class="st0" d="M24.9,6.9c-2.6,0-5,0.9-6.9,2.4c0.3,0.3,0.7,0.5,1,0.8c1.7-1.2,3.7-2,5.9-2c5.4,0,9.9,4.4,9.9,9.9
		c0,5.4-4.4,9.9-9.9,9.9c-2.2,0-4.3-0.7-5.9-2c-0.4,0.2-0.7,0.5-1,0.8c1.9,1.5,4.3,2.4,6.9,2.4C31,29.1,36,24.1,36,18
		S31,6.9,24.9,6.9z"/>
	<path class="st0" d="M19,10.1c-0.3-0.3-0.6-0.6-1-0.8c-0.3,0.3-0.7,0.5-1,0.8c-2,2-3.3,4.8-3.3,7.9s1.3,5.9,3.3,7.9
		c0.3,0.3,0.6,0.6,1,0.8c0.3-0.3,0.7-0.5,1-0.8c2-2,3.3-4.8,3.3-7.9C22.2,14.9,21,12.1,19,10.1z M18,25.1c-1.8-1.8-3-4.3-3-7.1
		s1.1-5.3,3-7.1c1.8,1.8,3,4.3,3,7.1S19.8,23.3,18,25.1z"/>
</g>
</svg>
