<?xml version="1.0" encoding="utf-8"?>
<!-- Generator: Adobe Illustrator 25.0.0, SVG Export Plug-In . SVG Version: 6.00 Build 0)  -->
<svg version="1.1" id="Layer_1" xmlns="http://www.w3.org/2000/svg" xmlns:xlink="http://www.w3.org/1999/xlink" x="0px" y="0px"
	 viewBox="0 0 36 36" style="enable-background:new 0 0 36 36;" xml:space="preserve">
<style type="text/css">
	.st0{fill:#FFFFFF;}
</style>
<g>
	<path class="st0" d="M22.5,14.3c-0.2,0-0.3-0.1-0.4-0.2c-0.2-0.2-0.2-0.6,0-0.9L34.7,0.4c0.2-0.2,0.6-0.2,0.9,0
		c0.2,0.2,0.2,0.6,0,0.9L22.9,14.1C22.8,14.2,22.7,14.3,22.5,14.3z"/>
	<path class="st0" d="M22.4,14.5c-0.4,0-0.7-0.3-0.7-0.7V0.6C21.7,0.3,22,0,22.3,0l0,0c0.3,0,0.6,0.3,0.6,0.6v12.7h12.5l0,0
		c0.3,0,0.6,0.3,0.6,0.6s-0.3,0.6-0.6,0.6L22.4,14.5z M22.9,13.8L22.9,13.8L22.9,13.8z"/>
</g>
<path class="st0" d="M0.8,35.9c-0.2,0-0.3-0.1-0.4-0.2c-0.2-0.2-0.3-0.6,0-0.9l12.8-13.1c0.2-0.2,0.6-0.2,0.9,0
	c0.2,0.2,0.3,0.6,0,0.9L1.1,35.7C1,35.8,0.9,35.9,0.8,35.9z"/>
<path class="st0" d="M13.7,36c-0.3,0-0.6-0.3-0.6-0.6V22.7H0.6l0,0c-0.3,0-0.6-0.3-0.6-0.6c0-0.3,0.3-0.6,0.6-0.6h13.1
	c0.4,0,0.7,0.3,0.7,0.7v13.2C14.4,35.7,14.1,36,13.7,36L13.7,36z M13.1,22.1L13.1,22.1L13.1,22.1z"/>
</svg>
