<?xml version="1.0" encoding="utf-8"?>
<!-- Generator: Adobe Illustrator 25.0.0, SVG Export Plug-In . SVG Version: 6.00 Build 0)  -->
<svg version="1.1" id="Layer_1" xmlns="http://www.w3.org/2000/svg" xmlns:xlink="http://www.w3.org/1999/xlink" x="0px" y="0px"
	 viewBox="0 0 36 36" style="enable-background:new 0 0 36 36;" xml:space="preserve">
<style type="text/css">
	.st0{fill:#FFFFFF;}
</style>
<g>
	<g>
		<path class="st0" d="M18.2,18.5c-4.7,0-8.5-3.8-8.5-8.5c0-4.2,3-7.7,7.2-8.4c0.3-0.1,0.7,0.2,0.7,0.5c0.1,0.3-0.2,0.7-0.5,0.7
			C13.6,3.4,11,6.4,11,10c0,4,3.3,7.3,7.3,7.3s7.3-3.3,7.3-7.3c0-3.6-2.7-6.7-6.3-7.2c-0.3,0-0.6-0.4-0.5-0.7c0-0.3,0.4-0.6,0.7-0.5
			c4.2,0.5,7.4,4.2,7.4,8.5C26.7,14.7,22.9,18.5,18.2,18.5z"/>
	</g>
	<g>
		<path class="st0" d="M26.4,34.5L26.4,34.5c-4.3-0.6-7.5-4.2-7.5-8.5c0-4.7,3.8-8.5,8.5-8.5s8.5,3.8,8.5,8.5c0,4.2-3,7.7-7.2,8.4
			c-0.3,0.1-0.7-0.2-0.7-0.5c-0.1-0.3,0.2-0.7,0.5-0.7c3.5-0.6,6.1-3.6,6.1-7.2c0-4-3.3-7.3-7.3-7.3S20,22,20,26
			c0,3.6,2.7,6.7,6.3,7.2c0.3,0,0.6,0.4,0.5,0.7C27,34.3,26.8,34.5,26.4,34.5z"/>
	</g>
	<g>
		<path class="st0" d="M8.5,34.5C3.8,34.5,0,30.7,0,26s3.8-8.5,8.5-8.5c4.2,0,7.7,3,8.4,7.2c0.1,0.3-0.2,0.7-0.5,0.7
			c-0.3,0.1-0.7-0.2-0.7-0.5c-0.6-3.5-3.6-6.1-7.2-6.1c-4,0-7.3,3.3-7.3,7.3s3.3,7.3,7.3,7.3c3.6,0,6.7-2.7,7.2-6.3
			c0-0.3,0.4-0.6,0.7-0.5c0.3,0,0.6,0.4,0.5,0.7C16.4,31.3,12.8,34.5,8.5,34.5z"/>
	</g>
	<g>
		<circle class="st0" cx="17.8" cy="6.9" r="1.9"/>
	</g>
	<g>
		<circle class="st0" cx="15.9" cy="12.7" r="1.9"/>
	</g>
	<g>
		<circle class="st0" cx="21" cy="11.3" r="1.9"/>
	</g>
	<g>
		<path class="st0" d="M13.8,27.5h-3.3c-0.3,0-0.5-0.2-0.5-0.5l0,0c0-0.3,0.2-0.5,0.5-0.5h3.3c0.3,0,0.5,0.2,0.5,0.5l0,0
			C14.4,27.3,14.1,27.5,13.8,27.5z"/>
	</g>
	<g>
		<path class="st0" d="M11.7,28.7v-3.3c0-0.3,0.2-0.5,0.5-0.5l0,0c0.3,0,0.5,0.2,0.5,0.5v3.3c0,0.3-0.2,0.5-0.5,0.5l0,0
			C11.9,29.2,11.7,29,11.7,28.7z"/>
	</g>
	<g>
		<path class="st0" d="M6.9,29.1H3.5c-0.3,0-0.5-0.2-0.5-0.5l0,0c0-0.3,0.2-0.5,0.5-0.5h3.3c0.3,0,0.5,0.2,0.5,0.5l0,0
			C7.4,28.9,7.2,29.1,6.9,29.1z"/>
	</g>
	<g>
		<path class="st0" d="M4.7,30.3V27c0-0.3,0.2-0.5,0.5-0.5l0,0c0.3,0,0.5,0.2,0.5,0.5v3.3c0,0.3-0.2,0.5-0.5,0.5l0,0
			C4.9,30.8,4.7,30.6,4.7,30.3z"/>
	</g>
	<g>
		<path class="st0" d="M9.9,23.4H6.5c-0.3,0-0.5-0.2-0.5-0.5l0,0c0-0.3,0.2-0.5,0.5-0.5h3.3c0.3,0,0.5,0.2,0.5,0.5l0,0
			C10.4,23.2,10.2,23.4,9.9,23.4z"/>
	</g>
	<g>
		<path class="st0" d="M7.7,24.6v-3.3c0-0.3,0.2-0.5,0.5-0.5l0,0c0.3,0,0.5,0.2,0.5,0.5v3.3c0,0.3-0.2,0.5-0.5,0.5l0,0
			C7.9,25.1,7.7,24.9,7.7,24.6z"/>
	</g>
	<g>
		<path class="st0" d="M28.5,24.1h-2c-0.3,0-0.6-0.3-0.6-0.6v-2c0-0.3,0.3-0.6,0.6-0.6h2c0.3,0,0.6,0.3,0.6,0.6v2
			C29.1,23.8,28.8,24.1,28.5,24.1z"/>
	</g>
	<g>
		<path class="st0" d="M31.5,29.9h-1.8c-0.4,0-0.7-0.3-0.7-0.7v-1.8c0-0.4,0.3-0.7,0.7-0.7h1.8c0.4,0,0.7,0.3,0.7,0.7v1.8
			C32.2,29.6,31.9,29.9,31.5,29.9z"/>
	</g>
	<g>
		<path class="st0" d="M25.8,30.3H24c-0.4,0-0.7-0.3-0.7-0.7v-1.8c0-0.4,0.3-0.7,0.7-0.7h1.8c0.4,0,0.7,0.3,0.7,0.7v1.8
			C26.5,30,26.2,30.3,25.8,30.3z"/>
	</g>
</g>
</svg>
