<?xml version="1.0" encoding="utf-8"?>
<!-- Generator: Adobe Illustrator 25.0.0, SVG Export Plug-In . SVG Version: 6.00 Build 0)  -->
<svg version="1.1" id="Layer_1" xmlns="http://www.w3.org/2000/svg" xmlns:xlink="http://www.w3.org/1999/xlink" x="0px" y="0px"
	 viewBox="0 0 36 36" style="enable-background:new 0 0 36 36;" xml:space="preserve">
<style type="text/css">
	.st0{fill:#FFFFFF;}
</style>
<g>
	<g>
		<g>
			<path class="st0" d="M19.7,11h-2.3c-0.3,0-0.5-0.2-0.5-0.5l0,0c0-0.3,0.2-0.5,0.5-0.5h2.3c0.3,0,0.5,0.2,0.5,0.5l0,0
				C20.2,10.7,20,11,19.7,11z"/>
		</g>
	</g>
	<g>
		<g>
			<path class="st0" d="M18.1,11.6V9.3c0-0.3,0.2-0.5,0.5-0.5l0,0c0.3,0,0.5,0.2,0.5,0.5v2.3c0,0.3-0.2,0.5-0.5,0.5l0,0
				C18.3,12.1,18.1,11.9,18.1,11.6z"/>
		</g>
	</g>
	<g>
		<g>
			<path class="st0" d="M16.5,7.4h-2.3c-0.3,0-0.5-0.2-0.5-0.5l0,0c0-0.3,0.2-0.5,0.5-0.5h2.3c0.3,0,0.5,0.2,0.5,0.5l0,0
				C17,7.1,16.8,7.4,16.5,7.4z"/>
		</g>
	</g>
	<g>
		<g>
			<path class="st0" d="M14.8,8V5.7c0-0.3,0.2-0.5,0.5-0.5l0,0c0.3,0,0.5,0.2,0.5,0.5V8c0,0.3-0.2,0.5-0.5,0.5l0,0
				C15.1,8.5,14.8,8.3,14.8,8z"/>
		</g>
	</g>
	<g>
		<g>
			<path class="st0" d="M22.2,7.4h-2.3c-0.3,0-0.5-0.2-0.5-0.5l0,0c0-0.3,0.2-0.5,0.5-0.5h2.3c0.3,0,0.5,0.2,0.5,0.5l0,0
				C22.7,7.1,22.5,7.4,22.2,7.4z"/>
		</g>
	</g>
	<g>
		<g>
			<path class="st0" d="M20.5,8V5.7c0-0.3,0.2-0.5,0.5-0.5l0,0c0.3,0,0.5,0.2,0.5,0.5V8c0,0.3-0.2,0.5-0.5,0.5l0,0
				C20.7,8.5,20.5,8.3,20.5,8z"/>
		</g>
	</g>
	<g>
		<g>
			<path class="st0" d="M16.5,14.1h-2.3c-0.3,0-0.5-0.2-0.5-0.5l0,0c0-0.3,0.2-0.5,0.5-0.5h2.3c0.3,0,0.5,0.2,0.5,0.5l0,0
				C17,13.9,16.8,14.1,16.5,14.1z"/>
		</g>
	</g>
	<g>
		<g>
			<path class="st0" d="M10.3,26.3H8c-0.3,0-0.5-0.2-0.5-0.5l0,0c0-0.3,0.2-0.5,0.5-0.5h2.3c0.3,0,0.5,0.2,0.5,0.5l0,0
				C10.8,26.1,10.6,26.3,10.3,26.3z"/>
		</g>
	</g>
	<g>
		<g>
			<path class="st0" d="M7,23.4H4.7c-0.3,0-0.5-0.2-0.5-0.5l0,0c0-0.3,0.2-0.5,0.5-0.5H7c0.3,0,0.5,0.2,0.5,0.5l0,0
				C7.5,23.2,7.3,23.4,7,23.4z"/>
		</g>
	</g>
	<g>
		<g>
			<path class="st0" d="M13.4,23.6h-2.3c-0.3,0-0.5-0.2-0.5-0.5l0,0c0-0.3,0.2-0.5,0.5-0.5h2.3c0.3,0,0.5,0.2,0.5,0.5l0,0
				C13.9,23.4,13.7,23.6,13.4,23.6z"/>
		</g>
	</g>
	<g>
		<g>
			<path class="st0" d="M7,29.2H4.7c-0.3,0-0.5-0.2-0.5-0.5l0,0c0-0.3,0.2-0.5,0.5-0.5H7c0.3,0,0.5,0.2,0.5,0.5l0,0
				C7.5,29,7.3,29.2,7,29.2z"/>
		</g>
	</g>
	<g>
		<g>
			<path class="st0" d="M13.4,29.4h-2.3c-0.3,0-0.5-0.2-0.5-0.5l0,0c0-0.3,0.2-0.5,0.5-0.5h2.3c0.3,0,0.5,0.2,0.5,0.5l0,0
				C13.9,29.2,13.7,29.4,13.4,29.4z"/>
		</g>
	</g>
	<g>
		<g>
			<path class="st0" d="M14.8,14.7v-2.3c0-0.3,0.2-0.5,0.5-0.5l0,0c0.3,0,0.5,0.2,0.5,0.5v2.3c0,0.3-0.2,0.5-0.5,0.5l0,0
				C15.1,15.2,14.8,15,14.8,14.7z"/>
		</g>
	</g>
	<g>
		<g>
			<path class="st0" d="M22.2,14.1h-2.3c-0.3,0-0.5-0.2-0.5-0.5l0,0c0-0.3,0.2-0.5,0.5-0.5h2.3c0.3,0,0.5,0.2,0.5,0.5l0,0
				C22.7,13.9,22.5,14.1,22.2,14.1z"/>
		</g>
	</g>
	<g>
		<g>
			<path class="st0" d="M20.5,14.7v-2.3c0-0.3,0.2-0.5,0.5-0.5l0,0c0.3,0,0.5,0.2,0.5,0.5v2.3c0,0.3-0.2,0.5-0.5,0.5l0,0
				C20.7,15.2,20.5,15,20.5,14.7z"/>
		</g>
	</g>
	<g>
		<g>
			<g>
				<path class="st0" d="M27.7,27.2l-1.6-1.6c-0.2-0.2-0.2-0.5,0-0.7l0,0c0.2-0.2,0.5-0.2,0.7,0l1.6,1.6c0.2,0.2,0.2,0.5,0,0.7l0,0
					C28.2,27.4,27.9,27.4,27.7,27.2z"/>
			</g>
		</g>
		<g>
			<g>
				<path class="st0" d="M26.1,26.5l1.6-1.6c0.2-0.2,0.5-0.2,0.7,0l0,0c0.2,0.2,0.2,0.5,0,0.7l-1.6,1.6c-0.2,0.2-0.5,0.2-0.7,0l0,0
					C25.9,27,25.9,26.7,26.1,26.5z"/>
			</g>
		</g>
		<g>
			<g>
				<path class="st0" d="M24.5,23.7L22.9,22c-0.2-0.2-0.2-0.5,0-0.7l0,0c0.2-0.2,0.5-0.2,0.7,0l1.6,1.7c0.2,0.2,0.2,0.5,0,0.7l0,0
					C25,23.9,24.7,23.9,24.5,23.7z"/>
			</g>
		</g>
		<g>
			<g>
				<path class="st0" d="M22.8,22.9l1.7-1.6c0.2-0.2,0.5-0.2,0.7,0l0,0c0.2,0.2,0.2,0.5,0,0.7l-1.7,1.6c-0.2,0.2-0.5,0.2-0.7,0l0,0
					C22.6,23.4,22.7,23.1,22.8,22.9z"/>
			</g>
		</g>
		<g>
			<g>
				<path class="st0" d="M30.2,23.7L28.5,22c-0.2-0.2-0.2-0.5,0-0.7l0,0c0.2-0.2,0.5-0.2,0.7,0l1.6,1.6c0.2,0.2,0.2,0.5,0,0.7l0,0
					C30.7,23.9,30.4,23.9,30.2,23.7z"/>
			</g>
		</g>
		<g>
			<g>
				<path class="st0" d="M28.5,22.9l1.6-1.6c0.2-0.2,0.5-0.2,0.7,0l0,0c0.2,0.2,0.2,0.5,0,0.7l-1.6,1.6c-0.2,0.2-0.5,0.2-0.7,0l0,0
					C28.4,23.4,28.4,23.1,28.5,22.9z"/>
			</g>
		</g>
		<g>
			<g>
				<path class="st0" d="M24.5,30.4l-1.6-1.6c-0.2-0.2-0.2-0.5,0-0.7l0,0c0.2-0.2,0.5-0.2,0.7,0l1.6,1.6c0.2,0.2,0.2,0.5,0,0.7l0,0
					C25,30.6,24.7,30.6,24.5,30.4z"/>
			</g>
		</g>
		<g>
			<g>
				<path class="st0" d="M22.9,29.6l1.6-1.6c0.2-0.2,0.5-0.2,0.7,0l0,0c0.2,0.2,0.2,0.5,0,0.7l-1.6,1.6c-0.2,0.2-0.5,0.2-0.7,0l0,0
					C22.7,30.2,22.7,29.8,22.9,29.6z"/>
			</g>
		</g>
		<g>
			<g>
				<path class="st0" d="M30.2,30.4l-1.6-1.6c-0.2-0.2-0.2-0.5,0-0.7l0,0c0.2-0.2,0.5-0.2,0.7,0l1.6,1.6c0.2,0.2,0.2,0.5,0,0.7l0,0
					C30.7,30.6,30.4,30.6,30.2,30.4z"/>
			</g>
		</g>
		<g>
			<g>
				<path class="st0" d="M28.5,29.6l1.6-1.6c0.2-0.2,0.5-0.2,0.7,0l0,0c0.2,0.2,0.2,0.5,0,0.7l-1.6,1.6c-0.2,0.2-0.5,0.2-0.7,0l0,0
					C28.4,30.2,28.4,29.8,28.5,29.6z"/>
			</g>
		</g>
	</g>
	<g>
		<path class="st0" d="M18,19.3c-5,0-9-4-9-9s4-9,9-9s9,4,9,9C27,15.2,23,19.3,18,19.3z M18,2.5c-4.3,0-7.8,3.5-7.8,7.8
			s3.5,7.8,7.8,7.8s7.8-3.5,7.8-7.8S22.3,2.5,18,2.5z"/>
	</g>
	<g>
		<g>
			<path class="st0" d="M27,34.7c-5,0-9-4-9-9s4-9,9-9s9,4,9,9C36,30.6,32,34.7,27,34.7z M27,17.9c-4.3,0-7.8,3.5-7.8,7.8
				s3.5,7.8,7.8,7.8s7.8-3.5,7.8-7.8C34.7,21.4,31.3,17.9,27,17.9z"/>
		</g>
		<g>
			<path class="st0" d="M1.5,22.7c-0.1,0-0.2,0-0.3-0.1c-0.3-0.2-0.4-0.5-0.3-0.8c0-0.1,0.1-0.2,0.2-0.3c0.2-0.3,0.5-0.4,0.8-0.3
				c0.3,0.2,0.4,0.5,0.3,0.8L2,22.3C1.9,22.6,1.7,22.7,1.5,22.7z"/>
		</g>
		<g>
			<path class="st0" d="M9,34.8c-5,0-9-4-9-9c0-0.3,0.3-0.6,0.6-0.6s0.6,0.3,0.6,0.6c0,4.3,3.5,7.8,7.8,7.8s7.8-3.5,7.8-7.8
				S13.3,18,9,18c-1.3,0-2.7,0.3-3.8,1c-0.3,0.2-0.7,0.1-0.9-0.2c-0.2-0.3-0.1-0.7,0.2-0.9c1.3-0.8,2.9-1.2,4.4-1.2c5,0,9,4,9,9
				C18,30.7,14,34.8,9,34.8z"/>
		</g>
	</g>
</g>
</svg>
