<?xml version="1.0" encoding="utf-8"?>
<!-- Generator: Adobe Illustrator 25.0.0, SVG Export Plug-In . SVG Version: 6.00 Build 0)  -->
<svg version="1.1" id="Layer_1" xmlns="http://www.w3.org/2000/svg" xmlns:xlink="http://www.w3.org/1999/xlink" x="0px" y="0px"
	 viewBox="0 0 36 36" style="enable-background:new 0 0 36 36;" xml:space="preserve">
<style type="text/css">
	.st0{fill:#FFFFFF;}
</style>
<g>
	<g>
		<path class="st0" d="M22.5,31.5c-2.1,0-4.1-0.5-6-1.4c-0.3-0.2-0.5-0.6-0.3-0.9s0.6-0.5,0.9-0.3c1.7,0.8,3.5,1.3,5.4,1.3
			c6.7,0,12.1-5.4,12.1-12.1S29.2,5.9,22.5,5.9c-1.9,0-3.9,0.5-5.6,1.4c-0.3,0.2-0.7,0-0.9-0.3c-0.2-0.3,0-0.7,0.3-0.9
			c1.9-1,4.1-1.5,6.2-1.5C30,4.5,36,10.6,36,18S30,31.5,22.5,31.5z"/>
	</g>
	<g>
		<path class="st0" d="M22.5,8.5c-0.4,0-0.7-0.3-0.7-0.7V5.3c0-0.4,0.3-0.7,0.7-0.7c0.4,0,0.7,0.3,0.7,0.7v2.5
			C23.2,8.2,22.9,8.5,22.5,8.5z"/>
	</g>
	<g>
		<path class="st0" d="M34.9,18.6h-2.6c-0.4,0-0.7-0.3-0.7-0.7s0.3-0.7,0.7-0.7h2.6c0.4,0,0.7,0.3,0.7,0.7S35.3,18.6,34.9,18.6z"/>
	</g>
	<g>
		<path class="st0" d="M29.5,11.6c-0.2,0-0.4-0.1-0.5-0.2c-0.2-0.3-0.2-0.7,0-1l2-1.8c0.3-0.2,0.7-0.2,1,0c0.2,0.3,0.2,0.7,0,1
			l-2,1.8C29.8,11.6,29.7,11.6,29.5,11.6z"/>
	</g>
	<g>
		<path class="st0" d="M31.4,27.3c-0.2,0-0.3-0.1-0.5-0.2l-2-1.8c-0.3-0.3-0.3-0.7,0-1s0.7-0.3,1,0l2,1.8c0.3,0.3,0.3,0.7,0,1
			C31.8,27.3,31.6,27.3,31.4,27.3z"/>
	</g>
	<g>
		<path class="st0" d="M22.5,31.3c-0.4,0-0.7-0.3-0.7-0.7V28c0-0.4,0.3-0.7,0.7-0.7c0.4,0,0.7,0.3,0.7,0.7v2.6
			C23.2,31,22.9,31.3,22.5,31.3z"/>
	</g>
	<g>
		<circle class="st0" cx="22.5" cy="18.1" r="2.2"/>
	</g>
	<g>
		<path class="st0" d="M23.8,17.4c-0.2,0-0.3-0.1-0.5-0.2c-0.3-0.3-0.3-0.7,0-1l4.1-4.1c0.3-0.3,0.7-0.3,1,0s0.3,0.7,0,1l-4.1,4.1
			C24.2,17.3,24,17.4,23.8,17.4z"/>
	</g>
	<g>
		<path class="st0" d="M19.5,21.8c-0.2,0-0.3-0.1-0.5-0.2c-0.3-0.3-0.3-0.7,0-1l1.4-1.4c0.3-0.3,0.7-0.3,1,0s0.3,0.7,0,1L20,21.6
			C19.9,21.7,19.7,21.8,19.5,21.8z"/>
	</g>
	<g>
		<g>
			<path class="st0" d="M17.5,10.1H9.7C9.3,10.1,9,9.8,9,9.4C9,9,9.3,8.7,9.7,8.7h7.8c0.4,0,0.7,0.3,0.7,0.7
				C18.2,9.8,17.9,10.1,17.5,10.1z"/>
		</g>
		<g>
			<path class="st0" d="M17.5,27.3H9.7C9.3,27.3,9,27,9,26.6s0.3-0.7,0.7-0.7h7.8c0.4,0,0.7,0.3,0.7,0.7
				C18.2,27,17.9,27.3,17.5,27.3z"/>
		</g>
		<g>
			<path class="st0" d="M16.2,23H4.6c-0.4,0-0.7-0.3-0.7-0.7c0-0.4,0.3-0.7,0.7-0.7h11.6c0.4,0,0.7,0.3,0.7,0.7
				C16.9,22.7,16.6,23,16.2,23z"/>
		</g>
		<g>
			<path class="st0" d="M16.2,14.4H4.6c-0.4,0-0.7-0.3-0.7-0.7S4.2,13,4.6,13h11.6c0.4,0,0.7,0.3,0.7,0.7
				C16.9,14.1,16.6,14.4,16.2,14.4z"/>
		</g>
		<g>
			<path class="st0" d="M15.3,18.7H0.7C0.3,18.7,0,18.4,0,18s0.3-0.7,0.7-0.7h14.6c0.4,0,0.7,0.3,0.7,0.7
				C16,18.4,15.7,18.7,15.3,18.7z"/>
		</g>
	</g>
</g>
</svg>
