<?xml version="1.0" encoding="utf-8"?>
<!-- Generator: Adobe Illustrator 25.0.0, SVG Export Plug-In . SVG Version: 6.00 Build 0)  -->
<svg version="1.1" id="Layer_1" xmlns="http://www.w3.org/2000/svg" xmlns:xlink="http://www.w3.org/1999/xlink" x="0px" y="0px"
	 viewBox="0 0 36 36" style="enable-background:new 0 0 36 36;" xml:space="preserve">
<style type="text/css">
	.st0{fill:#FFFFFF;}
</style>
<g>
	<path class="st0" d="M2.3,36.1c-0.4,0-1.1-0.1-1.6-0.6C0.3,35.2,0,34.7,0,33.8V23.6c0-0.2,0.2-1,0.9-1.3c0.5-0.2,1.1-0.1,1.7,0.3
		l0.1,0.1c0.4,0.4,1.7,1.7,2.7,1.6c0.4,0,0.8-0.4,1.1-1l0,0c0,0,1.1-2.4,0.3-4.2c-0.3-0.7-0.8-1.2-1.6-1.5c-0.1,0-0.2,0-0.3,0
		c-0.6,0-1.4,0.3-1.9,1.4c0,0.1-0.5,1-1.4,1l0,0c-0.6,0-1.1-0.4-1.5-1.1L0,18.7v-9c0-0.1,0-0.9,0.6-1.6c0.3-0.3,0.8-0.7,1.7-0.7h9.3
		c0.2-0.2,0.3-0.5,0.3-0.5c-0.1-0.1-0.2-0.2-0.3-0.3C10.8,6,9.4,4.9,9.4,3.4c0-0.9,0.6-1.8,1.7-2.6c0,0,0.1-0.1,0.2-0.1
		c0.4-0.2,1.6-0.7,3-0.8c1.6,0,2.9,0.5,4.1,1.6c0.1,0.1,0.1,0.1,0.2,0.2c0.3,0.4,0.9,1.5,0.6,2.7c-0.2,0.9-0.9,1.7-2.1,2.4v0.6H26
		c0,0,0.1,0,0.2,0c1.1,0,2.2,0.5,2.5,1.9c0,0.1,0,0.3,0,0.4v9.5c0.1,0.1,0.1,0.1,0.3,0.1c0.1,0,0.3-0.1,0.6-0.4
		c0.1-0.2,1.5-1.7,3.1-1.7c1,0,2.4,0.5,3.3,3.3v0.1c0,0.3,0.4,3.4-1,4.9c-0.5,0.6-1.2,0.8-2.1,0.9c-0.5,0-1.1-0.2-1.8-0.4L31,25.9
		c-0.2-0.1-1-0.6-1.8-1.5h-0.6v9.4c0,0,0.1,0.7-0.5,1.3c-0.4,0.5-1.1,0.8-1.9,0.9h-8.8l-0.1-0.1c-0.1,0-0.7-0.3-0.9-1
		c-0.2-0.6,0-1.2,0.5-1.9l0.2-0.1c0.4-0.3,1.4-1.2,1.5-2.1c0-0.5-0.3-0.9-0.8-1.3c-0.1-0.1-3.5-2.3-5.9,0.7c-0.1,0.4-0.6,2,1.5,3.1
		l0.2,0.1l0.1,0.2c0.1,0.1,0.5,1,0,1.8c-0.3,0.5-0.9,0.8-1.8,0.7H2.5C2.5,36,2.4,36.1,2.3,36.1z M1.3,23.7v10.1
		c0,0.5,0.2,0.6,0.2,0.7c0.2,0.2,0.7,0.2,0.9,0.2h9.4c0.4,0,0.6-0.1,0.6-0.1s0-0.2,0-0.3c-2.6-1.5-2.3-3.8-1.8-4.8l0.1-0.1
		c2.6-3.3,6.2-2.1,7.8-1c0.9,0.7,1.4,1.5,1.4,2.4c0,1.6-1.5,2.8-1.9,3.1c-0.3,0.4-0.2,0.6-0.2,0.6s0,0.1,0.1,0.1h8.4
		c1.1-0.1,1.1-0.6,1.1-0.8V23H30l0.2,0.3c0.7,0.9,1.6,1.4,1.6,1.4c0.4,0.2,0.9,0.3,1.2,0.3c0.4,0,0.8-0.1,1-0.4
		c0.8-0.9,0.8-3,0.7-3.8c-0.5-1.6-1.1-2.4-2-2.3c-0.9,0-1.9,0.9-2.2,1.3c-0.5,0.5-1,0.8-1.5,0.8c-0.7,0.1-1.3-0.4-1.6-0.9l-0.1-0.2
		v-0.2V9.7c0-0.1,0-0.1,0-0.2c-0.1-0.5-0.5-0.8-1.1-0.8c-0.1,0-0.1,0-0.1,0H15.7l0-2.7l0.4-0.2c1-0.5,1.6-1,1.7-1.7
		c0.2-0.7-0.3-1.4-0.4-1.6c-0.9-0.8-2-1.3-3.2-1.2c-1.1,0-2.1,0.4-2.4,0.6L11.7,2c-0.7,0.5-1,1-1.1,1.5c0,0.8,1.1,1.7,1.7,2.1
		c0.2,0.1,0.3,0.2,0.4,0.3C12.9,6,13,6.2,13.1,6.4c0.4,1-0.6,2.1-0.7,2.2l-0.2,0.2H2.3C2,8.8,1.7,8.9,1.6,9C1.4,9.3,1.3,9.6,1.3,9.7
		v8.7c0.2,0.2,0.3,0.3,0.3,0.3c0.1,0,0.2-0.2,0.3-0.3C2.5,17,3.6,16.2,5,16.2c0.4,0,0.6,0,0.7,0.1h0.1c1.2,0.5,2,1.3,2.4,2.3
		c0.9,2.3-0.3,5.2-0.4,5.3c-0.7,1.3-1.6,1.6-2.2,1.7c-1.7,0.2-3.4-1.6-3.8-2c-0.2-0.1-0.3-0.1-0.3-0.1C1.4,23.5,1.4,23.6,1.3,23.7z"
		/>
</g>
</svg>
