<?xml version="1.0" encoding="utf-8"?>
<!-- Generator: Adobe Illustrator 25.0.0, SVG Export Plug-In . SVG Version: 6.00 Build 0)  -->
<svg version="1.1" id="Layer_1" xmlns="http://www.w3.org/2000/svg" xmlns:xlink="http://www.w3.org/1999/xlink" x="0px" y="0px"
	 viewBox="0 0 36 36" style="enable-background:new 0 0 36 36;" xml:space="preserve">
<style type="text/css">
	.st0{fill:#FFFFFF;}
</style>
<g>
	<g>
		<g>
			<path class="st0" d="M28.9,35.9H3.2c-1.8,0-3.2-1.4-3.2-3.2V7c0-1.8,1.4-3.2,3.2-3.2h21.5v1.2H3.2C2.1,5.1,1.2,5.9,1.2,7v25.7
				c0,1.1,0.9,1.9,1.9,1.9h25.7c1.1,0,2-0.9,2-1.9V14.3h1.2v18.4C32.1,34.5,30.6,35.9,28.9,35.9z"/>
		</g>
	</g>
	<g>
		<path class="st0" d="M34.3,6.4l-4.9-3.9l1.3-1.6C31,0.5,31.5,0.2,32,0.1c0.5-0.1,1.1,0.1,1.5,0.4l1.7,1.4c0.9,0.7,1,2,0.3,2.8
			L34.3,6.4z M31.1,2.3l2.9,2.3L34.6,4c0.3-0.3,0.2-0.8-0.1-1.1l-1.7-1.4c-0.2-0.1-0.4-0.2-0.6-0.2c-0.2,0-0.4,0.1-0.5,0.3L31.1,2.3
			z"/>
	</g>
	<g>
		<path class="st0" d="M10,32.7c-0.2,0-0.3-0.1-0.5-0.2c-0.3-0.2-0.4-0.5-0.3-0.9l2-6.4L28.8,3.2l4.9,3.9L16.1,29.2l-5.6,3.3
			C10.3,32.7,10.1,32.7,10,32.7z M12.3,26l-1.5,4.9l4.5-2.7L31.9,7.3L29,5L12.3,26z"/>
	</g>
</g>
</svg>
