<svg width="36" height="36" viewBox="0 0 36 36" fill="none" xmlns="http://www.w3.org/2000/svg">
<g clip-path="url(#clip0_11_71)">
<path d="M18 1H8V35H18V1Z" fill="white"/>
<path d="M33.7 36H2.3C1 36 0 35 0 33.7V2.3C0 1 1 0 2.3 0H33.7C35 0 36 1 36 2.3V33.7C36 35 35 36 33.7 36ZM2.3 1.3C1.7 1.3 1.2 1.8 1.2 2.4V33.8C1.2 34.4 1.7 34.9 2.3 34.9H33.7C34.3 34.9 34.8 34.4 34.8 33.8V2.3C34.8 1.7 34.3 1.2 33.7 1.2H2.3V1.3Z" fill="white"/>
<path d="M35.4 8H18V9.3H35.4V8Z" fill="white"/>
<path d="M18.9 0.699997H8.29999V2H18.9V0.699997Z" fill="white"/>
<path d="M18.9 34.5H8.29999V35.8H18.9V34.5Z" fill="white"/>
<path d="M9.00001 8H0.600006V9.3H9.00001V8Z" fill="white"/>
<path d="M10 0.900002H8.10001V35.6H10V0.900002Z" fill="white"/>
<path d="M18.9 0.900002H17V35.6H18.9V0.900002Z" fill="white"/>
<path d="M27.6 8.6H26.3V35.6H27.6V8.6Z" fill="white"/>
<path d="M35.4 14.6H18V15.9H35.4V14.6Z" fill="white"/>
<path d="M9.00001 14.6H0.600006V15.9H9.00001V14.6Z" fill="white"/>
<path d="M35.4 21.3H18V22.6H35.4V21.3Z" fill="white"/>
<path d="M9.00001 21.3H0.600006V22.6H9.00001V21.3Z" fill="white"/>
<path d="M35.4 27.9H18V29.2H35.4V27.9Z" fill="white"/>
<path d="M9.00001 27.9H0.600006V29.2H9.00001V27.9Z" fill="white"/>
</g>
<defs>
<clipPath id="clip0_11_71">
<rect width="36" height="36" fill="white"/>
</clipPath>
</defs>
</svg>
