<svg width="36" height="36" viewBox="0 0 36 36" fill="none" xmlns="http://www.w3.org/2000/svg">
<g clip-path="url(#clip0_2_5)">
<path d="M14.5 35.4C14.2 35.4 13.8 35.3 13.5 35.1C13.1 34.8 12.8 34.3 12.8 33.8V17.7C12.8 17.2 12.6 16.7 12.2 16.3L0.699999 4.7C-8.9407e-07 4 -0.200001 3 0.199999 2.1C0.599999 1.2 1.4 0.6 2.4 0.6H33.6C34.6 0.6 35.5 1.2 35.8 2.1C36.2 3 36 4 35.3 4.7L23.7 16.3C23.3 16.7 23.1 17.2 23.1 17.7V31.4C23.1 32.1 22.7 32.7 22 32.9L15 35.2C14.8 35.4 14.7 35.4 14.5 35.4ZM2.4 1.9C1.9 1.9 1.5 2.2 1.3 2.6C1.2 3 1.3 3.5 1.6 3.8L13.2 15.4C13.8 16 14.1 16.8 14.1 17.7V33.8C14.1 34 14.2 34.1 14.3 34.1C14.4 34.1 14.5 34.2 14.6 34.2L21.6 31.9C21.8 31.8 21.9 31.7 21.9 31.5V17.7C21.9 16.8 22.2 16 22.8 15.4L34.4 3.8C34.7 3.5 34.8 3 34.6 2.5C34.4 2.1 34 1.8 33.5 1.8H2.4V1.9Z" fill="white"/>
</g>
<defs>
<clipPath id="clip0_2_5">
<rect width="36" height="36" fill="white"/>
</clipPath>
</defs>
</svg>
