<svg width="36" height="36" viewBox="0 0 36 36" fill="none" xmlns="http://www.w3.org/2000/svg">
<path d="M28.6 14.6L35 4.7H1.10001L7.50001 14.7L28.6 14.6Z" fill="white"/>
<path d="M21.9 28.4H13.9V25L11.7 21.6H24.3L22 25V28.4H21.9ZM15 27.2H20.6V24.7L21.8 22.9H13.8L15 24.7V27.2Z" fill="white"/>
<path d="M21.9 32H13.9V27.2H21.9V32ZM15 30.7H20.6V28.4H15V30.7Z" fill="white"/>
<path d="M23.3 22.9H12.4L6.29999 13.7H29.5L23.3 22.9ZM13.1 21.7H22.7L27.2 14.9H8.59999L13.1 21.7Z" fill="white"/>
<path d="M28.7 14.9H7.2L0 4H36L28.7 14.9ZM7.8 13.7H28L33.7 5.3H2.3L7.8 13.7Z" fill="white"/>
</svg>
