<svg width="36" height="36" viewBox="0 0 36 36" fill="none" xmlns="http://www.w3.org/2000/svg">
<g clip-path="url(#clip0_9_234)">
<path d="M18 36C14.4399 36 10.9598 34.9443 7.99974 32.9664C5.03966 30.9886 2.73255 28.1774 1.37018 24.8883C0.00779903 21.5992 -0.348661 17.98 0.345873 14.4884C1.04041 10.9967 2.75474 7.78942 5.27209 5.27207C7.78943 2.75473 10.9967 1.04039 14.4884 0.345858C17.98 -0.348676 21.5992 0.00778377 24.8883 1.37016C28.1774 2.73254 30.9886 5.03964 32.9665 7.99973C34.9443 10.9598 36 14.4399 36 18C36 22.7739 34.1036 27.3523 30.7279 30.7279C27.3523 34.1036 22.7739 36 18 36ZM2.27001 17.2C2.51001 17.2 8.13001 17.2 8.27001 17.2C8.36056 15.0724 8.75108 12.9683 9.43001 10.95C7.96847 10.3664 6.5683 9.63952 5.25001 8.77999C4.42347 9.88754 3.75069 11.1019 3.25001 12.39C2.67507 13.9326 2.34442 15.5554 2.27001 17.2ZM26.61 10.93C26.8 11.64 27 12.32 27.17 13.01C27.341 13.6979 27.4679 14.396 27.55 15.1C27.63 15.8 27.69 16.51 27.76 17.21C28.17 17.21 33.59 17.21 33.76 17.21C33.5993 14.1715 32.5568 11.2456 30.76 8.78999C29.4504 9.63796 28.0603 10.3548 26.61 10.93ZM26.61 25.05C27.32 25.39 28.03 25.7 28.7 26.05C29.37 26.4 30.05 26.81 30.7 27.2C31.8576 25.6366 32.7186 23.8741 33.24 22C33.527 20.9466 33.6816 19.8616 33.7 18.77H27.7C27.6843 19.852 27.5908 20.9314 27.42 22C27.2294 23.0322 26.9722 24.051 26.65 25.05H26.61ZM2.27001 18.79C2.42902 21.8381 3.47138 24.774 5.27001 27.24C6.56841 26.3793 7.95246 25.6555 9.40001 25.08C8.72847 23.0479 8.3546 20.9292 8.29001 18.79H2.27001ZM25.17 24.55C25.7743 22.687 26.111 20.7476 26.17 18.79H18.79V23.44C20.9582 23.5094 23.1058 23.883 25.17 24.55ZM17.17 18.8C16.92 18.8 9.91001 18.8 9.79001 18.8C9.84046 20.7487 10.1774 22.6794 10.79 24.53C12.8463 23.8742 14.9829 23.5041 17.14 23.43L17.17 18.8ZM18.75 12.57V17.21H26.14C26.0544 15.2568 25.6977 13.3249 25.08 11.47C23.0426 12.1188 20.9267 12.4889 18.79 12.57H18.75ZM17.17 12.57C15.0264 12.4927 12.9034 12.1226 10.86 11.47C10.2335 13.3223 9.87979 15.2559 9.81001 17.21H17.17V12.57ZM18.75 33.71C18.8493 33.7321 18.9525 33.7291 19.0503 33.7011C19.1481 33.6732 19.2374 33.6212 19.31 33.55C21.5618 31.5013 23.3397 28.9862 24.52 26.18L24.59 26.02C22.6986 25.4196 20.7334 25.0831 18.75 25.02V33.71ZM17.21 25C15.2334 25.0653 13.2751 25.4018 11.39 26V26.06L11.45 26.19C12.6314 28.9953 14.4132 31.5075 16.67 33.55C16.7419 33.6161 16.8279 33.6649 16.9215 33.6926C17.0151 33.7203 17.1138 33.7263 17.21 33.71V25ZM18.79 11C20.7528 10.9271 22.6968 10.5908 24.57 9.99999C24.57 9.90999 24.49 9.83999 24.46 9.75999C23.596 7.79024 22.4284 5.96812 21 4.35999C20.3827 3.64574 19.7143 2.97732 19 2.35999C18.92 2.28999 18.85 2.21999 18.73 2.26999L18.79 11ZM17.21 11V2.27999C17.1616 2.27028 17.1115 2.27453 17.0655 2.29223C17.0194 2.30994 16.9794 2.34038 16.95 2.37999C14.6046 4.42336 12.7459 6.9654 11.51 9.81999L11.45 9.98999C13.313 10.5957 15.2521 10.9357 17.21 11ZM6.21001 7.55999C7.40775 8.32198 8.67712 8.96503 10 9.47999C11.0404 6.97799 12.5243 4.6845 14.38 2.70999C13.2459 2.94421 12.1468 3.32402 11.11 3.83999C9.25585 4.74948 7.5953 6.00933 6.22001 7.54999L6.21001 7.55999ZM29.78 7.55999C27.634 5.14483 24.7947 3.45104 21.65 2.70999C22.5655 3.70728 23.3983 4.77749 24.14 5.90999C24.8606 7.04485 25.4828 8.23919 26 9.47999C27.3226 8.95624 28.5917 8.30659 29.79 7.53999L29.78 7.55999ZM6.22001 28.46C8.31424 30.8187 11.0708 32.4915 14.13 33.26C12.3465 31.2818 10.9158 29.0122 9.90001 26.55C8.61539 27.0682 7.38315 27.7078 6.22001 28.46ZM26.1 26.55C25.5959 27.7767 24.9869 28.9578 24.28 30.08C23.5632 31.1997 22.7572 32.2598 21.87 33.25C23.3947 32.8828 24.8524 32.2788 26.19 31.46C27.5301 30.6454 28.7403 29.6341 29.78 28.46C28.617 27.7075 27.3847 27.0679 26.1 26.55Z" fill="white"/>
<path d="M26.61 10.93C28.0611 10.3484 29.4511 9.62489 30.76 8.77C32.5568 11.2256 33.5992 14.1515 33.76 17.19C33.62 17.19 28.2 17.25 27.76 17.19C27.69 16.49 27.63 15.78 27.55 15.08C27.4675 14.3793 27.3405 13.6846 27.17 13C27 12.32 26.8 11.64 26.61 10.93Z" fill="white"/>
<path d="M26.65 25.05C26.9722 24.051 27.2294 23.0322 27.42 22C27.6018 20.9489 27.7087 19.8862 27.74 18.82H33.74C33.7044 19.8965 33.5365 20.9645 33.24 22C32.7418 23.865 31.9082 25.6237 30.78 27.19C30.09 26.8 29.43 26.4 28.78 26.04C28.13 25.68 27.36 25.39 26.65 25.05Z" fill="white"/>
<path d="M25.17 24.55C23.1058 23.883 20.9582 23.5094 18.79 23.44V18.79H26.18C26.1177 20.7481 25.7777 22.6875 25.17 24.55Z" fill="white"/>
<path d="M18.79 12.57C20.9402 12.4925 23.0698 12.1224 25.12 11.47C25.7377 13.325 26.0944 15.2568 26.18 17.21H18.79V12.57Z" fill="white"/>
<path d="M18.79 33.71V25C20.7734 25.0631 22.7386 25.3996 24.63 26L24.56 26.16C23.3797 28.9662 21.6018 31.4813 19.35 33.53C19.2794 33.6048 19.191 33.6605 19.0931 33.692C18.9952 33.7234 18.891 33.7296 18.79 33.71Z" fill="white"/>
<path d="M18.79 11V2.28999C18.91 2.28999 18.98 2.28999 19.06 2.37999C19.7743 2.99732 20.4427 3.66574 21.06 4.37999C22.4743 5.99089 23.6282 7.81286 24.48 9.77999C24.48 9.85999 24.55 9.92999 24.59 10.02C22.7095 10.6058 20.7586 10.9354 18.79 11Z" fill="white"/>
<path d="M29.79 7.54C28.5917 8.3066 27.3226 8.95625 26 9.48C25.4742 8.2313 24.8419 7.0302 24.11 5.89C23.3683 4.7575 22.5355 3.68729 21.62 2.69C24.7791 3.42344 27.6334 5.11781 29.79 7.54Z" fill="white"/>
<path d="M26.1 26.55C27.3844 27.0647 28.6166 27.701 29.78 28.45C28.7403 29.6241 27.5301 30.6354 26.19 31.45C24.8524 32.2688 23.3947 32.8728 21.87 33.24C22.7572 32.2498 23.5631 31.1897 24.28 30.07C24.9864 28.951 25.5953 27.7733 26.1 26.55Z" fill="white"/>
</g>
<defs>
<clipPath id="clip0_9_234">
<rect width="36" height="36" fill="white"/>
</clipPath>
</defs>
</svg>
