<?xml version="1.0" encoding="utf-8"?>
<!-- Generator: Adobe Illustrator 25.0.0, SVG Export Plug-In . SVG Version: 6.00 Build 0)  -->
<svg version="1.1" id="Layer_1" xmlns="http://www.w3.org/2000/svg" xmlns:xlink="http://www.w3.org/1999/xlink" x="0px" y="0px"
	 viewBox="0 0 36 36" style="enable-background:new 0 0 36 36;" xml:space="preserve">
<style type="text/css">
	.st0{fill:#FFFFFF;}
</style>
<path class="st0" d="M36,9.3H0V1.5C0,0.6,0.7,0,1.6,0h32.9C35.3,0,36,0.6,36,1.5V9.3z M1.2,8.1h33.7V1.5c0-0.2-0.1-0.4-0.4-0.4H1.6
	c-0.2,0-0.4,0.1-0.4,0.4V8.1z"/>
<path class="st0" d="M34.5,36H1.4C0.6,36,0,35.3,0,34.6V9.2h1.2v25.4c0,0.1,0.1,0.2,0.2,0.2h33.2c0.2,0,0.3-0.2,0.3-0.3V9.1H36v25.7
	C35.8,35.5,35.2,36,34.5,36z"/>
<rect x="11.6" y="8.3" class="st0" width="1.1" height="26.8"/>
<rect x="23.2" y="8.3" class="st0" width="1.1" height="26.8"/>
<rect x="0.5" y="16.6" class="st0" width="34.5" height="1.1"/>
<rect x="0.5" y="26.2" class="st0" width="34.5" height="1.1"/>
</svg>
