<?xml version="1.0" encoding="utf-8"?>
<!-- Generator: Adobe Illustrator 25.0.0, SVG Export Plug-In . SVG Version: 6.00 Build 0)  -->
<svg version="1.1" id="Layer_1" xmlns="http://www.w3.org/2000/svg" xmlns:xlink="http://www.w3.org/1999/xlink" x="0px" y="0px"
	 viewBox="0 0 36 36" style="enable-background:new 0 0 36 36;" xml:space="preserve">
<style type="text/css">
	.st0{fill:#FFFFFF;}
</style>
<path class="st0" d="M30.4,14.1h-1.6c-0.4,0-0.6-0.3-0.6-0.6v-0.8c-0.3-0.1-0.6-0.2-0.9-0.4l-0.6,0.6c-0.2,0.2-0.7,0.2-0.9,0
	l-1.2-1.2c-0.3-0.3-0.3-0.7,0-0.9l0.6-0.6c-0.1-0.3-0.3-0.6-0.4-0.9H24c-0.4,0-0.6-0.3-0.6-0.6V7.1c0-0.4,0.3-0.6,0.6-0.6h0.8
	c0.1-0.3,0.2-0.6,0.4-0.9L24.7,5c-0.3-0.3-0.3-0.7,0-0.9l1.2-1.2c0.1-0.1,0.3-0.2,0.5-0.2l0,0c0.2,0,0.3,0.1,0.5,0.2l0.6,0.6
	c0.3-0.1,0.6-0.3,0.9-0.4V2.3c0-0.4,0.3-0.6,0.6-0.6h1.6c0.4,0,0.6,0.3,0.6,0.6v0.8c0.3,0.1,0.6,0.2,0.9,0.4l0.6-0.6
	c0.1-0.1,0.3-0.2,0.5-0.2l0,0c0.2,0,0.3,0.1,0.5,0.2l1.2,1.2c0.3,0.3,0.3,0.7,0,0.9L34,5.6c0.1,0.3,0.3,0.6,0.4,0.9h0.8
	c0.4,0,0.6,0.3,0.6,0.6v1.6c0,0.4-0.3,0.6-0.6,0.6h-0.8c-0.1,0.3-0.2,0.6-0.4,0.9l0.6,0.6c0.1,0.1,0.2,0.3,0.2,0.5s-0.1,0.3-0.2,0.5
	L33.4,13c-0.2,0.2-0.7,0.2-0.9,0l-0.6-0.6c-0.3,0.1-0.6,0.3-0.9,0.4v0.8C31.1,13.8,30.8,14.1,30.4,14.1z M29,13.3h1.3v-0.8
	c0-0.3,0.2-0.5,0.5-0.6s0.6-0.2,0.9-0.4c0.3-0.1,0.6-0.1,0.8,0.1l0.6,0.6l0.9-0.9l-0.6-0.6c-0.2-0.2-0.2-0.5-0.1-0.8
	c0.2-0.3,0.3-0.6,0.4-0.9c0.1-0.3,0.3-0.5,0.6-0.5H35V7.2h-0.8c-0.3,0-0.5-0.2-0.6-0.5s-0.2-0.6-0.4-0.9c-0.1-0.3-0.1-0.6,0.1-0.8
	l0.6-0.6L33,3.6l-0.6,0.6c-0.2,0.2-0.5,0.2-0.8,0.1C31.3,4.1,31,4,30.7,3.9c-0.3-0.1-0.5-0.3-0.5-0.6V2.5H29v0.8
	c0,0.3-0.2,0.5-0.5,0.6c-0.3,0.1-0.6,0.2-0.9,0.4c-0.3,0.1-0.6,0.1-0.8-0.1l-0.6-0.6l-0.9,0.9l0.6,0.6c0.2,0.2,0.2,0.5,0.1,0.8
	c-0.2,0.3-0.3,0.6-0.4,0.9C25.5,7,25.3,7.2,25,7.2h-0.8v1.3H25c0.3,0,0.5,0.2,0.6,0.5s0.2,0.6,0.4,0.9c0.1,0.3,0.1,0.6-0.1,0.8
	l-0.6,0.6l0.9,0.9l0.6-0.6c0.2-0.2,0.5-0.2,0.8-0.1c0.3,0.2,0.6,0.3,0.9,0.4c0.3,0.1,0.5,0.3,0.5,0.6C29,12.5,29,13.3,29,13.3z
	 M32.9,12.3L32.9,12.3L32.9,12.3z M26.2,12.3L26.2,12.3L26.2,12.3z M27.4,12.2L27.4,12.2L27.4,12.2z M25.3,10.3L25.3,10.3L25.3,10.3
	z M34.4,9.2L34.4,9.2L34.4,9.2z M34.4,6.5L34.4,6.5L34.4,6.5z M25.3,5.5L25.3,5.5L25.3,5.5z M33.9,5.5L33.9,5.5L33.9,5.5z M27.4,3.6
	L27.4,3.6L27.4,3.6z M32.9,3.5L32.9,3.5L32.9,3.5z M29.6,10.7c-1.5,0-2.8-1.2-2.8-2.8s1.2-2.8,2.8-2.8c1.5,0,2.8,1.2,2.8,2.8
	S31.2,10.7,29.6,10.7z M29.6,5.9c-1.1,0-2,0.9-2,2s0.9,2,2,2s2-0.9,2-2S30.7,5.9,29.6,5.9z"/>
<path class="st0" d="M9.1,15.7H7c-0.4,0-0.7-0.3-0.7-0.7v-1.1c-0.4-0.1-0.8-0.3-1.2-0.5l-0.8,0.8c-0.1,0.1-0.3,0.2-0.5,0.2l0,0
	c-0.2,0-0.4-0.1-0.5-0.2l-1.5-1.5c-0.1-0.1-0.2-0.3-0.2-0.5s0.1-0.4,0.2-0.5l0.8-0.8C2.3,10.4,2.2,10,2,9.6H0.9
	c-0.4,0-0.7-0.3-0.7-0.7V6.8c0-0.4,0.3-0.7,0.7-0.7H2c0.1-0.4,0.3-0.8,0.5-1.2L1.7,4C1.6,3.9,1.5,3.7,1.5,3.5S1.6,3.1,1.7,3l1.5-1.5
	c0.3-0.3,0.7-0.3,1,0L5,2.4C5.4,2.2,5.8,2,6.2,1.9V0.7C6.2,0.3,6.6,0,7,0h2.1c0.4,0,0.7,0.3,0.7,0.7v1.1C10.2,2,10.6,2.2,11,2.4
	l0.8-0.8c0.1-0.1,0.3-0.2,0.5-0.2l0,0c0.2,0,0.4,0.1,0.5,0.2L14.3,3c0.1,0.1,0.2,0.3,0.2,0.5S14.4,3.9,14.3,4l-0.8,0.8
	C13.7,5.2,13.9,5.6,14,6h1.1c0.4,0,0.7,0.3,0.7,0.7v2.1c0,0.4-0.3,0.7-0.7,0.7H14c-0.1,0.4-0.3,0.8-0.5,1.2l0.8,0.8
	c0.1,0.1,0.2,0.3,0.2,0.5s-0.1,0.4-0.2,0.5L12.8,14c-0.1,0.1-0.3,0.2-0.5,0.2l0,0c-0.2,0-0.4-0.1-0.5-0.2L11,13.3
	c-0.4,0.2-0.8,0.4-1.2,0.5V15C9.8,15.4,9.4,15.7,9.1,15.7z M7.1,14.9H9v-1.1c0-0.3,0.2-0.6,0.5-0.7c0.4-0.1,0.8-0.3,1.2-0.5
	c0.3-0.2,0.6-0.1,0.9,0.1l0.8,0.8l1.4-1.4L13,11.3c-0.2-0.2-0.3-0.6-0.1-0.9c0.2-0.4,0.4-0.8,0.5-1.2c0.1-0.3,0.4-0.5,0.7-0.5H15
	V6.9h-1.1c-0.3,0-0.6-0.2-0.7-0.5c-0.1-0.4-0.3-0.8-0.5-1.2c-0.2-0.3-0.1-0.6,0.1-0.9l0.8-0.8l-1.4-1.4L11.5,3
	c-0.2,0.2-0.6,0.3-0.9,0.1c-0.4-0.2-0.8-0.4-1.2-0.5C9.2,2.5,9,2.2,9,1.9V0.8H7.1v1.1c0,0.3-0.2,0.6-0.5,0.7
	C6.1,2.7,5.7,2.9,5.4,3.1C5.1,3.3,4.7,3.2,4.5,3L3.7,2.2L2.4,3.5l0.8,0.8c0.2,0.2,0.3,0.6,0.1,0.9C3.1,5.6,2.9,5.9,2.8,6.4
	C2.7,6.7,2.4,6.9,2.1,6.9H1v1.9h1.1c0.3,0,0.6,0.2,0.7,0.5c0.1,0.4,0.3,0.8,0.5,1.2c0.2,0.3,0.1,0.6-0.1,0.9l-0.8,0.8l1.4,1.4
	l0.8-0.8c0.2-0.2,0.6-0.3,0.9-0.1c0.4,0.2,0.8,0.4,1.2,0.5c0.3,0.1,0.5,0.4,0.5,0.7v1H7.1z M6.3,13.8L6.3,13.8L6.3,13.8z M12.2,13.5
	L12.2,13.5L12.2,13.5z M3.6,13.5L3.6,13.5L3.6,13.5z M5.1,13.3L5.1,13.3L5.1,13.3z M13.4,10.8L13.4,10.8L13.4,10.8z M2,9.5L2,9.5
	L2,9.5z M14,9.5L14,9.5L14,9.5z M14,6.1L14,6.1L14,6.1z M13.7,3.6L13.7,3.6L13.7,3.6z M2.3,3.6L2.3,3.6L2.3,3.6z M5.1,2.4L5.1,2.4
	L5.1,2.4z M12.2,2.1L12.2,2.1L12.2,2.1z M8,11.3c-1.9,0-3.4-1.5-3.4-3.4S6.1,4.5,8,4.5s3.4,1.5,3.4,3.4C11.5,9.7,9.9,11.3,8,11.3z
	 M8,5.2c-1.5,0-2.6,1.2-2.6,2.6c0,1.5,1.2,2.6,2.6,2.6c1.5,0,2.6-1.2,2.6-2.6S9.5,5.2,8,5.2z"/>
<path class="st0" d="M24,36h-2.7c-0.5,0-0.9-0.4-0.9-0.9v-1.4c-0.5-0.1-1-0.4-1.6-0.6l-1,1c-0.1,0.1-0.4,0.3-0.6,0.3l0,0
	c-0.3,0-0.5-0.1-0.6-0.3l-1.9-1.9c-0.1-0.1-0.3-0.4-0.3-0.6s0.1-0.5,0.3-0.6l1-1c-0.4-0.6-0.5-1.2-0.8-1.7h-1.4
	c-0.5,0-0.9-0.4-0.9-0.9v-2.7c0-0.5,0.4-0.9,0.9-0.9h1.4c0.1-0.5,0.4-1,0.6-1.6l-1-1.2c-0.1-0.1-0.3-0.4-0.3-0.6s0.1-0.5,0.3-0.6
	l1.9-1.9c0.4-0.4,0.9-0.4,1.3,0l1,1.2c0.5-0.3,1-0.5,1.6-0.6v-1.6c0-0.5,0.5-0.9,1-0.9H24c0.5,0,0.9,0.4,0.9,0.9v1.4
	c0.5,0.3,1,0.5,1.6,0.8l1-1c0.1-0.1,0.4-0.3,0.6-0.3l0,0c0.3,0,0.5,0.1,0.6,0.3l1.9,1.8c0.1,0.1,0.3,0.4,0.3,0.6s-0.1,0.5-0.3,0.6
	l-1,1c0.3,0.5,0.5,1,0.6,1.6h1.4c0.5,0,0.9,0.4,0.9,0.9V27c0,0.5-0.4,0.9-0.9,0.9h-1.4c-0.1,0.5-0.4,1-0.6,1.6l1,1
	c0.1,0.1,0.3,0.4,0.3,0.6s-0.1,0.5-0.3,0.6l-1.9,1.9c-0.1,0.1-0.4,0.3-0.6,0.3l0,0c-0.3,0-0.5-0.1-0.6-0.3l-1-0.9
	c-0.5,0.3-1,0.5-1.6,0.6v1.6C25,35.6,24.4,36,24,36z M21.4,35h2.5v-1.4c0-0.4,0.3-0.8,0.6-0.9c0.5-0.1,1-0.4,1.6-0.6
	c0.4-0.3,0.8-0.1,1.2,0.1l1,1l1.8-1.8l-1-1c-0.3-0.3-0.4-0.8-0.1-1.2c0.3-0.5,0.5-1,0.6-1.6c0.1-0.4,0.5-0.6,0.9-0.6h1.2v-2.3h-1.4
	c-0.4,0-0.8-0.3-0.9-0.6c-0.1-0.5-0.4-1-0.6-1.6c-0.3-0.4-0.1-0.8,0.1-1.2l1-1l-1.8-1.8l-0.9,1.2c-0.3,0.3-0.8,0.4-1.2,0.1
	c-0.5-0.3-1-0.5-1.6-0.6c-0.3-0.1-0.5-0.5-0.5-0.9v-1.4h-2.5v1.4c0,0.4-0.3,0.8-0.6,0.9c-0.6,0.1-1.2,0.4-1.6,0.6s-0.9,0.1-1.2-0.1
	l-1-1l-1.7,1.7l1,1c0.3,0.3,0.4,0.8,0.1,1.2c-0.3,0.5-0.5,0.9-0.6,1.6c-0.1,0.4-0.5,0.6-0.9,0.6h-1.4V27h1.4c0.4,0,0.8,0.3,0.9,0.6
	c0.1,0.5,0.4,1,0.6,1.6c0.3,0.4,0.1,0.8-0.1,1.2l-1,1l1.8,1.8l1-1c0.3-0.3,0.8-0.4,1.2-0.1c0.5,0.3,1,0.5,1.6,0.6
	c0.4,0.1,0.6,0.5,0.6,0.9V35H21.4z M20.4,33.5L20.4,33.5L20.4,33.5z M28.1,33.1L28.1,33.1L28.1,33.1z M16.9,33.1L16.9,33.1
	L16.9,33.1z M18.8,32.9L18.8,32.9L18.8,32.9z M29.6,29.6L29.6,29.6L29.6,29.6z M14.8,27.9L14.8,27.9L14.8,27.9z M30.4,27.9
	L30.4,27.9L30.4,27.9z M30.4,23.5L30.4,23.5L30.4,23.5z M30,20.3L30,20.3L30,20.3z M15.2,20.3L15.2,20.3L15.2,20.3z M18.8,18.7
	L18.8,18.7L18.8,18.7z M28.1,18.3L28.1,18.3L28.1,18.3z M22.6,30.3c-2.5,0-4.4-1.9-4.4-4.4s1.9-4.4,4.4-4.4s4.4,1.9,4.4,4.4
	C27.2,28.2,25.1,30.3,22.6,30.3z M22.6,22.4c-1.9,0-3.4,1.6-3.4,3.4c0,1.9,1.6,3.4,3.4,3.4c1.9,0,3.4-1.6,3.4-3.4
	C26,23.9,24.6,22.4,22.6,22.4z"/>
<rect x="17.5" y="7.6" class="st0" width="4.4" height="0.8"/>
<polygon class="st0" points="10.7,26.7 4.6,26.7 4.6,16 5.4,16 5.4,25.9 10.7,25.9 "/>
<polygon class="st0" points="9.3,28.2 8.8,27.5 10.3,26.4 8.8,25.1 9.3,24.5 11.5,26.4 "/>
</svg>
