<svg width="36" height="36" viewBox="0 0 36 36" fill="none" xmlns="http://www.w3.org/2000/svg">
<g clip-path="url(#clip0_9_245)">
<path d="M25.7 22.4L32.8 18.5C32.8 18.5 35.5 21.8 35.5 27H26.6C26.6 27 26 23.3 25.7 22.4Z" fill="white"/>
<path d="M25.3 23.3L25 22.7C24.3 21.4 23.2 20.3 21.9 19.6L21.3 19.3L26.6 10.9L27.1 11.2C29.8 12.8 32 15.1 33.6 17.9L33.9 18.4L25.3 23.3ZM23.1 18.9C24.2 19.6 25.1 20.5 25.8 21.6L32.3 18C31 15.9 29.2 14 27.1 12.7L23.1 18.9Z" fill="white"/>
<path d="M22.5 19.9L22 19.6C20.8 18.9 19.5 18.6 18.2 18.6H17.6V8.60001H18.2C21.4 8.60001 24.6 9.50001 27.3 11.1L27.9 11.4L22.5 19.9ZM18.8 17.4C19.9 17.5 21 17.8 22.1 18.3L26.1 12C23.9 10.8 21.4 10.1 18.8 10V17.4Z" fill="white"/>
<path d="M35.4 27.4H26.1V26.7C26.1 25.3 25.7 24 25.1 22.8L24.8 22.3L33.5 17.5L33.8 18C35.3 20.7 36.1 23.7 36.1 26.8V27.4H35.4ZM27.3 26.1H34.7C34.6 23.6 34 21.2 32.9 19L26.4 22.6C26.9 23.7 27.2 24.9 27.3 26.1Z" fill="white"/>
<path d="M9.3 27.4H0V26.8C0 23.5 0.8 20.4 2.4 17.7L2.7 17.2L11.3 22.1L11 22.6C10.3 23.8 9.9 25.3 9.9 26.7V27.3L9.3 27.4ZM1.3 26.1H8.7C8.8 24.8 9.1 23.6 9.7 22.4L3.2 18.7C2 21 1.3 23.5 1.3 26.1Z" fill="white"/>
<path d="M13.8 19.7L8.39999 11.3L8.99999 11C11.7 9.40001 14.8 8.60001 18 8.60001H18.6L18.7 9.20001V18.5H18.1L18 18V18.6C16.7 18.6 15.5 18.9 14.3 19.5L13.8 19.7ZM10.2 11.8L14.2 18.1C15.2 17.6 16.3 17.4 17.4 17.3V9.90001C15 10 12.5 10.6 10.2 11.8Z" fill="white"/>
<path d="M10.8 23.1L2.20001 18.2L2.50001 17.7C4.00001 14.9 6.30001 12.6 9.00001 11L9.50001 10.7L14.9 19.1L14.3 19.4C12.9 20.1 11.8 21.1 11 22.4L10.8 23.1ZM3.90001 17.7L10.4 21.4C11.1 20.3 12.1 19.4 13.2 18.7L9.20001 12.4C7.00001 13.8 5.20001 15.6 3.90001 17.7Z" fill="white"/>
<path d="M18.4 27.2C18.9523 27.2 19.4 26.7523 19.4 26.2C19.4 25.6477 18.9523 25.2 18.4 25.2C17.8477 25.2 17.4 25.6477 17.4 26.2C17.4 26.7523 17.8477 27.2 18.4 27.2Z" fill="white"/>
<path d="M18.5 25.6L27.8 22.5L18.9 26.7L18.5 25.6Z" fill="white"/>
<path d="M5.29971 24.0998C5.10334 24.0998 4.93609 24.0464 4.79794 23.9395C4.65979 23.8318 4.55422 23.6758 4.48123 23.4716C4.40825 23.2666 4.37176 23.0189 4.37176 22.7287C4.37176 22.4403 4.40825 22.1939 4.48123 21.9898C4.55509 21.7847 4.66109 21.6283 4.79924 21.5206C4.93826 21.412 5.10508 21.3577 5.29971 21.3577C5.49433 21.3577 5.66072 21.412 5.79887 21.5206C5.93789 21.6283 6.04389 21.7847 6.11688 21.9898C6.19073 22.1939 6.22766 22.4403 6.22766 22.7287C6.22766 23.0189 6.19117 23.2666 6.11818 23.4716C6.0452 23.6758 5.93963 23.8318 5.80148 23.9395C5.66333 24.0464 5.49607 24.0998 5.29971 24.0998ZM5.29971 23.8131C5.49433 23.8131 5.64552 23.7192 5.75326 23.5316C5.861 23.3439 5.91487 23.0763 5.91487 22.7287C5.91487 22.4976 5.8901 22.3008 5.84058 22.1383C5.79192 21.9759 5.72154 21.852 5.62944 21.7669C5.53821 21.6817 5.4283 21.6392 5.29971 21.6392C5.10682 21.6392 4.95607 21.7343 4.84746 21.9246C4.73885 22.114 4.68455 22.382 4.68455 22.7287C4.68455 22.9598 4.70888 23.1562 4.75753 23.3178C4.80619 23.4794 4.87613 23.6024 4.96737 23.6867C5.05947 23.7709 5.17025 23.8131 5.29971 23.8131Z" fill="white"/>
<path d="M9.19808 15.0318V17.701H8.87486V15.3707H8.85922L8.20757 15.8034V15.475L8.87486 15.0318H9.19808Z" fill="white"/>
<path d="M13.8676 14.075V13.8404L14.7486 12.876C14.852 12.763 14.9372 12.6648 15.0041 12.5814C15.071 12.4971 15.1205 12.4181 15.1526 12.3442C15.1857 12.2695 15.2022 12.1913 15.2022 12.1096C15.2022 12.0158 15.1796 11.9346 15.1344 11.8659C15.0901 11.7973 15.0293 11.7443 14.9519 11.7069C14.8746 11.6696 14.7877 11.6509 14.6913 11.6509C14.5888 11.6509 14.4993 11.6722 14.4228 11.7147C14.3472 11.7564 14.2886 11.8151 14.2469 11.8907C14.206 11.9663 14.1856 12.0549 14.1856 12.1566H13.878C13.878 12.0002 13.9141 11.8629 13.9862 11.7447C14.0583 11.6265 14.1565 11.5344 14.2807 11.4684C14.4059 11.4024 14.5462 11.3694 14.7017 11.3694C14.8581 11.3694 14.9967 11.4024 15.1175 11.4684C15.2382 11.5344 15.3329 11.6235 15.4016 11.7356C15.4702 11.8477 15.5045 11.9724 15.5045 12.1096C15.5045 12.2078 15.4867 12.3038 15.4511 12.3977C15.4164 12.4906 15.3555 12.5945 15.2686 12.7092C15.1826 12.823 15.0632 12.962 14.9102 13.1262L14.3107 13.7674V13.7883H15.5515V14.075H13.8676Z" fill="white"/>
<path d="M21.542 14.0441C21.3699 14.0441 21.2166 14.0145 21.0819 13.9555C20.9481 13.8964 20.8417 13.8143 20.7626 13.7091C20.6844 13.6031 20.6418 13.4802 20.6349 13.3403H20.9633C20.9703 13.4263 20.9998 13.5006 21.0519 13.5632C21.1041 13.6249 21.1723 13.6727 21.2566 13.7065C21.3408 13.7404 21.4342 13.7574 21.5368 13.7574C21.6515 13.7574 21.7531 13.7374 21.8417 13.6974C21.9304 13.6574 21.9999 13.6018 22.0503 13.5306C22.1007 13.4593 22.1259 13.3768 22.1259 13.283C22.1259 13.1848 22.1015 13.0983 22.0529 13.0236C22.0042 12.948 21.933 12.8889 21.8391 12.8464C21.7453 12.8038 21.6306 12.7825 21.4951 12.7825H21.2813V12.4958H21.4951C21.6011 12.4958 21.694 12.4767 21.774 12.4384C21.8548 12.4002 21.9178 12.3463 21.963 12.2768C22.009 12.2073 22.032 12.1256 22.032 12.0318C22.032 11.9414 22.012 11.8628 21.9721 11.7959C21.9321 11.729 21.8756 11.6769 21.8026 11.6395C21.7305 11.6021 21.6454 11.5835 21.5472 11.5835C21.4551 11.5835 21.3682 11.6004 21.2865 11.6343C21.2057 11.6673 21.1397 11.7155 21.0884 11.779C21.0372 11.8415 21.0094 11.9171 21.005 12.0057H20.6922C20.6974 11.8658 20.7396 11.7433 20.8187 11.6382C20.8977 11.5322 21.0011 11.4497 21.1288 11.3906C21.2574 11.3315 21.3986 11.3019 21.5524 11.3019C21.7175 11.3019 21.8591 11.3354 21.9773 11.4023C22.0955 11.4683 22.1863 11.5557 22.2497 11.6643C22.3131 11.7729 22.3448 11.8902 22.3448 12.0162C22.3448 12.1665 22.3053 12.2946 22.2262 12.4006C22.148 12.5066 22.0416 12.58 21.9069 12.6209V12.6417C22.0755 12.6695 22.2071 12.7412 22.3018 12.8568C22.3965 12.9715 22.4439 13.1135 22.4439 13.283C22.4439 13.4281 22.4043 13.5584 22.3253 13.674C22.2471 13.7886 22.1402 13.879 22.0047 13.945C21.8691 14.0111 21.7149 14.0441 21.542 14.0441Z" fill="white"/>
<path d="M26.6644 17.0169V16.751L27.8374 14.8951H28.0303V15.307H27.9L27.0137 16.7093V16.7302H28.5933V17.0169H26.6644ZM27.9208 17.5643V16.9361V16.8123V14.8951H28.2284V17.5643H27.9208Z" fill="white"/>
<path d="M30.9131 23.6887C30.7602 23.6887 30.6225 23.6583 30.5 23.5975C30.3775 23.5366 30.2793 23.4532 30.2054 23.3472C30.1316 23.2412 30.0912 23.1205 30.0842 22.9849H30.397C30.4092 23.1057 30.4639 23.2056 30.5612 23.2847C30.6594 23.3629 30.7767 23.402 30.9131 23.402C31.0226 23.402 31.1199 23.3763 31.2051 23.3251C31.2911 23.2738 31.3584 23.2034 31.4071 23.1139C31.4566 23.0236 31.4814 22.9215 31.4814 22.8077C31.4814 22.6912 31.4557 22.5874 31.4045 22.4962C31.3541 22.4041 31.2846 22.3315 31.1959 22.2785C31.1073 22.2255 31.0061 22.1986 30.8923 22.1977C30.8106 22.1969 30.7267 22.2095 30.6407 22.2355C30.5547 22.2607 30.4839 22.2933 30.4283 22.3333L30.1259 22.2968L30.2875 20.983H31.6742V21.2698H30.5586L30.4648 22.057H30.4804C30.5352 22.0135 30.6038 21.9775 30.6863 21.9488C30.7689 21.9201 30.8549 21.9058 30.9444 21.9058C31.1077 21.9058 31.2533 21.9449 31.381 22.0231C31.5096 22.1004 31.6104 22.2064 31.6834 22.3411C31.7572 22.4758 31.7942 22.6295 31.7942 22.8025C31.7942 22.9728 31.7559 23.1248 31.6795 23.2586C31.6039 23.3915 31.4996 23.4967 31.3667 23.574C31.2337 23.6505 31.0825 23.6887 30.9131 23.6887Z" fill="white"/>
</g>
<defs>
<clipPath id="clip0_9_245">
<rect width="36" height="36" fill="white"/>
</clipPath>
</defs>
</svg>
