<svg width="36" height="36" viewBox="0 0 36 36" fill="none" xmlns="http://www.w3.org/2000/svg">
<g clip-path="url(#clip0_9_262)">
<path d="M6.89 0.5H0.5V7.03H6.89V0.5Z" fill="white"/>
<path d="M14.04 0.5H7.65002V7.03H14.04V0.5Z" fill="white"/>
<path d="M21.2 0.5H14.81V7.03H21.2V0.5Z" fill="white"/>
<path d="M28.35 0.5H21.96V7.03H28.35V0.5Z" fill="white"/>
<path d="M35.5 0.5H29.11V7.03H35.5V0.5Z" fill="white"/>
<path d="M6.89 21.85H0.5V28.38H6.89V21.85Z" fill="white"/>
<path d="M14.04 21.85H7.65002V28.38H14.04V21.85Z" fill="white"/>
<path d="M21.2 21.85H14.81V28.38H21.2V21.85Z" fill="white"/>
<path d="M28.35 21.85H21.96V28.38H28.35V21.85Z" fill="white"/>
<path d="M35.5 21.85H29.11V28.38H35.5V21.85Z" fill="white"/>
<path d="M6.89 28.97H0.5V35.5H6.89V28.97Z" fill="white"/>
<path d="M14.04 28.97H7.65002V35.5H14.04V28.97Z" fill="white"/>
<path d="M21.2 28.97H14.81V35.5H21.2V28.97Z" fill="white"/>
<path d="M28.35 28.97H21.96V35.5H28.35V28.97Z" fill="white"/>
<path d="M35.5 28.97H29.11V35.5H35.5V28.97Z" fill="white"/>
<path d="M6.89 7.62H0.5V14.15H6.89V7.62Z" fill="white"/>
<path d="M21.2 7.62H14.81V14.15H21.2V7.62Z" fill="white"/>
<path d="M28.35 7.62H21.96V14.15H28.35V7.62Z" fill="white"/>
<path d="M35.5 7.62H29.11V14.15H35.5V7.62Z" fill="white"/>
<path d="M14.04 14.73H7.65002V21.26H14.04V14.73Z" fill="white"/>
<path d="M21.2 14.73H14.81V21.26H21.2V14.73Z" fill="white"/>
<path d="M35.5 14.73H29.11V21.26H35.5V14.73Z" fill="white"/>
</g>
<defs>
<clipPath id="clip0_9_262">
<rect width="36" height="36" fill="white"/>
</clipPath>
</defs>
</svg>
