<svg width="36" height="36" viewBox="0 0 36 36" fill="none" xmlns="http://www.w3.org/2000/svg">
<g clip-path="url(#clip0_9_7)">
<path d="M21 4.60001H15.6V35.1H21V4.60001Z" fill="white"/>
<path d="M35.9 36H-0.100006V0.699997H1.09999V34.8H35.9V36Z" fill="white"/>
<path d="M11 35.5H4.29999V19.8H11V35.5ZM5.59999 34.2H9.69999V21.1H5.59999V34.2Z" fill="white"/>
<path d="M16.4 35.5H9.70001V11.7H16.4V35.5ZM11 34.2H15.1V13H11V34.2Z" fill="white"/>
<path d="M21.8 35.5H15.1V4H21.8V35.5ZM16.4 34.2H20.5V5.3H16.4V34.2Z" fill="white"/>
<path d="M27.2 35.5H20.5V6.8H27.2V35.5ZM21.8 34.2H25.9V8.1H21.8V34.2Z" fill="white"/>
<path d="M32.5 35.5H25.8V24.9H32.5V35.5ZM27.1 34.2H31.2V26.2H27.1V34.2Z" fill="white"/>
</g>
<defs>
<clipPath id="clip0_9_7">
<rect width="36" height="36" fill="white"/>
</clipPath>
</defs>
</svg>
