<?xml version="1.0" encoding="utf-8"?>
<!-- Generator: Adobe Illustrator 25.0.0, SVG Export Plug-In . SVG Version: 6.00 Build 0)  -->
<svg version="1.1" id="Layer_1" xmlns="http://www.w3.org/2000/svg" xmlns:xlink="http://www.w3.org/1999/xlink" x="0px" y="0px"
	 viewBox="0 0 36 36" style="enable-background:new 0 0 36 36;" xml:space="preserve">
<style type="text/css">
	.st0{fill:#FFFFFF;}
	.st1{fill:#0B4A99;}
</style>
<g>
	<g>
		<path class="st0" d="M0.7,15.6c-0.2,0-0.4-0.1-0.5-0.3C0,15,0,14.6,0.3,14.4L17.8,1.3c0.3-0.2,0.8-0.2,1.1,0l16.8,12.9
			c0.3,0.2,0.4,0.7,0.1,0.9c-0.2,0.3-0.6,0.4-0.9,0.1L18.4,2.5l-17.3,13C1,15.6,0.8,15.6,0.7,15.6z M18.6,2.3L18.6,2.3L18.6,2.3z"/>
	</g>
	<g>
		<g>
			<path class="st0" d="M31.6,34.9H4.4V14.4c0-0.4,0.3-0.7,0.7-0.7c0.4,0,0.7,0.3,0.7,0.7v19.2h24.5V13.7c0-0.4,0.3-0.7,0.7-0.7
				c0.4,0,0.7,0.3,0.7,0.7v21.2H31.6z"/>
		</g>
		<g>
			<path class="st0" d="M22.9,34.8c-0.4,0-0.7-0.3-0.7-0.7V22.7h-8.5V34c0,0.4-0.3,0.7-0.7,0.7s-0.7-0.3-0.7-0.7V21.4h11.2v12.7
				C23.6,34.5,23.3,34.8,22.9,34.8z"/>
		</g>
	</g>
</g>
</svg>
