<?xml version="1.0" encoding="utf-8"?>
<!-- Generator: Adobe Illustrator 25.0.0, SVG Export Plug-In . SVG Version: 6.00 Build 0)  -->
<svg version="1.1" id="Layer_1" xmlns="http://www.w3.org/2000/svg" xmlns:xlink="http://www.w3.org/1999/xlink" x="0px" y="0px"
	 viewBox="0 0 36 36" style="enable-background:new 0 0 36 36;" xml:space="preserve">
<style type="text/css">
	.st0{fill:#CB1618;}
	.st1{fill:#185ABD;}
	.st2{fill:#D83039;}
	.st3{fill:#103F91;}
	.st4{fill:#185C37;}
	.st5{fill:#33C481;}
	.st6{fill:#107C41;}
	.st7{fill:#21A366;}
	.st8{fill:#0B4A99;}
	.st9{fill:none;}
	.st10{fill:#FFFFFF;}
	.st11{fill:#41A5EE;}
	.st12{fill:#2B7CD3;}
	.st13{opacity:0.5;enable-background:new    ;}
	.st14{fill:url(#SVGID_1_);}
	.st15{fill:url(#SVGID_2_);}
	.st16{fill:url(#SVGID_3_);}
	.st17{fill:url(#SVGID_4_);}
	.st18{fill:#E24951;}
	.st19{fill-rule:evenodd;clip-rule:evenodd;}
	.st20{fill:#262625;}
	.st21{fill:none;stroke:#000000;stroke-width:0.75;stroke-miterlimit:10;}
	.st22{fill:none;stroke:#000000;stroke-width:1.2;stroke-miterlimit:10;}
	.st23{fill-rule:evenodd;clip-rule:evenodd;fill:#FFFFFF;}
	.st24{fill:none;stroke:#0071C5;stroke-width:1.3;stroke-linecap:round;stroke-miterlimit:10;}
	.st25{fill:none;stroke:#F0AB00;stroke-width:1.3;stroke-miterlimit:10;}
	.st26{fill:none;stroke:#1C55A6;stroke-width:1.3;stroke-linecap:round;}
	.st27{fill-rule:evenodd;clip-rule:evenodd;fill:none;stroke:#1C55A6;stroke-width:1.3;stroke-linecap:round;}
	.st28{fill:none;stroke:#1C55A6;stroke-width:1.3;stroke-linecap:round;stroke-miterlimit:10;}
	.st29{fill:#FFFFFF;stroke:#231F20;}
	.st30{fill:none;stroke:#0B4A99;stroke-width:1.3;stroke-miterlimit:10;}
</style>
<g>
	<path class="st23" d="M23.4,8.2L23,8.7c0,0-0.3,0.4-0.3,1c0,0,0.2,0.1,0.6-0.3c0,0,0.2-0.2,0.2-0.4l1.8,1.3l0.1,0.2l0.2-0.3l-2-1.5
		l0.2-0.2L23.4,8.2z"/>
	
		<rect x="21.7" y="10.5" transform="matrix(2.229585e-02 -0.9998 0.9998 2.229585e-02 11.7157 33.0091)" class="st23" width="2" height="0.1"/>
	
		<rect x="22.4" y="11.5" transform="matrix(2.229585e-02 -0.9998 0.9998 2.229585e-02 10.5001 33.9934)" class="st23" width="0.4" height="0.2"/>
	
		<rect x="24" y="10.3" transform="matrix(2.229585e-02 -0.9998 0.9998 2.229585e-02 11.6235 35.7656)" class="st23" width="0.2" height="3.3"/>
	
		<rect x="25.3" y="11.5" transform="matrix(2.229585e-02 -0.9998 0.9998 2.229585e-02 13.1591 36.9997)" class="st23" width="0.4" height="0.6"/>
	
		<rect x="24.9" y="10.9" transform="matrix(2.229585e-02 -0.9998 0.9998 2.229585e-02 14.0138 36.2004)" class="st23" width="1.3" height="0.1"/>
	<path class="st23" d="M22.8,10.5c0,0.1-0.1,0.2-0.1,0.2s-0.1-0.1-0.1-0.2c0-0.1,0.1-0.2,0.1-0.2C22.8,10.3,22.8,10.4,22.8,10.5z"/>
	<path class="st23" d="M24.3,9.4l0.9,2.6l-0.2,0l-1-0.8l-1,0.8l-0.2,0l1-2.5l0.2,0L24.3,9.4z M24.3,9.5l-0.2,0l-0.2,0.3l0.5,0
		L24.3,9.5z M24.6,10.6l-0.5-0.5l-0.5,0.5L24.6,10.6z M24,9.9l0.2,0.2l0.2-0.2L24,9.9z M23.7,10.5l0.4-0.4l-0.2-0.2L23.7,10.5z
		 M24.5,10l-0.2,0.2l0.4,0.4L24.5,10z M23.7,10.7l0.4,0.4l0.4-0.4L23.7,10.7z M24.7,10.8l-0.5,0.4l0.9,0.7L24.7,10.8z M23.1,11.8
		l0.9-0.7l-0.5-0.4L23.1,11.8z"/>
	<path class="st10" d="M21.3,3.2c0,0.6-0.5,0.9-1,0.9c-0.6,0-0.9-0.5-0.9-1c0-0.5,0.5-0.9,1-0.9C21,2.1,21.4,2.6,21.3,3.2z
		 M20.4,2.1c-0.6,0-1.1,0.5-1.1,1.1s0.5,1.1,1.1,1.1s1.1-0.5,1.1-1.1S21,2.1,20.4,2.1z"/>
	<path class="st10" d="M19.6,1.8L19.6,1.8C19.6,1.7,19.6,1.8,19.6,1.8c0,0.1,0,0.2,0.1,0.2C19.7,2,19.6,2,19.6,1.8L19.6,1.8
		L19.6,1.8L19.6,1.8C19.7,1.9,19.7,1.9,19.6,1.8L19.6,1.8C19.7,1.8,19.7,1.8,19.6,1.8C19.7,1.8,19.7,1.8,19.6,1.8
		C19.7,1.8,19.7,1.8,19.6,1.8C19.7,1.8,19.7,1.8,19.6,1.8L19.6,1.8C19.7,1.8,19.7,1.8,19.6,1.8C19.7,1.8,19.7,1.8,19.6,1.8L19.6,1.8
		L19.6,1.8L19.6,1.8C19.7,1.7,19.7,1.7,19.6,1.8L19.6,1.8L19.6,1.8L19.6,1.8c0.1,0,0.1,0,0.2,0l0,0l0,0C19.8,1.8,19.8,1.8,19.6,1.8
		L19.6,1.8c0.1,0.1,0.2,0,0.2-0.2l0,0.1c0,0,0,0.1,0,0l0,0l0,0c0,0,0.1-0.1-0.1-0.2l0,0l0,0l0,0L19.6,1.8
		C19.7,1.7,19.6,1.8,19.6,1.8L19.6,1.8L19.6,1.8z"/>
	<path class="st10" d="M20,2.4C20,2.4,20,2.4,20,2.4C20,2.4,20,2.4,20,2.4c0,0.1,0,0.1-0.1,0.2C19.9,2.5,20,2.5,20,2.4
		C20,2.5,20,2.5,20,2.4L20,2.4L20,2.4C19.9,2.5,19.9,2.4,20,2.4L20,2.4C19.9,2.4,19.9,2.4,20,2.4C19.9,2.4,19.9,2.4,20,2.4
		C19.9,2.4,19.9,2.4,20,2.4C19.9,2.4,19.9,2.4,20,2.4L20,2.4C19.9,2.4,19.9,2.4,20,2.4C19.9,2.4,19.9,2.4,20,2.4L20,2.4L20,2.4
		L20,2.4L20,2.4L20,2.4L20,2.4L20,2.4L20,2.4L20,2.4L20,2.4C19.9,2.4,19.9,2.4,20,2.4L20,2.4C19.9,2.5,19.8,2.5,20,2.4L20,2.4
		L20,2.4L20,2.4L20,2.4c-0.1-0.1-0.1-0.2,0-0.2l0,0L20,2.4L20,2.4L20,2.4C20,2.4,20,2.4,20,2.4L20,2.4L20,2.4z"/>
	
		<rect x="19" y="2.6" transform="matrix(2.229585e-02 -0.9998 0.9998 2.229585e-02 16.5686 22.2906)" class="st10" width="1.4" height="0.2"/>
	
		<rect x="19.5" y="2.9" transform="matrix(2.229585e-02 -0.9998 0.9998 2.229585e-02 16.5121 22.8012)" class="st10" width="0.9" height="0.2"/>
	<path class="st10" d="M19.3,3.4l0.7,0L20,4C20,4.1,19.6,4,19.3,3.4z"/>
	<path class="st10" d="M20.2,4.2l0-1l-0.2,0l0,0l0-0.5c0,0,0-0.1,0.1-0.1l0.2,0l0,0l0,0l0.1,0l0-0.1c0,0,0-0.2,0.2-0.2l0-0.2
		c0,0,0,0,0.1,0l0,0.2c0,0,0.2,0,0.2,0.2l0,1.6l-0.4,0l0-1.4l-0.1,0l0,0l0,0l-0.3,0l0,0.4l0.2,0L20.2,4.2L20.2,4.2z"/>
	<path class="st10" d="M21,1.7l0,0.4c0,0-0.2,0-0.2,0.2l0,1.8c0,0,0.3-0.1,0.4-0.5l0-1.3c0,0,0-0.2-0.2-0.2l0-0.2c0,0,0,0-0.1,0
		l0,0.2l0,0L21,1.7C21.1,1.7,21.1,1.7,21,1.7z"/>
	<path class="st10" d="M20.9,2.7C20.8,2.7,20.8,2.6,20.9,2.7L20.9,2.7C20.8,2.6,20.9,2.6,20.9,2.7L20.9,2.7z"/>
	<path class="st10" d="M20.9,3C20.8,3,20.8,3,20.9,3L20.9,3C20.8,2.9,20.9,2.9,20.9,3L20.9,3z"/>
	<path class="st10" d="M20.9,3.3C20.8,3.3,20.8,3.3,20.9,3.3L20.9,3.3C20.8,3.3,20.8,3.3,20.9,3.3L20.9,3.3z"/>
	<path class="st10" d="M21.3,3L21.3,3L21.3,3C21.3,3,21.3,2.9,21.3,3L21.3,3z"/>
	<path class="st10" d="M21.3,3.3L21.3,3.3L21.3,3.3C21.3,3.3,21.3,3.3,21.3,3.3L21.3,3.3z"/>
	<path class="st10" d="M20.9,3.7C20.8,3.7,20.8,3.7,20.9,3.7L20.9,3.7C20.8,3.7,20.9,3.7,20.9,3.7L20.9,3.7z"/>
	<path class="st23" d="M16.3,8.8C16.3,8.9,16.2,8.9,16.3,8.8L16,8.9C16,8.9,16,8.8,16,8.8L16,8c0-0.1,0.1-0.1,0.1-0.1l0.2,0
		c0.1,0,0.1,0.1,0.1,0.1L16.3,8.8z"/>
	<path class="st23" d="M15.9,8.8C15.9,8.9,16,8.9,15.9,8.8L15.9,8.8c-0.2,0.1-0.2,0-0.2,0l0-0.8c0-0.1,0.1-0.1,0.1-0.1l0.1,0
		c0.1,0,0,0.1,0,0.1L15.9,8.8z"/>
	<path class="st23" d="M15.7,8.8C15.6,8.9,15.7,8.9,15.7,8.8L15.7,8.8c-0.2,0.1-0.2,0-0.2,0l0-0.8c0-0.1,0.1-0.1,0.1-0.1l0.1,0
		c0.1,0,0,0.1,0,0.1L15.7,8.8z"/>
	<path class="st23" d="M15.4,8.8C15.4,8.9,15.5,8.9,15.4,8.8L15.4,8.8c-0.2,0.1-0.2,0-0.2,0l0-0.8c0-0.1,0.1-0.1,0.1-0.1l0.1,0
		c0.1,0,0,0.1,0,0.1L15.4,8.8z"/>
	<path class="st23" d="M16.4,9.1C16.4,9.1,16.3,9.1,16.4,9.1l-2.2,0c0,0-0.1,0-0.1-0.1l0,0c0,0,0-0.1,0.1-0.1L16.4,9.1
		C16.3,9.1,16.4,9.1,16.4,9.1L16.4,9.1z"/>
	
		<rect x="14.5" y="8.2" transform="matrix(2.229585e-02 -0.9998 0.9998 2.229585e-02 5.5797 23.283)" class="st23" width="0.3" height="1.1"/>
	
		<rect x="14.3" y="8.2" transform="matrix(2.229585e-02 -0.9998 0.9998 2.229585e-02 5.6415 22.6149)" class="st23" width="0.2" height="0.5"/>
	
		<rect x="14" y="7.2" transform="matrix(2.229585e-02 -0.9998 0.9998 2.229585e-02 6.7837 21.4704)" class="st23" width="0.8" height="0.1"/>
	<polygon class="st23" points="14.5,8.2 14.1,8.2 14.3,7.7 14.4,7.7 	"/>
	<path class="st23" d="M15.1,8.5C15.1,8.6,15,8.6,15.1,8.5l-0.4,0.1c-0.1,0-0.1-0.1-0.1-0.1l0-0.2c0-0.1,0.1-0.1,0.1-0.1l0.3,0
		c0.1,0,0.1,0.1,0.1,0.1L15.1,8.5z"/>
	<path class="st23" d="M14.7,6.7c0,0-0.2,0.1-0.2,0c0,0-0.1-0.1,0-0.2c0,0,0,0,0.2,0c0,0,0.1,0,0.1-0.1c0,0,0.2-0.2,0.4-0.2
		c0,0,0.3-0.1,0.5,0.2c0,0,0.2,0.2-0.2,0.3l-0.5,0C14.8,6.7,14.7,6.7,14.7,6.7C14.7,6.7,14.7,6.7,14.7,6.7z"/>
	<path class="st23" d="M14.9,8.1l0-0.2c0-0.1,0.1-0.2,0.2-0.2l1,0c0.1,0,0.2,0.1,0.2,0.2l0,0.1l0.1,0l0-0.1c0-0.1-0.1-0.2-0.2-0.2
		l-1,0c-0.1,0-0.2,0.1-0.2,0.2L14.9,8.1L14.9,8.1z"/>
	<path class="st23" d="M15.4,7.7c0,0,0.1,0,0.1,0.2l0,0.1l-0.1,0L15.4,7.7L15.4,7.7L15.4,7.7z"/>
	<path class="st23" d="M15.7,7.7c0,0,0.1,0,0.1,0.2l0,0.1l-0.1,0L15.7,7.7L15.7,7.7L15.7,7.7z"/>
	<path class="st23" d="M15.9,7.7c0,0,0.1,0,0.1,0.2l0,0.1l-0.1,0L15.9,7.7L15.9,7.7L15.9,7.7z"/>
	<path class="st10" d="M17.4,36l-0.9-1.7c-0.1-0.3-0.2-0.5-0.3-0.7c-0.1-0.2-0.2-0.5-0.3-0.7c-0.2-0.4-0.5-0.9-0.7-1.4
		c-0.2-0.5-0.4-0.9-0.7-1.4c-0.4-0.8-0.7-1-1.9-1c-0.6,0.1-1.3,0.1-2,0.1H10c-0.2,0-0.4,0-0.7-0.1l-0.1,0c-1.3-0.4-1.9-1.2-1.8-2.6
		c0-0.2,0-0.4,0.1-0.7c0-0.1,0-0.2-0.2-0.4c-0.2-0.2-0.6-0.8-0.5-1.6c-0.3-0.4-0.5-0.8-0.5-1.3v-0.6c-0.2-0.1-0.4-0.1-0.4-0.2
		c-0.3-0.2-0.9-0.4-1.1-1.1c-0.1-0.3-0.1-0.9,0.2-1.4c0.4-0.9,0.9-1.9,1.3-2.8c0.3-0.6,0.2-0.8,0.1-1c-0.8-1.5-0.7-3-0.5-4.3
		C6.4,9.5,7,8,8,6.8l1.6-2.1l0.2,2.6c0.1,0.6,0.3,1.2,0.6,2l0.2,0.2V10c-0.1,1,0.4,2.1,1.6,2.4c0.2,0,0.4,0.1,0.6,0.1
		c0.2,0,0.4,0,0.6,0.1c0.4,0,0.8,0,1.2,0.1c0.8,0.1,1.6,0.3,2.2,0.5c1,0.2,1.7,1,1.9,2c0,0.1,0.1,0.2,0.1,0.3c0,0.1,0.1,0.2,0.1,0.4
		c0.3,0.6,0.4,0.7,1.1,0.7c0.5,0,1,0.3,1.3,0.5l0.1,0.1c0.1,0.1,0.2,0.2,0.2,0.3c0.1,0.1,0.2,0.2,0.3,0.4c0.1,0.1,0.1,0.1,0.2,0.2
		c0,0,0,0.1,0.1,0.1c0.2,0.3,0.4,0.4,0.7,0.5c0.6,0.1,1.3,0,1.9-0.3c1.2-0.6,1.9-1.5,2.3-2.6l0.2-0.8h1c0.3,0,0.7,0,1.1-0.1l1.7-0.2
		l-0.4,1.5c-0.2,0.7-0.5,1.3-0.9,2c-0.3,0.4-0.5,0.8-0.8,1.2c-0.3,0.5-0.7,1-1.1,1.6c-0.9,1.3-1.3,2.5-1.3,3.8c0,0.1,0,0.2,0,0.3
		c0,0.2,0.1,0.3,0.1,0.5c0,0.1,0.1,0.2,0.1,0.4l0.2,0.9l-1,0.2c-2.8,0.8-4.7,3.1-6.4,5.4c-0.1,0.2-0.3,0.4-0.4,0.6
		c-0.1,0.2-0.3,0.4-0.4,0.6c-0.1,0.1-0.1,0.2-0.2,0.3c0,0.1-0.1,0.1-0.1,0.2L17.4,36z M13,27.9c1.3,0,2,0.5,2.6,1.6
		c0.2,0.5,0.5,0.9,0.7,1.4c0.2,0.5,0.5,1,0.7,1.4c0.1,0.3,0.2,0.5,0.3,0.7c0.1,0.1,0.1,0.3,0.2,0.4c0-0.1,0.1-0.2,0.2-0.3
		c0-0.1,0.1-0.1,0.1-0.2l0.1-0.1c0.1-0.2,0.3-0.4,0.4-0.6c0.1-0.2,0.3-0.4,0.4-0.6c1.7-2.3,3.8-4.8,6.8-5.8c0-0.1-0.1-0.2-0.1-0.4
		c0-0.1,0-0.2,0-0.3c0-0.2-0.1-0.3-0.1-0.5c0-1.6,0.5-3,1.5-4.5c0.4-0.6,0.7-1.1,1-1.6c0.3-0.4,0.5-0.8,0.8-1.2
		c0.3-0.5,0.5-0.9,0.7-1.4c-0.4,0.1-0.8,0.1-1.1,0.1h-0.1c-0.4,1.5-1.4,2.6-2.9,3.3c-0.8,0.4-1.7,0.5-2.6,0.4
		c-0.6-0.1-1-0.4-1.4-0.9c0,0-0.1-0.1-0.2-0.2c0,0,0-0.1-0.1-0.1L21,18.5c-0.1-0.1-0.2-0.2-0.2-0.3c-0.1-0.1-0.2-0.2-0.3-0.3
		c-0.1-0.1-0.3-0.2-0.4-0.2c-1.1,0-1.7-0.4-2.2-1.5c-0.1-0.2-0.1-0.3-0.1-0.4c-0.1-0.1-0.1-0.3-0.2-0.4c-0.1-0.6-0.5-1-1-1.2
		c-0.6-0.2-1.3-0.4-2.1-0.4c-0.4-0.1-0.7-0.1-1-0.1l-0.1,0c-0.2,0-0.4-0.1-0.6-0.1c-0.3,0-0.5-0.1-0.7-0.1c-1.9-0.4-2.7-2.1-2.6-3.5
		l0,0C9,9.3,8.8,8.6,8.7,7.9c-0.7,1-1.1,2.1-1.3,3.5c-0.2,1.1-0.2,2.3,0.4,3.5c0.4,0.7,0.4,1.4-0.1,2.2c-0.4,0.9-0.9,1.8-1.4,2.8
		c-0.1,0.2-0.1,0.3-0.1,0.5c0,0.1,0.1,0.2,0.4,0.4c0.1,0.1,0.3,0.1,0.4,0.1h0.6l0.1,0.6v1.1c0,0.3,0.1,0.5,0.3,0.6l0.4,0.3l-0.2,0.4
		c-0.2,0.4,0.1,0.7,0.1,0.7c0.3,0.4,0.6,0.9,0.4,1.6l0,0.1c0,0.1,0,0.1,0,0.2l0,0.1c-0.1,0.7,0.1,1.1,0.9,1.3h0.2L9.8,28
		c0.1,0,0.1,0,0.2,0h0.6c0.6,0,1.2,0,1.8-0.1C12.7,27.9,12.8,27.9,13,27.9z M9.9,28l0.1,0.1C9.9,28,9.9,28,9.9,28z"/>
	<g>
		<g>
			
				<rect x="16.2" y="4.7" transform="matrix(0.6375 -0.7705 0.7705 0.6375 2.2408 14.8701)" class="st10" width="1.3" height="0.7"/>
		</g>
		<g>
			<g>
				<path class="st10" d="M15.1,10.8c-1.6,0-2.9-1.4-2.9-3s1.4-2.9,3-2.9s2.9,1.4,2.9,3S16.7,10.8,15.1,10.8z M15.2,5.6
					c-1.2,0-2.3,1-2.3,2.2c0,1.2,1,2.3,2.2,2.3s2.3-1,2.3-2.2C17.4,6.6,16.4,5.6,15.2,5.6z"/>
			</g>
			<g>
				<rect x="14" y="4" transform="matrix(0.9683 -0.2499 0.2499 0.9683 -0.6821 3.7278)" class="st10" width="0.7" height="1.1"/>
			</g>
			<g>
				
					<rect x="15.6" y="10.5" transform="matrix(0.9747 -0.2234 0.2234 0.9747 -2.0893 3.8394)" class="st10" width="0.7" height="1.3"/>
			</g>
			<g>
				
					<rect x="17.5" y="8.9" transform="matrix(0.5351 -0.8448 0.8448 0.5351 0.1965 19.554)" class="st10" width="0.7" height="1.4"/>
			</g>
			<g>
				
					<rect x="17.7" y="6.8" transform="matrix(0.9605 -0.2782 0.2782 0.9605 -1.2674 5.3765)" class="st10" width="1.3" height="0.7"/>
			</g>
			<g>
				<rect x="12" y="5.3" transform="matrix(0.5361 -0.8442 0.8442 0.5361 0.5963 13.1856)" class="st10" width="0.7" height="1.5"/>
			</g>
			<g>
				<rect x="11.3" y="8.1" transform="matrix(0.969 -0.2469 0.2469 0.969 -1.7227 3.2163)" class="st10" width="1.3" height="0.7"/>
			</g>
			<g>
				
					<rect x="12.7" y="10.2" transform="matrix(0.5382 -0.8428 0.8428 0.5382 -2.7109 16.1551)" class="st10" width="1.3" height="0.7"/>
			</g>
		</g>
	</g>
	<g>
		<g>
			
				<rect x="21.2" y="0.6" transform="matrix(0.6375 -0.7705 0.7705 0.6375 7.1783 17.0246)" class="st10" width="1.1" height="0.5"/>
		</g>
		<g>
			<g>
				<path class="st10" d="M20.2,5.3C19,5.3,18,4.3,18,3s1.1-2.3,2.3-2.2c1.3,0,2.3,1.1,2.2,2.3S21.5,5.4,20.2,5.3z M20.3,1.3
					c-1,0-1.8,0.7-1.8,1.7c0,1,0.7,1.8,1.7,1.8c1,0,1.8-0.7,1.8-1.7C22.1,2.1,21.3,1.3,20.3,1.3z"/>
			</g>
			<g>
				<rect x="19.4" y="0.1" transform="matrix(0.9683 -0.2499 0.2499 0.9683 0.5011 4.931)" class="st10" width="0.5" height="0.9"/>
			</g>
			<g>
				<rect x="20.6" y="5.1" transform="matrix(0.9747 -0.2234 0.2234 0.9747 -0.7302 4.8125)" class="st10" width="0.5" height="1"/>
			</g>
			<g>
				
					<rect x="22.2" y="3.9" transform="matrix(0.5351 -0.8448 0.8448 0.5351 6.6835 20.9916)" class="st10" width="0.5" height="1.1"/>
			</g>
			<g>
				<rect x="22.3" y="2.3" transform="matrix(0.9605 -0.2782 0.2782 0.9605 0.1977 6.432)" class="st10" width="1" height="0.5"/>
			</g>
			<g>
				<rect x="17.8" y="1.1" transform="matrix(0.5361 -0.8442 0.8442 0.5361 6.9846 16.03)" class="st10" width="0.5" height="1.2"/>
			</g>
			<g>
				<rect x="17.3" y="3.3" transform="matrix(0.969 -0.2469 0.2469 0.969 -0.3248 4.5097)" class="st10" width="1" height="0.5"/>
			</g>
			<g>
				<rect x="18.4" y="4.9" transform="matrix(0.5382 -0.8428 0.8428 0.5382 4.3869 18.3374)" class="st10" width="1" height="0.5"/>
			</g>
		</g>
	</g>
	<g>
		<path class="st10" d="M23.9,13.8c-1.9,0-3.4-1.6-3.4-3.5s1.6-3.4,3.5-3.4c1.9,0,3.4,1.6,3.4,3.5C27.3,12.3,25.8,13.8,23.9,13.8z
			 M24,7.7c-1.5,0-2.7,1.1-2.7,2.6s1.1,2.7,2.6,2.7s2.7-1.1,2.7-2.6S25.5,7.7,24,7.7z"/>
	</g>
	<g>
		<rect x="22.6" y="5.8" transform="matrix(0.9683 -0.2499 0.2499 0.9683 -0.89 5.9505)" class="st10" width="0.8" height="1.3"/>
	</g>
	<g>
		
			<rect x="24.4" y="13.5" transform="matrix(0.9747 -0.2234 0.2234 0.9747 -2.5524 5.9116)" class="st10" width="0.8" height="1.5"/>
	</g>
	<g>
		
			<rect x="26.7" y="11.6" transform="matrix(0.5351 -0.8448 0.8448 0.5351 2.1285 28.6875)" class="st10" width="0.8" height="1.6"/>
	</g>
	<g>
		<rect x="26.9" y="9.1" transform="matrix(0.9605 -0.2782 0.2782 0.9605 -1.562 8.0698)" class="st10" width="1.5" height="0.8"/>
	</g>
	<g>
		<rect x="25.2" y="6.7" transform="matrix(0.6375 -0.7705 0.7705 0.6375 3.9848 22.613)" class="st10" width="1.6" height="0.8"/>
	</g>
	<g>
		<rect x="20.2" y="7.4" transform="matrix(0.5361 -0.8442 0.8442 0.5361 2.5927 21.2025)" class="st10" width="0.8" height="1.7"/>
	</g>
	<g>
		<rect x="19.4" y="10.7" transform="matrix(0.969 -0.2469 0.2469 0.969 -2.1136 5.3306)" class="st10" width="1.6" height="0.8"/>
	</g>
	<g>
		
			<rect x="21.1" y="13.1" transform="matrix(0.5382 -0.8428 0.8428 0.5382 -1.3033 24.6796)" class="st10" width="1.5" height="0.8"/>
	</g>
</g>
</svg>
