<?xml version="1.0" encoding="utf-8"?>
<!-- Generator: Adobe Illustrator 25.0.0, SVG Export Plug-In . SVG Version: 6.00 Build 0)  -->
<svg version="1.1" id="Layer_1" xmlns="http://www.w3.org/2000/svg" xmlns:xlink="http://www.w3.org/1999/xlink" x="0px" y="0px"
	 viewBox="0 0 36 36" style="enable-background:new 0 0 36 36;" xml:space="preserve">
<style type="text/css">
	.st0{enable-background:new    ;}
	.st1{fill:#FFFFFF;}
</style>
<g>
	<g class="st0">
		<path class="st1" d="M10.7,26.9c0,0.7-0.2,1.3-0.5,1.7c-0.3,0.4-0.8,0.6-1.5,0.6c-0.3,0-0.6-0.1-0.8-0.2v-1.2
			c0.2,0.2,0.5,0.2,0.7,0.2c0.6,0,0.9-0.4,0.9-1.3v-3.3h1.3V26.9z"/>
		<path class="st1" d="M11.7,28.9v-1.2c0.2,0.2,0.5,0.3,0.7,0.4c0.3,0.1,0.5,0.1,0.8,0.1c0.2,0,0.3,0,0.4,0c0.1,0,0.2-0.1,0.3-0.1
			c0.1-0.1,0.1-0.1,0.2-0.2c0-0.1,0.1-0.1,0.1-0.2c0-0.1,0-0.2-0.1-0.3c-0.1-0.1-0.1-0.2-0.3-0.2S13.6,27,13.4,27s-0.3-0.1-0.5-0.2
			c-0.4-0.2-0.8-0.4-1-0.7c-0.2-0.3-0.3-0.6-0.3-1c0-0.3,0.1-0.5,0.2-0.7c0.1-0.2,0.3-0.4,0.5-0.5c0.2-0.1,0.4-0.2,0.7-0.3
			c0.3-0.1,0.5-0.1,0.8-0.1c0.3,0,0.5,0,0.8,0.1c0.2,0,0.4,0.1,0.6,0.2v1.2c-0.1-0.1-0.2-0.1-0.3-0.2c-0.1,0-0.2-0.1-0.3-0.1
			c-0.1,0-0.2-0.1-0.3-0.1s-0.2,0-0.3,0c-0.1,0-0.3,0-0.4,0c-0.1,0-0.2,0.1-0.3,0.1c-0.1,0-0.1,0.1-0.2,0.2S13,24.9,13,25
			c0,0.1,0,0.2,0.1,0.3c0,0.1,0.1,0.1,0.2,0.2s0.2,0.1,0.3,0.2s0.3,0.1,0.4,0.2c0.2,0.1,0.4,0.2,0.6,0.3s0.3,0.2,0.5,0.4
			s0.2,0.3,0.3,0.5c0.1,0.2,0.1,0.4,0.1,0.6c0,0.3-0.1,0.6-0.2,0.8c-0.1,0.2-0.3,0.4-0.5,0.5c-0.2,0.1-0.4,0.2-0.7,0.3
			c-0.3,0.1-0.6,0.1-0.9,0.1c-0.3,0-0.6,0-0.9-0.1S11.9,29,11.7,28.9z"/>
		<path class="st1" d="M18.8,29.2c-0.8,0-1.5-0.3-2-0.8s-0.8-1.2-0.8-2c0-0.9,0.3-1.6,0.8-2.1s1.2-0.8,2-0.8c0.8,0,1.4,0.3,1.9,0.8
			c0.5,0.5,0.7,1.2,0.7,2.1c0,0.9-0.3,1.6-0.8,2.1C20.3,29,19.6,29.2,18.8,29.2z M18.8,24.6c-0.4,0-0.8,0.2-1.1,0.5
			c-0.3,0.3-0.4,0.8-0.4,1.3c0,0.6,0.1,1,0.4,1.3c0.3,0.3,0.6,0.5,1,0.5c0.4,0,0.8-0.2,1-0.5c0.3-0.3,0.4-0.7,0.4-1.3
			c0-0.6-0.1-1-0.4-1.4C19.6,24.7,19.3,24.6,18.8,24.6z"/>
		<path class="st1" d="M27.5,29.2h-1.3l-2.3-3.5c-0.1-0.2-0.2-0.4-0.3-0.5h0c0,0.2,0,0.5,0,0.9v3.1h-1.2v-5.6h1.4L26,27
			c0.1,0.2,0.2,0.3,0.3,0.5h0c0-0.1,0-0.4,0-0.8v-3.1h1.2V29.2z"/>
	</g>
	<g>
		<polygon class="st1" points="31.4,36 4.5,36 4.5,31 5.8,31 5.8,34.7 30.1,34.7 30.1,31 31.4,31 		"/>
	</g>
	<g>
		<polygon class="st1" points="5.8,21.7 4.5,21.7 4.5,0 25.1,0 31.4,7.6 31.4,21.5 30.1,21.5 30.1,8.1 24.5,1.3 5.8,1.3 		"/>
	</g>
	<g>
		<polygon class="st1" points="30.6,8.3 24.2,8.3 24.2,0.6 25.5,0.6 25.5,7 30.6,7 		"/>
	</g>
	<g>
		<rect x="9.4" y="8.7" class="st1" width="11.4" height="1.3"/>
	</g>
	<g>
		<rect x="9.4" y="12.8" class="st1" width="16.5" height="1.3"/>
	</g>
	<g>
		<rect x="9.4" y="16.9" class="st1" width="16.5" height="1.3"/>
	</g>
	<g>
		<path class="st1" d="M34.1,31.6H1.9V21h32.1V31.6z M3.2,30.3h29.5v-8H3.2V30.3z"/>
	</g>
</g>
</svg>
