<svg width="36" height="36" viewBox="0 0 36 36" fill="none" xmlns="http://www.w3.org/2000/svg">
<g clip-path="url(#clip0_9_2)">
<path d="M36 36H0V0.699997H1.2V34.8H36V36Z" fill="white"/>
<path d="M25.1 24.9L12.1 11.9L7.5 17.6H3.5V16.4H6.9L12 10.1L24.3 22.4L26.3 9.20001L32.9 3.10001L33.7 4.00001L27.5 9.80001L25.1 24.9Z" fill="white"/>
<path d="M16.7 28.5L9.99999 19.7L4.69999 24.4L3.89999 23.6L10.1 18L16.4 26.1L22.6 11.5L29.7 24.5L35 22.8L35.4 23.9L29.1 26L22.8 14.3L16.7 28.5Z" fill="white"/>
</g>
<defs>
<clipPath id="clip0_9_2">
<rect width="36" height="36" fill="white"/>
</clipPath>
</defs>
</svg>
