<?xml version="1.0" encoding="utf-8"?>
<!-- Generator: Adobe Illustrator 25.0.0, SVG Export Plug-In . SVG Version: 6.00 Build 0)  -->
<svg version="1.1" id="Layer_1" xmlns="http://www.w3.org/2000/svg" xmlns:xlink="http://www.w3.org/1999/xlink" x="0px" y="0px"
	 viewBox="0 0 36 36" style="enable-background:new 0 0 36 36;" xml:space="preserve">
<style type="text/css">
	.st0{fill:#FFFFFF;}
</style>
<g>
	<g>
		<polygon class="st0" points="32.2,36 3.9,36 3.9,28.5 5.2,28.5 5.2,34.7 31,34.7 31,28.5 32.2,28.5 		"/>
	</g>
	<g>
		<polygon class="st0" points="32.2,10.7 31,10.7 31,7.8 25.3,1.3 5.2,1.3 5.2,10.7 3.9,10.7 3.9,0 25.9,0 32.2,7.3 		"/>
	</g>
	<g>
		<path class="st0" d="M32.5,26H3.7c-1.2,0-2.3-1-2.3-2.3v-9c0-1.2,1-2.3,2.3-2.3h28.7c1.2,0,2.3,1,2.3,2.3v9
			C34.6,25,33.6,26,32.5,26z M3.7,13.8c-0.5,0-0.9,0.4-0.9,0.9v9c0,0.5,0.4,0.9,0.9,0.9h28.7c0.5,0,0.9-0.4,0.9-0.9v-9
			c0-0.5-0.4-0.9-0.9-0.9C32.3,13.8,3.7,13.8,3.7,13.8z"/>
	</g>
	<g>
		<path class="st0" d="M8.8,16.1h1.1v5.6h2.9v1h-4C8.8,22.7,8.8,16.1,8.8,16.1z"/>
		<path class="st0" d="M17.4,16.1c0.7,0,1.2,0.1,1.8,0.4c0.5,0.3,1,0.7,1.3,1.2s0.5,1.1,0.5,1.7s-0.2,1.2-0.5,1.7s-0.7,0.9-1.3,1.2
			c-0.5,0.3-1.1,0.5-1.8,0.5c-0.7,0-1.2-0.2-1.8-0.5c-0.5-0.3-1-0.7-1.3-1.2s-0.5-1.1-0.5-1.7s0.2-1.2,0.5-1.7s0.7-0.9,1.3-1.2
			C16.2,16.2,16.7,16.1,17.4,16.1z M17.4,17.1c-0.4,0-0.8,0.1-1.2,0.3s-0.7,0.5-0.9,0.9s-0.3,0.8-0.3,1.2c0,0.4,0.1,0.8,0.3,1.2
			c0.2,0.4,0.5,0.7,0.9,0.9c0.4,0.2,0.8,0.3,1.2,0.3c0.4,0,0.8-0.1,1.2-0.3c0.4-0.2,0.6-0.5,0.9-0.9c0.2-0.4,0.3-0.8,0.3-1.2
			c0-0.4-0.1-0.8-0.3-1.2c-0.2-0.4-0.5-0.6-0.9-0.9C18.2,17.2,17.8,17.1,17.4,17.1z"/>
		<path class="st0" d="M25.3,20v-1h2.6v3c-0.3,0.3-0.7,0.5-1.2,0.6c-0.5,0.2-0.9,0.2-1.4,0.2c-1,0-1.8-0.3-2.5-1s-1-1.5-1-2.4
			s0.3-1.7,1-2.4c0.7-0.6,1.5-1,2.5-1c0.5,0,0.9,0.1,1.4,0.3c0.5,0.2,0.8,0.4,1.2,0.7l-0.6,0.8c-0.5-0.5-1.2-0.8-1.9-0.8
			c-0.7,0-1.3,0.2-1.7,0.7c-0.5,0.5-0.7,1-0.7,1.7s0.2,1.2,0.7,1.7s1,0.7,1.7,0.7c0.5,0,1-0.2,1.5-0.5v-1.4L25.3,20L25.3,20z"/>
	</g>
</g>
</svg>
