<?xml version="1.0" encoding="utf-8"?>
<!-- Generator: Adobe Illustrator 25.0.0, SVG Export Plug-In . SVG Version: 6.00 Build 0)  -->
<svg version="1.1" id="Layer_1" xmlns="http://www.w3.org/2000/svg" xmlns:xlink="http://www.w3.org/1999/xlink" x="0px" y="0px"
	 viewBox="0 0 36 36" style="enable-background:new 0 0 36 36;" xml:space="preserve">
<style type="text/css">
	.st0{fill:#FFFFFF;}
</style>
<g>
	<g>
		<path class="st0" d="M18.1,36L18.1,36c-0.1,0-0.2,0-0.2,0c-4.3,0-8.4-1.8-11.4-4.9c-3-3.1-4.5-7.3-4.3-11.7
			c0.3-5.5,2.9-9.8,7.7-12.8c0.2-0.1,0.4-0.2,0.5-0.3c0.3-0.1,0.7,0,0.8,0.4c0.1,0.3,0,0.7-0.4,0.8c-0.1,0-0.2,0.1-0.3,0.2
			c-4.4,2.8-6.8,6.7-7.1,11.8c-0.2,4.1,1.2,7.9,4,10.8c2.8,2.9,6.6,4.5,10.5,4.5c0,0,0.1,0,0.1,0h0.1c6.5-0.1,12.2-4.5,13.9-10.6
			c0.9-3.2,0.5-5.8,0.4-6.1c-0.6-3.6-2.2-6.6-4.9-8.9c-0.7-0.6-1.6-1.2-2.4-1.7c-0.3-0.2-0.4-0.6-0.2-0.9c0.2-0.3,0.6-0.4,0.9-0.2
			c0.9,0.5,1.8,1.1,2.6,1.8c2.9,2.5,4.7,5.8,5.3,9.7c0.1,0.5,0.5,3.2-0.5,6.6C31.3,31.2,25.1,35.9,18.1,36L18.1,36z"/>
	</g>
	<g>
		<path class="st0" d="M17.9,18.5c-0.4,0-0.6-0.3-0.6-0.6V0.6c0-0.3,0.3-0.6,0.6-0.6c0.4,0,0.6,0.3,0.6,0.6v17.3
			C18.5,18.3,18.3,18.5,17.9,18.5z"/>
	</g>
</g>
</svg>
