<?xml version="1.0" encoding="utf-8"?>
<!-- Generator: Adobe Illustrator 25.0.0, SVG Export Plug-In . SVG Version: 6.00 Build 0)  -->
<svg version="1.1" id="Layer_1" xmlns="http://www.w3.org/2000/svg" xmlns:xlink="http://www.w3.org/1999/xlink" x="0px" y="0px"
	 viewBox="0 0 36 36" style="enable-background:new 0 0 36 36;" xml:space="preserve">
<style type="text/css">
	.st0{fill:#FFFFFF;}
</style>
<rect x="19.5" y="29" class="st0" width="12" height="1.5"/>
<rect x="24.7" y="23.8" class="st0" width="1.5" height="12"/>
<path class="st0" d="M17.3,10C11.1,10,4.7,8.3,4.7,5.1S11,0.2,17.2,0.2s12.5,1.7,12.5,4.9C29.8,8.3,23.5,10,17.3,10z M17.3,1.6
	c-6.6,0-11,1.8-11,3.5s4.4,3.5,11,3.5s11-1.8,11-3.5S23.9,1.6,17.3,1.6z"/>
<path class="st0" d="M17.6,17.7c-6.9,0-12.2-1.8-12.9-4.5l1.5-0.3c0.4,1.6,4.9,3.4,11.4,3.4V17.7z"/>
<path class="st0" d="M16.9,17.7v-1.4c6.5,0,11-1.8,11.4-3.4l1.5,0.3C29.2,15.8,23.9,17.7,16.9,17.7z"/>
<path class="st0" d="M17.6,26.3c-6.9,0-12.2-1.8-12.9-4.5l1.5-0.3c0.4,1.6,4.9,3.4,11.4,3.4V26.3z"/>
<rect x="4.8" y="5.3" class="st0" width="1.5" height="10.1"/>
<rect x="28.3" y="5.1" class="st0" width="1.5" height="10.3"/>
<rect x="4.8" y="14.3" class="st0" width="1.5" height="11.9"/>
<rect x="28.3" y="15.3" class="st0" width="1.5" height="6.7"/>
<path class="st0" d="M17.6,34.6c-6.9,0-12.2-1.8-12.9-4.5l1.5-0.3c0.4,1.6,4.9,3.4,11.4,3.4V34.6z"/>
<rect x="4.8" y="24.7" class="st0" width="1.5" height="5.7"/>
</svg>
