<?xml version="1.0" encoding="utf-8"?>
<!-- Generator: Adobe Illustrator 25.0.0, SVG Export Plug-In . SVG Version: 6.00 Build 0)  -->
<svg version="1.1" id="Layer_1" xmlns="http://www.w3.org/2000/svg" xmlns:xlink="http://www.w3.org/1999/xlink" x="0px" y="0px"
	 viewBox="0 0 36 36" style="enable-background:new 0 0 36 36;" xml:space="preserve">
<style type="text/css">
	.st0{fill:#CB1618;}
	.st1{fill:#185ABD;}
	.st2{fill:#D83039;}
	.st3{fill:#103F91;}
	.st4{fill:#185C37;}
	.st5{fill:#33C481;}
	.st6{fill:#107C41;}
	.st7{fill:#21A366;}
	.st8{fill:#0B4A99;}
	.st9{fill:none;}
	.st10{fill:#FFFFFF;}
	.st11{fill:#41A5EE;}
	.st12{fill:#2B7CD3;}
	.st13{opacity:0.5;enable-background:new    ;}
	.st14{fill:url(#SVGID_1_);}
	.st15{fill:url(#SVGID_2_);}
	.st16{fill:url(#SVGID_3_);}
	.st17{fill:url(#SVGID_4_);}
	.st18{fill:#E24951;}
	.st19{fill-rule:evenodd;clip-rule:evenodd;}
	.st20{fill:#262625;}
	.st21{fill:none;stroke:#000000;stroke-width:0.75;stroke-miterlimit:10;}
	.st22{fill:none;stroke:#000000;stroke-width:1.2;stroke-miterlimit:10;}
	.st23{fill-rule:evenodd;clip-rule:evenodd;fill:#FFFFFF;}
	.st24{fill:none;stroke:#0071C5;stroke-width:1.3;stroke-linecap:round;stroke-miterlimit:10;}
	.st25{fill:none;stroke:#F0AB00;stroke-width:1.3;stroke-miterlimit:10;}
	.st26{fill:none;stroke:#1C55A6;stroke-width:1.3;stroke-linecap:round;}
	.st27{fill-rule:evenodd;clip-rule:evenodd;fill:none;stroke:#1C55A6;stroke-width:1.3;stroke-linecap:round;}
	.st28{fill:none;stroke:#1C55A6;stroke-width:1.3;stroke-linecap:round;stroke-miterlimit:10;}
	.st29{fill:#FFFFFF;stroke:#231F20;}
	.st30{fill:none;stroke:#0B4A99;stroke-width:1.3;stroke-miterlimit:10;}
</style>
<g>
	<g>
		<path class="st10" d="M4.6,20.1l-1,0l0,0c-0.9,0-1.6-0.7-1.6-1.6v-4.3c0-0.9,0.7-1.6,1.6-1.6h2.2c0.3-0.8,0.6-1.6,1-2.3L5.1,8.6
			C4.9,8.4,4.7,8,4.7,7.5s0.2-0.9,0.4-1.1l3-3c0.7-0.6,1.7-0.6,2.3,0l1.5,1.5c0.7-0.4,1.5-0.7,2.3-1V1.7c0.1-0.9,0.9-1.6,1.7-1.6
			h4.3c0.9,0,1.6,0.7,1.6,1.6v2.2c0.8,0.3,1.6,0.6,2.3,1l1.5-1.5c0.6-0.6,1.7-0.6,2.3,0l3,3c0.6,0.6,0.6,1.7,0,2.3l-1.5,1.5
			c0.4,0.7,0.7,1.5,1,2.3h2.3c0.9,0,1.6,0.7,1.6,1.6v4.3c0.1,0.4-0.1,0.9-0.4,1.2c-0.3,0.3-0.7,0.5-1.2,0.5l-0.7,0L31.9,19l0.7,0
			c0.2,0,0.3,0,0.4-0.1c0.1-0.1,0.1-0.3,0.1-0.4l0-4.4c0-0.2-0.2-0.4-0.4-0.4h-2.5c-0.5,0-0.8-0.3-0.8-0.6c-0.3-0.9-0.6-1.7-1-2.4
			c-0.1-0.2-0.2-0.3-0.2-0.5c0-0.1,0-0.3,0.2-0.5l1.7-1.7c0.1-0.1,0.1-0.5,0-0.6l-3-3c-0.1-0.1-0.5-0.1-0.6,0l-1.9,1.9h-0.2
			c-0.3,0.1-0.5,0-0.7-0.1c-0.7-0.4-1.6-0.7-2.5-1l-0.1,0L21,4.8c-0.1-0.1-0.4-0.4-0.4-0.7V1.7c0-0.2-0.2-0.4-0.4-0.4h-4.3
			c-0.2,0-0.5,0.2-0.5,0.5l0,2.4c0,0.5-0.3,0.8-0.6,0.8c-0.9,0.3-1.7,0.6-2.4,1c-0.3,0.2-0.7,0.2-1-0.1L9.6,4.2
			C9.5,4,9.1,4.1,8.9,4.2l-3,3C5.9,7.3,5.9,7.4,5.9,7.5c0,0.1,0,0.3,0.1,0.3l1.8,1.9C8,9.9,8,10.2,8,10.3c0,0.1,0,0.3-0.2,0.5
			c-0.4,0.7-0.7,1.6-1,2.5l0,0.1l-0.1,0.1c-0.1,0.1-0.4,0.4-0.7,0.4H3.6c-0.2,0-0.4,0.2-0.4,0.4v4.3c0,0.2,0.2,0.4,0.4,0.4l1,0
			L4.6,20.1z M7,10.6C7,10.6,7,10.6,7,10.6L7,10.6z M22.2,10.6c-1-1.3-2.5-2-4.1-2c-1.6,0-3.1,0.7-4.1,2l-0.9-0.7
			c1.2-1.5,3-2.4,5-2.4c2,0,3.8,0.9,5,2.4L22.2,10.6z"/>
	</g>
	<g>
		<path class="st10" d="M18.5,35.9c-0.1,0-0.2,0-0.3,0c-0.6-0.1-1.1-0.5-1.3-1.1c0-0.1-0.1-0.2-0.1-0.3c-0.4,0.5-1,0.7-1.7,0.4
			c-0.3-0.1-1.2-0.5-1.4-1.4c0-0.1,0-0.2,0-0.3c-0.5,0.3-1.1,0.2-1.6-0.2c-0.2-0.1-0.3-0.3-0.4-0.4c0,0-0.1-0.1-0.1-0.1
			c-0.2-0.3-0.3-0.5-0.4-0.8c-0.3,0.2-0.8,0.3-1.4,0.1c-0.6-0.2-1-0.8-1.2-1.4c-0.1-0.3,0-0.8,0.3-1.3c0.9-1.1,1.8-2.1,2.7-3.1
			c0.9-1,1.8-2,2.6-3c0.1-0.1,0.3-0.2,0.4-0.3c0.1-0.1,0.1-0.1,0.2-0.2l0.1-0.1l1.9-1.1c0.4-0.2,0.8-0.3,1.3-0.3c0.1,0,0.2,0,0.3,0
			c0.4,0,0.8,0,1.1,0.2c0.3,0.2,0.5,0.6,0.6,0.9c0,0.1,0.1,0.1,0.1,0.2c0.1,0.2,0.3,0.4,0.4,0.6c0.1,0.2,0.2,0.4,0.3,0.5
			c0.2,0.3,0.4,0.3,0.5,0.2l0.1,0c0.4,0,0.8-0.1,1.3-0.2c0.1,0,0.3-0.2,0.5-0.4l0.1-0.1c0,0,0.1-0.1,0-0.2c-0.2-0.4-0.4-0.7-0.6-1.1
			l-0.7-0.9h1.2c0.8,0,1.5-0.2,2.4-0.7l0.6-0.3l0.3,0.6c1.1,2.6,2.4,4.8,3.9,6.8l0.3,0.4l-0.8,0.8c-0.2,0.2-0.3,0.3-0.6,0.5L29,29.1
			L28.8,29c-0.2-0.1-0.4-0.2-0.6-0.3c-0.2-0.1-0.3-0.2-0.5-0.3c-0.4-0.2-0.7-0.2-0.9-0.1c-0.2,0.1-0.4,0.3-0.5,0.8
			c-0.1,0.1-0.1,0.2-0.1,0.2c0,0.1-0.1,0.2-0.1,0.4L25.9,30l-0.4-0.1c-1.2-0.3-1.5,0.3-1.7,0.8l-0.2,0.7L23,31.1
			c-0.1,0-0.1,0-0.2-0.1c-0.1,0-0.2-0.1-0.3-0.1c-0.2-0.1-0.6-0.1-0.9,0c-0.3,0.2-0.4,0.5-0.4,0.7l0,0.2c-0.1,0.2-0.2,0.8-1,0.8
			c-0.1,0-0.2,0-0.4,0.1c-0.4,0.2-0.4,0.3-0.3,0.7c0.2,0.4,0.3,0.8,0.5,1.2l0.2,0.4l-0.5,0.4C19.4,35.6,19.1,35.9,18.5,35.9z
			 M18.4,33.7c-0.1,0.1-0.2,0.2-0.3,0.3c-0.1,0.1-0.2,0.3-0.1,0.4c0.1,0.2,0.2,0.3,0.4,0.3c0.1,0,0.2,0,0.3-0.1
			c-0.1-0.3-0.2-0.6-0.4-0.9C18.4,33.8,18.4,33.7,18.4,33.7z M15.3,32.6c-0.1,0.1-0.1,0.2-0.2,0.3c0,0.1-0.1,0.1-0.1,0.2
			c0,0.1,0,0.1,0,0.3c0,0.1,0.1,0.3,0.6,0.5c0.1,0,0.2,0.1,0.4-0.2c0.6-0.6,1-1.1,1.5-1.7c0.1-0.1,0.2-0.2,0.3-0.3
			c0.1-0.1,0.2-0.3,0.3-0.4l0.1-0.1c0.2-0.1,0.7-0.4,1.1,0c0.1,0.1,0.2,0.2,0.2,0.3c0.1-0.1,0.3-0.1,0.6-0.1l0-0.1
			c0.1-0.6,0.4-1.1,0.9-1.4c0.5-0.3,1.2-0.4,1.9-0.1c0.5-0.8,1.3-1.2,2.3-1.1c0,0,0-0.1,0.1-0.1c0.2-0.6,0.6-1.1,1.1-1.4
			c0.5-0.2,1.1-0.2,1.9,0.1c0.2,0.1,0.4,0.2,0.6,0.4c0.1,0,0.1,0.1,0.2,0.1c0,0,0.1-0.1,0.1-0.1l0.1-0.1c-1.3-1.8-2.5-3.8-3.5-6.1
			c-0.5,0.2-0.9,0.4-1.4,0.4c0.1,0.1,0.1,0.2,0.2,0.3c0.3,0.5,0.3,1.1-0.2,1.5c-0.3,0.4-0.7,0.7-1.1,0.8c-0.5,0.1-1,0.2-1.5,0.2
			c-0.6,0.1-1.2-0.1-1.6-0.7c-0.2-0.2-0.3-0.4-0.4-0.7c-0.1-0.2-0.2-0.4-0.3-0.5l-0.1-0.1c-0.1-0.1-0.1-0.2-0.1-0.3
			c-0.1-0.2-0.1-0.3-0.2-0.4l0,0c-0.1,0-0.2,0-0.3,0c-0.4,0-0.6,0-1.1,0.2l-1.8,1c-0.1,0.1-0.2,0.2-0.3,0.2
			c-0.1,0.1-0.1,0.1-0.2,0.2c-0.8,1-1.7,2-2.6,3c-0.9,1-1.8,2-2.6,3c0,0-0.1,0.2-0.1,0.3c0.1,0.4,0.2,0.5,0.5,0.6
			c0.2,0.1,0.2,0.1,0.5-0.1c0.1-0.2,0.3-0.4,0.5-0.6c0.2-0.2,0.4-0.4,0.5-0.6c0.6-0.6,1-1.1,1.6-1.7c0.3-0.3,0.5-0.6,0.8-0.9
			c0.6-0.6,1-0.4,1.3-0.1l0.1,0.1c0.2,0.3,0.2,0.6,0,1L15.5,28l-1.9,2.2l-1.1,1.3c-0.1,0.1-0.1,0.1,0,0.3c0,0,0.1,0.1,0.2,0.2
			c0,0,0.1,0.1,0.1,0.1l0.1,0.1c0.2,0.1,0.3,0.2,0.5,0l2.3-2.6c0.1-0.2,0.4-0.4,0.6-0.4c0.3,0,0.5,0,0.7,0.3
			c0.5,0.5,0.2,0.9,0.1,1.1c0,0,0,0.1-0.1,0.1v0.1L17,30.8C16.4,31.4,15.8,32,15.3,32.6z M16.2,29.9l0.5,0.1l-0.5-0.2c0,0,0,0,0,0
			l0,0l0,0C16.2,29.8,16.2,29.9,16.2,29.9C16.2,29.9,16.2,29.9,16.2,29.9C16.2,29.9,16.2,29.9,16.2,29.9
			C16.2,29.9,16.2,29.9,16.2,29.9z"/>
	</g>
	<g>
		<path class="st10" d="M5.3,29.2c-0.2,0-0.4-0.1-0.5-0.2c-0.5-0.2-1-0.4-1.4-0.6c-0.6-0.3-1.3-0.5-2-0.8c-0.2,0-0.4,0-0.4,0H0
			l0.5-0.8c1.5-3.2,3.1-6.4,4.6-9.6l0.3-0.6L6,17c0.2,0.2,0.5,0.3,0.7,0.4l0.1,0.1c1.2,0.7,2.3,1.4,3.6,2.2l0.1,0.1
			c0.5,0.3,0.4,0.7,0.3,1c-1.1,3.4-2.7,6-4.8,8.2C5.8,29.1,5.5,29.2,5.3,29.2z M1.9,26.7c0.7,0.2,1.3,0.5,1.9,0.8
			c0.5,0.2,1,0.4,1.5,0.6l0,0c1.9-2,3.4-4.5,4.4-7.5c-1.2-0.7-2.4-1.4-3.5-2.1c-0.1,0-0.2-0.1-0.3-0.1C4.5,21.1,3.2,23.9,1.9,26.7z"
			/>
	</g>
	<g>
		<path class="st10" d="M9.4,29.8L9,29.5c-0.3-0.2-0.6-0.4-1-0.6c-0.4-0.2-0.7-0.4-1-0.7l-0.5-0.3l0.4-0.5c1.2-1.6,2.3-3.8,3.2-6.3
			l0.2-0.5l0.5,0.2c1,0.3,1.9-0.1,2.8-0.8c0.4-0.3,0.8-0.5,1.2-0.8c0.4-0.2,0.8-0.5,1.2-0.8c0.5-0.2,0.9-0.5,1.4-0.5h3.3
			c0.7,0,1.2,0.3,1.5,0.9l0.5,0.9c0.5,0.9,0.9,1.7,1.3,2.6c0.2,0.4,0.3,1-0.3,1.6l-0.1,0.1c-0.5,0.4-1.2,0.5-1.9,0.3
			c-0.6-0.2-1.2-0.5-1.5-1.1c-0.1-0.3-0.3-0.5-0.4-0.8c-0.1-0.2-0.2-0.4-0.4-0.7h-1.6h0c0,0,0,0,0,0l0,0c-0.4,0.3-0.9,0.5-1.3,0.8
			c-0.4,0.2-0.8,0.5-1.2,0.8c-0.2,0.1-0.4,0.4-0.6,0.6c-0.8,0.9-1.6,1.8-2.3,2.7c-0.7,0.9-1.5,1.7-2.3,2.6L9.4,29.8z M8.1,27.6
			c0.2,0.1,0.3,0.2,0.5,0.3C8.8,28,9,28.1,9.2,28.3c0.7-0.8,1.4-1.6,2.2-2.5c0.8-0.9,1.5-1.8,2.3-2.6c0.2-0.3,0.5-0.6,0.8-0.8
			c0.4-0.3,0.9-0.5,1.3-0.8c0.4-0.2,0.8-0.5,1.2-0.7c0.3-0.2,0.6-0.2,0.7-0.2h1.8c0.3,0,0.6,0.2,0.7,0.4l0.1,0.1
			c0.1,0.3,0.3,0.5,0.4,0.8c0.1,0.3,0.3,0.5,0.4,0.8c0.1,0.2,0.4,0.4,0.7,0.5c0.3,0.1,0.7,0,1-0.1c0.1-0.1,0.1-0.1,0-0.2
			c-0.4-0.9-0.8-1.7-1.3-2.5l-0.5-0.9c0-0.1-0.1-0.2-0.5-0.2h-3.3c-0.2,0-0.5,0.2-0.8,0.3c-0.3,0.2-0.7,0.5-1.1,0.7
			c-0.4,0.3-0.8,0.5-1.2,0.8c-1,0.6-2,1.2-3.2,1C10.1,24.1,9.2,26,8.1,27.6z"/>
	</g>
	<g>
		<path class="st10" d="M31.3,28.6c0,0-0.1,0-0.1,0c-0.2,0-0.4-0.2-0.6-0.4c-0.8-0.8-1.3-1.7-1.9-2.5L28.3,25
			c-0.9-1.5-1.7-3.1-2.5-4.9l-0.2-0.5l0.4-0.3c0.7-0.5,1.5-0.9,2.2-1.4c0.7-0.5,1.5-0.9,2.2-1.4l0.5-0.3l0.3,0.6
			c1.6,3.1,3,6.3,4.5,9.3l0.2,0.5l-0.5,0.3c-0.2,0.1-0.4,0.2-0.6,0.3c-0.2,0.1-0.3,0.1-0.5,0.2c-0.9,0.4-1.8,0.7-2.7,1.1
			C31.6,28.5,31.4,28.6,31.3,28.6z M27,20.1c0.7,1.6,1.5,3,2.2,4.3l0.4,0.6c0.5,0.8,1.1,1.6,1.7,2.3c0.8-0.4,1.7-0.7,2.5-1.1
			c0.1-0.1,0.3-0.1,0.5-0.2c-1.3-2.7-2.6-5.4-3.9-8.2c-0.5,0.3-1.1,0.7-1.7,1.1C28.3,19.4,27.6,19.7,27,20.1z"/>
	</g>
	<g>
		<path class="st10" d="M23.4,34.8c-0.1,0-0.3,0-0.4-0.1l-0.2,0l-0.1-0.1c0,0-0.1,0-0.1-0.1c-0.1-0.1-0.2-0.1-0.3-0.2L21,32.7
			c-0.5-0.7-0.5-1.5,0.2-2.1c0.7-0.6,1.6-0.6,2.2,0c0.5,0.5,0.9,1,1.4,1.6c0.1,0.1,0.2,0.3,0.3,0.5c0,0,0,0.1,0.1,0.1l0.2,0.2
			l-0.1,0.2c-0.1,0.6-0.4,1.1-0.8,1.4C24.1,34.7,23.8,34.8,23.4,34.8z M23.4,33.7c0.1,0,0.3,0,0.4-0.1c0.1-0.1,0.2-0.2,0.3-0.4
			c0,0,0,0,0,0c0-0.1-0.1-0.2-0.1-0.2c-0.5-0.6-0.9-1.1-1.4-1.5c-0.2-0.2-0.5,0-0.6,0c-0.3,0.3-0.2,0.4-0.1,0.6l1.4,1.6
			c0,0,0,0,0.1,0C23.3,33.6,23.3,33.6,23.4,33.7z"/>
	</g>
	<g>
		<path class="st10" d="M25.7,33.3c-0.3,0-0.8-0.2-1-0.5c-0.4-0.4-0.7-0.7-1-1.1c-0.4-0.4-0.5-1-0.1-1.6c0.7-1,1.6-1.1,2.5-0.5
			c0.4,0.3,0.8,0.6,1.1,0.9c0.2,0.2,0.4,0.5,0.5,0.7l0.1,0.2l0,0.2C27.5,32.5,26.6,33.3,25.7,33.3z M24.9,30.4
			C24.9,30.4,24.9,30.4,24.9,30.4c-0.2,0-0.3,0.2-0.4,0.3c-0.1,0.2,0,0.2,0,0.3c0.3,0.4,0.6,0.7,1,1.1l0.1,0.1
			c0.3,0,0.7-0.3,0.8-0.7c0-0.1-0.1-0.1-0.2-0.2c-0.2-0.2-0.6-0.5-0.9-0.8C25.2,30.5,25.1,30.4,24.9,30.4z"/>
	</g>
	<g>
		<path class="st10" d="M27.7,31.2c-0.2,0-0.5,0-0.7-0.1c-0.7-0.4-1.1-1-1.3-1.6c-0.1-0.7,0.1-1.1,0.3-1.4c0.2-0.2,0.6-0.5,1.2-0.5
			c0.6,0,1.3,0.3,1.7,0.8c0.3,0.4,0.5,1,0.4,1.4c-0.1,0.5-0.5,0.9-0.9,1.2C28.2,31.2,27.9,31.2,27.7,31.2z M27.3,28.8
			c-0.1,0-0.3,0-0.4,0.1c-0.1,0.1-0.1,0.2-0.1,0.4c0,0.3,0.2,0.5,0.6,0.8c0.1,0,0.2,0,0.4,0c0.2-0.1,0.3-0.2,0.3-0.4
			c0-0.1,0-0.3-0.1-0.4C27.9,28.9,27.6,28.8,27.3,28.8z"/>
	</g>
	<g>
		<path class="st10" d="M20.7,35.8l-0.2-0.1c-0.2-0.1-0.5-0.2-0.7-0.5c-0.2-0.2-0.3-0.4-0.5-0.6c-0.1-0.1-0.2-0.2-0.3-0.4
			c-0.3-0.5-0.3-1.1,0-1.6c0.4-0.6,1.3-0.9,1.9-0.5c0.6,0.5,1,0.9,1.3,1.4c0.3,0.4,0.3,0.9,0.1,1.4c-0.3,0.5-0.8,0.9-1.5,1
			L20.7,35.8z M20.4,33.1c-0.1,0-0.2,0.1-0.3,0.2c0,0.1,0,0.2,0,0.2c0.1,0.1,0.2,0.3,0.3,0.4c0.1,0.2,0.2,0.4,0.4,0.5l0.1,0.1
			c0,0,0,0,0,0c0.2-0.1,0.4-0.2,0.5-0.3c0,0,0-0.1,0-0.3C21.1,33.7,20.8,33.4,20.4,33.1z"/>
	</g>
	<g>
		<path class="st10" d="M24.4,18h-1.2c0-2.8-2.3-5.1-5.1-5.1c-2.8,0-5.1,2.3-5.1,5.1h-1.2c0-3.4,2.8-6.2,6.2-6.2
			C21.6,11.7,24.4,14.5,24.4,18z"/>
	</g>
</g>
</svg>
