<svg width="36" height="36" viewBox="0 0 36 36" fill="none" xmlns="http://www.w3.org/2000/svg">
<g clip-path="url(#clip0_9_16)">
<path d="M17.2 0.5V19H35.3C35.3 19 35.9 1.7 17.2 0.5Z" fill="white"/>
<path d="M18 36C8.1 36 0 27.9 0 18C0 8.5 7.5 0.6 17 0H17.7V18.9L31.5 29.9L31 30.4C27.6 34 23 36 18 36ZM16.4 1.4C7.9 2.2 1.3 9.3 1.3 18C1.3 27.2 8.8 34.7 18 34.7C22.4 34.7 26.5 33 29.6 30L16.4 19.5V1.4Z" fill="white"/>
<path d="M35.9 19.8H17.1C16.7 19.8 16.4 19.5 16.4 19.1V0.1L17.3 0C17.5 0 17.8 0 18 0C27.9 0 36 8.1 36 18C36 18.3 36 18.7 36 19L35.9 19.8ZM17.7 18.5H34.8C34.8 18.3 34.8 18.1 34.8 18C34.8 8.8 27.3 1.3 18.1 1.3C18 1.3 17.9 1.3 17.8 1.3V18.5H17.7Z" fill="white"/>
<path d="M30.6 30.8L16.9 19.9C16.7 19.7 16.6 19.4 16.7 19.1C16.8 18.8 17.1 18.6 17.4 18.6H36V19.3C35.7 23.5 34 27.4 31.1 30.5L30.6 30.8ZM18.8 19.8L30.5 29.1C32.8 26.5 34.2 23.2 34.6 19.8H18.8Z" fill="white"/>
</g>
<defs>
<clipPath id="clip0_9_16">
<rect width="36" height="36" fill="white"/>
</clipPath>
</defs>
</svg>
