<?xml version="1.0" encoding="utf-8"?>
<!-- Generator: Adobe Illustrator 25.0.0, SVG Export Plug-In . SVG Version: 6.00 Build 0)  -->
<svg version="1.1" id="Layer_1" xmlns="http://www.w3.org/2000/svg" xmlns:xlink="http://www.w3.org/1999/xlink" x="0px" y="0px"
	 viewBox="0 0 36 36" style="enable-background:new 0 0 36 36;" xml:space="preserve">
<style type="text/css">
	.st0{fill:#CB1618;}
	.st1{fill:#185ABD;}
	.st2{fill:#D83039;}
	.st3{fill:#103F91;}
	.st4{fill:#185C37;}
	.st5{fill:#33C481;}
	.st6{fill:#107C41;}
	.st7{fill:#21A366;}
	.st8{fill:#0B4A99;}
	.st9{fill:none;}
	.st10{fill:#FFFFFF;}
	.st11{fill:#41A5EE;}
	.st12{fill:#2B7CD3;}
	.st13{opacity:0.5;enable-background:new    ;}
	.st14{fill:url(#SVGID_1_);}
	.st15{fill:url(#SVGID_2_);}
	.st16{fill:url(#SVGID_3_);}
	.st17{fill:url(#SVGID_4_);}
	.st18{fill:#E24951;}
	.st19{fill-rule:evenodd;clip-rule:evenodd;}
	.st20{fill:#262625;}
	.st21{fill:none;stroke:#000000;stroke-width:0.75;stroke-miterlimit:10;}
	.st22{fill:none;stroke:#000000;stroke-width:1.2;stroke-miterlimit:10;}
	.st23{fill-rule:evenodd;clip-rule:evenodd;fill:#FFFFFF;}
	.st24{fill:none;stroke:#0071C5;stroke-width:1.3;stroke-linecap:round;stroke-miterlimit:10;}
	.st25{fill:none;stroke:#F0AB00;stroke-width:1.3;stroke-miterlimit:10;}
	.st26{fill:none;stroke:#1C55A6;stroke-width:1.3;stroke-linecap:round;}
	.st27{fill-rule:evenodd;clip-rule:evenodd;fill:none;stroke:#1C55A6;stroke-width:1.3;stroke-linecap:round;}
	.st28{fill:none;stroke:#1C55A6;stroke-width:1.3;stroke-linecap:round;stroke-miterlimit:10;}
	.st29{fill:#FFFFFF;stroke:#231F20;}
	.st30{fill:none;stroke:#0B4A99;stroke-width:1.3;stroke-miterlimit:10;}
</style>
<g>
	<g>
		<path class="st10" d="M19.3,14.9l-17-6.2l1.5-0.6c0,0,9.9-3.8,14.7-5.6c0.4-0.1,0.7-0.1,1.1,0l1.9,0.7c3.3,1.2,6.7,2.5,10.1,3.9
			c0.9,0.3,1.8,0.7,2.7,1L36,8.8l-1.6,0.5c-0.8,0.3-1.5,0.5-2.2,0.8c-0.5,0.2-1,0.4-1.6,0.6l-0.4-1.1c0.5-0.2,1-0.4,1.5-0.6
			c0.2-0.1,0.5-0.2,0.7-0.3c-0.4-0.2-0.9-0.3-1.3-0.5c-3.4-1.4-6.8-2.7-10-3.9l-1.9-0.7c-0.1,0-0.2,0-0.3,0
			c-3.6,1.4-10.3,3.9-13.2,5l13.6,5c1.5-0.5,2.8-1.1,4.1-1.6c1.4-0.5,2.8-1.1,4.4-1.7l0.4,1.1c-1.6,0.6-2.9,1.1-4.3,1.6
			c-1.4,0.5-2.8,1.1-4.4,1.7L19.3,14.9z"/>
	</g>
	<g>
		<path class="st10" d="M24,21.6l-0.2-0.1c-0.4-0.2-1-0.4-1.3-0.5c-0.1,0-0.2-0.1-0.3-0.1c-0.4-0.1-4.2-1.7-5.9-2.4
			c-3.6-1-5.6,0.2-5.8,0.3l-0.9,0.6v-5.8h1.2v3.8c1.1-0.4,3.1-0.8,5.9,0c2.6,1.1,5.5,2.3,5.8,2.3c0.1,0,0.2,0.1,0.3,0.1
			c0.3,0.1,0.9,0.2,1.4,0.5c0.8-0.3,1.5-0.6,2.1-0.9C27,19,27,19,27,18.2v-4.6h1.2v4.6c0,1.4-0.1,1.6-1.4,2.3
			c-0.7,0.4-1.6,0.8-2.5,1.1L24,21.6z"/>
	</g>
	<g>
		<path class="st10" d="M28.7,23.3c0.7-0.4,1.3-0.5,2,0c-0.1-0.8-0.1-1.4-0.2-2.1c-0.1-0.9-0.1-1.7-0.2-2.6c0-0.3-0.2-0.7-0.2-1
			c0-0.2-0.2-0.3-0.3-0.2c-0.2,0-0.4,0-0.5,0.1c-0.2,0.2-0.3,0.4-0.3,0.7c-0.1,0.7-0.1,1.4-0.2,2.1c-0.1,0.9-0.2,1.9-0.2,2.8
			C28.7,23.1,28.7,23.2,28.7,23.3z"/>
	</g>
	<g>
		<g>
			<g>
				<path class="st10" d="M21.9,31.3c-0.2,0-0.5,0-0.7-0.1c-0.4-0.1-4.2-1-6.7-1.6c0,0-2.6-0.6-5.5,0.6l-0.5,0.2L6,24.4l4.2-2.1
					c0.4-0.2,2.8-1.7,7.1-0.5c1.5,0.6,5.4,2.2,5.8,2.3c0.1,0,0.1,0,0.2,0.1c0.5,0.2,1.4,0.4,2,0.9v-0.6l0.4-0.2
					c0.1,0,0.3-0.1,0.6-0.1c0.7-0.1,1.8-0.4,2.3-0.5c0.5-0.2,3.6-1,5.2-0.2c0.5,0.2,0.8,0.6,0.9,1.1c0.5,1.8-5.2,4.2-10.1,5.8
					l-2,0.8C22.7,31.2,22.3,31.3,21.9,31.3z M12.7,28.2c1.2,0,1.9,0.2,2,0.2c0.6,0.1,6.2,1.5,6.8,1.6c0.3,0.1,0.7,0,1,0l1.9-0.7
					c4.9-1.7,9.2-3.8,9.4-4.6c0-0.1-0.1-0.2-0.3-0.3c-1-0.5-3.5-0.1-4.4,0.2c-0.6,0.2-1.6,0.4-2.4,0.6c0.2,0.5,0.1,1,0,1.3
					c0,0-0.8,2.7-4.6,1.7c-2.4-0.7-3.6-1.1-4-1.2L18,26.9l0.3-1.1c0.1,0,0.4,0.1,0.7,0.1c1,0.1,2.4,0.3,3.3,0.6
					c0.8,0.3,1.7,0.3,2.2,0c0.2-0.1,0.3-0.3,0.3-0.4c0-0.1-0.1-0.4-1.7-0.9c-0.1,0-0.2-0.1-0.3-0.1c-0.5-0.2-5.3-2.1-5.8-2.3
					c-4-1.1-6.1,0.4-6.1,0.4L7.4,25l1.6,3.9C10.5,28.4,11.7,28.2,12.7,28.2z"/>
			</g>
		</g>
		<g>
			<g>
				<path class="st10" d="M3.4,33.5l-0.2,0l-0.4-0.1L2.8,33L0,26.4c0-0.6,0.3-0.8,0.5-0.8c0.3-0.2,1-0.5,1.8-0.8
					C3,24.4,3.7,24.1,4,23.9l0.2-0.1c0.1,0,0.4,0,0.7,0.2L5,24.2l2.9,6.7c0,0.5-0.2,0.7-0.4,0.7l-3.8,1.9L3.4,33.5z M1.2,26.5
					l2.4,5.7l2.9-1.5l-2.4-5.6c-0.4,0.2-0.9,0.4-1.5,0.7C2.2,26.1,1.6,26.3,1.2,26.5z"/>
			</g>
		</g>
	</g>
	<g>
		<rect x="29.1" y="10.8" class="st10" width="1.2" height="4"/>
	</g>
	<g>
		<circle class="st10" cx="29.7" cy="16.2" r="1"/>
	</g>
</g>
</svg>
