<?xml version="1.0" encoding="utf-8"?>
<!-- Generator: Adobe Illustrator 26.5.1, SVG Export Plug-In . SVG Version: 6.00 Build 0)  -->
<svg version="1.1" id="Layer_1" xmlns="http://www.w3.org/2000/svg" xmlns:xlink="http://www.w3.org/1999/xlink" x="0px" y="0px"
	 viewBox="0 0 36 36" style="enable-background:new 0 0 36 36;" xml:space="preserve">
<style type="text/css">
	.st0{fill:#FFFFFF;}
</style>
<g>
	<g>
		<path class="st0" d="M18,36c-0.5,0-0.9,0-1.4,0c-0.4,0-0.7-0.2-1-0.5c-0.3-0.3-0.4-0.7-0.3-1.1l0.1-0.9c0.2-1.5,0.4-3,0.7-4.5
			c0,0,0-0.1,0-0.1c-0.1-0.2-0.3-0.5-0.4-0.7l-0.2-0.4c-0.5-0.8-0.4-1.3,0.1-2l1.5-1.9h2l1.4,1.7c0.7,0.9,0.8,1.3,0.1,2.3l-0.1,0.2
			c-0.1,0.2-0.2,0.4-0.4,0.6c-0.1,0.1-0.1,0.1,0,0.4c0.3,1.7,0.5,3.5,0.8,5.2c0.1,0.4,0,0.8-0.3,1.1c-0.2,0.3-0.6,0.5-1,0.5
			C19,36,18.5,36,18,36z M17.6,25.2l-1.1,1.4c-0.2,0.2-0.2,0.3-0.2,0.3s0,0.1,0.1,0.3l0.2,0.3c0.2,0.3,0.3,0.5,0.5,0.8
			s0.2,0.6,0.2,0.9c-0.2,1.5-0.4,3-0.7,4.5l-0.1,0.9c0,0.1,0,0.1,0,0.2c1,0,2,0,2.9,0c0,0,0.1-0.1,0.1-0.1c-0.2-1.7-0.5-3.5-0.8-5.2
			C18.7,29,18.6,28.5,19,28c0.1-0.1,0.2-0.3,0.3-0.5l0.1-0.2c0.2-0.2,0.2-0.4,0.2-0.5c0,0-0.1-0.2-0.3-0.4l-1-1.3L17.6,25.2
			L17.6,25.2z"/>
	</g>
	<g>
		<path class="st0" d="M18,24.8c-0.3,0-0.7,0-0.9-0.1s-0.4-0.2-0.5-0.3l-1.1-0.8c-0.9-0.7-1.9-1.4-2.8-2c-0.6-0.4-0.9-1-0.8-1.6
			c0.1-1-0.1-1.7-0.4-2.3c-0.1-0.1-0.1-0.3-0.2-0.4l0.6-0.3l-0.6,0.2c-0.2-0.5-0.3-0.9-0.6-1.2c-0.8-0.9-1-2-1.2-3.1
			c-0.1-0.3-0.1-0.6-0.1-1.1c0-0.7,0.2-1.2,0.7-1.5c0-0.1,0-0.1,0-0.2c-0.1-0.5-0.2-1-0.2-1.5C9.7,5.7,11,3.4,13.6,1.5
			c1.5-1.1,3.1-1.6,4.7-1.5c2.3,0.1,4,1,5.3,2.7c0.8,0.2,1.5,0.8,1.9,1.8c0.3,0.7,0.5,1.5,0.6,2.4c0,1.2,0,2.3-0.3,3.4
			c0.9,0.6,0.8,1.7,0.7,2.1c-0.1,1.1-0.4,2.1-0.9,3.1c-0.1,0.3-0.3,0.5-0.5,0.6c-0.1,0.1-0.1,0.1-0.2,0.2c-0.3,0.7-0.5,1.4-0.8,2.1
			c0,0.1-0.1,0.2-0.1,0.3c0,0.5,0,0.9,0,1.4c0,0.6-0.2,1.2-0.8,1.6c-1,0.7-2,1.5-3,2.2l-1,0.7c0,0-0.2,0.2-0.4,0.3
			C18.7,24.7,18.3,24.8,18,24.8z M18,1.3c-1.3,0-2.5,0.4-3.7,1.3c-2.3,1.6-3.4,3.6-3.2,6c0,0.4,0.1,0.8,0.2,1.3
			c0,0.2,0.1,0.4,0.1,0.7l0.1,0.5L11,11.2c-0.4,0.1-0.4,0.2-0.4,0.6c0,0.3,0,0.6,0.1,0.8c0.2,1,0.4,1.9,0.9,2.5
			c0.5,0.5,0.7,1.1,0.9,1.7l0.1,0.2c0.7,1.1,0.7,2.2,0.6,3.1c0,0.2,0,0.4,0.3,0.5c1,0.7,1.9,1.4,2.8,2.1l1,0.8
			c0.1,0,0.1,0.1,0.2,0.1c0.2,0.1,0.7,0.1,0.9,0c0,0,0.1-0.1,0.1-0.1l1-0.7c1-0.7,2-1.5,3-2.2c0.2-0.2,0.3-0.3,0.3-0.5
			c0-0.5,0-1,0-1.4c0-0.2,0.1-0.5,0.1-0.6c0.2-0.7,0.5-1.3,0.8-2c0.1-0.1,0.1-0.3,0.2-0.4c0.1-0.1,0.2-0.2,0.2-0.3
			c0.1-0.1,0.2-0.2,0.3-0.4c0.4-0.8,0.7-1.7,0.8-2.6c0.1-0.8-0.1-0.9-0.4-1L24.3,11l0.2-0.6c0.3-1.1,0.4-2.3,0.4-3.6
			c0-0.7-0.2-1.3-0.4-1.9c-0.3-0.6-0.7-1-1.2-1.1c-0.2-0.1-0.4-0.2-0.6-0.4c-1-1.4-2.4-2.1-4.3-2.2C18.2,1.3,18.1,1.3,18,1.3z
			 M18.5,23.5L18.5,23.5L18.5,23.5L18.5,23.5z"/>
	</g>
	<g>
		<path class="st0" d="M10.9,35.5c-0.5,0-0.9,0-1.4,0H3c-1.2,0-1.9-0.7-1.9-1.8v-3.4c0-1.3,0.5-2.4,1.6-3.2c2.4-1.9,5-3.6,7.7-5.1
			c0.6-0.3,1.1-0.4,1.5-0.2s0.7,0.6,0.8,1.3l2,10.8c0.1,0.5,0,0.9-0.3,1.2c-0.3,0.3-0.7,0.5-1.1,0.5C12.4,35.5,11.6,35.5,10.9,35.5z
			 M8,34.3h1.4c1.3,0,2.5,0,3.8,0c0.1,0,0.2,0,0.2,0c0,0,0,0,0-0.2l-2-10.8c-0.1-0.3-0.1-0.3-0.1-0.4c0,0-0.1,0-0.4,0.1
			c-2.6,1.4-5.1,3.1-7.5,5c-0.8,0.6-1.1,1.3-1.1,2.2v3.4c0,0.5,0.1,0.6,0.6,0.6h3.4L8,34.3z"/>
	</g>
	<g>
		<path class="st0" d="M29.4,35.5h-6.5c-0.5,0-1-0.2-1.2-0.5s-0.4-0.8-0.2-1.3l2-10.9c0.1-0.5,0.4-0.9,0.8-1.1
			c0.4-0.2,0.9-0.2,1.4,0.1c2.7,1.5,5.4,3.2,7.8,5.2c1,0.8,1.5,1.9,1.5,3.1c0,1.2,0,2.4,0,3.5c0,1.1-0.7,1.8-1.8,1.8L29.4,35.5z
			 M27.9,34.3h1.5h3.7c0.4,0,0.5-0.1,0.5-0.5c0-1.2,0-2.3,0-3.5c0-0.9-0.3-1.6-1.1-2.2c-2.4-1.9-5-3.6-7.6-5.1
			c-0.1-0.1-0.2-0.1-0.2-0.1c0,0-0.1,0.1-0.1,0.2l-2,10.9c0,0.2,0,0.2,0,0.3c0,0,0.1,0,0.3,0h3.4L27.9,34.3z"/>
	</g>
</g>
</svg>
