<svg width="36" height="36" viewBox="0 0 36 36" fill="none" xmlns="http://www.w3.org/2000/svg">
<g clip-path="url(#clip0_9_105)">
<path d="M18 1.3L4 15.2L9.3 31.6L28.8 34.6L33.9 14.7L18 1.3Z" fill="white"/>
<path d="M7.5 16.3L17.9 10.6L29.6 17.9L28.2 22L32 15.2L18 5L0.5 14.1L7.1 34.7L18.5 30.8L9.4 31.6L7.5 16.3Z" fill="white"/>
<path d="M28.2 22L24.5 28.7L18.5 30.8L25.6 30.2L28.2 22Z" fill="white"/>
<path d="M28.2 22L29.6 17.9L17.9 10.6L7.5 16.3L9.4 31.6L18.5 30.8L24.5 28.7L28.2 22Z" fill="white"/>
<path d="M6.8 35.2L0 13.9L18 0.800003L36 14L29.2 35.1L6.8 35.2ZM1 14.2L7.5 34.3L28.6 34.2L35 14.3L18 1.9L1 14.2Z" fill="white"/>
<path d="M9 32L3.5 15L18 4.60001L32.6 15.1L27 31.9L9 32ZM4.4 15.3L9.6 31.1L26.4 31L31.6 15.3L18 5.60001L4.4 15.3Z" fill="white"/>
<path d="M11.2 29.2L7 16.2L18 8.2L29.1 16.2L24.9 29L11.2 29.2ZM8 16.5L11.8 28.3L24.3 28.2L28.1 16.5L18 9.3L8 16.5Z" fill="white"/>
<path d="M13.4 26.2L10.5 17.4L18 12L25.5 17.4L22.6 26.1L13.4 26.2ZM11.5 17.7L14 25.3H22.1L24.6 17.7L18 13L11.5 17.7Z" fill="white"/>
<path d="M15.5 23.2L14 18.5L18.1 15.6L22.2 18.5L20.6 23.1L15.5 23.2ZM14.9 18.9L16.1 22.4H19.9L21.1 18.9L18 16.7L14.9 18.9Z" fill="white"/>
<path d="M17.6 20.3V1.3H18.4V19.2L35.4 13.7L35.6 14.5L17.6 20.3Z" fill="white"/>
<path d="M7.5 35L6.8 34.5L18 19L29.2 34.4L28.5 34.9L18 20.5L7.5 35Z" fill="white"/>
<path d="M0.584625 13.7131L0.337265 14.4739L17.8357 20.1632L18.083 19.4024L0.584625 13.7131Z" fill="white"/>
</g>
<defs>
<clipPath id="clip0_9_105">
<rect width="36" height="36" fill="white"/>
</clipPath>
</defs>
</svg>
