<?xml version="1.0" encoding="utf-8"?>
<!-- Generator: Adobe Illustrator 25.0.0, SVG Export Plug-In . SVG Version: 6.00 Build 0)  -->
<svg version="1.1" id="Layer_1" xmlns="http://www.w3.org/2000/svg" xmlns:xlink="http://www.w3.org/1999/xlink" x="0px" y="0px"
	 viewBox="0 0 36 36" style="enable-background:new 0 0 36 36;" xml:space="preserve">
<style type="text/css">
	.st0{fill:#FFFFFF;}
</style>
<g>
	<path class="st0" d="M32.4,19.6c-0.4-0.1-0.7,0.2-0.8,0.6c-1.1,6.7-6.8,11.6-13.6,11.6c-6.6,0-12.2-4.6-13.5-11l4.2,1.9
		c0.3,0.2,0.8,0,0.9-0.3c0.1-0.2,0.1-0.4,0-0.5c-0.1-0.2-0.2-0.3-0.4-0.4l-6-2.8H3.1l-3,5.6C0,24.4,0,24.6,0,24.8
		c0.1,0.2,0.2,0.3,0.3,0.4s0.2,0.1,0.3,0.1c0.3,0,0.5-0.1,0.6-0.4l1.9-3.4c1.6,6.9,7.6,11.7,14.8,11.7c7.5,0,13.8-5.4,15-12.8
		c0-0.2,0-0.4-0.1-0.5C32.7,19.7,32.6,19.6,32.4,19.6z"/>
	<path class="st0" d="M36,10.7c-0.1-0.2-0.2-0.3-0.3-0.4c-0.2-0.1-0.4-0.1-0.5-0.1c-0.2,0.1-0.3,0.2-0.4,0.3l-2,3.7
		C31,7.6,25,2.8,18,2.8c-7.5,0-13.8,5.3-15,12.7c0,0.2,0,0.4,0.1,0.5c0.1,0.2,0.3,0.3,0.5,0.3h0.1c0.3,0,0.6-0.2,0.7-0.6
		C5.4,9.1,11.2,4.2,18,4.2c6.4,0,11.8,4.3,13.4,10.4l-4-1.8c-0.2-0.1-0.4-0.1-0.5,0s-0.3,0.2-0.4,0.4c-0.2,0.4,0,0.8,0.3,0.9l6,2.8
		h0.1l3-5.6C36,11.1,36,10.9,36,10.7z"/>
</g>
</svg>
