<?xml version="1.0" encoding="utf-8"?>
<!-- Generator: Adobe Illustrator 25.0.0, SVG Export Plug-In . SVG Version: 6.00 Build 0)  -->
<svg version="1.1" id="Layer_1" xmlns="http://www.w3.org/2000/svg" xmlns:xlink="http://www.w3.org/1999/xlink" x="0px" y="0px"
	 viewBox="0 0 18 18" style="enable-background:new 0 0 18 18;" xml:space="preserve">
<style type="text/css">
	.st0{fill:#FFFFFF;}
</style>
<path class="st0" d="M0.9,9.9C0.9,14.4,4.5,18,9,18s8.1-3.6,8.1-8.1c0-4-2.9-7.4-6.8-8c-0.2,0-0.4,0.1-0.4,0.3s0.1,0.4,0.3,0.4
	c3.6,0.6,6.1,3.6,6.1,7.2c0,4.1-3.3,7.3-7.3,7.3s-7.3-3.3-7.3-7.3C1.7,7.3,3,5,5.1,3.6c0.2-0.1,0.2-0.4,0.1-0.5C5,3,4.8,3,4.6,3.1
	C2.3,4.6,0.9,7.1,0.9,9.9z"/>
<path class="st0" d="M9.3,2l1.6,3.4c0.1,0.2,0.3,0.3,0.5,0.2c0.2-0.1,0.3-0.3,0.2-0.5l-1.3-2.8L13,0.7c0.2-0.1,0.2-0.3,0.1-0.5
	C13,0,12.8-0.1,12.6,0.1L9.3,2z"/>
</svg>
