<svg width="36" height="36" viewBox="0 0 36 36" fill="none" xmlns="http://www.w3.org/2000/svg">
<g clip-path="url(#clip0_9_22)">
<path d="M36 36H0V0.699997H1.2V34.8H36V36Z" fill="white"/>
<path d="M14.8 14.3C15.4627 14.3 16 13.7627 16 13.1C16 12.4373 15.4627 11.9 14.8 11.9C14.1373 11.9 13.6 12.4373 13.6 13.1C13.6 13.7627 14.1373 14.3 14.8 14.3Z" fill="white"/>
<path d="M21.3 23.9C21.9627 23.9 22.5 23.3627 22.5 22.7C22.5 22.0373 21.9627 21.5 21.3 21.5C20.6373 21.5 20.1 22.0373 20.1 22.7C20.1 23.3627 20.6373 23.9 21.3 23.9Z" fill="white"/>
<path d="M29.2 17.4C29.8627 17.4 30.4 16.8627 30.4 16.2C30.4 15.5373 29.8627 15 29.2 15C28.5373 15 28 15.5373 28 16.2C28 16.8627 28.5373 17.4 29.2 17.4Z" fill="white"/>
<path d="M33.1 22.8C33.7627 22.8 34.3 22.2627 34.3 21.6C34.3 20.9373 33.7627 20.4 33.1 20.4C32.4373 20.4 31.9 20.9373 31.9 21.6C31.9 22.2627 32.4373 22.8 33.1 22.8Z" fill="white"/>
<path d="M26.1 19.5C26.7627 19.5 27.3 18.9627 27.3 18.3C27.3 17.6373 26.7627 17.1 26.1 17.1C25.4373 17.1 24.9 17.6373 24.9 18.3C24.9 18.9627 25.4373 19.5 26.1 19.5Z" fill="white"/>
<path d="M11.7 27.6C12.3627 27.6 12.9 27.0627 12.9 26.4C12.9 25.7373 12.3627 25.2 11.7 25.2C11.0373 25.2 10.5 25.7373 10.5 26.4C10.5 27.0627 11.0373 27.6 11.7 27.6Z" fill="white"/>
<path d="M16.6 26.8C17.2075 26.8 17.7 26.3075 17.7 25.7C17.7 25.0925 17.2075 24.6 16.6 24.6C15.9925 24.6 15.5 25.0925 15.5 25.7C15.5 26.3075 15.9925 26.8 16.6 26.8Z" fill="white"/>
<path d="M6.70001 22.4C7.30752 22.4 7.80001 21.9075 7.80001 21.3C7.80001 20.6925 7.30752 20.2 6.70001 20.2C6.09249 20.2 5.60001 20.6925 5.60001 21.3C5.60001 21.9075 6.09249 22.4 6.70001 22.4Z" fill="white"/>
<path d="M17.6 23C18.1523 23 18.6 22.5523 18.6 22C18.6 21.4477 18.1523 21 17.6 21C17.0477 21 16.6 21.4477 16.6 22C16.6 22.5523 17.0477 23 17.6 23Z" fill="white"/>
<path d="M25.2 23.1C25.7523 23.1 26.2 22.6523 26.2 22.1C26.2 21.5477 25.7523 21.1 25.2 21.1C24.6477 21.1 24.2 21.5477 24.2 22.1C24.2 22.6523 24.6477 23.1 25.2 23.1Z" fill="white"/>
<path d="M29.1 21.8C29.6523 21.8 30.1 21.3523 30.1 20.8C30.1 20.2477 29.6523 19.8 29.1 19.8C28.5477 19.8 28.1 20.2477 28.1 20.8C28.1 21.3523 28.5477 21.8 29.1 21.8Z" fill="white"/>
<path d="M32.4 14.5C32.9523 14.5 33.4 14.0523 33.4 13.5C33.4 12.9477 32.9523 12.5 32.4 12.5C31.8477 12.5 31.4 12.9477 31.4 13.5C31.4 14.0523 31.8477 14.5 32.4 14.5Z" fill="white"/>
<path d="M23.1 11.5C23.4314 11.5 23.7 11.2314 23.7 10.9C23.7 10.5686 23.4314 10.3 23.1 10.3C22.7686 10.3 22.5 10.5686 22.5 10.9C22.5 11.2314 22.7686 11.5 23.1 11.5Z" fill="white"/>
<path d="M23.2 19.5C23.6418 19.5 24 19.1418 24 18.7C24 18.2582 23.6418 17.9 23.2 17.9C22.7582 17.9 22.4 18.2582 22.4 18.7C22.4 19.1418 22.7582 19.5 23.2 19.5Z" fill="white"/>
<path d="M10.2 18.1C10.6418 18.1 11 17.7418 11 17.3C11 16.8582 10.6418 16.5 10.2 16.5C9.75817 16.5 9.39999 16.8582 9.39999 17.3C9.39999 17.7418 9.75817 18.1 10.2 18.1Z" fill="white"/>
<path d="M3.69999 28.8C4.14182 28.8 4.49999 28.4418 4.49999 28C4.49999 27.5582 4.14182 27.2 3.69999 27.2C3.25817 27.2 2.89999 27.5582 2.89999 28C2.89999 28.4418 3.25817 28.8 3.69999 28.8Z" fill="white"/>
<path d="M8.50001 27.7C8.94184 27.7 9.30001 27.3418 9.30001 26.9C9.30001 26.4582 8.94184 26.1 8.50001 26.1C8.05818 26.1 7.70001 26.4582 7.70001 26.9C7.70001 27.3418 8.05818 27.7 8.50001 27.7Z" fill="white"/>
<path d="M19.1 12.3C19.5418 12.3 19.9 11.9418 19.9 11.5C19.9 11.0582 19.5418 10.7 19.1 10.7C18.6582 10.7 18.3 11.0582 18.3 11.5C18.3 11.9418 18.6582 12.3 19.1 12.3Z" fill="white"/>
<path d="M27.2 11.3C27.6418 11.3 28 10.9418 28 10.5C28 10.0582 27.6418 9.7 27.2 9.7C26.7582 9.7 26.4 10.0582 26.4 10.5C26.4 10.9418 26.7582 11.3 27.2 11.3Z" fill="white"/>
<path d="M13.7 24.1C14.0314 24.1 14.3 23.8314 14.3 23.5C14.3 23.1686 14.0314 22.9 13.7 22.9C13.3686 22.9 13.1 23.1686 13.1 23.5C13.1 23.8314 13.3686 24.1 13.7 24.1Z" fill="white"/>
<g opacity="0.25">
<path d="M0.700012 1.7H36" stroke="white" stroke-width="0.03" stroke-miterlimit="10"/>
<path d="M0.700012 2.89999H36" stroke="white" stroke-width="0.03" stroke-miterlimit="10"/>
<path d="M0.700012 4.09999H36" stroke="white" stroke-width="0.03" stroke-miterlimit="10"/>
<path d="M0.700012 5.3H36" stroke="white" stroke-width="0.03" stroke-miterlimit="10"/>
<path d="M0.700012 6.5H36" stroke="white" stroke-width="0.03" stroke-miterlimit="10"/>
<path d="M0.700012 7.7H36" stroke="white" stroke-width="0.03" stroke-miterlimit="10"/>
<path d="M0.700012 8.8H36" stroke="white" stroke-width="0.03" stroke-miterlimit="10"/>
<path d="M0.700012 10H36" stroke="white" stroke-width="0.03" stroke-miterlimit="10"/>
<path d="M0.700012 11.2H36" stroke="white" stroke-width="0.03" stroke-miterlimit="10"/>
<path d="M0.700012 12.4H36" stroke="white" stroke-width="0.03" stroke-miterlimit="10"/>
<path d="M0.700012 13.6H36" stroke="white" stroke-width="0.03" stroke-miterlimit="10"/>
<path d="M0.700012 14.8H36" stroke="white" stroke-width="0.03" stroke-miterlimit="10"/>
<path d="M0.700012 16H36" stroke="white" stroke-width="0.03" stroke-miterlimit="10"/>
<path d="M0.700012 17.2H36" stroke="white" stroke-width="0.03" stroke-miterlimit="10"/>
<path d="M0.700012 18.3H36" stroke="white" stroke-width="0.03" stroke-miterlimit="10"/>
<path d="M0.700012 19.5H36" stroke="white" stroke-width="0.03" stroke-miterlimit="10"/>
<path d="M0.700012 20.7H36" stroke="white" stroke-width="0.03" stroke-miterlimit="10"/>
<path d="M0.700012 21.9H36" stroke="white" stroke-width="0.03" stroke-miterlimit="10"/>
<path d="M0.700012 23.1H36" stroke="white" stroke-width="0.03" stroke-miterlimit="10"/>
<path d="M0.700012 24.3H36" stroke="white" stroke-width="0.03" stroke-miterlimit="10"/>
<path d="M0.700012 25.5H36" stroke="white" stroke-width="0.03" stroke-miterlimit="10"/>
<path d="M0.700012 26.6H36" stroke="white" stroke-width="0.03" stroke-miterlimit="10"/>
<path d="M0.700012 27.8H36" stroke="white" stroke-width="0.03" stroke-miterlimit="10"/>
<path d="M0.700012 29H36" stroke="white" stroke-width="0.03" stroke-miterlimit="10"/>
<path d="M0.700012 30.2H36" stroke="white" stroke-width="0.03" stroke-miterlimit="10"/>
<path d="M0.700012 31.4H36" stroke="white" stroke-width="0.03" stroke-miterlimit="10"/>
<path d="M0.700012 32.6H36" stroke="white" stroke-width="0.03" stroke-miterlimit="10"/>
<path d="M0.700012 33.8H36" stroke="white" stroke-width="0.03" stroke-miterlimit="10"/>
<path d="M0.700012 35H36" stroke="white" stroke-width="0.03" stroke-miterlimit="10"/>
</g>
<g opacity="0.25">
<path d="M36 1.10001V35.4" stroke="white" stroke-width="0.03" stroke-miterlimit="10"/>
<path d="M34.7 1.10001V35.4" stroke="white" stroke-width="0.03" stroke-miterlimit="10"/>
<path d="M33.5 1.10001V35.4" stroke="white" stroke-width="0.03" stroke-miterlimit="10"/>
<path d="M32.2 1.10001V35.4" stroke="white" stroke-width="0.03" stroke-miterlimit="10"/>
<path d="M30.9 1.10001V35.4" stroke="white" stroke-width="0.03" stroke-miterlimit="10"/>
<path d="M29.7 1.10001V35.4" stroke="white" stroke-width="0.03" stroke-miterlimit="10"/>
<path d="M28.4 1.10001V35.4" stroke="white" stroke-width="0.03" stroke-miterlimit="10"/>
<path d="M27.1 1.10001V35.4" stroke="white" stroke-width="0.03" stroke-miterlimit="10"/>
<path d="M25.9 1.10001V35.4" stroke="white" stroke-width="0.03" stroke-miterlimit="10"/>
<path d="M24.6 1.10001V35.4" stroke="white" stroke-width="0.03" stroke-miterlimit="10"/>
<path d="M23.3 1.10001V35.4" stroke="white" stroke-width="0.03" stroke-miterlimit="10"/>
<path d="M22.1 1.10001V35.4" stroke="white" stroke-width="0.03" stroke-miterlimit="10"/>
<path d="M20.8 1.10001V35.4" stroke="white" stroke-width="0.03" stroke-miterlimit="10"/>
<path d="M19.5 1.10001V35.4" stroke="white" stroke-width="0.03" stroke-miterlimit="10"/>
<path d="M18.3 1.10001V35.4" stroke="white" stroke-width="0.03" stroke-miterlimit="10"/>
<path d="M17 1.10001V35.4" stroke="white" stroke-width="0.03" stroke-miterlimit="10"/>
<path d="M15.8 1.10001V35.4" stroke="white" stroke-width="0.03" stroke-miterlimit="10"/>
<path d="M14.5 1.10001V35.4" stroke="white" stroke-width="0.03" stroke-miterlimit="10"/>
<path d="M13.2 1.10001V35.4" stroke="white" stroke-width="0.03" stroke-miterlimit="10"/>
<path d="M12 1.10001V35.4" stroke="white" stroke-width="0.03" stroke-miterlimit="10"/>
<path d="M10.7 1.10001V35.4" stroke="white" stroke-width="0.03" stroke-miterlimit="10"/>
<path d="M9.39999 1.10001V35.4" stroke="white" stroke-width="0.03" stroke-miterlimit="10"/>
<path d="M8.20001 1.10001V35.4" stroke="white" stroke-width="0.03" stroke-miterlimit="10"/>
<path d="M6.89999 1.10001V35.4" stroke="white" stroke-width="0.03" stroke-miterlimit="10"/>
<path d="M5.60001 1.10001V35.4" stroke="white" stroke-width="0.03" stroke-miterlimit="10"/>
<path d="M4.39999 1.10001V35.4" stroke="white" stroke-width="0.03" stroke-miterlimit="10"/>
<path d="M3.10001 1.10001V35.4" stroke="white" stroke-width="0.03" stroke-miterlimit="10"/>
<path d="M1.80002 1.10001V35.4" stroke="white" stroke-width="0.03" stroke-miterlimit="10"/>
<path d="M0.600006 1.10001V35.4" stroke="white" stroke-width="0.03" stroke-miterlimit="10"/>
</g>
</g>
<defs>
<clipPath id="clip0_9_22">
<rect width="36" height="36" fill="white"/>
</clipPath>
</defs>
</svg>
