<?xml version="1.0" encoding="utf-8"?>
<!-- Generator: Adobe Illustrator 25.0.0, SVG Export Plug-In . SVG Version: 6.00 Build 0)  -->
<svg version="1.1" id="Layer_1" xmlns="http://www.w3.org/2000/svg" xmlns:xlink="http://www.w3.org/1999/xlink" x="0px" y="0px"
	 viewBox="0 0 36 36" style="enable-background:new 0 0 36 36;" xml:space="preserve">
<style type="text/css">
	.st0{fill:#FFFFFF;}
</style>
<g>
	<g>
		<path class="st0" d="M20.4,36h-4.9c-0.8,0-1.4-0.6-1.4-1.4v-2.8c0-0.1-0.1-0.1-0.1-0.1c-1.1-0.3-2.1-0.7-3.1-1.3c0,0-0.1,0-0.1,0
			l-2,2C8.4,33,7.5,33,7,32.5L3.5,29c-0.5-0.5-0.5-1.4,0-1.9l2-2c0,0,0-0.1,0-0.1c-0.5-1-1-2-1.3-3c0,0-0.1-0.1-0.1-0.1H1.4
			c-0.8,0-1.4-0.6-1.4-1.4v-4.9c0-0.8,0.6-1.4,1.4-1.4h2.8c0.1,0,0.1-0.1,0.1-0.1C4.6,13.1,5,12,5.6,11.1c0,0,0-0.1,0-0.1l-2-2
			C3,8.4,3,7.5,3.5,7L7,3.5C7.5,3,8.4,3,8.9,3.5l2,2c0,0,0.1,0,0.1,0c1-0.5,2-1,3.1-1.3c0,0,0.1-0.1,0.1-0.1V1.4
			c0-0.8,0.6-1.4,1.4-1.4h4.9c0.8,0,1.4,0.6,1.4,1.4v2.8c0,0.1,0,0.1,0.1,0.1C23,4.6,24,5,24.9,5.6c0,0,0.1,0,0.1,0l2-2
			C27.6,3,28.5,3,29,3.5L32.5,7c0.5,0.5,0.5,1.4,0,1.9l-2,2c0,0,0,0.1,0,0.1c0.5,1,1,2,1.3,3.1c0,0.1,0,0.1,0.1,0.1h2.8
			c0.8,0,1.4,0.6,1.4,1.4v4.9c0,0.8-0.6,1.4-1.4,1.4h-2.8c0,0-0.1,0-0.1,0.1c-0.3,1.1-0.7,2.1-1.3,3c0,0,0,0.1,0,0.1l2,2
			c0.5,0.5,0.5,1.4,0,1.9L29,32.5c-0.5,0.5-1.4,0.5-1.9,0l-2-2c0,0-0.1,0-0.1,0c-1,0.5-2,1-3,1.3c0,0-0.1,0-0.1,0.1v2.8
			C21.8,35.4,21.2,36,20.4,36z M11,29.2c0.2,0,0.5,0.1,0.7,0.2c0.9,0.5,1.8,0.9,2.8,1.1c0.6,0.2,1,0.7,1,1.3v2.8
			c0,0.1,0.1,0.1,0.1,0.1h4.9c0.1,0,0.1,0,0.1-0.1v-2.8c0-0.6,0.4-1.1,1-1.3c1-0.3,1.9-0.7,2.8-1.1c0.5-0.3,1.2-0.2,1.6,0.2l2,2
			c0,0,0.1,0,0.1,0l3.5-3.5c0,0,0-0.1,0-0.1l-2-2c-0.4-0.4-0.5-1.1-0.2-1.6c0.5-0.9,0.9-1.8,1.1-2.8c0.2-0.6,0.7-1,1.3-1h2.8
			c0.1,0,0.1,0,0.1-0.1v-4.9c0-0.1,0-0.1-0.1-0.1h-2.8c-0.6,0-1.1-0.4-1.3-1c-0.3-1-0.7-1.9-1.1-2.8c-0.3-0.5-0.2-1.2,0.2-1.6l2-2
			c0,0,0-0.1,0-0.2l-3.5-3.5c0,0-0.1,0-0.1,0l-2,2c-0.4,0.4-1.1,0.5-1.6,0.2c-0.9-0.5-1.8-0.9-2.8-1.2c-0.6-0.2-1-0.7-1-1.3V1.4
			c0-0.1,0-0.1-0.1-0.1h-4.9c-0.1,0-0.1,0-0.1,0.1v2.8c0,0.6-0.4,1.1-1,1.3c-1,0.3-1.9,0.7-2.8,1.2c-0.5,0.3-1.2,0.2-1.6-0.2l-2-2
			c0,0-0.1,0-0.2,0L4.4,7.9c0,0,0,0.1,0,0.1l2,2c0.4,0.4,0.5,1.1,0.2,1.6c-0.5,0.9-0.9,1.8-1.2,2.8c-0.2,0.6-0.7,1-1.3,1H1.4
			c-0.1,0-0.1,0.1-0.1,0.1v4.9c0,0.1,0,0.1,0.1,0.1h2.8c0.6,0,1.1,0.4,1.3,1c0.3,1,0.7,1.9,1.2,2.8c0.3,0.5,0.2,1.2-0.2,1.6l-2,2
			c0,0,0,0.1,0,0.1l3.4,3.5c0,0,0.1,0,0.1,0l2-2C10.3,29.3,10.6,29.2,11,29.2z M18,25.7c-4.3,0-7.7-3.5-7.7-7.7s3.5-7.7,7.7-7.7
			s7.7,3.5,7.7,7.7S22.3,25.7,18,25.7z M18,11.5c-3.6,0-6.5,2.9-6.5,6.5s2.9,6.5,6.5,6.5s6.5-2.9,6.5-6.5S21.6,11.5,18,11.5z"/>
	</g>
</g>
</svg>
