<?xml version="1.0" encoding="utf-8"?>
<!-- Generator: Adobe Illustrator 25.0.0, SVG Export Plug-In . SVG Version: 6.00 Build 0)  -->
<svg version="1.1" id="Layer_1" xmlns="http://www.w3.org/2000/svg" xmlns:xlink="http://www.w3.org/1999/xlink" x="0px" y="0px"
	 viewBox="0 0 36 36" style="enable-background:new 0 0 36 36;" xml:space="preserve">
<style type="text/css">
	.st0{fill:#FFFFFF;}
</style>
<g>
	<g>
		<path class="st0" d="M32,29H11.2L3.8,3.5H0.5C0.2,3.5,0,3.3,0,3s0.2-0.6,0.6-0.6h4L12,27.9h20c0.3,0,0.6,0.2,0.6,0.6
			S32.3,29,32,29z"/>
	</g>
	<g>
		<path class="st0" d="M32.3,25.1H10.4c-0.3,0-0.6-0.2-0.6-0.6s0.2-0.6,0.6-0.6h21L34.6,12H6.8c-0.3,0-0.6-0.2-0.6-0.6
			s0.2-0.6,0.6-0.6H36L32.3,25.1z"/>
	</g>
	<g>
		<path class="st0" d="M13.4,33.6c-1.6,0-2.8-1.3-2.8-2.8c0-1.5,1.3-2.8,2.8-2.8s2.8,1.3,2.8,2.8C16.2,32.3,15,33.6,13.4,33.6z
			 M13.4,29.1c-0.9,0-1.7,0.8-1.7,1.7s0.8,1.7,1.7,1.7s1.7-0.8,1.7-1.7C15.1,29.8,14.4,29.1,13.4,29.1z"/>
	</g>
	<g>
		<path class="st0" d="M31.8,33.6c-1.5,0-2.8-1.3-2.8-2.8c0-1.5,1.3-2.8,2.8-2.8c1.6,0,2.8,1.3,2.8,2.8
			C34.6,32.3,33.4,33.6,31.8,33.6z M31.8,29.1c-0.9,0-1.7,0.8-1.7,1.7s0.8,1.7,1.7,1.7s1.7-0.8,1.7-1.7
			C33.5,29.8,32.8,29.1,31.8,29.1z"/>
	</g>
</g>
</svg>
