<svg width="36" height="36" viewBox="0 0 36 36" fill="none" xmlns="http://www.w3.org/2000/svg">
<g clip-path="url(#clip0_9_119)">
<g opacity="0.1">
<path d="M30.5 27.7H25.8C25.5 27.7 25.2 27.5 25.1 27.2C25 27 25 26.6 25.2 26.4L27.5 23.4C27.8 23 28.5 23 28.8 23.4L31.1 26.4C31.3 26.7 31.3 27 31.2 27.3C31.1 27.5 30.8 27.7 30.5 27.7ZM26.5 26.5H29.8L28.2 24.4L26.5 26.5Z" fill="white"/>
<path d="M28.2 33.1C27.9 33.1 27.7 33 27.5 32.8L25.2 29.8C25 29.5 25 29.2 25.1 28.9C25.2 28.6 25.5 28.4 25.8 28.4H30.5C30.8 28.4 31.1 28.6 31.2 28.9C31.3 29.2 31.3 29.5 31.1 29.8L28.8 32.8C28.7 33 28.4 33.1 28.2 33.1ZM26.5 29.6L28.1 31.7L29.7 29.6H26.5Z" fill="white"/>
<path d="M32.5 8.50001H0V1.50001C0 0.700006 0.6 0.100006 1.4 0.100006H31.1C31.8 0.100006 32.5 0.600006 32.5 1.50001V8.50001ZM1.1 7.40001H31.5V1.40001C31.5 1.20001 31.4 1.00001 31.1 1.00001H1.4C1.2 1.00001 1 1.10001 1 1.40001V7.40001H1.1Z" fill="white"/>
<path d="M11.5 7.60001H10.5V31.8H11.5V7.60001Z" fill="white"/>
<path d="M22 7.60001H21V20.2H22V7.60001Z" fill="white"/>
<path d="M31.7 15.1H0.5V16.1H31.7V15.1Z" fill="white"/>
<path d="M17.8 23.7H0.5V24.7H17.8V23.7Z" fill="white"/>
<path d="M32.5 8.3H31.5V18.4H32.5V8.3Z" fill="white"/>
<path d="M1.3 31.5C1.2 31.5 1.1 31.4 1.1 31.3V8.40001H0V31.3C0 31.9 0.5 32.6 1.3 32.6H17.3V31.5H1.3Z" fill="white"/>
<path d="M28.1 35.9C23.7 35.9 20.2 32.4 20.2 28C20.2 23.6 23.7 20.1 28.1 20.1C32.5 20.1 36 23.6 36 28C36 32.4 32.5 35.9 28.1 35.9ZM28.1 21.3C24.4 21.3 21.4 24.3 21.4 28C21.4 31.7 24.4 34.7 28.1 34.7C31.8 34.7 34.8 31.7 34.8 28C34.8 24.3 31.8 21.3 28.1 21.3Z" fill="white"/>
</g>
</g>
<defs>
<clipPath id="clip0_9_119">
<rect width="36" height="36" fill="white"/>
</clipPath>
</defs>
</svg>
