<?xml version="1.0" encoding="utf-8"?>
<!-- Generator: Adobe Illustrator 25.0.0, SVG Export Plug-In . SVG Version: 6.00 Build 0)  -->
<svg version="1.1" id="Layer_1" xmlns="http://www.w3.org/2000/svg" xmlns:xlink="http://www.w3.org/1999/xlink" x="0px" y="0px"
	 viewBox="0 0 36 36" style="enable-background:new 0 0 36 36;" xml:space="preserve">
<style type="text/css">
	.st0{fill:#CB1618;}
	.st1{fill:#185ABD;}
	.st2{fill:#D83039;}
	.st3{fill:#103F91;}
	.st4{fill:#185C37;}
	.st5{fill:#33C481;}
	.st6{fill:#107C41;}
	.st7{fill:#21A366;}
	.st8{fill:#0B4A99;}
	.st9{fill:none;}
	.st10{fill:#FFFFFF;}
	.st11{fill:#41A5EE;}
	.st12{fill:#2B7CD3;}
	.st13{opacity:0.5;enable-background:new    ;}
	.st14{fill:url(#SVGID_1_);}
	.st15{fill:url(#SVGID_2_);}
	.st16{fill:url(#SVGID_3_);}
	.st17{fill:url(#SVGID_4_);}
	.st18{fill:#E24951;}
	.st19{fill-rule:evenodd;clip-rule:evenodd;}
	.st20{fill:#262625;}
	.st21{fill:none;stroke:#000000;stroke-width:0.75;stroke-miterlimit:10;}
	.st22{fill:none;stroke:#000000;stroke-width:1.2;stroke-miterlimit:10;}
	.st23{fill-rule:evenodd;clip-rule:evenodd;fill:#FFFFFF;}
	.st24{fill:none;stroke:#0071C5;stroke-width:1.3;stroke-linecap:round;stroke-miterlimit:10;}
	.st25{fill:none;stroke:#F0AB00;stroke-width:1.3;stroke-miterlimit:10;}
	.st26{fill:none;stroke:#1C55A6;stroke-width:1.3;stroke-linecap:round;}
	.st27{fill-rule:evenodd;clip-rule:evenodd;fill:none;stroke:#1C55A6;stroke-width:1.3;stroke-linecap:round;}
	.st28{fill:none;stroke:#1C55A6;stroke-width:1.3;stroke-linecap:round;stroke-miterlimit:10;}
	.st29{fill:#FFFFFF;stroke:#231F20;}
	.st30{fill:none;stroke:#0B4A99;stroke-width:1.3;stroke-miterlimit:10;}
</style>
<g>
	<g>
		<path class="st23" d="M8.4,9.9c-1.7,0-3.2,1.3-3.2,3.4c0,1.8,1.5,3.4,3.2,3.4s3.2-1.6,3.2-3.4C11.6,11.2,10.2,9.9,8.4,9.9
			 M8.4,14.8c-0.3,0.3-0.7,0.3-1,0C5.8,13,5.8,13,5.8,13C7,13,7,13,7,13c1,1.3,1,1.3,1,1.3c2-2.1,2-2.1,2-2.1c1,0,1,0,1,0L8.4,14.8
			L8.4,14.8z"/>
	</g>
	<g>
		<path class="st23" d="M10.3,18.6L10.3,18.6C10,18.4,10,18.4,10,18.4v-0.3c0.6-0.3,1-0.6,1.3-0.8l0,0c1-0.8,1.7-2.1,1.7-3.4
			c0-2.7-2-4.8-4.6-4.8s-4.6,2.1-4.6,4.8c0,2.4,2,4.5,4.6,4.5c0.3,0,0.3,0,0.6,0c0.7,2.4,0.7,2.4,0.7,2.4c3,1,3,1,3,1
			c-1.3-3.9-1.3-3.9-1.3-3.9C11.3,18.1,10.8,18.4,10.3,18.6 M8.5,17.5c-2,0-3.6-1.8-3.6-3.7c0-2.1,1.6-3.7,3.6-3.7s3.6,1.6,3.6,3.7
			C12,15.7,10.5,17.5,8.5,17.5"/>
	</g>
	<g>
		<path class="st23" d="M5.4,17.8c-1.3,3.9-1.3,3.9-1.3,3.9c3-1,3-1,3-1c0.5-1.8,0.5-1.8,0.5-1.8c-0.5,0-1-0.3-1.5-0.6
			C5.9,18.1,5.6,18.1,5.4,17.8"/>
	</g>
	<g>
		<path class="st10" d="M30.9,18.7h-1.2V1.9c0-0.4-0.3-0.7-0.7-0.7h-22c-0.4,0-0.7,0.3-0.7,0.7v2.9H5.2V1.9C5.2,0.8,6,0,7.1,0h22
			c1.1,0,1.9,0.8,1.9,1.9V18.7z"/>
	</g>
	<g>
		<path class="st10" d="M18.6,36H2.7c-1.1,0-1.9-0.8-1.9-1.9V6.1c0-1,0.9-1.9,1.9-1.9H25c1.1,0,1.9,0.8,1.9,1.9v14.5h-1.2V6.1
			c0-0.4-0.3-0.7-0.7-0.7H2.7C2.3,5.4,2,5.7,2,6.1v28.1c0,0.4,0.3,0.7,0.7,0.7h15.9V36z"/>
	</g>
	<g>
		<rect x="14.5" y="9.6" class="st10" width="9.4" height="1.2"/>
	</g>
	<g>
		<rect x="4.5" y="27.1" class="st10" width="9.4" height="1.2"/>
	</g>
	<g>
		<rect x="4.5" y="31.3" class="st10" width="9.4" height="1.2"/>
	</g>
	<g>
		<rect x="14.5" y="15.1" class="st10" width="9.4" height="1.2"/>
	</g>
	<g>
		<rect x="14.5" y="20.7" class="st10" width="5.4" height="1.2"/>
	</g>
	<g>
		<circle class="st10" cx="25.2" cy="28.6" r="1.2"/>
	</g>
	<g>
		
			<rect x="23.2" y="23.2" transform="matrix(0.7063 -0.7079 0.7079 0.7063 -8.0633 28.2141)" class="st10" width="13.6" height="1.2"/>
	</g>
	<g>
		<path class="st10" d="M25.2,35.5c-3.8,0-6.8-3.1-6.8-6.8s3.1-6.8,6.8-6.8c1.2,0,2.4,0.3,3.5,0.9l-0.6,1c-0.9-0.5-1.9-0.8-2.9-0.8
			c-3.1,0-5.7,2.5-5.7,5.7s2.5,5.7,5.7,5.7s5.7-2.5,5.7-5.7c0-1-0.3-2.1-0.8-3l1-0.6c0.7,1.1,1,2.3,1,3.6
			C32,32.4,28.9,35.5,25.2,35.5z"/>
	</g>
	<g>
		<path class="st10" d="M25.2,33c-2.4,0-4.4-2-4.4-4.4c0-2.4,2-4.4,4.4-4.4c0.6,0,1.1,0.1,1.7,0.3l-0.4,1.1
			c-0.4-0.2-0.8-0.2-1.2-0.2c-1.8,0-3.2,1.4-3.2,3.2s1.5,3.2,3.2,3.2c1.8,0,3.2-1.5,3.2-3.2c0-0.5-0.1-1-0.3-1.4l1-0.5
			c0.3,0.6,0.4,1.2,0.4,1.9C29.6,31.1,27.6,33,25.2,33z"/>
	</g>
	<g>
		<rect x="32.3" y="20.8" class="st10" width="2.9" height="1.2"/>
	</g>
	<g>
		
			<rect x="31" y="19.4" transform="matrix(3.257312e-03 -1 1 3.257312e-03 12.3869 52.3834)" class="st10" width="2.9" height="1.2"/>
	</g>
</g>
</svg>
