<svg width="36" height="36" viewBox="0 0 36 36" fill="none" xmlns="http://www.w3.org/2000/svg">
<path d="M14.61 17.85C14.6059 17.3293 14.7259 16.8151 14.96 16.35L12.22 14.77C11.4939 16.1304 11.2743 17.7044 11.6003 19.2115C11.9262 20.7187 12.7766 22.0612 14 23L15.88 20.46C15.485 20.149 15.1656 19.7527 14.9457 19.3007C14.7257 18.8486 14.611 18.3527 14.61 17.85Z" fill="white"/>
<path d="M18 14.51C18.4279 14.5122 18.8517 14.5936 19.25 14.75L20.54 11.86C19.0965 11.2527 17.4826 11.1853 15.9935 11.67C14.5043 12.1548 13.2394 13.1593 12.43 14.5L15.16 16.08C15.4616 15.5991 15.8804 15.2028 16.3772 14.9282C16.874 14.6535 17.4324 14.5097 18 14.51Z" fill="white"/>
<path d="M21.28 17.69H24.44C24.4101 16.4959 24.0518 15.3332 23.4044 14.3294C22.7569 13.3256 21.8455 12.5197 20.77 12L19.48 14.89C19.9974 15.1602 20.4355 15.5605 20.7511 16.0514C21.0667 16.5424 21.249 17.1071 21.28 17.69Z" fill="white"/>
<path d="M18 21.18C17.3335 21.1826 16.6817 20.9839 16.13 20.61L14.2 23.15C15.1612 23.8309 16.2896 24.2374 17.4642 24.3259C18.6388 24.4144 19.8153 24.1815 20.8676 23.6522C21.92 23.123 22.8084 22.3173 23.4378 21.3216C24.0671 20.3259 24.4136 19.1776 24.44 18H21.28C21.2418 18.8483 20.881 19.65 20.2713 20.2412C19.6616 20.8323 18.8491 21.1681 18 21.18Z" fill="white"/>
<path d="M12.08 14.69L9.10999 13C8.84121 13.4763 8.61371 13.9748 8.42999 14.49L11.67 15.65C11.7848 15.3211 11.9218 15.0004 12.08 14.69Z" fill="white"/>
<path d="M11.29 17.85H7.84998C7.85689 19.4012 8.22137 20.93 8.91511 22.3174C9.60884 23.7049 10.6131 24.9137 11.85 25.85L13.85 23.08C13.0534 22.4605 12.4087 21.6674 11.9651 20.7611C11.5214 19.8547 11.2905 18.8591 11.29 17.85Z" fill="white"/>
<path d="M11.57 15.91L8.32998 14.76C8.04185 15.6599 7.88031 16.5956 7.84998 17.54H11.3C11.3223 16.9876 11.413 16.4401 11.57 15.91Z" fill="white"/>
<path d="M18 11.19H18.24V7.75999H18C16.2451 7.7638 14.5216 8.2257 13 9.09999L14.69 12C15.7037 11.4458 16.8449 11.1665 18 11.19Z" fill="white"/>
<path d="M14.42 12.2L12.66 9.2C12.1063 9.54221 11.5872 9.9374 11.11 10.38L13.53 12.83C13.8102 12.5976 14.1077 12.387 14.42 12.2Z" fill="white"/>
<path d="M9.26001 12.7L12.26 14.42C12.553 13.9288 12.9094 13.4782 13.32 13.08L10.9 10.63C10.2684 11.2482 9.71738 11.9437 9.26001 12.7Z" fill="white"/>
<path d="M20.55 11.72L22 8.58C21.3558 8.31604 20.6854 8.12161 20 8L19.41 11.4C19.7989 11.472 20.1804 11.5791 20.55 11.72Z" fill="white"/>
<path d="M19.14 11.3L19.72 7.90999C19.32 7.83999 18.91 7.78999 18.5 7.75999V11.21C18.71 11.23 18.93 11.26 19.14 11.3Z" fill="white"/>
<path d="M23.72 21.16L26.6 23.05C26.8396 22.649 27.0502 22.2312 27.23 21.8L24.06 20.48C23.9587 20.7125 23.8452 20.9395 23.72 21.16Z" fill="white"/>
<path d="M14.11 23.28L12.11 26.05C12.7632 26.5216 13.4718 26.9112 14.22 27.21L15.35 24C14.9106 23.808 14.4945 23.5665 14.11 23.28Z" fill="white"/>
<path d="M28 18H24.6C24.5808 18.7522 24.4355 19.4959 24.17 20.2L27.35 21.52C27.7751 20.3949 27.9953 19.2027 28 18Z" fill="white"/>
<path d="M15.64 24.09L14.47 27.33C14.9071 27.4882 15.3549 27.6152 15.81 27.71L16.43 24.33C16.161 24.2698 15.897 24.1896 15.64 24.09Z" fill="white"/>
<path d="M18 24.5C17.5906 24.5044 17.1819 24.4676 16.78 24.39L16.16 27.77C18.1286 28.1356 20.1615 27.9067 21.9995 27.1124C23.8375 26.318 25.3973 24.9943 26.48 23.31L23.61 21.43C23.0082 22.372 22.1788 23.147 21.1982 23.6836C20.2177 24.2202 19.1177 24.501 18 24.5Z" fill="white"/>
<path d="M24.6 17.69H28C28 17.35 28 17.01 27.93 16.69L24.52 17.13C24.556 17.3152 24.5827 17.5021 24.6 17.69Z" fill="white"/>
<path d="M24.52 16.81L27.93 16.37C27.821 15.617 27.6264 14.8789 27.35 14.17L24.17 15.5C24.3333 15.9228 24.4506 16.362 24.52 16.81Z" fill="white"/>
<path d="M24.06 15.22L27.23 13.89C26.2591 11.6035 24.4787 9.75552 22.23 8.7L20.83 11.84C22.276 12.5445 23.4219 13.7435 24.06 15.22Z" fill="white"/>
<path d="M8.65997 27.4C9.04726 27.7858 9.46165 28.1434 9.89997 28.47L11.73 26C11.4106 25.7557 11.1067 25.4919 10.82 25.21L8.65997 27.4Z" fill="white"/>
<path d="M7.70999 17.85H4.60999C4.60638 21.3463 5.98275 24.7028 8.43999 27.19L10.6 25C8.73989 23.0855 7.70263 20.5193 7.70999 17.85Z" fill="white"/>
<path d="M27.36 13.83L30.22 12.64C29.1239 10.0817 27.2618 7.92616 24.89 6.47L23.35 9.15C25.1317 10.2656 26.5306 11.8983 27.36 13.83Z" fill="white"/>
<path d="M24.63 6.31C24.28 6.11 23.92 5.92 23.54 5.75L22.29 8.57C22.56 8.7 22.82 8.84 23.08 8.99L24.63 6.31Z" fill="white"/>
<path d="M11.26 6.31L12.85 9C13.3066 8.73335 13.785 8.50587 14.28 8.32L13.15 5.41C12.4961 5.65706 11.864 5.9581 11.26 6.31Z" fill="white"/>
<path d="M18 7.60999H18.24V4.51999H18C16.4627 4.51518 14.9364 4.77916 13.49 5.29999L14.62 8.17999C15.7064 7.80069 16.8492 7.60797 18 7.60999Z" fill="white"/>
<path d="M10.79 10.53L8.61001 8.33C8.17211 8.76141 7.76447 9.2225 7.39001 9.71L9.87002 11.56C10.1526 11.1959 10.46 10.8517 10.79 10.53Z" fill="white"/>
<path d="M6.46002 11.08L9.14002 12.63C9.31002 12.34 9.49002 12.07 9.68002 11.8L7.21002 10C6.94002 10.32 6.69002 10.69 6.46002 11.08Z" fill="white"/>
<path d="M28.18 18C28.1662 18.5706 28.106 19.1391 28 19.7L31 20.29C31.1514 19.5352 31.2417 18.7693 31.27 18H28.18Z" fill="white"/>
<path d="M27.48 21.57L30.34 22.75C30.6184 22.0492 30.8392 21.3268 31 20.59L28 20C27.8686 20.5363 27.6948 21.0613 27.48 21.57Z" fill="white"/>
<path d="M29.14 25.08L26.55 23.38C26.3291 23.7316 26.0817 24.0659 25.81 24.38L28.14 26.38C28.4972 25.9656 28.8311 25.5316 29.14 25.08Z" fill="white"/>
<path d="M18 28.08C17.3728 28.0793 16.747 28.0224 16.13 27.91L15.57 30.91C16.371 31.0627 17.1846 31.1397 18 31.14C19.8927 31.1427 21.7641 30.7408 23.4887 29.9613C25.2134 29.1817 26.7515 28.0425 28 26.62L25.67 24.62C24.712 25.7101 23.5321 26.5828 22.2092 27.1795C20.8864 27.7763 19.4512 28.0833 18 28.08Z" fill="white"/>
<path d="M28.85 9.84L31.38 8C30.0781 6.23712 28.4442 4.74581 26.57 3.61L25 6.3C26.5026 7.21671 27.8107 8.41945 28.85 9.84Z" fill="white"/>
<path d="M30.4 12.56L33.32 11.34C32.8461 10.234 32.2561 9.18143 31.56 8.2L29 10.09C29.5521 10.8619 30.0213 11.6898 30.4 12.56Z" fill="white"/>
<path d="M16.72 4.37V1.2C15.1779 1.32482 13.6604 1.66132 12.21 2.2L13.37 5.14C14.4499 4.74371 15.5755 4.485 16.72 4.37Z" fill="white"/>
<path d="M18 4.32H18.24V1.16H18C17.69 1.16 17.38 1.16 17.08 1.16V4.35C17.33 4.33 17.64 4.32 18 4.32Z" fill="white"/>
<path d="M18 31.37C17.1749 31.3735 16.3513 31.2998 15.54 31.15L14.97 34.26C15.9598 34.44 16.9639 34.5303 17.97 34.53C18.47 34.53 18.97 34.53 19.47 34.46L19.24 31.31C18.8 31.35 18.38 31.37 18 31.37Z" fill="white"/>
<path d="M19.53 31.28L19.75 34.43C23.89 33.9894 27.7129 32.0083 30.46 28.88L28.09 26.8C25.8865 29.2974 22.838 30.8929 19.53 31.28Z" fill="white"/>
<path d="M4.42002 17.85H1.26002C1.25854 19.0948 1.39605 20.3358 1.67002 21.55L4.77002 20.92C4.53572 19.9135 4.41828 18.8834 4.42002 17.85Z" fill="white"/>
<path d="M4.84 21.22L1.75 21.85C2.47313 24.7738 3.97261 27.448 6.09 29.59L8.3 27.33C6.63285 25.6305 5.43993 23.5239 4.84 21.22Z" fill="white"/>
</svg>
