<?xml version="1.0" encoding="utf-8"?>
<!-- Generator: Adobe Illustrator 25.0.0, SVG Export Plug-In . SVG Version: 6.00 Build 0)  -->
<svg version="1.1" id="Layer_1" xmlns="http://www.w3.org/2000/svg" xmlns:xlink="http://www.w3.org/1999/xlink" x="0px" y="0px"
	 viewBox="0 0 36 36" style="enable-background:new 0 0 36 36;" xml:space="preserve">
<style type="text/css">
	.st0{fill:#CB1618;}
	.st1{fill:#185ABD;}
	.st2{fill:#D83039;}
	.st3{fill:#103F91;}
	.st4{fill:#185C37;}
	.st5{fill:#33C481;}
	.st6{fill:#107C41;}
	.st7{fill:#21A366;}
	.st8{fill:#0B4A99;}
	.st9{fill:none;}
	.st10{fill:#FFFFFF;}
	.st11{fill:#41A5EE;}
	.st12{fill:#2B7CD3;}
	.st13{opacity:0.5;enable-background:new    ;}
	.st14{fill:url(#SVGID_1_);}
	.st15{fill:url(#SVGID_2_);}
	.st16{fill:url(#SVGID_3_);}
	.st17{fill:url(#SVGID_4_);}
	.st18{fill:#E24951;}
	.st19{fill-rule:evenodd;clip-rule:evenodd;}
	.st20{fill:#262625;}
	.st21{fill:none;stroke:#000000;stroke-width:0.75;stroke-miterlimit:10;}
	.st22{fill:none;stroke:#000000;stroke-width:1.2;stroke-miterlimit:10;}
	.st23{fill-rule:evenodd;clip-rule:evenodd;fill:#FFFFFF;}
	.st24{fill:none;stroke:#0071C5;stroke-width:1.3;stroke-linecap:round;stroke-miterlimit:10;}
	.st25{fill:none;stroke:#F0AB00;stroke-width:1.3;stroke-miterlimit:10;}
	.st26{fill:none;stroke:#1C55A6;stroke-width:1.3;stroke-linecap:round;}
	.st27{fill-rule:evenodd;clip-rule:evenodd;fill:none;stroke:#1C55A6;stroke-width:1.3;stroke-linecap:round;}
	.st28{fill:none;stroke:#1C55A6;stroke-width:1.3;stroke-linecap:round;stroke-miterlimit:10;}
	.st29{fill:#FFFFFF;stroke:#231F20;}
	.st30{fill:none;stroke:#0B4A99;stroke-width:1.3;stroke-miterlimit:10;}
</style>
<g>
	<g>
		<path class="st10" d="M18.2,30.1c-5.7,0-10.3-4.6-10.3-10.3S12.6,9.5,18.2,9.5s10.3,4.6,10.3,10.3S23.9,30.1,18.2,30.1z
			 M18.2,10.7c-5,0-9.1,4.1-9.1,9.1s4.1,9.1,9.1,9.1s9.1-4.1,9.1-9.1S23.3,10.7,18.2,10.7z"/>
	</g>
	<g>
		<path class="st10" d="M14.8,8.5c-2.2,0-4-1.8-4-4c0-2.2,1.8-4,4-4c2.2,0,4,1.8,4,4C18.8,6.7,17,8.5,14.8,8.5z M14.8,1.7
			C13.2,1.7,12,3,12,4.5c0,1.5,1.3,2.8,2.8,2.8c1.5,0,2.8-1.3,2.8-2.8C17.6,3,16.3,1.7,14.8,1.7z"/>
	</g>
	<g>
		<path class="st10" d="M30.8,35.2c-2.2,0-4-1.8-4-4c0-2.2,1.8-4,4-4s4,1.8,4,4C34.8,33.4,33,35.2,30.8,35.2z M30.8,28.5
			c-1.5,0-2.8,1.3-2.8,2.8c0,1.5,1.3,2.8,2.8,2.8s2.8-1.3,2.8-2.8C33.6,29.7,32.4,28.5,30.8,28.5z"/>
	</g>
	<g>
		<path class="st10" d="M32.6,19.2c-1.9,0-3.4-1.5-3.4-3.4c0-1.9,1.5-3.4,3.4-3.4c1.9,0,3.4,1.5,3.4,3.4
			C36,17.7,34.5,19.2,32.6,19.2z M32.6,13.5c-1.2,0-2.3,1-2.3,2.3c0,1.2,1,2.3,2.3,2.3c1.2,0,2.3-1,2.3-2.3
			C34.8,14.5,33.8,13.5,32.6,13.5z"/>
	</g>
	<g>
		<path class="st10" d="M17.2,35.5c-1.3,0-2.4-1.1-2.4-2.4c0-1.3,1.1-2.4,2.4-2.4s2.4,1.1,2.4,2.4C19.6,34.4,18.5,35.5,17.2,35.5z
			 M17.2,31.8c-0.7,0-1.2,0.6-1.2,1.2s0.6,1.2,1.2,1.2s1.2-0.6,1.2-1.2S17.9,31.8,17.2,31.8z"/>
	</g>
	<g>
		<path class="st10" d="M3,20.9c-1.6,0-3-1.3-3-3c0-1.6,1.3-3,3-3c1.6,0,3,1.3,3,3C5.9,19.6,4.6,20.9,3,20.9z M3,16.2
			c-1,0-1.8,0.8-1.8,1.8c0,1,0.8,1.8,1.8,1.8S4.8,19,4.8,18C4.8,17,4,16.2,3,16.2z"/>
	</g>
	<g>
		<path class="st10" d="M19.2,27.5h-2c-0.4,0-0.7-0.3-0.7-0.7v-1c-0.5-0.1-0.8-0.3-1.2-0.5l-0.8,0.8c-0.3,0.3-0.8,0.3-1.1,0L12,24.7
			c-0.3-0.3-0.3-0.8,0-1.1l0.8-0.8c-0.2-0.4-0.3-0.7-0.4-1.1l0-0.1h-1c-0.4,0-0.7-0.3-0.7-0.7v-2c0-0.4,0.3-0.7,0.7-0.7h1
			c0.1-0.5,0.3-0.8,0.5-1.2L12,16.1c-0.3-0.3-0.3-0.8,0-1.1l1.4-1.4c0.3-0.3,0.8-0.3,1.1,0l0.8,0.8c0.3-0.2,0.7-0.3,1.1-0.4l0.2,0
			v-1c0-0.4,0.3-0.7,0.7-0.7h2c0.4,0,0.7,0.3,0.7,0.7v1c0.5,0.1,0.8,0.3,1.2,0.5l0.8-0.8c0.2-0.2,0.4-0.2,0.5-0.2
			c0.1,0,0.3,0,0.5,0.2l1.4,1.4c0.3,0.3,0.3,0.8,0,1.1l-0.8,0.8c0.2,0.4,0.3,0.8,0.4,1.1l0,0.1h1c0.4,0,0.6,0.2,0.8,0.4
			c0.1,0.2,0.1,0.3,0,0.5v1.9c0,0.4-0.3,0.7-0.7,0.7h-1c-0.1,0.5-0.3,0.8-0.5,1.2l0.8,0.8c0.3,0.3,0.3,0.8,0,1.1l-1.4,1.4
			c-0.2,0.2-0.4,0.2-0.5,0.2c-0.1,0-0.3,0-0.5-0.2l-0.8-0.8c-0.4,0.2-0.7,0.3-1.1,0.4l-0.1,0v1C20,27.1,19.6,27.5,19.2,27.5z
			 M17.4,26.5H19v-0.9c0-0.4,0.3-0.7,0.6-0.7l0.2-0.1c0.3-0.1,0.7-0.2,0.9-0.4c0.1-0.1,0.4-0.2,0.7-0.1h0.2l0.1,0.1l0.7,0.7l1.1-1.1
			l-0.7-0.7c-0.3-0.3-0.3-0.8,0-1.1c0.2-0.2,0.3-0.6,0.4-1c0-0.4,0.4-0.7,0.7-0.7h0.9V19H24c-0.4,0-0.7-0.3-0.7-0.6l-0.1-0.2
			c-0.1-0.3-0.2-0.7-0.4-0.9c-0.1-0.1-0.2-0.4-0.1-0.7v-0.2l0.1-0.1l0.7-0.7l-1.1-1.1l-0.7,0.7c-0.2,0.2-0.4,0.2-0.5,0.2h0
			c-0.1,0-0.3,0-0.5-0.2c-0.2-0.2-0.6-0.3-1-0.4c-0.4,0-0.7-0.4-0.7-0.7v-0.9h-1.6v0.9c0,0.4-0.3,0.7-0.6,0.7l-0.2,0.1
			c-0.3,0.1-0.6,0.2-0.9,0.4c-0.2,0.2-0.4,0.2-0.7,0.1h-0.2l-0.1-0.1l-0.7-0.7l-1.1,1.1l0.7,0.7c0.3,0.3,0.3,0.8,0,1.1
			c-0.2,0.2-0.3,0.6-0.4,1c0,0.4-0.4,0.7-0.7,0.7h-0.9v1.6h0.9c0.4,0,0.7,0.3,0.7,0.6l0.1,0.2c0.1,0.3,0.2,0.7,0.4,0.9
			c0.1,0.1,0.2,0.4,0.1,0.7v0.2l-0.1,0.1l-0.7,0.7l1.1,1.1l0.7-0.7c0.2-0.2,0.4-0.2,0.5-0.2c0.1,0,0.3,0,0.5,0.2
			c0.3,0.2,0.6,0.3,1.1,0.4c0.4,0,0.7,0.4,0.7,0.7V26.5z M23.6,22.9C23.6,22.9,23.6,22.9,23.6,22.9L23.6,22.9
			C23.6,22.9,23.6,22.9,23.6,22.9z M12.8,16.7L12.8,16.7L12.8,16.7L12.8,16.7z M21.3,14.4L21.3,14.4C21.3,14.4,21.3,14.4,21.3,14.4z
			 M18.2,23.8c-2.2,0-3.9-1.8-3.9-3.9s1.8-3.9,3.9-3.9s3.9,1.8,3.9,3.9C22,22.1,20.3,23.8,18.2,23.8z M18.2,16.9c-1.7,0-3,1.3-3,3
			s1.3,3,3,3c1.5,0,2.9-1.3,3-3C21.2,18.2,19.9,16.9,18.2,16.9z"/>
	</g>
	<g>
		<rect x="15.3" y="7.7" transform="matrix(0.9751 -0.2219 0.2219 0.9751 -1.6012 3.7544)" class="st10" width="1.2" height="2.6"/>
	</g>
	<g>
		
			<rect x="27.7" y="16.5" transform="matrix(0.9226 -0.3857 0.3857 0.9226 -4.3657 12.4583)" class="st10" width="2.4" height="1.2"/>
	</g>
	<g>
		
			<rect x="26.3" y="25.8" transform="matrix(0.7319 -0.6814 0.6814 0.7319 -11.682 25.7333)" class="st10" width="1.2" height="3.8"/>
	</g>
	<g>
		
			<rect x="16.3" y="29.8" transform="matrix(6.514520e-03 -1 1 6.514520e-03 -13.1604 47.4587)" class="st10" width="1.9" height="1.2"/>
	</g>
	<g>
		<rect x="6.3" y="16.7" transform="matrix(0.1338 -0.991 0.991 0.1338 -12.4129 22.8378)" class="st10" width="1.2" height="3.6"/>
	</g>
</g>
</svg>
