<svg width="36" height="36" viewBox="0 0 36 36" fill="none" xmlns="http://www.w3.org/2000/svg">
<g clip-path="url(#clip0_9_172)">
<path d="M19.3 0.899994H0.800003V18H19.3V0.899994Z" fill="white"/>
<path d="M20 18.6H0V0.100006H20V18.6ZM1.3 17.4H18.8V1.40001H1.3V17.4Z" fill="white"/>
<path d="M36 11H18.8V0.100006H36V11ZM20 9.70001H34.7V1.40001H20V9.70001Z" fill="white"/>
<path d="M28 35.9H18.8V9.70001H28V35.9ZM20 34.6H26.7V11H20V34.6Z" fill="white"/>
<path d="M36 28.2H26.8V9.70001H36V28.2ZM28 26.9H34.7V11H28V26.9Z" fill="white"/>
<path d="M36 35.9H26.8V27H36V35.9ZM28 34.6H34.7V28.2H28V34.6Z" fill="white"/>
<path d="M20 35.9H0V17.4H20V35.9ZM1.3 34.6H18.8V18.6H1.3V34.6Z" fill="white"/>
</g>
<defs>
<clipPath id="clip0_9_172">
<rect width="36" height="36" fill="white"/>
</clipPath>
</defs>
</svg>
