<?xml version="1.0" encoding="utf-8"?>
<!-- Generator: Adobe Illustrator 25.0.0, SVG Export Plug-In . SVG Version: 6.00 Build 0)  -->
<svg version="1.1" id="Layer_1" xmlns="http://www.w3.org/2000/svg" xmlns:xlink="http://www.w3.org/1999/xlink" x="0px" y="0px"
	 viewBox="0 0 36 36" style="enable-background:new 0 0 36 36;" xml:space="preserve">
<style type="text/css">
	.st0{fill:#FFFFFF;}
</style>
<g>
	<g>
		<rect x="26.2" y="5.2" class="st0" width="1.3" height="19.6"/>
	</g>
	<g>
		<rect x="1.1" y="14.4" class="st0" width="34" height="1.3"/>
	</g>
	<g>
		<g>
			<path class="st0" d="M16.4,20.1C16.1,20,15.6,20,15.1,20s-0.9,0-1.1,0.1c-0.2,0.1-0.6,0.3-1.2,0.7c-0.5,0.4-1.2,1-2.1,1.8
				c-0.9,0.8-1.6,1.6-2.3,2.4c-0.6,0.7-1.2,1.5-1.9,2.3l0,0c-0.1,0.1-0.1,0.1-0.2,0.2l0,0c-0.6,0.7-1.5,2.1-1.2,3.1v0.1
				c0.1,0.1,0.2,0.1,0.3,0.2c0.1,0,0.2,0.1,0.4,0.1c0.1,0,0.2,0,0.4,0c0.6-0.1,1.2-0.3,1.8-0.5c0.1-0.1,0.2-0.2,0.3-0.3l0,0
				c1-1.5,2.3-3.1,3.8-4.7c1.5-1.5,2.9-2.7,4.1-3.5c0.3-0.2,0.5-0.3,0.6-0.4s0.2-0.3,0.2-0.5s0-0.4-0.1-0.6
				C16.9,20.3,16.7,20.2,16.4,20.1z"/>
		</g>
	</g>
	<g>
		<g>
			<path class="st0" d="M14.8,27.9c-0.4-0.5-0.9-1.2-1.7-2s-1.5-1.6-2.3-2.2c-0.6-0.5-1.3-1.1-2.1-1.7c0,0-0.1,0-0.1-0.1
				c-0.6-0.6-1.3-1-2.1-1.3c0,0,0,0-0.1,0c-0.3-0.1-0.7-0.1-1,0c0,0-0.1,0-0.1,0.1c-0.1,0.2-0.1,0.3-0.2,0.5v0.1c0,0.1,0,0.2,0,0.3
				c0.1,0.5,0.2,1,0.4,1.5c0.1,0.2,0.2,0.3,0.3,0.4c0,0,0.1,0,0.1,0.1c1.5,1,3,2.2,4.4,3.6c1.5,1.4,2.6,2.7,3.3,3.9
				c0.2,0.3,0.3,0.5,0.4,0.6c0.1,0.1,0.3,0.2,0.4,0.2c0.2,0,0.4,0,0.6-0.1c0.2-0.1,0.3-0.3,0.4-0.5c0.1-0.3,0.1-0.7,0.1-1.2
				s0-0.9-0.1-1.1C15.3,28.8,15.1,28.4,14.8,27.9z"/>
		</g>
	</g>
	<g>
		<polygon class="st0" points="36,25.4 19,25.4 19,24.2 34.7,24.2 34.7,5.5 1.3,5.5 1.3,24.2 2.9,24.2 2.9,25.4 0,25.4 0,4.2 
			36,4.2 		"/>
	</g>
	<g>
		<rect x="8.8" y="5" class="st0" width="1.3" height="12.8"/>
	</g>
	<g>
		<rect x="17.4" y="5" class="st0" width="1.3" height="14.9"/>
	</g>
	<g>
		<rect x="26.2" y="5" class="st0" width="1.3" height="20.1"/>
	</g>
	<g>
		<rect x="0.6" y="14.4" class="st0" width="34.7" height="1.3"/>
	</g>
</g>
</svg>
