<?xml version="1.0" encoding="utf-8"?>
<!-- Generator: Adobe Illustrator 25.0.0, SVG Export Plug-In . SVG Version: 6.00 Build 0)  -->
<svg version="1.1" id="Layer_1" xmlns="http://www.w3.org/2000/svg" xmlns:xlink="http://www.w3.org/1999/xlink" x="0px" y="0px"
	 viewBox="0 0 36 36" style="enable-background:new 0 0 36 36;" xml:space="preserve">
<style type="text/css">
	.st0{fill:#CB1618;}
	.st1{fill:#185ABD;}
	.st2{fill:#D83039;}
	.st3{fill:#103F91;}
	.st4{fill:#185C37;}
	.st5{fill:#33C481;}
	.st6{fill:#107C41;}
	.st7{fill:#21A366;}
	.st8{fill:#0B4A99;}
	.st9{fill:none;}
	.st10{fill:#FFFFFF;}
	.st11{fill:#41A5EE;}
	.st12{fill:#2B7CD3;}
	.st13{opacity:0.5;enable-background:new    ;}
	.st14{fill:url(#SVGID_1_);}
	.st15{fill:url(#SVGID_2_);}
	.st16{fill:url(#SVGID_3_);}
	.st17{fill:url(#SVGID_4_);}
	.st18{fill:#E24951;}
	.st19{fill-rule:evenodd;clip-rule:evenodd;}
	.st20{fill:#262625;}
	.st21{fill:none;stroke:#000000;stroke-width:0.75;stroke-miterlimit:10;}
	.st22{fill:none;stroke:#000000;stroke-width:1.2;stroke-miterlimit:10;}
	.st23{fill-rule:evenodd;clip-rule:evenodd;fill:#FFFFFF;}
	.st24{fill:none;stroke:#0071C5;stroke-width:1.3;stroke-linecap:round;stroke-miterlimit:10;}
	.st25{fill:none;stroke:#F0AB00;stroke-width:1.3;stroke-miterlimit:10;}
	.st26{fill:none;stroke:#1C55A6;stroke-width:1.3;stroke-linecap:round;}
	.st27{fill-rule:evenodd;clip-rule:evenodd;fill:none;stroke:#1C55A6;stroke-width:1.3;stroke-linecap:round;}
	.st28{fill:none;stroke:#1C55A6;stroke-width:1.3;stroke-linecap:round;stroke-miterlimit:10;}
	.st29{fill:#FFFFFF;stroke:#231F20;}
	.st30{fill:none;stroke:#0B4A99;stroke-width:1.3;stroke-miterlimit:10;}
</style>
<g>
	<polygon class="st10" points="14.5,11.7 13.4,11.7 13.4,5.3 24.2,5.3 24.2,10.4 23,10.4 23,6.4 14.5,6.4 	"/>
</g>
<g>
	<path class="st10" d="M22.5,33.7c-0.2,0-0.5,0-0.8-0.1c-0.4-0.1-4.3-1.1-6.8-1.7c0,0-2.7-0.6-5.6,0.6l-0.5,0.2l-2.5-6l4.3-2.2
		c0.4-0.2,2.8-1.7,7.2-0.5c1.5,0.6,5.5,2.2,5.9,2.4c0.1,0,0.1,0,0.3,0.1c0.6,0.2,1.5,0.4,2.1,0.9v-0.6l0.4-0.2
		c0.1,0,0.3-0.1,0.7-0.1c0.7-0.1,1.8-0.4,2.4-0.6c0.5-0.2,3.7-1,5.3-0.2c0.5,0.3,0.8,0.6,0.9,1.1c0.5,1.8-5.3,4.2-10.3,6l-2,0.8
		C23.4,33.6,23,33.7,22.5,33.7z M13.2,30.6c1.2,0,2,0.2,2,0.2c0.6,0.2,6.4,1.5,6.9,1.7c0.3,0.1,0.8,0,1,0l1.9-0.8
		c5-1.7,9.4-3.9,9.6-4.6c0-0.1-0.1-0.2-0.3-0.3c-1-0.5-3.6-0.1-4.4,0.3c-0.6,0.2-1.7,0.4-2.4,0.6c0.2,0.5,0.1,1,0,1.3
		c0,0-0.8,2.7-4.7,1.7c-2.5-0.7-3.6-1.1-4.1-1.3l-0.2-0.1l0.3-1.1c0.1,0,0.4,0.1,0.7,0.1c1,0.1,2.4,0.3,3.4,0.6
		c0.9,0.3,1.7,0.3,2.2,0c0.2-0.1,0.3-0.3,0.3-0.4c0-0.1-0.1-0.4-1.8-0.9c-0.1,0-0.2-0.1-0.3-0.1c-0.5-0.2-5.4-2.2-5.9-2.4
		c-4-1.1-6.2,0.4-6.2,0.4l-3.5,1.7l1.7,4C10.9,30.8,12.2,30.6,13.2,30.6z"/>
</g>
<g>
	<path class="st10" d="M3.7,36l-0.2,0l-0.4-0.1L3,35.5l-2.8-6.7c0-0.6,0.3-0.8,0.5-0.8c0.3-0.2,1.1-0.5,1.8-0.8
		c0.8-0.4,1.5-0.7,1.8-0.9l0.2-0.1c0.1,0,0.4,0,0.7,0.2l0.1,0.1l2.9,6.8C8.3,33.8,8,34,7.8,34l-3.9,2L3.7,36z M1.5,28.9L4,34.7
		l3-1.5l-2.5-5.7c-0.4,0.2-0.9,0.4-1.5,0.7C2.4,28.4,1.8,28.7,1.5,28.9z"/>
</g>
<g>
	<polygon class="st10" points="30.3,9.7 29.1,9.7 29.1,2.9 27.2,1.2 18.6,1.2 18.6,5.2 17.4,5.2 17.4,0 27.7,0 30.3,2.4 	"/>
</g>
<g>
	<path class="st10" d="M23.5,22.6H12.6c-0.9,0-1.7-0.8-1.7-1.7v-8.3c0-0.9,0.8-1.7,1.7-1.7h10.9c0.9,0,1.7,0.8,1.7,1.7v8.3
		C25.3,21.8,24.5,22.6,23.5,22.6z M12.6,12c-0.3,0-0.6,0.3-0.6,0.6v8.3c0,0.3,0.3,0.6,0.6,0.6h10.9c0.3,0,0.6-0.3,0.6-0.6v-8.3
		c0-0.3-0.3-0.6-0.6-0.6H12.6z"/>
</g>
<g>
	<rect x="13.6" y="11.9" transform="matrix(0.5145 -0.8575 0.8575 0.5145 -5.652 19.2553)" class="st10" width="1.2" height="5.4"/>
</g>
<g>
	
		<rect x="19.1" y="14.1" transform="matrix(0.8546 -0.5193 0.5193 0.8546 -4.4466 13.5499)" class="st10" width="5.7" height="1.2"/>
</g>
<g>
	<path class="st10" d="M18.6,18.8h-1.1c-1.1,0-2-0.9-2-2v-0.5c0-1.1,0.9-2,2-2h1.1c1.1,0,2,0.9,2,2v0.5
		C20.6,17.9,19.7,18.8,18.6,18.8z M17.6,15.5c-0.5,0-0.8,0.4-0.8,0.8v0.5c0,0.5,0.4,0.8,0.8,0.8h1.1c0.5,0,0.8-0.4,0.8-0.8v-0.5
		c0-0.5-0.4-0.8-0.8-0.8H17.6z"/>
</g>
<g>
	<rect x="12.1" y="19.2" class="st10" width="9.7" height="1.2"/>
</g>
<g>
	<rect x="22.5" y="19.2" class="st10" width="1.6" height="1.2"/>
</g>
<g>
	<rect x="20" y="2.3" class="st10" width="5.7" height="1.2"/>
</g>
<g>
	<rect x="24.7" y="5.5" class="st10" width="3.4" height="1.2"/>
</g>
<g>
	<rect x="24.7" y="7.9" class="st10" width="3.4" height="1.2"/>
</g>
<g>
	<rect x="15.8" y="7.2" class="st10" width="5.7" height="1.2"/>
</g>
<g>
	<rect x="15.8" y="9.3" class="st10" width="5.7" height="1.2"/>
</g>
<g>
	<path class="st10" d="M27.8,23.6h-1v-1.1h0.7v-0.6c0-0.4,0.2-0.7,0.6-0.8c0.3-0.1,0.6-0.2,0.8-0.3c0.3-0.2,0.7-0.1,1,0.1l0.4,0.4
		l0.7-0.7l-0.4-0.4c-0.3-0.2-0.3-0.6-0.1-1c0.1-0.3,0.3-0.5,0.3-0.8c0.1-0.3,0.4-0.6,0.8-0.6h0.6v-1h-0.6c-0.4,0-0.7-0.2-0.8-0.6
		c-0.1-0.3-0.2-0.6-0.3-0.8c-0.2-0.3-0.1-0.7,0.1-1l0.4-0.4l-0.7-0.7l-0.4,0.4c-0.3,0.3-0.6,0.3-1,0.1c-0.3-0.1-0.5-0.3-0.8-0.3
		c-0.3-0.1-0.6-0.4-0.6-0.8v-0.6h-0.7v-1.1h1c0.4,0,0.8,0.4,0.8,0.8v0.7c0.2,0.1,0.4,0.2,0.6,0.3l0.5-0.5c0.2-0.2,0.4-0.2,0.6-0.2
		c0.2,0,0.4,0.1,0.6,0.2l1.1,1.1c0.3,0.3,0.3,0.8,0,1.1l-0.5,0.5c0.1,0.2,0.2,0.4,0.3,0.6h0.7c0.4,0,0.8,0.4,0.8,0.8v1.6
		c0,0.4-0.4,0.8-0.8,0.8h-0.7c-0.1,0.2-0.2,0.4-0.3,0.6l0.5,0.5c0.3,0.3,0.3,0.8,0,1.1l-1.1,1.1c-0.1,0.2-0.3,0.2-0.6,0.2
		c-0.2,0-0.4-0.1-0.6-0.2l-0.5-0.5c-0.2,0.1-0.4,0.2-0.6,0.3v0.7C28.6,23.2,28.2,23.6,27.8,23.6z M30,21.5C30,21.5,30,21.5,30,21.5
		L30,21.5z M31.3,19.4L31.3,19.4C31.3,19.4,31.3,19.4,31.3,19.4z M30,13.2C30,13.2,30,13.2,30,13.2L30,13.2z"/>
</g>
<g>
	<path class="st10" d="M27,20.2c-0.1,0-0.1,0-0.2,0l0-1.1l0.1,0c0,0,0,0,0,0c1,0,1.8-0.8,1.8-1.8c0-1-0.8-1.8-1.8-1.8l-0.1,0
		l-0.1-1.1l0,0.6l0-0.6c0.1,0,0.1,0,0.2,0c1.6,0,2.9,1.3,2.9,2.9S28.6,20.2,27,20.2z"/>
</g>
</svg>
