<svg width="36" height="36" viewBox="0 0 36 36" fill="none" xmlns="http://www.w3.org/2000/svg">
<g clip-path="url(#clip0_9_181)">
<path d="M23.7 8.39999H20.1V25.4H23.7V8.39999Z" fill="white"/>
<path d="M36 36H0V0.700012H1.2V34.8H36V36Z" fill="white"/>
<path d="M7.2 32.5H2.5V24.6H7.2V32.5ZM3.5 31.5H6.2V25.6H3.5V31.5Z" fill="white"/>
<path d="M12.8 24.7H8.10001V16.4H12.8V24.7ZM9.10001 23.7H11.8V17.4H9.10001V23.7Z" fill="white"/>
<path d="M18.6 16.5H13.9V8H18.6V16.5ZM14.9 15.5H17.6V9H14.9V15.5Z" fill="white"/>
<path d="M24.2 25.9H19.5V8H24.2V25.9ZM20.5 24.9H23.2V9H20.5V24.9Z" fill="white"/>
<path d="M29.9 31.3H25.2V25.8H29.9V31.3ZM26.2 30.3H28.9V26.8H26.2V30.3Z" fill="white"/>
<path d="M35.6 33.9H31V31.2H35.7V33.9H35.6ZM32 32.9H34.7V32.2H32V32.9Z" fill="white"/>
<path d="M9.69999 24.6H5.79999V24.7H9.69999V24.6Z" fill="white"/>
<path d="M15.1 16.4H11.2V16.5H15.1V16.4Z" fill="white"/>
<path d="M27 25.8H23.1V25.9H27V25.8Z" fill="white"/>
<path d="M32.9 31.2H29V31.3H32.9V31.2Z" fill="white"/>
<path d="M21.7 8H17.8V8.1H21.7V8Z" fill="white"/>
</g>
<defs>
<clipPath id="clip0_9_181">
<rect width="36" height="36" fill="white"/>
</clipPath>
</defs>
</svg>
