<?xml version="1.0" encoding="utf-8"?>
<!-- Generator: Adobe Illustrator 25.0.0, SVG Export Plug-In . SVG Version: 6.00 Build 0)  -->
<svg version="1.1" id="Layer_1" xmlns="http://www.w3.org/2000/svg" xmlns:xlink="http://www.w3.org/1999/xlink" x="0px" y="0px"
	 viewBox="0 0 36 36" style="enable-background:new 0 0 36 36;" xml:space="preserve">
<style type="text/css">
	.st0{enable-background:new    ;}
	.st1{fill:#FFFFFF;}
</style>
<g>
	<g class="st0">
		<path class="st1" d="M13.2,29.5h-1.7l-1.1-2c0-0.1-0.1-0.2-0.1-0.4h0c0,0.1-0.1,0.2-0.1,0.4l-1.1,2H7.4l2-3.1l-1.8-3.1h1.7
			l0.9,1.9c0.1,0.1,0.1,0.3,0.2,0.5h0c0-0.1,0.1-0.3,0.2-0.5l1-1.9h1.6l-1.9,3.1L13.2,29.5z"/>
		<path class="st1" d="M21.1,29.5h-1.4v-3.8c0-0.4,0-0.9,0.1-1.3h0c-0.1,0.4-0.1,0.7-0.2,0.8l-1.5,4.3h-1.2l-1.5-4.2
			c0-0.1-0.1-0.4-0.2-0.9h0c0,0.6,0.1,1.2,0.1,1.6v3.5h-1.3v-6.3H16l1.3,3.7c0.1,0.3,0.2,0.6,0.2,0.9h0c0.1-0.3,0.2-0.6,0.2-0.9
			l1.3-3.7h2V29.5z"/>
		<path class="st1" d="M26.3,29.5h-3.7v-6.3h1.4v5.1h2.3V29.5z"/>
	</g>
	<g>
		<polygon class="st1" points="31.4,36 4.5,36 4.5,31 5.8,31 5.8,34.7 30.1,34.7 30.1,31 31.4,31 		"/>
	</g>
	<g>
		<polygon class="st1" points="5.8,21.7 4.5,21.7 4.5,0 25.1,0 31.4,7.6 31.4,21.5 30.1,21.5 30.1,8.1 24.5,1.3 5.8,1.3 		"/>
	</g>
	<g>
		<polygon class="st1" points="30.6,8.3 24.2,8.3 24.2,0.6 25.5,0.6 25.5,7 30.6,7 		"/>
	</g>
	<g>
		<rect x="9.4" y="8.7" class="st1" width="11.4" height="1.3"/>
	</g>
	<g>
		<rect x="9.4" y="12.8" class="st1" width="16.5" height="1.3"/>
	</g>
	<g>
		<rect x="9.4" y="16.9" class="st1" width="16.5" height="1.3"/>
	</g>
	<g>
		<path class="st1" d="M34.1,31.6H1.9V21h32.1V31.6z M3.2,30.3h29.5v-8H3.2V30.3z"/>
	</g>
</g>
</svg>
