<?xml version="1.0" encoding="utf-8"?>
<!-- Generator: Adobe Illustrator 25.0.0, SVG Export Plug-In . SVG Version: 6.00 Build 0)  -->
<svg version="1.1" id="_x31__x2C_5" xmlns="http://www.w3.org/2000/svg" xmlns:xlink="http://www.w3.org/1999/xlink" x="0px"
	 y="0px" viewBox="0 0 512 512" style="enable-background:new 0 0 512 512;" xml:space="preserve">
<style type="text/css">
	.st0{fill:#A8A240;}
	.st1{fill:#F0AB00;}
	.st2{fill:#40875E;}
</style>
<path class="st0" d="M432,410.24H96c-52.95,0-96-43.05-96-96c0-41.12,26.4-77.39,64.38-90.66C69.86,149.14,132.18,90.24,208,90.24
	c49.71,0,95.09,25.25,121.43,66.73c7.41-1.8,14.96-2.73,22.57-2.73c52.95,0,96,43.05,96,96c0,0.53,0,1.07-0.02,1.6
	c36.48,7.42,64.02,39.76,64.02,78.4C512,374.36,476.11,410.24,432,410.24z"/>
<path class="st1" d="M348.44,188.44H135.11c-21.6,0-39.11-17.51-39.11-39.11s17.51-39.11,39.11-39.11h213.33
	c21.6,0,39.11,17.51,39.11,39.11S370.05,188.44,348.44,188.44z"/>
<path class="st1" d="M348.44,344.89H135.11c-21.6,0-39.11-17.51-39.11-39.11c0-21.6,17.51-39.11,39.11-39.11h213.33
	c21.6,0,39.11,17.51,39.11,39.11C387.56,327.38,370.05,344.89,348.44,344.89z"/>
<path class="st1" d="M416,402.42c0,7.47-6.16,13.58-13.68,13.58H251.9c-7.52,0-13.68-6.12-13.68-13.58c0-2.57,0.68-5.02,2.05-7.05
	l75.21-122.18c2.32-3.94,6.7-6.51,11.62-6.51s9.3,2.57,11.62,6.51l75.21,122.18C415.32,397.4,416,399.84,416,402.42L416,402.42z"/>
<path class="st1" d="M270.22,402.42c0-2.57,0.68-5.02,2.05-7.05l70.84-115.07l-4.38-7.11c-2.32-3.94-6.7-6.51-11.62-6.51
	s-9.3,2.57-11.62,6.51l-75.22,122.18c-1.37,2.03-2.05,4.48-2.05,7.05c0,7.47,6.16,13.58,13.68,13.58h32
	C276.38,416,270.22,409.88,270.22,402.42L270.22,402.42z"/>
<path class="st2" d="M348.44,199.11H135.11c-27.45,0-49.78-22.33-49.78-49.78s22.33-49.78,49.78-49.78h213.33
	c27.45,0,49.78,22.33,49.78,49.78S375.89,199.11,348.44,199.11z M135.11,120.89c-15.69,0-28.44,12.76-28.44,28.44
	s12.76,28.44,28.44,28.44h213.33c15.69,0,28.44-12.76,28.44-28.44s-12.76-28.44-28.44-28.44H135.11z"/>
<circle class="st2" cx="156.44" cy="149.33" r="14.22"/>
<circle class="st2" cx="213.33" cy="149.33" r="14.22"/>
<path class="st2" d="M259.56,277.33H135.11c-27.45,0-49.78-22.33-49.78-49.78c0-13.21,5.36-26.04,14.71-35.21
	c9.03-9.2,21.86-14.56,35.07-14.56h213.33c27.45,0,49.78,22.33,49.78,49.78c0,11.16-3.58,21.65-10.37,30.34l-16.81-13.17
	c3.84-4.88,5.85-10.81,5.85-17.17c0-15.69-12.76-28.44-28.44-28.44H135.11c-7.62,0-14.72,2.96-19.98,8.32
	c-5.5,5.4-8.46,12.5-8.46,20.12c0,15.69,12.76,28.44,28.44,28.44h124.44V277.33z"/>
<circle class="st2" cx="156.44" cy="227.56" r="14.22"/>
<circle class="st2" cx="213.33" cy="227.56" r="14.22"/>
<path class="st2" d="M216.89,355.56h-81.78c-27.45,0-49.78-22.33-49.78-49.78c0-13.21,5.36-26.04,14.71-35.21
	c9.03-9.2,21.86-14.56,35.07-14.56h115.91v21.33H135.11c-7.62,0-14.72,2.96-19.98,8.32c-5.5,5.4-8.46,12.5-8.46,20.12
	c0,15.69,12.76,28.44,28.44,28.44h81.78V355.56z"/>
<circle class="st2" cx="156.44" cy="305.78" r="14.22"/>
<circle class="st2" cx="213.33" cy="305.78" r="14.22"/>
<path class="st2" d="M402.32,426.67H251.9c-13.43,0-24.35-10.88-24.35-24.23c0-4.76,1.34-9.26,3.87-13.03l74.97-121.81
	c4.2-7.1,12.16-11.59,20.72-11.59s16.53,4.49,20.81,11.76l75.11,122c2.3,3.41,3.64,7.91,3.64,12.67
	C426.67,415.79,415.74,426.67,402.32,426.67z M327.11,277.33c-1.25,0-2.09,0.68-2.45,1.27l-75.78,123.83c0,1.56,1.38,2.9,3.02,2.9
	h150.41c1.64,0,3.02-1.34,3.02-2.9c0-0.47-0.09-0.9-0.24-1.11l-75.45-122.54C329.2,278.02,328.36,277.33,327.11,277.33
	L327.11,277.33z"/>
<path d="M316.44,312.89h21.33v49.78h-21.33V312.89z"/>
<circle cx="327.11" cy="387.56" r="10.67"/>
</svg>
