<?xml version="1.0" encoding="utf-8"?>
<!-- Generator: Adobe Illustrator 25.0.0, SVG Export Plug-In . SVG Version: 6.00 Build 0)  -->
<svg version="1.1" id="Layer_1" xmlns="http://www.w3.org/2000/svg" xmlns:xlink="http://www.w3.org/1999/xlink" x="0px" y="0px"
	 viewBox="0 0 18 18" style="enable-background:new 0 0 18 18;" xml:space="preserve">
<style type="text/css">
	.st0{fill:#0B4A99;}
	.st1{fill:none;stroke:#0B4A99;stroke-width:0.75;stroke-linecap:round;stroke-miterlimit:10;}
</style>
<g>
	<path class="st0" d="M0,5.4C0,5.2,0.2,5,0.4,5h17.3C17.8,5,18,5.2,18,5.4s-0.2,0.4-0.4,0.4H0.4C0.2,5.8,0,5.6,0,5.4z"/>
	<path class="st0" d="M2,8.2C2,8,2.2,7.9,2.4,7.9h13.2C15.8,7.9,16,8,16,8.2s-0.2,0.4-0.4,0.4H2.4C2.2,8.6,2,8.4,2,8.2z"/>
	<path class="st0" d="M4.1,11.1c0-0.2,0.2-0.4,0.4-0.4h9.1c0.2,0,0.4,0.2,0.4,0.4c0,0.2-0.2,0.4-0.4,0.4H4.4
		C4.2,11.5,4.1,11.3,4.1,11.1z"/>
	<path class="st0" d="M6.1,14.1c0-0.2,0.2-0.4,0.4-0.4h5.1c0.2,0,0.4,0.2,0.4,0.4s-0.2,0.4-0.4,0.4H6.5C6.3,14.5,6.1,14.3,6.1,14.1z
		"/>
</g>
</svg>
