<?xml version="1.0" encoding="utf-8"?>
<!-- Generator: Adobe Illustrator 25.0.0, SVG Export Plug-In . SVG Version: 6.00 Build 0)  -->
<svg version="1.1" id="Layer_1" xmlns="http://www.w3.org/2000/svg" xmlns:xlink="http://www.w3.org/1999/xlink" x="0px" y="0px"
	 viewBox="0 0 18 18" style="enable-background:new 0 0 18 18;" xml:space="preserve">
<style type="text/css">
	.st0{fill:#0B4A99;}
	.st1{fill:none;stroke:#0B4A99;stroke-width:0.8;stroke-linecap:round;stroke-miterlimit:10;}
</style>
<g>
	<path class="st0" d="M9.2,12.6c0-0.2,0.2-0.4,0.4-0.4h7.1c0.2,0,0.4,0.2,0.4,0.4S16.9,13,16.7,13H9.6C9.4,13,9.2,12.8,9.2,12.6z"/>
	<path class="st0" d="M13.3,8.7c0.2,0,0.4,0.2,0.4,0.4v7.1c0,0.2-0.2,0.4-0.4,0.4S13,16.4,13,16.2V9.1C13,8.9,13.1,8.7,13.3,8.7z"/>
	<g>
		<path class="st0" d="M10.2,17.3H3.8C2.3,17.3,1,16,1,14.5V5.9l5.3-5.2h5.3c1.6,0,2.8,1.3,2.8,2.8v3.2h-0.7V3.5
			c0-1.2-1-2.1-2.1-2.1h-5L1.7,6.2v8.2c0,1.2,1,2.1,2.1,2.1h6.4V17.3z"/>
	</g>
	<g>
		<polygon class="st0" points="6.8,6.4 1.3,6.4 1.3,5.7 6.1,5.7 6.1,1 6.8,1 		"/>
	</g>
</g>
</svg>
