<?xml version="1.0" encoding="utf-8"?>
<!-- Generator: Adobe Illustrator 25.0.0, SVG Export Plug-In . SVG Version: 6.00 Build 0)  -->
<svg version="1.1" id="Layer_1" xmlns="http://www.w3.org/2000/svg" xmlns:xlink="http://www.w3.org/1999/xlink" x="0px" y="0px"
	 viewBox="0 0 36 36" style="enable-background:new 0 0 36 36;" xml:space="preserve">
<style type="text/css">
	.st0{fill:#CB1618;}
	.st1{fill:#185ABD;}
	.st2{fill:#D83039;}
	.st3{fill:#103F91;}
	.st4{fill:#185C37;}
	.st5{fill:#33C481;}
	.st6{fill:#107C41;}
	.st7{fill:#21A366;}
	.st8{fill:#0B4A99;}
	.st9{fill:none;}
	.st10{fill:#FFFFFF;}
	.st11{fill:#41A5EE;}
	.st12{fill:#2B7CD3;}
	.st13{opacity:0.5;enable-background:new    ;}
	.st14{fill:url(#SVGID_1_);}
	.st15{fill:url(#SVGID_2_);}
	.st16{fill:url(#SVGID_3_);}
	.st17{fill:url(#SVGID_4_);}
	.st18{fill:#E24951;}
	.st19{fill-rule:evenodd;clip-rule:evenodd;}
	.st20{fill:#262625;}
	.st21{fill:none;stroke:#000000;stroke-width:0.75;stroke-miterlimit:10;}
	.st22{fill:none;stroke:#000000;stroke-width:1.2;stroke-miterlimit:10;}
	.st23{fill-rule:evenodd;clip-rule:evenodd;fill:#0B4A99;}
	.st24{fill:none;stroke:#0071C5;stroke-width:1.3;stroke-linecap:round;stroke-miterlimit:10;}
	.st25{fill:none;stroke:#F0AB00;stroke-width:1.3;stroke-miterlimit:10;}
	.st26{fill:#1C55A6;}
	.st27{fill:none;stroke:#1C55A6;stroke-width:1.3;stroke-linecap:round;}
	.st28{fill-rule:evenodd;clip-rule:evenodd;fill:none;stroke:#1C55A6;stroke-width:1.3;stroke-linecap:round;}
	.st29{fill:none;stroke:#1C55A6;stroke-width:1.3;stroke-linecap:round;stroke-miterlimit:10;}
	.st30{fill:none;stroke:#231F20;}
	.st31{fill:none;stroke:#0B4A99;stroke-width:1.3;stroke-miterlimit:10;}
</style>
<g>
	<g>
		<path class="st8" d="M27.7,35.9H7.3c-4,0-7.3-3.3-7.3-7.3V8.2c0-4,3.3-7.3,7.3-7.3h13.7c0.3,0,0.6,0.3,0.6,0.6s-0.3,0.6-0.6,0.6
			H7.3C4,2.2,1.3,4.9,1.3,8.2v20.4c0,3.3,2.7,6.1,6.1,6.1h20.4c3.3,0,6.1-2.7,6.1-6.1V15.1c0-0.3,0.3-0.6,0.6-0.6
			c0.3,0,0.6,0.3,0.6,0.6v13.5C35,32.6,31.7,35.9,27.7,35.9z"/>
	</g>
	<g>
		<path class="st8" d="M29.4,13.3c-0.3,0-0.6-0.3-0.6-0.6v-12c0-0.3,0.3-0.6,0.6-0.6c0.3,0,0.6,0.3,0.6,0.6v12
			C30,13.1,29.7,13.3,29.4,13.3z"/>
	</g>
	<g>
		<path class="st8" d="M35.4,7.3h-12c-0.3,0-0.6-0.3-0.6-0.6c0-0.3,0.3-0.6,0.6-0.6h12c0.3,0,0.6,0.3,0.6,0.6
			C36,7.1,35.7,7.3,35.4,7.3z"/>
	</g>
	<g>
		<path class="st8" d="M0.6,29.2c-0.1,0-0.3,0-0.4-0.1c-0.3-0.2-0.3-0.6-0.1-0.9l6.4-7.5c0.7-0.8,1.6-1.2,2.7-1.2c0,0,0,0,0,0
			c1,0,2,0.5,2.7,1.3l2.4,2.9c0.1,0.1,0.2,0.1,0.2,0.1c0,0,0,0,0,0c0.1,0,0.2,0,0.2-0.1l4.8-5.8c0.8-0.9,1.9-1.5,3.1-1.5
			c0,0,0,0,0.1,0c1.2,0,2.3,0.5,3.1,1.4l9.1,10.4c0.2,0.3,0.2,0.7-0.1,0.9c-0.3,0.2-0.7,0.2-0.9-0.1l-9.1-10.4c-0.5-0.6-1.3-1-2.1-1
			c0,0,0,0,0,0c-0.8,0-1.6,0.4-2.2,1l-4.8,5.8C15.4,24.8,15,25,14.5,25c0,0,0,0,0,0c-0.5,0-0.9-0.2-1.2-0.6L11,21.5
			c-0.4-0.5-1-0.8-1.7-0.8c0,0,0,0,0,0c-0.7,0-1.3,0.3-1.7,0.8L1.1,29C1,29.2,0.8,29.2,0.6,29.2z"/>
	</g>
	<g>
		<path class="st8" d="M9.4,14.3c-2.3,0-4.2-1.9-4.2-4.2S7,5.9,9.4,5.9s4.2,1.9,4.2,4.2S11.7,14.3,9.4,14.3z M9.4,7.2
			c-1.6,0-3,1.3-3,3s1.3,3,3,3s3-1.3,3-3S11,7.2,9.4,7.2z"/>
	</g>
</g>
</svg>
