<?xml version="1.0" encoding="utf-8"?>
<!-- Generator: Adobe Illustrator 25.0.0, SVG Export Plug-In . SVG Version: 6.00 Build 0)  -->
<svg version="1.1" id="Layer_1" xmlns="http://www.w3.org/2000/svg" xmlns:xlink="http://www.w3.org/1999/xlink" x="0px" y="0px"
	 viewBox="0 0 36 36" style="enable-background:new 0 0 36 36;" xml:space="preserve">
<style type="text/css">
	.st0{fill:#0B4A99;}
</style>
<g>
	<g>
		<polygon class="st0" points="9.8,19.5 0,19.5 0,3.5 32.8,3.5 32.8,15.1 31.6,15.1 31.6,4.7 1.2,4.7 1.2,18.2 9.8,18.2 		"/>
	</g>
	<g>
		<path class="st0" d="M36,32.5H9.2v-18H36V32.5z M10.4,31.3h24.3V15.8H10.4V31.3z"/>
	</g>
	<g>
		<rect x="0.4" y="10.9" class="st0" width="32.1" height="1.2"/>
	</g>
	<g>
		<rect x="7.1" y="4" class="st0" width="1.2" height="15"/>
	</g>
	<g>
		<rect x="15.5" y="4" class="st0" width="1.2" height="11.4"/>
	</g>
	<g>
		<rect x="23.9" y="4" class="st0" width="1.2" height="11.4"/>
	</g>
	<g>
		<path class="st0" d="M28.1,23.2H11.5v-5.7h16.6V23.2z M12.7,22h14.2v-3.2H12.7V22z"/>
	</g>
	<g>
		<g>
			<rect x="12.2" y="26.2" class="st0" width="3.8" height="1.2"/>
		</g>
		<g>
			<rect x="17.9" y="26.2" class="st0" width="3.8" height="1.2"/>
		</g>
		<g>
			<rect x="23.5" y="26.2" class="st0" width="3.8" height="1.2"/>
		</g>
		<g>
			<rect x="29.2" y="26.2" class="st0" width="3.8" height="1.2"/>
		</g>
		<g>
			<rect x="12.2" y="28.4" class="st0" width="3.8" height="1.2"/>
		</g>
		<g>
			<rect x="17.9" y="28.4" class="st0" width="3.8" height="1.2"/>
		</g>
		<g>
			<rect x="23.5" y="28.4" class="st0" width="3.8" height="1.2"/>
		</g>
		<g>
			<rect x="29.2" y="28.4" class="st0" width="3.8" height="1.2"/>
		</g>
	</g>
</g>
</svg>
