<?xml version="1.0" encoding="utf-8"?>
<!-- Generator: Adobe Illustrator 25.0.0, SVG Export Plug-In . SVG Version: 6.00 Build 0)  -->
<svg version="1.1" id="Layer_1" xmlns="http://www.w3.org/2000/svg" xmlns:xlink="http://www.w3.org/1999/xlink" x="0px" y="0px"
	 viewBox="0 0 100 100" style="enable-background:new 0 0 100 100;" xml:space="preserve">
<style type="text/css">
	.st0{fill:#F0AB00;}
	.st1{fill:#A8A240;}
	.st2{fill:#40875E;}
	.st3{font-family:'Quicksand-Bold';}
	.st4{font-size:16px;}
</style>
<rect x="52.06" y="75.18" class="st0" width="13.31" height="14.34"/>
<rect x="68.93" y="60.33" class="st1" width="13.31" height="29.19"/>
<rect x="86.06" y="46.88" class="st2" width="12.8" height="42.64"/>
<path class="st2" d="M96.21,8.96c-2.39,0-4.34,1.95-4.34,4.34c0,0.93,0.3,1.78,0.8,2.49L70.08,37.57c-0.77-0.71-1.79-1.15-2.92-1.15
	c-0.9,0-1.73,0.27-2.42,0.74l-2.32-2.34c0.43-0.67,0.68-1.46,0.68-2.31c0-2.39-1.95-4.34-4.34-4.34s-4.34,1.95-4.34,4.34
	c0,0.83,0.25,1.61,0.66,2.27L31.94,55.76c-0.65-0.4-1.41-0.64-2.23-0.64c-2.39,0-4.34,1.95-4.34,4.34c0,2.39,1.95,4.34,4.34,4.34
	s4.34-1.95,4.34-4.34c0-0.87-0.26-1.67-0.7-2.35l23.1-20.95c0.67,0.43,1.46,0.68,2.32,0.68c0.84,0,1.61-0.25,2.28-0.66l2.39,2.41
	c-0.37,0.64-0.6,1.37-0.6,2.17c0,2.39,1.95,4.34,4.34,4.34c2.39,0,4.34-1.95,4.34-4.34c0-0.56-0.12-1.09-0.31-1.58l0.01,0.01
	l22.93-22.1c0.62,0.34,1.32,0.56,2.08,0.56c2.39,0,4.34-1.95,4.34-4.34S98.6,8.96,96.21,8.96z M29.71,61.86
	c-1.32,0-2.4-1.08-2.4-2.4c0-1.32,1.08-2.4,2.4-2.4s2.4,1.08,2.4,2.4C32.11,60.78,31.03,61.86,29.71,61.86z M56.36,32.51
	c0-1.32,1.08-2.4,2.4-2.4c1.32,0,2.4,1.08,2.4,2.4c0,1.32-1.08,2.4-2.4,2.4C57.44,34.9,56.36,33.83,56.36,32.51z M67.16,43.15
	c-1.32,0-2.4-1.08-2.4-2.4c0-1.32,1.08-2.4,2.4-2.4c1.32,0,2.4,1.08,2.4,2.4C69.56,42.08,68.48,43.15,67.16,43.15z M96.21,15.69
	c-1.32,0-2.4-1.08-2.4-2.4s1.08-2.4,2.4-2.4c1.32,0,2.4,1.08,2.4,2.4S97.53,15.69,96.21,15.69z"/>
<rect x="1.14" y="74.04" class="st1" width="7.21" height="7.21"/>
<rect x="11.71" y="75.11" class="st0" width="31.23" height="1.52"/>
<rect x="11.71" y="78.53" class="st0" width="31.23" height="1.52"/>
<rect x="1.14" y="83.45" class="st1" width="7.21" height="7.21"/>
<rect x="11.71" y="84.52" class="st0" width="31.23" height="1.52"/>
<rect x="11.71" y="87.94" class="st0" width="31.23" height="1.52"/>
<path class="st0" d="M42.19,24.01H26.83V8.64C35.31,8.64,42.19,15.52,42.19,24.01"/>
<path class="st2" d="M39.37,26.48c0,8.35-6.77,15.13-15.13,15.13c-8.35,0-15.13-6.78-15.13-15.13c0-8.35,6.78-15.13,15.13-15.13
	v15.13H39.37z"/>
<text transform="matrix(1 0 0 1 53.0965 71.0793)" class="st3 st4">V</text>
<text transform="matrix(1 0 0 1 70.8937 57.0607)" class="st3 st4">E</text>
<text transform="matrix(1 0 0 1 88.3959 43.1507)" class="st3 st4">D</text>
</svg>
