<?xml version="1.0" encoding="iso-8859-1"?>
<!-- Generator: Adobe Illustrator 19.0.0, SVG Export Plug-In . SVG Version: 6.00 Build 0)  -->
<svg version="1.1" id="Capa_1" xmlns="http://www.w3.org/2000/svg" xmlns:xlink="http://www.w3.org/1999/xlink" x="0px" y="0px"
	 viewBox="0 0 480 480" style="enable-background:new 0 0 480 480;" xml:space="preserve">
<g>
	<g>
		<path d="M240,424V288c0-4.416-3.576-8-8-8h-32c-4.424,0-8,3.584-8,8v136h-16v-48c0-4.416-3.576-8-8-8h-32c-4.424,0-8,3.584-8,8v48
			h-16V320c0-4.416-3.576-8-8-8H72c-4.424,0-8,3.584-8,8v104H32v16h40h32h32h32h32h32h40v-16H240z M96,424H80v-96h16V424z M160,424
			h-16v-40h16V424z M224,424h-16V296h16V424z"/>
	</g>
</g>
<g>
	<g>
		<path d="M207.272,109.256c-0.104-0.816-0.248-1.624-0.376-2.44c-0.448-2.984-1.048-5.912-1.792-8.792
			c-0.152-0.584-0.288-1.168-0.448-1.752c-2.032-7.232-4.96-14.08-8.664-20.432c-0.08-0.136-0.136-0.288-0.216-0.424
			c-0.12-0.208-0.28-0.392-0.408-0.6c-1.768-2.944-3.696-5.776-5.792-8.48c-0.176-0.224-0.336-0.464-0.512-0.688
			c-4.592-5.824-9.912-11.032-15.808-15.536c-0.176-0.136-0.36-0.272-0.544-0.408c-8.704-6.544-18.632-11.504-29.408-14.472
			c-0.52-0.144-1.048-0.272-1.576-0.408c-2.864-0.736-5.776-1.32-8.752-1.76c-0.784-0.12-1.552-0.264-2.336-0.36
			C127.16,32.288,123.616,32,120,32c-3.368,0-6.688,0.232-9.96,0.608c-0.768,0.088-1.52,0.24-2.288,0.352
			c-2.584,0.36-5.136,0.816-7.64,1.4c-0.744,0.176-1.48,0.376-2.216,0.568c-2.592,0.672-5.128,1.456-7.624,2.352
			c-0.576,0.208-1.16,0.416-1.728,0.632c-2.808,1.08-5.544,2.288-8.208,3.64c-0.232,0.12-0.472,0.224-0.704,0.344
			c-6.008,3.112-11.6,6.888-16.704,11.248c-0.352,0.304-0.688,0.64-1.048,0.952c-2.088,1.84-4.08,3.776-5.984,5.8
			c-0.528,0.568-1.048,1.144-1.568,1.728c-1.784,2.008-3.472,4.088-5.064,6.248c-0.256,0.352-0.56,0.656-0.816,1.008
			c-0.048,0.064-0.056,0.144-0.096,0.216C38.096,83.48,32,101.024,32,120c0,48.52,39.48,88,88,88c10.328,0,20.2-1.88,29.408-5.16
			c0.056-0.016,0.112-0.008,0.168-0.032c0.312-0.112,0.6-0.248,0.912-0.368c1.824-0.68,3.632-1.376,5.392-2.168
			c0.248-0.112,0.488-0.24,0.744-0.36c3.592-1.648,7.048-3.528,10.352-5.632c0.352-0.224,0.72-0.424,1.072-0.648
			c1.312-0.856,2.568-1.784,3.832-2.712c0.792-0.584,1.584-1.16,2.36-1.76c1.168-0.92,2.304-1.864,3.424-2.84
			c0.776-0.68,1.536-1.376,2.288-2.08c1.088-1.016,2.168-2.024,3.2-3.088c0.624-0.648,1.208-1.336,1.816-2
			c2.016-2.216,3.92-4.528,5.712-6.944c0.456-0.616,0.936-1.208,1.376-1.84c0.904-1.288,1.736-2.616,2.568-3.952
			c0.488-0.784,0.976-1.568,1.44-2.368c0.776-1.344,1.528-2.696,2.24-4.08c0.432-0.848,0.832-1.704,1.24-2.568
			c0.664-1.4,1.328-2.792,1.92-4.232c0.44-1.08,0.808-2.192,1.208-3.288c0.776-2.152,1.48-4.328,2.096-6.552
			c0.384-1.376,0.752-2.752,1.072-4.152c0.248-1.12,0.464-2.24,0.672-3.376c0.304-1.632,0.544-3.28,0.752-4.944
			c0.12-0.944,0.248-1.88,0.336-2.832c0.24-2.648,0.4-5.32,0.4-8.024C208,116.36,207.712,112.784,207.272,109.256z M67.104,71.32
			c1.336-1.456,2.728-2.848,4.176-4.176c0.368-0.336,0.728-0.672,1.104-1c1.528-1.352,3.12-2.64,4.752-3.848
			c0.312-0.232,0.624-0.48,0.944-0.712c1.776-1.272,3.608-2.464,5.488-3.576c0.216-0.128,0.424-0.264,0.632-0.384
			c2.04-1.176,4.128-2.248,6.272-3.216c0.088-0.04,0.176-0.088,0.272-0.128c2.264-1.016,4.576-1.912,6.928-2.688
			c2.36-0.776,4.76-1.432,7.2-1.96c0.024-0.008,0.048-0.016,0.072-0.016c2.312-0.496,4.656-0.864,7.024-1.136
			c0.16-0.016,0.312-0.056,0.472-0.072C114.928,48.136,117.456,48,120,48c2.712,0,5.4,0.176,8.064,0.48
			c0.536,0.056,1.048,0.168,1.584,0.24c2.192,0.304,4.376,0.672,6.52,1.176c0.432,0.104,0.856,0.224,1.288,0.336
			c2.288,0.576,4.544,1.248,6.752,2.048c0.248,0.088,0.504,0.184,0.752,0.272c10.224,3.824,19.544,9.92,27.136,17.888
			c0.032,0.032,0.056,0.064,0.088,0.096c1.8,1.888,3.48,3.904,5.08,5.992c0.088,0.12,0.176,0.232,0.264,0.352l-57.104,33.584
			L66.52,71.96C66.712,71.752,66.904,71.536,67.104,71.32z M120,192c-39.704,0-72-32.304-72-72c0-12.72,3.352-24.664,9.168-35.048
			l56.152,40.104l23.2,64.96C131.2,191.264,125.688,192,120,192z M191.336,129.264c-0.096,0.72-0.216,1.432-0.328,2.152
			c-0.44,2.712-1,5.384-1.736,8c-0.08,0.296-0.144,0.592-0.232,0.888c-0.912,3.072-2.016,6.064-3.32,8.968
			c-0.072,0.168-0.16,0.328-0.24,0.496c-1.256,2.744-2.688,5.4-4.272,7.96c-0.152,0.248-0.296,0.496-0.448,0.736
			c-3.392,5.336-7.48,10.216-12.16,14.512c-0.264,0.24-0.52,0.48-0.784,0.712c-4.776,4.256-10.144,7.92-16.008,10.816
			c-0.08,0.04-0.16,0.08-0.24,0.112l-21.816-61.072l9.632-5.664l46.288-27.224C189.832,99.88,192,109.896,192,120
			C192,123.128,191.736,126.216,191.336,129.264z"/>
	</g>
</g>
<g>
	<g>
		<rect x="240" y="120" width="136" height="16"/>
	</g>
</g>
<g>
	<g>
		<rect x="240" y="160" width="136" height="16"/>
	</g>
</g>
<g>
	<g>
		<rect x="240" y="200" width="136" height="16"/>
	</g>
</g>
<g>
	<g>
		<rect x="240" y="240" width="136" height="16"/>
	</g>
</g>
<g>
	<g>
		<path d="M392,328c-17.648,0-32,14.352-32,32s14.352,32,32,32s32-14.352,32-32S409.648,328,392,328z M392,376
			c-8.824,0-16-7.176-16-16c0-8.824,7.176-16,16-16c8.824,0,16,7.176,16,16C408,368.824,400.824,376,392,376z"/>
	</g>
</g>
<g>
	<g>
		<path d="M472,336h-12.176c-0.84-2.376-1.816-4.712-2.888-6.984l8.608-8.616c1.504-1.504,2.344-3.536,2.344-5.656
			s-0.84-4.16-2.344-5.656L448,291.544V88c0-0.168-0.088-0.32-0.096-0.488c-0.048-0.72-0.184-1.408-0.416-2.088
			c-0.088-0.248-0.152-0.488-0.256-0.728c-0.392-0.856-0.88-1.664-1.568-2.352l-80-80c-0.688-0.688-1.496-1.176-2.344-1.568
			c-0.248-0.112-0.496-0.176-0.752-0.264c-0.664-0.232-1.344-0.36-2.048-0.408C360.336,0.088,360.176,0,360,0H8C3.576,0,0,3.584,0,8
			v464c0,4.416,3.576,8,8,8h432c4.424,0,8-3.584,8-8v-43.544l17.536-17.544c1.504-1.504,2.344-3.536,2.344-5.656
			s-0.84-4.16-2.344-5.656l-8.608-8.616c1.08-2.272,2.048-4.608,2.888-6.984H472c4.424,0,8-3.584,8-8v-32
			C480,339.584,476.424,336,472,336z M368,27.312L420.688,80H368V27.312z M16,464V16h336v72c0,4.416,3.576,8,8,8h72v190.088
			c-0.136,0.12-0.264,0.248-0.4,0.376l-8.616,8.608c-2.272-1.08-4.6-2.048-6.984-2.888V280c0-4.416-3.576-8-8-8h-32
			c-4.424,0-8,3.584-8,8v12.176c-2.384,0.84-4.712,1.808-6.984,2.888l-8.616-8.608c-3.128-3.128-8.184-3.128-11.312,0
			l-22.624,22.632c-1.504,1.504-2.344,3.536-2.344,5.656s0.84,4.16,2.344,5.656l8.608,8.616c-1.08,2.272-2.048,4.608-2.888,6.984
			H312c-4.424,0-8,3.584-8,8v32c0,4.416,3.576,8,8,8h12.176c0.84,2.376,1.816,4.712,2.888,6.984l-8.608,8.616
			c-1.504,1.504-2.344,3.536-2.344,5.656s0.84,4.16,2.344,5.656l22.624,22.632c3.128,3.128,8.184,3.128,11.312,0l8.616-8.608
			c2.272,1.08,4.6,2.048,6.984,2.888V440c0,4.416,3.576,8,8,8h32c4.424,0,8-3.584,8-8v-12.176c2.384-0.84,4.712-1.808,6.984-2.888
			l8.616,8.608c0.136,0.128,0.264,0.256,0.4,0.376V464H16z M464,368h-10.096c-3.648,0-6.832,2.464-7.744,6
			c-1.312,5.072-3.32,9.92-5.968,14.4c-1.848,3.144-1.344,7.144,1.232,9.72l7.144,7.136l-11.312,11.32l-7.144-7.136
			c-2.576-2.584-6.576-3.088-9.728-1.232c-4.472,2.64-9.312,4.64-14.392,5.952c-3.52,0.904-5.992,4.096-5.992,7.744V432h-16v-10.096
			c0-3.648-2.472-6.832-6-7.744c-5.08-1.312-9.92-3.312-14.392-5.952c-3.136-1.856-7.152-1.36-9.728,1.232l-7.144,7.136
			l-11.312-11.32l7.144-7.136c2.576-2.576,3.088-6.576,1.232-9.72c-2.648-4.48-4.656-9.328-5.968-14.4c-0.912-3.536-4.088-6-7.736-6
			H320v-16h10.096c3.648,0,6.832-2.464,7.744-6c1.312-5.072,3.32-9.92,5.968-14.4c1.848-3.144,1.344-7.144-1.232-9.72l-7.144-7.136
			l11.312-11.32l7.144,7.136c2.584,2.592,6.592,3.096,9.728,1.232c4.472-2.64,9.312-4.64,14.392-5.952c3.528-0.912,6-4.096,6-7.744
			V288h16v10.096c0,3.648,2.472,6.832,6,7.744c5.08,1.312,9.92,3.312,14.392,5.952c3.136,1.856,7.144,1.352,9.728-1.232l7.144-7.136
			l11.312,11.32l-7.144,7.136c-2.576,2.576-3.088,6.576-1.232,9.72c2.648,4.48,4.656,9.328,5.968,14.4c0.912,3.528,4.096,6,7.744,6
			H464V368z"/>
	</g>
</g>
<g>
</g>
<g>
</g>
<g>
</g>
<g>
</g>
<g>
</g>
<g>
</g>
<g>
</g>
<g>
</g>
<g>
</g>
<g>
</g>
<g>
</g>
<g>
</g>
<g>
</g>
<g>
</g>
<g>
</g>
</svg>
