<?xml version="1.0" encoding="utf-8"?>
<!-- Generator: Adobe Illustrator 25.0.0, SVG Export Plug-In . SVG Version: 6.00 Build 0)  -->
<svg version="1.1" id="Layer_1" xmlns="http://www.w3.org/2000/svg" xmlns:xlink="http://www.w3.org/1999/xlink" x="0px" y="0px"
	 viewBox="0 0 16 16" style="enable-background:new 0 0 16 16;" xml:space="preserve">
<style type="text/css">
	.st0{fill:#ACAFBE;}
	.st1{fill:#40875E;}
	.st2{fill:#A8A240;}
	.st3{fill:#F0AB00;}
</style>
<path class="st1" d="M15.5,11.42c-0.31-0.17-0.59-0.08-0.87,0.09c-1.09,0.66-2.17,1.33-3.27,1.96c-0.32,0.18-0.72,0.31-1.09,0.33
	c-0.79,0.05-1.58,0.04-2.37,0.02c-0.12,0-0.25-0.12-0.37-0.18c0.12-0.05,0.24-0.15,0.36-0.16c0.75-0.02,1.5-0.02,2.25-0.04
	c0.51-0.01,0.77-0.23,0.78-0.62c0.01-0.4-0.24-0.62-0.75-0.65c-1.35-0.09-2.69-0.25-3.97-0.73c-0.87-0.32-1.79-0.34-2.69-0.11
	c-0.31,0.08-0.57,0.16-0.84-0.1c-0.1-0.09-0.3-0.09-0.46-0.09c-0.43,0.01-0.86,0.04-1.29,0.06C0.4,11.26,0.1,11.57,0.1,12.08
	c0,0.48,0.13,2.52,0.16,3.05c0.02,0.36,0.2,0.7,0.53,0.72c0.77,0.05,1.58,0.25,2.29-0.27c0.04-0.03,0.12-0.05,0.17-0.04
	c2.03,0.15,4.06,0.3,6.09,0.44c0.8,0.06,1.57-0.07,2.23-0.51c1.36-0.91,2.69-1.86,4.02-2.81C16.05,12.34,15.98,11.68,15.5,11.42z
	 M1.58,14.95c-0.27,0-0.49-0.22-0.49-0.49c0-0.27,0.22-0.49,0.49-0.49s0.49,0.22,0.49,0.49C2.07,14.73,1.85,14.95,1.58,14.95z"/>
<path class="st1" d="M11.47,12.93c0.93-0.57,1.83-1.12,2.73-1.67c-0.01-0.05-0.02-0.1-0.02-0.16c-0.22,0-0.48-0.07-0.66,0.01
	c-0.75,0.35-1.48,0.75-2.22,1.13C11.35,12.49,11.41,12.7,11.47,12.93z"/>
<path class="st1" d="M11.55,11.64c0.23-0.15,0.5-0.25,0.75-0.38c0.16-0.08,0.33-0.17,0.49-0.25c-0.02-0.04-0.04-0.08-0.06-0.12
	c-0.88-0.01-1.59,0.55-2.46,0.77C10.76,11.95,11.16,11.9,11.55,11.64z"/>
<path class="st2" d="M12.93,6.88l-0.68-0.19c-0.08-0.02-0.13-0.1-0.13-0.18c0-0.27-0.03-0.53-0.09-0.79
	C12,5.63,12.04,5.55,12.11,5.51l0.62-0.35C12.82,5.11,12.85,5,12.8,4.91l-0.6-1.07c-0.05-0.09-0.16-0.12-0.25-0.07l-0.62,0.35
	c-0.07,0.04-0.16,0.03-0.22-0.03c-0.19-0.19-0.39-0.35-0.62-0.49c-0.07-0.04-0.11-0.13-0.08-0.21l0.19-0.68
	c0.03-0.1-0.03-0.2-0.13-0.23L9.28,2.14c-0.1-0.03-0.2,0.03-0.23,0.13L8.87,2.95c-0.02,0.08-0.1,0.13-0.18,0.13
	c-0.27,0-0.53,0.03-0.79,0.09C7.82,3.2,7.73,3.16,7.69,3.09L7.34,2.47C7.29,2.38,7.18,2.35,7.09,2.4L6.02,3
	C5.93,3.05,5.9,3.16,5.95,3.25L6.3,3.87c0.04,0.07,0.03,0.16-0.03,0.22C6.08,4.28,5.91,4.49,5.77,4.72C5.73,4.79,5.65,4.82,5.57,4.8
	L4.88,4.61c-0.1-0.03-0.2,0.03-0.23,0.13L4.32,5.92c-0.03,0.1,0.03,0.2,0.13,0.23l0.68,0.19c0.08,0.02,0.13,0.1,0.13,0.18
	c0,0.27,0.03,0.53,0.09,0.79c0.02,0.08-0.02,0.17-0.09,0.21L4.65,7.86C4.57,7.91,4.53,8.02,4.58,8.11l0.6,1.07
	C5.23,9.27,5.35,9.3,5.43,9.25L6.05,8.9c0.07-0.04,0.16-0.03,0.22,0.03C6.46,9.12,6.67,9.29,6.9,9.43c0.07,0.04,0.11,0.13,0.08,0.21
	l-0.19,0.68c-0.03,0.1,0.03,0.2,0.13,0.23l1.18,0.33c0.1,0.03,0.2-0.03,0.23-0.13l0.19-0.68c0.02-0.08,0.1-0.13,0.18-0.13
	c0.27,0,0.53-0.03,0.79-0.09c0.08-0.02,0.17,0.01,0.21,0.09l0.35,0.62c0.05,0.09,0.16,0.12,0.25,0.07l1.07-0.6
	c0.09-0.05,0.12-0.16,0.07-0.25l-0.35-0.62c-0.04-0.07-0.03-0.16,0.03-0.22c0.19-0.19,0.35-0.39,0.49-0.62
	c0.04-0.07,0.13-0.11,0.21-0.08l0.68,0.19c0.1,0.03,0.2-0.03,0.23-0.13l0.33-1.18C13.09,7,13.03,6.9,12.93,6.88 M8.13,8.52
	C7.02,8.21,6.37,7.05,6.68,5.94C7,4.83,8.15,4.19,9.26,4.5c1.11,0.31,1.76,1.47,1.44,2.57C10.39,8.18,9.24,8.83,8.13,8.52"/>
<path class="st3" d="M5.74,1.75H5.39c-0.04,0-0.08-0.03-0.09-0.07C5.27,1.56,5.22,1.44,5.16,1.32C5.14,1.29,5.14,1.24,5.17,1.21
	l0.25-0.25c0.04-0.04,0.04-0.09,0-0.13L4.99,0.42c-0.04-0.04-0.09-0.04-0.13,0L4.62,0.66C4.59,0.69,4.54,0.7,4.51,0.68
	C4.39,0.61,4.27,0.56,4.15,0.53C4.11,0.51,4.08,0.48,4.08,0.44V0.09C4.08,0.04,4.04,0,3.99,0h-0.6C3.34,0,3.29,0.04,3.29,0.09v0.35
	c0,0.04-0.03,0.08-0.07,0.09C3.1,0.56,2.98,0.61,2.87,0.68C2.83,0.7,2.79,0.69,2.76,0.66L2.51,0.42c-0.04-0.04-0.09-0.04-0.13,0
	L1.96,0.84c-0.04,0.04-0.04,0.09,0,0.13L2.2,1.22c0.03,0.03,0.03,0.07,0.01,0.11C2.15,1.44,2.1,1.56,2.07,1.68
	C2.06,1.72,2.02,1.75,1.98,1.75H1.63c-0.05,0-0.09,0.04-0.09,0.09v0.6c0,0.05,0.04,0.09,0.09,0.09h0.35c0.04,0,0.08,0.03,0.09,0.07
	C2.1,2.73,2.15,2.85,2.22,2.96C2.24,3,2.23,3.04,2.2,3.07L1.96,3.32c-0.04,0.04-0.04,0.09,0,0.13l0.43,0.43
	c0.04,0.04,0.09,0.04,0.13,0l0.25-0.25C2.79,3.6,2.83,3.59,2.87,3.61C2.98,3.68,3.1,3.73,3.23,3.76c0.04,0.01,0.07,0.05,0.07,0.09
	V4.2c0,0.05,0.04,0.09,0.09,0.09h0.6c0.05,0,0.09-0.04,0.09-0.09V3.85c0-0.04,0.03-0.08,0.07-0.09c0.13-0.04,0.25-0.09,0.36-0.15
	C4.54,3.59,4.59,3.6,4.62,3.63l0.25,0.25c0.04,0.04,0.09,0.04,0.13,0l0.43-0.43c0.04-0.04,0.04-0.09,0-0.13L5.17,3.07
	C5.14,3.04,5.14,3,5.16,2.96C5.22,2.85,5.27,2.73,5.3,2.6c0.01-0.04,0.05-0.07,0.09-0.07h0.35c0.05,0,0.09-0.04,0.09-0.09v-0.6
	C5.83,1.79,5.79,1.75,5.74,1.75 M3.69,3.02c-0.48,0-0.88-0.39-0.88-0.88c0-0.48,0.39-0.88,0.88-0.88c0.48,0,0.88,0.39,0.88,0.88
	C4.56,2.63,4.17,3.02,3.69,3.02"/>
<circle class="st3" cx="8.69" cy="6.51" r="1.32"/>
</svg>
