<?xml version="1.0" encoding="utf-8"?>
<!-- Generator: Adobe Illustrator 22.0.1, SVG Export Plug-In . SVG Version: 6.00 Build 0)  -->
<svg version="1.1" id="Layer_1" xmlns="http://www.w3.org/2000/svg" xmlns:xlink="http://www.w3.org/1999/xlink" x="0px" y="0px"
	 viewBox="0 0 30 30" style="enable-background:new 0 0 30 30;" xml:space="preserve">
<style type="text/css">
	.st0{fill:#FFFFFF;}
	.st1{fill:#40875E;}
	.st2{fill:#A8A240;}
	.st3{fill:#F0AB00;}
	.st4{fill:none;}
	.st5{fill:#0B4A99;}
</style>
<g>
	<path class="st1" d="M28.1,15.3c-0.3,0-0.8,0-1.3,0.1c-0.5,0.1-0.9,0.2-1.1,0.3c-0.2,0.1-0.6,0.4-1,0.9c-0.5,0.5-1,1.2-1.7,2.2
		c-0.7,1-1.3,2-1.8,2.9c-0.5,0.8-0.9,1.7-1.4,2.7c-0.3-0.4-0.7-0.8-1-1c-0.5-0.3-0.9-0.5-1.3-0.5c-0.4,0-0.9,0.2-1.3,0.5
		c-0.5,0.4-0.7,0.8-0.7,1.2c0,0.3,0.2,0.7,0.7,1.2c0.6,0.7,1.2,1.4,1.5,1.9c0.3,0.4,0.5,0.7,0.6,0.8c0.1,0.1,0.3,0.3,0.5,0.3
		c0.2,0.1,0.5,0.1,1,0.1c0.6,0,1.1-0.1,1.3-0.2c0.3-0.1,0.5-0.3,0.6-0.6c0.1-0.2,0.3-0.7,0.6-1.4c0.7-1.8,1.7-3.6,2.9-5.5
		c1.2-1.9,2.4-3.3,3.5-4.4c0.3-0.2,0.4-0.4,0.5-0.6c0.1-0.1,0.1-0.3,0.1-0.5c0-0.2-0.1-0.4-0.3-0.6C28.6,15.3,28.4,15.3,28.1,15.3z"
		/>
</g>
<rect x="4.7" y="14.3" class="st4" width="16.8" height="1.5"/>
<rect x="4.7" y="18.6" class="st4" width="8.7" height="1.5"/>
<rect x="4.7" y="9.9" class="st4" width="16.8" height="1.5"/>
<path class="st2" d="M16.5,28.4c-0.3-0.5-0.8-1.1-1.4-1.8c-0.6-0.7-0.9-1.3-0.9-1.9c0-0.6,0.2-1.4,1.2-2.1c1.3-1,2.5-1,3.8-0.1
	c0.1,0,0.1,0.1,0.2,0.1c0.3-0.5,0.5-1,0.8-1.5c0.5-1,1.2-2,1.9-3c0.7-1.1,1.4-1.8,1.8-2.4c0.6-0.6,1-0.9,1.3-1.1c0,0,0,0,0,0V2
	c0-1-0.8-1.8-1.8-1.8H7.6v3.5c0,1.5-1.2,2.8-2.8,2.8H1V28c0,1,0.8,1.8,1.8,1.8h14.8c-0.2-0.1-0.3-0.2-0.5-0.4
	C17,29.3,16.9,29.1,16.5,28.4z M4.7,9.9h16.8v1.5H4.7V9.9z M4.7,14.3h16.8v1.5H4.7V14.3z M13.4,20.1H4.7v-1.5h8.7V20.1z"/>
<path class="st3" d="M6.6,3.7V0.9L1.8,5.4h3.1C5.8,5.4,6.6,4.6,6.6,3.7z"/>
</svg>
