<?xml version="1.0" encoding="utf-8"?>
<!-- Generator: Adobe Illustrator 22.0.1, SVG Export Plug-In . SVG Version: 6.00 Build 0)  -->
<svg version="1.1" id="Layer_1" xmlns="http://www.w3.org/2000/svg" xmlns:xlink="http://www.w3.org/1999/xlink" x="0px" y="0px"
	 viewBox="0 0 30 30" style="enable-background:new 0 0 30 30;" xml:space="preserve">
<style type="text/css">
	.st0{fill:#008520;}
	.st1{opacity:0.5;fill:none;stroke:#000000;stroke-width:5.000000e-02;stroke-miterlimit:10;}
	.st2{fill:#0C4B96;}
	.st3{fill:#C63621;}
	.st4{fill:#F85544;}
	.st5{fill:#EFC150;}
	.st6{fill:#27314E;}
	.st7{fill:#063ABC;}
	.st8{fill:#C74E41;}
	.st9{fill:#C67E42;}
	.st10{fill:#2CBCBB;}
	.st11{fill:#134658;}
	.st12{fill:none;stroke:#134658;stroke-miterlimit:10;}
	.st13{fill:#2BBBBA;}
	.st14{fill:#8C7053;}
	.st15{fill:#A93B33;}
	.st16{fill:#2F99A5;}
	.st17{fill:#654538;}
	.st18{fill:#BE5141;}
	.st19{fill:none;stroke:#134658;stroke-width:0.75;stroke-miterlimit:10;}
	.st20{fill:none;}
	.st21{opacity:0.5;}
	.st22{fill:#FF040F;}
	.st23{fill:#00A4F5;}
	.st24{fill:#70B74F;}
	.st25{fill:#F45DF4;}
	.st26{fill:#213763;}
	.st27{fill:#E8C67C;}
	.st28{fill:#135D7A;}
	.st29{fill:#A07C2B;}
	.st30{fill:none;stroke:#FF040F;stroke-width:0.25;stroke-miterlimit:10;}
	.st31{fill:#00457F;}
	.st32{fill:#48A030;}
	.st33{fill:#FFD445;}
	.st34{fill:#FF431D;}
	.st35{fill:#39B0C7;}
	.st36{fill:#5379A9;}
	.st37{fill:#E84049;}
	.st38{fill:#F57C45;}
	.st39{fill:#F1602D;}
	.st40{fill:#945965;}
	.st41{fill:#5C55A8;}
	.st42{fill:#4673C5;}
	.st43{fill:#E68549;}
	.st44{fill:none;stroke:#000000;stroke-width:0.15;stroke-miterlimit:10;}
	.st45{fill:none;stroke:#000000;stroke-width:0.1;stroke-miterlimit:10;}
	.st46{font-family:'MyriadPro-Regular';}
	.st47{font-size:1.0605px;}
	.st48{fill:#278EAA;}
	.st49{fill:#39BCA9;}
	.st50{fill:#EFCC3C;}
	.st51{fill:#E04444;}
</style>
<path class="st4" d="M4.1,18.2c0,0,2.7-2.3,3.4-1s2.5-1,2.6-1.3c0.2-0.3,1.5-1.7,2.7-0.1s0.9,1.9,1.6,2.1c0.7,0.2,2-0.1,2.7,0.6
	c0.7,0.7,1.6,0.6,2-0.2s2-4.9,2.8-5.4s1.2,0.2,1.5,0.5c0.3,0.4,1.4,2.5,2.1,2.8c0.7,0.4,3.4,1.6,3.7,2.2s0,6,0,6H4.1L4.1,18.2z"/>
<path class="st5" d="M4.1,20.6c0.1-0.2,2.2-2,2.6-2c0.4,0.1,1.6,1,2.4,0.4c0.8-0.6,2-2.9,3.1-1.5s1.5,1.9,2,2.1s2,0.2,2.5,1
	c0.5,0.7,1.8,0.5,2.4-0.3c0.6-0.8,1.9-3.1,2.3-3.4c0.4-0.4,1-0.8,1.9,0.4c0.9,1.2,1.4,1.1,1.9,1.1s1.6-0.3,2.7,0.9
	c1.1,1.2,1.4,1.4,1.4,1.4v3.9H4.1V20.6z"/>
<path class="st6" d="M4.1,22.8c0,0,1.8-1.2,2.3-1.4s1.2-0.1,1.9,0.4C9,22.4,9,22,9.5,21.6c0.5-0.5,2-1.8,3.8-0.3
	c1.8,1.5,2,1.3,2.2,1.3c0.2,0,1.1,0.2,1.4,0.4c0.3,0.2,1.7,0,2.1-0.3c0.4-0.3,1.8-2.1,2.1-2.5c0.2-0.4,1.2-1.1,2.2-0.1
	c1,1,1.7,1.6,2.1,1.6c0.4,0,1.7-0.1,2.8,0.6s1.1,0.6,1.1,0.6v1.9H4.1C4.1,24.7,4.1,22.7,4.1,22.8z"/>
<polyline class="st44" points="4.1,7.9 4.1,24.6 29.2,24.6 "/>
<line class="st45" x1="9.2" y1="24.6" x2="9.2" y2="25.1"/>
<line class="st45" x1="4.1" y1="7.9" x2="3.6" y2="7.9"/>
<line class="st45" x1="4.1" y1="11.2" x2="3.6" y2="11.2"/>
<line class="st45" x1="4.1" y1="14.5" x2="3.6" y2="14.5"/>
<line class="st45" x1="4.1" y1="17.9" x2="3.6" y2="17.9"/>
<line class="st45" x1="4.1" y1="21.2" x2="3.6" y2="21.2"/>
<line class="st45" x1="14.2" y1="24.6" x2="14.2" y2="25.1"/>
<line class="st45" x1="19.2" y1="24.6" x2="19.2" y2="25.1"/>
<line class="st45" x1="24.2" y1="24.6" x2="24.2" y2="25.1"/>
<line class="st45" x1="29.2" y1="24.6" x2="29.2" y2="25.1"/>
<text transform="matrix(1 0 0 1 0.6745 8.2033)" class="st46 st47">1000</text>
<text transform="matrix(1 0 0 1 1.2184 11.3517)" class="st46 st47">800</text>
<text transform="matrix(1 0 0 1 1.2184 14.7985)" class="st46 st47">600</text>
<text transform="matrix(1 0 0 1 1.2184 18.2453)" class="st46 st47">400</text>
<text transform="matrix(1 0 0 1 1.2184 21.6257)" class="st46 st47">200</text>
<text transform="matrix(1 0 0 1 2.2326 24.9069)" class="st46 st47">0</text>
<text transform="matrix(1 0 0 1 8.9601 26.4645)" class="st46 st47">2</text>
<text transform="matrix(1 0 0 1 13.9645 26.4645)" class="st46 st47">4</text>
<text transform="matrix(1 0 0 1 18.9689 26.4645)" class="st46 st47">6</text>
<text transform="matrix(1 0 0 1 23.9733 26.4645)" class="st46 st47">8</text>
<text transform="matrix(1 0 0 1 28.6208 26.5101)" class="st46 st47">10</text>
</svg>
