<?xml version="1.0" encoding="utf-8"?>
<!-- Generator: Adobe Illustrator 22.0.1, SVG Export Plug-In . SVG Version: 6.00 Build 0)  -->
<svg version="1.1" id="Layer_1" xmlns="http://www.w3.org/2000/svg" xmlns:xlink="http://www.w3.org/1999/xlink" x="0px" y="0px"
	 viewBox="0 0 30 30" style="enable-background:new 0 0 30 30;" xml:space="preserve">
<style type="text/css">
	.st0{fill:#FF040F;}
	.st1{fill:#008520;}
	.st2{fill:#0C4B96;}
	.st3{fill:#FFAA24;}
	.st4{fill:#135D7A;}
	.st5{opacity:0.5;fill:none;stroke:#000000;stroke-width:3.000000e-02;stroke-miterlimit:10;}
	.st6{fill:#C63621;}
	.st7{fill:#F85544;}
	.st8{fill:#EFC150;}
	.st9{fill:#27314E;}
	.st10{fill:#063ABC;}
	.st11{fill:#C74E41;}
	.st12{fill:#C67E42;}
	.st13{fill:#2CBCBB;}
	.st14{fill:#134658;}
	.st15{fill:none;stroke:#134658;stroke-miterlimit:10;}
	.st16{fill:#2BBBBA;}
	.st17{fill:#8C7053;}
	.st18{fill:#A93B33;}
	.st19{fill:#2F99A5;}
	.st20{fill:#654538;}
	.st21{fill:#BE5141;}
	.st22{fill:none;stroke:#134658;stroke-width:0.75;stroke-miterlimit:10;}
	.st23{fill:none;}
	.st24{opacity:0.5;}
	.st25{fill:#55F2ED;}
	.st26{fill:#70B74F;}
	.st27{fill:#00A4F5;}
	.st28{fill:#F45DF4;}
	.st29{fill:#00457F;}
	.st30{fill:#48A030;}
	.st31{fill:#E8C67C;}
	.st32{fill:#FFD445;}
	.st33{fill:#FF431D;}
	.st34{fill:#39B0C7;}
	.st35{fill:#5379A9;}
	.st36{fill:#E84049;}
	.st37{fill:#F57C45;}
	.st38{fill:#F1602D;}
	.st39{fill:#945965;}
	.st40{fill:#5C55A8;}
	.st41{fill:#4673C5;}
	.st42{fill:#E68549;}
	.st43{fill:none;stroke:#000000;stroke-width:0.15;stroke-miterlimit:10;}
	.st44{fill:none;stroke:#000000;stroke-width:0.1;stroke-miterlimit:10;}
	.st45{opacity:0.5;fill:none;stroke:#000000;stroke-width:5.000000e-02;stroke-miterlimit:10;}
	.st46{fill:#278EAA;}
	.st47{fill:#39BCA9;}
	.st48{fill:#EFCC3C;}
	.st49{fill:#E04444;}
	.st50{fill:#F7C192;}
	.st51{fill:#E16956;}
	.st52{fill:#FCBA32;}
	.st53{fill:#ACDFE3;}
	.st54{fill:#5DC9CC;}
	.st55{fill:#D9442C;}
	.st56{fill:#F39200;}
	.st57{fill:#079DAB;}
	.st58{fill:#FDD07D;}
	.st59{fill:#E67239;}
	.st60{fill:#E94E1B;}
	.st61{fill:#F9B233;}
	.st62{fill:#FFFFFF;}
	.st63{fill:#808080;stroke:#808080;stroke-width:0.1;stroke-miterlimit:10;}
	.st64{fill:#33A4FF;stroke:#33A4FF;stroke-width:0.1;stroke-miterlimit:10;}
	.st65{fill:#33A4FF;}
	.st66{fill:url(#SVGID_1_);stroke:#FFA424;stroke-width:0.1;stroke-miterlimit:10;}
	.st67{fill:url(#SVGID_2_);stroke:#FFA424;stroke-width:0.1;stroke-miterlimit:10;}
	.st68{fill:url(#SVGID_5_);stroke:#FFA424;stroke-width:0.1;stroke-miterlimit:10;}
	.st69{fill:url(#SVGID_8_);stroke:#FFA424;stroke-width:0.1;stroke-miterlimit:10;}
	.st70{fill:url(#SVGID_13_);}
	.st71{fill:url(#SVGID_14_);stroke:#FF4040;stroke-width:0.1;stroke-miterlimit:10;}
	.st72{fill:url(#SVGID_15_);stroke:#FF4040;stroke-width:0.1;stroke-miterlimit:10;}
	.st73{fill:url(#SVGID_18_);stroke:#FF4040;stroke-width:0.1;stroke-miterlimit:10;}
	.st74{fill:url(#SVGID_21_);stroke:#FF4040;stroke-width:0.1;stroke-miterlimit:10;}
	.st75{fill:url(#SVGID_26_);}
	.st76{fill:url(#SVGID_27_);stroke:#00CF5D;stroke-width:0.1;stroke-miterlimit:10;}
	.st77{fill:url(#SVGID_28_);stroke:#00CF5D;stroke-width:0.1;stroke-miterlimit:10;}
	.st78{fill:url(#SVGID_32_);stroke:#00CF5D;stroke-width:0.1;stroke-miterlimit:10;}
	.st79{fill:url(#SVGID_35_);stroke:#00CF5D;stroke-width:0.1;stroke-miterlimit:10;}
	.st80{fill:url(#SVGID_40_);}
	.st81{opacity:0.25;}
	.st82{fill:#808080;}
	.st83{fill:#4D70DF;}
	.st84{fill:none;stroke:#000102;stroke-width:3;stroke-miterlimit:10;}
	.st85{fill:#7191E6;}
	.st86{fill:#6989E5;}
	.st87{fill:#839FEA;}
	.st88{fill:#809EE9;}
	.st89{fill:#587BE2;}
	.st90{fill:#5B7DE1;}
	.st91{fill:#7C9AE9;}
	.st92{fill:#6D8FE6;}
	.st93{fill:#5577E1;}
	.st94{fill:#5173E0;}
	.st95{fill:#6586E4;}
	.st96{fill:#7796E6;}
	.st97{fill:#94AFEC;}
	.st98{fill:#ACC0F0;}
	.st99{fill:#99B1EC;}
	.st100{fill:#BBCBF3;}
	.st101{fill:#8BA7EA;}
	.st102{fill:#C4D3F4;}
	.st103{fill:#CEDBF7;}
	.st104{fill:#7897E7;}
	.st105{fill:#6786E4;}
	.st106{fill:none;stroke:#000102;stroke-width:4;stroke-miterlimit:10;}
	.st107{fill:#000102;}
	.st108{fill:#FF1200;}
	.st109{fill:#002282;}
	.st110{fill:#00B1FF;}
	.st111{font-family:'MyriadPro-Regular';}
	.st112{font-size:1.0605px;}
	.st113{opacity:0.74;fill:#C63621;}
	.st114{opacity:0.74;fill:#0C4B96;}
	.st115{fill:#3C3C5E;}
	.st116{fill:#00C572;}
	.st117{fill:#FFAD24;}
	.st118{fill:none;stroke:#000000;stroke-width:0.25;stroke-miterlimit:10;}
</style>
<path class="st108" d="M4.1,18.2c0,0,2.7-2.3,3.4-1s2.5-1,2.6-1.3c0.2-0.3,1.5-1.7,2.7-0.1s0.9,1.9,1.6,2.1c0.7,0.2,2-0.1,2.7,0.6
	c0.7,0.7,1.6,0.6,2-0.2s2-4.9,2.8-5.4s1.2,0.2,1.5,0.5c0.3,0.4,1.4,2.5,2.1,2.8c0.7,0.4,3.4,1.6,3.7,2.2s0,6,0,6H4.1L4.1,18.2z"/>
<path class="st109" d="M4.1,20.6c0.1-0.2,2.2-2,2.6-2c0.4,0.1,1.6,1,2.4,0.4c0.8-0.6,2-2.9,3.1-1.5s1.5,1.9,2,2.1s2,0.2,2.5,1
	c0.5,0.7,1.8,0.5,2.4-0.3c0.6-0.8,1.9-3.1,2.3-3.4c0.4-0.4,1-0.8,1.9,0.4c0.9,1.2,1.4,1.1,1.9,1.1s1.6-0.3,2.7,0.9
	c1.1,1.2,1.4,1.4,1.4,1.4v3.9H4.1V20.6z"/>
<path class="st110" d="M4.1,22.8c0,0,1.8-1.2,2.3-1.4s1.2-0.1,1.9,0.4C9,22.4,9,22,9.5,21.6c0.5-0.5,2-1.8,3.8-0.3
	c1.8,1.5,2,1.3,2.2,1.3c0.2,0,1.1,0.2,1.4,0.4c0.3,0.2,1.7,0,2.1-0.3c0.4-0.3,1.8-2.1,2.1-2.5c0.2-0.4,1.2-1.1,2.2-0.1
	c1,1,1.7,1.6,2.1,1.6c0.4,0,1.7-0.1,2.8,0.6s1.1,0.6,1.1,0.6v1.9H4.1C4.1,24.7,4.1,22.7,4.1,22.8z"/>
<g>
	<polyline class="st43" points="4.1,7.9 4.1,24.6 29.2,24.6 	"/>
	<line class="st44" x1="9.2" y1="24.6" x2="9.2" y2="25.1"/>
	<line class="st44" x1="4.1" y1="7.9" x2="3.6" y2="7.9"/>
	<line class="st44" x1="4.1" y1="11.2" x2="3.6" y2="11.2"/>
	<line class="st44" x1="4.1" y1="14.5" x2="3.6" y2="14.5"/>
	<line class="st44" x1="4.1" y1="17.9" x2="3.6" y2="17.9"/>
	<line class="st44" x1="4.1" y1="21.2" x2="3.6" y2="21.2"/>
	<line class="st44" x1="14.2" y1="24.6" x2="14.2" y2="25.1"/>
	<line class="st44" x1="19.2" y1="24.6" x2="19.2" y2="25.1"/>
	<line class="st44" x1="24.2" y1="24.6" x2="24.2" y2="25.1"/>
	<line class="st44" x1="29.2" y1="24.6" x2="29.2" y2="25.1"/>
</g>
<text transform="matrix(1 0 0 1 0.6745 8.2033)" class="st111 st112">1000</text>
<text transform="matrix(1 0 0 1 1.2184 11.3517)" class="st111 st112">800</text>
<text transform="matrix(1 0 0 1 1.2184 14.7985)" class="st111 st112">600</text>
<text transform="matrix(1 0 0 1 1.2184 18.2453)" class="st111 st112">400</text>
<text transform="matrix(1 0 0 1 1.2184 21.6256)" class="st111 st112">200</text>
<text transform="matrix(1 0 0 1 2.2326 24.9069)" class="st111 st112">0</text>
<text transform="matrix(1 0 0 1 8.9601 26.4645)" class="st111 st112">2</text>
<text transform="matrix(1 0 0 1 13.9645 26.4645)" class="st111 st112">4</text>
<text transform="matrix(1 0 0 1 18.9689 26.4645)" class="st111 st112">6</text>
<text transform="matrix(1 0 0 1 23.9733 26.4645)" class="st111 st112">8</text>
<text transform="matrix(1 0 0 1 28.6208 26.5101)" class="st111 st112">10</text>
<polyline class="st44" points="4.1,21.9 6.8,20 8.9,21.1 11.8,19.1 15.3,21.6 17.9,22.4 21.6,18.2 23.9,19.4 25.4,20.9 27.5,20.6 
	29.3,21.9 "/>
<polyline class="st44" points="4.2,19.3 6.6,17.6 8.4,18.6 11.3,16.1 13.4,18.2 14,19.1 16.3,19.1 17.6,20.5 19.2,19.2 21.9,14.7 
	24,16.9 24.7,17.7 27.1,17.9 29.3,20 "/>
<path class="st44" d="M4.1,17.1c0.2-0.1,2.8-1.4,2.8-1.4L8.1,17l3.4-2.6l2.8,2l0.3,0.8l2,0.4l1.5,0.9l4-7.4l3,3.4l0.5,1.5l3.7,1.9"
	/>
</svg>
