<?xml version="1.0" encoding="iso-8859-1"?>
<!-- Generator: Adobe Illustrator 12.0.0, SVG Export Plug-In . SVG Version: 6.00 Build 51448)  -->
<!DOCTYPE svg PUBLIC "-//W3C//DTD SVG 1.1//EN" "http://www.w3.org/Graphics/SVG/1.1/DTD/svg11.dtd" [
	<!ENTITY ns_svg "http://www.w3.org/2000/svg">
	<!ENTITY ns_xlink "http://www.w3.org/1999/xlink">
]>
<svg  version="1.1" id="Layer_1" xmlns="&ns_svg;" xmlns:xlink="&ns_xlink;" width="13.161" height="35.133"
	 viewBox="0 0 13.161 35.133" style="overflow:visible;enable-background:new 0 0 13.161 35.133;" xml:space="preserve">
<g>
	<path style="fill:#0071C5;" d="M0.404,0.36C0.196,0.504,0.085,0.735,0.085,0.969c0,0.145,0.043,0.292,0.132,0.421
		c0,0,10.663,15.376,11.217,16.178C10.88,18.369,0.217,33.742,0.217,33.742c-0.089,0.13-0.132,0.275-0.132,0.422
		c0,0.234,0.111,0.465,0.319,0.608c0.336,0.233,0.797,0.15,1.029-0.186l11.511-16.598c0.176-0.254,0.176-0.59,0-0.844L1.433,0.546
		C1.201,0.21,0.74,0.127,0.404,0.36z"/>
	<rect style="fill:none;" width="13.161" height="35.133"/>
</g>
</svg>
