<?xml version="1.0" encoding="utf-8"?>
<!-- Generator: Adobe Illustrator 22.0.1, SVG Export Plug-In . SVG Version: 6.00 Build 0)  -->
<svg version="1.1" id="Layer_1" xmlns="http://www.w3.org/2000/svg" xmlns:xlink="http://www.w3.org/1999/xlink" x="0px" y="0px"
	 viewBox="0 0 16 16" style="enable-background:new 0 0 16 16;" xml:space="preserve">
<style type="text/css">
	.st0{fill:#FFFFFF;stroke:#0B4A99;stroke-width:0.5;stroke-miterlimit:10;}
	.st1{fill:#0B4A99;stroke:#0B4A99;stroke-width:0.25;stroke-miterlimit:10;}
</style>
<path class="st0" d="M2.7,1h10.7c1.3,0,2.4,1.1,2.4,2.4v9.1c0,1.3-1.1,2.4-2.4,2.4H2.7c-1.3,0-2.4-1.1-2.4-2.4V3.5
	C0.3,2.1,1.3,1,2.7,1z"/>
<g>
	<g>
		<polygon class="st1" points="2.9,12.8 2.5,12.3 7.4,7.6 2.5,3.7 2.9,3.2 8.3,7.5 		"/>
	</g>
	<g>
		<polygon class="st1" points="5.5,12.8 5.1,12.3 10,7.6 5.1,3.7 5.5,3.2 10.9,7.5 		"/>
	</g>
	<g>
		<polygon class="st1" points="8.1,12.8 7.7,12.3 12.6,7.6 7.7,3.7 8.1,3.2 13.5,7.5 		"/>
	</g>
</g>
</svg>
