<?xml version="1.0" encoding="iso-8859-1"?>
<!-- Generator: Adobe Illustrator 12.0.0, SVG Export Plug-In . SVG Version: 6.00 Build 51448)  -->
<!DOCTYPE svg PUBLIC "-//W3C//DTD SVG 1.1//EN" "http://www.w3.org/Graphics/SVG/1.1/DTD/svg11.dtd" [
	<!ENTITY ns_svg "http://www.w3.org/2000/svg">
	<!ENTITY ns_xlink "http://www.w3.org/1999/xlink">
]>
<svg  version="1.1" id="Layer_1" xmlns="&ns_svg;" xmlns:xlink="&ns_xlink;" width="60.095" height="60.095"
	 viewBox="0 0 60.095 60.095" style="overflow:visible;enable-background:new 0 0 60.095 60.095;" xml:space="preserve">
<g>
	<path style="fill:#008FD3;" d="M60.095,52.176c0,4.37-3.771,7.919-8.43,7.919H8.437C3.778,60.095,0,56.546,0,52.176V7.923
		C0,3.55,3.778,0,8.437,0h43.229c4.658,0,8.43,3.55,8.43,7.923V52.176z M57.167,10.079c0-3.947-3.404-7.151-7.608-7.151H10.542
		c-4.204,0-7.614,3.204-7.614,7.151V50.02c0,3.944,3.41,7.147,7.614,7.147h39.017c4.204,0,7.608-3.203,7.608-7.147V10.079z"/>
	<g>
		<g>
			<g>
				<ellipse style="fill:#008FD3;" cx="48.241" cy="45.385" rx="2.74" ry="3.582"/>
				<path style="fill:#008FD3;" d="M49.578,48.497c0,0,3.943,1.446,4.106,3.056c0,0,0.091,1.376,0,1.611c0,0-1.517,0.72-4.631,0.726
					H47.43c-3.114-0.006-4.631-0.726-4.631-0.726c-0.09-0.235,0-1.611,0-1.611c0.162-1.609,4.106-3.056,4.106-3.056H49.578z"/>
			</g>
			<g>
				<ellipse style="fill:#008FD3;" cx="37.135" cy="19.207" rx="4.092" ry="5.348"/>
				<path style="fill:#008FD3;" d="M39.131,23.853c0,0,5.888,2.16,6.131,4.564c0,0,0.136,1.619,0,1.97c0,0-2.264,3.464-6.915,3.472
					h-2.425c-4.65-0.008-6.915-3.472-6.915-3.472c-0.135-0.351,0-1.97,0-1.97c0.243-2.404,6.132-4.564,6.132-4.564H39.131z"/>
			</g>
			<g>
				<ellipse style="fill:#008FD3;" cx="30.332" cy="45.385" rx="2.74" ry="3.582"/>
				<path style="fill:#008FD3;" d="M31.669,48.497c0,0,3.943,1.446,4.106,3.056c0,0,0.091,1.376,0,1.611c0,0-1.516,0.72-4.63,0.726
					h-1.625c-3.115-0.006-4.631-0.726-4.631-0.726c-0.09-0.235,0-1.611,0-1.611c0.163-1.609,4.107-3.056,4.107-3.056H31.669z"/>
			</g>
			<g>
				<ellipse style="fill:#008FD3;" cx="12.098" cy="24.979" rx="2.74" ry="3.582"/>
				<path style="fill:#008FD3;" d="M13.435,28.091c0,0,3.944,1.447,4.106,3.057c0,0,0.09,1.375,0,1.609c0,0-1.516,0.721-4.63,0.727
					h-1.625c-3.115-0.006-4.631-0.727-4.631-0.727c-0.09-0.234,0-1.609,0-1.609c0.163-1.61,4.106-3.057,4.106-3.057H13.435z"/>
			</g>
			<g>
				<ellipse style="fill:#008FD3;" cx="18.285" cy="9.784" rx="2.741" ry="3.582"/>
				<path style="fill:#008FD3;" d="M20.19,18.256c-0.339,0.021-0.704,0.032-1.093,0.033h-1.625
					c-3.115-0.005-4.631-0.726-4.631-0.726c-0.09-0.235,0-1.61,0-1.61c0.163-1.61,4.106-3.058,4.106-3.058h2.673
					c0,0,1.416,0.52,2.585,1.283C22.207,14.178,20.592,17.094,20.19,18.256z"/>
			</g>
			<path style="fill:#008FD3;" d="M48.877,23.731c0,6.475-5.248,11.723-11.722,11.723c-6.474,0-11.723-5.249-11.723-11.723
				c0-6.473,5.249-11.722,11.723-11.722C43.629,12.009,48.877,17.258,48.877,23.731z M37.155,7.559
				c-8.933,0-16.173,7.241-16.173,16.172c0,8.933,7.24,16.173,16.173,16.173c8.932,0,16.172-7.24,16.172-16.173
				C53.327,14.8,46.087,7.559,37.155,7.559z"/>
			<path style="fill:#008FD3;" d="M27.631,38.746L13.707,52.617c-1.663,1.685-4.376,1.703-6.061,0.041l0,0
				c-1.685-1.662-1.704-4.377-0.041-6.062L21.746,32.72C21.746,32.72,24.185,36.611,27.631,38.746z"/>
		</g>
	</g>
</g>
</svg>
