<?xml version="1.0" encoding="utf-8"?>
<!-- Generator: Adobe Illustrator 25.0.0, SVG Export Plug-In . SVG Version: 6.00 Build 0)  -->
<svg version="1.1" id="Layer_1" xmlns="http://www.w3.org/2000/svg" xmlns:xlink="http://www.w3.org/1999/xlink" x="0px" y="0px"
	 viewBox="0 0 36 36" style="enable-background:new 0 0 36 36;" xml:space="preserve">
<style type="text/css">
	.st0{fill:#CB1618;}
	.st1{fill:#185ABD;}
	.st2{fill:#D83039;}
	.st3{fill:#103F91;}
	.st4{fill:#185C37;}
	.st5{fill:#33C481;}
	.st6{fill:#107C41;}
	.st7{fill:#21A366;}
	.st8{fill:#0B4A99;}
	.st9{fill:none;}
	.st10{fill:#FFFFFF;}
	.st11{fill:#41A5EE;}
	.st12{fill:#2B7CD3;}
	.st13{opacity:0.5;enable-background:new    ;}
	.st14{fill:url(#SVGID_1_);}
	.st15{fill:url(#SVGID_2_);}
	.st16{fill:url(#SVGID_3_);}
	.st17{fill:url(#SVGID_4_);}
	.st18{fill:#E24951;}
	.st19{fill-rule:evenodd;clip-rule:evenodd;}
	.st20{fill:#262625;}
	.st21{fill:none;stroke:#000000;stroke-width:0.75;stroke-miterlimit:10;}
	.st22{fill:none;stroke:#000000;stroke-width:1.2;stroke-miterlimit:10;}
	.st23{fill-rule:evenodd;clip-rule:evenodd;fill:#0B4A99;}
	.st24{fill:none;stroke:#0071C5;stroke-width:1.3;stroke-linecap:round;stroke-miterlimit:10;}
	.st25{fill:none;stroke:#F0AB00;stroke-width:1.3;stroke-miterlimit:10;}
	.st26{fill:#1C55A6;}
	.st27{fill:none;stroke:#1C55A6;stroke-width:1.3;stroke-linecap:round;}
	.st28{fill-rule:evenodd;clip-rule:evenodd;fill:none;stroke:#1C55A6;stroke-width:1.3;stroke-linecap:round;}
	.st29{fill:none;stroke:#1C55A6;stroke-width:1.3;stroke-linecap:round;stroke-miterlimit:10;}
	.st30{fill:none;stroke:#231F20;}
	.st31{fill:none;stroke:#0B4A99;stroke-width:1.3;stroke-miterlimit:10;}
</style>
<g>
	<g>
		<polygon class="st8" points="4.4,29.7 0,29.7 0,0.6 20.8,0.6 20.8,5.1 19.8,5.1 19.8,1.6 1,1.6 1,28.7 4.4,28.7 		"/>
	</g>
	<g>
		<polygon class="st8" points="28.3,34.9 3.9,34.9 3.9,4.6 22.3,4.6 28.3,10.2 28.3,13.3 27.3,13.3 27.3,10.6 21.9,5.6 4.9,5.6 
			4.9,33.9 27.3,33.9 27.3,29.2 28.3,29.2 		"/>
	</g>
	<g>
		<polygon class="st8" points="27.8,11 21.6,11 21.6,5.1 22.6,5.1 22.6,10 27.8,10 		"/>
	</g>
	<g>
		<rect x="7" y="10" class="st8" width="12.7" height="1"/>
	</g>
	<g>
		<rect x="7" y="30.5" class="st8" width="15.7" height="1"/>
	</g>
	<g>
		<rect x="7" y="14.2" class="st8" width="5.7" height="1"/>
	</g>
	<g>
		<rect x="7" y="18.5" class="st8" width="5.7" height="1"/>
	</g>
	<g>
		<rect x="7" y="22.7" class="st8" width="5.7" height="1"/>
	</g>
	<g>
		<rect x="7" y="26.4" class="st8" width="5.7" height="1"/>
	</g>
	<g>
		<path class="st8" d="M21.4,28.8c-4.4,0-8-3.6-8-8s3.6-8,8-8s8,3.6,8,8S25.8,28.8,21.4,28.8z M21.4,13.8c-3.9,0-7,3.1-7,7
			s3.1,7,7,7s7-3.1,7-7S25.3,13.8,21.4,13.8z"/>
	</g>
	<g>
		
			<rect x="30.8" y="24.2" transform="matrix(0.7229 -0.6909 0.6909 0.7229 -12.4153 30.0508)" class="st8" width="1" height="12.7"/>
	</g>
	<g>
		<polygon class="st8" points="19.4,23.9 17.5,20.6 18.3,20.1 19.7,22.5 26.1,18.8 26.6,19.6 		"/>
	</g>
</g>
</svg>
