<?xml version="1.0" encoding="utf-8"?>
<!-- Generator: Adobe Illustrator 25.0.0, SVG Export Plug-In . SVG Version: 6.00 Build 0)  -->
<svg version="1.1" id="Layer_1" xmlns="http://www.w3.org/2000/svg" xmlns:xlink="http://www.w3.org/1999/xlink" x="0px" y="0px"
	 viewBox="0 0 36 36" style="enable-background:new 0 0 36 36;" xml:space="preserve">
<style type="text/css">
	.st0{fill:#CB1618;}
	.st1{fill:#185ABD;}
	.st2{fill:#D83039;}
	.st3{fill:#103F91;}
	.st4{fill:#185C37;}
	.st5{fill:#33C481;}
	.st6{fill:#107C41;}
	.st7{fill:#21A366;}
	.st8{fill:#0B4A99;}
	.st9{fill:none;}
	.st10{fill:#FFFFFF;}
	.st11{fill:#41A5EE;}
	.st12{fill:#2B7CD3;}
	.st13{opacity:0.5;enable-background:new    ;}
	.st14{fill:url(#SVGID_1_);}
	.st15{fill:url(#SVGID_2_);}
	.st16{fill:url(#SVGID_3_);}
	.st17{fill:url(#SVGID_4_);}
	.st18{fill:#E24951;}
	.st19{fill-rule:evenodd;clip-rule:evenodd;}
	.st20{fill:#262625;}
	.st21{fill:none;stroke:#000000;stroke-width:0.75;stroke-miterlimit:10;}
	.st22{fill:none;stroke:#000000;stroke-width:1.2;stroke-miterlimit:10;}
	.st23{fill-rule:evenodd;clip-rule:evenodd;fill:#0B4A99;}
	.st24{fill:none;stroke:#0071C5;stroke-width:1.3;stroke-linecap:round;stroke-miterlimit:10;}
	.st25{fill:none;stroke:#F0AB00;stroke-width:1.3;stroke-miterlimit:10;}
	.st26{fill:#1C55A6;}
	.st27{fill:none;stroke:#1C55A6;stroke-width:1.3;stroke-linecap:round;}
	.st28{fill-rule:evenodd;clip-rule:evenodd;fill:none;stroke:#1C55A6;stroke-width:1.3;stroke-linecap:round;}
	.st29{fill:none;stroke:#1C55A6;stroke-width:1.3;stroke-linecap:round;stroke-miterlimit:10;}
	.st30{fill:none;stroke:#231F20;}
	.st31{fill:none;stroke:#0B4A99;stroke-width:1.3;stroke-miterlimit:10;}
</style>
<g>
	<g>
		<path class="st8" d="M9.1,26.5h-6c-1.7,0-3.1-1.4-3.1-3.1V12.7c0-1.7,1.4-3.1,3.1-3.1h6V26.5z M3.1,10.8c-1,0-1.8,0.8-1.8,1.8
			v10.6c0,1,0.8,1.8,1.8,1.8h4.7V10.8H3.1z"/>
	</g>
	<g>
		<path class="st8" d="M18.9,35.6c-0.5,0-1-0.2-1.5-0.7l-9.6-8.8V9.9l9.6-8.8c0.7-0.6,1.5-0.8,2.2-0.5c0.8,0.3,1.3,1.2,1.3,2.3v30.2
			c0,1.1-0.5,2-1.3,2.3C19.4,35.5,19.2,35.6,18.9,35.6z M18.3,34c0.2,0.2,0.5,0.4,0.8,0.3c0.2-0.1,0.5-0.5,0.5-1.1V2.9
			c0-0.6-0.3-1-0.5-1.2c-0.3-0.1-0.6,0.1-0.8,0.3l-9.2,8.4v15L18.3,34z"/>
	</g>
	<g>
		<path class="st8" d="M23.1,25.2c-0.3,0-0.5-0.2-0.6-0.4c-0.1-0.3,0-0.7,0.3-0.9c2.4-1,4-3.4,4-6c0-2.7-1.7-5.2-4.3-6.1
			c-0.3-0.1-0.5-0.5-0.4-0.8c0.1-0.3,0.5-0.5,0.8-0.4c3.1,1.1,5.1,4.1,5.1,7.3c0,3.1-1.9,6-4.8,7.2C23.2,25.2,23.2,25.2,23.1,25.2z"
			/>
	</g>
	<g>
		<path class="st8" d="M28,31.6c-0.2,0-0.4-0.1-0.6-0.3c-0.2-0.3-0.1-0.7,0.2-0.9c4.3-2.6,7-7.3,7-12.4c0-5.1-2.6-9.6-6.9-12.3
			c-0.3-0.2-0.4-0.6-0.2-0.9c0.2-0.3,0.6-0.4,0.9-0.2C33.2,7.5,36,12.5,36,18c0,5.5-2.9,10.7-7.7,13.5C28.2,31.6,28.1,31.6,28,31.6z
			"/>
	</g>
	<g>
		<path class="st8" d="M25.9,28.7c-0.2,0-0.5-0.1-0.6-0.3c-0.2-0.3-0.1-0.7,0.3-0.9c3.5-1.9,5.6-5.6,5.6-9.5c0-3.9-2.1-7.5-5.5-9.5
			c-0.3-0.2-0.4-0.6-0.2-0.9c0.2-0.3,0.6-0.4,0.9-0.2c3.8,2.2,6.1,6.2,6.1,10.6c0,4.4-2.4,8.5-6.3,10.7C26.1,28.7,26,28.7,25.9,28.7
			z"/>
	</g>
</g>
</svg>
