<svg id="Capa_1" enable-background="new 0 0 512 512" height="512" viewBox="0 0 512 512" width="512" xmlns="http://www.w3.org/2000/svg"><g><path d="m437.02 74.98c-48.353-48.351-112.64-74.98-181.02-74.98s-132.667 26.629-181.02 74.98c-48.351 48.353-74.98 112.64-74.98 181.02s26.629 132.667 74.98 181.02c48.353 48.351 112.64 74.98 181.02 74.98s132.667-26.629 181.02-74.98c48.351-48.353 74.98-112.64 74.98-181.02s-26.629-132.667-74.98-181.02zm-181.02 407.02c-124.617 0-226-101.383-226-226s101.383-226 226-226 226 101.383 226 226-101.383 226-226 226z"/><path d="m256 68.857c-103.19 0-187.143 83.953-187.143 187.143s83.953 187.143 187.143 187.143 187.143-83.953 187.143-187.143-83.953-187.143-187.143-187.143zm0 275.429c-48.681 0-88.286-39.605-88.286-88.286s39.605-88.286 88.286-88.286 88.286 39.605 88.286 88.286-39.605 88.286-88.286 88.286zm72.321-181.82c-9.3-7.207-19.698-13.06-30.898-17.26 5.055-7.752 8.006-16.995 8.006-26.919 0-4.114-.513-8.11-1.465-11.934 19.192 6.166 36.79 15.918 51.991 28.48zm-52.892-44.18c0 10.713-8.716 19.428-19.429 19.428s-19.429-8.715-19.429-19.428 8.716-19.429 19.429-19.429 19.429 8.716 19.429 19.429zm-60.852 26.92c-11.2 4.201-21.598 10.053-30.898 17.26l-27.634-27.634c15.201-12.562 32.799-22.314 51.991-28.48-.952 3.824-1.465 7.819-1.465 11.934 0 9.925 2.951 19.168 8.006 26.92zm-52.111 38.473c-7.207 9.3-13.06 19.698-17.261 30.898-7.752-5.055-16.995-8.006-26.919-8.006-4.114 0-8.11.513-11.934 1.465 6.166-19.192 15.918-36.791 28.48-51.991zm-44.18 52.892c10.713 0 19.428 8.716 19.428 19.429s-8.715 19.429-19.428 19.429-19.429-8.716-19.429-19.429 8.716-19.429 19.429-19.429zm0 68.858c9.925 0 19.168-2.951 26.919-8.006 4.201 11.2 10.053 21.598 17.261 30.898l-27.634 27.634c-12.562-15.201-22.314-32.799-28.48-51.991 3.824.951 7.82 1.465 11.934 1.465zm65.393 44.105c9.3 7.207 19.698 13.06 30.898 17.26-5.055 7.752-8.006 16.995-8.006 26.919 0 4.114.513 8.11 1.465 11.934-19.192-6.166-36.79-15.918-51.991-28.48zm52.892 44.18c0-10.713 8.716-19.428 19.429-19.428s19.429 8.715 19.429 19.428-8.716 19.429-19.429 19.429-19.429-8.716-19.429-19.429zm60.852-26.92c11.2-4.201 21.598-10.053 30.898-17.26l27.634 27.634c-15.201 12.562-32.799 22.314-51.991 28.48.952-3.824 1.465-7.819 1.465-11.934 0-9.925-2.951-19.168-8.006-26.92zm52.111-38.473c7.207-9.3 13.06-19.698 17.261-30.898 7.752 5.055 16.995 8.006 26.919 8.006 4.114 0 8.11-.513 11.934-1.465-6.166 19.192-15.918 36.791-28.48 51.991zm44.18-52.892c-10.713 0-19.428-8.716-19.428-19.429s8.715-19.429 19.428-19.429 19.429 8.716 19.429 19.429-8.716 19.429-19.429 19.429zm0-68.858c-9.925 0-19.168 2.951-26.919 8.006-4.201-11.2-10.053-21.598-17.261-30.898l27.634-27.634c12.562 15.201 22.314 32.799 28.48 51.991-3.824-.951-7.82-1.465-11.934-1.465z"/></g></svg>