<?xml version="1.0" encoding="iso-8859-1"?>
<!-- Generator: Adobe Illustrator 12.0.0, SVG Export Plug-In . SVG Version: 6.00 Build 51448)  -->
<!DOCTYPE svg PUBLIC "-//W3C//DTD SVG 1.1//EN" "http://www.w3.org/Graphics/SVG/1.1/DTD/svg11.dtd" [
	<!ENTITY ns_svg "http://www.w3.org/2000/svg">
	<!ENTITY ns_xlink "http://www.w3.org/1999/xlink">
]>
<svg  version="1.1" id="Layer_1" xmlns="&ns_svg;" xmlns:xlink="&ns_xlink;" width="60.095" height="60.095"
	 viewBox="0 0 60.095 60.095" style="overflow:visible;enable-background:new 0 0 60.095 60.095;" xml:space="preserve">
<g>
	<path style="fill:#008FD3;" d="M60.095,52.176c0,4.37-3.771,7.919-8.43,7.919H8.437C3.778,60.095,0,56.546,0,52.176V7.923
		C0,3.55,3.778,0,8.437,0h43.229c4.658,0,8.43,3.55,8.43,7.923V52.176z M57.167,10.079c0-3.947-3.404-7.151-7.608-7.151H10.542
		c-4.204,0-7.614,3.204-7.614,7.151V50.02c0,3.944,3.41,7.147,7.614,7.147h39.017c4.204,0,7.608-3.203,7.608-7.147V10.079z"/>
	<g>
		<g>
			<rect id="barcode0_bar1" x="5.5" y="11.792" style="fill:#008FD3;" width="0.732" height="34.952"/>
			<rect id="barcode0_bar3" x="6.966" y="11.792" style="fill:#008FD3;" width="0.732" height="34.952"/>
			<rect id="barcode0_bar5" x="8.431" y="11.792" style="fill:#008FD3;" width="0.733" height="29.09"/>
			<rect id="barcode0_bar7" x="9.897" y="11.792" style="fill:#008FD3;" width="2.931" height="29.09"/>
			<rect id="barcode0_bar9" x="13.561" y="11.792" style="fill:#008FD3;" width="1.466" height="29.09"/>
			<rect id="barcode0_bar11" x="17.224" y="11.792" style="fill:#008FD3;" width="0.732" height="29.09"/>
			<rect id="barcode0_bar13" x="18.689" y="11.792" style="fill:#008FD3;" width="1.466" height="29.09"/>
			<rect id="barcode0_bar15" x="20.888" y="11.792" style="fill:#008FD3;" width="2.198" height="29.09"/>
			<rect id="barcode0_bar17" x="23.819" y="11.792" style="fill:#008FD3;" width="2.932" height="29.09"/>
			<rect id="barcode0_bar19" x="27.483" y="11.792" style="fill:#008FD3;" width="0.732" height="29.09"/>
			<rect id="barcode0_bar21" x="28.948" y="11.792" style="fill:#008FD3;" width="0.733" height="34.952"/>
			<rect id="barcode0_bar23" x="30.415" y="11.792" style="fill:#008FD3;" width="0.732" height="34.952"/>
			<rect id="barcode0_bar25" x="31.88" y="11.792" style="fill:#008FD3;" width="0.732" height="29.09"/>
			<rect id="barcode0_bar27" x="35.543" y="11.792" style="fill:#008FD3;" width="0.732" height="29.09"/>
			<rect id="barcode0_bar29" x="37.009" y="11.792" style="fill:#008FD3;" width="1.465" height="29.09"/>
			<rect id="barcode0_bar31" x="39.207" y="11.792" style="fill:#008FD3;" width="1.465" height="29.09"/>
			<rect id="barcode0_bar33" x="42.139" y="11.792" style="fill:#008FD3;" width="0.732" height="29.09"/>
			<rect id="barcode0_bar35" x="44.336" y="11.792" style="fill:#008FD3;" width="2.198" height="29.09"/>
			<rect id="barcode0_bar37" x="47.268" y="11.792" style="fill:#008FD3;" width="0.732" height="29.09"/>
			<rect id="barcode0_bar39" x="48.732" y="11.792" style="fill:#008FD3;" width="2.198" height="29.09"/>
			<rect id="barcode0_bar41" x="52.396" y="11.792" style="fill:#008FD3;" width="0.733" height="34.952"/>
			<rect id="barcode0_bar43" x="53.862" y="11.792" style="fill:#008FD3;" width="0.732" height="34.952"/>
			<path id="barcode0_bottomtext" style="fill:#008FD3;" d="M11.938,45.547c-0.292,0-0.523,0.101-0.696,0.299
				c-0.169,0.2-0.254,0.475-0.254,0.821c0,0.346,0.085,0.62,0.254,0.821c0.172,0.2,0.404,0.3,0.696,0.3c0.292,0,0.523-0.1,0.692-0.3
				c0.172-0.201,0.258-0.476,0.258-0.821c0-0.347-0.086-0.621-0.258-0.821C12.461,45.647,12.23,45.547,11.938,45.547 M13.229,43.508
				v0.594c-0.164-0.078-0.329-0.137-0.496-0.178c-0.166-0.041-0.33-0.062-0.493-0.062c-0.429,0-0.758,0.146-0.985,0.436
				c-0.226,0.29-0.354,0.728-0.387,1.313c0.126-0.186,0.286-0.329,0.477-0.428c0.191-0.101,0.401-0.151,0.631-0.151
				c0.483,0,0.864,0.147,1.143,0.441c0.281,0.292,0.422,0.69,0.422,1.194c0,0.494-0.146,0.891-0.438,1.188
				c-0.292,0.299-0.681,0.447-1.166,0.447c-0.556,0-0.981-0.212-1.274-0.637c-0.294-0.428-0.442-1.046-0.442-1.855
				c0-0.76,0.181-1.364,0.541-1.815c0.36-0.453,0.845-0.68,1.453-0.68c0.163,0,0.327,0.016,0.492,0.048
				C12.875,43.396,13.049,43.444,13.229,43.508 M14.672,43.401h2.554v0.549h-1.958v1.178c0.094-0.032,0.189-0.056,0.283-0.07
				c0.094-0.018,0.189-0.026,0.283-0.026c0.537,0,0.962,0.147,1.275,0.441c0.313,0.294,0.47,0.692,0.47,1.194
				c0,0.519-0.161,0.92-0.483,1.208c-0.322,0.285-0.776,0.428-1.362,0.428c-0.202,0-0.407-0.017-0.618-0.051
				c-0.208-0.035-0.424-0.086-0.647-0.154v-0.654c0.193,0.105,0.392,0.184,0.599,0.234c0.207,0.053,0.424,0.078,0.654,0.078
				c0.371,0,0.665-0.098,0.882-0.293s0.325-0.461,0.325-0.796s-0.108-0.6-0.325-0.795s-0.511-0.293-0.882-0.293
				c-0.174,0-0.348,0.02-0.522,0.058c-0.171,0.039-0.348,0.1-0.528,0.181V43.401 M20.256,45.927c-0.309,0-0.553,0.082-0.731,0.249
				c-0.176,0.164-0.264,0.392-0.264,0.682s0.088,0.518,0.264,0.683c0.178,0.165,0.422,0.248,0.731,0.248s0.552-0.083,0.731-0.248
				c0.179-0.167,0.268-0.396,0.268-0.683c0-0.29-0.089-0.518-0.268-0.682C20.811,46.009,20.567,45.927,20.256,45.927 M19.605,45.65
				c-0.279-0.069-0.498-0.198-0.654-0.39c-0.155-0.191-0.231-0.424-0.231-0.699c0-0.385,0.136-0.688,0.408-0.911
				c0.275-0.223,0.65-0.335,1.127-0.335c0.479,0,0.854,0.112,1.127,0.335c0.272,0.224,0.409,0.526,0.409,0.911
				c0,0.275-0.078,0.508-0.235,0.699c-0.154,0.191-0.37,0.32-0.647,0.39c0.313,0.072,0.557,0.215,0.731,0.428
				c0.176,0.212,0.264,0.473,0.264,0.779c0,0.466-0.143,0.823-0.429,1.072c-0.283,0.249-0.69,0.373-1.22,0.373
				s-0.938-0.124-1.224-0.373c-0.284-0.249-0.425-0.606-0.425-1.072c0-0.307,0.088-0.567,0.264-0.779
				C19.047,45.865,19.292,45.723,19.605,45.65 M19.367,44.623c0,0.249,0.077,0.443,0.232,0.583c0.157,0.14,0.375,0.208,0.657,0.208
				c0.279,0,0.497-0.068,0.654-0.208c0.159-0.14,0.238-0.334,0.238-0.583c0-0.25-0.079-0.444-0.238-0.583
				c-0.157-0.14-0.375-0.209-0.654-0.209c-0.281,0-0.5,0.069-0.657,0.209C19.444,44.179,19.367,44.373,19.367,44.623 M25.035,45.617
				c0.311,0.067,0.554,0.205,0.728,0.416c0.176,0.21,0.264,0.471,0.264,0.778c0,0.476-0.163,0.843-0.489,1.102
				c-0.327,0.261-0.791,0.39-1.392,0.39c-0.201,0-0.41-0.02-0.625-0.061c-0.213-0.039-0.433-0.098-0.66-0.178v-0.628
				c0.18,0.105,0.378,0.185,0.592,0.238c0.215,0.054,0.439,0.081,0.673,0.081c0.408,0,0.718-0.081,0.931-0.241
				c0.214-0.161,0.322-0.396,0.322-0.703c0-0.283-0.1-0.503-0.3-0.663c-0.198-0.16-0.474-0.241-0.828-0.241h-0.561v-0.534h0.586
				c0.319,0,0.564-0.063,0.734-0.19c0.169-0.129,0.254-0.313,0.254-0.554c0-0.247-0.088-0.436-0.264-0.566
				c-0.173-0.134-0.424-0.2-0.75-0.2c-0.178,0-0.37,0.02-0.573,0.059c-0.205,0.038-0.428,0.099-0.673,0.181v-0.58
				c0.247-0.069,0.478-0.121,0.692-0.154c0.217-0.034,0.42-0.052,0.612-0.052c0.494,0,0.884,0.113,1.172,0.338
				c0.288,0.224,0.432,0.525,0.432,0.908c0,0.267-0.076,0.491-0.229,0.676C25.532,45.42,25.315,45.547,25.035,45.617 M35.52,45.617
				c0.311,0.067,0.553,0.205,0.728,0.416c0.176,0.21,0.264,0.471,0.264,0.778c0,0.476-0.162,0.843-0.49,1.102
				c-0.325,0.261-0.79,0.39-1.391,0.39c-0.201,0-0.41-0.02-0.625-0.061c-0.212-0.039-0.433-0.098-0.66-0.178v-0.628
				c0.182,0.105,0.379,0.185,0.594,0.238c0.214,0.054,0.438,0.081,0.672,0.081c0.408,0,0.719-0.081,0.932-0.241
				c0.215-0.161,0.322-0.396,0.322-0.703c0-0.283-0.1-0.503-0.3-0.663c-0.198-0.16-0.474-0.241-0.828-0.241h-0.561v-0.534h0.587
				c0.319,0,0.563-0.063,0.733-0.19c0.171-0.129,0.255-0.313,0.255-0.554c0-0.247-0.088-0.436-0.264-0.566
				c-0.175-0.134-0.425-0.2-0.751-0.2c-0.178,0-0.369,0.02-0.573,0.059c-0.204,0.038-0.428,0.099-0.673,0.181v-0.58
				c0.247-0.069,0.478-0.121,0.692-0.154c0.217-0.034,0.421-0.052,0.611-0.052c0.495,0,0.886,0.113,1.174,0.338
				c0.287,0.224,0.431,0.525,0.431,0.908c0,0.267-0.076,0.491-0.229,0.676C36.017,45.42,35.801,45.547,35.52,45.617 M38.295,47.663
				h2.271v0.547h-3.054v-0.547c0.247-0.256,0.583-0.599,1.009-1.028c0.427-0.432,0.695-0.709,0.804-0.834
				c0.209-0.233,0.354-0.432,0.436-0.592c0.084-0.163,0.126-0.323,0.126-0.479c0-0.256-0.09-0.465-0.271-0.625
				c-0.178-0.161-0.411-0.242-0.698-0.242c-0.205,0-0.42,0.036-0.647,0.106c-0.226,0.071-0.467,0.179-0.725,0.322v-0.656
				c0.262-0.105,0.507-0.186,0.733-0.238c0.229-0.054,0.436-0.081,0.625-0.081c0.498,0,0.896,0.124,1.19,0.373
				c0.297,0.249,0.445,0.582,0.445,0.999c0,0.197-0.037,0.385-0.111,0.563c-0.073,0.175-0.208,0.384-0.403,0.624
				c-0.054,0.063-0.225,0.243-0.512,0.542C39.226,46.712,38.818,47.128,38.295,47.663 M41.927,43.401h2.555v0.549h-1.958v1.178
				c0.094-0.032,0.188-0.056,0.283-0.07c0.094-0.018,0.188-0.026,0.283-0.026c0.536,0,0.961,0.147,1.274,0.441
				c0.314,0.294,0.472,0.692,0.472,1.194c0,0.519-0.161,0.92-0.484,1.208c-0.322,0.285-0.775,0.428-1.361,0.428
				c-0.202,0-0.407-0.017-0.618-0.051c-0.209-0.035-0.424-0.086-0.648-0.154v-0.654c0.194,0.105,0.394,0.184,0.601,0.234
				c0.205,0.053,0.423,0.078,0.652,0.078c0.372,0,0.666-0.098,0.883-0.293c0.216-0.195,0.325-0.461,0.325-0.796
				s-0.109-0.6-0.325-0.795c-0.217-0.195-0.511-0.293-0.883-0.293c-0.174,0-0.347,0.02-0.521,0.058
				c-0.171,0.039-0.348,0.1-0.528,0.181V43.401 M47.907,43.969l-1.642,2.566h1.642V43.969 M47.735,43.401h0.819v3.134h0.686v0.541
				h-0.686v1.134h-0.647v-1.134h-2.17v-0.628L47.735,43.401"/>
		</g>
	</g>
</g>
</svg>
