<svg id="Layer_1" data-name="Layer 1" xmlns="http://www.w3.org/2000/svg" viewBox="0 0 30 30"><defs><style>.cls-1,.cls-2,.cls-3{fill:#fff;}.cls-2{opacity:0.5;}.cls-3{opacity:0.2;}</style></defs><title>Bell White Icon</title><circle class="cls-1" cx="15" cy="27.2" r="2.65"/><path class="cls-1" d="M15,5.69a2.77,2.77,0,1,1,2.77-2.77A2.77,2.77,0,0,1,15,5.69Zm0-4a1.27,1.27,0,1,0,1.27,1.27A1.27,1.27,0,0,0,15,1.65Z"/><path class="cls-1" d="M22,13.9V10.53a7,7,0,0,0-7-7h0a7,7,0,0,0-7,7V13.9c0,8-3.41,8-3.41,11.61C4.56,27.28,6.06,27,7.88,27H22.12c1.83,0,3.32.3,3.32-1.52C25.44,21.84,22,21.94,22,13.9Z"/><path class="cls-2" d="M22,13.9V10.53a7,7,0,0,0-7-7h0a5.27,5.27,0,0,1,2,3.86c.35,2.91-1.09,11.12.57,16.47,1,3.28.18,3.19-.27,3.19h4.8c1.83,0,3.32.3,3.32-1.52C25.44,21.84,22,21.94,22,13.9Z"/><path class="cls-1" d="M22,13.9V10.53a7,7,0,0,0-7-7h0a7,7,0,0,0-7,7V13.9c0,8-3.41,8-3.41,11.61C4.56,27.28,6.06,27,7.88,27H22.12c1.83,0,3.32.3,3.32-1.52C25.44,21.84,22,21.94,22,13.9Z"/><path class="cls-3" d="M11.92,6.54a8.42,8.42,0,0,1,1.2-2.77l-.2.06a8.33,8.33,0,0,0-2.42,4.11c-1,3.37-.51,9.68-1.79,12.94-1.43,3.63-1.6,5.3-1.47,6.17h3a26.34,26.34,0,0,1,.89-5.84C12.15,17.86,11.3,8.88,11.92,6.54Z"/></svg>