<?xml version="1.0" encoding="iso-8859-1"?>
<!-- Generator: Adobe Illustrator 12.0.0, SVG Export Plug-In . SVG Version: 6.00 Build 51448)  -->
<!DOCTYPE svg PUBLIC "-//W3C//DTD SVG 1.1//EN" "http://www.w3.org/Graphics/SVG/1.1/DTD/svg11.dtd" [
	<!ENTITY ns_svg "http://www.w3.org/2000/svg">
	<!ENTITY ns_xlink "http://www.w3.org/1999/xlink">
]>
<svg  version="1.1" id="Layer_1" xmlns="&ns_svg;" xmlns:xlink="&ns_xlink;" width="15.87" height="15.872"
	 viewBox="0 0 15.87 15.872" style="overflow:visible;enable-background:new 0 0 15.87 15.872;" xml:space="preserve">
<g>
	<rect style="fill:none;" width="15.87" height="15.872"/>
	<g>
		<path style="fill:#0071C5;" d="M7.444,14.79L0.859,8.237c-0.27-0.304-0.27-0.743,0-1.012l0.607-0.607l5.978,5.943
			c0.27,0.27,0.709,0.27,0.979,0l5.978-5.943l0.607,0.607c0.271,0.271,0.271,0.708,0,1.012L8.425,14.79
			C8.155,15.061,7.714,15.061,7.444,14.79L7.444,14.79z"/>
		<path style="fill:#0071C5;" d="M7.444,9.051L0.859,2.499c-0.27-0.305-0.27-0.742,0-1.014l0.607-0.606l5.978,5.943
			c0.27,0.271,0.709,0.271,0.979,0l5.978-5.943l0.607,0.606c0.271,0.272,0.271,0.709,0,1.014L8.425,9.051
			C8.155,9.321,7.714,9.321,7.444,9.051L7.444,9.051z"/>
	</g>
</g>
</svg>
