<?xml version="1.0" encoding="utf-8"?>
<!-- Generator: Adobe Illustrator 22.0.1, SVG Export Plug-In . SVG Version: 6.00 Build 0)  -->
<svg version="1.1" id="Layer_1" xmlns="http://www.w3.org/2000/svg" xmlns:xlink="http://www.w3.org/1999/xlink" x="0px" y="0px"
	 viewBox="0 0 30 30" style="enable-background:new 0 0 30 30;" xml:space="preserve">
<style type="text/css">
	.st0{fill:#A8A240;}
	.st1{fill:#FF040F;}
	.st2{fill:#00A4F5;}
	.st3{fill:#70B74F;}
	.st4{fill:#EFC150;}
	.st5{fill:#F45DF4;}
	.st6{fill:#1B75BC;}
	.st7{fill:#F15A29;}
	.st8{fill:#40875E;}
	.st9{fill:#F0AB00;}
	.st10{fill:none;stroke:#231F20;stroke-width:2.5;stroke-miterlimit:10;}
	.st11{fill:#DB9E16;}
	.st12{fill:#DB9E16;stroke:#EFC150;stroke-width:0.75;stroke-miterlimit:10;}
	.st13{fill:none;stroke:#DB9E16;stroke-width:0.75;stroke-miterlimit:10;}
	.st14{fill:none;stroke:#A3832E;stroke-width:0.5;stroke-miterlimit:10;}
	.st15{fill-rule:evenodd;clip-rule:evenodd;fill:#938D8D;}
	.st16{fill:#AFADAA;}
	.st17{fill:#FFD00F;}
	.st18{fill:#A3832E;}
	.st19{fill:#F4E5A9;}
</style>
<path class="st11" d="M17.6,24.4h-5.2c-0.4,0-0.7,0.3-0.7,0.7c0,0.4,0.3,0.7,0.7,0.7h5.2c0.4,0,0.7-0.3,0.7-0.7
	C18.4,24.7,18,24.4,17.6,24.4z"/>
<path class="st11" d="M13.7,28.6c0.1,0.7,0.7,1.2,1.3,1.2c0.7,0,1.2-0.5,1.3-1.2c0.9-0.1,1.6-0.8,1.6-1.7h-5.9
	C12.1,27.9,12.8,28.6,13.7,28.6z"/>
<path class="st4" d="M22.1,13.2c0-3.9-3.2-7.1-7.1-7.1C11.1,6.1,8,9.3,8,13.2c0,1.6,0.6,3.2,1.5,4.4c0.8,1.1,1.6,2.2,2.3,3.4v2.3
	h6.5V21c0.7-1.1,1.5-2.4,2.3-3.4C21.5,16.3,22.1,14.8,22.1,13.2z"/>
<line class="st13" x1="15.1" y1="0.3" x2="15.1" y2="4.8"/>
<line class="st13" x1="7.2" y1="2.9" x2="9.7" y2="6.5"/>
<line class="st13" x1="2.4" y1="9.8" x2="6.4" y2="11.1"/>
<line class="st13" x1="2.3" y1="18.2" x2="6.4" y2="16.8"/>
<line class="st13" x1="7.2" y1="25.1" x2="9.7" y2="21.4"/>
<line class="st13" x1="23" y1="2.9" x2="20.4" y2="6.5"/>
<line class="st13" x1="27.8" y1="9.8" x2="23.8" y2="11.1"/>
<line class="st13" x1="27.9" y1="18.2" x2="23.8" y2="16.8"/>
<line class="st13" x1="23" y1="25.1" x2="20.4" y2="21.4"/>
</svg>
