<?xml version="1.0" encoding="iso-8859-1"?>
<!-- Generator: Adobe Illustrator 12.0.0, SVG Export Plug-In . SVG Version: 6.00 Build 51448)  -->
<!DOCTYPE svg PUBLIC "-//W3C//DTD SVG 1.1//EN" "http://www.w3.org/Graphics/SVG/1.1/DTD/svg11.dtd" [
	<!ENTITY ns_svg "http://www.w3.org/2000/svg">
	<!ENTITY ns_xlink "http://www.w3.org/1999/xlink">
]>
<svg  version="1.1" id="Layer_1" xmlns="&ns_svg;" xmlns:xlink="&ns_xlink;" width="60.095" height="60.095"
	 viewBox="0 0 60.095 60.095" style="overflow:visible;enable-background:new 0 0 60.095 60.095;" xml:space="preserve">
<g>
	<path style="fill:#008FD3;" d="M60.095,52.176c0,4.37-3.771,7.919-8.43,7.919H8.437C3.778,60.095,0,56.546,0,52.176V7.923
		C0,3.55,3.778,0,8.437,0h43.229c4.658,0,8.43,3.55,8.43,7.923V52.176z M57.167,10.079c0-3.947-3.404-7.151-7.608-7.151H10.542
		c-4.204,0-7.614,3.204-7.614,7.151V50.02c0,3.944,3.41,7.147,7.614,7.147h39.017c4.204,0,7.608-3.203,7.608-7.147V10.079z"/>
	<g>
		<path style="fill:#008FD3;" d="M49.697,42.214c-0.455-0.454-1.009-0.684-1.66-0.684H37.6c-0.342,0.912-0.915,1.663-1.723,2.248
			c-0.807,0.589-1.706,0.881-2.701,0.881h-6.257c-0.995,0-1.896-0.292-2.701-0.881c-0.808-0.585-1.382-1.336-1.723-2.248H12.058
			c-0.652,0-1.205,0.229-1.663,0.684c-0.456,0.458-0.684,1.012-0.684,1.664v7.821c0,0.65,0.229,1.206,0.684,1.661
			c0.458,0.457,1.011,0.684,1.663,0.684h35.979c0.651,0,1.205-0.227,1.662-0.684c0.455-0.456,0.685-1.011,0.685-1.661v-7.821
			C50.384,43.226,50.154,42.672,49.697,42.214L49.697,42.214z M40.533,50.451c-0.31,0.312-0.676,0.465-1.1,0.465
			c-0.425,0-0.791-0.153-1.1-0.465c-0.31-0.31-0.465-0.675-0.465-1.1c0-0.423,0.155-0.79,0.465-1.099
			c0.309-0.311,0.675-0.464,1.1-0.464c0.424,0,0.79,0.153,1.1,0.464c0.31,0.309,0.465,0.676,0.465,1.099
			C40.998,49.776,40.843,50.142,40.533,50.451L40.533,50.451z M46.789,50.451c-0.308,0.312-0.676,0.465-1.1,0.465
			c-0.423,0-0.789-0.153-1.1-0.465c-0.309-0.31-0.463-0.675-0.463-1.1c0-0.423,0.154-0.79,0.463-1.099
			c0.311-0.311,0.677-0.464,1.1-0.464c0.424,0,0.792,0.153,1.1,0.464c0.31,0.309,0.466,0.676,0.466,1.099
			C47.255,49.776,47.101,50.142,46.789,50.451L46.789,50.451z M46.789,50.451"/>
		<g>
			<g>
				<path style="fill:#008FD3;" d="M26.43,40.725c0,0.559-0.339,1.011-0.758,1.011l0,0c-0.418,0-0.758-0.452-0.758-1.011V25.306
					c0-0.559,0.34-1.011,0.758-1.011l0,0c0.418,0,0.758,0.452,0.758,1.011V40.725z"/>
				<path style="fill:#008FD3;" d="M29.492,40.725c0,0.559-0.339,1.011-0.758,1.011l0,0c-0.418,0-0.758-0.452-0.758-1.011v-17.82
					c0-0.559,0.34-1.011,0.758-1.011l0,0c0.418,0,0.758,0.452,0.758,1.011V40.725z"/>
				<path style="fill:#008FD3;" d="M32.553,40.725c0,0.559-0.339,1.011-0.757,1.011l0,0c-0.42,0-0.759-0.452-0.759-1.011v-17.82
					c0-0.559,0.339-1.011,0.759-1.011l0,0c0.418,0,0.757,0.452,0.757,1.011V40.725z"/>
				<path style="fill:#008FD3;" d="M35.614,40.725c0,0.559-0.34,1.011-0.758,1.011l0,0c-0.42,0-0.759-0.452-0.759-1.011V25.306
					c0-0.559,0.339-1.011,0.759-1.011l0,0c0.418,0,0.758,0.452,0.758,1.011V40.725z"/>
			</g>
			<g>
				<path style="fill:#008FD3;" d="M47.144,23.112c0.434-0.369,0.434-0.961-0.009-1.322L31.129,6.628
					c-0.05-0.115-0.132-0.219-0.244-0.311c-0.231-0.193-0.54-0.277-0.845-0.265c-0.3-0.012-0.604,0.072-0.835,0.265
					c-0.106,0.088-0.184,0.192-0.24,0.303l-16.01,15.163c-0.439,0.368-0.439,0.96,0,1.326c0.438,0.365,1.149,0.365,1.587,0
					L30.045,8.403l15.513,14.709C45.996,23.477,46.706,23.477,47.144,23.112L47.144,23.112z"/>
				<path style="fill:#008FD3;" d="M42.742,23.06c0.319-0.271,0.319-0.705-0.007-0.97L30.843,10.802
					c-0.038-0.084-0.099-0.161-0.181-0.229c-0.17-0.142-0.396-0.203-0.62-0.195c-0.22-0.008-0.444,0.053-0.613,0.195
					c-0.078,0.065-0.136,0.141-0.176,0.223L17.356,22.083c-0.321,0.271-0.321,0.706,0,0.973c0.322,0.268,0.844,0.268,1.166,0
					l11.523-10.952L41.576,23.06C41.899,23.328,42.42,23.328,42.742,23.06L42.742,23.06z"/>
				<path style="fill:#008FD3;" d="M39.181,23.167c0.253-0.215,0.253-0.56-0.005-0.77l-8.498-7.932
					c-0.03-0.067-0.078-0.127-0.143-0.182c-0.133-0.111-0.314-0.161-0.491-0.154c-0.175-0.007-0.352,0.042-0.487,0.154
					c-0.062,0.052-0.107,0.112-0.141,0.177l-8.5,7.932c-0.255,0.215-0.255,0.559,0,0.772c0.255,0.212,0.669,0.212,0.924,0
					l8.205-7.666l8.211,7.668C38.512,23.38,38.926,23.38,39.181,23.167L39.181,23.167z"/>
				<path style="fill:#008FD3;" d="M36.125,23.324c0.19-0.163,0.19-0.423-0.004-0.582l-5.597-5.092
					c-0.022-0.051-0.059-0.096-0.108-0.137c-0.102-0.085-0.237-0.122-0.372-0.117c-0.133-0.005-0.266,0.032-0.368,0.117
					c-0.047,0.039-0.081,0.084-0.106,0.134l-5.599,5.091c-0.193,0.163-0.193,0.423,0,0.584c0.193,0.16,0.507,0.16,0.699,0
					l5.375-4.891l5.378,4.892C35.618,23.485,35.933,23.485,36.125,23.324L36.125,23.324z"/>
			</g>
		</g>
	</g>
</g>
</svg>
