<?xml version="1.0" encoding="utf-8"?>
<!-- Generator: Adobe Illustrator 25.0.0, SVG Export Plug-In . SVG Version: 6.00 Build 0)  -->
<svg version="1.1" id="Layer_1" xmlns="http://www.w3.org/2000/svg" xmlns:xlink="http://www.w3.org/1999/xlink" x="0px" y="0px"
	 viewBox="0 0 36 36" style="enable-background:new 0 0 36 36;" xml:space="preserve">
<style type="text/css">
	.st0{fill:#7AB5F4;}
	.st1{fill:#FFFFFF;}
	.st2{fill:#0B4A99;}
	.st3{fill:#CB1618;}
	.st4{fill:none;}
	.st5{opacity:0.25;}
	.st6{fill:none;stroke:#0B4A99;stroke-width:3.000000e-02;stroke-miterlimit:10;}
</style>
<rect x="25.6" y="9.2" class="st0" width="7.3" height="16.2"/>
<g>
	<g>
		<path class="st2" d="M10.2,22.8H1.5v-15h8.7V22.8z M3.1,21.2h5.6V9.4H3.1V21.2z"/>
	</g>
	<g>
		<rect x="5" y="3.6" class="st2" width="1.6" height="4.9"/>
	</g>
	<g>
		<rect x="5" y="21.8" class="st2" width="1.6" height="9.6"/>
	</g>
</g>
<g>
	<g>
		<path class="st2" d="M21.8,27.8h-8.7V14.3h8.7V27.8z M14.7,26.2h5.6V15.9h-5.6V26.2z"/>
	</g>
	<g>
		<rect x="16.7" y="3.6" class="st2" width="1.6" height="11.3"/>
	</g>
	<g>
		<rect x="16.7" y="27" class="st2" width="1.6" height="4.4"/>
	</g>
</g>
<g>
	<g>
		<path class="st2" d="M33.5,26.1h-8.7V8.5h8.7V26.1z M26.3,24.5h5.6V10.1h-5.6V24.5z"/>
	</g>
	<g>
		<rect x="28.3" y="3.6" class="st2" width="1.6" height="4.9"/>
	</g>
	<g>
		<rect x="28.3" y="25.4" class="st2" width="1.6" height="6"/>
	</g>
</g>
</svg>
