<?xml version="1.0" encoding="utf-8"?>
<!-- Generator: Adobe Illustrator 25.0.0, SVG Export Plug-In . SVG Version: 6.00 Build 0)  -->
<svg version="1.1" id="Layer_1" xmlns="http://www.w3.org/2000/svg" xmlns:xlink="http://www.w3.org/1999/xlink" x="0px" y="0px"
	 viewBox="0 0 26 26" style="enable-background:new 0 0 26 26;" xml:space="preserve">
<style type="text/css">
	.st0{fill:#A8A240;}
	.st1{fill:#F0AB00;}
	.st2{fill:#40875E;}
	.st3{fill:#367A51;}
</style>
<g>
	<circle class="st0" cx="5.2" cy="23.4" r="2.2"/>
	<circle class="st1" cx="5.2" cy="23.4" r="1.3"/>
	<circle class="st0" cx="18.2" cy="23.4" r="2.2"/>
	<circle class="st1" cx="18.2" cy="23.4" r="1.3"/>
	<path class="st2" d="M22.8,1.2c-0.2,0-0.3,0.1-0.3,0.3c-0.6,2.5-1.2,5-1.8,7.5c-0.4,1.5-0.7,3-1.1,4.5c-0.2,0.8-0.3,1.5-0.5,2.3
		c0,0.1,0,0.2,0.1,0.3c0.4,0.4,0.9,0.9,1.3,1.4c0.5,0.5,0.6,1.2,0.3,1.8c-0.3,0.7-0.8,1-1.6,1c-2.6,0-5.3,0-7.9,0c-3.5,0-7,0-10.4,0
		l0,0c0,0.5,0.3,0.9,0.8,0.9c0.5,0,1,0,1.4,0c0.3,0,1,3.2,2,3.2c1.1,0,1.8-3.1,2.2-3.1c2.9,0,5.7,0,8.6,0c0.4,0,1.3,2.8,1.7,3.1l0,0
		c0.7,0.4,1.3,0,1.4-0.6c0.1-0.4,0.8-2.6,1.1-2.8c1.6-0.7,2.1-2.8,1-4.1c-0.3-0.4-0.7-0.7-1-1c-0.1-0.1-0.1-0.2-0.1-0.4
		c0.3-1.4,0.7-2.8,1-4.2c0.7-3,1.4-6,2.1-9c0-0.1,0.1-0.2,0.3-0.2c0.5,0,0.9,0,1.4,0c0.5,0,0.9-0.1,1.2-0.6c0-0.1,0-0.2,0-0.3
		C24.9,1.2,23.9,1.2,22.8,1.2z"/>
	<path class="st0" d="M24.9,0.3c-0.8,0-1.5,0-2.3,0c-0.6,0-0.9,0.2-1,0.8c-0.1,0.6-0.3,1.2-0.4,1.8l0,0c0,0.1-0.1,0.3-0.1,0.4
		c0,0,0,0,0,0c0,0,0,0,0,0c-0.1,0.4-0.2,0.9-0.3,1.3c-0.2,0.9-0.4,1.7-0.6,2.6c0,0.3-0.1,0.6-0.2,0.9c0,0,0,0,0,0
		c-0.2,0.9-0.4,1.7-0.6,2.6c-0.1,0.3-0.1,0.6-0.2,0.9c0,0,0,0,0,0c0,0.1,0,0.3-0.1,0.4c-0.1,0.8-0.4,1.6-0.5,2.4
		c-0.1,0.5-0.2,1.1-0.4,1.6c0,0,0,0,0,0l0,0c0,0.3,0.2,0.5,0.4,0.7c0.4,0.4,0.8,0.8,1.2,1.2c0.2,0.2,0.4,0.5,0.3,0.9
		c-0.1,0.5-0.4,0.7-1,0.7c-5.7,0-11.4,0-17.1,0c-0.1,0-0.2,0-0.3,0c-0.5,0-0.8,0.4-0.8,0.9c0,0,0,0,0,0c0.1-0.1,0.3-0.1,0.4-0.1
		c2.7,0,5.3,0,8,0c3.3,0,6.5,0,9.8,0c0.5,0,1-0.1,1.4-0.6c0.6-0.8,0.5-1.7-0.3-2.4c-0.4-0.3-0.7-0.7-1-1C19,16,19,15.8,19.1,15.6
		c0.3-1.4,0.7-2.9,1-4.3c0.8-3.2,1.5-6.5,2.3-9.7c0.1-0.4,0.1-0.5,0.6-0.5c0.9,0,1.8,0,2.7,0c0.1,0,0.3,0,0.4,0.1c0-0.1,0-0.1,0-0.2
		C25.8,0.5,25.6,0.3,24.9,0.3z"/>
	<path class="st3" d="M25.6,1.1c-0.9,0-1.8,0-2.7,0c-0.4,0-0.5,0-0.6,0.5c-0.8,3.2-1.5,6.5-2.3,9.7c-0.3,1.4-0.7,2.9-1,4.3
		c0,0.2,0,0.4,0.1,0.5c0.4,0.3,0.7,0.7,1,1c0.8,0.7,0.9,1.7,0.3,2.4c-0.4,0.4-0.8,0.6-1.4,0.6c-3.3,0-6.5,0-9.8,0c-2.7,0-5.3,0-8,0
		c-0.1,0-0.3,0-0.4,0.1c3.5,0,7,0,10.4,0c2.6,0,5.3,0,7.9,0c0.7,0,1.3-0.3,1.6-1c0.3-0.7,0.2-1.3-0.3-1.8c-0.4-0.5-0.9-0.9-1.3-1.4
		c-0.1-0.1-0.1-0.2-0.1-0.3c0.2-0.7,0.4-1.5,0.5-2.3c0.4-1.5,0.7-3,1.1-4.5c0.6-2.5,1.2-5,1.8-7.5c0-0.2,0.1-0.3,0.3-0.3
		c1.1,0,2.1,0,3.2,0C25.9,1.1,25.7,1.1,25.6,1.1z"/>
	<path class="st1" d="M5.8,14.2C5.8,14.2,5.8,14.2,5.8,14.2c-0.7,0-0.7,0-0.7-0.6c0-0.6,0-1.2,0-1.8c0-0.2,0-0.2,0.2-0.2
		c0.7,0,1.4,0,2.2,0c0.2,0,0.2,0,0.2,0.2c0,0.3,0,0.7,0,1c0.3-0.2,0.5-0.4,0.8-0.6c0,0,0,0,0,0c0-0.2-0.1-0.5,0.1-0.6
		c0.1-0.1,0.4,0,0.6,0c0.1,0,0.2,0,0.3,0c0.3-0.3,0.8-0.5,1.1-0.8l0,0c-0.6,0-1.2,0-1.8,0c-0.2,0-0.2,0-0.2-0.2c0-0.7,0-1.4,0-2.2
		c0-0.2,0-0.2,0.2-0.2c0.7,0,1.4,0,2.2,0c0.2,0,0.2,0.1,0.2,0.2c0,0.7,0,1.3,0,2l0,0c0.3-0.2,0.6-0.4,0.8-0.6c0-0.5,0-1,0-1.4
		c0-0.2,0-0.2,0.2-0.2c0.7,0,1.4,0,2.1,0c0,0,0,0,0,0c0,0,0,0,0,0c0.4-0.3,0.8-0.6,1.2-0.9c0-0.8,0-1.6,0-2.4c0-0.2,0-0.2,0.2-0.2
		c0.7,0,1.5,0,2.2,0c0.2,0,0.2,0,0.2,0.2c0,0.2,0,0.3,0,0.5c0.3-0.2,0.6-0.4,0.8-0.5c0-0.2,0.1-0.2,0.2-0.2h0
		c0.6-0.4,1.1-0.9,1.8-1.2c0,0,0,0,0,0c0.1-0.1,0-0.3,0.2-0.4v0c-6.8,0-13.5,0-20.3,0c-0.7,0-1.1,0.5-0.9,1.2
		c1.1,3.7,2.3,7.4,3.4,11.1c0.1,0.2,0.1,0.4,0.3,0.5h0c0.6-0.5,1.3-0.9,1.9-1.4C5.8,14.3,5.8,14.2,5.8,14.2z M12.1,4.8
		c0-0.1,0-0.2,0.2-0.2c0.7,0,1.5,0,2.2,0c0.2,0,0.2,0.1,0.2,0.2c0,0.4,0,0.7,0,1.1c0,0.4,0,0.7,0,1.1c0,0.1,0,0.2-0.2,0.2
		c-0.7,0-1.5,0-2.2,0c-0.1,0-0.2,0-0.2-0.2C12.1,6.3,12.1,5.6,12.1,4.8z M8.7,6c0-0.4,0-0.7,0-1.1c0-0.2,0-0.2,0.2-0.2
		c0.7,0,1.5,0,2.2,0c0.1,0,0.2,0,0.2,0.2c0,0.7,0,1.5,0,2.2c0,0.1,0,0.2-0.2,0.2c-0.7,0-1.5,0-2.2,0C8.7,7.3,8.7,7.2,8.7,7
		C8.7,6.7,8.7,6.3,8.7,6z M5.4,4.6c0.7,0,1.5,0,2.2,0c0.1,0,0.2,0,0.2,0.2c0,0.8,0,1.5,0,2.3c0,0.1,0,0.2-0.2,0.2
		c-0.7,0-1.5,0-2.2,0C5.2,7.3,5.2,7.2,5.2,7c0-0.4,0-0.7,0-1.1c0-0.4,0-0.7,0-1.1C5.2,4.7,5.2,4.6,5.4,4.6z M5.4,8.1
		c0.4,0,0.7,0,1.1,0c0.4,0,0.7,0,1.1,0c0.1,0,0.2,0,0.2,0.2c0,0.7,0,1.5,0,2.2c0,0.2-0.1,0.2-0.2,0.2c-0.7,0-1.5,0-2.2,0
		c-0.2,0-0.2,0-0.2-0.2c0-0.7,0-1.5,0-2.2C5.2,8.1,5.2,8.1,5.4,8.1z M2.8,7.1C2.5,6.3,2.3,5.5,2,4.7c0.7,0,1.4,0,2.1,0
		c0.1,0,0.2,0,0.2,0.2c0,0.8,0,1.5,0,2.3c0,0.1,0,0.2-0.2,0.2c-0.4,0-0.8,0-1.2,0C2.9,7.3,2.8,7.2,2.8,7.1z M4.3,12
		c-0.1-0.1-0.1-0.2-0.1-0.3c0,0-0.1-0.1,0-0.1c0.1,0,0.1,0,0.1,0.1C4.3,11.8,4.3,11.9,4.3,12z M4.2,10.7c-0.1,0-0.3,0.1-0.3-0.1
		C3.6,9.8,3.4,9,3.1,8.2c0-0.1,0-0.1,0.1-0.1c0.3,0,0.6,0,0.9,0c0.1,0,0.1,0.1,0.1,0.2c0,0.4,0,0.8,0,1.1c0,0.4,0,0.7,0,1.1
		C4.3,10.6,4.4,10.7,4.2,10.7z"/>
	<path class="st1" d="M21.1,3.4C21.1,3.4,21.1,3.4,21.1,3.4C21.1,3.4,21.1,3.4,21.1,3.4C21.1,3.4,21.1,3.4,21.1,3.4
		c0.1-0.1,0.1-0.3,0.2-0.4C21.1,3,21.1,3.2,21.1,3.4z"/>
	<path class="st1" d="M18.2,15.5c0.2-1,0.4-1.9,0.7-2.9c0-0.2,0.1-0.4,0.1-0.6c0-0.1,0-0.1,0.1-0.2c0-0.1,0-0.2,0.1-0.2c0,0,0,0,0,0
		c0.1-0.3,0.1-0.6,0.2-0.8c-0.2,0-0.3-0.1-0.3-0.3c0-0.7,0-1.4,0-2c0-0.2,0.1-0.3,0.3-0.2c0.2,0,0.4,0,0.6,0
		c0.1-0.3,0.1-0.6,0.2-0.9c-0.3,0-0.6,0-0.9,0c-0.2,0-0.2,0-0.2-0.2c0-0.7,0-1.5,0-2.2c-0.2,0.2-0.4,0.3-0.6,0.5
		c-0.1,0-0.1,0.1-0.2,0.1c0,0.6,0,1.1,0,1.7c0,0.2,0,0.2-0.2,0.2c-0.8,0-1.6,0-2.3,0c0,0,0,0,0,0.1c-0.4,0.3-0.7,0.6-1.1,0.8
		c0.2,0,0.3,0.1,0.2,0.3c0,0.7,0,1.4,0,2.1c0,0.2,0,0.2-0.2,0.2c-0.7,0-1.4,0-2.2,0c-0.2,0-0.2,0-0.2-0.2c0-0.2,0-0.5,0-0.7
		c-0.2,0.3-0.5,0.4-0.8,0.6c0,0-0.1,0-0.1,0c0,0.4,0,0.4-0.5,0.4c0.1,0.1-0.1,0.1-0.1,0.2c-0.3,0.2-0.6,0.5-1,0.7c0.5,0,1,0,1.4,0
		c0.2,0,0.2,0,0.2,0.2c0,0.7,0,1.5,0,2.2c0,0.2,0,0.2-0.2,0.2c-0.7,0-1.5,0-2.2,0c-0.2,0-0.2,0-0.2-0.2c0-0.6,0-1.2,0-1.7
		c-0.2,0.2-0.5,0.4-0.8,0.6c0,0-0.1,0-0.1,0c0,0.4,0,0.8,0,1.2c0,0.2,0,0.2-0.2,0.2c-0.6,0-1.2,0-1.7,0c0,0,0,0.1-0.1,0.1
		c-0.1,0.1-0.3,0.2-0.4,0.3c-0.4,0.3-0.9,0.6-1.3,1c-0.1,0.1-0.2,0.1-0.3,0.1l0,0c0.2,0.2,0.4,0.2,0.6,0.2c4.6,0,9.2,0,13.8,0
		C18.1,15.8,18.2,15.6,18.2,15.5z M14.7,14c0,0.1,0,0.2-0.2,0.2c-0.8,0-1.5,0-2.3,0c-0.1,0-0.2,0-0.2-0.2c0-0.7,0-1.5,0-2.2
		c0-0.2,0.1-0.2,0.2-0.2c0.4,0,0.7,0,1.1,0c0.4,0,0.7,0,1.1,0c0.1,0,0.2,0,0.2,0.2C14.7,12.5,14.7,13.3,14.7,14z M15.6,9.4
		c0-0.4,0-0.7,0-1.1c0-0.1,0-0.2,0.2-0.2c0.7,0,1.5,0,2.2,0c0.1,0,0.2,0,0.2,0.2c0,0.8,0,1.5,0,2.3c0,0.1,0,0.2-0.2,0.2
		c-0.7,0-1.5,0-2.2,0c-0.2,0-0.2-0.1-0.2-0.2C15.6,10.1,15.6,9.8,15.6,9.4z M18,14.2c-0.4,0-0.7,0-1.1,0c-0.4,0-0.7,0-1.1,0
		c-0.2,0-0.2,0-0.2-0.2c0-0.7,0-1.5,0-2.2c0-0.2,0.1-0.2,0.2-0.2c0.7,0,1.5,0,2.2,0c0.2,0,0.2,0,0.2,0.2c0,0.7,0,1.4,0,2.2
		C18.2,14.2,18.1,14.2,18,14.2z"/>
	<path class="st1" d="M19.9,8.1C20,8.1,20,8.1,19.9,8.1C20,8.1,20,8.1,19.9,8.1C20,8.1,20,8.1,19.9,8.1c0.2-0.3,0.2-0.6,0.3-0.9
		c0,0,0,0-0.1,0C20.1,7.5,20,7.8,19.9,8.1z"/>
	<path class="st1" d="M18.6,14.3c0.2-0.8,0.4-1.6,0.5-2.4c0,0,0-0.1,0-0.1c0,0.1,0,0.1-0.1,0.2c0,0.2-0.1,0.4-0.1,0.6
		c-0.2,1-0.5,1.9-0.7,2.9c0,0.1-0.1,0.3,0,0.4c0,0,0,0,0,0C18.3,15.4,18.4,14.9,18.6,14.3z"/>
	<path class="st1" d="M19.1,11.6C19.1,11.6,19.1,11.6,19.1,11.6C19.1,11.6,19.2,11.6,19.1,11.6C19.2,11.6,19.2,11.6,19.1,11.6
		C19.2,11.6,19.2,11.6,19.1,11.6c0.2-0.3,0.2-0.6,0.3-0.9c0,0,0,0-0.1,0C19.2,11,19.2,11.3,19.1,11.6z"/>
	<path class="st1" d="M19.1,4.8c-0.3,0.2-0.6,0.4-0.8,0.5c0,0,0,0,0,0c0.1,0,0.1,0,0.2-0.1C18.6,5.2,18.9,5,19.1,4.8
		C19.1,4.8,19.1,4.8,19.1,4.8L19.1,4.8z"/>
	<path class="st1" d="M14.4,8.1C14.4,8.1,14.4,8.1,14.4,8.1C14.4,8.1,14.5,8.1,14.4,8.1c0.5-0.2,0.8-0.5,1.2-0.8c0,0,0,0,0-0.1
		c0,0,0,0,0,0C15.2,7.5,14.8,7.8,14.4,8.1z"/>
	<path class="st1" d="M11.3,10.3L11.3,10.3L11.3,10.3C11.3,10.3,11.3,10.3,11.3,10.3C11.3,10.4,11.3,10.4,11.3,10.3
		c0.4-0.2,0.6-0.3,0.8-0.6c0,0,0,0,0,0C11.8,9.9,11.6,10.1,11.3,10.3z"/>
	<path class="st1" d="M10.7,10.7L10.7,10.7c-0.4,0.3-0.8,0.5-1.1,0.8c0,0,0,0,0.1,0c0.3-0.2,0.6-0.4,1-0.7
		C10.6,10.9,10.8,10.8,10.7,10.7C10.7,10.7,10.7,10.7,10.7,10.7L10.7,10.7z"/>
	<path class="st1" d="M7.8,12.8C7.8,12.8,7.8,12.8,7.8,12.8C7.8,12.9,7.9,12.9,7.8,12.8c0.3-0.2,0.6-0.3,0.8-0.6c0,0,0,0,0,0
		C8.3,12.4,8.1,12.6,7.8,12.8z"/>
	<path class="st1" d="M5.4,14.6c0.1-0.1,0.3-0.2,0.4-0.3c0.1,0,0.1-0.1,0.1-0.1c0,0,0,0,0,0c0,0-0.1,0.1-0.1,0.1
		c-0.6,0.5-1.3,0.9-1.9,1.4c0.1,0,0.2-0.1,0.3-0.1C4.5,15.3,4.9,15,5.4,14.6z"/>
	<path class="st1" d="M19.4,4.6c0.5-0.1,0.9-0.1,1.4,0c0.1-0.4,0.2-0.8,0.3-1.2c-0.2,0.2-0.4,0.3-0.6,0.4
		C20.1,4.1,19.8,4.4,19.4,4.6z"/>
	<path class="st1" d="M21,3.4c-0.1,0.4-0.2,0.8-0.3,1.2c0,0,0,0,0.1,0C20.9,4.2,21,3.8,21,3.4C21.1,3.4,21.1,3.4,21,3.4
		C21.1,3.4,21.1,3.4,21,3.4z"/>
	<path class="st1" d="M20.5,3.8c0.2-0.1,0.4-0.2,0.6-0.4c0,0,0,0,0,0c-0.6,0.4-1.2,0.8-1.8,1.2c0,0,0.1,0,0.1,0
		C19.8,4.4,20.1,4.1,20.5,3.8z"/>
	<path class="st1" d="M21,3.4C21.1,3.4,21.1,3.4,21,3.4C21.1,3.4,21.1,3.4,21,3.4C21,3.4,21,3.4,21,3.4z"/>
	<path class="st1" d="M19.4,4.6C19.4,4.6,19.4,4.6,19.4,4.6c0.4,0,0.9,0,1.4,0c0,0,0,0,0,0C20.3,4.5,19.8,4.5,19.4,4.6z"/>
	<path class="st1" d="M20.7,4.7C20.8,4.7,20.8,4.7,20.7,4.7C20.8,4.6,20.8,4.6,20.7,4.7C20.7,4.6,20.7,4.6,20.7,4.7z"/>
	<path class="st1" d="M19.4,4.6C19.4,4.6,19.4,4.6,19.4,4.6C19.4,4.6,19.3,4.6,19.4,4.6L19.4,4.6C19.3,4.6,19.3,4.6,19.4,4.6z"/>
	<polygon class="st1" points="10.7,10.7 10.7,10.7 10.7,10.7 10.7,10.7 	"/>
	<polygon class="st1" points="11.3,10.3 11.3,10.3 11.3,10.4 11.3,10.3 	"/>
	<path class="st1" d="M12.1,9.7C12.1,9.8,12.1,9.8,12.1,9.7C12.1,9.8,12.1,9.8,12.1,9.7C12.1,9.8,12.1,9.7,12.1,9.7z"/>
	<path class="st1" d="M8.7,12.2C8.7,12.2,8.7,12.3,8.7,12.2C8.7,12.3,8.7,12.3,8.7,12.2C8.7,12.2,8.7,12.2,8.7,12.2z"/>
	<path class="st1" d="M9.6,11.6C9.6,11.6,9.6,11.6,9.6,11.6C9.6,11.6,9.6,11.6,9.6,11.6C9.6,11.6,9.6,11.6,9.6,11.6z"/>
	<path class="st1" d="M15.6,7.2C15.6,7.2,15.6,7.2,15.6,7.2C15.6,7.2,15.6,7.2,15.6,7.2C15.6,7.2,15.6,7.2,15.6,7.2z"/>
	<path class="st1" d="M18.2,5.4C18.2,5.4,18.2,5.4,18.2,5.4C18.2,5.4,18.2,5.4,18.2,5.4C18.2,5.4,18.2,5.4,18.2,5.4z"/>
	<polygon class="st1" points="5.8,14.2 5.8,14.2 5.8,14.2 	"/>
	<polygon class="st1" points="7.8,12.8 7.8,12.8 7.8,12.8 	"/>
</g>
</svg>
