<?xml version="1.0" encoding="utf-8"?>
<!-- Generator: Adobe Illustrator 25.0.0, SVG Export Plug-In . SVG Version: 6.00 Build 0)  -->
<svg version="1.1" id="Layer_1" xmlns="http://www.w3.org/2000/svg" xmlns:xlink="http://www.w3.org/1999/xlink" x="0px" y="0px"
	 viewBox="0 0 36 36" style="enable-background:new 0 0 36 36;" xml:space="preserve">
<style type="text/css">
	.st0{fill:#0B4A99;}
</style>
<g>
	<g>
		<path class="st0" d="M34.9,27H23.3c-2.9,0-5.6-1.6-7.1-4.1l-0.4-0.6c-0.2-0.3-0.1-0.7,0.2-0.9c0.3-0.2,0.7-0.1,0.9,0.2l0.4,0.6
			c1.2,2.2,3.5,3.5,6,3.5h11.6c0.3,0,0.6,0.3,0.6,0.6S35.2,27,34.9,27z"/>
	</g>
	<g>
		<path class="st0" d="M11.9,14.7c-0.2,0-0.4-0.1-0.5-0.3l-0.4-0.8c-1.2-2.2-3.6-3.5-6.1-3.5H0.6C0.3,10.1,0,9.8,0,9.4
			s0.3-0.6,0.6-0.6h4.2c3,0,5.7,1.6,7.2,4.2l0.4,0.8c0.2,0.3,0.1,0.7-0.2,0.9C12.1,14.7,12,14.7,11.9,14.7z"/>
	</g>
	<g>
		<path class="st0" d="M5.8,27.6H0.6C0.3,27.6,0,27.3,0,27c0-0.3,0.3-0.6,0.6-0.6h5.2c2.2,0,4.2-1.2,5.3-3.1l5.8-10.5
			c1.3-2.3,3.8-3.8,6.4-3.8c0,0,0,0,0,0l11.5,0c0.3,0,0.6,0.3,0.6,0.6c0,0.3-0.3,0.6-0.6,0.6h0l-11.5,0c0,0,0,0,0,0
			c-2.2,0-4.3,1.2-5.3,3.1l-5.8,10.5C10.9,26.1,8.4,27.6,5.8,27.6z"/>
	</g>
	<g>
		<path class="st0" d="M32.4,14.5c-0.1,0-0.2,0-0.3-0.1c-0.3-0.2-0.4-0.6-0.2-0.9l2.7-4l-2.7-4c-0.2-0.3-0.1-0.7,0.2-0.9
			c0.3-0.2,0.7-0.1,0.9,0.2L36,9.6l-3.1,4.7C32.8,14.4,32.6,14.5,32.4,14.5z"/>
	</g>
	<g>
		<path class="st0" d="M32.4,31.4c-0.1,0-0.2,0-0.3-0.1c-0.3-0.2-0.4-0.6-0.2-0.9l2.7-4l-2.7-4c-0.2-0.3-0.1-0.7,0.2-0.9
			c0.3-0.2,0.7-0.1,0.9,0.2l3.1,4.7l-3.1,4.7C32.8,31.3,32.6,31.4,32.4,31.4z"/>
	</g>
</g>
</svg>
