<?xml version="1.0" encoding="utf-8"?>
<!-- Generator: Adobe Illustrator 25.0.0, SVG Export Plug-In . SVG Version: 6.00 Build 0)  -->
<svg version="1.1" id="Layer_1" xmlns="http://www.w3.org/2000/svg" xmlns:xlink="http://www.w3.org/1999/xlink" x="0px" y="0px"
	 viewBox="0 0 36 36" style="enable-background:new 0 0 36 36;" xml:space="preserve">
<style type="text/css">
	.st0{fill:#CB1618;}
	.st1{fill:#185ABD;}
	.st2{fill:#D83039;}
	.st3{fill:#103F91;}
	.st4{fill:#185C37;}
	.st5{fill:#33C481;}
	.st6{fill:#107C41;}
	.st7{fill:#21A366;}
	.st8{fill:#0B4A99;}
	.st9{fill:none;}
	.st10{fill:#FFFFFF;}
	.st11{fill:#41A5EE;}
	.st12{fill:#2B7CD3;}
	.st13{opacity:0.5;enable-background:new    ;}
	.st14{fill:url(#SVGID_1_);}
	.st15{fill:url(#SVGID_2_);}
	.st16{fill:url(#SVGID_3_);}
	.st17{fill:url(#SVGID_4_);}
	.st18{fill:#E24951;}
	.st19{fill-rule:evenodd;clip-rule:evenodd;}
	.st20{fill:#262625;}
	.st21{fill:none;stroke:#000000;stroke-width:0.75;stroke-miterlimit:10;}
	.st22{fill:none;stroke:#000000;stroke-width:1.2;stroke-miterlimit:10;}
	.st23{fill-rule:evenodd;clip-rule:evenodd;fill:#0B4A99;}
	.st24{fill:none;stroke:#231F20;}
	.st25{fill:none;stroke:#0071C5;stroke-width:1.3;stroke-linecap:round;stroke-miterlimit:10;}
	.st26{fill:none;stroke:#F0AB00;stroke-width:1.3;stroke-miterlimit:10;}
	.st27{fill:#1C55A6;}
	.st28{fill:none;stroke:#1C55A6;stroke-width:1.3;stroke-linecap:round;}
	.st29{fill-rule:evenodd;clip-rule:evenodd;fill:none;stroke:#1C55A6;stroke-width:1.3;stroke-linecap:round;}
	.st30{fill:none;stroke:#1C55A6;stroke-width:1.3;stroke-linecap:round;stroke-miterlimit:10;}
	.st31{fill-rule:evenodd;clip-rule:evenodd;fill:#213266;}
	.st32{fill-rule:evenodd;clip-rule:evenodd;fill:#EE3D23;}
	.st33{fill-rule:evenodd;clip-rule:evenodd;fill:#FFFFFF;}
</style>
<g>
	<g>
		<path class="st8" d="M0.8,26.4c-0.3,0-0.6-0.2-0.6-0.5c-0.1-0.7-0.2-1.3-0.2-2c0-6.7,5.4-12.1,12.1-12.1c0.3,0,0.6,0.3,0.6,0.6
			c0,0.3-0.3,0.6-0.6,0.6c-6,0-10.8,4.9-10.8,10.8c0,0.6,0,1.2,0.1,1.8c0.1,0.3-0.2,0.7-0.5,0.7C0.8,26.4,0.8,26.4,0.8,26.4z"/>
	</g>
	<g>
		<path class="st8" d="M12.1,35.9c-4.9,0-9.2-2.9-11.1-7.4c-0.1-0.3,0-0.7,0.3-0.8c0.3-0.1,0.7,0,0.8,0.3c1.7,4,5.6,6.6,10,6.6
			c3,0,5.7-1.2,7.8-3.3c0.2-0.2,0.6-0.3,0.9,0c0.2,0.2,0.3,0.6,0,0.9C18.5,34.6,15.4,35.9,12.1,35.9z"/>
	</g>
	<g>
		<path class="st8" d="M22,30.2c-0.1,0-0.2,0-0.3-0.1c-0.3-0.2-0.4-0.6-0.2-0.8c1-1.6,1.5-3.5,1.5-5.4c0-5-3.4-9.4-8.3-10.5
			c-0.3-0.1-0.5-0.4-0.5-0.7c0.1-0.3,0.4-0.5,0.7-0.5c5.4,1.3,9.3,6.1,9.3,11.7c0,2.1-0.6,4.2-1.6,6.1C22.4,30.1,22.2,30.2,22,30.2z
			"/>
	</g>
	<g>
		<path class="st8" d="M21.6,31l-2.3-6.2c-0.1-0.3,0-0.7,0.4-0.8c0.3-0.1,0.7,0,0.8,0.4l1.7,4.6l4.2-3.2c0.3-0.2,0.7-0.2,0.9,0.1
			c0.2,0.3,0.2,0.7-0.1,0.9L21.6,31z"/>
	</g>
	<g>
		<path class="st8" d="M8.8,17.1c-0.1,0-0.3,0-0.4-0.1c-0.3-0.2-0.3-0.6-0.1-0.9l3-3.5L7,9.6C6.7,9.4,6.6,9,6.8,8.7
			C7,8.4,7.4,8.4,7.7,8.6l5.4,3.7l-3.8,4.6C9.2,17,9,17.1,8.8,17.1z"/>
	</g>
	<g>
		<path class="st8" d="M1.5,34.7c-0.3,0-0.6-0.3-0.6-0.6l-0.1-6.8l6,1.6c0.3,0.1,0.5,0.4,0.4,0.8c-0.1,0.3-0.4,0.5-0.8,0.4L2,29
			l0.1,5.1C2.1,34.5,1.9,34.7,1.5,34.7C1.5,34.7,1.5,34.7,1.5,34.7z"/>
	</g>
	<g>
		<path class="st8" d="M16.8,24.3l-0.5-0.4l-4.4-4.4l0-0.6l0.2-0.2L24.1,7l6.3-6.8c0.4-0.2,1.3-0.4,2,0.4l3,3
			C35.5,3.7,36,4.2,36,4.9c0,0.3-0.1,0.8-0.6,1.2l-6,5.9L16.8,24.3z M13.4,19.3l3.4,3.4L34.6,5.1c0.1-0.1,0.2-0.2,0.2-0.2
			c0-0.1-0.2-0.3-0.2-0.3l0,0l-3-3c-0.2-0.2-0.3-0.2-0.4-0.2l-2.4,2.6l-3.7,4L13.4,19.3z"/>
	</g>
	<g>
		<path class="st8" d="M8.7,28.1c-0.2,0-0.4-0.1-0.5-0.2C8,27.7,7.9,27.3,8,27.1L12,19l1.1,0.5l-3.3,6.7l6.7-3.3l0.5,1.1L9,28
			C8.9,28.1,8.8,28.1,8.7,28.1z"/>
	</g>
</g>
</svg>
