<?xml version="1.0" encoding="utf-8"?>
<!-- Generator: Adobe Illustrator 26.0.1, SVG Export Plug-In . SVG Version: 6.00 Build 0)  -->
<svg version="1.1" id="Layer_1" xmlns="http://www.w3.org/2000/svg" xmlns:xlink="http://www.w3.org/1999/xlink" x="0px" y="0px"
	 viewBox="0 0 36 36" style="enable-background:new 0 0 36 36;" xml:space="preserve">
<style type="text/css">
	.st0{fill:none;stroke:#0B4A99;stroke-width:1.3;stroke-miterlimit:10;}
	.st1{fill:#0B4A99;}
	.st2{fill:none;stroke:#0B4A99;stroke-width:2;stroke-miterlimit:10;}
</style>
<g>
	<g>
		<path class="st1" d="M16.6,32.6h-3.9c-0.7,0-1.2-0.6-1.2-1.2v-2.3c-0.8-0.2-1.7-0.5-2.5-1l-1.6,1.6c-0.5,0.5-1.3,0.5-1.7,0
			l-2.8-2.8c-0.5-0.5-0.5-1.3,0-1.7l1.6-1.6c-0.4-0.7-0.8-1.6-1-2.4l-2.2,0C0.6,21.2,0,20.6,0,20V16c0-0.7,0.6-1.2,1.2-1.2h2.3
			c0.2-0.8,0.5-1.7,1-2.5l-1.6-1.6c-0.5-0.5-0.5-1.3,0-1.7l2.8-2.8c0.5-0.5,1.3-0.5,1.7,0L9,7.9c0.7-0.5,1.6-0.8,2.4-1l0-2.2
			c0-0.7,0.6-1.2,1.2-1.2h3.9c0.7,0,1.2,0.6,1.2,1.2v2.3c0.8,0.2,1.7,0.5,2.5,1l1.6-1.6c0.5-0.5,1.3-0.5,1.7,0l2.8,2.8
			c0.2,0.2,0.4,0.5,0.4,0.9c0,0.3-0.1,0.6-0.4,0.9l-1.6,1.6l-0.9-0.9l1.6-1.6l-2.8-2.7l-1.5,1.6c-0.4,0.4-1,0.5-1.5,0.2
			c-0.7-0.4-1.4-0.7-2.2-0.9c-0.5-0.2-0.9-0.6-0.9-1.2V4.6l-3.9,0l0,2.2c0,0.6-0.4,1-0.9,1.2C11,8.3,10.3,8.6,9.6,9
			C9.1,9.3,8.5,9.2,8.1,8.8L6.5,7.2L3.8,10l1.6,1.5c0.4,0.4,0.5,1,0.2,1.5c-0.4,0.7-0.7,1.4-0.9,2.2c-0.2,0.5-0.6,0.9-1.2,0.9H1.2
			l0,3.9l2.2,0c0.5,0,1,0.4,1.2,0.9c0.2,0.8,0.5,1.5,0.9,2.2c0.3,0.5,0.2,1.1-0.2,1.5l-1.6,1.6l2.8,2.7l1.5-1.6
			c0.4-0.4,1-0.5,1.5-0.2c0.7,0.4,1.4,0.7,2.2,0.9c0.5,0.2,0.9,0.6,0.9,1.2v2.3l3.9,0l0-2.2c0-0.5,0.4-1,0.9-1.2
			c0.8-0.2,1.5-0.5,2.2-0.9c0.5-0.3,1.1-0.2,1.5,0.2l1.6,1.6l2.7-2.8l-1.6-1.5l0.9-0.9l1.6,1.6c0.2,0.2,0.4,0.5,0.4,0.9
			c0,0.3-0.1,0.6-0.4,0.9l-2.8,2.8c-0.5,0.5-1.3,0.5-1.7,0l-1.6-1.6c-0.7,0.5-1.6,0.8-2.4,1l0,2.2C17.8,32,17.2,32.6,16.6,32.6z
			 M14.6,25.2v-1.3c1.7,0,3.4-0.8,4.5-2.1l1,0.8C18.7,24.2,16.7,25.2,14.6,25.2z M14.6,25.2c-4,0-7.2-3.2-7.2-7.2
			c0-4,3.2-7.2,7.2-7.2c2.1,0,4.1,0.9,5.5,2.5l-1,0.8c-1.1-1.3-2.8-2.1-4.5-2.1c-3.2,0-5.9,2.6-5.9,5.9c0,3.2,2.6,5.9,5.9,5.9V25.2z
			"/>
	</g>
	<g>
		<g>
			<polygon class="st1" points="29.8,21.6 24.9,21.6 17.4,16 12.4,16 12.4,14.7 17.8,14.7 25.4,20.3 29.8,20.3 			"/>
		</g>
		<g>
			<g>
				<polygon class="st1" points="29.3,22.9 32.6,21 29.3,19.1 				"/>
			</g>
		</g>
	</g>
	<g>
		<g>
			<polygon class="st1" points="22.8,17.3 22.1,16.3 24.9,14.3 33.3,14.3 33.3,15.5 25.3,15.5 			"/>
		</g>
		<g>
			<g>
				<polygon class="st1" points="32.7,16.8 36,14.9 32.7,13 				"/>
			</g>
		</g>
	</g>
	<g>
		<polygon class="st1" points="17.5,21 12.4,21 12.4,19.8 17.1,19.8 19.4,18.2 20.1,19.2 		"/>
	</g>
</g>
</svg>
