<?xml version="1.0" encoding="utf-8"?>
<!-- Generator: Adobe Illustrator 25.0.0, SVG Export Plug-In . SVG Version: 6.00 Build 0)  -->
<svg version="1.1" id="Layer_1" xmlns="http://www.w3.org/2000/svg" xmlns:xlink="http://www.w3.org/1999/xlink" x="0px" y="0px"
	 viewBox="0 0 36 36" style="enable-background:new 0 0 36 36;" xml:space="preserve">
<style type="text/css">
	.st0{fill:#CB1618;}
	.st1{fill:#185ABD;}
	.st2{fill:#D83039;}
	.st3{fill:#103F91;}
	.st4{fill:#185C37;}
	.st5{fill:#33C481;}
	.st6{fill:#107C41;}
	.st7{fill:#21A366;}
	.st8{fill:#0B4A99;}
	.st9{fill:none;}
	.st10{fill:#FFFFFF;}
	.st11{fill:#41A5EE;}
	.st12{fill:#2B7CD3;}
	.st13{opacity:0.5;enable-background:new    ;}
	.st14{fill:url(#SVGID_1_);}
	.st15{fill:url(#SVGID_2_);}
	.st16{fill:url(#SVGID_3_);}
	.st17{fill:url(#SVGID_4_);}
	.st18{fill:#E24951;}
	.st19{fill-rule:evenodd;clip-rule:evenodd;}
	.st20{fill:#262625;}
	.st21{fill:none;stroke:#000000;stroke-width:0.75;stroke-miterlimit:10;}
	.st22{fill:none;stroke:#000000;stroke-width:1.2;stroke-miterlimit:10;}
	.st23{fill-rule:evenodd;clip-rule:evenodd;fill:#0B4A99;}
	.st24{fill:none;stroke:#0071C5;stroke-width:1.3;stroke-linecap:round;stroke-miterlimit:10;}
	.st25{fill:none;stroke:#F0AB00;stroke-width:1.3;stroke-miterlimit:10;}
	.st26{fill:#1C55A6;}
	.st27{fill:none;stroke:#1C55A6;stroke-width:1.3;stroke-linecap:round;}
	.st28{fill-rule:evenodd;clip-rule:evenodd;fill:none;stroke:#1C55A6;stroke-width:1.3;stroke-linecap:round;}
	.st29{fill:none;stroke:#1C55A6;stroke-width:1.3;stroke-linecap:round;stroke-miterlimit:10;}
	.st30{fill:none;stroke:#231F20;}
</style>
<g>
	<g>
		<path class="st8" d="M11.6,28l-0.4-0.2L0.4,21.5C0.2,21.3,0,21,0,20.7V8.1l0.7-0.4l0.4,0.2l11.3,6.6v13.1L11.6,28z M1.3,20.5
			l9.6,5.6V15.3L1.3,9.6V20.5z"/>
	</g>
	<g>
		<polygon class="st8" points="11.7,28 11,27.7 11,27.2 11,14.5 22.6,7.6 23.3,8 23.3,8.4 23.3,15.7 22,15.7 22,9.6 12.3,15.3 
			12.3,26.1 15.3,24.3 16,25.5 		"/>
	</g>
	<g>
		<path class="st8" d="M11.7,15.7L0.1,8.9l0-0.8l0.3-0.2l10.8-6.4c0.3-0.2,0.7-0.2,1,0L23.3,8l0,0.8L23,9L11.7,15.7z M2,8.5l9.7,5.7
			l9.7-5.7l-9.7-5.7L2,8.5z"/>
	</g>
	<g>
		<path class="st8" d="M21.3,29c-3.9,0-7.1-3.2-7.1-7.1s3.2-7.1,7.1-7.1s7.1,3.2,7.1,7.1S25.2,29,21.3,29z M21.3,16.2
			c-3.2,0-5.7,2.6-5.7,5.7c0,3.2,2.6,5.7,5.7,5.7c3.2,0,5.7-2.6,5.7-5.7C27.1,18.8,24.5,16.2,21.3,16.2z"/>
	</g>
	<g>
		<rect x="26.5" y="25.9" transform="matrix(0.7122 -0.702 0.702 0.7122 -11.585 26.9996)" class="st8" width="1.3" height="3.4"/>
	</g>
	<g>
		<path class="st8" d="M31.6,34.7C31.6,34.7,31.6,34.7,31.6,34.7c-0.3,0-0.5-0.1-0.7-0.3l-3.8-3.8c-0.4-0.4-0.4-1,0-1.4l1.8-1.8
			c0.4-0.4,1-0.4,1.4,0l3.8,3.8c0.2,0.2,0.3,0.4,0.3,0.7c0,0.3-0.1,0.5-0.3,0.7l-1.8,1.8C32.1,34.6,31.9,34.7,31.6,34.7z M28.4,30
			l3.2,3.2l1.2-1.2l-3.2-3.2L28.4,30z M33.1,32.3C33.1,32.3,33.1,32.3,33.1,32.3L33.1,32.3z"/>
	</g>
	<g>
		<path class="st8" d="M19.6,23.7c-0.2,0-0.3-0.1-0.5-0.2c-0.3-0.3-0.3-0.7,0-1l10-10.4h6.2c0.4,0,0.7,0.3,0.7,0.7
			c0,0.4-0.3,0.7-0.7,0.7h-5.6l-9.6,10C20,23.7,19.8,23.7,19.6,23.7z"/>
	</g>
	<g>
		<path class="st8" d="M35.3,10.5h-6.8c-0.4,0-0.7-0.3-0.7-0.7c0-0.4,0.3-0.7,0.7-0.7h6.8c0.4,0,0.7,0.3,0.7,0.7
			C36,10.2,35.7,10.5,35.3,10.5z"/>
	</g>
	<g>
		<path class="st8" d="M35.3,16.7H31c-0.4,0-0.7-0.3-0.7-0.7c0-0.4,0.3-0.7,0.7-0.7h4.3c0.4,0,0.7,0.3,0.7,0.7
			C36,16.4,35.7,16.7,35.3,16.7z"/>
	</g>
</g>
</svg>
