<?xml version="1.0" encoding="utf-8"?>
<!-- Generator: Adobe Illustrator 26.0.1, SVG Export Plug-In . SVG Version: 6.00 Build 0)  -->
<svg version="1.1" id="Layer_1" xmlns="http://www.w3.org/2000/svg" xmlns:xlink="http://www.w3.org/1999/xlink" x="0px" y="0px"
	 viewBox="0 0 36 36" style="enable-background:new 0 0 36 36;" xml:space="preserve">
<style type="text/css">
	.st0{fill:none;stroke:#0B4A99;stroke-width:1.3;stroke-miterlimit:10;}
	.st1{fill:#0B4A99;}
</style>
<g>
	<path class="st1" d="M33.7,36H2.3C1,36,0,35,0,33.7V2.3C0,1,1,0,2.3,0h31.4C35,0,36,1,36,2.3v31.4C36,35,35,36,33.7,36z M2.3,1.3
		c-0.6,0-1.1,0.5-1.1,1.1v31.4c0,0.6,0.5,1.1,1.1,1.1h31.4c0.6,0,1.1-0.5,1.1-1.1V2.3c0-0.6-0.5-1.1-1.1-1.1H2.3z"/>
</g>
<g>
	<polygon class="st1" points="19.2,29.8 3.2,29.8 3.2,2.8 32.9,2.8 32.9,12.3 31.6,12.3 31.6,4.1 4.5,4.1 4.5,28.5 19.2,28.5 	"/>
</g>
<g>
	<path class="st1" d="M12.9,14.2H6.2V7.4h6.7V14.2z M7.4,12.9h4.2V8.7H7.4V12.9z"/>
</g>
<g>
	<path class="st1" d="M12.9,25.3H6.2v-6.7h6.7V25.3z M7.4,24h4.2v-4.2H7.4V24z"/>
</g>
<g>
	<g>
		<path class="st1" d="M22.1,32.9c-0.3,0-0.6-0.1-0.9-0.3c-0.4-0.3-0.6-0.8-0.6-1.2V23c0-0.1,0-0.2-0.1-0.3l-6-6.1
			c-0.5-0.5-0.7-1.4-0.4-2.1c0.3-0.7,1-1.2,1.7-1.2h16.4c0.8,0,1.5,0.5,1.8,1.2c0.3,0.6,0.1,1.5-0.4,2l-6.1,6.1
			c-0.1,0.1-0.1,0.2-0.1,0.3v7.2c0,0.7-0.4,1.2-1,1.4l-3.5,1.2C22.5,32.9,22.3,32.9,22.1,32.9z M22.1,31.7v0.6V31.7
			C22.2,31.7,22.2,31.7,22.1,31.7z M15.8,14.7c-0.3,0-0.5,0.3-0.6,0.4c-0.1,0.2-0.1,0.5,0.1,0.7l6,6.1c0.3,0.3,0.5,0.7,0.5,1.2v8.5
			c0,0,0,0.1,0.1,0.2c0,0,0,0,0.1,0l0.1-0.1l3.7-1.2c0.1,0,0.1,0,0.1-0.2V23c0-0.4,0.2-0.9,0.5-1.2l6.1-6.1c0.2-0.2,0.2-0.4,0.1-0.7
			c-0.1-0.3-0.3-0.4-0.6-0.4H15.8z"/>
	</g>
</g>
</svg>
