<?xml version="1.0" encoding="iso-8859-1"?>
<!-- Generator: Adobe Illustrator 12.0.0, SVG Export Plug-In . SVG Version: 6.00 Build 51448)  -->
<!DOCTYPE svg PUBLIC "-//W3C//DTD SVG 1.1//EN" "http://www.w3.org/Graphics/SVG/1.1/DTD/svg11.dtd" [
	<!ENTITY ns_svg "http://www.w3.org/2000/svg">
	<!ENTITY ns_xlink "http://www.w3.org/1999/xlink">
]>
<svg  version="1.1" id="Layer_1" xmlns="&ns_svg;" xmlns:xlink="&ns_xlink;" width="49.891" height="49.89"
	 viewBox="0 0 49.891 49.89" style="overflow:visible;enable-background:new 0 0 49.891 49.89;" xml:space="preserve">
<g>
	<g>
		<path style="fill:#0071C5;" d="M27.825,10.071H7.458c-3.896,0-7.059,2.923-7.059,6.533v10.551c0,3.61,3.162,6.534,7.059,6.534
			h1.055c-1.102,2.76-3.686,9.213-3.627,9.054c0.059-0.17,9.384-6.654,12.842-9.054h10.097c3.898,0,7.063-2.924,7.063-6.534V16.604
			C34.887,12.994,31.723,10.071,27.825,10.071"/>
		<path style="fill:#0071C5;" d="M43.717,7.144H27.055c-0.926,0-1.798,0.206-2.573,0.568h4.815c4.461,0,8.078,3.348,8.078,7.476
			v12.075c0,0.204-0.018,0.409-0.035,0.609c3.412,2.368,8.443,5.886,8.482,6c0.049,0.131-2.063-5.148-2.967-7.407h0.861
			c3.191,0,5.773-2.392,5.773-5.346v-8.631C49.491,9.536,46.909,7.144,43.717,7.144"/>
	</g>
	<rect style="fill:none;" width="49.891" height="49.89"/>
</g>
</svg>
