<?xml version="1.0" encoding="utf-8"?>
<!-- Generator: Adobe Illustrator 25.0.0, SVG Export Plug-In . SVG Version: 6.00 Build 0)  -->
<svg version="1.1" id="Layer_1" xmlns="http://www.w3.org/2000/svg" xmlns:xlink="http://www.w3.org/1999/xlink" x="0px" y="0px"
	 viewBox="0 0 36 36" style="enable-background:new 0 0 36 36;" xml:space="preserve">
<style type="text/css">
	.st0{fill:#CB1618;}
	.st1{fill:#185ABD;}
	.st2{fill:#D83039;}
	.st3{fill:#103F91;}
	.st4{fill:#185C37;}
	.st5{fill:#33C481;}
	.st6{fill:#107C41;}
	.st7{fill:#21A366;}
	.st8{fill:#0B4A99;}
	.st9{fill:none;}
	.st10{fill:#FFFFFF;}
	.st11{fill:#41A5EE;}
	.st12{fill:#2B7CD3;}
	.st13{opacity:0.5;enable-background:new    ;}
	.st14{fill:url(#SVGID_1_);}
	.st15{fill:url(#SVGID_2_);}
	.st16{fill:url(#SVGID_3_);}
	.st17{fill:url(#SVGID_4_);}
	.st18{fill:#E24951;}
	.st19{fill-rule:evenodd;clip-rule:evenodd;}
	.st20{fill:#262625;}
	.st21{fill:none;stroke:#000000;stroke-width:0.75;stroke-miterlimit:10;}
	.st22{fill:none;stroke:#000000;stroke-width:1.2;stroke-miterlimit:10;}
	.st23{fill-rule:evenodd;clip-rule:evenodd;fill:#0B4A99;}
	.st24{fill:none;stroke:#0071C5;stroke-width:1.3;stroke-linecap:round;stroke-miterlimit:10;}
	.st25{fill:none;stroke:#F0AB00;stroke-width:1.3;stroke-miterlimit:10;}
	.st26{fill:#1C55A6;}
	.st27{fill:none;stroke:#1C55A6;stroke-width:1.3;stroke-linecap:round;}
	.st28{fill-rule:evenodd;clip-rule:evenodd;fill:none;stroke:#1C55A6;stroke-width:1.3;stroke-linecap:round;}
	.st29{fill:none;stroke:#1C55A6;stroke-width:1.3;stroke-linecap:round;stroke-miterlimit:10;}
	.st30{fill:none;stroke:#231F20;}
	.st31{fill:none;stroke:#0B4A99;stroke-width:1.3;stroke-miterlimit:10;}
</style>
<g>
	<g>
		<path class="st8" d="M17.2,32.7c-3.8,0-6.3-1-6.6-1.1c-0.6-0.3-0.9-0.6-1.1-0.9c-0.8-1.4-1.4-1.6-1.4-1.6c-1.6,0-2.9-0.5-3.8-1.4
			c-0.9-1-1-2.1-1-2.5l0-2c0-0.1,0-0.2,0-0.2C0.3,19.9,0,16.6,0,15.3c0-0.3,0-0.6,0-0.7l0-0.1c0-5.3,2.1-6.9,2.3-7l0.2-0.1l3.9-1.4
			c0.7-2,2.1-2.7,2.9-2.8l0.1,0l17.1,0c0.8,0.1,2.2,0.8,2.9,2.8l4.1,1.5c0.3,0.2,2.4,1.8,2.4,7.1v0.2c0,0,0,0.2,0,0.6
			c0,1.3-0.3,4.6-3.4,7.7c0,0,0,0.1,0,0.2l0,0.1v1.8c0,0.5-0.1,1.6-1,2.5c-0.8,0.9-2.1,1.4-3.8,1.4l0-0.5v0.5l0-0.5l0,0.5
			c0.1,0-0.6,0.1-1.4,1.6c-0.2,0.4-0.5,0.7-1,0.9c-0.2,0.1-3,1.2-7.1,1.2l-0.5,0C17.6,32.7,17.4,32.7,17.2,32.7z M10.7,30.2
			c0,0,0.1,0.1,0.4,0.3c0.1,0,2.7,1.1,6.5,1l0.6,0c3.9,0.1,6.5-1,6.6-1c0.3-0.1,0.4-0.2,0.4-0.3l0-0.1l0,0c1.2-2.1,2.3-2.2,2.5-2.3
			l0,0c1.3,0,2.3-0.4,2.9-1c0.6-0.6,0.6-1.4,0.6-1.6l0-2c0-0.6,0.2-1,0.3-1.1l0,0l0.1,0c2.7-2.7,3-5.6,3-6.7c0-0.3,0-0.5,0-0.5
			l0-0.2c0-4.5-1.6-5.9-1.8-6L28.5,7l-0.1-0.3c-0.6-2-1.9-2.2-2-2.2l-17,0c-0.1,0-1.4,0.2-2,2.2L7.5,7L3,8.6c-0.3,0.2-1.8,1.7-1.8,6
			v0.2c0,0.1,0,0.3,0,0.6c0,1.1,0.3,4.1,3,6.8c0.1,0.1,0.4,0.4,0.4,1.1l0,1.9c0,0.3,0,1,0.6,1.7c0.6,0.6,1.6,1,2.9,1
			c0.3,0,1.4,0.2,2.5,2.2l0,0L10.7,30.2z M32.4,22.8l0.2,0.2c0,0,0,0,0,0L32.4,22.8z M31.8,22.2l0.3,0.3L31.8,22.2z"/>
	</g>
	<g>
		<path class="st8" d="M8.1,19c-2.7,0-4.9-2.2-4.9-4.9s2.2-4.9,4.9-4.9S13,11.3,13,14S10.8,19,8.1,19z M8.1,10.3
			C6,10.3,4.3,12,4.3,14s1.7,3.8,3.8,3.8s3.8-1.7,3.8-3.8S10.2,10.3,8.1,10.3z"/>
	</g>
	<g>
		<path class="st8" d="M28.1,19c-2.7,0-4.9-2.2-4.9-4.9s2.2-4.9,4.9-4.9c2.7,0,4.9,2.2,4.9,4.9S30.8,19,28.1,19z M28.1,10.3
			c-2.1,0-3.8,1.7-3.8,3.8s1.7,3.8,3.8,3.8c2.1,0,3.8-1.7,3.8-3.8S30.2,10.3,28.1,10.3z"/>
	</g>
	<g>
		<path class="st8" d="M18.1,16.5c-2.7,0-4.9-2.2-4.9-4.9s2.2-4.9,4.9-4.9S23,8.8,23,11.5S20.8,16.5,18.1,16.5z M18.1,7.8
			c-2.1,0-3.8,1.7-3.8,3.8s1.7,3.8,3.8,3.8s3.8-1.7,3.8-3.8S20.2,7.8,18.1,7.8z"/>
	</g>
	<path class="st8" d="M15.6,12.9c-0.1-0.3-0.2-0.7-0.2-1.1c0-1.6,1.3-2.9,2.9-2.9c1,0,1.8,0.5,2.4,1.2l-0.1-0.1
		c-0.5-1-1.5-1.7-2.6-1.7c-1.6,0-2.9,1.3-2.9,2.9c0,0.6,0.2,1.1,0.4,1.5L15.6,12.9z"/>
	<rect x="7.9" y="9.9" class="st8" width="0.5" height="0.8"/>
	<rect x="11.2" y="13.6" class="st8" width="0.8" height="0.5"/>
	<rect x="8.8" y="10.3" transform="matrix(0.2179 -0.976 0.976 0.2179 -3.0553 17.2171)" class="st8" width="0.8" height="0.5"/>
	<rect x="9.8" y="10.8" transform="matrix(0.5571 -0.8305 0.8305 0.5571 -4.6491 13.3411)" class="st8" width="0.8" height="0.5"/>
	<rect x="10.6" y="11.6" transform="matrix(0.8396 -0.5433 0.5433 0.8396 -4.6502 7.8321)" class="st8" width="0.8" height="0.5"/>
	<rect x="11.1" y="12.5" transform="matrix(0.9727 -0.2322 0.2322 0.9727 -2.649 3.0109)" class="st8" width="0.8" height="0.5"/>
	<rect x="11.2" y="14.5" transform="matrix(0.2635 -0.9647 0.9647 0.2635 -5.925 22.0091)" class="st8" width="0.5" height="0.8"/>
	<rect x="4.3" y="13.6" class="st8" width="0.8" height="0.5"/>
	<rect x="6.8" y="10.1" transform="matrix(0.976 -0.2179 0.2179 0.976 -2.1222 1.7876)" class="st8" width="0.5" height="0.8"/>
	<rect x="5.8" y="10.6" transform="matrix(0.8304 -0.5571 0.5571 0.8304 -5.1142 5.2554)" class="st8" width="0.5" height="0.8"/>
	<rect x="5.1" y="11.4" transform="matrix(0.5431 -0.8397 0.8397 0.5431 -7.4669 9.8559)" class="st8" width="0.5" height="0.8"/>
	<rect x="4.6" y="12.4" transform="matrix(0.2322 -0.9727 0.9727 0.2322 -8.7266 14.457)" class="st8" width="0.5" height="0.8"/>
	<rect x="4.4" y="14.7" transform="matrix(0.9646 -0.2637 0.2637 0.9646 -3.7551 1.7943)" class="st8" width="0.8" height="0.5"/>
	<path class="st8" d="M6.3,11.7c0,0,0.3,0.1,1.7,2.3l1,1.4c0,0,0.3,0.4,0.1,0.5c0,0-0.1,0.1-0.3,0l-0.5-0.7l-0.7-1.1
		c0,0-1.5-2-1.4-2.3C6.2,11.8,6.2,11.7,6.3,11.7z"/>
	<path class="st8" d="M8.8,14.6c0,0.3-0.3,0.6-0.6,0.6c-0.3,0-0.6-0.3-0.6-0.6c0-0.3,0.3-0.6,0.6-0.6C8.5,14,8.8,14.3,8.8,14.6z"/>
	<path class="st8" d="M18.9,8.1c0,0-0.3,0.2-0.9,2.8l-0.5,1.6c0,0-0.2,0.5,0.1,0.5c0,0,0.2,0.1,0.3-0.1l0.2-0.8l0.4-1.3
		c0,0,0.8-2.4,0.6-2.7C19.1,8.1,19,8,18.9,8.1z"/>
	<path class="st8" d="M17.5,11.7c0.1,0.3,0.5,0.5,0.8,0.4c0.3-0.1,0.5-0.5,0.4-0.8c-0.1-0.3-0.5-0.5-0.8-0.4
		C17.6,11,17.4,11.3,17.5,11.7z"/>
	<path class="st8" d="M32.1,14.5h-7.9l0-0.5c0-2.2,1.8-4,4-4c2.2,0,4,1.8,4,4L32.1,14.5z M28.2,14.2h3.4v-0.4c0-1.8-1.6-3.3-3.5-3.3
		c-1.9,0-3.5,1.5-3.5,3.3v0.4h3c0,0,0.6-1.3,1.2-2.2c0,0,0.3-0.5,0.5-0.6c0,0,0.4-0.2-0.1,0.8l-0.8,1.7L28.2,14.2z"/>
	<path class="st8" d="M22.6,17.7c0,0.5-0.4,1-1,1c-0.5,0-1-0.4-1-1c0-0.5,0.4-1,1-1C22.1,16.8,22.6,17.2,22.6,17.7z M21.6,17.2
		c-0.3,0-0.5,0.2-0.5,0.5c0,0.3,0.2,0.5,0.5,0.5c0.3,0,0.5-0.2,0.5-0.5C22.1,17.4,21.9,17.2,21.6,17.2z"/>
	<path class="st8" d="M15.4,17.7c0,0.5-0.4,1-1,1c-0.5,0-1-0.4-1-1c0-0.5,0.4-1,1-1C14.9,16.8,15.4,17.2,15.4,17.7z M14.4,17.2
		c-0.3,0-0.5,0.2-0.5,0.5c0,0.3,0.2,0.5,0.5,0.5c0.3,0,0.5-0.2,0.5-0.5C14.9,17.4,14.7,17.2,14.4,17.2z"/>
	<path class="st8" d="M12.3,23.1c0,0.5-0.4,0.8-0.8,0.8h-1.3c-0.5,0-0.8-0.4-0.8-0.8v-1.4c0-0.5,0.4-0.8,0.8-0.8h1.3
		c0.5,0,0.8,0.4,0.8,0.8V23.1z M11.8,21.9c0-0.3-0.2-0.6-0.6-0.6h-0.9c-0.3,0-0.6,0.2-0.6,0.6v1c0,0.3,0.2,0.6,0.6,0.6h0.9
		c0.3,0,0.6-0.2,0.6-0.6V21.9z"/>
	<path class="st8" d="M15.9,23.1c0,0.5-0.4,0.8-0.8,0.8h-1.3c-0.5,0-0.8-0.4-0.8-0.8v-1.4c0-0.5,0.4-0.8,0.8-0.8h1.3
		c0.5,0,0.8,0.4,0.8,0.8V23.1z M15.4,21.9c0-0.3-0.2-0.6-0.6-0.6H14c-0.3,0-0.6,0.2-0.6,0.6v1c0,0.3,0.2,0.6,0.6,0.6h0.9
		c0.3,0,0.6-0.2,0.6-0.6V21.9z"/>
	<path class="st8" d="M19.5,23.1c0,0.5-0.4,0.8-0.8,0.8h-1.3c-0.5,0-0.8-0.4-0.8-0.8v-1.4c0-0.5,0.4-0.8,0.8-0.8h1.3
		c0.5,0,0.8,0.4,0.8,0.8V23.1z M19,21.9c0-0.3-0.2-0.6-0.6-0.6h-0.9c-0.3,0-0.6,0.2-0.6,0.6v1c0,0.3,0.2,0.6,0.6,0.6h0.9
		c0.3,0,0.6-0.2,0.6-0.6V21.9z"/>
	<path class="st8" d="M23.1,23.1c0,0.5-0.4,0.8-0.8,0.8h-1.3c-0.5,0-0.8-0.4-0.8-0.8v-1.4c0-0.5,0.4-0.8,0.8-0.8h1.3
		c0.5,0,0.8,0.4,0.8,0.8V23.1z M22.6,21.9c0-0.3-0.2-0.6-0.6-0.6h-0.9c-0.3,0-0.6,0.2-0.6,0.6v1c0,0.3,0.2,0.6,0.6,0.6H22
		c0.3,0,0.6-0.2,0.6-0.6V21.9z"/>
	<path class="st8" d="M15.9,26.5c0,0.5-0.4,0.8-0.8,0.8h-1.3c-0.5,0-0.8-0.4-0.8-0.8v-1.4c0-0.5,0.4-0.8,0.8-0.8h1.3
		c0.5,0,0.8,0.4,0.8,0.8V26.5z M15.4,25.3c0-0.3-0.2-0.6-0.6-0.6H14c-0.3,0-0.6,0.2-0.6,0.6v1c0,0.3,0.2,0.6,0.6,0.6h0.9
		c0.3,0,0.6-0.2,0.6-0.6V25.3z"/>
	<path class="st8" d="M19.5,26.5c0,0.5-0.4,0.8-0.8,0.8h-1.3c-0.5,0-0.8-0.4-0.8-0.8v-1.4c0-0.5,0.4-0.8,0.8-0.8h1.3
		c0.5,0,0.8,0.4,0.8,0.8V26.5z M19,25.3c0-0.3-0.2-0.6-0.6-0.6h-0.9c-0.3,0-0.6,0.2-0.6,0.6v1c0,0.3,0.2,0.6,0.6,0.6h0.9
		c0.3,0,0.6-0.2,0.6-0.6V25.3z"/>
	<path class="st8" d="M23.1,26.5c0,0.5-0.4,0.8-0.8,0.8h-1.3c-0.5,0-0.8-0.4-0.8-0.8v-1.4c0-0.5,0.4-0.8,0.8-0.8h1.3
		c0.5,0,0.8,0.4,0.8,0.8V26.5z M22.6,25.3c0-0.3-0.2-0.6-0.6-0.6h-0.9c-0.3,0-0.6,0.2-0.6,0.6v1c0,0.3,0.2,0.6,0.6,0.6H22
		c0.3,0,0.6-0.2,0.6-0.6V25.3z"/>
	<path class="st8" d="M26.7,23.1c0,0.5-0.4,0.8-0.8,0.8h-1.3c-0.5,0-0.8-0.4-0.8-0.8v-1.4c0-0.5,0.4-0.8,0.8-0.8h1.3
		c0.5,0,0.8,0.4,0.8,0.8V23.1z M26.3,21.9c0-0.3-0.2-0.6-0.6-0.6h-0.9c-0.3,0-0.6,0.2-0.6,0.6v1c0,0.3,0.2,0.6,0.6,0.6h0.9
		c0.3,0,0.6-0.2,0.6-0.6V21.9z"/>
</g>
</svg>
