<?xml version="1.0" encoding="utf-8"?>
<!-- Generator: Adobe Illustrator 22.0.1, SVG Export Plug-In . SVG Version: 6.00 Build 0)  -->
<svg version="1.1" id="Layer_1" xmlns="http://www.w3.org/2000/svg" xmlns:xlink="http://www.w3.org/1999/xlink" x="0px" y="0px"
	 viewBox="0 0 30 30" style="enable-background:new 0 0 30 30;" xml:space="preserve">
<style type="text/css">
	.st0{fill:#008520;}
	.st1{opacity:0.5;fill:none;stroke:#000000;stroke-width:5.000000e-02;stroke-miterlimit:10;}
	.st2{fill:#0C4B96;}
	.st3{fill:#C63621;}
	.st4{fill:#F85544;}
	.st5{fill:#EFC150;}
	.st6{fill:#27314E;}
	.st7{fill:#063ABC;}
	.st8{fill:#C74E41;}
	.st9{fill:#C67E42;}
	.st10{fill:#2CBCBB;}
	.st11{fill:#134658;}
	.st12{fill:none;stroke:#134658;stroke-miterlimit:10;}
	.st13{fill:#2BBBBA;}
	.st14{fill:#8C7053;}
	.st15{fill:#A93B33;}
	.st16{fill:#2F99A5;}
	.st17{fill:#654538;}
	.st18{fill:#BE5141;}
	.st19{fill:none;stroke:#134658;stroke-width:0.75;stroke-miterlimit:10;}
	.st20{fill:none;}
	.st21{opacity:0.5;}
	.st22{fill:#FF040F;}
	.st23{fill:#00A4F5;}
	.st24{fill:#70B74F;}
	.st25{fill:#F45DF4;}
	.st26{font-family:'MyriadPro-Regular';}
	.st27{font-size:0.93px;}
	.st28{font-size:1px;}
	.st29{fill:#213763;}
	.st30{fill:#E8C67C;}
	.st31{fill:#135D7A;}
	.st32{fill:#A07C2B;}
	.st33{fill:none;stroke:#FF040F;stroke-width:0.25;stroke-miterlimit:10;}
	.st34{fill:#00457F;}
	.st35{fill:#48A030;}
	.st36{fill:#FFD445;}
	.st37{fill:#FF431D;}
	.st38{fill:#39B0C7;}
	.st39{fill:#5379A9;}
	.st40{fill:#E84049;}
	.st41{fill:#F57C45;}
	.st42{fill:#F1602D;}
	.st43{fill:#945965;}
	.st44{fill:#5C55A8;}
	.st45{fill:#4673C5;}
	.st46{fill:#E68549;}
	.st47{fill:none;stroke:#000000;stroke-width:0.15;stroke-miterlimit:10;}
	.st48{fill:none;stroke:#000000;stroke-width:0.1;stroke-miterlimit:10;}
	.st49{fill:#278EAA;}
	.st50{fill:#39BCA9;}
	.st51{fill:#EFCC3C;}
	.st52{fill:#E04444;}
</style>
<polygon points="29.8,25.5 2.4,25.5 2.4,2.4 2.6,2.4 2.6,25.2 29.8,25.2 "/>
<rect x="2" y="6.3" width="0.6" height="0.1"/>
<rect x="2" y="10" width="0.6" height="0.1"/>
<rect x="1.9" y="13.9" width="0.6" height="0.1"/>
<rect x="1.9" y="17.7" width="0.6" height="0.1"/>
<rect x="2" y="21.5" width="0.5" height="0.1"/>
<rect x="4.2" y="25.3" width="0.1" height="0.5"/>
<rect x="7.3" y="25.3" width="0.1" height="0.5"/>
<rect x="10.5" y="25.3" width="0.1" height="0.5"/>
<rect x="13.6" y="25.3" width="0.1" height="0.5"/>
<rect x="16.7" y="25.3" width="0.1" height="0.5"/>
<rect x="19.8" y="25.3" width="0.1" height="0.5"/>
<rect x="23" y="25.3" width="0.1" height="0.5"/>
<rect x="26.1" y="25.3" width="0.1" height="0.5"/>
<rect x="29.2" y="25.3" width="0.1" height="0.5"/>
<text transform="matrix(1 0 0 1 0.3329 6.6462)" class="st26 st27">50</text>
<text transform="matrix(1 0 0 1 0.3329 10.4264)" class="st26 st27">40</text>
<text transform="matrix(1 0 0 1 0.3329 14.1833)" class="st26 st27">30</text>
<text transform="matrix(1 0 0 1 0.3329 17.9626)" class="st26 st27">20</text>
<text transform="matrix(1 0 0 1 0.8475 21.8542)" class="st26 st27">10</text>
<text transform="matrix(1 0 0 1 1.2948 25.6344)" class="st26 st27">0</text>
<text transform="matrix(1 0 0 1 3.9375 26.8509)" class="st26 st28">1</text>
<text transform="matrix(1 0 0 1 7.1875 26.8509)" class="st26 st28">2</text>
<text transform="matrix(1 0 0 1 10.2292 26.8509)" class="st26 st28">3</text>
<text transform="matrix(1 0 0 1 13.3021 26.8509)" class="st26 st28">4</text>
<text transform="matrix(1 0 0 1 16.5 26.8509)" class="st26 st28">5</text>
<text transform="matrix(1 0 0 1 19.6042 26.8509)" class="st26 st28">6</text>
<text transform="matrix(1 0 0 1 22.7396 26.8509)" class="st26 st28">7</text>
<text transform="matrix(1 0 0 1 25.8594 26.8509)" class="st26 st28">8</text>
<text transform="matrix(1 0 0 1 28.9792 26.8509)" class="st26 st28">9</text>
<rect x="18.7" y="4.5" class="st29" width="1.5" height="20.7"/>
<rect x="12.9" y="19.9" class="st22" width="1.5" height="5.3"/>
<rect x="10" y="23.8" class="st24" width="1.5" height="1.4"/>
<rect x="7" y="24.7" class="st5" width="1.5" height="0.5"/>
<rect x="4.1" y="25" class="st30" width="1.5" height="0.2"/>
<rect x="15.8" y="12.2" class="st31" width="1.5" height="13"/>
<rect x="24.5" y="15.6" class="st22" width="1.5" height="9.6"/>
<rect x="27.4" y="21" class="st32" width="1.5" height="4.2"/>
<rect x="21.6" y="10.2" class="st31" width="1.5" height="15"/>
<path class="st33" d="M2.4,25.2c0,0,4.2-0.1,5.6-0.2c3.9-0.4,5.7-1.1,8.5-13c1.6-10,4.3-7.6,4.9-6.1c1.8,4.5,4.3,14.6,8,17.7
	c1.4,1.2,2.4,2,2.4,2"/>
</svg>
