<?xml version="1.0" encoding="utf-8"?>
<!-- Generator: Adobe Illustrator 22.0.1, SVG Export Plug-In . SVG Version: 6.00 Build 0)  -->
<svg version="1.1" id="Layer_1" xmlns="http://www.w3.org/2000/svg" xmlns:xlink="http://www.w3.org/1999/xlink" x="0px" y="0px"
	 viewBox="0 0 30 30" style="enable-background:new 0 0 30 30;" xml:space="preserve">
<style type="text/css">
	.st0{fill:#008520;}
	.st1{opacity:0.5;fill:none;stroke:#000000;stroke-width:3.000000e-02;stroke-miterlimit:10;}
	.st2{fill:#0C4B96;}
	.st3{fill:#C63621;}
	.st4{fill:#F85544;}
	.st5{fill:#EFC150;}
	.st6{fill:#27314E;}
	.st7{fill:#063ABC;}
	.st8{fill:#C74E41;}
	.st9{fill:#C67E42;}
	.st10{fill:#2CBCBB;}
	.st11{fill:#134658;}
	.st12{fill:none;stroke:#134658;stroke-miterlimit:10;}
	.st13{fill:#2BBBBA;}
	.st14{fill:#8C7053;}
	.st15{fill:#A93B33;}
	.st16{fill:#2F99A5;}
	.st17{fill:#654538;}
	.st18{fill:#BE5141;}
	.st19{fill:none;stroke:#134658;stroke-width:0.75;stroke-miterlimit:10;}
	.st20{opacity:0.43;fill:#C74E41;}
	.st21{opacity:0.43;fill:#2CBCBB;}
	.st22{fill:none;}
	.st23{opacity:0.5;}
	.st24{font-family:'MyriadPro-Regular';}
	.st25{font-size:0.93px;}
	.st26{font-size:1px;}
	.st27{fill:#55F2ED;}
	.st28{fill:#FFAA24;}
	.st29{fill:#70B74F;}
	.st30{fill:#FF040F;}
	.st31{fill:#135D7A;}
	.st32{fill:#00A4F5;}
	.st33{fill:#F45DF4;}
	.st34{fill:#3C3C5E;}
	.st35{opacity:0.36;fill:#C63621;}
	.st36{opacity:0.36;fill:#002282;}
	.st37{opacity:0.36;fill:#FF1200;}
	.st38{fill:#00457F;}
	.st39{fill:#48A030;}
	.st40{fill:#E8C67C;}
	.st41{fill:#FFD445;}
	.st42{fill:#FF431D;}
	.st43{fill:#39B0C7;}
	.st44{fill:#5379A9;}
	.st45{fill:#E84049;}
	.st46{fill:#F57C45;}
	.st47{fill:#F1602D;}
	.st48{fill:#945965;}
	.st49{fill:#5C55A8;}
	.st50{fill:#4673C5;}
	.st51{fill:#E68549;}
	.st52{fill:none;stroke:#000000;stroke-width:0.15;stroke-miterlimit:10;}
	.st53{fill:none;stroke:#000000;stroke-width:0.1;stroke-miterlimit:10;}
	.st54{opacity:0.5;fill:none;stroke:#000000;stroke-width:5.000000e-02;stroke-miterlimit:10;}
	.st55{fill:#278EAA;}
	.st56{fill:#39BCA9;}
	.st57{fill:#EFCC3C;}
	.st58{fill:#E04444;}
	.st59{fill:#F7C192;}
	.st60{fill:#E16956;}
	.st61{fill:#FCBA32;}
	.st62{fill:#ACDFE3;}
	.st63{fill:#5DC9CC;}
	.st64{fill:#D9442C;}
	.st65{fill:#F39200;}
	.st66{fill:#079DAB;}
	.st67{fill:#FDD07D;}
	.st68{fill:#E67239;}
	.st69{fill:#E94E1B;}
	.st70{fill:#F9B233;}
	.st71{fill:#FFFFFF;}
	.st72{fill:#808080;stroke:#808080;stroke-width:0.1;stroke-miterlimit:10;}
	.st73{fill:#33A4FF;stroke:#33A4FF;stroke-width:0.1;stroke-miterlimit:10;}
	.st74{fill:#33A4FF;}
	.st75{fill:url(#SVGID_1_);stroke:#FFA424;stroke-width:0.1;stroke-miterlimit:10;}
	.st76{fill:url(#SVGID_2_);stroke:#FFA424;stroke-width:0.1;stroke-miterlimit:10;}
	.st77{fill:url(#SVGID_5_);stroke:#FFA424;stroke-width:0.1;stroke-miterlimit:10;}
	.st78{fill:url(#SVGID_8_);stroke:#FFA424;stroke-width:0.1;stroke-miterlimit:10;}
	.st79{fill:url(#SVGID_13_);}
	.st80{fill:url(#SVGID_14_);stroke:#FF4040;stroke-width:0.1;stroke-miterlimit:10;}
	.st81{fill:url(#SVGID_15_);stroke:#FF4040;stroke-width:0.1;stroke-miterlimit:10;}
	.st82{fill:url(#SVGID_18_);stroke:#FF4040;stroke-width:0.1;stroke-miterlimit:10;}
	.st83{fill:url(#SVGID_21_);stroke:#FF4040;stroke-width:0.1;stroke-miterlimit:10;}
	.st84{fill:url(#SVGID_26_);}
	.st85{fill:url(#SVGID_27_);stroke:#00CF5D;stroke-width:0.1;stroke-miterlimit:10;}
	.st86{fill:url(#SVGID_28_);stroke:#00CF5D;stroke-width:0.1;stroke-miterlimit:10;}
	.st87{fill:url(#SVGID_32_);stroke:#00CF5D;stroke-width:0.1;stroke-miterlimit:10;}
	.st88{fill:url(#SVGID_35_);stroke:#00CF5D;stroke-width:0.1;stroke-miterlimit:10;}
	.st89{fill:url(#SVGID_40_);}
	.st90{opacity:0.25;}
	.st91{fill:#808080;}
	.st92{fill:#4D70DF;}
	.st93{fill:none;stroke:#000102;stroke-width:3;stroke-miterlimit:10;}
	.st94{fill:#7191E6;}
	.st95{fill:#6989E5;}
	.st96{fill:#839FEA;}
	.st97{fill:#809EE9;}
	.st98{fill:#587BE2;}
	.st99{fill:#5B7DE1;}
	.st100{fill:#7C9AE9;}
	.st101{fill:#6D8FE6;}
	.st102{fill:#5577E1;}
	.st103{fill:#5173E0;}
	.st104{fill:#6586E4;}
	.st105{fill:#7796E6;}
	.st106{fill:#94AFEC;}
	.st107{fill:#ACC0F0;}
	.st108{fill:#99B1EC;}
	.st109{fill:#BBCBF3;}
	.st110{fill:#8BA7EA;}
	.st111{fill:#C4D3F4;}
	.st112{fill:#CEDBF7;}
	.st113{fill:#7897E7;}
	.st114{fill:#6786E4;}
	.st115{fill:none;stroke:#000102;stroke-width:4;stroke-miterlimit:10;}
	.st116{fill:#000102;}
	.st117{fill:#FF1200;}
	.st118{fill:#002282;}
	.st119{fill:#00B1FF;}
	.st120{opacity:0.74;fill:#C63621;}
	.st121{opacity:0.74;fill:#0C4B96;}
	.st122{fill:#00C572;}
	.st123{fill:#FFAD24;}
	.st124{fill:none;stroke:#000000;stroke-width:0.25;stroke-miterlimit:10;}
</style>
<polygon points="30,25.5 2.5,25.5 2.5,2.4 2.7,2.4 2.7,25.2 30,25.2 "/>
<rect x="2.2" y="6.3" width="0.6" height="0.1"/>
<rect x="2.2" y="10" width="0.6" height="0.1"/>
<rect x="2.1" y="13.9" width="0.6" height="0.1"/>
<rect x="2.1" y="17.7" width="0.6" height="0.1"/>
<rect x="2.2" y="21.5" width="0.5" height="0.1"/>
<rect x="4.4" y="25.3" width="0.1" height="0.5"/>
<rect x="7.5" y="25.3" width="0.1" height="0.5"/>
<rect x="10.6" y="25.3" width="0.1" height="0.5"/>
<rect x="13.8" y="25.3" width="0.1" height="0.5"/>
<rect x="16.9" y="25.3" width="0.1" height="0.5"/>
<rect x="20" y="25.3" width="0.1" height="0.5"/>
<rect x="23.1" y="25.3" width="0.1" height="0.5"/>
<rect x="26.3" y="25.3" width="0.1" height="0.5"/>
<rect x="29.4" y="25.3" width="0.1" height="0.5"/>
<text transform="matrix(1 0 0 1 0.4996 6.6462)" class="st24 st25">50</text>
<text transform="matrix(1 0 0 1 0.4996 10.4264)" class="st24 st25">40</text>
<text transform="matrix(1 0 0 1 0.4996 14.1833)" class="st24 st25">30</text>
<text transform="matrix(1 0 0 1 0.4996 17.9626)" class="st24 st25">20</text>
<text transform="matrix(1 0 0 1 1.0142 21.8542)" class="st24 st25">10</text>
<text transform="matrix(1 0 0 1 1.4615 25.6344)" class="st24 st25">0</text>
<text transform="matrix(1 0 0 1 4.1042 26.8509)" class="st24 st26">1</text>
<text transform="matrix(1 0 0 1 7.3542 26.8509)" class="st24 st26">2</text>
<text transform="matrix(1 0 0 1 10.3959 26.8509)" class="st24 st26">3</text>
<text transform="matrix(1 0 0 1 13.4688 26.8509)" class="st24 st26">4</text>
<text transform="matrix(1 0 0 1 16.6667 26.8509)" class="st24 st26">5</text>
<text transform="matrix(1 0 0 1 19.7709 26.8509)" class="st24 st26">6</text>
<text transform="matrix(1 0 0 1 22.9063 26.8509)" class="st24 st26">7</text>
<text transform="matrix(1 0 0 1 26.0261 26.8509)" class="st24 st26">8</text>
<text transform="matrix(1 0 0 1 29.1459 26.8509)" class="st24 st26">9</text>
<rect x="4.3" y="20.5" class="st30" width="1" height="4.7"/>
<rect x="6.1" y="13.3" class="st0" width="1" height="12"/>
<rect x="7.1" y="17" class="st34" width="1" height="8.2"/>
<rect x="5.2" y="11.4" class="st2" width="1" height="13.8"/>
<rect x="9.4" y="18.6" class="st30" width="1" height="6.7"/>
<rect x="11.2" y="12.8" class="st0" width="1" height="12.5"/>
<rect x="12.2" y="16.7" class="st34" width="1" height="8.5"/>
<rect x="10.3" y="7.9" class="st2" width="1" height="17.3"/>
<rect x="14.6" y="22.1" class="st30" width="1" height="3.1"/>
<rect x="16.4" y="16.3" class="st0" width="1" height="8.9"/>
<rect x="17.4" y="15.4" class="st34" width="1" height="9.8"/>
<rect x="15.5" y="12.5" class="st2" width="1" height="12.8"/>
<rect x="20" y="17" class="st30" width="1" height="8.4"/>
<rect x="21.8" y="11.6" class="st0" width="1" height="13.8"/>
<rect x="22.8" y="15.5" class="st34" width="1" height="9.9"/>
<rect x="20.9" y="6.3" class="st2" width="1" height="19.1"/>
<rect x="25.6" y="15.9" class="st30" width="1" height="9.6"/>
<rect x="27.4" y="9.7" class="st0" width="1" height="15.7"/>
<rect x="28.4" y="14.1" class="st34" width="1" height="11.3"/>
<rect x="26.5" y="3.6" class="st2" width="1" height="21.8"/>
<path class="st124" d="M2.5,25.5l2.4-4.7c0,0,0.8-1,1-1s1-1.7,1-1.7l0.7-0.7l2.3,1.6l0.9-3l1.1-2.6l1,3.9l2.4,5.3l1-3.4l0.7-0.4
	l1.1-2l2.4,1.3l0.7-3.5l1-1.8l1,3.3l3,1.8c0,0,0.8-6,1-6.1s1-1.5,1-1.5l1.1,4.4"/>
</svg>
