<?xml version="1.0" encoding="utf-8"?>
<!-- Generator: Adobe Illustrator 22.0.1, SVG Export Plug-In . SVG Version: 6.00 Build 0)  -->
<svg version="1.1" id="Layer_1" xmlns="http://www.w3.org/2000/svg" xmlns:xlink="http://www.w3.org/1999/xlink" x="0px" y="0px"
	 viewBox="0 0 30 30" style="enable-background:new 0 0 30 30;" xml:space="preserve">
<style type="text/css">
	.st0{fill:#008520;}
	.st1{opacity:0.5;fill:none;stroke:#000000;stroke-width:3.000000e-02;stroke-miterlimit:10;}
	.st2{fill:#0C4B96;}
	.st3{fill:#C63621;}
	.st4{fill:#F85544;}
	.st5{fill:#EFC150;}
	.st6{fill:#27314E;}
	.st7{fill:#063ABC;}
	.st8{fill:#C74E41;}
	.st9{fill:#C67E42;}
	.st10{fill:#2CBCBB;}
	.st11{fill:#134658;}
	.st12{fill:none;stroke:#134658;stroke-miterlimit:10;}
	.st13{fill:#2BBBBA;}
	.st14{fill:#8C7053;}
	.st15{fill:#A93B33;}
	.st16{fill:#2F99A5;}
	.st17{fill:#654538;}
	.st18{fill:#BE5141;}
	.st19{fill:none;stroke:#134658;stroke-width:0.75;stroke-miterlimit:10;}
	.st20{opacity:0.43;fill:#C74E41;}
	.st21{opacity:0.43;fill:#2CBCBB;}
	.st22{fill:none;}
	.st23{opacity:0.5;}
	.st24{fill:#55F2ED;}
	.st25{fill:#FFAA24;}
	.st26{fill:#70B74F;}
	.st27{fill:#FF040F;}
	.st28{fill:#135D7A;}
	.st29{fill:#00A4F5;}
	.st30{fill:#F45DF4;}
	.st31{fill:#3C3C5E;}
	.st32{opacity:0.36;fill:#C63621;}
	.st33{opacity:0.36;fill:#002282;}
	.st34{opacity:0.36;fill:#FF1200;}
	.st35{font-family:'MyriadPro-Regular';}
	.st36{font-size:0.93px;}
	.st37{font-size:1px;}
	.st38{fill:#00457F;}
	.st39{fill:#48A030;}
	.st40{fill:#E8C67C;}
	.st41{fill:#FFD445;}
	.st42{fill:#FF431D;}
	.st43{fill:#39B0C7;}
	.st44{fill:#5379A9;}
	.st45{fill:#E84049;}
	.st46{fill:#F57C45;}
	.st47{fill:#F1602D;}
	.st48{fill:#945965;}
	.st49{fill:#5C55A8;}
	.st50{fill:#4673C5;}
	.st51{fill:#E68549;}
	.st52{fill:none;stroke:#000000;stroke-width:0.15;stroke-miterlimit:10;}
	.st53{fill:none;stroke:#000000;stroke-width:0.1;stroke-miterlimit:10;}
	.st54{opacity:0.5;fill:none;stroke:#000000;stroke-width:5.000000e-02;stroke-miterlimit:10;}
	.st55{fill:#278EAA;}
	.st56{fill:#39BCA9;}
	.st57{fill:#EFCC3C;}
	.st58{fill:#E04444;}
	.st59{fill:#F7C192;}
	.st60{fill:#E16956;}
	.st61{fill:#FCBA32;}
	.st62{fill:#ACDFE3;}
	.st63{fill:#5DC9CC;}
	.st64{fill:#D9442C;}
	.st65{fill:#F39200;}
	.st66{fill:#079DAB;}
	.st67{fill:#FDD07D;}
	.st68{fill:#E67239;}
	.st69{fill:#E94E1B;}
	.st70{fill:#F9B233;}
	.st71{fill:#FFFFFF;}
	.st72{fill:#808080;stroke:#808080;stroke-width:0.1;stroke-miterlimit:10;}
	.st73{fill:#33A4FF;stroke:#33A4FF;stroke-width:0.1;stroke-miterlimit:10;}
	.st74{fill:#33A4FF;}
	.st75{fill:url(#SVGID_1_);stroke:#FFA424;stroke-width:0.1;stroke-miterlimit:10;}
	.st76{fill:url(#SVGID_2_);stroke:#FFA424;stroke-width:0.1;stroke-miterlimit:10;}
	.st77{fill:url(#SVGID_5_);stroke:#FFA424;stroke-width:0.1;stroke-miterlimit:10;}
	.st78{fill:url(#SVGID_8_);stroke:#FFA424;stroke-width:0.1;stroke-miterlimit:10;}
	.st79{fill:url(#SVGID_13_);}
	.st80{fill:url(#SVGID_14_);stroke:#FF4040;stroke-width:0.1;stroke-miterlimit:10;}
	.st81{fill:url(#SVGID_15_);stroke:#FF4040;stroke-width:0.1;stroke-miterlimit:10;}
	.st82{fill:url(#SVGID_18_);stroke:#FF4040;stroke-width:0.1;stroke-miterlimit:10;}
	.st83{fill:url(#SVGID_21_);stroke:#FF4040;stroke-width:0.1;stroke-miterlimit:10;}
	.st84{fill:url(#SVGID_26_);}
	.st85{fill:url(#SVGID_27_);stroke:#00CF5D;stroke-width:0.1;stroke-miterlimit:10;}
	.st86{fill:url(#SVGID_28_);stroke:#00CF5D;stroke-width:0.1;stroke-miterlimit:10;}
	.st87{fill:url(#SVGID_32_);stroke:#00CF5D;stroke-width:0.1;stroke-miterlimit:10;}
	.st88{fill:url(#SVGID_35_);stroke:#00CF5D;stroke-width:0.1;stroke-miterlimit:10;}
	.st89{fill:url(#SVGID_40_);}
	.st90{opacity:0.25;}
	.st91{fill:#808080;}
	.st92{fill:#4D70DF;}
	.st93{fill:none;stroke:#000102;stroke-width:3;stroke-miterlimit:10;}
	.st94{fill:#7191E6;}
	.st95{fill:#6989E5;}
	.st96{fill:#839FEA;}
	.st97{fill:#809EE9;}
	.st98{fill:#587BE2;}
	.st99{fill:#5B7DE1;}
	.st100{fill:#7C9AE9;}
	.st101{fill:#6D8FE6;}
	.st102{fill:#5577E1;}
	.st103{fill:#5173E0;}
	.st104{fill:#6586E4;}
	.st105{fill:#7796E6;}
	.st106{fill:#94AFEC;}
	.st107{fill:#ACC0F0;}
	.st108{fill:#99B1EC;}
	.st109{fill:#BBCBF3;}
	.st110{fill:#8BA7EA;}
	.st111{fill:#C4D3F4;}
	.st112{fill:#CEDBF7;}
	.st113{fill:#7897E7;}
	.st114{fill:#6786E4;}
	.st115{fill:none;stroke:#000102;stroke-width:4;stroke-miterlimit:10;}
	.st116{fill:#000102;}
	.st117{fill:#FF1200;}
	.st118{fill:#002282;}
	.st119{fill:#00B1FF;}
	.st120{opacity:0.74;fill:#C63621;}
	.st121{opacity:0.74;fill:#0C4B96;}
	.st122{fill:#00C572;}
	.st123{fill:#FFAD24;}
	.st124{fill:none;stroke:#000000;stroke-width:0.25;stroke-miterlimit:10;}
</style>
<path class="st32" d="M2.5,19c0,0,1.9-2.6,2.5-3c0.6-0.4,1.3-0.1,2.1,0.9s0.8,0.4,1.4-0.6s2.2-3.9,4.1-0.7s2.2,2.9,2.4,2.9
	c0.2,0,1.2,0.4,1.6,0.9c0.4,0.5,1.8-0.1,2.2-0.6s2-4.6,2.2-5.5s1.3-2.4,2.4-0.1c1.1,2.2,1.8,3.5,2.3,3.5s1.8-0.1,3,1.2
	c1.2,1.4,1.2,1.4,1.2,1.4v6.4H2.5C2.5,25.5,2.6,18.9,2.5,19z"/>
<path class="st33" d="M2.5,16.1c0,0,1.9-2.7,2.5-3.2c0.6-0.5,1.3-0.2,2.1,1s0.8,0.4,1.4-0.7s2.2-4.1,4.1-0.8s2.2,3,2.4,3
	c0.2,0,1.2,0.4,1.6,0.9s1.8-0.1,2.2-0.7c0.4-0.6,2-4.8,2.2-5.7c0.3-0.9,2.7-3.6,3.8-1.3s1.8,3.7,2.2,3.8c0.4,0.1,0.5,0.9,1.7,2.3
	c1.2,1.4,1.2,1.4,1.2,1.4v9.2H2.5C2.5,25.5,2.6,15.9,2.5,16.1z"/>
<path class="st32" d="M2.5,21.2c0,0,1.9-2.7,2.5-3.2s1.3-0.2,2.1,1s0.8,0.4,1.4-0.7c0.6-1.1,2.2-4.1,4.1-0.8s2.2,3,2.4,3
	c0.2,0,1.2,0.4,1.6,0.9c0.4,0.5,1.8-0.1,2.2-0.7s2-4.8,2.2-5.7c0.3-0.9,1.3-2.5,2.4-0.2c1.1,2.3,1.8,3.6,2.3,3.7s1.8-0.2,3,1.3
	c1.2,1.4,1.2,1.4,1.2,1.4v4.2H2.5C2.5,25.5,2.6,21,2.5,21.2z"/>
<path class="st34" d="M2.5,23.3c0,0,1.9-1.4,2.5-1.6c0.6-0.2,1.3-0.1,2.1,0.5s0.8,0.2,1.4-0.3s2.2-2,4.1-0.4
	c1.9,1.7,2.2,1.5,2.4,1.5c0.2,0,1.2,0.2,1.6,0.5c0.4,0.3,1.8,0,2.2-0.3c0.4-0.3,2-2.4,2.2-2.9c0.3-0.5,1.3-1.2,2.4-0.1
	c1.1,1.2,1.8,1.8,2.3,1.8c0.4,0,1.8-0.1,3,0.6c1.2,0.7,1.2,0.7,1.2,0.7v2.1H2.5C2.5,25.5,2.6,23.2,2.5,23.3z"/>
<polygon points="30,25.5 2.5,25.5 2.5,2.4 2.7,2.4 2.7,25.2 30,25.2 "/>
<rect x="2.2" y="6.3" width="0.6" height="0.1"/>
<rect x="2.2" y="10" width="0.6" height="0.1"/>
<rect x="2.1" y="13.9" width="0.6" height="0.1"/>
<rect x="2.1" y="17.7" width="0.6" height="0.1"/>
<rect x="2.2" y="21.5" width="0.5" height="0.1"/>
<rect x="4.4" y="25.3" width="0.1" height="0.5"/>
<rect x="7.5" y="25.3" width="0.1" height="0.5"/>
<rect x="10.6" y="25.3" width="0.1" height="0.5"/>
<rect x="13.8" y="25.3" width="0.1" height="0.5"/>
<rect x="16.9" y="25.3" width="0.1" height="0.5"/>
<rect x="20" y="25.3" width="0.1" height="0.5"/>
<rect x="23.1" y="25.3" width="0.1" height="0.5"/>
<rect x="26.3" y="25.3" width="0.1" height="0.5"/>
<rect x="29.4" y="25.3" width="0.1" height="0.5"/>
<text transform="matrix(1 0 0 1 0.4996 6.6462)" class="st35 st36">50</text>
<text transform="matrix(1 0 0 1 0.4996 10.4264)" class="st35 st36">40</text>
<text transform="matrix(1 0 0 1 0.4996 14.1833)" class="st35 st36">30</text>
<text transform="matrix(1 0 0 1 0.4996 17.9626)" class="st35 st36">20</text>
<text transform="matrix(1 0 0 1 1.0142 21.8542)" class="st35 st36">10</text>
<text transform="matrix(1 0 0 1 1.4615 25.6344)" class="st35 st36">0</text>
<text transform="matrix(1 0 0 1 4.1042 26.8509)" class="st35 st37">1</text>
<text transform="matrix(1 0 0 1 7.3542 26.8509)" class="st35 st37">2</text>
<text transform="matrix(1 0 0 1 10.3959 26.8509)" class="st35 st37">3</text>
<text transform="matrix(1 0 0 1 13.4688 26.8509)" class="st35 st37">4</text>
<text transform="matrix(1 0 0 1 16.6667 26.8509)" class="st35 st37">5</text>
<text transform="matrix(1 0 0 1 19.7709 26.8509)" class="st35 st37">6</text>
<text transform="matrix(1 0 0 1 22.9063 26.8509)" class="st35 st37">7</text>
<text transform="matrix(1 0 0 1 26.0261 26.8509)" class="st35 st37">8</text>
<text transform="matrix(1 0 0 1 29.1459 26.8509)" class="st35 st37">9</text>
<rect x="4.4" y="22" class="st24" width="1.1" height="3.2"/>
<rect x="6.4" y="17" class="st28" width="1.1" height="8.3"/>
<rect x="7.5" y="19.6" class="st25" width="1.1" height="5.7"/>
<rect x="5.3" y="12.9" class="st0" width="1.1" height="12.4"/>
<rect x="10" y="20.7" class="st24" width="1.1" height="4.6"/>
<rect x="12" y="16.7" class="st28" width="1.1" height="8.6"/>
<rect x="13.1" y="19.4" class="st25" width="1.1" height="5.9"/>
<rect x="11" y="11.2" class="st0" width="1.1" height="14.1"/>
<rect x="15.7" y="23.1" class="st24" width="1.1" height="2.2"/>
<rect x="17.7" y="19.1" class="st28" width="1.1" height="6.2"/>
<rect x="18.8" y="18.5" class="st25" width="1.1" height="6.8"/>
<rect x="16.7" y="16.5" class="st0" width="1.1" height="8.8"/>
<rect x="22.1" y="19.6" class="st24" width="1.1" height="5.8"/>
<rect x="24.1" y="15.9" class="st28" width="1.1" height="9.5"/>
<rect x="25.2" y="18.5" class="st25" width="1.1" height="6.9"/>
<rect x="23" y="8.8" class="st0" width="1.1" height="16.7"/>
</svg>
