<?xml version="1.0" encoding="utf-8"?>
<!-- Generator: Adobe Illustrator 25.0.0, SVG Export Plug-In . SVG Version: 6.00 Build 0)  -->
<svg version="1.1" id="Layer_1" xmlns="http://www.w3.org/2000/svg" xmlns:xlink="http://www.w3.org/1999/xlink" x="0px" y="0px"
	 viewBox="0 0 36 36" style="enable-background:new 0 0 36 36;" xml:space="preserve">
<style type="text/css">
	.st0{fill:#CB1618;}
	.st1{fill:#185ABD;}
	.st2{fill:#D83039;}
	.st3{fill:#103F91;}
	.st4{fill:#185C37;}
	.st5{fill:#33C481;}
	.st6{fill:#107C41;}
	.st7{fill:#21A366;}
	.st8{fill:#0B4A99;}
	.st9{fill:none;}
	.st10{fill:#FFFFFF;}
	.st11{fill:#41A5EE;}
	.st12{fill:#2B7CD3;}
	.st13{opacity:0.5;enable-background:new    ;}
	.st14{fill:url(#SVGID_1_);}
	.st15{fill:url(#SVGID_2_);}
	.st16{fill:url(#SVGID_3_);}
	.st17{fill:url(#SVGID_4_);}
	.st18{fill:#E24951;}
	.st19{fill-rule:evenodd;clip-rule:evenodd;}
	.st20{fill:#262625;}
	.st21{fill:none;stroke:#000000;stroke-width:0.75;stroke-miterlimit:10;}
	.st22{fill:none;stroke:#000000;stroke-width:1.2;stroke-miterlimit:10;}
	.st23{fill-rule:evenodd;clip-rule:evenodd;fill:#0B4A99;}
	.st24{fill:none;stroke:#0071C5;stroke-width:1.3;stroke-linecap:round;stroke-miterlimit:10;}
	.st25{fill:none;stroke:#F0AB00;stroke-width:1.3;stroke-miterlimit:10;}
	.st26{fill:#1C55A6;}
	.st27{fill:none;stroke:#1C55A6;stroke-width:1.3;stroke-linecap:round;}
	.st28{fill-rule:evenodd;clip-rule:evenodd;fill:none;stroke:#1C55A6;stroke-width:1.3;stroke-linecap:round;}
	.st29{fill:none;stroke:#1C55A6;stroke-width:1.3;stroke-linecap:round;stroke-miterlimit:10;}
	.st30{fill:none;stroke:#231F20;}
	.st31{fill:none;stroke:#0B4A99;stroke-width:1.3;stroke-miterlimit:10;}
</style>
<g>
	<g>
		<path class="st8" d="M10.6,27.9H2.2V6l5.1-6h16.8v6.2h-1.3V1.3h-15L3.5,6.5v20.2h7.1V27.9z M9.5,7.7H4.7V6.5h3.5V2.4h1.3V7.7z"/>
	</g>
	<g>
		<path class="st8" d="M33.8,36h-22V14.1l5.1-6h16.8V36z M13.1,34.7h19.4V9.3h-15l-4.5,5.2V34.7z M19,15.8h-4.7v-1.3h3.5v-4.1H19
			V15.8z"/>
	</g>
	<g>
		<rect x="13.4" y="5.4" class="st8" width="7.4" height="1.3"/>
	</g>
	<g>
		<rect x="16.4" y="3.3" class="st8" width="4.5" height="1.3"/>
	</g>
	<g>
		<rect x="22.3" y="12.7" class="st8" width="7.4" height="1.3"/>
	</g>
	<g>
		<rect x="25.2" y="10.6" class="st8" width="4.5" height="1.3"/>
	</g>
	<g>
		<g>
			<rect x="9.3" y="10.7" class="st8" width="5.4" height="1.3"/>
		</g>
		<g>
			<path class="st8" d="M8.3,13H4.6V9.3h3.7V13z M5.9,11.7h1.2v-1.2H5.9V11.7z"/>
		</g>
	</g>
	<g>
		<g>
			<rect x="9.3" y="16.6" class="st8" width="3.1" height="1.3"/>
		</g>
		<g>
			<path class="st8" d="M8.3,19H4.6v-3.7h3.7V19z M5.9,17.7h1.2v-1.2H5.9V17.7z"/>
		</g>
	</g>
	<g>
		<g>
			<rect x="9.3" y="22.5" class="st8" width="3.1" height="1.3"/>
		</g>
		<g>
			<path class="st8" d="M8.3,25H4.6v-3.7h3.7V25z M5.9,23.7h1.2v-1.2H5.9V23.7z"/>
		</g>
	</g>
	<g>
		<rect x="18.8" y="19.2" class="st8" width="11.6" height="1.3"/>
	</g>
	<g>
		<path class="st8" d="M17.8,21.5h-3.7v-3.7h3.7V21.5z M15.4,20.2h1.2V19h-1.2V20.2z"/>
	</g>
	<g>
		<rect x="18.8" y="25.1" class="st8" width="11.6" height="1.3"/>
	</g>
	<g>
		<path class="st8" d="M17.8,27.5h-3.7v-3.7h3.7V27.5z M15.4,26.2h1.2V25h-1.2V26.2z"/>
	</g>
	<g>
		<rect x="18.8" y="31" class="st8" width="11.6" height="1.3"/>
	</g>
	<g>
		<path class="st8" d="M17.8,33.4h-3.7v-3.7h3.7V33.4z M15.4,32.2h1.2V31h-1.2V32.2z"/>
	</g>
</g>
</svg>
