<svg width="325" height="67" viewBox="0 0 325 67" fill="none" xmlns="http://www.w3.org/2000/svg">
<rect width="325" height="67" rx="33.5" fill="white"/>
<path d="M54.5 49H42.5V50.5H54.5V49Z" fill="#0B4A99"/>
<path d="M49.2002 43.8H47.7002V55.8H49.2002V43.8Z" fill="#0B4A99"/>
<path d="M40.3002 30C34.1002 30 27.7002 28.3 27.7002 25.1C27.7002 21.9 34.0002 20.2 40.2002 20.2C46.4002 20.2 52.7002 21.9 52.7002 25.1C52.8002 28.3 46.5002 30 40.3002 30ZM40.3002 21.6C33.7002 21.6 29.3002 23.4 29.3002 25.1C29.3002 26.8 33.7002 28.6 40.3002 28.6C46.9002 28.6 51.3002 26.8 51.3002 25.1C51.3002 23.4 46.9002 21.6 40.3002 21.6Z" fill="#0B4A99"/>
<path d="M40.6002 37.7C33.7002 37.7 28.4002 35.9 27.7002 33.2L29.2002 32.9C29.6002 34.5 34.1002 36.3 40.6002 36.3V37.7Z" fill="#0B4A99"/>
<path d="M39.9004 37.7V36.3C46.4004 36.3 50.9004 34.5 51.3004 32.9L52.8004 33.2C52.2004 35.8 46.9004 37.7 39.9004 37.7Z" fill="#0B4A99"/>
<path d="M40.6002 46.3C33.7002 46.3 28.4002 44.5 27.7002 41.8L29.2002 41.5C29.6002 43.1 34.1002 44.9 40.6002 44.9V46.3Z" fill="#0B4A99"/>
<path d="M29.2998 25.3H27.7998V35.4H29.2998V25.3Z" fill="#0B4A99"/>
<path d="M52.7998 25.6H51.2998V35.4H52.7998V25.6Z" fill="#0B4A99"/>
<path d="M29.2998 34.3H27.7998V46.2H29.2998V34.3Z" fill="#0B4A99"/>
<path d="M52.7998 35.3H51.2998V42H52.7998V35.3Z" fill="#0B4A99"/>
<path d="M40.6002 54.6C33.7002 54.6 28.4002 52.8 27.7002 50.1L29.2002 49.8C29.6002 51.4 34.1002 53.2 40.6002 53.2V54.6Z" fill="#0B4A99"/>
<path d="M29.2998 44.7H27.7998V50.4H29.2998V44.7Z" fill="#0B4A99"/>
<g clip-path="url(#clip0_0_1)">
<path d="M294 29.3H258V21.5C258 20.6 258.7 20 259.6 20H292.5C293.3 20 294 20.6 294 21.5V29.3ZM259.2 28.1H292.9V21.5C292.9 21.3 292.8 21.1 292.5 21.1H259.6C259.4 21.1 259.2 21.2 259.2 21.5V28.1V28.1Z" fill="#0B4A99"/>
<path d="M292.5 56H259.4C258.6 56 258 55.3 258 54.6V29.2H259.2V54.6C259.2 54.7 259.3 54.8 259.4 54.8H292.6C292.8 54.8 292.9 54.6 292.9 54.5V29.1H294V54.8C293.8 55.5 293.2 56 292.5 56Z" fill="#0B4A99"/>
<path d="M270.7 28.3H269.6V55.1H270.7V28.3Z" fill="#0B4A99"/>
<path d="M282.3 28.3H281.2V55.1H282.3V28.3Z" fill="#0B4A99"/>
<path d="M293 36.6H258.5V37.7H293V36.6Z" fill="#0B4A99"/>
<path d="M293 46.2H258.5V47.3H293V46.2Z" fill="#0B4A99"/>
</g>
<path d="M192.8 52.8H188.8C188.2 52.8 187.6 52.3 187.6 51.6V49.3C186.7 49 185.8 48.7 185 48.2L183.3 49.8C182.9 50.2 182.1 50.3 181.7 49.8L178.9 47C178.4 46.5 178.4 45.8 178.9 45.4L180.5 43.8C180.1 42.9 179.7 42.1 179.5 41.2H177.1C176.5 41.2 176 40.6 176 40V36C176 35.4 176.5 34.8 177.2 34.8H179.5C179.8 33.9 180.1 33 180.6 32.2L179 30.5C178.5 30 178.5 29.3 179 28.9L181.8 26.1C182 25.9 182.3 25.8 182.6 25.8C182.9 25.8 183.2 25.9 183.4 26.1L185 27.7C185.9 27.3 186.7 26.9 187.6 26.7V24.3C187.6 23.7 188.1 23.1 188.8 23.1H192.8C193.4 23.1 194 23.6 194 24.3V26.6C194.9 26.9 195.8 27.2 196.6 27.7L196.1 28.7C195.4 28.3 194.6 28 193.8 27.8C193.3 27.7 192.9 27.2 192.9 26.7V24.3H188.8V26.7C188.8 27.2 188.5 27.7 187.9 27.8C187.1 28 186.4 28.3 185.6 28.7C185.2 29 184.6 28.9 184.2 28.5L182.6 26.9L179.7 29.7L181.3 31.4C181.7 31.8 181.7 32.3 181.5 32.8C181.1 33.5 180.8 34.3 180.6 35.1C180.5 35.6 180 36 179.5 36H177.2V40.1H179.6C180.1 40.1 180.6 40.4 180.7 41C180.9 41.8 181.2 42.6 181.6 43.3C181.9 43.8 181.8 44.3 181.4 44.7L179.8 46.3L182.6 49.2L184.3 47.6C184.7 47.2 185.2 47.2 185.7 47.4C186.4 47.8 187.2 48.1 188 48.3C188.5 48.4 188.9 48.9 188.9 49.4V51.7H193V49.3C193 48.8 193.4 48.3 193.9 48.2C194.7 48 195.5 47.7 196.2 47.3L196.7 48.3C195.9 48.7 195.1 49.1 194.2 49.3V51.7C194 52.3 193.5 52.8 192.8 52.8ZM190.8 44.4C187.3 44.4 184.4 41.5 184.4 38C184.4 34.5 187.3 31.6 190.8 31.6C194.3 31.6 197.2 34.5 197.2 38C197.2 41.5 194.3 44.4 190.8 44.4ZM190.8 32.7C187.9 32.7 185.5 35.1 185.5 38C185.5 40.9 187.9 43.3 190.8 43.3C193.7 43.3 196.1 40.9 196.1 38C196.1 35.1 193.7 32.7 190.8 32.7Z" fill="#0B4A99"/>
<path d="M194.5 33.8L193.9 32.9L201.5 28H206.8V29.1H201.8L194.5 33.8Z" fill="#0B4A99"/>
<path d="M206.8 48.2H201.5L193.9 43.3L194.5 42.4L201.8 47.1H206.8V48.2Z" fill="#0B4A99"/>
<path d="M206.8 37.4H197.1V38.5H206.8V37.4Z" fill="#0B4A99"/>
<path d="M209.1 31.2C207.5 31.2 206.2 29.9 206.2 28.3C206.2 26.7 207.5 25.4 209.1 25.4C210.7 25.4 212 26.7 212 28.3C212 29.9 210.7 31.2 209.1 31.2ZM209.1 26.6C208.1 26.6 207.4 27.4 207.4 28.3C207.4 29.2 208.2 30 209.1 30C210 30 210.8 29.2 210.8 28.3C210.8 27.4 210.1 26.6 209.1 26.6Z" fill="#0B4A99"/>
<path d="M209.1 40.8C207.5 40.8 206.2 39.5 206.2 37.9C206.2 36.3 207.5 35 209.1 35C210.7 35 212 36.3 212 37.9C212 39.5 210.7 40.8 209.1 40.8ZM209.1 36.2C208.1 36.2 207.4 37 207.4 37.9C207.4 38.9 208.2 39.6 209.1 39.6C210 39.6 210.8 38.8 210.8 37.9C210.9 37 210.1 36.2 209.1 36.2Z" fill="#0B4A99"/>
<path d="M209.1 50.4C207.5 50.4 206.2 49.1 206.2 47.5C206.2 45.9 207.5 44.6 209.1 44.6C210.7 44.6 212 45.9 212 47.5C212 49.1 210.7 50.4 209.1 50.4ZM209.1 45.8C208.1 45.8 207.4 46.6 207.4 47.5C207.4 48.5 208.2 49.2 209.1 49.2C210 49.2 210.8 48.4 210.8 47.5C210.9 46.6 210.1 45.8 209.1 45.8Z" fill="#0B4A99"/>
<g clip-path="url(#clip1_0_1)">
<path d="M108.4 53.7C108.2 53.7 108 53.7 107.7 53.7C105.7 53.5 103.9 52.6 102.7 51.1C100.1 48 100.5 43.3 103.6 40.7L111.5 34.1C114.6 31.5 119.3 31.9 121.9 35C123.3 36.6 123.9 38.8 123.5 40.9C123.4 41.3 123 41.6 122.6 41.6C122.2 41.5 121.9 41.1 121.9 40.7C122.2 39 121.7 37.4 120.6 36.1C118.5 33.6 114.9 33.3 112.4 35.4L104.5 42C102 44.1 101.7 47.7 103.8 50.2C104.8 51.4 106.2 52.1 107.7 52.3C109.2 52.4 110.8 52 111.9 51L119.8 44.4C120.1 44.1 120.6 44.2 120.9 44.5C121.2 44.8 121.1 45.3 120.8 45.6L113.2 52C111.8 53.1 110.1 53.7 108.4 53.7Z" fill="#0B4A99"/>
<path d="M121.7 43.7C119.6 43.7 117.5 42.8 116 41C114.6 39.3 114 37.1 114.4 35C114.5 34.6 114.9 34.3 115.3 34.4C115.7 34.5 116 34.9 115.9 35.3C115.6 37 116.1 38.7 117.2 40C119.3 42.5 122.9 42.8 125.4 40.7L133.3 34.1C135.8 32 136.1 28.4 134 25.9C133 24.7 131.6 24 130.1 23.8C128.6 23.7 127 24.1 125.9 25.1L118 31.7C117.7 32 117.2 31.9 116.9 31.6C116.6 31.3 116.7 30.8 117 30.5L124.8 24C126.3 22.7 128.2 22.1 130.2 22.3C132.2 22.5 134 23.4 135.2 24.9C137.8 28 137.4 32.7 134.3 35.3L126.4 42C125 43.2 123.4 43.7 121.7 43.7Z" fill="#0B4A99"/>
</g>
<defs>
<clipPath id="clip0_0_1">
<rect width="36" height="36" fill="white" transform="translate(258 20)"/>
</clipPath>
<clipPath id="clip1_0_1">
<rect width="36" height="36" fill="white" transform="translate(101 20)"/>
</clipPath>
</defs>
</svg>
