<?xml version="1.0" encoding="iso-8859-1"?>
<!-- Generator: Adobe Illustrator 12.0.0, SVG Export Plug-In . SVG Version: 6.00 Build 51448)  -->
<!DOCTYPE svg PUBLIC "-//W3C//DTD SVG 1.1//EN" "http://www.w3.org/Graphics/SVG/1.1/DTD/svg11.dtd" [
	<!ENTITY ns_svg "http://www.w3.org/2000/svg">
	<!ENTITY ns_xlink "http://www.w3.org/1999/xlink">
]>
<svg  version="1.1" id="Layer_1" xmlns="&ns_svg;" xmlns:xlink="&ns_xlink;" width="15.874" height="15.874"
	 viewBox="0 0 15.874 15.874" style="overflow:visible;enable-background:new 0 0 15.874 15.874;" xml:space="preserve">
<g>
	<g>
		<path style="fill:#0071C5;" d="M6.385,8.708c1.846-0.092,2.746-2.516,2.746-2.516c0.946-1.153,0.276-1.984,0.276-1.984
			C9.431,1.808,8,1.3,8,1.3C7.654,0.908,6.292,0.862,6.292,0.862h0.153c0,0-1.362,0.046-1.708,0.438c0,0-1.431,0.508-1.408,2.908
			c0,0-0.669,0.831,0.277,1.984c0,0,0.9,2.424,2.747,2.516H6.385z"/>
		<path style="fill:#0071C5;" d="M15.78,11.584v0.53c0,0.204-0.165,0.369-0.369,0.369h-0.363c-0.059,0.227-0.147,0.439-0.264,0.637
			l0.257,0.256c0.145,0.145,0.145,0.378,0,0.522l-0.375,0.375c-0.145,0.145-0.378,0.145-0.522,0l-0.257-0.257
			c-0.196,0.116-0.41,0.205-0.636,0.264v0.363c0,0.204-0.165,0.369-0.369,0.369h-0.531c-0.203,0-0.369-0.165-0.369-0.369V14.28
			c-0.226-0.06-0.439-0.148-0.636-0.264l-0.257,0.257c-0.145,0.145-0.378,0.145-0.522,0l-0.375-0.375
			c-0.145-0.145-0.145-0.378,0-0.522l0.257-0.257c-0.115-0.196-0.204-0.409-0.263-0.636H9.821c-0.204,0-0.369-0.165-0.369-0.369
			v-0.531c0-0.203,0.165-0.369,0.369-0.369h0.364c0.059-0.226,0.147-0.439,0.263-0.636l-0.257-0.257
			c-0.145-0.145-0.145-0.378,0-0.522l0.375-0.375c0.145-0.145,0.378-0.145,0.522,0l0.257,0.257c0.197-0.115,0.41-0.204,0.636-0.264
			V9.054c0-0.204,0.166-0.369,0.369-0.369h0.531c0.204,0,0.369,0.165,0.369,0.369v0.363c0.226,0.06,0.439,0.148,0.636,0.264
			l0.257-0.257c0.145-0.145,0.378-0.145,0.522,0l0.375,0.375c0.145,0.145,0.145,0.378,0,0.522l-0.257,0.257
			c0.116,0.196,0.205,0.41,0.264,0.636h0.363C15.615,11.214,15.78,11.38,15.78,11.584z M12.616,10.603
			c-0.688,0-1.246,0.559-1.246,1.246c0,0.688,0.558,1.246,1.246,1.246s1.246-0.558,1.246-1.246
			C13.862,11.161,13.305,10.603,12.616,10.603z"/>
		<path style="fill:#0071C5;" d="M9.722,13c-0.407,0-0.738-0.33-0.738-0.738v-0.808c0-0.408,0.331-0.738,0.738-0.738h0.098
			L9.814,10.67c-0.462-0.554-0.046-1.085-0.046-1.085L8.383,8.823c0,0-1.938,1.685-4.084,0c0,0-0.785,0.531-1.407,0.785
			c0,0-2.077,0.185-2.4,1.015c0,0-1.246,2.839,0.669,3.531c0,0,3.646,1.569,9.069,0.438c0,0-1.112-0.701-0.413-1.479L9.722,13z"/>
	</g>
	<rect style="fill:none;" width="15.874" height="15.874"/>
</g>
</svg>
