<?xml version="1.0" encoding="utf-8"?>
<!-- Generator: Adobe Illustrator 25.2.0, SVG Export Plug-In . SVG Version: 6.00 Build 0)  -->
<svg version="1.1" id="Layer_1" xmlns="http://www.w3.org/2000/svg" xmlns:xlink="http://www.w3.org/1999/xlink" x="0px" y="0px"
	 viewBox="0 0 36 36" style="enable-background:new 0 0 36 36;" xml:space="preserve">
<style type="text/css">
	.st0{fill:#0B4A99;}
</style>
<g>
	<path class="st0" d="M34.87,31.89H10.34V0h18.7l5.84,6.84V31.89z M11.28,30.95h22.65V7.19L28.6,0.94H11.28V30.95z"/>
	<polygon class="st0" points="34.4,7.76 28.34,7.76 28.34,0.47 29.29,0.47 29.29,6.82 34.4,6.82 	"/>
	<rect x="13.96" y="9.35" class="st0" width="13" height="0.94"/>
	<rect x="13.96" y="17" class="st0" width="17.42" height="0.94"/>
	<rect x="13.96" y="24.65" class="st0" width="17.42" height="0.94"/>
	<rect x="4.69" y="11.08" class="st0" width="5.65" height="0.94"/>
	<rect x="4.69" y="18.73" class="st0" width="5.65" height="0.94"/>
	<rect x="4.69" y="26.39" class="st0" width="5.65" height="0.94"/>
	<polygon class="st0" points="24.72,31.27 24.72,35.06 2.07,35.06 2.07,5.05 10.8,5.05 10.8,4.11 1.13,4.11 1.13,36 25.66,36 
		25.66,31.27 	"/>
</g>
</svg>
