<?xml version="1.0" encoding="utf-8"?>
<!-- Generator: Adobe Illustrator 26.0.1, SVG Export Plug-In . SVG Version: 6.00 Build 0)  -->
<svg version="1.1" id="Layer_1" xmlns="http://www.w3.org/2000/svg" xmlns:xlink="http://www.w3.org/1999/xlink" x="0px" y="0px"
	 viewBox="0 0 36 36" style="enable-background:new 0 0 36 36;" xml:space="preserve">
<style type="text/css">
	.st0{fill:none;stroke:#0B4A99;stroke-width:1.3;stroke-miterlimit:10;}
	.st1{fill:#0B4A99;}
	.st2{fill:#7AB5F4;}
</style>
<g>
	<g>
		<polygon class="st1" points="26.8,8.3 20.2,8.3 20.2,1.4 21.5,1.4 21.5,7 26.8,7 		"/>
	</g>
</g>
<g>
	<g>
		<rect x="4.5" y="14.2" class="st1" width="11.1" height="1.3"/>
	</g>
</g>
<g>
	<g>
		<rect x="4.5" y="6.6" class="st1" width="12.9" height="1.3"/>
	</g>
</g>
<g>
	<g>
		<rect x="4.5" y="19" class="st1" width="11.1" height="1.3"/>
	</g>
</g>
<g>
	<g>
		<rect x="4.5" y="23.9" class="st1" width="11.1" height="1.3"/>
	</g>
</g>
<g>
	<g>
		<rect x="4.5" y="28.7" class="st1" width="11.1" height="1.3"/>
	</g>
</g>
<g>
	<polygon class="st1" points="27.9,35.4 0,35.4 0,0.6 20.9,0.6 27.9,7.6 27.9,10.2 26.7,10.2 26.7,8.1 20.4,1.9 1.3,1.9 1.3,34.1 
		26.7,34.1 26.7,29.1 27.9,29.1 	"/>
</g>
<g>
	<path class="st1" d="M27.5,28.2c-4.7,0-8.5-3.8-8.5-8.5c0-4.7,3.8-8.5,8.5-8.5S36,15,36,19.7C36,24.4,32.2,28.2,27.5,28.2z
		 M27.5,12.4c-4,0-7.3,3.3-7.3,7.3c0,4,3.3,7.3,7.3,7.3s7.3-3.3,7.3-7.3C34.7,15.7,31.5,12.4,27.5,12.4z"/>
</g>
<g>
	<g>
		<rect x="23.6" y="19.1" class="st1" width="7.8" height="1.3"/>
	</g>
	<g>
		<rect x="26.8" y="15.8" class="st1" width="1.3" height="7.8"/>
	</g>
</g>
</svg>
