<?xml version="1.0" encoding="utf-8"?>
<!-- Generator: Adobe Illustrator 25.0.0, SVG Export Plug-In . SVG Version: 6.00 Build 0)  -->
<svg version="1.1" id="Layer_1" xmlns="http://www.w3.org/2000/svg" xmlns:xlink="http://www.w3.org/1999/xlink" x="0px" y="0px"
	 viewBox="0 0 36 36" style="enable-background:new 0 0 36 36;" xml:space="preserve">
<style type="text/css">
	.st0{fill:#CB1618;}
	.st1{fill:#185ABD;}
	.st2{fill:#D83039;}
	.st3{fill:#103F91;}
	.st4{fill:#185C37;}
	.st5{fill:#33C481;}
	.st6{fill:#107C41;}
	.st7{fill:#21A366;}
	.st8{fill:#0B4A99;}
	.st9{fill:none;}
	.st10{fill:#FFFFFF;}
	.st11{fill:#41A5EE;}
	.st12{fill:#2B7CD3;}
	.st13{opacity:0.5;enable-background:new    ;}
	.st14{fill:url(#SVGID_1_);}
	.st15{fill:url(#SVGID_2_);}
	.st16{fill:url(#SVGID_3_);}
	.st17{fill:url(#SVGID_4_);}
	.st18{fill:#E24951;}
	.st19{fill-rule:evenodd;clip-rule:evenodd;}
	.st20{fill:#262625;}
	.st21{fill:none;stroke:#000000;stroke-width:0.75;stroke-miterlimit:10;}
	.st22{fill:none;stroke:#000000;stroke-width:1.2;stroke-miterlimit:10;}
	.st23{fill-rule:evenodd;clip-rule:evenodd;fill:#0B4A99;}
	.st24{fill:none;stroke:#0071C5;stroke-width:1.3;stroke-linecap:round;stroke-miterlimit:10;}
	.st25{fill:none;stroke:#F0AB00;stroke-width:1.3;stroke-miterlimit:10;}
	.st26{fill:#1C55A6;}
	.st27{fill:none;stroke:#1C55A6;stroke-width:1.3;stroke-linecap:round;}
	.st28{fill-rule:evenodd;clip-rule:evenodd;fill:none;stroke:#1C55A6;stroke-width:1.3;stroke-linecap:round;}
	.st29{fill:none;stroke:#1C55A6;stroke-width:1.3;stroke-linecap:round;stroke-miterlimit:10;}
	.st30{fill:none;stroke:#231F20;}
	.st31{fill:none;stroke:#0B4A99;stroke-width:1.3;stroke-miterlimit:10;}
</style>
<g>
	<g>
		<polygon class="st8" points="32.7,9.7 0,9.7 0,2.1 5.1,2.1 5.1,3.4 1.3,3.4 1.3,8.4 31.4,8.4 31.4,3.4 27.2,3.4 27.2,2.1 
			32.7,2.1 		"/>
	</g>
	<g>
		<path class="st8" d="M32.7,33.3H0V10.8h32.7V33.3z M1.3,32h30.1V12.1H1.3V32z"/>
	</g>
	<g>
		<polygon class="st8" points="36,35.3 3.3,35.3 3.3,32.6 4.6,32.6 4.6,34 34.7,34 34.7,8 32,8 32,6.7 36,6.7 		"/>
	</g>
	<g>
		<rect x="8.2" y="0.7" class="st8" width="1.3" height="4.8"/>
	</g>
	<g>
		<rect x="15.3" y="0.7" class="st8" width="1.3" height="4.8"/>
	</g>
	<g>
		<rect x="22.4" y="0.7" class="st8" width="1.3" height="4.8"/>
	</g>
	<g>
		
			<rect x="15.3" y="15.3" transform="matrix(0.7071 -0.7071 0.7071 0.7071 -10.9007 17.7567)" class="st8" width="1.3" height="13.5"/>
	</g>
	<g>
		
			<rect x="9.2" y="21.4" transform="matrix(0.7071 -0.7071 0.7071 0.7071 -10.9007 17.7567)" class="st8" width="13.5" height="1.3"/>
	</g>
</g>
</svg>
