<svg id="Layer_1" data-name="Layer 1" xmlns="http://www.w3.org/2000/svg" viewBox="0 0 30 30"><defs><style>.cls-1{fill:#374150;}.cls-2{fill:#2878c8;}</style></defs><title>CSV ICON</title><path class="cls-1" d="M21,2.74V.19l4.09,4.1L21,8.38V5.81c-4.83.37-8.72,2.88-9.67,6.14a5.49,5.49,0,0,1-.22-1.54c0-4,4.33-7.26,9.89-7.68Z"/><path class="cls-2" d="M15.7,27.78h7.2a1.51,1.51,0,0,0,1.51-1.51V9.8A1.51,1.51,0,0,0,22.9,8.29H15.7v-2L1.83,8.18V27.91l13.87,1.9Zm0-7H18v.86H15.7Zm0-.11v-.88H18v.88Zm0-1v-1H18v1Zm0-1.11V17.47H18V18.6Zm0-1.22V16.3H18v1.07Zm0-1.17V15.14H18v1.07Zm.09-7.06h7.1a.65.65,0,0,1,.65.65V26.28a.65.65,0,0,1-.65.65H15.7V21.76h7.63V14.94h0V13.88H15.7V9.17Zm7.42,6v6.51h-1v-6.2h-.69v6.2h-.58V16.09h-.69v5.56h-.51V16.72h-.69v4.93h-1V15.14ZM20.68,15V14h2.55v1h0V15Zm-.09,0H18V14h2.55ZM5.33,19.21a2.24,2.24,0,0,0,.79-.13l.15.8A2.53,2.53,0,0,1,5.19,20a2.05,2.05,0,0,1-2.12-2.23,2.2,2.2,0,0,1,2.22-2.37,2.33,2.33,0,0,1,1,.17l-.2.81a1.92,1.92,0,0,0-.8-.15A1.3,1.3,0,0,0,4,17.76a1.3,1.3,0,0,0,1.32,1.46Zm2.65.9a2.81,2.81,0,0,1-1.24-.31l.2-.84a2.49,2.49,0,0,0,1.1.3c.46,0,.71-.19.71-.49s-.21-.46-.75-.66c-.73-.27-1.2-.68-1.2-1.34s.62-1.38,1.66-1.41a2.68,2.68,0,0,1,1.16.21l-.23.86a2.1,2.1,0,0,0-.95-.21c-.44,0-.65.22-.65.45s.25.42.83.64c.8.3,1.18.73,1.18,1.39S9.21,20.15,8,20.12Zm4.94.06-1.29,0L10.12,15.4l1.17,0,.58,2c.17.57.32,1.12.43,1.72h0c.12-.58.28-1.15.44-1.7l.63-2.08,1.21,0Z"/></svg>