<?xml version="1.0" encoding="utf-8"?>
<!-- Generator: Adobe Illustrator 25.0.0, SVG Export Plug-In . SVG Version: 6.00 Build 0)  -->
<svg version="1.1" id="Layer_1" xmlns="http://www.w3.org/2000/svg" xmlns:xlink="http://www.w3.org/1999/xlink" x="0px" y="0px"
	 viewBox="0 0 25 25" style="enable-background:new 0 0 25 25;" xml:space="preserve">
<style type="text/css">
	.st0{fill:#276340;}
	.st1{fill:#3E865F;}
	.st2{fill:#EFAA03;}
	.st3{fill:#54AF7B;}
	.st4{fill:#A6A13E;}
	.st5{fill:#D3CB62;}
	.st6{fill:#F7CB6B;}
</style>
<g>
	<polygon class="st0" points="0.3,3.9 12,0 24.7,4 23.4,17.4 12.7,25 1.3,17.5 	"/>
	<polygon class="st1" points="3.9,10 1.1,8.5 0.9,4.6 3.7,5.8 	"/>
	<polygon class="st2" points="4.2,14.7 1.5,13.1 1.2,9.4 4.1,10.9 	"/>
	<polygon class="st3" points="4.5,18.9 1.8,17.1 1.6,13.9 4.3,15.6 	"/>
	<polygon class="st4" points="7.9,12 4.6,10.3 4.3,6.2 7.8,7.6 	"/>
	<polygon class="st5" points="7.9,16.9 4.8,15.1 4.7,11.3 7.9,12.9 	"/>
	<polygon class="st4" points="8,21.2 5,19.2 4.8,15.9 8,17.8 	"/>
	<polygon class="st3" points="12.3,14.4 8.6,12.4 8.6,8 12.3,9.7 	"/>
	<polygon class="st6" points="12.3,19.5 8.7,17.4 8.6,13.4 12.3,15.3 	"/>
	<polygon class="st1" points="12.3,23.9 8.7,21.8 8.7,18.2 12.3,20.4 	"/>
	<polygon class="st6" points="12.9,9.8 16.8,8 16.6,12.4 12.9,14.4 	"/>
	<polygon class="st1" points="12.9,15.5 16.6,13.4 16.4,17.2 12.9,19.4 	"/>
	<polygon class="st2" points="12.9,20.5 16.5,18.2 16.3,21.8 12.9,24 	"/>
	<polygon class="st3" points="17.5,7.6 20.7,6.2 20.3,10.4 17.3,12.1 	"/>
	<polygon class="st5" points="17.2,13 20.2,11.4 20,15.1 17,16.9 	"/>
	<polygon class="st4" points="17,17.8 19.9,16 19.6,19.5 16.8,21.5 	"/>
	<polygon class="st6" points="20.5,15.5 23.1,13.9 22.8,17.2 20.2,19 	"/>
	<polygon class="st1" points="20.9,11 23.6,9.4 23.3,13 20.6,14.7 	"/>
	<polygon class="st2" points="21.3,5.9 24.1,4.6 23.7,8.6 21,10.1 	"/>
	<polygon class="st5" points="1.1,4.1 5,2.9 7.9,4.1 4.2,5.5 	"/>
	<polygon class="st1" points="4.8,5.7 8.5,4.3 11.8,5.7 8.1,7.1 	"/>
	<polygon class="st2" points="8.8,7.3 12.3,5.9 16.3,7.5 12.8,9.1 	"/>
	<polygon class="st6" points="13.1,5.7 16.5,4.3 20.2,5.7 17,7.3 	"/>
	<polygon class="st5" points="17,4.2 19.9,2.9 23.9,4.2 21,5.5 	"/>
	<polygon class="st3" points="9,4.1 12.3,2.9 15.8,4.1 12.4,5.5 	"/>
	<polygon class="st6" points="5.5,2.7 8.8,1.6 11.8,2.7 8.6,3.9 	"/>
	<polygon class="st2" points="9.3,1.5 12,0.5 15.1,1.5 12.3,2.5 	"/>
	<polygon class="st4" points="12.9,2.7 15.7,1.6 19.2,2.7 16.5,3.9 	"/>
</g>
</svg>
