<?xml version="1.0" encoding="utf-8"?>
<!-- Generator: Adobe Illustrator 25.0.0, SVG Export Plug-In . SVG Version: 6.00 Build 0)  -->
<svg version="1.1" id="Layer_1" xmlns="http://www.w3.org/2000/svg" xmlns:xlink="http://www.w3.org/1999/xlink" x="0px" y="0px"
	 viewBox="0 0 36 36" style="enable-background:new 0 0 36 36;" xml:space="preserve">
<style type="text/css">
	.st0{fill:#CB1618;}
	.st1{fill:#185ABD;}
	.st2{fill:#D83039;}
	.st3{fill:#103F91;}
	.st4{fill:#185C37;}
	.st5{fill:#33C481;}
	.st6{fill:#107C41;}
	.st7{fill:#21A366;}
	.st8{fill:#0B4A99;}
	.st9{fill:none;}
	.st10{fill:#FFFFFF;}
	.st11{fill:#41A5EE;}
	.st12{fill:#2B7CD3;}
	.st13{opacity:0.5;enable-background:new    ;}
	.st14{fill:url(#SVGID_1_);}
	.st15{fill:url(#SVGID_2_);}
	.st16{fill:url(#SVGID_3_);}
	.st17{fill:url(#SVGID_4_);}
	.st18{fill:#E24951;}
	.st19{fill-rule:evenodd;clip-rule:evenodd;}
	.st20{fill:#262625;}
	.st21{fill:none;stroke:#000000;stroke-width:0.75;stroke-miterlimit:10;}
	.st22{fill:none;stroke:#000000;stroke-width:1.2;stroke-miterlimit:10;}
	.st23{fill-rule:evenodd;clip-rule:evenodd;fill:#0B4A99;}
	.st24{fill:none;stroke:#0071C5;stroke-width:1.3;stroke-linecap:round;stroke-miterlimit:10;}
	.st25{fill:none;stroke:#F0AB00;stroke-width:1.3;stroke-miterlimit:10;}
	.st26{fill:#1C55A6;}
	.st27{fill:none;stroke:#1C55A6;stroke-width:1.3;stroke-linecap:round;}
	.st28{fill-rule:evenodd;clip-rule:evenodd;fill:none;stroke:#1C55A6;stroke-width:1.3;stroke-linecap:round;}
	.st29{fill:none;stroke:#1C55A6;stroke-width:1.3;stroke-linecap:round;stroke-miterlimit:10;}
	.st30{fill:none;stroke:#231F20;}
	.st31{fill:none;stroke:#0B4A99;stroke-width:1.3;stroke-miterlimit:10;}
</style>
<g>
	<g>
		<path class="st8" d="M33.5,33.2H2.5c-1.4,0-2.5-1.1-2.5-2.5V7.3c0-1.4,1.1-2.5,2.5-2.5h4.9c0.3,0,0.6,0.3,0.6,0.6
			C8.1,5.8,7.8,6,7.5,6H2.5C1.8,6,1.3,6.6,1.3,7.3v23.4c0,0.7,0.6,1.3,1.3,1.3h30.9c0.7,0,1.3-0.6,1.3-1.3V7.3
			c0-0.7-0.6-1.3-1.3-1.3h-3.9C29.3,6,29,5.8,29,5.4c0-0.3,0.3-0.6,0.6-0.6h3.9c1.4,0,2.5,1.1,2.5,2.5v23.4
			C36,32.1,34.9,33.2,33.5,33.2z"/>
	</g>
	<g>
		<path class="st8" d="M24.5,6H12.9c-0.3,0-0.6-0.3-0.6-0.6c0-0.3,0.3-0.6,0.6-0.6h11.6c0.3,0,0.6,0.3,0.6,0.6
			C25.1,5.8,24.9,6,24.5,6z"/>
	</g>
	<g>
		<path class="st8" d="M10.5,7.7c-0.3,0-0.6-0.3-0.6-0.6V3.4c0-0.3,0.3-0.6,0.6-0.6s0.6,0.3,0.6,0.6v3.7C11.1,7.5,10.8,7.7,10.5,7.7
			z"/>
	</g>
	<g>
		<path class="st8" d="M27.3,7.7c-0.3,0-0.6-0.3-0.6-0.6V3.4c0-0.3,0.3-0.6,0.6-0.6c0.3,0,0.6,0.3,0.6,0.6v3.7
			C27.9,7.5,27.6,7.7,27.3,7.7z"/>
	</g>
	<g>
		<path class="st8" d="M31.3,12.3H4.7c-0.3,0-0.6-0.3-0.6-0.6s0.3-0.6,0.6-0.6h26.7c0.3,0,0.6,0.3,0.6,0.6S31.7,12.3,31.3,12.3z"/>
	</g>
	<g>
		<g>
			<path class="st8" d="M11.8,18.5H6.5c-0.3,0-0.6-0.3-0.6-0.6c0-0.3,0.3-0.6,0.6-0.6h5.2c0.3,0,0.6,0.3,0.6,0.6
				C12.4,18.2,12.1,18.5,11.8,18.5z"/>
		</g>
		<g>
			<path class="st8" d="M20.6,18.5h-5.2c-0.3,0-0.6-0.3-0.6-0.6c0-0.3,0.3-0.6,0.6-0.6h5.2c0.3,0,0.6,0.3,0.6,0.6
				C21.2,18.2,21,18.5,20.6,18.5z"/>
		</g>
		<g>
			<path class="st8" d="M29.5,18.5h-5.2c-0.3,0-0.6-0.3-0.6-0.6c0-0.3,0.3-0.6,0.6-0.6h5.2c0.3,0,0.6,0.3,0.6,0.6
				C30.1,18.2,29.8,18.5,29.5,18.5z"/>
		</g>
		<g>
			<path class="st8" d="M11.8,23H6.5c-0.3,0-0.6-0.3-0.6-0.6c0-0.3,0.3-0.6,0.6-0.6h5.2c0.3,0,0.6,0.3,0.6,0.6
				C12.4,22.7,12.1,23,11.8,23z"/>
		</g>
		<g>
			<path class="st8" d="M20.6,23h-5.2c-0.3,0-0.6-0.3-0.6-0.6c0-0.3,0.3-0.6,0.6-0.6h5.2c0.3,0,0.6,0.3,0.6,0.6
				C21.2,22.7,21,23,20.6,23z"/>
		</g>
		<g>
			<path class="st8" d="M29.5,23h-5.2c-0.3,0-0.6-0.3-0.6-0.6c0-0.3,0.3-0.6,0.6-0.6h5.2c0.3,0,0.6,0.3,0.6,0.6
				C30.1,22.7,29.8,23,29.5,23z"/>
		</g>
		<g>
			<path class="st8" d="M11.8,27.5H6.5c-0.3,0-0.6-0.3-0.6-0.6c0-0.3,0.3-0.6,0.6-0.6h5.2c0.3,0,0.6,0.3,0.6,0.6
				C12.4,27.3,12.1,27.5,11.8,27.5z"/>
		</g>
		<g>
			<path class="st8" d="M20.6,27.5h-5.2c-0.3,0-0.6-0.3-0.6-0.6c0-0.3,0.3-0.6,0.6-0.6h5.2c0.3,0,0.6,0.3,0.6,0.6
				C21.2,27.3,21,27.5,20.6,27.5z"/>
		</g>
	</g>
</g>
</svg>
