<?xml version="1.0" encoding="iso-8859-1"?>
<!-- Generator: Adobe Illustrator 12.0.0, SVG Export Plug-In . SVG Version: 6.00 Build 51448)  -->
<!DOCTYPE svg PUBLIC "-//W3C//DTD SVG 1.1//EN" "http://www.w3.org/Graphics/SVG/1.1/DTD/svg11.dtd" [
	<!ENTITY ns_svg "http://www.w3.org/2000/svg">
	<!ENTITY ns_xlink "http://www.w3.org/1999/xlink">
]>
<svg  version="1.1" id="Layer_1" xmlns="&ns_svg;" xmlns:xlink="&ns_xlink;" width="60.095" height="60.095"
	 viewBox="0 0 60.095 60.095" style="overflow:visible;enable-background:new 0 0 60.095 60.095;" xml:space="preserve">
<g>
	<path style="fill:#008FD3;" d="M60.095,52.176c0,4.37-3.771,7.919-8.43,7.919H8.437C3.778,60.095,0,56.546,0,52.176V7.923
		C0,3.55,3.778,0,8.437,0h43.229c4.658,0,8.43,3.55,8.43,7.923V52.176z M57.167,10.079c0-3.947-3.404-7.151-7.608-7.151H10.542
		c-4.204,0-7.614,3.204-7.614,7.151V50.02c0,3.944,3.41,7.147,7.614,7.147h39.017c4.204,0,7.608-3.203,7.608-7.147V10.079z"/>
	<g>
		<path style="fill:none;stroke:#008FD3;" d="M54.824,48.293c0,3.604-3.109,6.531-6.95,6.531H12.228
			c-3.841,0-6.957-2.928-6.957-6.531V11.804c0-3.607,3.116-6.533,6.957-6.533h35.646c3.841,0,6.95,2.926,6.95,6.533V48.293z"/>
		<g>
			<path style="fill:#008FD3;" d="M49.906,51.221"/>
			<rect x="16.036" y="33.342" style="fill:#008FD3;" width="3.093" height="14.678"/>
			<rect x="38.247" y="33.978" style="fill:#008FD3;" width="3.094" height="14.042"/>
			<rect x="23.389" y="36.115" style="fill:#008FD3;" width="3.093" height="11.904"/>
			<rect x="45.493" y="36.115" style="fill:#008FD3;" width="3.094" height="11.904"/>
			<rect x="31.063" y="39.757" style="fill:#008FD3;" width="3.093" height="8.263"/>
			<path style="fill:#008FD3;" d="M10.641,30.073v-0.798c0-0.249-0.202-0.453-0.452-0.453c-0.249,0-0.452,0.204-0.452,0.453v22.399
				c0,0.248,0.203,0.452,0.452,0.452h39.718c0.25,0,0.452-0.204,0.452-0.452c0-0.251-0.202-0.453-0.452-0.453l0,0h-7.252v-1.459
				c0-0.083-0.067-0.151-0.152-0.151c-0.081,0-0.149,0.068-0.149,0.151v1.459h-2.717v-1.459c0-0.083-0.066-0.151-0.151-0.151
				c-0.082,0-0.15,0.068-0.15,0.151v1.459h-2.715v-1.459c0-0.083-0.068-0.151-0.153-0.151c-0.081,0-0.149,0.068-0.149,0.151v1.459
				h-2.716v-1.459c0-0.083-0.067-0.151-0.151-0.151c-0.082,0-0.151,0.068-0.151,0.151v1.459h-2.715v-1.459
				c0-0.083-0.067-0.151-0.152-0.151c-0.083,0-0.15,0.068-0.15,0.151v1.459h-2.716v-1.459c0-0.083-0.067-0.151-0.152-0.151
				c-0.083,0-0.15,0.068-0.15,0.151v1.459h-2.716v-1.459c0-0.083-0.067-0.151-0.151-0.151c-0.083,0-0.15,0.068-0.15,0.151v1.459
				h-2.717v-1.459c0-0.083-0.067-0.151-0.151-0.151c-0.082,0-0.15,0.068-0.15,0.151v1.459H10.641v-3.419h1.213
				c0.083,0,0.151-0.069,0.151-0.152s-0.068-0.15-0.151-0.15h-1.213v-2.716h1.213c0.083,0,0.151-0.068,0.151-0.151
				c0-0.084-0.068-0.15-0.151-0.15h-1.213v-2.717h1.213c0.083,0,0.151-0.068,0.151-0.151s-0.068-0.15-0.151-0.15h-1.213v-2.716
				h1.213c0.083,0,0.151-0.067,0.151-0.152c0-0.083-0.068-0.149-0.151-0.149h-1.213v-2.717h1.213c0.083,0,0.151-0.066,0.151-0.151
				c0-0.081-0.068-0.15-0.151-0.15h-1.213v-2.716h1.213c0.083,0,0.151-0.067,0.151-0.15s-0.068-0.151-0.151-0.151h-1.213v-1.098
				V30.073z"/>
			<path style="fill:#008FD3;" d="M18.371,51.221v-1.459c0-0.083-0.067-0.151-0.151-0.151c-0.083,0-0.15,0.068-0.15,0.151v1.459
				H18.371z"/>
			<path style="fill:#008FD3;" d="M15.213,51.221v-1.459c0-0.083-0.067-0.151-0.151-0.151c-0.083,0-0.15,0.068-0.15,0.151v1.459
				H15.213z"/>
			<path style="fill:#008FD3;" d="M45.607,51.221v-1.459c0-0.083-0.067-0.151-0.152-0.151c-0.082,0-0.149,0.068-0.149,0.151v1.459
				H45.607z"/>
			<path style="fill:#008FD3;" d="M40.153,11.714c-2.719-2.327-6.243-3.745-10.106-3.745c-8.587,0-15.547,6.96-15.547,15.547
				c0,0.229,0.021,2.378,0.035,2.607v2.333h30.994v-2.164l0.031-0.169c0.008-0.229,0.034-2.378,0.034-2.607
				C45.595,15.898,40.153,11.714,40.153,11.714L40.153,11.714z M18.281,26.123c-0.014-0.138,0.009-2.205-0.004-2.343h3.192v-1.031
				h-2.967c0-0.012-0.225,0-0.225,0c0.125-2.668,1.142-5.333,3.063-7.432l0.081-0.086l0.143,0.122l2.124,2.124l0.663-0.667
				l-2.255-2.253c2.042-1.865,4.628-2.934,7.393-3.059h0.161c0,0,0.064-0.004,0.06,0.039v3.146h0.853v-3.184
				c0.42,0.018,0.834,0.07,1.25,0.129c2.37,0.315,4.577,1.341,6.358,2.973l-2.249,2.249l0.628,0.628l2.157-2.16l0.121-0.095
				l0.105,0.134c1.863,2.042,2.932,4.629,3.061,7.393h-3.188v1.031l3.201-0.006c0,0,0,2.215-0.008,2.345L18.281,26.123z
				 M34.23,18.696c0,0-5.057,1.553-6.026,2.518c-0.968,0.969-0.968,2.54,0,3.508c0.969,0.973,2.54,0.973,3.509,0
				C32.682,23.754,34.23,18.696,34.23,18.696L34.23,18.696z M34.23,18.696"/>
		</g>
	</g>
</g>
</svg>
