<?xml version="1.0" encoding="utf-8"?>
<!-- Generator: Adobe Illustrator 25.0.0, SVG Export Plug-In . SVG Version: 6.00 Build 0)  -->
<svg version="1.1" id="Layer_1" xmlns="http://www.w3.org/2000/svg" xmlns:xlink="http://www.w3.org/1999/xlink" x="0px" y="0px"
	 viewBox="0 0 32 32" style="enable-background:new 0 0 32 32;" xml:space="preserve">
<style type="text/css">
	.st0{fill:#CB1618;}
	.st1{fill:#185ABD;}
	.st2{fill:#D83039;}
	.st3{fill:#103F91;}
	.st4{fill:#185C37;}
	.st5{fill:#33C481;}
	.st6{fill:#107C41;}
	.st7{fill:#21A366;}
	.st8{fill:#0B4A99;}
	.st9{fill:none;}
	.st10{fill:#FFFFFF;}
	.st11{fill:#41A5EE;}
	.st12{fill:#2B7CD3;}
	.st13{opacity:0.5;enable-background:new    ;}
	.st14{fill:url(#SVGID_1_);}
	.st15{fill:url(#SVGID_2_);}
	.st16{fill:url(#SVGID_3_);}
	.st17{fill:url(#SVGID_4_);}
	.st18{fill:#E24951;}
</style>
<g>
	<path class="st3" d="M0,29.7C0,30.9,1.3,32,2.9,32h26.1c1.6,0,2.9-1.1,2.9-2.3v-5.9H0V29.7z"/>
	<rect x="0" y="15.9" class="st1" width="31.9" height="8.2"/>
	<path class="st11" d="M32,2.3C32,1.1,30.7,0,29.1,0H2.9C1.3,0,0,1.1,0,2.3v5.9H32V2.3z"/>
	<rect x="0" y="7.9" class="st12" width="31.9" height="8.2"/>
</g>
<g>
	<path class="st10" d="M28.3,24.7l-7.5-3.8l3.8-7.5C28.7,15.5,30.4,20.5,28.3,24.7"/>
	<path class="st10" d="M26.3,25.2c-2.1,4.1-7.1,5.7-11.2,3.6c-4.1-2.1-5.7-7.1-3.6-11.2c2.1-4.1,7.1-5.7,11.2-3.6l-3.8,7.4
		L26.3,25.2z"/>
	<rect x="3.5" y="13.9" class="st10" width="3.1" height="7.3"/>
	<path class="st10" d="M11.1,10.4H8v10.8h1.7c0-1.7,0.5-3.3,1.4-4.6V10.4z"/>
	<path class="st10" d="M15.6,11.3h-3.1v3.5c0.9-0.9,1.9-1.5,3.1-2V11.3z"/>
	<path class="st10" d="M20.1,12.3V7.5H17v4.9c0.6-0.1,1.2-0.2,1.9-0.2C19.3,12.3,19.7,12.3,20.1,12.3z"/>
	<polygon class="st10" points="5.5,11.9 4.9,11.3 9.3,7.1 13.9,9.3 18.3,3.8 18.9,4.3 14.2,10.3 9.5,8.1 	"/>
	<circle class="st10" cx="5.1" cy="11.8" r="1.2"/>
	<circle class="st10" cx="9.6" cy="7.5" r="1.2"/>
	<circle class="st10" cx="14.1" cy="9.6" r="1.2"/>
	<circle class="st10" cx="18.6" cy="4.2" r="1.2"/>
</g>
</svg>
