<?xml version="1.0" encoding="iso-8859-1"?>
<!-- Generator: Adobe Illustrator 12.0.0, SVG Export Plug-In . SVG Version: 6.00 Build 51448)  -->
<!DOCTYPE svg PUBLIC "-//W3C//DTD SVG 1.1//EN" "http://www.w3.org/Graphics/SVG/1.1/DTD/svg11.dtd" [
	<!ENTITY ns_svg "http://www.w3.org/2000/svg">
	<!ENTITY ns_xlink "http://www.w3.org/1999/xlink">
]>
<svg  version="1.1" id="Layer_1" xmlns="&ns_svg;" xmlns:xlink="&ns_xlink;" width="60.095" height="60.095"
	 viewBox="0 0 60.095 60.095" style="overflow:visible;enable-background:new 0 0 60.095 60.095;" xml:space="preserve">
<g>
	<path style="fill:#008FD3;" d="M60.095,52.176c0,4.37-3.771,7.919-8.43,7.919H8.437C3.778,60.095,0,56.546,0,52.176V7.923
		C0,3.55,3.778,0,8.437,0h43.229c4.658,0,8.43,3.55,8.43,7.923V52.176z M57.167,10.079c0-3.947-3.404-7.151-7.608-7.151H10.542
		c-4.204,0-7.614,3.204-7.614,7.151V50.02c0,3.944,3.41,7.147,7.614,7.147h39.017c4.204,0,7.608-3.203,7.608-7.147V10.079z"/>
	<g>
		<g>
			<g>
				<g>
					<path style="fill:#008FD3;" d="M25.027,26.183c-0.902,0-1.636,0.733-1.636,1.634c0,0.903,0.734,1.637,1.636,1.637
						s1.636-0.734,1.636-1.637C26.664,26.916,25.929,26.183,25.027,26.183L25.027,26.183z"/>
					<path style="fill:#008FD3;" d="M30.253,25.495c0.023-0.124,0.037-0.249,0.037-0.377c0-0.526-0.206-1.022-0.579-1.396
						l-0.834-0.833c-0.447-0.451-1.137-0.658-1.769-0.538c-0.269-0.401-0.68-0.696-1.16-0.816v-3.083
						c0-0.088-0.019-0.173-0.037-0.26c-0.367,1.825-4.533,3.263-9.631,3.263c-5.096,0-9.262-1.438-9.63-3.263
						c-0.017,0.087-0.036,0.172-0.036,0.26v4.517c0,1.946,4.328,3.524,9.666,3.524c0.866,0,1.703-0.042,2.501-0.12
						c-0.098,0.233-0.153,0.489-0.153,0.758v1.023c-0.751,0.068-1.538,0.105-2.348,0.105c-5.095,0-9.262-1.439-9.63-3.264
						c-0.017,0.087-0.036,0.173-0.036,0.261v4.517c0,1.945,4.328,3.522,9.666,3.522c1.796,0,3.475-0.179,4.916-0.489
						c0.421,0.268,0.95,0.377,1.446,0.283c0.354,0.528,0.959,0.877,1.642,0.877h1.181c0.682,0,1.285-0.348,1.639-0.872
						c0.631,0.12,1.318-0.087,1.769-0.539l0.837-0.837c0.481-0.479,0.661-1.15,0.542-1.771c0.524-0.355,0.869-0.957,0.869-1.637
						V27.13C31.122,26.451,30.777,25.849,30.253,25.495L30.253,25.495z M29.749,28.408c0,0.25-0.202,0.45-0.448,0.45h-0.715
						c-0.075,0.257-0.178,0.506-0.306,0.741l0.503,0.504c0.176,0.177,0.176,0.461,0,0.637l-0.835,0.834
						c-0.17,0.171-0.465,0.171-0.634,0l-0.505-0.504c-0.236,0.129-0.484,0.232-0.741,0.307v0.715c0,0.246-0.202,0.448-0.45,0.448
						h-1.181c-0.248,0-0.45-0.202-0.45-0.448v-0.715c-0.256-0.074-0.505-0.178-0.741-0.307l-0.505,0.504
						c-0.163,0.165-0.471,0.165-0.634,0l-0.835-0.834c-0.085-0.085-0.131-0.198-0.131-0.319c0-0.118,0.047-0.234,0.131-0.318
						l0.505-0.504c-0.13-0.235-0.233-0.483-0.308-0.741h-0.713c-0.248,0-0.45-0.201-0.45-0.45v-1.181
						c0-0.248,0.202-0.448,0.45-0.448h0.713c0.076-0.258,0.178-0.506,0.308-0.743l-0.505-0.504c-0.177-0.176-0.177-0.459,0-0.635
						l0.835-0.835c0.169-0.169,0.466-0.169,0.634,0l0.505,0.505c0.236-0.13,0.485-0.231,0.741-0.306v-0.715
						c0-0.248,0.202-0.45,0.45-0.45h1.181c0.248,0,0.45,0.202,0.45,0.45v0.715c0.257,0.075,0.505,0.176,0.741,0.306l0.505-0.505
						c0.162-0.165,0.471-0.165,0.634,0l0.835,0.835c0.085,0.085,0.132,0.198,0.132,0.316c0,0.12-0.048,0.236-0.132,0.319
						l-0.503,0.504c0.128,0.236,0.231,0.484,0.306,0.742h0.715c0.248,0,0.448,0.2,0.448,0.448V28.408z M29.749,28.408"/>
					<path style="fill:#008FD3;" d="M16.281,19.771c5.34,0,9.667-1.578,9.667-3.524v-2.893c0-1.946-4.328-3.524-9.667-3.524
						c-5.338,0-9.666,1.578-9.666,3.524v2.893C6.615,18.192,10.943,19.771,16.281,19.771L16.281,19.771z"/>
				</g>
				<g>
					<path style="fill:#008FD3;" d="M35.067,42.479c-0.902,0-1.636,0.733-1.636,1.635c0,0.903,0.733,1.637,1.636,1.637
						s1.637-0.733,1.637-1.637C36.704,43.213,35.97,42.479,35.067,42.479L35.067,42.479z"/>
					<path style="fill:#008FD3;" d="M29.842,41.792c-0.524,0.354-0.869,0.956-0.869,1.635v1.183c0,0.68,0.345,1.281,0.869,1.637
						c-0.12,0.621,0.061,1.291,0.542,1.771l0.837,0.836c0.45,0.451,1.137,0.659,1.768,0.538c0.355,0.526,0.958,0.874,1.64,0.874
						h1.181c0.683,0,1.287-0.35,1.642-0.878c0.496,0.094,1.026-0.016,1.446-0.283c1.442,0.311,3.12,0.489,4.915,0.489
						c5.339,0,9.667-1.576,9.667-3.522v-4.517c0-0.088-0.019-0.175-0.035-0.261c-0.368,1.823-4.535,3.264-9.632,3.264
						c-0.809,0-1.595-0.037-2.347-0.105v-1.024c0-0.268-0.055-0.524-0.152-0.758c0.798,0.078,1.634,0.12,2.499,0.12
						c5.339,0,9.667-1.578,9.667-3.524V34.75c0-0.089-0.019-0.174-0.035-0.26c-0.368,1.824-4.534,3.262-9.632,3.262
						c-5.096,0-9.263-1.438-9.63-3.262c-0.018,0.086-0.035,0.171-0.035,0.26v3.083c-0.479,0.12-0.892,0.416-1.16,0.816
						c-0.633-0.121-1.322,0.086-1.77,0.538l-0.833,0.831c-0.373,0.374-0.579,0.869-0.579,1.396
						C29.805,41.543,29.819,41.668,29.842,41.792L29.842,41.792z M30.346,43.524c0-0.248,0.2-0.448,0.449-0.448h0.715
						c0.074-0.258,0.176-0.506,0.306-0.741l-0.504-0.506c-0.085-0.082-0.132-0.198-0.132-0.318c0-0.118,0.046-0.231,0.132-0.316
						l0.836-0.836c0.162-0.163,0.472-0.163,0.635,0l0.504,0.505c0.235-0.129,0.483-0.231,0.741-0.305v-0.716
						c0-0.248,0.202-0.45,0.449-0.45h1.182c0.248,0,0.45,0.202,0.45,0.45v0.716c0.255,0.073,0.504,0.176,0.74,0.305l0.506-0.505
						c0.167-0.169,0.464-0.169,0.633,0l0.836,0.836c0.177,0.176,0.177,0.46,0,0.635l-0.504,0.504
						c0.129,0.237,0.23,0.485,0.307,0.743h0.714c0.247,0,0.449,0.2,0.449,0.448v1.18c0,0.249-0.202,0.451-0.449,0.451h-0.714
						c-0.075,0.257-0.178,0.505-0.307,0.74l0.504,0.504c0.084,0.085,0.132,0.201,0.132,0.318c0,0.12-0.046,0.233-0.132,0.318
						l-0.836,0.834c-0.162,0.164-0.47,0.164-0.633,0l-0.506-0.504c-0.236,0.13-0.485,0.232-0.74,0.308v0.714
						c0,0.247-0.202,0.448-0.45,0.448h-1.182c-0.247,0-0.449-0.201-0.449-0.448v-0.714c-0.258-0.075-0.506-0.178-0.741-0.308
						l-0.504,0.504c-0.171,0.171-0.465,0.171-0.635,0l-0.836-0.834c-0.177-0.176-0.177-0.459,0-0.637l0.504-0.504
						c-0.13-0.235-0.231-0.483-0.306-0.74h-0.715c-0.247,0-0.449-0.2-0.449-0.451V43.524z M30.346,44.704"/>
					<path style="fill:#008FD3;" d="M43.813,36.067c5.339,0,9.667-1.577,9.667-3.523V29.65c0-1.946-4.328-3.523-9.667-3.523
						c-5.338,0-9.665,1.577-9.665,3.523v2.894C34.147,34.49,38.475,36.067,43.813,36.067L43.813,36.067z"/>
				</g>
			</g>
			<path style="fill:#008FD3;" d="M37.094,19.443c0.106,0.08,0.255,0.083,0.361,0c0.108-0.079,0.146-0.22,0.098-0.345l-1.467-3.711
				h2.557c0.559,0.027,2.383,0.216,3.625,1.435c0.873,0.855,1.296,2.059,1.296,3.684h3.558c0-2.594-0.793-4.688-2.363-6.226
				c-2.546-2.498-6.195-2.459-6.354-2.456v0.031c-0.252-0.021-0.431-0.031-0.431-0.031l-1.888-0.004l1.467-3.712
				c0.048-0.124,0.011-0.266-0.098-0.348c-0.054-0.038-0.116-0.058-0.179-0.058c-0.065,0-0.128,0.021-0.183,0.062l-7.289,5.602
				c-0.072,0.058-0.114,0.144-0.114,0.238c0,0.093,0.042,0.179,0.114,0.234L37.094,19.443z"/>
			<path style="fill:#008FD3;" d="M19.454,40.653c-0.104-0.082-0.251-0.082-0.359-0.003c-0.107,0.079-0.149,0.225-0.097,0.346
				l1.466,3.711h-2.56c-0.555-0.027-2.383-0.218-3.621-1.432c-0.874-0.855-1.297-2.063-1.297-3.688H9.43
				c0,2.594,0.793,4.688,2.36,6.227c2.549,2.501,6.198,2.459,6.356,2.456v-0.032c0.249,0.021,0.431,0.032,0.431,0.032l1.887,0.006
				l-1.466,3.712c-0.048,0.124-0.01,0.266,0.097,0.345c0.055,0.04,0.117,0.06,0.18,0.06c0.065,0,0.127-0.02,0.183-0.063l7.288-5.601
				c0.073-0.057,0.114-0.146,0.114-0.239c0-0.089-0.041-0.176-0.114-0.233L19.454,40.653z"/>
		</g>
	</g>
</g>
</svg>
