<?xml version="1.0" encoding="utf-8"?>
<!-- Generator: Adobe Illustrator 25.0.0, SVG Export Plug-In . SVG Version: 6.00 Build 0)  -->
<svg version="1.1" id="Layer_1" xmlns="http://www.w3.org/2000/svg" xmlns:xlink="http://www.w3.org/1999/xlink" x="0px" y="0px"
	 viewBox="0 0 36 36" style="enable-background:new 0 0 36 36;" xml:space="preserve">
<style type="text/css">
	.st0{fill:#CB1618;}
	.st1{fill:#185ABD;}
	.st2{fill:#D83039;}
	.st3{fill:#103F91;}
	.st4{fill:#185C37;}
	.st5{fill:#33C481;}
	.st6{fill:#107C41;}
	.st7{fill:#21A366;}
	.st8{fill:#0B4A99;}
	.st9{fill:none;}
	.st10{fill:#FFFFFF;}
	.st11{fill:#41A5EE;}
	.st12{fill:#2B7CD3;}
	.st13{opacity:0.5;enable-background:new    ;}
	.st14{fill:url(#SVGID_1_);}
	.st15{fill:url(#SVGID_2_);}
	.st16{fill:url(#SVGID_3_);}
	.st17{fill:url(#SVGID_4_);}
	.st18{fill:#E24951;}
	.st19{fill-rule:evenodd;clip-rule:evenodd;}
	.st20{fill:#262625;}
	.st21{fill:none;stroke:#000000;stroke-width:0.75;stroke-miterlimit:10;}
	.st22{fill:none;stroke:#000000;stroke-width:1.2;stroke-miterlimit:10;}
	.st23{fill-rule:evenodd;clip-rule:evenodd;fill:#0B4A99;}
	.st24{fill:none;stroke:#0071C5;stroke-width:1.3;stroke-linecap:round;stroke-miterlimit:10;}
	.st25{fill:none;stroke:#F0AB00;stroke-width:1.3;stroke-miterlimit:10;}
	.st26{fill:#1C55A6;}
	.st27{fill:none;stroke:#1C55A6;stroke-width:1.3;stroke-linecap:round;}
	.st28{fill-rule:evenodd;clip-rule:evenodd;fill:none;stroke:#1C55A6;stroke-width:1.3;stroke-linecap:round;}
	.st29{fill:none;stroke:#1C55A6;stroke-width:1.3;stroke-linecap:round;stroke-miterlimit:10;}
	.st30{fill:none;stroke:#231F20;}
</style>
<g>
	<g>
		<path class="st8" d="M18,6.6c-1.8,0-3.3-1.5-3.3-3.3S16.2,0,18,0c1.8,0,3.3,1.5,3.3,3.3S19.9,6.6,18,6.6z M18,1.3
			c-1.1,0-2.1,0.9-2.1,2.1s0.9,2.1,2.1,2.1s2.1-0.9,2.1-2.1S19.2,1.3,18,1.3z"/>
	</g>
	<g>
		<path class="st8" d="M6.4,13.3c-1.8,0-3.3-1.5-3.3-3.3s1.5-3.3,3.3-3.3S9.7,8.1,9.7,10S8.2,13.3,6.4,13.3z M6.4,7.9
			c-1.1,0-2.1,0.9-2.1,2.1S5.3,12,6.4,12s2.1-0.9,2.1-2.1S7.5,7.9,6.4,7.9z"/>
	</g>
	<g>
		<path class="st8" d="M6.4,26.7c-1.8,0-3.3-1.5-3.3-3.3c0-1.8,1.5-3.3,3.3-3.3s3.3,1.5,3.3,3.3C9.7,25.2,8.2,26.7,6.4,26.7z
			 M6.4,21.3c-1.1,0-2.1,0.9-2.1,2.1c0,1.1,0.9,2.1,2.1,2.1s2.1-0.9,2.1-2.1C8.5,22.2,7.5,21.3,6.4,21.3z"/>
	</g>
	<g>
		<path class="st8" d="M17.2,33.1c-0.1,0-0.1,0-0.2,0c-1.3-0.5-2.3-1.7-2.3-3.1c0-0.5,0.1-1.1,0.4-1.6c0.2-0.3,0.5-0.4,0.8-0.3
			c0.3,0.2,0.4,0.5,0.3,0.8c-0.2,0.3-0.2,0.6-0.2,1c0,0.9,0.6,1.7,1.4,2c0.3,0.1,0.5,0.5,0.4,0.8C17.7,32.9,17.4,33.1,17.2,33.1z"/>
	</g>
	<g>
		<path class="st8" d="M31.6,25.8c-0.1,0-0.3-0.1-0.4-0.2c-0.3-0.2-0.3-0.6-0.1-0.9c0.3-0.4,0.5-0.9,0.5-1.4c0-1.1-0.9-2.1-2.1-2.1
			c-0.7,0-1.4,0.4-1.7,1c-0.2,0.3-0.6,0.4-0.9,0.2c-0.3-0.2-0.4-0.6-0.2-0.9c0.6-1,1.7-1.5,2.8-1.5c1.8,0,3.3,1.5,3.3,3.3
			c0,0.8-0.3,1.6-0.8,2.2C32,25.7,31.8,25.8,31.6,25.8z"/>
	</g>
	<g>
		<path class="st8" d="M29.6,13.3c-1.8,0-3.3-1.5-3.3-3.3s1.5-3.3,3.3-3.3s3.3,1.5,3.3,3.3S31.4,13.3,29.6,13.3z M29.6,7.9
			c-1.1,0-2.1,0.9-2.1,2.1s0.9,2.1,2.1,2.1s2.1-0.9,2.1-2.1S30.7,7.9,29.6,7.9z"/>
	</g>
	<g>
		<rect x="11.6" y="22.7" transform="matrix(0.5 -0.866 0.866 0.5 -16.9948 23.9313)" class="st8" width="1.3" height="7.9"/>
	</g>
	<g>
		<rect x="5.8" y="12.7" class="st8" width="1.3" height="8"/>
	</g>
	<g>
		<rect x="8.3" y="6" transform="matrix(0.8657 -0.5005 0.5005 0.8657 -1.6515 7.0049)" class="st8" width="7.9" height="1.3"/>
	</g>
	<g>
		<rect x="23.2" y="2.6" transform="matrix(0.5 -0.866 0.866 0.5 6.2289 23.9507)" class="st8" width="1.3" height="7.9"/>
	</g>
	<g>
		<rect x="29" y="12.7" class="st8" width="1.3" height="8"/>
	</g>
	<g>
		
			<rect x="24.3" y="20.4" transform="matrix(0.5209 -0.8536 0.8536 0.5209 -6.3942 31.5873)" class="st8" width="1.3" height="2.1"/>
	</g>
	<g>
		<rect x="9.6" y="10.6" transform="matrix(0.5211 -0.8535 0.8535 0.5211 -5.7758 14.7174)" class="st8" width="1.3" height="3.8"/>
	</g>
	<g>
		
			<rect x="23.6" y="11.9" transform="matrix(0.8727 -0.4882 0.4882 0.8727 -2.8439 14.1021)" class="st8" width="4.1" height="1.3"/>
	</g>
	<g>
		<rect x="8.4" y="20.6" transform="matrix(0.8727 -0.4882 0.4882 0.8727 -9.086 7.6046)" class="st8" width="3.3" height="1.3"/>
	</g>
	<g>
		<rect x="17.4" y="6" class="st8" width="1.3" height="3.9"/>
	</g>
	<g>
		<path class="st8" d="M18,23.3h-0.9c-0.5,0-0.9-0.4-0.9-0.9v-0.6c-0.2-0.1-0.3-0.1-0.5-0.2L15.3,22c-0.3,0.3-0.9,0.3-1.2,0L13,21
			c-0.2-0.2-0.3-0.4-0.3-0.6c0-0.2,0.1-0.4,0.3-0.6l0.4-0.4c-0.1-0.2-0.1-0.3-0.2-0.5h-0.6c-0.5,0-0.9-0.4-0.9-0.9v-1.5
			c0-0.5,0.4-0.9,0.9-0.9h0.6c0.1-0.2,0.1-0.3,0.2-0.5L13,14.7c-0.2-0.2-0.3-0.4-0.3-0.6c0-0.2,0.1-0.4,0.3-0.6l1.1-1.1
			c0.3-0.3,0.9-0.3,1.2,0l0.4,0.4c0.2-0.1,0.3-0.1,0.5-0.2V12c0-0.5,0.4-0.9,0.9-0.9h1.5c0.5,0,0.9,0.4,0.9,0.9v0.6
			c0.2,0.1,0.3,0.1,0.5,0.2l0.4-0.4c0.3-0.3,0.9-0.3,1.2,0l1.1,1.1c0.3,0.3,0.3,0.9,0,1.2l-0.4,0.4c0.1,0.2,0.1,0.3,0.2,0.5h0.6v1.3
			v-1.3c0.5,0,0.9,0.4,0.9,0.9v1h-1.3v-0.6h-0.5c-0.4,0-0.7-0.3-0.8-0.6c-0.1-0.3-0.2-0.5-0.3-0.8c-0.2-0.3-0.1-0.8,0.1-1l0.3-0.3
			L21,13.5l-0.3,0.3c-0.3,0.3-0.7,0.3-1,0.1c-0.2-0.1-0.5-0.2-0.8-0.3c-0.4-0.1-0.6-0.4-0.6-0.8v-0.5h-0.7v0.5
			c0,0.4-0.3,0.7-0.6,0.8c-0.3,0.1-0.5,0.2-0.8,0.3c-0.3,0.2-0.8,0.1-1-0.1l-0.3-0.3l-0.5,0.5l0.3,0.3c0.3,0.3,0.3,0.7,0.1,1
			c-0.1,0.2-0.2,0.5-0.3,0.8c-0.1,0.4-0.4,0.6-0.8,0.6H13v0.7h0.5c0.4,0,0.7,0.3,0.8,0.6c0.1,0.3,0.2,0.5,0.3,0.8
			c0.2,0.3,0.1,0.8-0.1,1l-0.3,0.3l0.5,0.5l0.3-0.3c0.3-0.3,0.7-0.3,1-0.1c0.2,0.1,0.5,0.2,0.8,0.3c0.4,0.1,0.6,0.4,0.6,0.8V22H18
			V23.3z M15.9,21.4L15.9,21.4C15.9,21.4,15.9,21.4,15.9,21.4z M13.9,20.1L13.9,20.1C13.9,20.1,13.9,20.1,13.9,20.1z M22.6,15.9
			C22.6,15.9,22.6,15.9,22.6,15.9C22.6,15.9,22.6,15.9,22.6,15.9z M13.6,15.3C13.6,15.3,13.6,15.3,13.6,15.3L13.6,15.3z M13.6,14.8
			C13.6,14.8,13.6,14.8,13.6,14.8C13.6,14.8,13.6,14.8,13.6,14.8z M22.1,14.8C22.1,14.8,22.1,14.8,22.1,14.8
			C22.1,14.8,22.1,14.8,22.1,14.8z M13.9,13.8L13.9,13.8C13.9,13.8,13.9,13.8,13.9,13.8z M16.5,12.5C16.5,12.5,16.5,12.5,16.5,12.5
			C16.5,12.5,16.5,12.5,16.5,12.5z M19.2,12.5C19.2,12.5,19.2,12.5,19.2,12.5C19.2,12.5,19.2,12.5,19.2,12.5z M17.9,20.1
			c-1.6,0-2.9-1.3-2.9-2.9c0-1.6,1.3-2.9,2.9-2.9s2.9,1.3,2.9,2.9C20.7,18.8,19.4,20.1,17.9,20.1z M17.9,15.6
			c-0.9,0-1.6,0.7-1.6,1.6c0,0.9,0.7,1.6,1.6,1.6s1.6-0.7,1.6-1.6C19.5,16.3,18.7,15.6,17.9,15.6z"/>
	</g>
	<g>
		<path class="st8" d="M20,29.5c-0.3,0-0.6-0.3-0.6-0.6v-8c0-1.1,0.9-2.1,2.1-2.1c1.1,0,2.1,0.9,2.1,2.1v7.6c0,0.3-0.3,0.6-0.6,0.6
			c-0.3,0-0.6-0.3-0.6-0.6v-7.6c0-0.4-0.4-0.8-0.8-0.8c-0.4,0-0.8,0.4-0.8,0.8v8C20.6,29.2,20.3,29.5,20,29.5z"/>
	</g>
	<g>
		<path class="st8" d="M25.5,36c-3.4,0-6.2-2.8-6.2-6.2v-5.6h1.3v5.6c0,2.7,2.2,4.9,4.9,4.9s4.9-2.2,4.9-4.9v-2.1h1.3v2.1
			C31.7,33.2,29,36,25.5,36z"/>
	</g>
	<g>
		<path class="st8" d="M25.5,29.3c-0.3,0-0.6-0.3-0.6-0.6v-2.9c0-0.3-0.3-0.6-0.7-0.6s-0.7,0.3-0.7,0.6v2.9c0,0.3-0.3,0.6-0.6,0.6
			c-0.3,0-0.6-0.3-0.6-0.6v-2.9c0-1,0.9-1.8,2-1.8c1.1,0,2,0.8,2,1.8v2.9C26.2,29,25.9,29.3,25.5,29.3z"/>
	</g>
	<g>
		<path class="st8" d="M28.2,29.3c-0.3,0-0.6-0.3-0.6-0.6v-2.9c0-0.3-0.3-0.6-0.7-0.6s-0.7,0.3-0.7,0.6v2.9c0,0.3-0.3,0.6-0.6,0.6
			c-0.3,0-0.6-0.3-0.6-0.6v-2.9c0-1,0.9-1.8,2-1.8c1.1,0,2,0.8,2,1.8v2.9C28.9,29,28.6,29.3,28.2,29.3z"/>
	</g>
	<g>
		<path class="st8" d="M31.1,29.3c-0.3,0-0.6-0.3-0.6-0.6v-1.2c0-0.4-0.4-0.8-0.8-0.8c-0.4,0-0.8,0.4-0.8,0.8v1.2
			c0,0.3-0.3,0.6-0.6,0.6c-0.3,0-0.6-0.3-0.6-0.6v-1.2c0-1.1,0.9-2.1,2.1-2.1c1.1,0,2.1,0.9,2.1,2.1v1.2
			C31.7,29,31.4,29.3,31.1,29.3z"/>
	</g>
	<g>
		<path class="st8" d="M21.7,34.5c-0.1,0-0.2,0-0.3-0.1c-1.7-0.8-4.6-3.9-4.4-6.2c0.1-0.8,0.6-1.8,2.3-2.2l0.1,0l0.4,0c0,0,0,0,0,0
			c0.3,0,0.6,0.3,0.6,0.6c0,0.3-0.3,0.6-0.6,0.6l-0.3,0c-1.2,0.3-1.3,0.9-1.3,1.1c-0.2,1.6,2.4,4.3,3.6,4.9c0.3,0.1,0.4,0.5,0.3,0.8
			C22.2,34.4,22,34.5,21.7,34.5z"/>
	</g>
</g>
</svg>
