<svg id="Layer_1" data-name="Layer 1" xmlns="http://www.w3.org/2000/svg" viewBox="0 0 29.73 30"><path d="M27.14,24.13l-6.58-3.36,3.37-6.59.69.36a6.63,6.63,0,0,1,2.88,8.9Zm-4.48-4L26.42,22a5,5,0,0,0,0-3.14,5,5,0,0,0-1.84-2.54Z"/><path d="M18.41,30a8.51,8.51,0,0,1-3.89-.94,8.59,8.59,0,1,1,7.82-15.29l.69.35-3.56,7,7,3.56-.35.69A8.61,8.61,0,0,1,18.41,30Zm0-15.62A7,7,0,1,0,24.3,25.29l-6.92-3.54,3.54-6.92A6.92,6.92,0,0,0,18.44,14.38Z"/><path d="M3.59,12.27a2.09,2.09,0,1,1,2.09-2.09A2.1,2.1,0,0,1,3.59,12.27Zm0-2.63a.54.54,0,1,0,0,1.07.54.54,0,1,0,0-1.07Z"/><path d="M8.38,7.73a2.09,2.09,0,1,1,2.09-2.09A2.09,2.09,0,0,1,8.38,7.73Zm0-2.63a.54.54,0,1,0,.53.54A.54.54,0,0,0,8.38,5.1Z"/><path d="M13.17,10a2.09,2.09,0,1,1,2.08-2.09A2.1,2.1,0,0,1,13.17,10Zm0-2.63a.54.54,0,1,0,.53.54A.54.54,0,0,0,13.17,7.32Z"/><path d="M18,4.18a2.09,2.09,0,1,1,2.09-2.09A2.1,2.1,0,0,1,18,4.18Zm0-2.63a.54.54,0,0,0-.54.54.54.54,0,1,0,1.07,0A.54.54,0,0,0,18,1.55Z"/><rect x="13.14" y="4.11" width="4.93" height="1.55" transform="translate(2.11 14.12) rotate(-51.77)"/><rect x="9.92" y="5.52" width="1.55" height="2.69" transform="translate(-0.09 13.59) rotate(-64.64)"/><rect x="3.89" y="7.02" width="3.97" height="1.55" transform="translate(-3.74 6.1) rotate(-43)"/><rect x="2.74" y="13.4" width="1.55" height="7.82"/><rect x="12.24" y="10.36" width="1.55" height="3.11"/><rect x="17.12" y="6.6" width="1.55" height="5.26"/><rect x="7.46" y="9.54" width="1.55" height="11.92"/></svg>