<svg id="Layer_1" data-name="Layer 1" xmlns="http://www.w3.org/2000/svg" xmlns:xlink="http://www.w3.org/1999/xlink" viewBox="0 0 32 32"><defs><style>.cls-1{fill:#33c481;}.cls-2{fill:url(#linear-gradient);}.cls-3{fill:#fff;}.cls-4{fill:#185c37;}</style><linearGradient id="linear-gradient" x1="19.4" y1="32" x2="19.4" gradientUnits="userSpaceOnUse"><stop offset="0" stop-color="#21a366"/><stop offset="1" stop-color="#185c37"/></linearGradient></defs><path class="cls-1" d="M25.87,8.24H31.4L23.83.58V6.2A2,2,0,0,0,25.87,8.24Z"/><path class="cls-2" d="M25.87,8.71A2.51,2.51,0,0,1,23.36,6.2V0H9.1A2.28,2.28,0,0,0,6.82,2.27V29.72A2.29,2.29,0,0,0,9.1,32H29.7A2.28,2.28,0,0,0,32,29.72v-21Z"/><path class="cls-3" d="M9.62,7.2H17a.51.51,0,0,0,.53-.53A.52.52,0,0,0,17,6.14H9.62a.52.52,0,0,0-.53.53A.51.51,0,0,0,9.62,7.2Z"/><path class="cls-3" d="M20.45,9.25H9.62a.53.53,0,0,0,0,1.06H20.45a.53.53,0,0,0,0-1.06Z"/><rect class="cls-4" x="2.49" y="15.15" width="19.98" height="13.65" rx="1.83"/><rect class="cls-3" x="4.89" y="25.31" width="1.44" height="2.24"/><rect class="cls-3" x="6.98" y="24.88" width="1.44" height="2.67"/><rect class="cls-3" x="9.08" y="23.47" width="1.44" height="4.08"/><rect class="cls-3" x="11.17" y="25.85" width="1.44" height="1.7"/><rect class="cls-3" x="13.27" y="24.55" width="1.44" height="3"/><rect class="cls-3" x="15.36" y="23.47" width="1.44" height="4.08"/><rect class="cls-3" x="17.45" y="21.95" width="1.44" height="5.6"/><circle class="cls-3" cx="5.57" cy="24.17" r="0.76"/><circle class="cls-3" cx="9.58" cy="19.53" r="0.76"/><circle class="cls-3" cx="13.85" cy="22.14" r="0.76"/><circle class="cls-3" cx="17.88" cy="16.93" r="0.76"/><polygon class="cls-3" points="5.73 24.3 5.41 24.03 9.51 19.23 13.77 21.88 17.72 16.81 18.04 17.06 13.87 22.43 9.6 19.77 5.73 24.3"/></svg>