<svg id="Layer_1" data-name="Layer 1" xmlns="http://www.w3.org/2000/svg" viewBox="0 0 36 36"><defs><style>.cls-1{fill:#0b4a99;}</style></defs><rect class="cls-1" x="13.77" y="31.68" width="7.45" height="1.17" transform="translate(-18.5 39.42) rotate(-72.77)"/><path class="cls-1" d="M20.92,27.86a5.5,5.5,0,1,1,5.5-5.5A5.64,5.64,0,0,1,20.92,27.86Zm0-10a4.52,4.52,0,0,0,0,9,4.64,4.64,0,0,0,4.52-4.52A4.52,4.52,0,0,0,20.92,17.85Z"/><path class="cls-1" d="M12.76,25.25a16.65,16.65,0,0,1-3.43-.65c-2.22-.74-3.46-1.72-3.7-2.93l1.14-.22c.15.73,1.19,1.46,2.93,2a16.24,16.24,0,0,0,3.18.59Z"/><path class="cls-1" d="M15.35,8.29c-4.84,0-9.74-1.42-9.74-4.14S10.51,0,15.35,0s9.73,1.42,9.73,4.14S20.18,8.29,15.35,8.29Zm0-7.11c-5.13,0-8.57,1.53-8.57,3s3.44,3,8.57,3,8.56-1.54,8.56-3S20.47,1.18,15.35,1.18Z"/><path class="cls-1" d="M15.51,16.53c-5.32,0-9.39-1.55-9.88-3.77l1.14-.25c.31,1.37,3.73,2.85,8.74,2.85Z"/><path class="cls-1" d="M15,16.53V15.36c5,0,8.44-1.48,8.74-2.85l1.15.25C24.37,15,20.31,16.53,15,16.53Z"/><path class="cls-1" d="M6.79,29.75A2.31,2.31,0,1,1,9.1,27.44,2.3,2.3,0,0,1,6.79,29.75Zm0-3.45a1.14,1.14,0,1,0,1.14,1.14A1.14,1.14,0,0,0,6.79,26.3Z"/><path class="cls-1" d="M11.58,33.87a2.32,2.32,0,1,1,2.31-2.31A2.32,2.32,0,0,1,11.58,33.87Zm0-3.46a1.15,1.15,0,1,0,0,2.29,1.15,1.15,0,0,0,0-2.29Z"/><path class="cls-1" d="M28.39,30.72a2.32,2.32,0,1,1,2.32-2.32A2.32,2.32,0,0,1,28.39,30.72Zm0-3.46a1.15,1.15,0,0,0,0,2.29,1.15,1.15,0,1,0,0-2.29Z"/><path class="cls-1" d="M20.8,24.77a2.32,2.32,0,1,1,2.32-2.32A2.32,2.32,0,0,1,20.8,24.77Zm0-3.46a1.15,1.15,0,0,0,0,2.29,1.15,1.15,0,1,0,0-2.29Z"/><path class="cls-1" d="M33.69,25.19A2.32,2.32,0,1,1,36,22.88,2.31,2.31,0,0,1,33.69,25.19Zm0-3.46a1.15,1.15,0,1,0,1.14,1.15A1.15,1.15,0,0,0,33.69,21.73Z"/><rect class="cls-1" x="18.03" y="27.52" width="1.65" height="0.73" transform="translate(-12.95 38.92) rotate(-75.06)"/><rect class="cls-1" x="18.07" y="27.43" width="0.98" height="2.55" transform="translate(-14.41 37.71) rotate(-72.4)"/><rect class="cls-1" x="28.95" y="25.06" width="4.02" height="1.17" transform="translate(-8.95 30.51) rotate(-46.58)"/><rect class="cls-1" x="24.13" y="22.5" width="1.17" height="5.75" transform="translate(-10.6 28.15) rotate(-50.26)"/><rect class="cls-1" x="11.59" y="26.29" width="9.07" height="1.17" transform="translate(-14.46 20.05) rotate(-46.45)"/><rect class="cls-1" x="8.74" y="28.19" width="1.17" height="2.73" transform="translate(-18.82 16.59) rotate(-47.76)"/><rect class="cls-1" x="-0.53" y="30.34" width="6.96" height="1.17" transform="translate(-20.26 10.27) rotate(-42.89)"/><path class="cls-1" d="M26.79,18.27h-1V17.1h.71v-.63a.85.85,0,0,1,.61-.81,3.48,3.48,0,0,0,.87-.36.85.85,0,0,1,1,.14l.45.44.71-.7-.45-.45a.83.83,0,0,1-.13-1,4.7,4.7,0,0,0,.36-.87.83.83,0,0,1,.8-.61h.63v-1h-.63a.84.84,0,0,1-.8-.62,4.7,4.7,0,0,0-.36-.87.83.83,0,0,1,.13-1l.45-.45-.71-.7-.45.44a.83.83,0,0,1-1,.14,3.71,3.71,0,0,0-.87-.36A.86.86,0,0,1,26.46,7V6.39h-.71V5.22h1a.85.85,0,0,1,.84.84v.72a3.81,3.81,0,0,1,.66.27l.51-.51a.82.82,0,0,1,.59-.24.83.83,0,0,1,.59.25l1.18,1.17a.83.83,0,0,1,0,1.18l-.51.51a5.58,5.58,0,0,1,.28.67h.72a.83.83,0,0,1,.83.83v1.67a.84.84,0,0,1-.83.84h-.72a6.21,6.21,0,0,1-.28.66l.51.5a.84.84,0,0,1,0,1.19L30,17a.83.83,0,0,1-.59.24A1,1,0,0,1,28.8,17l-.51-.51a4.84,4.84,0,0,1-.66.28v.71A.85.85,0,0,1,26.79,18.27Zm2.36-2.15Zm1.33-2.22ZM29.15,7.37h0Z"/><path class="cls-1" d="M26,14.76l-.21,0,.05-1.17h.12A1.84,1.84,0,1,0,26,9.9l-.16,0-.09-1.17,0,.59V8.75l.21,0a3,3,0,0,1,0,6Z"/></svg>