<svg id="Layer_1" data-name="Layer 1" xmlns="http://www.w3.org/2000/svg" viewBox="0 0 29.73 30"><path d="M27.21,24l-6.38-3.26,3.27-6.37.55.28a6.54,6.54,0,0,1,2.84,8.79Zm-4.68-3.81,4.1,2.1a5.28,5.28,0,0,0-2-6.2Z"/><path d="M18.45,30a8.52,8.52,0,1,1,3.9-16.11l.56.29-3.6,7,7,3.59-.29.56A8.53,8.53,0,0,1,18.45,30Zm0-15.79a7.27,7.27,0,1,0,6.15,11.13l-7-3.59,3.59-7A7.3,7.3,0,0,0,18.48,14.21Z"/><path d="M3.47,12.08a2,2,0,1,1,2-1.95A2,2,0,0,1,3.47,12.08Zm0-2.65a.7.7,0,0,0,0,1.4.7.7,0,0,0,0-1.4Z"/><path d="M8.31,7.49a2,2,0,1,1,1.95-1.95A2,2,0,0,1,8.31,7.49Zm0-2.65a.7.7,0,0,0,0,1.4.7.7,0,0,0,0-1.4Z"/><path d="M13.15,9.74a2,2,0,1,1,1.95-2A2,2,0,0,1,13.15,9.74Zm0-2.66a.7.7,0,1,0,.7.7A.7.7,0,0,0,13.15,7.08Z"/><path d="M18,3.91a2,2,0,1,1,2-2A2,2,0,0,1,18,3.91Zm0-2.65a.7.7,0,1,0,.7.69A.7.7,0,0,0,18,1.26Z"/><rect x="13.13" y="4.15" width="4.98" height="1.26" transform="translate(2.2 14.1) rotate(-51.81)"/><rect x="10.03" y="5.42" width="1.26" height="2.72" transform="translate(-0.04 13.5) rotate(-64.62)"/><rect x="3.78" y="7.09" width="4.01" height="1.26" transform="translate(-3.71 6.01) rotate(-42.96)"/><rect x="2.78" y="13.38" width="1.26" height="7.9"/><rect x="12.37" y="10.31" width="1.26" height="3.14"/><rect x="17.31" y="6.51" width="1.26" height="5.32"/><rect x="7.54" y="9.48" width="1.26" height="12.05"/></svg>