<?xml version="1.0" encoding="utf-8"?>
<!-- Generator: Adobe Illustrator 25.0.0, SVG Export Plug-In . SVG Version: 6.00 Build 0)  -->
<svg version="1.1" id="Layer_1" xmlns="http://www.w3.org/2000/svg" xmlns:xlink="http://www.w3.org/1999/xlink" x="0px" y="0px"
	 viewBox="0 0 36 36" style="enable-background:new 0 0 36 36;" xml:space="preserve">
<style type="text/css">
	.st0{fill:#CB1618;}
	.st1{fill:#185ABD;}
	.st2{fill:#D83039;}
	.st3{fill:#103F91;}
	.st4{fill:#185C37;}
	.st5{fill:#33C481;}
	.st6{fill:#107C41;}
	.st7{fill:#21A366;}
	.st8{fill:#0B4A99;}
	.st9{fill:none;}
	.st10{fill:#FFFFFF;}
	.st11{fill:#41A5EE;}
	.st12{fill:#2B7CD3;}
	.st13{opacity:0.5;enable-background:new    ;}
	.st14{fill:url(#SVGID_1_);}
	.st15{fill:url(#SVGID_2_);}
	.st16{fill:url(#SVGID_3_);}
	.st17{fill:url(#SVGID_4_);}
	.st18{fill:#E24951;}
	.st19{fill-rule:evenodd;clip-rule:evenodd;}
	.st20{fill:#262625;}
	.st21{fill:none;stroke:#000000;stroke-width:0.75;stroke-miterlimit:10;}
	.st22{fill:none;stroke:#000000;stroke-width:1.2;stroke-miterlimit:10;}
	.st23{fill-rule:evenodd;clip-rule:evenodd;fill:#0B4A99;}
	.st24{fill:none;stroke:#0071C5;stroke-width:1.3;stroke-linecap:round;stroke-miterlimit:10;}
	.st25{fill:none;stroke:#F0AB00;stroke-width:1.3;stroke-miterlimit:10;}
	.st26{fill:#1C55A6;}
	.st27{fill:none;stroke:#1C55A6;stroke-width:1.3;stroke-linecap:round;}
	.st28{fill-rule:evenodd;clip-rule:evenodd;fill:none;stroke:#1C55A6;stroke-width:1.3;stroke-linecap:round;}
	.st29{fill:none;stroke:#1C55A6;stroke-width:1.3;stroke-linecap:round;stroke-miterlimit:10;}
	.st30{fill:none;stroke:#231F20;}
	.st31{fill:none;stroke:#0B4A99;stroke-width:1.3;stroke-miterlimit:10;}
</style>
<g>
	<g>
		<path class="st8" d="M0,12.5l0.3-4.3c0.3-3.8,3.6-6.8,7.4-6.8h6.6c2,0,4,0.7,5.5,2.1l-0.7,0.8c-1.3-1.2-3-1.8-4.8-1.8H7.8
			C4.5,2.4,1.7,5,1.4,8.3L1.4,8.9c1.1-1.1,2.5-2,4.4-2.9l0.4,1c-2.4,1.1-4,2.3-5.1,3.8L0,12.5z"/>
	</g>
	<g>
		<path class="st8" d="M11.2,24.2H5.7c-1.7,0-3-1.4-3-3v-4.1l-1.4-1.4l0.8-1.1c0.4-0.5,0.6-1.1,0.6-1.7V8.1h1.1v4.8
			c0,0.8-0.3,1.7-0.8,2.3l-0.3,0.3l1.1,1.1v4.5c0,1.1,0.9,2,2,2h5.5c0.6,0,1.1-0.2,1.5-0.6l1-1l0.8,0.8l-1,1
			C12.8,23.9,12,24.2,11.2,24.2z"/>
	</g>
	<g>
		<path class="st8" d="M5.4,22H3.2v-1.1h2.2c1.5,0,2.7-1.1,3-2.5H3.2v-1.1h6.3v0.5C9.5,20.1,7.7,22,5.4,22z"/>
	</g>
	<g>
		<rect x="9.6" y="23.7" class="st8" width="1.1" height="4.5"/>
	</g>
	<g>
		<path class="st8" d="M21.7,35.7H2.7v-0.5c0-4.2,3.4-7.6,7.6-7.6h2.6c0.3,0,0.5,0.2,0.6,0.5c0.1,0.3-0.1,0.6-0.3,0.7
			c-2.7,1.3-2.6,4.6-2.5,5.8h11.2V35.7z M3.7,34.6h5.8c-0.1-1.3-0.1-4.2,1.9-6h-1.2C6.8,28.6,4,31.3,3.7,34.6z"/>
	</g>
	<g>
		<path class="st8" d="M18.7,21.8c-0.3-2.3,0.9-4.8,0.9-4.9l1,0.4c0,0-1.1,2.4-0.8,4.4L18.7,21.8z"/>
	</g>
	<g>
		<path class="st8" d="M19.2,35c-0.5,0-0.8-0.2-0.9-0.7L18.1,34c-0.1-0.2-0.1-0.4-0.2-0.6c0,0-0.1,0-0.2,0.1
			c-0.1,0.1-0.3,0.1-0.4,0.2l-0.2,0.1c-0.4,0.2-0.7,0.1-1.1-0.1c-0.6-0.4-1.1-0.9-1.5-1.5c-0.2-0.3-0.3-0.7-0.1-1.1
			c0.1-0.2,0.2-0.4,0.3-0.6l0.1-0.1c0,0,0,0-0.1,0l-0.2,0c-0.2-0.1-0.5-0.2-0.7-0.2c-0.4-0.1-0.7-0.5-0.7-0.9c0-0.6,0-1.3,0-1.9
			c0-0.5,0.2-0.8,0.7-0.9l0.9-0.3c0,0,0,0,0-0.1c-0.1-0.2-0.2-0.4-0.4-0.7c-0.2-0.4-0.1-0.7,0.1-1.1c0.4-0.6,1-1.1,1.5-1.5
			c0.1-0.1,0.2-0.1,0.3-0.2l0.2-0.1l0.4,0.1c0.1,0,0.1,0.1,0.2,0.1c0.2,0.1,0.5,0.2,0.7,0.3l0.1-0.2l0.2-0.6c0.2-0.5,0.5-0.7,1-0.7
			c0.6,0,1.3,0,1.9,0c0.5,0,0.8,0.2,0.9,0.7l0.1,0.4c0.1,0.2,0.1,0.3,0.2,0.5c0.1,0,0.1,0.1,0.2,0c0.2-0.2,0.5-0.3,0.7-0.3
			c0.1,0,0.5-0.1,0.9,0.1c0.7,0.5,1.2,1,1.6,1.6c0.3,0.4,0.2,0.8,0,1c-0.1,0.2-0.2,0.4-0.3,0.6l0,0.1c0,0,0,0.1,0.1,0.1
			c0.2,0,0.4,0.1,0.5,0.2l0.2,0.1c0.6,0.2,0.7,0.6,0.7,0.9l0,1.9c0,0.5-0.2,0.8-0.7,1l-0.2,0.1c-0.2,0.1-0.5,0.2-0.7,0.2
			c0,0,0,0.1,0.1,0.2c0.1,0.1,0.1,0.3,0.2,0.4l0.1,0.1c0.2,0.4,0.1,0.8-0.1,1.1c-0.4,0.6-0.9,1.1-1.5,1.5c-0.3,0.3-0.7,0.3-1.1,0.1
			c-0.1-0.1-0.2-0.1-0.3-0.1c-0.1-0.1-0.2-0.1-0.4-0.2c-0.1,0-0.1,0-0.1,0.2c0,0.2-0.1,0.4-0.2,0.6L22,34.3c-0.2,0.5-0.5,0.7-1,0.7
			L19.2,35z M19.2,33.9l1.8,0l0-0.1c0-0.1,0.1-0.3,0.1-0.4c0.1-0.5,0.4-0.8,0.9-1c0.1,0,0.4-0.1,0.7,0.1c0.1,0.1,0.2,0.1,0.4,0.2
			c0.1,0.1,0.2,0.1,0.3,0.2c0.5-0.4,0.9-0.8,1.3-1.3l-0.1-0.2c0-0.1-0.1-0.2-0.1-0.2c-0.3-0.5-0.3-1,0-1.4c0.1-0.1,0.2-0.3,0.4-0.4
			c0.3-0.1,0.5-0.2,0.8-0.3l0.1,0v-1.8l-0.1-0.1c-0.1,0-0.3-0.1-0.4-0.1c-0.7-0.2-0.9-0.6-1-0.9c0-0.2-0.1-0.3,0-0.6
			c0.1-0.3,0.2-0.6,0.4-0.9c-0.3-0.5-0.7-0.9-1.3-1.3c-0.1,0.1-0.2,0.1-0.4,0.2c-0.5,0.3-1,0.3-1.4,0c-0.2-0.1-0.3-0.3-0.4-0.4
			c-0.1-0.2-0.1-0.4-0.2-0.6l-0.1-0.3c-0.6,0-1.2,0-1.8,0L19,23.1c-0.1,0.3-0.3,0.5-0.6,0.6c-0.3,0.1-0.6,0.1-0.9,0
			c-0.2-0.1-0.5-0.2-0.7-0.3c0,0,0,0,0,0c0,0,0,0,0,0c-0.5,0.3-0.9,0.8-1.3,1.3c0.1,0.2,0.3,0.5,0.4,0.8c0.1,0.2,0.1,0.5,0,0.8
			c-0.1,0.3-0.3,0.5-0.6,0.6l-0.9,0.3c0,0.6,0,1.2,0,1.8c0.2,0.1,0.4,0.1,0.6,0.2l0.2,0.1c0.3,0.1,0.5,0.3,0.6,0.6
			c0.1,0.3,0.1,0.6,0,0.8l-0.1,0.1c-0.1,0.2-0.2,0.4-0.3,0.7c0.4,0.5,0.8,0.9,1.3,1.3l0.2-0.1c0.1,0,0.2-0.1,0.3-0.1
			c0.6-0.4,1.1-0.2,1.4,0c0.1,0.1,0.3,0.2,0.4,0.4c0.1,0.2,0.1,0.4,0.2,0.6L19.2,33.9z M22.4,33.4L22.4,33.4L22.4,33.4z M25.4,25.9
			C25.4,25.9,25.4,25.9,25.4,25.9C25.4,25.9,25.4,25.9,25.4,25.9z"/>
	</g>
	<g>
		<path class="st8" d="M20.1,31.2C20.1,31.2,20.1,31.2,20.1,31.2c-1.7,0-3-1.4-3-3.1c0-0.8,0.3-1.6,0.9-2.2c0.6-0.6,1.4-0.9,2.2-0.9
			c0.8,0,1.6,0.4,2.2,1c0.6,0.6,0.9,1.4,0.8,2.1c0,0.8-0.3,1.6-0.9,2.2C21.7,30.9,20.9,31.2,20.1,31.2z M20.2,26.1
			c-0.5,0-1,0.2-1.4,0.6c-0.4,0.4-0.6,0.9-0.6,1.4c0,1.1,0.9,2,1.9,2c0.6,0,1.1-0.2,1.5-0.6c0.4-0.4,0.6-0.9,0.6-1.4v0
			c0-0.5-0.2-1-0.6-1.4C21.2,26.3,20.7,26.1,20.2,26.1C20.2,26.1,20.2,26.1,20.2,26.1z"/>
	</g>
	<g>
		<path class="st8" d="M31.1,23.5h-1.5c-0.4,0-0.7-0.2-0.9-0.6l-0.1-0.3c0-0.1-0.1-0.2-0.1-0.3c-0.2,0.1-0.3,0.1-0.4,0.2L28,22.5
			c-0.3,0.2-0.7,0.1-1-0.1c-0.5-0.4-0.9-0.8-1.2-1.2c-0.2-0.3-0.3-0.7-0.1-1c0.1-0.2,0.2-0.3,0.2-0.5l-0.1,0
			c-0.2-0.1-0.4-0.1-0.5-0.2c-0.4-0.1-0.6-0.4-0.6-0.8c0-0.5,0-1,0-1.6c0-0.4,0.2-0.7,0.6-0.9l0.6-0.2c-0.1-0.2-0.2-0.3-0.2-0.5
			c-0.2-0.3-0.1-0.7,0.1-1c0.4-0.5,0.8-0.9,1.2-1.3c0.1-0.1,0.2-0.1,0.3-0.1l0.2-0.1l0.3,0l-0.2,0.5l0.3-0.5c0.1,0,0.1,0,0.2,0.1
			c0.2,0.1,0.3,0.2,0.5,0.2l0.2-0.6c0.1-0.4,0.4-0.6,0.9-0.6c0.5,0,1,0,1.5,0c0.4,0,0.7,0.2,0.9,0.6l0.1,0.3c0,0.1,0.1,0.2,0.1,0.3
			c0.3-0.1,0.5-0.2,0.6-0.3c0.1,0,0.5-0.1,0.8,0.1c0.6,0.4,1,0.8,1.3,1.3c0.2,0.3,0.2,0.6,0,0.9c-0.1,0.2-0.2,0.3-0.2,0.5l0,0
			c0.2,0,0.3,0.1,0.5,0.1l0.1,0c0.4,0.1,0.6,0.4,0.6,0.9l0,1.5c0,0.4-0.2,0.7-0.6,0.9l-0.1,0c-0.2,0-0.3,0.1-0.4,0.2
			c0.1,0.2,0.1,0.3,0.2,0.4l0.1,0.1c0.2,0.3,0.1,0.7-0.1,1c-0.3,0.5-0.8,0.9-1.2,1.2c-0.3,0.2-0.7,0.3-1,0.1l-0.2-0.1
			c-0.1,0-0.1-0.1-0.2-0.1c-0.1,0.2-0.1,0.3-0.2,0.5l0,0.1C31.9,23.3,31.6,23.5,31.1,23.5z M29.7,22.4l1.3,0l0,0
			c0-0.1,0.1-0.2,0.1-0.3c0.1-0.6,0.5-0.8,0.8-0.9c0.1,0,0.4-0.1,0.7,0.1c0.1,0.1,0.2,0.1,0.3,0.1l0.2,0.1c0.4-0.3,0.7-0.6,0.9-0.9
			l0-0.1c0-0.1-0.1-0.1-0.1-0.2c-0.3-0.4-0.3-0.8,0-1.2c0.1-0.1,0.2-0.3,0.4-0.3c0.2-0.1,0.4-0.1,0.6-0.2l0,0l0-1.3l-0.1,0
			c-0.1,0-0.2-0.1-0.3-0.1c-0.6-0.1-0.8-0.6-0.8-0.8c0-0.1-0.1-0.3,0-0.5c0.1-0.2,0.2-0.4,0.3-0.6c-0.2-0.3-0.5-0.6-0.9-0.9
			c-0.1,0-0.2,0.1-0.3,0.1c-0.4,0.3-0.9,0.3-1.2,0c-0.2-0.1-0.3-0.2-0.3-0.4c-0.1-0.2-0.1-0.3-0.2-0.5L31,13.3c-0.4,0-0.9,0-1.3,0
			l-0.2,0.6c-0.1,0.3-0.3,0.5-0.5,0.6c-0.3,0.1-0.6,0.1-0.8,0c-0.2-0.1-0.3-0.2-0.5-0.2c-0.4,0.3-0.7,0.6-0.9,0.9
			c0.1,0.2,0.2,0.4,0.3,0.6c0.1,0.2,0.1,0.5,0,0.8c-0.1,0.3-0.3,0.5-0.5,0.5l-0.6,0.2c0,0.4,0,0.9,0,1.3c0.1,0,0.3,0.1,0.4,0.1
			l0.2,0.1c0.2,0.1,0.4,0.3,0.5,0.5c0.1,0.3,0.1,0.5,0,0.7l0,0.1c-0.1,0.2-0.2,0.3-0.2,0.5c0.3,0.3,0.6,0.7,0.9,0.9l0.1,0
			c0.1,0,0.1-0.1,0.2-0.1c0.6-0.4,1-0.2,1.2,0c0.1,0.1,0.3,0.2,0.3,0.4c0.1,0.2,0.1,0.3,0.2,0.5L29.7,22.4z M32.1,22.2
			C32.1,22.2,32.1,22.2,32.1,22.2C32.1,22.2,32.1,22.2,32.1,22.2z M28.5,22.2C28.5,22.2,28.5,22.2,28.5,22.2
			C28.5,22.2,28.5,22.2,28.5,22.2z M27.6,21.6C27.6,21.6,27.6,21.6,27.6,21.6L27.6,21.6z M34.7,19.8C34.7,19.8,34.7,19.8,34.7,19.8
			C34.7,19.8,34.7,19.8,34.7,19.8z M26,19.6C26,19.6,26,19.6,26,19.6L26,19.6z M34.8,16l-0.5,0.2l0.5-0.1C34.8,16,34.8,16,34.8,16z"
			/>
	</g>
	<g>
		<path class="st8" d="M30.3,20.5C30.3,20.5,30.3,20.5,30.3,20.5c-1.4,0-2.5-1.2-2.5-2.6c0-0.7,0.3-1.3,0.8-1.8
			c0.5-0.5,1.2-0.7,1.8-0.7c0.7,0,1.3,0.3,1.8,0.8c0.5,0.5,0.7,1.1,0.7,1.8c0,0.7-0.3,1.3-0.8,1.8C31.7,20.2,31,20.5,30.3,20.5z
			 M30.4,16.4c-0.4,0-0.8,0.2-1.1,0.4c-0.3,0.3-0.5,0.7-0.5,1.1c0,0.8,0.7,1.5,1.4,1.5c0,0,0,0,0,0c0.4,0,0.8-0.2,1.1-0.4
			c0.3-0.3,0.4-0.7,0.4-1.1v0c0-0.4-0.1-0.7-0.4-1C31.2,16.6,30.8,16.4,30.4,16.4C30.4,16.4,30.4,16.4,30.4,16.4z"/>
	</g>
	<g>
		<path class="st8" d="M25.2,19.4c-5-0.3-8.9-4.5-8.9-9.5c0-5.3,4.3-9.6,9.6-9.6s9.6,4.3,9.6,9.6c0,1.6-0.4,3.1-1.1,4.5l-0.9-0.5
			c0.7-1.2,1-2.6,1-4c0-4.7-3.8-8.5-8.5-8.5s-8.5,3.8-8.5,8.5c0,4.5,3.5,8.2,7.9,8.5L25.2,19.4z"/>
	</g>
	<g>
		<rect x="18.1" y="4.8" class="st8" width="15.7" height="1.1"/>
	</g>
	<g>
		<rect x="18.1" y="13.9" class="st8" width="8.4" height="1.1"/>
	</g>
	<g>
		<rect x="16.9" y="9.4" class="st8" width="18.1" height="1.1"/>
	</g>
	<g>
		<path class="st8" d="M29.4,14.2l-1-0.2c0.1-0.4,0.2-0.9,0.2-1.3l1.1,0.1C29.6,13.3,29.5,13.8,29.4,14.2z"/>
	</g>
	<g>
		<path class="st8" d="M25,19.1c-1.7-1-2.9-4.7-2.9-9.3c0-4.6,1.3-9.5,3.9-9.5c2.5,0,3.8,4.9,3.8,9.5c0,1-0.1,2-0.2,3l-1.1-0.1
			c0.1-0.9,0.2-1.9,0.2-2.9c0-4.9-1.5-8.5-2.8-8.5c-1.3,0-2.8,3.6-2.8,8.5c0,4.5,1.2,7.7,2.3,8.3L25,19.1z"/>
	</g>
	<g>
		<rect x="6.5" y="7.2" transform="matrix(0.813 -0.5822 0.5822 0.813 -2.9146 6.3998)" class="st8" width="4" height="1.1"/>
	</g>
	<g>
		<rect x="10.3" y="7.2" transform="matrix(0.829 -0.5592 0.5592 0.829 -2.2193 8.2164)" class="st8" width="4.1" height="1.1"/>
	</g>
	<g>
		<path class="st8" d="M7.2,12.8c-1.3,0-2.3-1-2.3-2.3h1.1c0,0.7,0.6,1.3,1.3,1.3c0.7,0,1.3-0.6,1.3-1.3h1.1
			C9.5,11.8,8.5,12.8,7.2,12.8z"/>
	</g>
</g>
</svg>
