<svg id="Layer_1" data-name="Layer 1" xmlns="http://www.w3.org/2000/svg" viewBox="0 0 36 36"><defs><style>.cls-1{fill:#0b4a99;}</style></defs><path class="cls-1" d="M19.39,29.93H1.4A1.32,1.32,0,0,1,0,28.62v-6.8a1.39,1.39,0,0,1,1.4-1.31h18l-.66.77a5.59,5.59,0,0,0-1.5,3.86,6.06,6.06,0,0,0,1.5,4Zm-18-8.49a.47.47,0,0,0-.47.38v6.8c0,.26.24.38.47.38H17.45a6.81,6.81,0,0,1-1.15-3.86,6.3,6.3,0,0,1,1.14-3.7Zm9,1.95a.29.29,0,0,0-.3.3v3.14a.3.3,0,0,0,.6,0V23.69A.29.29,0,0,0,10.4,23.39Zm-2.8,0a.29.29,0,0,0-.3.3v3.14a.29.29,0,0,0,.3.3.3.3,0,0,0,.3-.3V23.69A.3.3,0,0,0,7.6,23.39Zm-2.89,0a.29.29,0,0,0-.3.3v3.14a.3.3,0,0,0,.6,0V23.69A.29.29,0,0,0,4.71,23.39Z"/><path class="cls-1" d="M26.7,10.49H1.48A1.34,1.34,0,0,1,.08,9.17V2.38a1.4,1.4,0,0,1,1.4-1.31H26.61a1.55,1.55,0,0,1,1.48,1.22V9.17A1.4,1.4,0,0,1,26.7,10.49ZM1.48,2A.47.47,0,0,0,1,2.38V9.17a.41.41,0,0,0,.46.39H26.7a.48.48,0,0,0,.47-.39V2.44A.63.63,0,0,0,26.61,2ZM10.4,4a.29.29,0,0,0-.3.3V7.39a.3.3,0,1,0,.6,0V4.25A.29.29,0,0,0,10.4,4ZM7.6,4a.29.29,0,0,0-.3.3V7.39a.29.29,0,0,0,.3.3.3.3,0,0,0,.3-.3V4.25A.3.3,0,0,0,7.6,4ZM4.71,4a.29.29,0,0,0-.3.3V7.39a.3.3,0,1,0,.6,0V4.25A.29.29,0,0,0,4.71,4Zm18.5.67a.77.77,0,1,0,.77.77A.77.77,0,0,0,23.21,4.62Zm-3.86,0a.77.77,0,1,0,0,1.53.77.77,0,0,0,0-1.53Z"/><path class="cls-1" d="M19.88,20.25H1.48a1.33,1.33,0,0,1-1.4-1.31V12.15a1.4,1.4,0,0,1,1.4-1.32H26.61A1.33,1.33,0,0,1,28,12.15v6.79a1.57,1.57,0,0,1-.47,1l-.26.25L27,20a7.67,7.67,0,0,0-3.36-1A6.48,6.48,0,0,0,20,20.17ZM1.48,11.76a.47.47,0,0,0-.46.39v6.79a.41.41,0,0,0,.46.38H19.59a7.36,7.36,0,0,1,4.05-1.27,8.81,8.81,0,0,1,3.43,1,.2.2,0,0,0,0-.07V12.15c0-.27-.24-.39-.47-.39Zm8.92,2a.3.3,0,0,0-.3.3v3.14a.3.3,0,0,0,.6,0V14A.3.3,0,0,0,10.4,13.71Zm-2.8,0a.3.3,0,0,0-.3.3v3.14a.29.29,0,0,0,.3.3.3.3,0,0,0,.3-.3V14A.31.31,0,0,0,7.6,13.71Zm-2.89,0a.3.3,0,0,0-.3.3v3.14a.3.3,0,0,0,.6,0V13.93C5,13.74,4.82,13.71,4.71,13.71Zm18.5,1.21a.77.77,0,1,0,.77.77A.77.77,0,0,0,23.21,14.92Zm-3.86,0a.77.77,0,1,0,0,1.53.77.77,0,0,0,0-1.53Z"/><rect class="cls-1" x="6.58" y="9.97" width="0.93" height="1.24"/><rect class="cls-1" x="6.58" y="19.58" width="0.93" height="1.24"/><rect class="cls-1" x="20.41" y="9.97" width="0.93" height="1.24"/><path class="cls-1" d="M24.19,27.09a1,1,0,0,1-.63-.23l-1.85-1.57a.46.46,0,0,1,.6-.71l1.85,1.57c.21-.23,4.19-5.64,6-6.83a.47.47,0,0,1,.51.78C29,21.19,25,26.65,25,26.7a.92.92,0,0,1-.66.38Z"/><polygon class="cls-1" points="36 33.99 30.39 29.46 29.63 30.42 35.24 34.93 36 33.99"/><path class="cls-1" d="M28.51,28.22l.28.25a5.69,5.69,0,0,0,0-5.84l-.71.81a4.69,4.69,0,0,1-1.57,6,4.81,4.81,0,0,1-6.5-1.27,4.68,4.68,0,0,1,6.74-6.32l.67-.76a5.69,5.69,0,0,0-8.25,7.64,5.84,5.84,0,0,0,7.9,1.55,6.22,6.22,0,0,0,1.25-1.14L28,28.79Z"/><path class="cls-1" d="M28.79,28.47a6.38,6.38,0,0,1-.43.63l.61.53.47-.6Z"/><path class="cls-1" d="M28.51,28.22l-.5.57.35.31a6.38,6.38,0,0,0,.43-.63Z"/><polygon class="cls-1" points="29.98 29.14 30.39 29.46 30.86 28.87 30.06 28.25 29.44 29.03 29.8 29.35 29.3 29.92 28.97 29.63 28.42 30.32 29.21 30.95 29.63 30.42 29.22 30.09 29.98 29.14"/><polygon class="cls-1" points="29.98 29.14 29.22 30.09 29.63 30.42 30.39 29.46 29.98 29.14"/><polygon class="cls-1" points="29.8 29.35 29.44 29.03 28.97 29.63 29.3 29.92 29.8 29.35"/></svg>