<?xml version="1.0" encoding="utf-8"?>
<!-- Generator: Adobe Illustrator 25.0.0, SVG Export Plug-In . SVG Version: 6.00 Build 0)  -->
<svg version="1.1" id="Layer_1" xmlns="http://www.w3.org/2000/svg" xmlns:xlink="http://www.w3.org/1999/xlink" x="0px" y="0px"
	 viewBox="0 0 32 32" style="enable-background:new 0 0 32 32;" xml:space="preserve">
<style type="text/css">
	.st0{fill:#CB1618;}
	.st1{fill:#185ABD;}
	.st2{fill:#D83039;}
	.st3{fill:#103F91;}
	.st4{fill:#185C37;}
	.st5{fill:#33C481;}
	.st6{fill:#107C41;}
	.st7{fill:#21A366;}
	.st8{fill:#0B4A99;}
	.st9{fill:none;}
	.st10{fill:#FFFFFF;}
	.st11{fill:#41A5EE;}
	.st12{fill:#2B7CD3;}
	.st13{opacity:0.5;enable-background:new    ;}
	.st14{fill:url(#SVGID_1_);}
	.st15{fill:url(#SVGID_2_);}
	.st16{fill:url(#SVGID_3_);}
	.st17{fill:url(#SVGID_4_);}
	.st18{fill:#E24951;}
</style>
<path class="st3" d="M6.8,29.7c0,1.3,1,2.3,2.3,2.3h20.6c1.2,0,2.3-1.1,2.3-2.3v-5.9H6.8V29.7z"/>
<path class="st11" d="M23.4,6.2V0H9.1C7.8,0,6.8,1,6.8,2.3V8h17.3C23.6,7.5,23.4,6.9,23.4,6.2z"/>
<rect x="6.8" y="15.8" class="st1" width="25.1" height="8.2"/>
<path class="st12" d="M32,12.2V11V8.7h-6.1c-0.7,0-1.3-0.3-1.8-0.7H6.8v3v1.2V16H32V12.2z"/>
<path class="st11" d="M25.9,8.2c0,0,4.6,0,5.5,0c-0.7-0.7-6.9-6.9-7.6-7.7c0,1,0,5.6,0,5.6C23.8,7.3,24.7,8.2,25.9,8.2z"/>
<path class="st13" d="M19.3,10L6.8,9.9v18.2l12.4,0.1c0.8,0,1.4-0.6,1.4-1.4V11.4C20.7,10.6,20.1,10,19.3,10z"/>
<path class="st1" d="M17.4,27.3H1.1c-0.6,0-1.1-0.5-1.1-1.1v-16c0-0.6,0.5-1.1,1.1-1.1h16.4c0.6,0,1.1,0.5,1.1,1.1v16
	C18.5,26.8,18,27.3,17.4,27.3z"/>
<path class="st10" d="M16.5,23.2L12.3,21l2.2-4.2C16.8,18,17.7,20.9,16.5,23.2"/>
<path class="st10" d="M15.4,23.5c-1.2,2.3-4,3.2-6.3,2c-2.3-1.2-3.2-4-2-6.3c1.2-2.3,4-3.2,6.3-2l-2.1,4.1L15.4,23.5z"/>
<rect x="2.6" y="17.1" class="st10" width="1.8" height="4.1"/>
<path class="st10" d="M6.9,15.2H5.2v6.1h1c0-1,0.3-1.9,0.8-2.6V15.2z"/>
<path class="st10" d="M9.4,15.7H7.7v2c0.5-0.5,1.1-0.9,1.8-1.1V15.7z"/>
<path class="st10" d="M12,16.3v-2.7h-1.8v2.8c0.3-0.1,0.7-0.1,1.1-0.1C11.5,16.2,11.7,16.2,12,16.3z"/>
<polygon class="st10" points="3.7,16 3.4,15.7 5.9,13.3 8.5,14.5 10.9,11.4 11.3,11.7 8.6,15.1 6,13.9 "/>
<circle class="st10" cx="3.5" cy="16" r="0.7"/>
<circle class="st10" cx="6" cy="13.6" r="0.7"/>
<circle class="st10" cx="8.6" cy="14.7" r="0.7"/>
<circle class="st10" cx="11.1" cy="11.7" r="0.7"/>
</svg>
