<?xml version="1.0" encoding="utf-8"?>
<!-- Generator: Adobe Illustrator 25.0.0, SVG Export Plug-In . SVG Version: 6.00 Build 0)  -->
<svg version="1.1" id="Layer_1" xmlns="http://www.w3.org/2000/svg" xmlns:xlink="http://www.w3.org/1999/xlink" x="0px" y="0px"
	 viewBox="0 0 32 32" style="enable-background:new 0 0 32 32;" xml:space="preserve">
<style type="text/css">
	.st0{fill:#185C37;}
	.st1{fill:#33C481;}
	.st2{fill:#107C41;}
	.st3{fill:#21A366;}
	.st4{fill:#0B4A99;}
	.st5{fill:#CB1618;}
	.st6{fill:none;}
	.st7{fill:#FFFFFF;}
	.st8{fill:#78B9EA;}
	.st9{fill:#2E8EE5;}
</style>
<g>
	<g>
		<path class="st5" d="M22.5,8.2c0,0,4.6,0,5.5,0c-0.7-0.7-6.9-6.9-7.6-7.7c0,1,0,5.6,0,5.6C20.4,7.3,21.4,8.2,22.5,8.2z"/>
		<path class="st4" d="M22.5,8.7c-1.4,0-2.5-1.1-2.5-2.5V0H5.7C4.4,0,3.4,1,3.4,2.3V11v1.2v17.5c0,1.3,1,2.3,2.3,2.3h20.6
			c1.2,0,2.3-1,2.3-2.3V12.2V11V8.7H22.5z"/>
	</g>
	<g>
		<rect x="6.2" y="27.2" class="st7" width="2" height="3.2"/>
		<rect x="9.1" y="26.6" class="st7" width="2" height="3.8"/>
		<rect x="12.1" y="24.6" class="st7" width="2" height="5.8"/>
		<rect x="15" y="27.9" class="st7" width="2" height="2.4"/>
		<rect x="18" y="26.1" class="st7" width="2" height="4.2"/>
		<rect x="20.9" y="24.6" class="st7" width="2" height="5.8"/>
		<rect x="23.9" y="22.4" class="st7" width="2" height="7.9"/>
	</g>
	<g>
		<circle class="st8" cx="7.1" cy="25.6" r="1.1"/>
		<circle class="st8" cx="12.8" cy="19" r="1.1"/>
		<circle class="st8" cx="18.8" cy="22.7" r="1.1"/>
		<circle class="st8" cx="24.5" cy="15.4" r="1.1"/>
		<g>
			<polygon class="st8" points="7.4,25.8 6.9,25.4 12.7,18.6 18.7,22.3 24.3,15.2 24.7,15.6 18.8,23.1 12.8,19.4 			"/>
		</g>
	</g>
	<path class="st7" d="M8.1,10.8c-2.1,0-3.7,1.7-3.7,3.7c0,2.1,1.7,3.7,3.7,3.7c0.9,0,1.8-0.3,2.4-0.9l-2.4-2.5V10.8z"/>
	<path class="st9" d="M8.6,10.3C8.7,10.3,8.7,10.3,8.6,10.3c2.2,0,3.8,1.7,3.8,3.7H8.6L8.6,10.3z"/>
	<path class="st8" d="M8.7,14.6h3.7c0,0,0.2,1.5-1.1,2.7L8.7,14.6z"/>
	<path class="st7" d="M6.2,3.2h7.3c0.3,0,0.5-0.2,0.5-0.5c0-0.3-0.2-0.5-0.5-0.5H6.2c-0.3,0-0.5,0.2-0.5,0.5S5.9,3.2,6.2,3.2z"/>
	<path class="st7" d="M17.1,5.2H6.2c-0.3,0-0.5,0.2-0.5,0.5s0.2,0.5,0.5,0.5h10.8c0.3,0,0.5-0.2,0.5-0.5C17.6,5.5,17.4,5.2,17.1,5.2
		z"/>
</g>
</svg>
