<?xml version="1.0" encoding="utf-8"?>
<!-- Generator: Adobe Illustrator 25.0.0, SVG Export Plug-In . SVG Version: 6.00 Build 0)  -->
<svg version="1.1" id="Layer_1" xmlns="http://www.w3.org/2000/svg" xmlns:xlink="http://www.w3.org/1999/xlink" x="0px" y="0px"
	 viewBox="0 0 29.7 30" style="enable-background:new 0 0 29.7 30;" xml:space="preserve">
<style type="text/css">
	.st0{fill:#CB1618;}
	.st1{fill:#185ABD;}
	.st2{fill:#D83039;}
	.st3{fill:#103F91;}
	.st4{fill:#185C37;}
	.st5{fill:#33C481;}
	.st6{fill:#107C41;}
	.st7{fill:#21A366;}
	.st8{fill:#0B4A99;}
	.st9{fill:none;}
	.st10{fill:#FFFFFF;}
	.st11{fill:#41A5EE;}
	.st12{fill:#2B7CD3;}
	.st13{opacity:0.5;enable-background:new    ;}
	.st14{fill:url(#SVGID_1_);}
	.st15{fill:url(#SVGID_2_);}
	.st16{fill:url(#SVGID_3_);}
	.st17{fill:url(#SVGID_4_);}
	.st18{fill:#E24951;}
	.st19{fill-rule:evenodd;clip-rule:evenodd;}
	.st20{fill:#262625;}
	.st21{fill:none;stroke:#000000;stroke-width:0.75;stroke-miterlimit:10;}
</style>
<g>
	<g>
		<path d="M27.3,23.9l-6.2-3.2l3.2-6.2l0.4,0.2c1.6,0.8,2.7,2.1,3.2,3.8c0.5,1.7,0.4,3.4-0.4,5L27.3,23.9z M22.2,20.4l4.7,2.4
			c0.5-1.3,0.6-2.7,0.2-4c-0.4-1.3-1.3-2.4-2.5-3.2L22.2,20.4z"/>
	</g>
	<g>
		<path d="M18.5,30c-1.3,0-2.6-0.3-3.8-0.9c-2-1-3.5-2.8-4.2-4.9C9.8,22,10,19.7,11,17.7s2.8-3.5,4.9-4.2c2.1-0.7,4.4-0.5,6.4,0.5
			l0.4,0.2L19,21.4l7.1,3.7L26,25.4c-1,2-2.8,3.5-4.9,4.2C20.2,29.9,19.4,30,18.5,30z M18.5,14c-0.8,0-1.6,0.1-2.4,0.4
			c-1.9,0.6-3.5,2-4.4,3.8c-0.9,1.8-1.1,3.9-0.5,5.8c0.6,1.9,2,3.5,3.8,4.4c1.8,0.9,3.9,1.1,5.8,0.5c1.8-0.6,3.3-1.8,4.2-3.4
			L18,21.8l3.6-7.1C20.6,14.2,19.6,14,18.5,14z"/>
	</g>
	<g>
		<path d="M3.3,11.8c-1,0-1.7-0.8-1.7-1.7s0.8-1.7,1.7-1.7S5,9.1,5,10S4.2,11.8,3.3,11.8z M3.3,9.1c-0.5,0-0.9,0.4-0.9,0.9
			c0,0.5,0.4,0.9,0.9,0.9c0.5,0,0.9-0.4,0.9-0.9C4.2,9.5,3.8,9.1,3.3,9.1z"/>
	</g>
	<g>
		<path d="M8.2,7.1c-1,0-1.7-0.8-1.7-1.7s0.8-1.7,1.7-1.7s1.7,0.8,1.7,1.7S9.1,7.1,8.2,7.1z M8.2,4.4c-0.5,0-0.9,0.4-0.9,0.9
			c0,0.5,0.4,0.9,0.9,0.9c0.5,0,0.9-0.4,0.9-0.9C9.1,4.9,8.7,4.4,8.2,4.4z"/>
	</g>
	<g>
		<path d="M13.1,9.4c-1,0-1.7-0.8-1.7-1.7s0.8-1.7,1.7-1.7s1.7,0.8,1.7,1.7S14.1,9.4,13.1,9.4z M13.1,6.7c-0.5,0-0.9,0.4-0.9,0.9
			c0,0.5,0.4,0.9,0.9,0.9c0.5,0,0.9-0.4,0.9-0.9C14,7.1,13.6,6.7,13.1,6.7z"/>
	</g>
	<g>
		<path d="M18,3.5c-1,0-1.7-0.8-1.7-1.7S17.1,0,18,0s1.7,0.8,1.7,1.7S19,3.5,18,3.5z M18,0.8c-0.5,0-0.9,0.4-0.9,0.9
			s0.4,0.9,0.9,0.9c0.5,0,0.9-0.4,0.9-0.9S18.6,0.8,18,0.8z"/>
	</g>
	<g>
		<rect x="13.1" y="4.2" transform="matrix(0.619 -0.7854 0.7854 0.619 2.3197 14.013)" width="5.1" height="0.8"/>
	</g>
	<g>
		<polygon points="11.6,7.6 9.1,6.4 9.5,5.7 12,6.9 		"/>
	</g>
	<g>
		<rect x="3.6" y="7.2" transform="matrix(0.7314 -0.6819 0.6819 0.7314 -3.6762 5.8726)" width="4.1" height="0.8"/>
	</g>
	<g>
		<rect x="2.8" y="13.4" width="0.8" height="8"/>
	</g>
	<g>
		<rect x="12.5" y="10.2" width="0.8" height="3.2"/>
	</g>
	<g>
		<rect x="17.6" y="6.4" width="0.8" height="5.4"/>
	</g>
	<g>
		<rect x="7.6" y="9.4" width="0.8" height="12.2"/>
	</g>
</g>
</svg>
