<?xml version="1.0" encoding="utf-8"?>
<!-- Generator: Adobe Illustrator 25.0.0, SVG Export Plug-In . SVG Version: 6.00 Build 0)  -->
<svg version="1.1" id="Layer_1" xmlns="http://www.w3.org/2000/svg" xmlns:xlink="http://www.w3.org/1999/xlink" x="0px" y="0px"
	 viewBox="0 0 36 36" style="enable-background:new 0 0 36 36;" xml:space="preserve">
<style type="text/css">
	.st0{fill:#CB1618;}
	.st1{fill:#185ABD;}
	.st2{fill:#D83039;}
	.st3{fill:#103F91;}
	.st4{fill:#185C37;}
	.st5{fill:#33C481;}
	.st6{fill:#107C41;}
	.st7{fill:#21A366;}
	.st8{fill:#0B4A99;}
	.st9{fill:none;}
	.st10{fill:#FFFFFF;}
	.st11{fill:#41A5EE;}
	.st12{fill:#2B7CD3;}
	.st13{opacity:0.5;enable-background:new    ;}
	.st14{fill:url(#SVGID_1_);}
	.st15{fill:url(#SVGID_2_);}
	.st16{fill:url(#SVGID_3_);}
	.st17{fill:url(#SVGID_4_);}
	.st18{fill:#E24951;}
	.st19{fill-rule:evenodd;clip-rule:evenodd;}
	.st20{fill:#262625;}
	.st21{fill:none;stroke:#000000;stroke-width:0.75;stroke-miterlimit:10;}
	.st22{fill:none;stroke:#000000;stroke-width:1.2;stroke-miterlimit:10;}
	.st23{fill-rule:evenodd;clip-rule:evenodd;fill:#0B4A99;}
</style>
<g>
	<g>
		<path class="st8" d="M10.9,11.8C5.5,11.8,0,10.2,0,7.2c0-3,5.5-4.6,10.9-4.6s10.9,1.6,10.9,4.6C21.7,10.2,16.2,11.8,10.9,11.8z
			 M10.9,3.9c-5.7,0-9.5,1.7-9.5,3.3c0,1.6,3.8,3.3,9.5,3.3s9.5-1.7,9.5-3.3C20.4,5.6,16.6,3.9,10.9,3.9z"/>
	</g>
	<g>
		<path class="st8" d="M11,21c-5.9,0-10.5-1.7-11-4.2l1.3-0.3c0.3,1.5,4.2,3.2,9.8,3.2V21z"/>
	</g>
	<g>
		<path class="st8" d="M10.4,21v-1.3c5.6,0,9.4-1.7,9.8-3.2l1.3,0.3C20.9,19.3,16.4,21,10.4,21z"/>
	</g>
	<g>
		<path class="st8" d="M11,31.1c-5.9,0-10.5-1.7-11-4.2l1.3-0.3c0.3,1.5,4.2,3.2,9.8,3.2V31.1z"/>
	</g>
	<g>
		<path class="st8" d="M10.4,31.1v-1.3c5.6,0,9.4-1.7,9.8-3.2l1.3,0.3C20.9,29.4,16.4,31.1,10.4,31.1z"/>
	</g>
</g>
<path class="st8" d="M27.2,3.6c-1.1,0-2,0.9-2,2v1.9c0,0.5-0.4,0.9-0.9,0.9h-4.1v1.1h4.1c1.1,0,2-0.9,2-2V5.6c0-0.5,0.4-0.9,0.9-0.9
	h3.1V3.6H27.2z"/>
<g>
	<path class="st8" d="M25.2,30.4v-1.9c0-1.1-0.9-2-2-2h-3.1v1.1h3.1c0.5,0,0.9,0.4,0.9,0.9v1.9c0,1.1,0.9,2,2,2h4.1v-1.1h-4.1
		C25.6,31.3,25.2,30.9,25.2,30.4z"/>
	<rect x="20.1" y="16.4" class="st8" width="10.4" height="1.1"/>
</g>
<g>
	<path class="st8" d="M32.8,7.1c-1.7,0-3.1-1.4-3.1-3.1s1.4-3.1,3.1-3.1C34.6,0.8,36,2.2,36,4S34.6,7.1,32.8,7.1z M32.8,1.8
		c-1.2,0-2.1,1-2.1,2.1c0,1.2,1,2.1,2.1,2.1C34,6.1,35,5.1,35,4C35,2.8,34,1.8,32.8,1.8z"/>
</g>
<g>
	<path class="st8" d="M32.9,20c-1.7,0-3.1-1.4-3.1-3.1s1.4-3.1,3.1-3.1s3.1,1.4,3.1,3.1S34.6,20,32.9,20z M32.9,14.7
		c-1.2,0-2.1,1-2.1,2.1c0,1.2,1,2.1,2.1,2.1s2.1-1,2.1-2.1C35,15.7,34,14.7,32.9,14.7z"/>
</g>
<g>
	<path class="st8" d="M32.9,35c-1.7,0-3.1-1.4-3.1-3.1s1.4-3.1,3.1-3.1s3.1,1.4,3.1,3.1S34.6,35,32.9,35z M32.9,29.7
		c-1.2,0-2.1,1-2.1,2.1c0,1.2,1,2.1,2.1,2.1s2.1-1,2.1-2.1C35,30.7,34,29.7,32.9,29.7z"/>
</g>
</svg>
