<svg id="Layer_1" data-name="Layer 1" xmlns="http://www.w3.org/2000/svg" viewBox="0 0 36 36"><defs><style>.cls-1{fill:#0b4a99;}</style></defs><path class="cls-1" d="M20.53,10.49a5.25,5.25,0,1,1,5.25-5.25A5.25,5.25,0,0,1,20.53,10.49Zm0-9.33a4.09,4.09,0,1,0,4.09,4.08A4.08,4.08,0,0,0,20.53,1.16Z"/><path class="cls-1" d="M6.72,31.83A5.25,5.25,0,1,1,12,26.59,5.25,5.25,0,0,1,6.72,31.83Zm0-9.33a4.09,4.09,0,1,0,4.09,4.09A4.09,4.09,0,0,0,6.72,22.5Z"/><path class="cls-1" d="M5.65,15.51a5.25,5.25,0,1,1,5.24-5.24A5.25,5.25,0,0,1,5.65,15.51Zm0-9.33a4.09,4.09,0,1,0,4.08,4.09A4.09,4.09,0,0,0,5.65,6.18Z"/><path class="cls-1" d="M21.43,36a5.25,5.25,0,1,1,5.24-5.24A5.25,5.25,0,0,1,21.43,36Zm0-9.33a4.09,4.09,0,1,0,4.08,4.09A4.09,4.09,0,0,0,21.43,26.67Z"/><path class="cls-1" d="M30.35,23A5.25,5.25,0,1,1,35.6,17.8,5.25,5.25,0,0,1,30.35,23Zm0-9.32a4.08,4.08,0,1,0,4.09,4.08A4.08,4.08,0,0,0,30.35,13.72Z"/><rect class="cls-1" x="13.39" y="25.85" width="1.16" height="6.1" transform="translate(-17.87 33.02) rotate(-71.57)"/><rect class="cls-1" x="22.82" y="23.6" width="6.56" height="1.16" transform="translate(-8.81 31.09) rotate(-54.01)"/><rect class="cls-1" x="25" y="7.95" width="1.16" height="6.56" transform="translate(-1.25 19.02) rotate(-39.88)"/><rect class="cls-1" x="9.75" y="6.93" width="6.58" height="1.16" transform="translate(-1.67 4.33) rotate(-17.73)"/><rect class="cls-1" x="5.52" y="14.77" width="1.16" height="7.35" transform="translate(-0.94 0.34) rotate(-2.96)"/><rect class="cls-1" x="5.48" y="15.28" width="16.59" height="1.16" transform="translate(-6.94 19.36) rotate(-58.59)"/><rect class="cls-1" x="17.52" y="5.63" width="1.16" height="16.88" transform="translate(-0.86 26.96) rotate(-72.05)"/><rect class="cls-1" x="20.54" y="9.71" width="1.16" height="16.47" transform="translate(-0.33 0.4) rotate(-1.08)"/><rect class="cls-1" x="13.08" y="12.18" width="1.16" height="16.64" transform="translate(-9.74 12.8) rotate(-38.11)"/></svg>