<?xml version="1.0" encoding="utf-8"?>
<!-- Generator: Adobe Illustrator 25.0.0, SVG Export Plug-In . SVG Version: 6.00 Build 0)  -->
<svg version="1.1" id="Layer_1" xmlns="http://www.w3.org/2000/svg" xmlns:xlink="http://www.w3.org/1999/xlink" x="0px" y="0px"
	 viewBox="0 0 36 36" style="enable-background:new 0 0 36 36;" xml:space="preserve">
<style type="text/css">
	.st0{fill:#CB1618;}
	.st1{fill:#185ABD;}
	.st2{fill:#D83039;}
	.st3{fill:#103F91;}
	.st4{fill:#185C37;}
	.st5{fill:#33C481;}
	.st6{fill:#107C41;}
	.st7{fill:#21A366;}
	.st8{fill:#0B4A99;}
	.st9{fill:none;}
	.st10{fill:#FFFFFF;}
	.st11{fill:#41A5EE;}
	.st12{fill:#2B7CD3;}
	.st13{opacity:0.5;enable-background:new    ;}
	.st14{fill:url(#SVGID_1_);}
	.st15{fill:url(#SVGID_2_);}
	.st16{fill:url(#SVGID_3_);}
	.st17{fill:url(#SVGID_4_);}
	.st18{fill:#E24951;}
	.st19{fill-rule:evenodd;clip-rule:evenodd;}
	.st20{fill:#262625;}
	.st21{fill:none;stroke:#000000;stroke-width:0.75;stroke-miterlimit:10;}
	.st22{fill:none;stroke:#000000;stroke-width:1.2;stroke-miterlimit:10;}
	.st23{fill-rule:evenodd;clip-rule:evenodd;fill:#0B4A99;}
	.st24{fill:none;stroke:#0071C5;stroke-width:1.3;stroke-linecap:round;stroke-miterlimit:10;}
	.st25{fill:none;stroke:#F0AB00;stroke-width:1.3;stroke-miterlimit:10;}
	.st26{fill:#1C55A6;}
	.st27{fill:none;stroke:#1C55A6;stroke-width:1.3;stroke-linecap:round;}
	.st28{fill-rule:evenodd;clip-rule:evenodd;fill:none;stroke:#1C55A6;stroke-width:1.3;stroke-linecap:round;}
	.st29{fill:none;stroke:#1C55A6;stroke-width:1.3;stroke-linecap:round;stroke-miterlimit:10;}
	.st30{fill:none;stroke:#231F20;}
</style>
<g>
	<g>
		<path class="st8" d="M22.4,36H3.3c-0.5,0-1-0.4-1-1V7.4c0-0.5,0.4-1,1-1h5.8v1H3.3l0,27.6l19.1,0l0-13.4h1V35
			C23.4,35.6,22.9,36,22.4,36z"/>
	</g>
	<g>
		<path class="st8" d="M26.6,22.1h-17c-0.5,0-1-0.4-1-1V1c0-0.5,0.4-1,1-1h17c0.5,0,1,0.4,1,1v20.2C27.6,21.7,27.1,22.1,26.6,22.1z
			 M26.6,21.1v0.5V21.1L26.6,21.1L26.6,21.1z M26.6,1l-17,0l0,20.2l17,0V1z"/>
	</g>
	<g>
		<path class="st8" d="M32.6,29.6h-9.7c-0.3,0-0.5-0.2-0.5-0.5s0.2-0.5,0.5-0.5h9.7c0.1,0,0.2-0.1,0.2-0.2V4.7
			c0-0.1-0.1-0.2-0.2-0.2h-3c-0.3,0-0.5-0.2-0.5-0.5c0-0.3,0.2-0.5,0.5-0.5h3c0.6,0,1.1,0.5,1.1,1.1v23.8
			C33.7,29.1,33.2,29.6,32.6,29.6z"/>
	</g>
	<g>
		<path class="st8" d="M29.9,33.9h-7c-0.3,0-0.5-0.2-0.5-0.5s0.2-0.5,0.5-0.5h6.9V31c0-0.3,0.2-0.5,0.5-0.5s0.5,0.2,0.5,0.5v2
			C30.8,33.5,30.4,33.9,29.9,33.9z"/>
	</g>
	<g>
		<path class="st8" d="M30.3,7.5h-3.2c-0.3,0-0.5-0.2-0.5-0.5c0-0.3,0.2-0.5,0.5-0.5h3.2c0.3,0,0.5,0.2,0.5,0.5
			C30.8,7.3,30.6,7.5,30.3,7.5z"/>
	</g>
	<g>
		<path class="st8" d="M30.3,10.8h-3.2c-0.3,0-0.5-0.2-0.5-0.5s0.2-0.5,0.5-0.5h3.2c0.3,0,0.5,0.2,0.5,0.5S30.6,10.8,30.3,10.8z"/>
	</g>
	<g>
		<path class="st8" d="M30.3,14.2h-3.2c-0.3,0-0.5-0.2-0.5-0.5s0.2-0.5,0.5-0.5h3.2c0.3,0,0.5,0.2,0.5,0.5S30.6,14.2,30.3,14.2z"/>
	</g>
	<g>
		<path class="st8" d="M30.3,17.5h-3.2c-0.3,0-0.5-0.2-0.5-0.5s0.2-0.5,0.5-0.5h3.2c0.3,0,0.5,0.2,0.5,0.5S30.6,17.5,30.3,17.5z"/>
	</g>
	<g>
		<path class="st8" d="M30.3,20.9h-3.2c-0.3,0-0.5-0.2-0.5-0.5c0-0.3,0.2-0.5,0.5-0.5h3.2c0.3,0,0.5,0.2,0.5,0.5
			C30.8,20.6,30.6,20.9,30.3,20.9z"/>
	</g>
	<g>
		<path class="st8" d="M30.3,24.2h-7.4c-0.3,0-0.5-0.2-0.5-0.5s0.2-0.5,0.5-0.5h7.4c0.3,0,0.5,0.2,0.5,0.5S30.6,24.2,30.3,24.2z"/>
	</g>
	<g>
		<path class="st8" d="M17.4,19c-1,0-2.1-0.1-3-0.2l-1.1-0.1c-0.4,0-0.7-0.1-1.1-0.1c-0.3,0-0.6-0.1-0.9-0.2c-0.2,0-0.5-0.2-0.6-0.3
			c-0.2-0.2-0.3-0.5-0.3-0.7c0-1,0.3-2.1,0.8-2.9c0.4-0.7,1.1-1.2,1.8-1.5c0.4-0.2,0.8-0.4,1.2-0.5l0.4-0.2c0.4-0.2,0.6-0.3,0.9-0.4
			l0.5-0.2l0.2,0.5c0.1,0.2,0.1,0.3,0.1,0.4c0,0.1,0,0.2,0.1,0.3c0.2,1,0.5,2,1,3c0.2,0.4,0.4,0.7,0.7,1.1c0,0,0.1,0.1,0.1,0.1
			c0.7-0.9,1.2-1.9,1.6-3.1c0.2-0.6,0.3-1.1,0.4-1.7v-0.8l0.7,0.3c0.3,0.1,0.6,0.2,0.9,0.4c0.3,0.1,0.6,0.2,0.9,0.4
			c0.5,0.2,1.1,0.5,1.6,0.9c0.3,0.2,0.5,0.5,0.7,0.8l0.1,0.2c0.4,0.6,0.6,1.2,0.7,2l0,0.8c0,0.5-0.4,0.7-0.6,0.8
			c-0.2,0.1-0.5,0.2-0.7,0.3c-0.1,0-0.2,0-0.2,0.1c-0.5,0.1-0.9,0.1-1.3,0.2c-0.4,0.1-0.8,0.1-1.2,0.2c-0.5,0.1-0.9,0.1-1.4,0.1
			C19.5,19,18.4,19,17.4,19z M11.4,17.3C11.4,17.3,11.4,17.3,11.4,17.3c0.1,0.1,0.1,0.1,0.1,0.1l0.1,0c0.3,0.1,0.5,0.2,0.7,0.2
			c0.5,0.1,0.8,0.1,1.2,0.2l1.1,0.1c1,0.1,2.1,0.2,3.2,0.2c0,0,0,0,0,0c-0.2-0.2-0.3-0.4-0.4-0.5c-0.3-0.4-0.5-0.8-0.8-1.2
			c-0.5-1.1-0.9-2.2-1.1-3.2c0-0.1,0-0.1-0.1-0.2c-0.1,0-0.2,0.1-0.3,0.1l-0.5,0.2c-0.4,0.1-0.8,0.3-1.2,0.5
			c-0.6,0.3-1.1,0.7-1.4,1.2C11.6,15.6,11.4,16.5,11.4,17.3C11.4,17.3,11.4,17.3,11.4,17.3z M21,13c-0.1,0.4-0.2,0.8-0.3,1.3
			c-0.4,1.4-1,2.6-1.9,3.7c-0.1,0.1-0.1,0.1-0.2,0.2c0.6,0,1.2,0,1.7-0.1c0.5,0,0.9,0,1.3-0.1c0.4-0.1,0.8-0.1,1.2-0.2
			c0.4-0.1,0.8-0.1,1.2-0.2c0,0,0.1,0,0.2-0.1c0.2,0,0.3-0.1,0.4-0.1l0.1,0v-0.7c-0.1-0.6-0.3-1.1-0.6-1.5l-0.1-0.2
			c-0.1-0.2-0.3-0.4-0.4-0.5c-0.5-0.4-0.9-0.6-1.4-0.8c-0.3-0.2-0.6-0.3-0.9-0.4C21.2,13.1,21.1,13,21,13z"/>
	</g>
	<g>
		<path class="st8" d="M18.3,12.1c-0.5,0-0.9-0.1-1.2-0.2l-0.1,0c-0.6-0.4-1.1-0.8-1.4-1.3l0-0.1c0-0.1-0.1-0.2-0.2-0.4
			c-0.1-0.1-0.1-0.2-0.2-0.4l-0.1-0.1c-0.5-0.6-0.8-1.2-0.9-2l0-0.7c0-0.2,0.1-0.4,0.3-0.6V5.1c0.1-1.4,0.9-2.4,2.1-2.8
			c1.1-0.2,2-0.2,2.9,0.1c1,0.3,1.6,1,2,2.2c0.1,0.2,0.1,0.6,0.1,0.9l0,0.1c-0.1,0.2-0.1,0.5-0.1,0.7c0.1,0.1,0.2,0.2,0.2,0.3
			l0.1,0.2c0.1,0.5,0,1.1-0.2,1.6c-0.2,0.4-0.4,0.8-0.7,1.1c-0.1,0.9-0.5,1.5-1.1,1.9C19.4,11.7,18.9,12,18.3,12.1
			C18.3,12.1,18.3,12.1,18.3,12.1z M17.5,11c0.3,0.1,0.6,0.1,0.7,0.1c0.3-0.1,0.7-0.2,1-0.5c0.5-0.3,0.7-0.7,0.8-1.4l0-0.2l0.2-0.2
			c0.2-0.2,0.4-0.5,0.6-0.8C21,7.8,21,7.4,21,7.1l-0.3,0l0-0.5c0-0.4,0-0.8,0.1-1.2c0-0.2,0-0.4,0-0.5c-0.3-1-0.8-1.5-1.4-1.7
			C18.6,3.1,17.8,3,17,3.2c-0.9,0.3-1.3,0.9-1.4,1.9l0,2h-0.3v0.5c0.1,0.4,0.3,0.9,0.6,1.3C16,9,16.1,9.1,16.1,9.3
			c0,0.1,0.1,0.2,0.1,0.3c0.1,0.1,0.1,0.3,0.2,0.4C16.7,10.4,17,10.7,17.5,11z"/>
	</g>
	<g>
		<path class="st8" d="M18.1,16.5c-0.3,0-0.5-0.2-0.5-0.5v-2.1c0-0.3,0.2-0.5,0.5-0.5s0.5,0.2,0.5,0.5V16
			C18.6,16.3,18.4,16.5,18.1,16.5z"/>
	</g>
</g>
</svg>
