<?xml version="1.0" encoding="utf-8"?>
<!-- Generator: Adobe Illustrator 25.0.0, SVG Export Plug-In . SVG Version: 6.00 Build 0)  -->
<svg version="1.1" id="Layer_1" xmlns="http://www.w3.org/2000/svg" xmlns:xlink="http://www.w3.org/1999/xlink" x="0px" y="0px"
	 viewBox="0 0 32 32" style="enable-background:new 0 0 32 32;" xml:space="preserve">
<style type="text/css">
	.st0{fill:#CB1618;}
	.st1{fill:#185ABD;}
	.st2{fill:#D83039;}
	.st3{fill:#103F91;}
	.st4{fill:#185C37;}
	.st5{fill:#33C481;}
	.st6{fill:#107C41;}
	.st7{fill:#21A366;}
	.st8{fill:#0B4A99;}
	.st9{fill:none;}
	.st10{fill:#FFFFFF;}
	.st11{fill:#41A5EE;}
	.st12{fill:#2B7CD3;}
	.st13{opacity:0.5;enable-background:new    ;}
	.st14{fill:url(#SVGID_1_);}
	.st15{fill:url(#SVGID_2_);}
	.st16{fill:url(#SVGID_3_);}
	.st17{fill:url(#SVGID_4_);}
	.st18{fill:#E24951;}
	.st19{font-family:'Roboto-Bold';}
	.st20{font-size:12px;}
</style>
<g>
	<path class="st0" d="M30.9,24.6l-8.5-4.3l4.3-8.5C31.4,14.2,33.3,19.9,30.9,24.6"/>
	<path class="st3" d="M28.6,25.1c-2.4,4.6-8,6.4-12.6,4.1c-4.6-2.4-6.4-8-4.1-12.6c2.4-4.6,8-6.4,12.6-4.1l-4.3,8.3L28.6,25.1z"/>
	<rect x="2.9" y="12.4" class="st3" width="3.5" height="8.2"/>
	<path class="st3" d="M11.5,8.4H8v12.2H10c0-1.9,0.6-3.7,1.6-5.2V8.4z"/>
	<path class="st3" d="M16.6,9.5h-3.5v4c1-1,2.2-1.7,3.5-2.3V9.5z"/>
	<path class="st3" d="M21.7,10.6V5.2h-3.5v5.5c0.7-0.1,1.4-0.2,2.1-0.2C20.8,10.6,21.2,10.6,21.7,10.6z"/>
	<polygon class="st0" points="5.2,10.2 4.5,9.5 9.5,4.7 14.7,7.2 19.6,1 20.3,1.5 15,8.4 9.7,5.8 	"/>
	<circle class="st0" cx="4.7" cy="10" r="1.4"/>
	<circle class="st0" cx="9.8" cy="5.2" r="1.4"/>
	<circle class="st0" cx="14.8" cy="7.6" r="1.4"/>
	<circle class="st0" cx="19.9" cy="1.4" r="1.4"/>
</g>
<path class="st13" d="M19,31.7H5.3c-0.6,0-1.1-0.5-1.1-1.1V17.2c0-0.6,0.5-1.1,1.1-1.1H19c0.6,0,1.1,0.5,1.1,1.1v13.4
	C20.1,31.2,19.6,31.7,19,31.7z"/>
<path class="st1" d="M17.7,30.7H1.3c-0.6,0-1.1-0.5-1.1-1.1v-16c0-0.6,0.5-1.1,1.1-1.1h16.4c0.6,0,1.1,0.5,1.1,1.1v16
	C18.8,30.2,18.3,30.7,17.7,30.7z"/>
<text transform="matrix(1 0 0 1 1.7693 26.0329)" class="st10 st19 st20">DA</text>
</svg>
