<?xml version="1.0" encoding="utf-8"?>
<!-- Generator: Adobe Illustrator 25.0.0, SVG Export Plug-In . SVG Version: 6.00 Build 0)  -->
<svg version="1.1" id="Layer_1" xmlns="http://www.w3.org/2000/svg" xmlns:xlink="http://www.w3.org/1999/xlink" x="0px" y="0px"
	 viewBox="0 0 36 36" style="enable-background:new 0 0 36 36;" xml:space="preserve">
<style type="text/css">
	.st0{fill:#CB1618;}
	.st1{fill:#185ABD;}
	.st2{fill:#D83039;}
	.st3{fill:#103F91;}
	.st4{fill:#185C37;}
	.st5{fill:#33C481;}
	.st6{fill:#107C41;}
	.st7{fill:#21A366;}
	.st8{fill:#0B4A99;}
	.st9{fill:none;}
	.st10{fill:#FFFFFF;}
	.st11{fill:#41A5EE;}
	.st12{fill:#2B7CD3;}
	.st13{opacity:0.5;enable-background:new    ;}
	.st14{fill:url(#SVGID_1_);}
	.st15{fill:url(#SVGID_2_);}
	.st16{fill:url(#SVGID_3_);}
	.st17{fill:url(#SVGID_4_);}
	.st18{fill:#E24951;}
	.st19{fill-rule:evenodd;clip-rule:evenodd;}
	.st20{fill:#262625;}
	.st21{fill:none;stroke:#000000;stroke-width:0.75;stroke-miterlimit:10;}
	.st22{fill:none;stroke:#000000;stroke-width:1.2;stroke-miterlimit:10;}
	.st23{fill-rule:evenodd;clip-rule:evenodd;fill:#0B4A99;}
	.st24{fill:none;stroke:#0071C5;stroke-width:1.3;stroke-linecap:round;stroke-miterlimit:10;}
	.st25{fill:none;stroke:#F0AB00;stroke-width:1.3;stroke-miterlimit:10;}
	.st26{fill:#1C55A6;}
	.st27{fill:none;stroke:#1C55A6;stroke-width:1.3;stroke-linecap:round;}
	.st28{fill-rule:evenodd;clip-rule:evenodd;fill:none;stroke:#1C55A6;stroke-width:1.3;stroke-linecap:round;}
	.st29{fill:none;stroke:#1C55A6;stroke-width:1.3;stroke-linecap:round;stroke-miterlimit:10;}
	.st30{fill:none;stroke:#231F20;}
	.st31{fill:none;stroke:#0B4A99;stroke-width:1.3;stroke-miterlimit:10;}
</style>
<g>
	<g>
		<path class="st8" d="M12.8,27.8H0V10h7.6l5.2,5V27.8z M0.6,27.2h11.5V15.3l-4.8-4.7H0.6V27.2z"/>
	</g>
	<g>
		<path class="st8" d="M36,27.8H20.8V10h9l6.2,5V27.8z M21.4,27.2h14V15.3l-5.8-4.7h-8.2V27.2z"/>
	</g>
	<g>
		<path class="st8" d="M11.1,15.2H8.5c-0.9,0-1.6-0.7-1.6-1.6v-2.3h0.6v2.3c0,0.5,0.4,1,1,1h2.7V15.2z"/>
	</g>
	<g>
		<path class="st8" d="M34.2,15.8H31c-1,0-1.8-0.8-1.8-1.8v-2.7h0.6V14c0,0.6,0.5,1.2,1.2,1.2h3.2V15.8z"/>
	</g>
	<g>
		<g>
			<path class="st8" d="M13.8,14c-2.3-5.8-6.4-5.1-6.6-5.1L7.1,8.3c0,0,1.2-0.2,2.7,0.4c1.4,0.5,3.3,1.9,4.5,5.1L13.8,14z"/>
		</g>
		<g>
			<g>
				<polygon class="st8" points="13.1,13.9 14.5,15.1 14.9,13.3 				"/>
			</g>
		</g>
	</g>
	<g>
		<rect x="1.4" y="16.6" class="st8" width="2.4" height="0.6"/>
	</g>
	<g>
		<g>
			<rect x="22.9" y="16.6" class="st8" width="0.6" height="2.4"/>
		</g>
		<g>
			<rect x="22.9" y="20.2" class="st8" width="0.6" height="2.4"/>
		</g>
		<g>
			<rect x="22.9" y="23.9" class="st8" width="0.6" height="2.4"/>
		</g>
	</g>
	<g>
		<g>
			<rect x="24.4" y="16.6" class="st8" width="0.6" height="2.4"/>
		</g>
		<g>
			<rect x="24.4" y="20.2" class="st8" width="0.6" height="2.4"/>
		</g>
		<g>
			<rect x="24.4" y="23.9" class="st8" width="0.6" height="2.4"/>
		</g>
	</g>
	<g>
		<g>
			<rect x="25.9" y="16.6" class="st8" width="0.6" height="2.4"/>
		</g>
		<g>
			<rect x="25.9" y="20.2" class="st8" width="0.6" height="2.4"/>
		</g>
		<g>
			<rect x="25.9" y="23.9" class="st8" width="0.6" height="2.4"/>
		</g>
	</g>
	<g>
		<g>
			<rect x="27.4" y="16.6" class="st8" width="0.6" height="2.4"/>
		</g>
		<g>
			<rect x="27.4" y="20.2" class="st8" width="0.6" height="2.4"/>
		</g>
		<g>
			<rect x="27.4" y="23.9" class="st8" width="0.6" height="2.4"/>
		</g>
	</g>
	<g>
		<g>
			<rect x="28.8" y="16.6" class="st8" width="0.6" height="2.4"/>
		</g>
		<g>
			<rect x="28.8" y="20.2" class="st8" width="0.6" height="2.4"/>
		</g>
		<g>
			<rect x="28.8" y="23.9" class="st8" width="0.6" height="2.4"/>
		</g>
	</g>
	<g>
		<g>
			<rect x="30.3" y="16.6" class="st8" width="0.6" height="2.4"/>
		</g>
		<g>
			<rect x="30.3" y="20.2" class="st8" width="0.6" height="2.4"/>
		</g>
		<g>
			<rect x="30.3" y="23.9" class="st8" width="0.6" height="2.4"/>
		</g>
	</g>
	<g>
		<g>
			<rect x="31.8" y="16.6" class="st8" width="0.6" height="2.4"/>
		</g>
		<g>
			<rect x="31.8" y="20.2" class="st8" width="0.6" height="2.4"/>
		</g>
		<g>
			<rect x="31.8" y="23.9" class="st8" width="0.6" height="2.4"/>
		</g>
	</g>
	<g>
		<rect x="1.4" y="18.5" class="st8" width="2.4" height="0.6"/>
	</g>
	<g>
		<rect x="1.4" y="20.4" class="st8" width="2.4" height="0.6"/>
	</g>
	<g>
		<rect x="1.4" y="22.2" class="st8" width="2.4" height="0.6"/>
	</g>
	<g>
		<rect x="1.4" y="24.1" class="st8" width="2.4" height="0.6"/>
	</g>
	<g>
		<rect x="1.4" y="26" class="st8" width="2.4" height="0.6"/>
	</g>
	<g>
		<rect x="5.1" y="16.6" class="st8" width="2.4" height="0.6"/>
	</g>
	<g>
		<rect x="5.1" y="18.5" class="st8" width="2.4" height="0.6"/>
	</g>
	<g>
		<rect x="5.1" y="20.4" class="st8" width="2.4" height="0.6"/>
	</g>
	<g>
		<rect x="5.1" y="22.2" class="st8" width="2.4" height="0.6"/>
	</g>
	<g>
		<rect x="5.1" y="24.1" class="st8" width="2.4" height="0.6"/>
	</g>
	<g>
		<rect x="5.1" y="26" class="st8" width="2.4" height="0.6"/>
	</g>
	<g>
		<rect x="8.8" y="16.6" class="st8" width="2.4" height="0.6"/>
	</g>
	<g>
		<rect x="8.8" y="18.5" class="st8" width="2.4" height="0.6"/>
	</g>
	<g>
		<rect x="8.8" y="20.4" class="st8" width="2.4" height="0.6"/>
	</g>
	<g>
		<rect x="8.8" y="22.2" class="st8" width="2.4" height="0.6"/>
	</g>
	<g>
		<rect x="8.8" y="24.1" class="st8" width="2.4" height="0.6"/>
	</g>
	<g>
		<rect x="8.8" y="26" class="st8" width="2.4" height="0.6"/>
	</g>
	<g>
		<g>
			<rect x="13.6" y="19.9" class="st8" width="5.3" height="0.6"/>
		</g>
		<g>
			<g>
				<polygon class="st8" points="18.7,21.2 20.3,20.2 18.7,19.3 				"/>
			</g>
		</g>
	</g>
</g>
</svg>
