<?xml version="1.0" encoding="utf-8"?>
<!-- Generator: Adobe Illustrator 25.0.0, SVG Export Plug-In . SVG Version: 6.00 Build 0)  -->
<svg version="1.1" id="Layer_1" xmlns="http://www.w3.org/2000/svg" xmlns:xlink="http://www.w3.org/1999/xlink" x="0px" y="0px"
	 viewBox="0 0 36 36" style="enable-background:new 0 0 36 36;" xml:space="preserve">
<style type="text/css">
	.st0{fill:#CB1618;}
	.st1{fill:#185ABD;}
	.st2{fill:#D83039;}
	.st3{fill:#103F91;}
	.st4{fill:#185C37;}
	.st5{fill:#33C481;}
	.st6{fill:#107C41;}
	.st7{fill:#21A366;}
	.st8{fill:#0B4A99;}
	.st9{fill:none;}
	.st10{fill:#FFFFFF;}
	.st11{fill:#41A5EE;}
	.st12{fill:#2B7CD3;}
	.st13{opacity:0.5;enable-background:new    ;}
	.st14{fill:url(#SVGID_1_);}
	.st15{fill:url(#SVGID_2_);}
	.st16{fill:url(#SVGID_3_);}
	.st17{fill:url(#SVGID_4_);}
	.st18{fill:#E24951;}
	.st19{fill-rule:evenodd;clip-rule:evenodd;}
	.st20{fill:#262625;}
	.st21{fill:none;stroke:#000000;stroke-width:0.75;stroke-miterlimit:10;}
	.st22{fill:none;stroke:#000000;stroke-width:1.2;stroke-miterlimit:10;}
	.st23{fill-rule:evenodd;clip-rule:evenodd;fill:#0B4A99;}
</style>
<g>
	<path class="st8" d="M27.5,6.3c-1.1,0-1.9,0.9-1.9,1.9v1.8c0,0.5-0.4,0.9-0.9,0.9h-4V12h4c1.1,0,1.9-0.9,1.9-1.9V8.3
		c0-0.5,0.4-0.9,0.9-0.9h3V6.3H27.5z"/>
	<g>
		<path class="st8" d="M32.9,9.7c-1.7,0-3-1.4-3-3s1.4-3,3-3c1.7,0,3,1.4,3,3S34.6,9.7,32.9,9.7z M32.9,4.6c-1.1,0-2.1,0.9-2.1,2.1
			c0,1.1,0.9,2.1,2.1,2.1S35,7.8,35,6.7C35,5.5,34.1,4.6,32.9,4.6z"/>
	</g>
</g>
<g>
	<rect x="20.5" y="18.6" class="st8" width="10.1" height="1.1"/>
	<g>
		<path class="st8" d="M33,22.2c-1.7,0-3-1.4-3-3s1.4-3,3-3s3,1.4,3,3S34.6,22.2,33,22.2z M33,17.1c-1.1,0-2.1,0.9-2.1,2.1
			c0,1.1,0.9,2.1,2.1,2.1c1.1,0,2.1-0.9,2.1-2.1C35,18,34.1,17.1,33,17.1z"/>
	</g>
</g>
<g>
	<path class="st8" d="M25.7,30.1v-1.8c0-1.1-0.9-1.9-1.9-1.9h-3v1.1h3c0.5,0,0.9,0.4,0.9,0.9v1.8c0,1.1,0.9,1.9,1.9,1.9h4v-1.1h-4
		C26.1,30.9,25.7,30.5,25.7,30.1z"/>
	<path class="st8" d="M34.6,28.7c1.5,0.7,2.2,2.5,1.4,4c-0.7,1.5-2.5,2.2-4,1.4s-2.2-2.5-1.4-4C31.2,28.7,33,28,34.6,28.7z
		 M32.4,33.4c1,0.5,2.3,0.1,2.8-1c0.5-1,0.1-2.3-1-2.8s-2.3-0.1-2.8,1C30.9,31.6,31.3,32.9,32.4,33.4z"/>
</g>
<g>
	<g>
		<path class="st8" d="M10.5,11C5.3,11,0,9.5,0,6.5C0,3.6,5.3,2,10.5,2s10.5,1.5,10.5,4.5C20.9,9.5,15.6,11,10.5,11z M10.5,3.3
			C5,3.3,1.3,5,1.3,6.5c0,1.6,3.7,3.2,9.2,3.2s9.2-1.7,9.2-3.2C19.6,5,16,3.3,10.5,3.3z"/>
	</g>
	<g>
		<path class="st8" d="M10.7,18C5,18,0.6,16.4,0,13.9l1.2-0.3c0.3,1.5,4.1,3.1,9.5,3.1V18z"/>
	</g>
	<g>
		<path class="st8" d="M10.2,18v-1.3c5.4,0,9.2-1.6,9.5-3.1l1.2,0.3C20.4,16.4,15.9,18,10.2,18z"/>
	</g>
	<g>
		<path class="st8" d="M10.7,26C5,26,0.6,24.3,0,21.9l1.2-0.3c0.3,1.5,4.1,3.1,9.5,3.1V26z"/>
	</g>
	<g>
		<path class="st8" d="M10.2,26v-1.3c5.4,0,9.2-1.6,9.5-3.1l1.2,0.3C20.4,24.3,15.9,26,10.2,26z"/>
	</g>
	<g>
		<rect x="0" y="6.7" class="st8" width="1.3" height="9.3"/>
	</g>
	<g>
		<rect x="19.6" y="7" class="st8" width="1.3" height="9"/>
	</g>
	<g>
		<rect x="0" y="15" class="st8" width="1.3" height="10.9"/>
	</g>
	<g>
		<rect x="19.6" y="15.9" class="st8" width="1.3" height="9.9"/>
	</g>
	<g>
		<path class="st8" d="M10.7,33.5C5,33.5,0.6,31.9,0,29.4l1.2-0.3c0.3,1.5,4.1,3.1,9.5,3.1V33.5z"/>
	</g>
	<g>
		<path class="st8" d="M10.2,33.5v-1.3c5.4,0,9.2-1.6,9.5-3.1l1.2,0.3C20.4,31.9,15.9,33.5,10.2,33.5z"/>
	</g>
	<g>
		<rect x="0" y="24.5" class="st8" width="1.3" height="5.2"/>
	</g>
	<g>
		<rect x="19.6" y="24.9" class="st8" width="1.3" height="4.7"/>
	</g>
</g>
</svg>
