<?xml version="1.0" encoding="utf-8"?>
<!-- Generator: Adobe Illustrator 25.0.0, SVG Export Plug-In . SVG Version: 6.00 Build 0)  -->
<svg version="1.1" id="Layer_1" xmlns="http://www.w3.org/2000/svg" xmlns:xlink="http://www.w3.org/1999/xlink" x="0px" y="0px"
	 viewBox="0 0 36 36" style="enable-background:new 0 0 36 36;" xml:space="preserve">
<style type="text/css">
	.st0{fill:#CB1618;}
	.st1{fill:#185ABD;}
	.st2{fill:#D83039;}
	.st3{fill:#103F91;}
	.st4{fill:#185C37;}
	.st5{fill:#33C481;}
	.st6{fill:#107C41;}
	.st7{fill:#21A366;}
	.st8{fill:#0B4A99;}
	.st9{fill:none;}
	.st10{fill:#FFFFFF;}
	.st11{fill:#41A5EE;}
	.st12{fill:#2B7CD3;}
	.st13{opacity:0.5;enable-background:new    ;}
	.st14{fill:url(#SVGID_1_);}
	.st15{fill:url(#SVGID_2_);}
	.st16{fill:url(#SVGID_3_);}
	.st17{fill:url(#SVGID_4_);}
	.st18{fill:#E24951;}
	.st19{fill-rule:evenodd;clip-rule:evenodd;}
	.st20{fill:#262625;}
	.st21{fill:none;stroke:#000000;stroke-width:0.75;stroke-miterlimit:10;}
	.st22{fill:none;stroke:#000000;stroke-width:1.2;stroke-miterlimit:10;}
	.st23{fill-rule:evenodd;clip-rule:evenodd;fill:#0B4A99;}
</style>
<g>
	<g>
		<path class="st8" d="M16.8,32.8h-4c-0.6,0-1.2-0.5-1.2-1.2v-2.3c-0.9-0.3-1.8-0.6-2.6-1.1l-1.7,1.6c-0.4,0.4-1.2,0.5-1.6,0
			l-2.8-2.8c-0.5-0.5-0.5-1.2,0-1.6l1.6-1.6c-0.4-0.9-0.8-1.7-1-2.6l-2.4,0C0.5,21.2,0,20.6,0,20v-4c0-0.6,0.5-1.2,1.2-1.2h2.3
			c0.3-0.9,0.6-1.8,1.1-2.6l-1.6-1.7c-0.5-0.5-0.5-1.2,0-1.6l2.8-2.8C6,5.9,6.3,5.8,6.6,5.8c0,0,0,0,0,0c0.3,0,0.6,0.1,0.8,0.3
			L9,7.7c0.9-0.4,1.7-0.8,2.6-1l0-2.4c0-0.6,0.5-1.2,1.2-1.2h4c0.6,0,1.2,0.5,1.2,1.2v2.3c0.9,0.3,1.8,0.6,2.6,1.1l-0.5,1
			c-0.7-0.4-1.5-0.7-2.3-0.9c-0.5-0.1-0.9-0.6-0.9-1.1V4.3l-4.1,0l0,2.4c0,0.5-0.3,1-0.9,1.1C11.1,8,10.4,8.3,9.6,8.7
			C9.2,9,8.6,8.9,8.2,8.5L6.6,6.9L3.7,9.7l1.6,1.7c0.4,0.4,0.4,0.9,0.2,1.4c-0.4,0.7-0.7,1.5-0.9,2.3c-0.1,0.5-0.6,0.9-1.1,0.9H1.2
			l0,4.1l2.4,0c0.5,0,1,0.3,1.1,0.9c0.2,0.8,0.5,1.6,0.9,2.3c0.3,0.5,0.2,1-0.2,1.4l-1.6,1.6l2.8,2.9l1.7-1.6
			c0.4-0.4,0.9-0.4,1.4-0.2c0.7,0.4,1.5,0.7,2.3,0.9c0.5,0.1,0.9,0.6,0.9,1.1v2.3l4.1,0l0-2.4c0-0.5,0.4-1,0.9-1.1
			c0.8-0.2,1.6-0.5,2.3-0.9l0.5,1c-0.8,0.4-1.6,0.8-2.5,1l0,2.4C18,32.3,17.5,32.8,16.8,32.8z M14.8,24.4c-3.5,0-6.4-2.9-6.4-6.4
			s2.9-6.4,6.4-6.4s6.4,2.9,6.4,6.4S18.3,24.4,14.8,24.4z M14.8,12.7c-2.9,0-5.3,2.4-5.3,5.3s2.4,5.3,5.3,5.3s5.3-2.4,5.3-5.3
			S17.7,12.7,14.8,12.7z"/>
	</g>
	<g>
		<polygon class="st8" points="18.5,13.8 17.9,12.9 25.5,8 30.8,8 30.8,9.1 25.8,9.1 		"/>
	</g>
	<g>
		<polygon class="st8" points="30.8,28.2 25.5,28.2 17.9,23.3 18.5,22.4 25.8,27.1 30.8,27.1 		"/>
	</g>
	<g>
		<rect x="21.1" y="17.4" class="st8" width="9.7" height="1.1"/>
	</g>
	<g>
		<path class="st8" d="M33.1,11.2c-1.6,0-2.9-1.3-2.9-2.9s1.3-2.9,2.9-2.9c1.6,0,2.9,1.3,2.9,2.9S34.7,11.2,33.1,11.2z M33.1,6.6
			c-1,0-1.7,0.8-1.7,1.7s0.8,1.7,1.7,1.7s1.7-0.8,1.7-1.7S34.1,6.6,33.1,6.6z"/>
	</g>
	<g>
		<path class="st8" d="M33.1,20.8c-1.6,0-2.9-1.3-2.9-2.9s1.3-2.9,2.9-2.9c1.6,0,2.9,1.3,2.9,2.9S34.7,20.8,33.1,20.8z M33.1,16.2
			c-1,0-1.7,0.8-1.7,1.7c0,1,0.8,1.7,1.7,1.7s1.7-0.8,1.7-1.7C34.9,17,34.1,16.2,33.1,16.2z"/>
	</g>
	<g>
		<path class="st8" d="M33.1,30.4c-1.6,0-2.9-1.3-2.9-2.9s1.3-2.9,2.9-2.9c1.6,0,2.9,1.3,2.9,2.9S34.7,30.4,33.1,30.4z M33.1,25.8
			c-1,0-1.7,0.8-1.7,1.7c0,1,0.8,1.7,1.7,1.7s1.7-0.8,1.7-1.7C34.9,26.6,34.1,25.8,33.1,25.8z"/>
	</g>
</g>
</svg>
