<?xml version="1.0" encoding="utf-8"?>
<!-- Generator: Adobe Illustrator 25.0.0, SVG Export Plug-In . SVG Version: 6.00 Build 0)  -->
<svg version="1.1" id="Layer_1" xmlns="http://www.w3.org/2000/svg" xmlns:xlink="http://www.w3.org/1999/xlink" x="0px" y="0px"
	 viewBox="0 0 36 36" style="enable-background:new 0 0 36 36;" xml:space="preserve">
<style type="text/css">
	.st0{fill:#890C0C;}
	.st1{fill:#DB4949;}
	.st2{fill:#5B0404;}
	.st3{fill:#6D0505;}
	.st4{fill:#C12323;}
	.st5{fill:#9E1010;}
	.st6{fill:#0B4A99;}
</style>
<g>
	<g>
		<path class="st6" d="M18,10.3c-5.9,0-11.9-1.8-11.9-5.1C6.1,1.8,12.1,0,18,0s11.9,1.8,11.9,5.1C29.9,8.5,23.9,10.3,18,10.3z
			 M18,1.5c-6.3,0-10.5,1.9-10.5,3.7c0,1.8,4.2,3.7,10.5,3.7s10.5-1.9,10.5-3.7C28.5,3.4,24.3,1.5,18,1.5z"/>
	</g>
	<g>
		<path class="st6" d="M18.3,18.3c-6.6,0-11.7-1.9-12.3-4.7l1.4-0.3c0.4,1.7,4.6,3.5,10.8,3.5V18.3z"/>
	</g>
	<g>
		<path class="st6" d="M17.7,18.3v-1.5c6.2,0,10.5-1.8,10.8-3.5l1.4,0.3C29.3,16.4,24.3,18.3,17.7,18.3z"/>
	</g>
	<g>
		<path class="st6" d="M18.3,27.3c-6.6,0-11.7-1.9-12.3-4.7l1.4-0.3c0.4,1.7,4.6,3.5,10.8,3.5V27.3z"/>
	</g>
	<g>
		<path class="st6" d="M17.7,27.3v-1.5c6.2,0,10.5-1.8,10.8-3.5l1.4,0.3C29.3,25.4,24.3,27.3,17.7,27.3z"/>
	</g>
	<g>
		<rect x="6.1" y="5.3" class="st6" width="1.4" height="10.6"/>
	</g>
	<g>
		<rect x="28.5" y="5.6" class="st6" width="1.4" height="10.2"/>
	</g>
	<g>
		<rect x="6.1" y="14.8" class="st6" width="1.4" height="12.5"/>
	</g>
	<g>
		<rect x="28.5" y="15.8" class="st6" width="1.4" height="11.3"/>
	</g>
	<g>
		<path class="st6" d="M18.3,36c-6.6,0-11.7-1.9-12.3-4.7L7.5,31c0.4,1.7,4.6,3.5,10.8,3.5V36z"/>
	</g>
	<g>
		<path class="st6" d="M17.7,36v-1.5c6.2,0,10.5-1.8,10.8-3.5l1.4,0.3C29.3,34.1,24.3,36,17.7,36z"/>
	</g>
	<g>
		<rect x="6.1" y="25.7" class="st6" width="1.4" height="6"/>
	</g>
	<g>
		<rect x="28.5" y="26.2" class="st6" width="1.4" height="5.4"/>
	</g>
</g>
</svg>
