<?xml version="1.0" encoding="utf-8"?>
<!-- Generator: Adobe Illustrator 25.0.0, SVG Export Plug-In . SVG Version: 6.00 Build 0)  -->
<svg version="1.1" id="Layer_1" xmlns="http://www.w3.org/2000/svg" xmlns:xlink="http://www.w3.org/1999/xlink" x="0px" y="0px"
	 viewBox="0 0 18 18" style="enable-background:new 0 0 18 18;" xml:space="preserve">
<style type="text/css">
	.st0{fill:#0B4A99;}
	.st1{fill:none;stroke:#0B4A99;stroke-width:0.75;stroke-linecap:round;stroke-miterlimit:10;}
</style>
<g>
	<path class="st0" d="M18,14.1c0,0.2-0.2,0.4-0.4,0.4H0.4c-0.2,0-0.4-0.2-0.4-0.4c0-0.2,0.2-0.4,0.4-0.4h17.3
		C17.8,13.7,18,13.9,18,14.1z"/>
	<path class="st0" d="M16,11.3c0,0.2-0.2,0.4-0.4,0.4H2.4c-0.2,0-0.4-0.2-0.4-0.4c0-0.2,0.2-0.4,0.4-0.4h13.2
		C15.8,10.9,16,11.1,16,11.3z"/>
	<path class="st0" d="M13.9,8.4c0,0.2-0.2,0.4-0.4,0.4H4.4c-0.2,0-0.4-0.2-0.4-0.4c0-0.2,0.2-0.4,0.4-0.4h9.1
		C13.8,8.1,13.9,8.2,13.9,8.4z"/>
	<path class="st0" d="M11.9,5.4c0,0.2-0.2,0.4-0.4,0.4H6.5c-0.2,0-0.4-0.2-0.4-0.4C6.1,5.2,6.3,5,6.5,5h5.1
		C11.7,5,11.9,5.2,11.9,5.4z"/>
</g>
</svg>
