<?xml version="1.0" encoding="utf-8"?>
<!-- Generator: Adobe Illustrator 25.0.0, SVG Export Plug-In . SVG Version: 6.00 Build 0)  -->
<svg version="1.1" id="Layer_1" xmlns="http://www.w3.org/2000/svg" xmlns:xlink="http://www.w3.org/1999/xlink" x="0px" y="0px"
	 viewBox="0 0 36 36" style="enable-background:new 0 0 36 36;" xml:space="preserve">
<style type="text/css">
	.st0{fill:#CB1618;}
	.st1{fill:#185ABD;}
	.st2{fill:#D83039;}
	.st3{fill:#103F91;}
	.st4{fill:#185C37;}
	.st5{fill:#33C481;}
	.st6{fill:#107C41;}
	.st7{fill:#21A366;}
	.st8{fill:#0B4A99;}
	.st9{fill:none;}
	.st10{fill:#FFFFFF;}
	.st11{fill:#41A5EE;}
	.st12{fill:#2B7CD3;}
	.st13{opacity:0.5;enable-background:new    ;}
	.st14{fill:url(#SVGID_1_);}
	.st15{fill:url(#SVGID_2_);}
	.st16{fill:url(#SVGID_3_);}
	.st17{fill:url(#SVGID_4_);}
	.st18{fill:#E24951;}
	.st19{fill-rule:evenodd;clip-rule:evenodd;}
	.st20{fill:#262625;}
	.st21{fill:none;stroke:#000000;stroke-width:0.75;stroke-miterlimit:10;}
	.st22{fill:none;stroke:#000000;stroke-width:1.2;stroke-miterlimit:10;}
	.st23{fill-rule:evenodd;clip-rule:evenodd;fill:#0B4A99;}
	.st24{fill:none;stroke:#0071C5;stroke-width:1.3;stroke-linecap:round;stroke-miterlimit:10;}
	.st25{fill:none;stroke:#F0AB00;stroke-width:1.3;stroke-miterlimit:10;}
	.st26{fill:#1C55A6;}
	.st27{fill:none;stroke:#1C55A6;stroke-width:1.3;stroke-linecap:round;}
	.st28{fill-rule:evenodd;clip-rule:evenodd;fill:none;stroke:#1C55A6;stroke-width:1.3;stroke-linecap:round;}
	.st29{fill:none;stroke:#1C55A6;stroke-width:1.3;stroke-linecap:round;stroke-miterlimit:10;}
	.st30{fill:none;stroke:#231F20;}
	.st31{fill:none;stroke:#0B4A99;stroke-width:1.3;stroke-miterlimit:10;}
</style>
<g>
	<g>
		<path class="st8" d="M25.6,3.4H14.5V2.6c0-1.5,1.2-2.6,2.7-2.6h5.8c1.5,0,2.7,1.2,2.7,2.6V3.4z M15.5,2.4h9.1
			C24.4,1.6,23.8,1,22.9,1h-5.8C16.3,1,15.6,1.6,15.5,2.4z"/>
	</g>
	<g>
		<path class="st8" d="M35.9,9.7H4.3v-1c0-2.7,2.2-4.9,4.9-4.9H31c2.7,0,4.9,2.2,4.9,4.9V9.7z M5.3,8.7l29.6,0
			c0-2.2-1.8-3.9-3.9-3.9H9.3C7.1,4.8,5.3,6.5,5.3,8.7L5.3,8.7z"/>
	</g>
	<g>
		<path class="st8" d="M28.8,36H11.2c-2.5,0-4.5-2-4.5-4.5h1c0,1.9,1.6,3.5,3.5,3.5h17.7c1.9,0,3.5-1.6,3.5-3.5V11.1H7.6v14.4h-1
			V10.1h26.7v21.3C33.4,34,31.3,36,28.8,36z"/>
	</g>
	<g>
		<path class="st8" d="M12.5,25c-0.3,0-0.5-0.2-0.5-0.5V14.4c0-0.3,0.2-0.5,0.5-0.5s0.5,0.2,0.5,0.5v10.1C13,24.8,12.8,25,12.5,25z"
			/>
	</g>
	<g>
		<path class="st8" d="M3.6,32.1c-0.1,0-0.3,0-0.4-0.1l-3.2-3.3l3.2-3.3c0.2-0.2,0.5-0.2,0.7,0c0.2,0.2,0.2,0.5,0,0.7l-2.5,2.6
			L4,31.3c0.2,0.2,0.2,0.5,0,0.7C3.9,32.1,3.7,32.1,3.6,32.1z"/>
	</g>
	<g>
		<path class="st8" d="M27.6,32.2c-0.3,0-0.5-0.2-0.5-0.5V14.4c0-0.3,0.2-0.5,0.5-0.5s0.5,0.2,0.5,0.5v17.2
			C28.1,32,27.9,32.2,27.6,32.2z"/>
	</g>
	<g>
		<path class="st8" d="M20.1,32.2c-0.3,0-0.5-0.2-0.5-0.5v-2.4c0-0.3,0.2-0.5,0.5-0.5s0.5,0.2,0.5,0.5v2.4
			C20.6,32,20.4,32.2,20.1,32.2z"/>
	</g>
	<g>
		<path class="st8" d="M12.7,29.2h-12v-1h12c3.8,0,6.9-3.1,6.9-7v-4.6h1v4.6C20.6,25.6,17.1,29.2,12.7,29.2z"/>
	</g>
</g>
</svg>
