<?xml version="1.0" encoding="utf-8"?>
<!-- Generator: Adobe Illustrator 25.0.0, SVG Export Plug-In . SVG Version: 6.00 Build 0)  -->
<svg version="1.1" id="Layer_1" xmlns="http://www.w3.org/2000/svg" xmlns:xlink="http://www.w3.org/1999/xlink" x="0px" y="0px"
	 viewBox="0 0 36 36" style="enable-background:new 0 0 36 36;" xml:space="preserve">
<style type="text/css">
	.st0{fill:#CB1618;}
	.st1{fill:#185ABD;}
	.st2{fill:#D83039;}
	.st3{fill:#103F91;}
	.st4{fill:#185C37;}
	.st5{fill:#33C481;}
	.st6{fill:#107C41;}
	.st7{fill:#21A366;}
	.st8{fill:#0B4A99;}
	.st9{fill:none;}
	.st10{fill:#FFFFFF;}
	.st11{fill:#41A5EE;}
	.st12{fill:#2B7CD3;}
	.st13{opacity:0.5;enable-background:new    ;}
	.st14{fill:url(#SVGID_1_);}
	.st15{fill:url(#SVGID_2_);}
	.st16{fill:url(#SVGID_3_);}
	.st17{fill:url(#SVGID_4_);}
	.st18{fill:#E24951;}
	.st19{fill-rule:evenodd;clip-rule:evenodd;}
	.st20{fill:#262625;}
	.st21{fill:none;stroke:#000000;stroke-width:0.75;stroke-miterlimit:10;}
	.st22{fill:none;stroke:#000000;stroke-width:1.2;stroke-miterlimit:10;}
	.st23{fill-rule:evenodd;clip-rule:evenodd;fill:#0B4A99;}
	.st24{fill:none;stroke:#231F20;}
	.st25{fill:none;stroke:#0071C5;stroke-width:1.3;stroke-linecap:round;stroke-miterlimit:10;}
	.st26{fill:none;stroke:#F0AB00;stroke-width:1.3;stroke-miterlimit:10;}
	.st27{fill:#1C55A6;}
	.st28{fill:none;stroke:#1C55A6;stroke-width:1.3;stroke-linecap:round;}
	.st29{fill-rule:evenodd;clip-rule:evenodd;fill:none;stroke:#1C55A6;stroke-width:1.3;stroke-linecap:round;}
	.st30{fill:none;stroke:#1C55A6;stroke-width:1.3;stroke-linecap:round;stroke-miterlimit:10;}
	.st31{fill-rule:evenodd;clip-rule:evenodd;fill:#213266;}
	.st32{fill-rule:evenodd;clip-rule:evenodd;fill:#EE3D23;}
	.st33{fill-rule:evenodd;clip-rule:evenodd;fill:#FFFFFF;}
</style>
<g>
	<g>
		<path class="st27" d="M7,27.4c-1.5,0-3-0.1-4.7-0.2c-0.4,0-0.6-0.3-0.6-0.7c0-0.4,0.3-0.6,0.7-0.6c14.2,0.9,20.2-2.4,22.8-5.3
			c2.9-3.2,2.3-6.7,2.2-6.8c-0.1-0.3,0.2-0.7,0.5-0.7c0.3-0.1,0.7,0.2,0.7,0.5c0,0.2,0.7,4.2-2.5,7.9C22.7,25.4,16.3,27.4,7,27.4z"
			/>
	</g>
	<g>
		<path class="st27" d="M7.4,32.2c-0.2,0-0.3-0.1-0.4-0.2l-5.5-5.4L7,21.2c0.3-0.2,0.7-0.2,0.9,0c0.2,0.3,0.2,0.7,0,0.9l-4.6,4.5
			l4.6,4.5c0.3,0.2,0.3,0.6,0,0.9C7.7,32.2,7.6,32.2,7.4,32.2z"/>
	</g>
	<g>
		<path class="st27" d="M32.7,8.1H8.4c-1.1,0-1.9-1.2-1.9-2.8s0.8-2.8,1.9-2.8H14C14.1,1.1,15.3,0,16.8,0h8c1.5,0,2.8,1.1,2.9,2.5h5
			c1.1,0,1.9,1.2,1.9,2.8S33.8,8.1,32.7,8.1z M8.4,3.8c-0.2,0-0.6,0.6-0.6,1.5c0,0.9,0.4,1.5,0.6,1.5h24.3c0.2,0,0.6-0.6,0.6-1.5
			c0-0.9-0.4-1.5-0.6-1.5h-6.3V2.7c0-0.8-0.7-1.4-1.6-1.4h-8c-0.9,0-1.6,0.6-1.6,1.4v1.1H8.4z"/>
	</g>
	<g>
		<path class="st27" d="M30.1,36H11.7c-1.6,0-2.9-1.2-2.9-2.7c0-0.4,0.3-0.6,0.6-0.6s0.6,0.3,0.6,0.6c0,0.8,0.7,1.5,1.6,1.5h18.4
			c0.9,0,1.6-0.7,1.6-1.5V10.8H10.1v7.1c0,0.4-0.3,0.6-0.6,0.6s-0.6-0.3-0.6-0.6V9.5H33v23.7C33,34.8,31.7,36,30.1,36z"/>
	</g>
	<g>
		<path class="st27" d="M15.7,32.4c-0.4,0-0.6-0.3-0.6-0.6v-3.8c0-0.4,0.3-0.6,0.6-0.6c0.4,0,0.6,0.3,0.6,0.6v3.8
			C16.4,32.1,16.1,32.4,15.7,32.4z"/>
	</g>
	<g>
		<path class="st27" d="M15.7,21.9c-0.4,0-0.6-0.3-0.6-0.6v-7.9c0-0.4,0.3-0.6,0.6-0.6c0.4,0,0.6,0.3,0.6,0.6v7.9
			C16.4,21.6,16.1,21.9,15.7,21.9z"/>
	</g>
	<g>
		<path class="st27" d="M20.8,32.4c-0.4,0-0.6-0.3-0.6-0.6v-4.5c0-0.4,0.3-0.6,0.6-0.6c0.4,0,0.6,0.3,0.6,0.6v4.5
			C21.5,32.1,21.2,32.4,20.8,32.4z"/>
	</g>
	<g>
		<path class="st27" d="M20.8,22.4c-0.4,0-0.6-0.3-0.6-0.6v-8.4c0-0.4,0.3-0.6,0.6-0.6c0.4,0,0.6,0.3,0.6,0.6v8.4
			C21.5,22.2,21.2,22.4,20.8,22.4z"/>
	</g>
	<g>
		<path class="st27" d="M25.4,32.4c-0.4,0-0.6-0.3-0.6-0.6v-7.2c0-0.4,0.3-0.6,0.6-0.6s0.6,0.3,0.6,0.6v7.2
			C26,32.1,25.8,32.4,25.4,32.4z"/>
	</g>
	<g>
		<path class="st27" d="M25.4,18.5c-0.4,0-0.6-0.3-0.6-0.6v-4.5c0-0.4,0.3-0.6,0.6-0.6S26,13,26,13.4v4.5
			C26,18.2,25.8,18.5,25.4,18.5z"/>
	</g>
</g>
</svg>
