<?xml version="1.0" encoding="utf-8"?>
<!-- Generator: Adobe Illustrator 25.0.0, SVG Export Plug-In . SVG Version: 6.00 Build 0)  -->
<svg version="1.1" id="Layer_1" xmlns="http://www.w3.org/2000/svg" xmlns:xlink="http://www.w3.org/1999/xlink" x="0px" y="0px"
	 viewBox="0 0 36 36" style="enable-background:new 0 0 36 36;" xml:space="preserve">
<style type="text/css">
	.st0{fill:#CB1618;}
	.st1{fill:#185ABD;}
	.st2{fill:#D83039;}
	.st3{fill:#103F91;}
	.st4{fill:#185C37;}
	.st5{fill:#33C481;}
	.st6{fill:#107C41;}
	.st7{fill:#21A366;}
	.st8{fill:#0B4A99;}
	.st9{fill:none;}
	.st10{fill:#FFFFFF;}
	.st11{fill:#41A5EE;}
	.st12{fill:#2B7CD3;}
	.st13{opacity:0.5;enable-background:new    ;}
	.st14{fill:url(#SVGID_1_);}
	.st15{fill:url(#SVGID_2_);}
	.st16{fill:url(#SVGID_3_);}
	.st17{fill:url(#SVGID_4_);}
	.st18{fill:#E24951;}
	.st19{fill-rule:evenodd;clip-rule:evenodd;}
	.st20{fill:#262625;}
	.st21{fill:none;stroke:#000000;stroke-width:0.75;stroke-miterlimit:10;}
	.st22{fill:none;stroke:#000000;stroke-width:1.2;stroke-miterlimit:10;}
	.st23{fill-rule:evenodd;clip-rule:evenodd;fill:#0B4A99;}
	.st24{fill:none;stroke:#231F20;}
	.st25{fill:none;stroke:#0071C5;stroke-width:1.3;stroke-linecap:round;stroke-miterlimit:10;}
	.st26{fill:none;stroke:#F0AB00;stroke-width:1.3;stroke-miterlimit:10;}
	.st27{fill:#1C55A6;}
	.st28{fill:none;stroke:#1C55A6;stroke-width:1.3;stroke-linecap:round;}
	.st29{fill-rule:evenodd;clip-rule:evenodd;fill:none;stroke:#1C55A6;stroke-width:1.3;stroke-linecap:round;}
	.st30{fill:none;stroke:#1C55A6;stroke-width:1.3;stroke-linecap:round;stroke-miterlimit:10;}
	.st31{fill-rule:evenodd;clip-rule:evenodd;fill:#213266;}
	.st32{fill-rule:evenodd;clip-rule:evenodd;fill:#EE3D23;}
	.st33{fill-rule:evenodd;clip-rule:evenodd;fill:#FFFFFF;}
</style>
<g>
	<g>
		<path class="st27" d="M4.8,18.4c-0.3,0-0.5-0.2-0.5-0.5v-5.7l9-9.3h11.1c2.6,0,4.7,2.1,4.7,4.6v9.6c0,0.3-0.2,0.5-0.5,0.5
			S28,17.3,28,17.1V7.4c0-1.9-1.6-3.5-3.6-3.5H13.7l-8.3,8.7v5.2C5.3,18.1,5.1,18.4,4.8,18.4z"/>
	</g>
	<g>
		<path class="st27" d="M15.1,12.8H6.9c-0.3,0-0.5-0.2-0.5-0.5s0.2-0.5,0.5-0.5H14V5c0-0.3,0.2-0.5,0.5-0.5c0.3,0,0.5,0.2,0.5,0.5
			V12.8z"/>
	</g>
	<g>
		<path class="st27" d="M24.4,33.2H9c-2.6,0-4.7-2.1-4.7-4.6v-2.4c0-0.3,0.2-0.5,0.5-0.5s0.5,0.2,0.5,0.5v2.4c0,1.9,1.6,3.5,3.6,3.5
			h15.4c2,0,3.6-1.6,3.6-3.5v-1.4c0-0.3,0.2-0.5,0.5-0.5s0.5,0.2,0.5,0.5v1.4C29.1,31.1,27,33.2,24.4,33.2z"/>
	</g>
	<g>
		<path class="st27" d="M0.5,27c-0.1,0-0.3-0.1-0.4-0.2c-0.2-0.2-0.2-0.5,0-0.8L9,17.3c0.2-0.2,0.5-0.2,0.8,0c0.2,0.2,0.2,0.5,0,0.8
			l-8.9,8.9C0.8,27,0.7,27,0.5,27z"/>
	</g>
	<g>
		<path class="st27" d="M9.4,27C9.3,27,9.1,27,9,26.9L0.2,18c-0.2-0.2-0.2-0.5,0-0.8c0.2-0.2,0.5-0.2,0.8,0l8.9,8.9
			c0.2,0.2,0.2,0.5,0,0.8C9.7,27,9.5,27,9.4,27z"/>
	</g>
	<g>
		<path class="st27" d="M21.4,30.3c-0.3,0-0.5-0.2-0.5-0.5c0-0.1-0.5-3.5,2-6.2c2.4-2.5,6.5-3.6,12.3-3.1c0.3,0,0.5,0.3,0.5,0.6
			c0,0.3-0.3,0.5-0.6,0.5c-5.4-0.4-9.3,0.5-11.4,2.8c-2.2,2.3-1.8,5.3-1.8,5.3C22,30,21.8,30.2,21.4,30.3
			C21.5,30.3,21.5,30.3,21.4,30.3z"/>
	</g>
	<g>
		<path class="st27" d="M31.8,24.9c-0.1,0-0.3-0.1-0.4-0.2c-0.2-0.2-0.2-0.5,0-0.8l3-3l-3-3c-0.2-0.2-0.2-0.5,0-0.8
			c0.2-0.2,0.5-0.2,0.8,0L36,21l-3.8,3.7C32.1,24.9,32,24.9,31.8,24.9z"/>
	</g>
</g>
</svg>
