<?xml version="1.0" encoding="utf-8"?>
<!-- Generator: Adobe Illustrator 25.0.0, SVG Export Plug-In . SVG Version: 6.00 Build 0)  -->
<svg version="1.1" id="Layer_1" xmlns="http://www.w3.org/2000/svg" xmlns:xlink="http://www.w3.org/1999/xlink" x="0px" y="0px"
	 viewBox="0 0 36 36" style="enable-background:new 0 0 36 36;" xml:space="preserve">
<style type="text/css">
	.st0{fill:#FFFFFF;}
</style>
<g>
	<g>
		<path class="st0" d="M18,30.4c-6.7,0-12.2-5.5-12.2-12.2c0-2.5,0.8-5,2.3-7l0.3-0.5l17.1,17.1L25,28.2
			C22.9,29.6,20.5,30.4,18,30.4z M8.5,12.3c-1.1,1.8-1.7,3.8-1.7,6c0,6.2,5,11.2,11.2,11.2c2.1,0,4.2-0.6,6-1.8L8.5,12.3z
			 M27.6,25.7L10.5,8.6L11,8.3C13,6.8,15.5,6,18,6c6.7,0,12.2,5.5,12.2,12.2c0,2.5-0.8,5-2.3,7.1L27.6,25.7z M12,8.8l15.4,15.5
			c1.1-1.8,1.8-3.9,1.8-6C29.2,12,24.2,7,18,7C15.9,7,13.8,7.6,12,8.8z"/>
	</g>
	<g>
		<path class="st0" d="M18,30.4c-6.7,0-12.2-5.5-12.2-12.2c0-2.5,0.8-5,2.3-7l0.3-0.5l17.1,17.1L25,28.1C23,29.6,20.5,30.4,18,30.4z
			 M8.5,12.2c-1.1,1.8-1.7,3.8-1.7,6c0,6.2,5,11.2,11.2,11.2c2.1,0,4.2-0.6,6-1.8L8.5,12.2z"/>
	</g>
	<g>
		<path class="st0" d="M27.6,25.7L10.5,8.6L11,8.3C13,6.8,15.4,6,18,6c6.7,0,12.2,5.4,12.2,12.1c0,2.5-0.8,5-2.3,7.1L27.6,25.7z
			 M12,8.8l15.4,15.4c1.1-1.8,1.8-3.9,1.8-6C29.2,12,24.2,7,18,7C15.8,7,13.8,7.6,12,8.8z"/>
	</g>
	<g>
		<path class="st0" d="M18,36C8.1,36,0,27.9,0,18S8.1,0,18,0s18,8.1,18,18S27.9,36,18,36z M18,1C8.6,1,1,8.6,1,18s7.6,17,17,17
			s17-7.6,17-17S27.4,1,18,1z"/>
	</g>
</g>
</svg>
