<?xml version="1.0" encoding="utf-8"?>
<!-- Generator: Adobe Illustrator 25.0.0, SVG Export Plug-In . SVG Version: 6.00 Build 0)  -->
<svg version="1.1" id="Layer_1" xmlns="http://www.w3.org/2000/svg" xmlns:xlink="http://www.w3.org/1999/xlink" x="0px" y="0px"
	 viewBox="0 0 18 18" style="enable-background:new 0 0 18 18;" xml:space="preserve">
<style type="text/css">
	.st0{fill:#FFFFFF;}
</style>
<path class="st0" d="M14.7,5.5H3.3c-0.4,0-0.7-0.3-0.7-0.7V3.5c0-0.4,0.3-0.7,0.7-0.7h11.4c0.4,0,0.7,0.3,0.7,0.7v1.3
	C15.4,5.2,15.1,5.5,14.7,5.5z M3.3,3.4C3.2,3.4,3.2,3.4,3.3,3.4L3.2,4.8c0,0,0,0.1,0.1,0.1h11.4c0,0,0.1,0,0.1-0.1V3.5
	c0,0,0-0.1-0.1-0.1H3.3z"/>
<path class="st0" d="M13.4,17.2H4.6c-0.6,0-1.1-0.5-1.1-1.1V4.9h10.9v11.2C14.5,16.7,14,17.2,13.4,17.2z M4.2,5.5V16
	c0,0.2,0.2,0.4,0.4,0.4h8.7c0.2,0,0.4-0.2,0.4-0.4V5.5H4.2z"/>
<path class="st0" d="M12,3.3H6V1.5c0-0.4,0.3-0.7,0.7-0.7h4.7c0.4,0,0.7,0.3,0.7,0.7L12,3.3L12,3.3z M6.6,2.7h4.7V1.5H6.6L6.6,2.7z"
	/>
<path class="st0" d="M6.3,14.5c-0.2,0-0.3-0.1-0.3-0.3V7.9c0-0.2,0.1-0.3,0.3-0.3s0.3,0.1,0.3,0.3v6.3C6.6,14.4,6.5,14.5,6.3,14.5z"
	/>
<path class="st0" d="M9,14.5c-0.2,0-0.3-0.1-0.3-0.3V7.9c0-0.2,0.1-0.3,0.3-0.3s0.3,0.1,0.3,0.3v6.3C9.3,14.4,9.2,14.5,9,14.5z"/>
<path class="st0" d="M11.7,14.5c-0.2,0-0.3-0.1-0.3-0.3V7.9c0-0.2,0.1-0.3,0.3-0.3S12,7.7,12,7.9v6.3C12,14.4,11.8,14.5,11.7,14.5z"
	/>
</svg>
