<?xml version="1.0" encoding="utf-8"?>
<!-- Generator: Adobe Illustrator 25.0.0, SVG Export Plug-In . SVG Version: 6.00 Build 0)  -->
<svg version="1.1" id="Layer_1" xmlns="http://www.w3.org/2000/svg" xmlns:xlink="http://www.w3.org/1999/xlink" x="0px" y="0px"
	 viewBox="0 0 36 36" style="enable-background:new 0 0 36 36;" xml:space="preserve">
<style type="text/css">
	.st0{fill:#CB1618;}
	.st1{fill:#185ABD;}
	.st2{fill:#D83039;}
	.st3{fill:#103F91;}
	.st4{fill:#185C37;}
	.st5{fill:#33C481;}
	.st6{fill:#107C41;}
	.st7{fill:#21A366;}
	.st8{fill:#0B4A99;}
	.st9{fill:none;}
	.st10{fill:#FFFFFF;}
	.st11{fill:#41A5EE;}
	.st12{fill:#2B7CD3;}
	.st13{opacity:0.5;enable-background:new    ;}
	.st14{fill:url(#SVGID_1_);}
	.st15{fill:url(#SVGID_2_);}
	.st16{fill:url(#SVGID_3_);}
	.st17{fill:url(#SVGID_4_);}
	.st18{fill:#E24951;}
	.st19{fill-rule:evenodd;clip-rule:evenodd;}
	.st20{fill:#262625;}
	.st21{fill:none;stroke:#000000;stroke-width:0.75;stroke-miterlimit:10;}
	.st22{fill:none;stroke:#000000;stroke-width:1.2;stroke-miterlimit:10;}
	.st23{fill-rule:evenodd;clip-rule:evenodd;fill:#0B4A99;}
</style>
<g>
	<g>
		<g>
			<path class="st8" d="M9.8,36c-0.5,0-1.1-0.2-1.5-0.6c-0.5-0.4-0.7-1-0.7-1.6L6.4,8.5h23.4l-1.2,25.3c0,1.2-1.1,2.2-2.3,2.2H10
				C9.9,36,9.9,36,9.8,36z M7.6,9.7l1.1,24.1c0,0.3,0.1,0.6,0.4,0.8c0.2,0.2,0.5,0.3,0.8,0.3l16.3,0c0.6,0,1.2-0.5,1.2-1.1l1.1-24.1
				H7.6z"/>
		</g>
		<g>
			<path class="st8" d="M29.8,3l-7.9,0V1.2h-7.5V3H6.2V1.8h7V1c0-0.5,0.5-1,1-1h7.9c0.5,0,1,0.5,1,1v0.9l6.7,0L29.8,3z"/>
		</g>
	</g>
	<g>
		
			<rect x="12" y="14.4" transform="matrix(0.9981 -6.153648e-02 6.153648e-02 0.9981 -1.3465 0.8188)" class="st8" width="1.2" height="15.7"/>
	</g>
	<g>
		
			<rect x="15.4" y="21.7" transform="matrix(6.187145e-02 -0.9981 0.9981 6.187145e-02 -0.4032 44.1102)" class="st8" width="15.7" height="1.2"/>
	</g>
	<g>
		<rect x="17.5" y="14.4" class="st8" width="1.2" height="15.7"/>
	</g>
</g>
</svg>
