<?xml version="1.0" encoding="utf-8"?>
<!-- Generator: Adobe Illustrator 25.0.0, SVG Export Plug-In . SVG Version: 6.00 Build 0)  -->
<svg version="1.1" id="Layer_1" xmlns="http://www.w3.org/2000/svg" xmlns:xlink="http://www.w3.org/1999/xlink" x="0px" y="0px"
	 viewBox="0 0 36 36" style="enable-background:new 0 0 36 36;" xml:space="preserve">
<style type="text/css">
	.st0{fill:#CB1618;}
	.st1{fill:#185ABD;}
	.st2{fill:#D83039;}
	.st3{fill:#103F91;}
	.st4{fill:#185C37;}
	.st5{fill:#33C481;}
	.st6{fill:#107C41;}
	.st7{fill:#21A366;}
	.st8{fill:#0B4A99;}
	.st9{fill:none;}
	.st10{fill:#FFFFFF;}
	.st11{fill:#41A5EE;}
	.st12{fill:#2B7CD3;}
	.st13{opacity:0.5;enable-background:new    ;}
	.st14{fill:url(#SVGID_1_);}
	.st15{fill:url(#SVGID_2_);}
	.st16{fill:url(#SVGID_3_);}
	.st17{fill:url(#SVGID_4_);}
	.st18{fill:#E24951;}
	.st19{fill-rule:evenodd;clip-rule:evenodd;}
	.st20{fill:#262625;}
	.st21{fill:none;stroke:#000000;stroke-width:0.75;stroke-miterlimit:10;}
	.st22{fill:none;stroke:#000000;stroke-width:1.2;stroke-miterlimit:10;}
	.st23{fill-rule:evenodd;clip-rule:evenodd;fill:#0B4A99;}
	.st24{fill:none;stroke:#0071C5;stroke-width:1.3;stroke-linecap:round;stroke-miterlimit:10;}
	.st25{fill:none;stroke:#F0AB00;stroke-width:1.3;stroke-miterlimit:10;}
	.st26{fill:#1C55A6;}
	.st27{fill:none;stroke:#1C55A6;stroke-width:1.3;stroke-linecap:round;}
	.st28{fill-rule:evenodd;clip-rule:evenodd;fill:none;stroke:#1C55A6;stroke-width:1.3;stroke-linecap:round;}
	.st29{fill:none;stroke:#1C55A6;stroke-width:1.3;stroke-linecap:round;stroke-miterlimit:10;}
	.st30{fill:none;stroke:#231F20;}
	.st31{fill:none;stroke:#0B4A99;stroke-width:1.3;stroke-miterlimit:10;}
</style>
<g>
	<g>
		<path class="st8" d="M24.9,36H2.7c-0.9,0-1.6-0.7-1.6-1.6V4.7c0-0.9,0.7-1.6,1.6-1.6h4c0.4,0,0.6,0.3,0.6,0.6S7.1,4.4,6.7,4.4h-4
			c-0.2,0-0.3,0.2-0.3,0.3v29.6c0,0.2,0.2,0.3,0.3,0.3h22.2c0.2,0,0.3-0.2,0.3-0.3v-7.9c0-0.4,0.3-0.6,0.6-0.6s0.6,0.3,0.6,0.6v7.9
			C26.6,35.3,25.8,36,24.9,36z"/>
	</g>
	<g>
		<path class="st8" d="M25.9,13.2c-0.4,0-0.6-0.3-0.6-0.6V4.7c0-0.2-0.2-0.3-0.3-0.3h-3.6c-0.4,0-0.6-0.3-0.6-0.6s0.3-0.6,0.6-0.6
			h3.6c0.9,0,1.6,0.7,1.6,1.6v7.8C26.6,12.9,26.3,13.2,25.9,13.2z"/>
	</g>
	<g>
		<path class="st8" d="M18.2,6.9H9.9c-1.1,0-2-0.9-2-2V3.1c0-1.1,0.9-2,2-2h0.9c0.4,0,0.6,0.3,0.6,0.6s-0.3,0.6-0.6,0.6H9.9
			c-0.4,0-0.8,0.3-0.8,0.8v1.8c0,0.4,0.3,0.8,0.8,0.8h8.3c0.4,0,0.8-0.3,0.8-0.8V3.1c0-0.4-0.3-0.8-0.8-0.8h-0.9
			c-0.4,0-0.6-0.3-0.6-0.6S17,1,17.3,1h0.9c1.1,0,2,0.9,2,2v1.8C20.3,6,19.4,6.9,18.2,6.9z"/>
	</g>
	<g>
		<path class="st8" d="M16.1,4.4h-4c-1,0-1.9-0.8-1.9-1.9V1.9c0-1,0.8-1.9,1.9-1.9h4c1,0,1.9,0.8,1.9,1.9v0.7
			C17.9,3.6,17.1,4.4,16.1,4.4z M12.1,1.3c-0.3,0-0.6,0.3-0.6,0.6v0.7c0,0.3,0.3,0.6,0.6,0.6h4c0.3,0,0.6-0.3,0.6-0.6V1.9
			c0-0.3-0.3-0.6-0.6-0.6H12.1z"/>
	</g>
	<g>
		<path class="st8" d="M22,10.1H5.7c-0.4,0-0.6-0.3-0.6-0.6c0-0.4,0.3-0.6,0.6-0.6H22c0.4,0,0.6,0.3,0.6,0.6
			C22.7,9.8,22.4,10.1,22,10.1z"/>
	</g>
	<g>
		<path class="st8" d="M19.9,28.9H5.7c-0.4,0-0.6-0.3-0.6-0.6s0.3-0.6,0.6-0.6h14.2c0.4,0,0.6,0.3,0.6,0.6S20.3,28.9,19.9,28.9z"/>
	</g>
	<g>
		<path class="st8" d="M12.1,16.4H5.7c-0.4,0-0.6-0.3-0.6-0.6s0.3-0.6,0.6-0.6h6.4c0.4,0,0.6,0.3,0.6,0.6S12.5,16.4,12.1,16.4z"/>
	</g>
	<g>
		<path class="st8" d="M13.1,22.5H5.7c-0.4,0-0.6-0.3-0.6-0.6s0.3-0.6,0.6-0.6h7.4c0.4,0,0.6,0.3,0.6,0.6S13.4,22.5,13.1,22.5z"/>
	</g>
	<g>
		<g>
			<path class="st8" d="M22,30.4h-0.7l-0.2-0.2c-0.5-0.5-1-1-1.7-1.5c-0.7-0.5-1.4-1.1-2.1-1.7c-0.7-0.6-1.5-1.2-2.2-1.9
				c-0.7-0.7-1.4-1.4-2-2.1c-0.6-0.8-1.1-1.6-1.5-2.5c-0.4-0.9-0.6-1.9-0.6-2.9c0-0.9,0.2-1.8,0.5-2.5c0.3-0.7,0.7-1.3,1.3-1.8
				c0.5-0.5,1.1-0.8,1.8-1.1c1.3-0.4,2.8-0.4,3.9-0.1c0.6,0.2,1.1,0.4,1.5,0.7c0.4,0.3,0.8,0.6,1.2,0.9c0.1,0.1,0.3,0.3,0.4,0.4
				c0.1-0.1,0.3-0.3,0.4-0.4c0.3-0.3,0.7-0.7,1.2-0.9c0.4-0.3,0.9-0.5,1.5-0.7c1.1-0.3,2.6-0.3,3.9,0.1c0.7,0.2,1.3,0.6,1.8,1.1
				c0.5,0.5,1,1.1,1.3,1.8c0.3,0.7,0.5,1.6,0.5,2.5c0,0.4-0.3,0.6-0.6,0.6S31,18,31,17.7c0-0.8-0.1-1.4-0.4-2c-0.2-0.5-0.6-1-1-1.4
				c-0.4-0.4-0.9-0.6-1.4-0.8c-1.1-0.4-2.3-0.3-3.2-0.1c-0.4,0.1-0.8,0.3-1.2,0.5c-0.4,0.2-0.7,0.5-0.9,0.7
				c-0.3,0.3-0.5,0.6-0.7,0.9l-0.2,0.3h-0.8l-0.2-0.3c-0.2-0.3-0.4-0.6-0.7-0.9c-0.3-0.3-0.6-0.5-0.9-0.7c-0.3-0.2-0.7-0.4-1.2-0.5
				c-0.9-0.3-2.1-0.3-3.2,0.1c-0.5,0.2-1,0.4-1.4,0.8c-0.4,0.4-0.7,0.8-1,1.4c-0.2,0.5-0.4,1.2-0.4,2c0,0.9,0.2,1.7,0.5,2.4
				c0.3,0.8,0.8,1.5,1.3,2.2c0.5,0.7,1.2,1.4,1.8,2c0.7,0.6,1.4,1.2,2.1,1.8c0.7,0.6,1.4,1.1,2.1,1.7c0.5,0.4,1,0.8,1.4,1.2
				c0.4-0.4,0.9-0.8,1.4-1.2c0.7-0.5,1.4-1.1,2.1-1.7c0.7-0.6,1.4-1.2,2.1-1.8c0.5-0.5,1-1,1.5-1.5c0.2-0.3,0.6-0.3,0.9-0.1
				c0.3,0.2,0.3,0.6,0.1,0.9c-0.5,0.6-1,1.1-1.6,1.6c-0.7,0.6-1.4,1.3-2.2,1.9c-0.7,0.6-1.4,1.1-2.1,1.7c-0.7,0.5-1.2,1-1.7,1.5
				L22,30.4z"/>
		</g>
	</g>
	<g>
		<path class="st8" d="M24.1,24.3l-0.4,0L23.5,24l-1.9-3.8l-1,1.7h-4c-0.4,0-0.6-0.3-0.6-0.6s0.3-0.6,0.6-0.6h3.2l1.4-2.3l0.4,0
			l0.4,0l0.2,0.4l1.9,3.9l1.5-2.3h8.6c0.4,0,0.6,0.3,0.6,0.6s-0.3,0.6-0.6,0.6h-7.9l-1.9,2.9L24.1,24.3z"/>
	</g>
</g>
</svg>
