<?xml version="1.0" encoding="utf-8"?>
<!-- Generator: Adobe Illustrator 25.0.0, SVG Export Plug-In . SVG Version: 6.00 Build 0)  -->
<svg version="1.1" id="Layer_1" xmlns="http://www.w3.org/2000/svg" xmlns:xlink="http://www.w3.org/1999/xlink" x="0px" y="0px"
	 viewBox="0 0 24 24" style="enable-background:new 0 0 24 24;" xml:space="preserve">
<style type="text/css">
	.st0{fill:#E51C30;}
	.st1{fill:#F80102;}
	.st2{fill:#C60610;}
	.st3{fill:#F45363;}
	.st4{fill:#F42A35;}
	.st5{fill:#FFFFFF;}
</style>
<g>
	<ellipse class="st0" cx="15.9" cy="9.6" rx="8" ry="2.8"/>
	<ellipse class="st1" cx="15.9" cy="4" rx="8" ry="3.1"/>
	<ellipse class="st2" cx="15.9" cy="16.1" rx="8" ry="2.9"/>
	<path class="st1" d="M21,18.2c-3.3,0.9-6.8,0.9-10.2,0c-1.7-0.6-2.7-1.3-2.9-2.2c0,0.1,0,0.2,0,0.2v4.6c0,1.7,3.6,3.2,8,3.2
		s8-1.4,8-3.2v-4.6c0-0.1,0-0.2,0-0.2C23.7,16.9,22.6,17.6,21,18.2z"/>
	<path class="st3" d="M15.9,0c-4.5,0-8,1.4-8,3.2v4.6c0,1.8,3.5,3.2,8,3.2s8-1.4,8-3.2V3.2C23.9,1.4,20.3,0,15.9,0z M15.9,6.7
		c-3.5,0-6.4-1.1-6.4-2.5s2.8-2.6,6.4-2.6s6.4,1.1,6.4,2.5S19.4,6.7,15.9,6.7z"/>
	<path class="st4" d="M15.9,12.3c-4.2,0-7.7-1.3-8-2.9c0,0.1,0,0.2,0,0.2v4.6c0,1,1.2,1.9,3,2.5c3.5,0.9,7.1,0.9,10.6-0.2l0,0
		c1.5-0.6,2.5-1.4,2.5-2.3V9.6c0-0.1,0-0.2,0-0.2C23.6,11.1,20.1,12.3,15.9,12.3z"/>
</g>
<g>
	<rect x="1.9" y="0.2" class="st5" width="8.2" height="23.5"/>
	<path class="st1" d="M10.3,24H1.7V0h8.7V24z M2.2,23.5h7.7v-23H2.2V23.5z"/>
</g>
<image style="overflow:visible;" width="360" height="45" xlink:href="F:\VARMA\PILOG VIDEO\AFTER EFFECTS\MDRM V10 AFTER AFFECTS PJ\ORACLE text.png"  transform="matrix(3.398120e-18 -5.549550e-02 5.549550e-02 3.398120e-18 4.8942 22.0661)">
</image>
</svg>
