<?xml version="1.0" encoding="iso-8859-1"?>
<!-- Generator: Adobe Illustrator 19.0.0, SVG Export Plug-In . SVG Version: 6.00 Build 0)  -->
<svg version="1.1" id="Capa_1" xmlns="http://www.w3.org/2000/svg" xmlns:xlink="http://www.w3.org/1999/xlink" x="0px" y="0px"
	 viewBox="0 0 512.001 512.001" style="enable-background:new 0 0 512.001 512.001;" xml:space="preserve">
<path style="fill:#38C96C;" d="M256.001,0c-141.387,0-256,114.613-256,256.001s114.613,256,256,256s256-114.613,256-256
	S397.389,0,256.001,0z M256.001,422.989c-92.224,0-166.989-74.765-166.989-166.989S163.778,89.012,256.001,89.012
	S422.99,163.777,422.99,256.001S348.225,422.989,256.001,422.989z"/>
<path style="fill:#44C1DD;" d="M256.001,0v89.012c92.224,0,166.989,74.765,166.989,166.989s-74.765,166.988-166.989,166.988v89.012
	c141.388,0,256-114.613,256-256S397.389,0,256.001,0z"/>
<path style="fill:#37B0C4;" d="M507.956,210.409c-2.563,137.815-114.026,248.99-251.955,251.1v50.492c141.388,0,256-114.613,256-256
	C512.001,240.436,510.612,225.201,507.956,210.409z"/>
<path style="fill:#2BAA55;" d="M0.003,256.001c0,141.388,114.613,256,256,256v-50.492c-137.928-2.11-249.391-113.285-251.955-251.1
	C1.393,225.201,0.003,240.436,0.003,256.001z"/>
<g>
</g>
<g>
</g>
<g>
</g>
<g>
</g>
<g>
</g>
<g>
</g>
<g>
</g>
<g>
</g>
<g>
</g>
<g>
</g>
<g>
</g>
<g>
</g>
<g>
</g>
<g>
</g>
<g>
</g>
</svg>
