<?xml version="1.0" encoding="utf-8"?>
<!-- Generator: Adobe Illustrator 25.0.0, SVG Export Plug-In . SVG Version: 6.00 Build 0)  -->
<svg version="1.1" id="Layer_1" xmlns="http://www.w3.org/2000/svg" xmlns:xlink="http://www.w3.org/1999/xlink" x="0px" y="0px"
	 viewBox="0 0 36 36" style="enable-background:new 0 0 36 36;" xml:space="preserve">
<style type="text/css">
	.st0{fill:#C2CCD3;stroke:#0B4A99;stroke-width:0.25;stroke-miterlimit:10;}
	.st1{fill:#0B4A99;}
	.st2{fill:#CB1618;}
	.st3{fill:none;}
	.st4{fill:none;stroke:#0B4A99;stroke-width:0.5;stroke-miterlimit:10;}
	.st5{opacity:0.25;}
	.st6{fill:none;stroke:#0B4A99;stroke-width:3.000000e-02;stroke-miterlimit:10;}
	.st7{fill:#7AB5F4;}
	.st8{fill:#C2CCD3;stroke:#0B4A99;stroke-width:0.5;stroke-miterlimit:10;}
	.st9{fill:#C2CCD3;stroke:#0B4A99;stroke-width:0.1;stroke-miterlimit:10;}
</style>
<path class="st0" d="M17.3,0.3v10c0,0,5.5-0.7,7.8,4.6l8.3-5.4C33.4,9.4,28.2-0.7,17.3,0.3z"/>
<g>
	<path class="st1" d="M18,36C8.1,36,0,27.9,0,18S8.1,0,18,0c9.9,0,18,8.1,18,18S27.9,36,18,36z M18,0.5C8.4,0.5,0.5,8.4,0.5,18
		S8.4,35.5,18,35.5S35.5,27.6,35.5,18S27.6,0.5,18,0.5z"/>
</g>
<g>
	<path class="st1" d="M18,26c-4.4,0-8-3.6-8-8c0-4.4,3.6-8,8-8c4.4,0,8,3.6,8,8C26,22.4,22.4,26,18,26z M18,10.5
		c-4.1,0-7.5,3.4-7.5,7.5s3.4,7.5,7.5,7.5s7.5-3.4,7.5-7.5S22.1,10.5,18,10.5z"/>
</g>
<g>
	<rect x="17.1" y="0.1" class="st1" width="0.5" height="10.1"/>
</g>
<g>
	<rect x="24.3" y="11.8" transform="matrix(0.8473 -0.5311 0.5311 0.8473 -1.9428 17.4254)" class="st1" width="10" height="0.5"/>
</g>
<g>
	<polygon class="st1" points="5.4,30.7 5.1,30.4 11.9,23.2 12.2,23.5 	"/>
</g>
<g>
	
		<rect x="5" y="13.6" transform="matrix(1.360057e-02 -0.9999 0.9999 1.360057e-02 -13.3935 23.5013)" class="st1" width="0.5" height="9.9"/>
</g>
</svg>
