<?xml version="1.0" encoding="utf-8"?>
<!-- Generator: Adobe Illustrator 25.0.0, SVG Export Plug-In . SVG Version: 6.00 Build 0)  -->
<svg version="1.1" id="Layer_1" xmlns="http://www.w3.org/2000/svg" xmlns:xlink="http://www.w3.org/1999/xlink" x="0px" y="0px"
	 viewBox="0 0 36 36" style="enable-background:new 0 0 36 36;" xml:space="preserve">
<style type="text/css">
	.st0{fill:#7AB5F4;}
	.st1{fill:#FFFFFF;}
	.st2{fill:#0B4A99;}
	.st3{fill:#CB1618;}
	.st4{fill:none;}
	.st5{opacity:0.25;}
	.st6{fill:none;stroke:#0B4A99;stroke-width:3.000000e-02;stroke-miterlimit:10;}
</style>
<g>
	<path class="st0" d="M17.4,0.7V10c0,0,5.6-0.2,7.9,4.8l8-5.1C33.3,9.7,27.9-0.2,17.4,0.7z"/>
	<g>
		<path class="st2" d="M25,15.7l-0.3-0.7c-1.2-2.7-3.8-4.4-6.7-4.4c-0.1,0-0.3,0-0.4,0l-0.7,0L16.8,10V0l0.8,0c0.1,0,0.2,0,0.4,0
			c6.6,0,12.7,3.6,15.8,9.4l0.3,0.5L25,15.7z M18.1,9.4c3.2,0,6,1.8,7.5,4.5l6.9-4.4c-3-5.1-8.4-8.2-14.4-8.3V9.4z"/>
	</g>
	<g>
		<path class="st2" d="M10.7,19.3H0.1l0-0.8c0-0.1,0-0.3,0-0.4C0,8.2,7.7,0.3,17.4,0l0.6,0v10.6l-0.6,0c-3.8,0.3-6.9,3.5-6.9,7.3
			c0,0.2,0,0.4,0,0.6L10.7,19.3z M1.3,18h8.1c0,0,0,0,0,0c0-4.3,3.2-8,7.4-8.5V1.3C8,1.9,1.3,9.1,1.3,18C1.3,18,1.3,18,1.3,18z"/>
	</g>
	<g>
		<path class="st2" d="M5.6,31.1l-0.4-0.5c-3.2-3.2-5-7.5-5.2-12L0,18h10.6l0,0.6c0.1,1.7,0.8,3.3,2,4.5l0.4,0.4L5.6,31.1z
			 M1.3,19.3c0.3,3.7,1.8,7.3,4.3,10l5.7-5.8c-1-1.2-1.7-2.7-1.9-4.2H1.3z"/>
	</g>
	<g>
		<path class="st2" d="M18,36c-4.8,0-9.4-1.9-12.8-5.4l-0.4-0.4l7.5-7.6l0.4,0.5c1.4,1.5,3.3,2.3,5.3,2.3c4.1,0,7.4-3.3,7.4-7.4
			c0-1-0.2-2-0.6-2.9l-0.2-0.5l9-5.7l0.3,0.6C35.2,12,36,15,36,18C36,27.9,27.9,36,18,36z M6.5,30.2c3.1,2.9,7.2,4.5,11.5,4.5
			c9.2,0,16.7-7.5,16.7-16.7c0-2.6-0.6-5.1-1.7-7.4L26.1,15c0.3,0.9,0.5,1.9,0.5,3c0,4.8-3.9,8.6-8.6,8.6c-2.2,0-4.2-0.8-5.8-2.2
			L6.5,30.2z"/>
	</g>
</g>
</svg>
