<?xml version="1.0" encoding="iso-8859-1"?>
<!-- Generator: Adobe Illustrator 12.0.0, SVG Export Plug-In . SVG Version: 6.00 Build 51448)  -->
<!DOCTYPE svg PUBLIC "-//W3C//DTD SVG 1.1//EN" "http://www.w3.org/Graphics/SVG/1.1/DTD/svg11.dtd" [
	<!ENTITY ns_svg "http://www.w3.org/2000/svg">
	<!ENTITY ns_xlink "http://www.w3.org/1999/xlink">
]>
<svg  version="1.1" id="Layer_1" xmlns="&ns_svg;" xmlns:xlink="&ns_xlink;" width="15.874" height="15.874"
	 viewBox="0 0 15.874 15.874" style="overflow:visible;enable-background:new 0 0 15.874 15.874;" xml:space="preserve">
<g>
	<path style="fill-rule:evenodd;clip-rule:evenodd;fill:#0071C5;" d="M14.792,8.427l-6.553,6.586c-0.304,0.269-0.743,0.269-1.013,0
		l-0.608-0.607l5.945-5.979c0.271-0.269,0.271-0.709,0-0.979L6.618,1.469l0.608-0.607c0.271-0.27,0.709-0.27,1.013,0l6.553,6.585
		C15.064,7.717,15.064,8.158,14.792,8.427L14.792,8.427z"/>
	<path style="fill-rule:evenodd;clip-rule:evenodd;fill:#0071C5;" d="M9.052,8.427l-6.553,6.586c-0.304,0.269-0.742,0.269-1.014,0
		l-0.607-0.607l5.945-5.979c0.271-0.269,0.271-0.709,0-0.979L0.878,1.469l0.607-0.607c0.272-0.27,0.71-0.27,1.014,0l6.553,6.585
		C9.322,7.717,9.322,8.158,9.052,8.427L9.052,8.427z"/>
</g>
<rect style="fill-rule:evenodd;clip-rule:evenodd;fill:none;" width="15.874" height="15.874"/>
</svg>
