<?xml version="1.0" encoding="iso-8859-1"?>
<!-- Generator: Adobe Illustrator 12.0.0, SVG Export Plug-In . SVG Version: 6.00 Build 51448)  -->
<!DOCTYPE svg PUBLIC "-//W3C//DTD SVG 1.1//EN" "http://www.w3.org/Graphics/SVG/1.1/DTD/svg11.dtd" [
	<!ENTITY ns_svg "http://www.w3.org/2000/svg">
	<!ENTITY ns_xlink "http://www.w3.org/1999/xlink">
]>
<svg  version="1.1" id="Layer_1" xmlns="&ns_svg;" xmlns:xlink="&ns_xlink;" width="15.876" height="15.874"
	 viewBox="0 0 15.876 15.874" style="overflow:visible;enable-background:new 0 0 15.876 15.874;" xml:space="preserve">
<g>
	<rect style="fill:none;" width="15.876" height="15.874"/>
	<g>
		<path style="fill:#FF4C4C;" d="M14.793,8.427l-6.554,6.586c-0.304,0.27-0.743,0.27-1.013,0l-0.607-0.607l5.944-5.979
			c0.271-0.269,0.271-0.709,0-0.979L6.619,1.469l0.607-0.607c0.271-0.27,0.709-0.27,1.013,0l6.554,6.585
			C15.064,7.716,15.064,8.158,14.793,8.427L14.793,8.427z"/>
		<path style="fill:#FF4C4C;" d="M9.053,8.427L2.5,15.013c-0.305,0.27-0.742,0.27-1.015,0l-0.606-0.607l5.944-5.979
			c0.271-0.269,0.271-0.709,0-0.979L0.879,1.469l0.606-0.607c0.272-0.27,0.71-0.27,1.015,0l6.553,6.585
			C9.322,7.716,9.322,8.158,9.053,8.427L9.053,8.427z"/>
	</g>
</g>
</svg>
