<?xml version="1.0" encoding="utf-8"?>
<!-- Generator: Adobe Illustrator 25.0.0, SVG Export Plug-In . SVG Version: 6.00 Build 0)  -->
<svg version="1.1" id="Layer_1" xmlns="http://www.w3.org/2000/svg" xmlns:xlink="http://www.w3.org/1999/xlink" x="0px" y="0px"
	 viewBox="0 0 16 16" style="enable-background:new 0 0 16 16;" xml:space="preserve">
<style type="text/css">
	.st0{fill:#0B4A99;}
	.st1{fill:#07A83D;}
</style>
<path class="st0" d="M0.3,1.5h14.8c0.2,0,0.3,0.3,0.2,0.4l-6.1,6C9.1,8.1,9,8.4,9,8.6v4.2c0,0,0,0,0,0H6.2c0,0,0,0,0,0V8.6
	c0-0.2-0.1-0.5-0.3-0.6l-5.8-6C0,1.7,0.1,1.5,0.3,1.5z"/>
<path class="st1" d="M12,14.5c2.2,0,4-1.8,4-4c0-2.2-1.8-4-4-4c-2.2,0-4,1.8-4,4C8,12.7,9.8,14.5,12,14.5z M12,8.3l1.8,1.8h-1.3v2.6
	h-1v-2.6h-1.3L12,8.3z"/>
</svg>
