<?xml version="1.0" encoding="utf-8"?>
<!-- Generator: Adobe Illustrator 25.0.0, SVG Export Plug-In . SVG Version: 6.00 Build 0)  -->
<svg version="1.1" id="Layer_1" xmlns="http://www.w3.org/2000/svg" xmlns:xlink="http://www.w3.org/1999/xlink" x="0px" y="0px"
	 viewBox="0 0 16 16" style="enable-background:new 0 0 16 16;" xml:space="preserve">
<style type="text/css">
	.st0{fill:#40875E;}
	.st1{fill:#F0AB00;}
	.st2{fill:#A8A240;}
</style>
<path class="st0" d="M7,8.51c0-0.08,0-0.16,0-0.25c0-2.38,0-4.77,0-7.15c0-0.59,0.3-0.98,0.82-1.09C8.38-0.1,8.95,0.33,8.99,0.9
	C9,1.01,9,1.12,9,1.23C9,3.6,9,5.97,9,8.34C9,8.4,9,8.46,9.01,8.57C9.11,8.47,9.19,8.4,9.26,8.33c0.67-0.67,1.33-1.34,2-2
	c0.55-0.55,1.41-0.38,1.67,0.33c0.14,0.38,0.07,0.75-0.22,1.04c-1.34,1.35-2.68,2.69-4.02,4.02c-0.41,0.41-1.01,0.38-1.43-0.05
	c-1.01-1.01-2.02-2.02-3.03-3.04c-0.3-0.3-0.6-0.6-0.9-0.9C2.91,7.31,2.9,6.69,3.29,6.3c0.4-0.4,1.01-0.4,1.44,0.02
	c0.68,0.67,1.36,1.35,2.03,2.03c0.06,0.06,0.11,0.14,0.16,0.21C6.95,8.54,6.97,8.52,7,8.51z"/>
<path class="st2" d="M2.01,13.99c0-0.12,0-0.21,0-0.31c0-0.91,0.01-1.82-0.01-2.73c-0.02-0.72-0.77-1.16-1.41-0.86
	c-0.41,0.2-0.58,0.55-0.58,1c0.01,1.26,0,2.53,0,3.79c0,0.71,0.4,1.11,1.11,1.11c2.29,0,4.59,0,6.88,0v-2.01
	C6,13.99,4.01,13.99,2.01,13.99z"/>
<path class="st1" d="M15.98,10.96c0-0.2-0.11-0.43-0.23-0.6c-0.24-0.34-0.7-0.44-1.09-0.3c-0.41,0.14-0.67,0.52-0.67,0.98
	c0,0.9,0,1.81,0,2.71c0,0.08-0.01,0.16-0.01,0.24c-2,0-3.99,0-5.98,0V16c2.24,0,4.48,0,6.72,0c0.1,0,0.19,0,0.29,0
	c0.56-0.03,0.97-0.43,0.97-0.97C16,13.67,16,12.32,15.98,10.96z"/>
</svg>
