<?xml version="1.0" encoding="utf-8"?>
<!-- Generator: Adobe Illustrator 25.0.0, SVG Export Plug-In . SVG Version: 6.00 Build 0)  -->
<svg version="1.1" id="Layer_1" xmlns="http://www.w3.org/2000/svg" xmlns:xlink="http://www.w3.org/1999/xlink" x="0px" y="0px"
	 viewBox="0 0 100 100" style="enable-background:new 0 0 100 100;" xml:space="preserve">
<style type="text/css">
	.st0{fill:#FFFFFF;stroke:#FFFFFF;stroke-width:3;}
	.st1{fill:#FFFFFF;}
	.st2{fill:none;}
</style>
<rect x="70.3" y="44.4" class="st1" width="7.8" height="2.3"/>
<rect x="70.3" y="38.3" class="st1" width="7.8" height="2.3"/>
<path class="st1" d="M49.1,81.5c-2.8,0-5.1-0.8-5.8-1.9c-0.1,0.2-0.2,0.4-0.2,0.6V82c0,1.4,2.7,2.5,5.9,2.5c3.3,0,5.9-1.1,5.9-2.5
	v-1.8c0-0.2-0.1-0.4-0.2-0.6C54.2,80.7,51.9,81.5,49.1,81.5L49.1,81.5z M49.1,81.5"/>
<path class="st1" d="M49.1,85.3c-2.8,0-5.1-0.8-5.8-1.9c-0.1,0.2-0.2,0.4-0.2,0.6v1.8c0,1.4,2.7,2.5,5.9,2.5c3.3,0,5.9-1.1,5.9-2.5
	v-1.8c0-0.2-0.1-0.4-0.2-0.6C54.2,84.4,51.9,85.3,49.1,85.3L49.1,85.3z M49.1,85.3"/>
<path class="st1" d="M54.9,76c-0.1,1-2.6,1.8-5.8,1.8c-3.1,0-5.7-0.8-5.8-1.8c-0.1,0.2-0.2,0.4-0.2,0.6v1.8c0,1.4,2.7,2.5,5.9,2.5
	c3.3,0,5.9-1.1,5.9-2.5v-1.8C55,76.4,55,76.2,54.9,76L54.9,76z M54.9,76"/>
<path class="st1" d="M49.1,77.3c3.2,0,5.8-0.9,5.8-1.9c0-1.1-2.6-1.9-5.8-1.9c-3.2,0-5.8,0.9-5.8,1.9C43.3,76.4,45.9,77.3,49.1,77.3
	L49.1,77.3z M49.1,77.3"/>
<path class="st1" d="M57.1,91.6c0,0.1-0.1,0.3-0.2,0.3H41.3c-0.1,0-0.2-0.1-0.2-0.3l0,0c0-0.1,0.1-0.3,0.2-0.3h15.5
	C57,91.4,57.1,91.5,57.1,91.6L57.1,91.6z"/>
<path class="st1" d="M49.1,88.8c0.1,0,0.3,0.1,0.3,0.2v2.4c0,0.1-0.1,0.2-0.3,0.2l0,0c-0.1,0-0.3-0.1-0.3-0.2V89
	C48.9,88.9,49,88.8,49.1,88.8L49.1,88.8z"/>
<path class="st1" d="M50.8,92.2c0,0.2-0.1,0.3-0.3,0.3h-2.8c-0.2,0-0.3-0.1-0.3-0.3v-1.3c0-0.2,0.1-0.3,0.3-0.3h2.8
	c0.2,0,0.3,0.1,0.3,0.3V92.2z"/>
<path class="st1" d="M66.4,79.1c0-0.1,0-0.3,0-0.4c0-4.1-3.3-7.4-7.4-7.4c-0.6,0-1.2,0.1-1.8,0.3c-2.4-3.3-6.3-5.3-10.3-5.3
	C39.7,66.2,34,72,34,79l0,0.3c-3.3,1.2-5.5,4.2-5.5,7.7c0,4.5,3.7,8.2,8.2,8.2h27.4c4.5,0,8.2-3.7,8.2-8.2
	C72.3,83.3,69.9,80.1,66.4,79.1z M35.8,79c0-6,4.9-10.9,10.9-10.9c3.7,0,7.1,1.9,9.2,5l0.4,0.6l0.7-0.3c0.6-0.2,1.3-0.3,1.9-0.3
	c3.1,0,5.5,2.5,5.5,5.5c0,0.3,0,0.6-0.1,1l-0.2,0.9l0.9,0.2c3.1,0.5,5.3,3.2,5.3,6.3c0,3.5-2.9,6.4-6.4,6.4H36.7
	c-3.5,0-6.4-2.9-6.4-6.4c0-2.9,2-5.4,4.8-6.2l0.7-0.2L35.8,79z"/>
<rect x="81.3" y="32.8" class="st2" width="1.9" height="0.7"/>
<path class="st2" d="M69.1,35.6h16.2v-4.8H69.1V35.6z M70.3,32h13.8v2.3H70.3V32z"/>
<path class="st1" d="M84.1,32H70.3v2.3h13.8V32z M83.2,33.4h-1.9v-0.7h1.9V33.4z"/>
<path class="st1" d="M67.3,23v27.6h10.9V48h-9.1v-4.8h9.1v-1.3h-9.1V37h9.1v-0.7H87V23H67.3z M81.1,25.6c0.8,0,1.4,0.6,1.4,1.4
	c0,0.8-0.6,1.4-1.4,1.4c-0.8,0-1.4-0.6-1.4-1.4C79.7,26.2,80.3,25.6,81.1,25.6z M77.5,25.6c0.8,0,1.4,0.6,1.4,1.4
	c0,0.8-0.6,1.4-1.4,1.4c-0.8,0-1.4-0.6-1.4-1.4C76.1,26.2,76.7,25.6,77.5,25.6z M85.3,35.6H69.1v-4.8h16.2V35.6z"/>
<path class="st1" d="M77.5,27.6c0.3,0,0.6-0.3,0.6-0.6s-0.3-0.6-0.6-0.6c-0.3,0-0.6,0.3-0.6,0.6S77.1,27.6,77.5,27.6z"/>
<path class="st1" d="M81,27.6c0.3,0,0.6-0.3,0.6-0.6s-0.3-0.6-0.6-0.6c-0.3,0-0.6,0.3-0.6,0.6S80.7,27.6,81,27.6z"/>
<g>
	<g>
		<path class="st1" d="M77.9,55.8c-0.1,0-0.1,0-0.2,0c-0.3,0-0.7,0.1-1,0c-0.6,0-1.2-0.2-1.8-0.6c-1.1-0.6-1.9-1.9-2.2-3.4h-0.2
			c-0.1,0.8,0,1.6,0.2,2.4c0.2,0.8,0.7,1.5,1.3,2.2c0.6,0.6,1.4,1,2.3,1.3c0.4,0.2,0.8,0.2,1.3,0.3c0.2,0,0.5,0,0.7,0l0.2,1.1
			l3.4-2.9l-4.2-1.5L77.9,55.8z"/>
		<path class="st1" d="M97.8,30.9c-0.2-0.8-0.7-1.5-1.3-2.2c-0.6-0.6-1.4-1-2.3-1.3c-0.4-0.2-0.8-0.2-1.3-0.3c-0.2,0-0.5,0-0.7,0
			l-0.2-1.1l-3.4,2.9l4.2,1.5l-0.2-1c0.1,0,0.1,0,0.2,0c0.3,0,0.6-0.1,1,0c0.6,0,1.2,0.2,1.8,0.6c1.1,0.6,1.9,1.9,2.2,3.4H98
			C98.1,32.5,98.1,31.7,97.8,30.9z"/>
	</g>
</g>
<path class="st1" d="M79.4,49.6V51c0,0.3,0.2,0.5,0.5,0.5h7c-0.1,0.5-0.3,1.1-0.4,1.6h-0.4c-0.2,0-0.3,0.2-0.3,0.4v0.1h7.3v-0.1
	c0-0.2-0.1-0.4-0.3-0.4h-0.4c-0.1-0.5-0.3-1.1-0.4-1.6h7c0.3,0,0.5-0.2,0.5-0.5v-1.4H79.4z"/>
<path class="st1" d="M99,37.2H79.9c-0.3,0-0.5,0.2-0.5,0.5v11.6h20.1V37.7C99.5,37.4,99.3,37.2,99,37.2z M98.7,48.5H80.2V38h18.5
	V48.5z"/>
<g>
	<path class="st1" d="M24.4,52.7c0,0.8-0.6,1.4-1.4,1.4H7.1c-0.8,0-1.4-0.6-1.4-1.4v-6.5H4.3v6.5c0,1.6,1.3,2.8,2.8,2.8H23
		c1.6,0,2.8-1.3,2.8-2.8v-2.5h-1.4V52.7z"/>
	<path class="st1" d="M23,24.2H7.1c-1.6,0-2.8,1.3-2.8,2.8v12.1h1.4V27c0-0.8,0.6-1.4,1.4-1.4H23c0.8,0,1.4,0.6,1.4,1.4v6h1.4v-6
		C25.8,25.5,24.6,24.2,23,24.2z"/>
</g>
<g>
	<g>
		<path class="st1" d="M8.6,41.8c0,0.3-0.2,0.5-0.5,0.5H4c-0.3,0-0.5-0.2-0.5-0.5l0,0c0-0.3,0.2-0.5,0.5-0.5h4.2
			C8.4,41.3,8.6,41.5,8.6,41.8L8.6,41.8z"/>
		<path class="st1" d="M12.3,43.8c0,0.3-0.2,0.5-0.5,0.5H4c-0.3,0-0.5-0.2-0.5-0.5l0,0c0-0.3,0.2-0.5,0.5-0.5h7.9
			C12.1,43.3,12.3,43.5,12.3,43.8L12.3,43.8z"/>
		<g>
			<g>
				<path class="st1" d="M27.5,37.7c0,0.6-0.5,1.1-1.1,1.1h-1.3c-0.6,0-1.1-0.5-1.1-1.1v-1.2c0-0.6,0.5-1.1,1.1-1.1h1.3
					c0.6,0,1.1,0.5,1.1,1.1V37.7z M26.5,36.4H25v1.5h1.5V36.4z"/>
			</g>
		</g>
		<g>
			<g>
				<path class="st1" d="M27.5,42.4c0,0.6-0.5,1.1-1.1,1.1h-1.3c-0.6,0-1.1-0.5-1.1-1.1v-1.2c0-0.6,0.5-1.1,1.1-1.1h1.3
					c0.6,0,1.1,0.5,1.1,1.1V42.4z M26.5,41H25v1.5h1.5V41z"/>
			</g>
		</g>
		<g>
			<g>
				<path class="st1" d="M27.5,47.1c0,0.6-0.5,1.1-1.1,1.1h-1.3c-0.6,0-1.1-0.5-1.1-1.1v-1.2c0-0.6,0.5-1.1,1.1-1.1h1.3
					c0.6,0,1.1,0.5,1.1,1.1V47.1z M26.5,45.7H25v1.5h1.5V45.7z"/>
			</g>
		</g>
		<path class="st1" d="M21.8,29c0,0.3-0.2,0.5-0.5,0.5H8.5c-0.3,0-0.5-0.2-0.5-0.5l0,0c0-0.3,0.2-0.5,0.5-0.5h12.8
			C21.5,28.5,21.8,28.7,21.8,29L21.8,29z"/>
		<path class="st1" d="M21.8,32.5c0,0.3-0.2,0.5-0.5,0.5H8.5c-0.3,0-0.5-0.2-0.5-0.5l0,0c0-0.3,0.2-0.5,0.5-0.5h12.8
			C21.5,32,21.8,32.2,21.8,32.5L21.8,32.5z"/>
		<path class="st1" d="M16.9,36.1c0,0.3-0.2,0.5-0.5,0.5H8.5c-0.3,0-0.5-0.2-0.5-0.5l0,0c0-0.3,0.2-0.5,0.5-0.5h7.9
			C16.7,35.6,16.9,35.8,16.9,36.1L16.9,36.1z"/>
		<path class="st1" d="M16.9,50.2c0,0.3-0.2,0.5-0.5,0.5H8.5c-0.3,0-0.5-0.2-0.5-0.5l0,0c0-0.3,0.2-0.5,0.5-0.5h7.9
			C16.7,49.6,16.9,49.9,16.9,50.2L16.9,50.2z"/>
		<g>
			<path class="st1" d="M17.7,47.2v2.6h12.2V33.8H17.7v4.6l-2,0v-4.5c0-1.1,0.9-2,2-2h12c1.1,0,2,0.9,2,2v15.7c0,1.1-0.9,2-2,2h-12
				c-1.1,0-2-0.9-2-2v-2.4L17.7,47.2z"/>
		</g>
		<g>
			<g>
				<path class="st1" d="M20.1,45.4c0,1.1-0.9,2-2,2H2.5c-1.1,0-2-0.9-2-2v-5.2c0-1.1,0.9-2,2-2h15.6c1.1,0,2,0.9,2,2V45.4z
					 M18.2,40.2H2.5v5.2h15.7V40.2z"/>
			</g>
		</g>
	</g>
</g>
<path class="st1" d="M26.5,82c-8-5.6-13.9-13.9-16.5-23.3l2.9-0.8c2.4,8.7,7.9,16.4,15.4,21.6L26.5,82z"/>
<path class="st1" d="M75.4,81.8l-1.7-2.5c7.4-5.2,12.8-12.9,15.2-21.5l2.9,0.8C89.1,68,83.3,76.2,75.4,81.8z"/>
<path class="st1" d="M21.2,21.2l-2.3-2C27,10,38.6,4.8,50.8,4.8c12,0,23.5,5.1,31.6,14.1l-2.2,2C72.7,12.5,62,7.8,50.8,7.8
	C39.5,7.8,28.7,12.7,21.2,21.2z"/>
</svg>
