<?xml version="1.0" encoding="utf-8"?>
<!-- Generator: Adobe Illustrator 25.0.0, SVG Export Plug-In . SVG Version: 6.00 Build 0)  -->
<svg version="1.1" id="Layer_1" xmlns="http://www.w3.org/2000/svg" xmlns:xlink="http://www.w3.org/1999/xlink" x="0px" y="0px"
	 viewBox="0 0 100 100" style="enable-background:new 0 0 100 100;" xml:space="preserve">
<style type="text/css">
	.st0{fill:#A8A240;}
	.st1{fill:#40875E;}
	.st2{fill:#F0AB00;}
	.st3{fill:none;}
</style>
<g>
	<g>
		<rect x="16.04" y="25.56" class="st0" width="3.88" height="6.46"/>
	</g>
	<g>
		<rect x="63.94" y="25.56" class="st0" width="3.88" height="6.46"/>
	</g>
	<g>
		<path class="st0" d="M13.35,19.08L13.35,19.08c-0.59,0-1.07-0.47-1.07-1.06V8.55c0-0.58,0.48-1.06,1.07-1.06h0
			c0.59,0,1.07,0.47,1.07,1.06v9.47C14.42,18.61,13.94,19.08,13.35,19.08z"/>
	</g>
	<g>
		<path class="st0" d="M22.21,19.08L22.21,19.08c-0.59,0-1.07-0.47-1.07-1.06V8.55c0-0.58,0.48-1.06,1.07-1.06h0
			c0.59,0,1.07,0.47,1.07,1.06v9.47C23.29,18.61,22.8,19.08,22.21,19.08z"/>
	</g>
	<g>
		<path class="st0" d="M31.07,19.08L31.07,19.08c-0.59,0-1.07-0.47-1.07-1.06V8.55c0-0.58,0.48-1.06,1.07-1.06h0
			c0.59,0,1.07,0.47,1.07,1.06v9.47C32.15,18.61,31.67,19.08,31.07,19.08z"/>
	</g>
	<g>
		<path class="st0" d="M13.35,49.25L13.35,49.25c-0.59,0-1.07-0.47-1.07-1.06v-9.47c0-0.58,0.48-1.06,1.07-1.06h0
			c0.59,0,1.07,0.47,1.07,1.06v9.47C14.42,48.78,13.94,49.25,13.35,49.25z"/>
	</g>
	<g>
		<path class="st0" d="M22.21,49.25L22.21,49.25c-0.59,0-1.07-0.47-1.07-1.06v-9.47c0-0.58,0.48-1.06,1.07-1.06h0
			c0.59,0,1.07,0.47,1.07,1.06v9.47C23.29,48.78,22.8,49.25,22.21,49.25z"/>
	</g>
	<g>
		<path class="st0" d="M31.07,49.25L31.07,49.25c-0.59,0-1.07-0.47-1.07-1.06v-9.47c0-0.58,0.48-1.06,1.07-1.06h0
			c0.59,0,1.07,0.47,1.07,1.06v9.47C32.15,48.78,31.67,49.25,31.07,49.25z"/>
	</g>
	<g>
		<path class="st0" d="M13.35,79.42L13.35,79.42c-0.59,0-1.07-0.47-1.07-1.06v-9.47c0-0.58,0.48-1.06,1.07-1.06h0
			c0.59,0,1.07,0.47,1.07,1.06v9.47C14.42,78.95,13.94,79.42,13.35,79.42z"/>
	</g>
	<g>
		<path class="st0" d="M22.21,79.42L22.21,79.42c-0.59,0-1.07-0.47-1.07-1.06v-9.47c0-0.58,0.48-1.06,1.07-1.06h0
			c0.59,0,1.07,0.47,1.07,1.06v9.47C23.29,78.95,22.8,79.42,22.21,79.42z"/>
	</g>
	<g>
		<path class="st0" d="M31.07,79.42L31.07,79.42c-0.59,0-1.07-0.47-1.07-1.06v-9.47c0-0.58,0.48-1.06,1.07-1.06h0
			c0.59,0,1.07,0.47,1.07,1.06v9.47C32.15,78.95,31.67,79.42,31.07,79.42z"/>
	</g>
	<g>
		<path class="st1" d="M81.34,0H3.3C1.75,0,0.5,1.23,0.5,2.75v21.07c0,1.52,1.25,2.75,2.8,2.75h78.04c1.54,0,2.8-1.23,2.8-2.75V2.75
			C84.13,1.23,82.88,0,81.34,0z M15.82,18.2c0,1.34-1.11,2.43-2.47,2.43l0,0c-1.36,0-2.47-1.09-2.47-2.43V8.38
			c0-1.34,1.11-2.43,2.47-2.43l0,0c1.36,0,2.47,1.09,2.47,2.43V18.2z M24.68,18.2c0,1.34-1.11,2.43-2.47,2.43l0,0
			c-1.36,0-2.47-1.09-2.47-2.43V8.38c0-1.34,1.11-2.43,2.47-2.43l0,0c1.36,0,2.47,1.09,2.47,2.43V18.2z M33.54,18.2
			c0,1.34-1.11,2.43-2.47,2.43l0,0c-1.36,0-2.47-1.09-2.47-2.43V8.38c0-1.34,1.11-2.43,2.47-2.43l0,0c1.36,0,2.47,1.09,2.47,2.43
			V18.2z M56.62,16.57c-1.84,0-3.33-1.47-3.33-3.28c0-1.81,1.49-3.28,3.33-3.28c1.84,0,3.33,1.47,3.33,3.28
			C59.95,15.1,58.46,16.57,56.62,16.57z M67.26,16.57c-1.84,0-3.33-1.47-3.33-3.28c0-1.81,1.49-3.28,3.33-3.28
			c1.84,0,3.33,1.47,3.33,3.28C70.59,15.1,69.1,16.57,67.26,16.57z"/>
	</g>
	<g>
		<ellipse class="st2" cx="56.62" cy="13.29" rx="2" ry="1.97"/>
	</g>
	<g>
		<ellipse class="st2" cx="67.26" cy="13.29" rx="2" ry="1.97"/>
	</g>
	<g>
		<ellipse class="st2" cx="56.62" cy="43.46" rx="2" ry="1.97"/>
	</g>
	<g>
		<ellipse class="st2" cx="67.26" cy="43.46" rx="2" ry="1.97"/>
	</g>
	<g>
		<rect x="16.04" y="55.97" class="st0" width="3.88" height="6.46"/>
	</g>
	<g>
		<path class="st3" d="M31.07,66.28c-1.36,0-2.47,1.09-2.47,2.43v9.82c0,1.34,1.11,2.43,2.47,2.43c1.36,0,2.47-1.09,2.47-2.43v-9.82
			C33.54,67.37,32.44,66.28,31.07,66.28z"/>
	</g>
	<g>
		<path class="st3" d="M22.21,66.28c-1.36,0-2.47,1.09-2.47,2.43v9.82c0,1.34,1.11,2.43,2.47,2.43s2.47-1.09,2.47-2.43v-9.82
			C24.68,67.37,23.58,66.28,22.21,66.28z"/>
	</g>
	<g>
		<path class="st3" d="M13.35,66.28c-1.36,0-2.47,1.09-2.47,2.43v9.82c0,1.34,1.11,2.43,2.47,2.43s2.47-1.09,2.47-2.43v-9.82
			C15.82,67.37,14.72,66.28,13.35,66.28z"/>
	</g>
	<g>
		<ellipse class="st3" cx="67.26" cy="43.46" rx="3.33" ry="3.28"/>
	</g>
	<g>
		<path class="st3" d="M22.21,36.11c-1.36,0-2.47,1.09-2.47,2.43v9.82c0,1.34,1.11,2.43,2.47,2.43s2.47-1.09,2.47-2.43v-9.82
			C24.68,37.2,23.58,36.11,22.21,36.11z"/>
	</g>
	<g>
		<path class="st3" d="M13.35,36.11c-1.36,0-2.47,1.09-2.47,2.43v9.82c0,1.34,1.11,2.43,2.47,2.43s2.47-1.09,2.47-2.43v-9.82
			C15.82,37.2,14.72,36.11,13.35,36.11z"/>
	</g>
	<g>
		<path class="st3" d="M31.07,36.11c-1.36,0-2.47,1.09-2.47,2.43v9.82c0,1.34,1.11,2.43,2.47,2.43c1.36,0,2.47-1.09,2.47-2.43v-9.82
			C33.54,37.2,32.44,36.11,31.07,36.11z"/>
	</g>
	<g>
		<ellipse class="st3" cx="56.62" cy="43.46" rx="3.33" ry="3.28"/>
	</g>
	<g>
		<path class="st1" d="M83.14,56.1c0.61-0.51,0.99-1.26,0.99-2.1V32.92c0-1.52-1.25-2.75-2.8-2.75H3.3c-1.54,0-2.8,1.23-2.8,2.75
			v21.07c0,1.52,1.25,2.75,2.8,2.75h56.45c3.44-2.41,7.64-3.83,12.19-3.83C76.05,52.92,79.9,54.08,83.14,56.1z M15.82,48.37
			c0,1.34-1.11,2.43-2.47,2.43s-2.47-1.09-2.47-2.43v-9.82c0-1.34,1.11-2.43,2.47-2.43s2.47,1.09,2.47,2.43V48.37z M24.68,48.37
			c0,1.34-1.11,2.43-2.47,2.43s-2.47-1.09-2.47-2.43v-9.82c0-1.34,1.11-2.43,2.47-2.43s2.47,1.09,2.47,2.43V48.37z M33.54,48.37
			c0,1.34-1.11,2.43-2.47,2.43c-1.36,0-2.47-1.09-2.47-2.43v-9.82c0-1.34,1.11-2.43,2.47-2.43c1.36,0,2.47,1.09,2.47,2.43V48.37z
			 M56.62,46.74c-1.84,0-3.33-1.47-3.33-3.28c0-1.81,1.49-3.28,3.33-3.28c1.84,0,3.33,1.47,3.33,3.28
			C59.95,45.27,58.46,46.74,56.62,46.74z M67.26,46.74c-1.84,0-3.33-1.47-3.33-3.28c0-1.81,1.49-3.28,3.33-3.28
			c1.84,0,3.33,1.47,3.33,3.28C70.59,45.27,69.1,46.74,67.26,46.74z"/>
	</g>
	<g>
		<path class="st1" d="M55.81,60.34H3.3c-1.54,0-2.8,1.23-2.8,2.75v21.07c0,1.52,1.25,2.75,2.8,2.75h52.51
			c-3.06-3.6-4.9-8.23-4.9-13.29S52.75,63.94,55.81,60.34z M15.82,78.54c0,1.34-1.11,2.43-2.47,2.43s-2.47-1.09-2.47-2.43v-9.82
			c0-1.34,1.11-2.43,2.47-2.43s2.47,1.09,2.47,2.43V78.54z M24.68,78.54c0,1.34-1.11,2.43-2.47,2.43s-2.47-1.09-2.47-2.43v-9.82
			c0-1.34,1.11-2.43,2.47-2.43s2.47,1.09,2.47,2.43V78.54z M33.54,78.54c0,1.34-1.11,2.43-2.47,2.43c-1.36,0-2.47-1.09-2.47-2.43
			v-9.82c0-1.34,1.11-2.43,2.47-2.43c1.36,0,2.47,1.09,2.47,2.43V78.54z"/>
	</g>
	<g>
		<g>
			<path class="st0" d="M87.76,56.15c-0.62,0-1.41,0.07-2.35,0.22c-0.97,0.16-1.65,0.33-2.05,0.55c-0.4,0.21-1.01,0.74-1.87,1.63
				c-0.82,0.85-1.88,2.19-3.14,3.98c-1.25,1.78-2.36,3.51-3.29,5.15c-0.83,1.47-1.68,3.08-2.53,4.79c-0.59-0.74-1.22-1.34-1.86-1.77
				c-0.82-0.55-1.6-0.83-2.32-0.83c-0.74,0-1.55,0.32-2.4,0.95c-0.89,0.65-1.34,1.4-1.34,2.21c0,0.61,0.39,1.33,1.18,2.18
				c1.16,1.25,2.09,2.41,2.77,3.44c0.51,0.77,0.86,1.26,1.07,1.49c0.24,0.26,0.54,0.45,0.9,0.58c0.34,0.12,0.92,0.18,1.75,0.18
				c1.14,0,1.92-0.12,2.38-0.37c0.46-0.25,0.82-0.6,1.08-1.04c0.23-0.4,0.59-1.2,1.11-2.45c1.27-3.13,3.01-6.4,5.15-9.73
				c2.14-3.32,4.23-5.92,6.22-7.73c0.49-0.44,0.79-0.75,0.94-0.98c0.17-0.26,0.25-0.56,0.25-0.9c0-0.43-0.15-0.8-0.45-1.1
				C88.63,56.3,88.23,56.15,87.76,56.15z"/>
		</g>
	</g>
	<g>
		<path d="M71.87,91.91c-10.35,0-18.77-8.29-18.77-18.48s8.42-18.48,18.77-18.48c2.76,0,5.41,0.58,7.9,1.71l-0.52,1.1
			c-2.32-1.06-4.8-1.6-7.38-1.6c-9.67,0-17.54,7.75-17.54,17.27S62.2,90.7,71.87,90.7s17.54-7.75,17.54-17.27
			c0-3.37-0.99-6.64-2.85-9.45l1.03-0.66c2,3.01,3.06,6.5,3.06,10.11C90.64,83.62,82.22,91.91,71.87,91.91z"/>
	</g>
	<g>
		<polygon points="89.96,91.96 84.22,86.58 85.49,85.27 91.23,90.65 		"/>
	</g>
	<g>
		<polygon class="st2" points="96.28,100 86.7,90.79 89.92,87.54 99.5,96.75 		"/>
	</g>
</g>
</svg>
