<?xml version="1.0" encoding="utf-8"?>
<!-- Generator: Adobe Illustrator 25.0.0, SVG Export Plug-In . SVG Version: 6.00 Build 0)  -->
<svg version="1.1" id="Layer_1" xmlns="http://www.w3.org/2000/svg" xmlns:xlink="http://www.w3.org/1999/xlink" x="0px" y="0px"
	 viewBox="0 0 36 36" style="enable-background:new 0 0 36 36;" xml:space="preserve">
<style type="text/css">
	.st0{fill:#CB1618;}
	.st1{fill:#185ABD;}
	.st2{fill:#D83039;}
	.st3{fill:#103F91;}
	.st4{fill:#185C37;}
	.st5{fill:#33C481;}
	.st6{fill:#107C41;}
	.st7{fill:#21A366;}
	.st8{fill:#0B4A99;}
	.st9{fill:none;}
	.st10{fill:#FFFFFF;}
	.st11{fill:#41A5EE;}
	.st12{fill:#2B7CD3;}
	.st13{opacity:0.5;enable-background:new    ;}
	.st14{fill:url(#SVGID_1_);}
	.st15{fill:url(#SVGID_2_);}
	.st16{fill:url(#SVGID_3_);}
	.st17{fill:url(#SVGID_4_);}
	.st18{fill:#E24951;}
	.st19{fill-rule:evenodd;clip-rule:evenodd;}
	.st20{fill:#262625;}
	.st21{fill:none;stroke:#000000;stroke-width:0.75;stroke-miterlimit:10;}
	.st22{fill:none;stroke:#000000;stroke-width:1.2;stroke-miterlimit:10;}
	.st23{fill-rule:evenodd;clip-rule:evenodd;fill:#0B4A99;}
	.st24{fill:none;stroke:#0071C5;stroke-width:1.3;stroke-linecap:round;stroke-miterlimit:10;}
	.st25{fill:none;stroke:#F0AB00;stroke-width:1.3;stroke-miterlimit:10;}
	.st26{fill:#1C55A6;}
	.st27{fill:none;stroke:#1C55A6;stroke-width:1.3;stroke-linecap:round;}
	.st28{fill-rule:evenodd;clip-rule:evenodd;fill:none;stroke:#1C55A6;stroke-width:1.3;stroke-linecap:round;}
	.st29{fill:none;stroke:#1C55A6;stroke-width:1.3;stroke-linecap:round;stroke-miterlimit:10;}
	.st30{fill:none;stroke:#231F20;}
	.st31{fill:none;stroke:#0B4A99;stroke-width:1.3;stroke-miterlimit:10;}
</style>
<g>
	<g>
		<path class="st8" d="M9.9,4.2c-0.3,0-0.5-0.2-0.5-0.5V2.5c0-0.8,0.6-1.4,1.4-1.4h10.8c0.3,0,0.5,0.2,0.5,0.5s-0.2,0.5-0.5,0.5
			H10.8c-0.2,0-0.4,0.2-0.4,0.4v1.2C10.4,3.9,10.2,4.2,9.9,4.2z"/>
	</g>
	<g>
		<path class="st8" d="M12.4,28.5H2.7c-1.5,0-2.6-1.2-2.6-2.6v-9.5c0-1.4,1.1-2.5,2.5-2.5h9.4c0.8,0,1.5-0.4,1.9-1.1l1-2
			c0.5-0.9,1.4-1.4,2.3-1.4h4c1.4,0,2.5,1.1,2.5,2.5v1.7l-0.4,0.1c-0.4,0.1-10.3,1.7-10.6,12.2c0,0.6,0,1.3,0.2,2.1l0.1,0.3
			l-0.4,0.3L12.4,28.5z M2.6,14.8c-0.8,0-1.5,0.7-1.5,1.5v9.5c0,0.9,0.7,1.7,1.7,1.7h9.2c-0.1-0.7-0.1-1.2-0.1-1.8
			c0.3-10.1,9-12.6,11-13.1v-0.9c0-0.8-0.7-1.5-1.5-1.5h-4c-0.6,0-1.2,0.3-1.5,0.9l-1,2c-0.5,1-1.6,1.7-2.7,1.7H2.6z"/>
	</g>
	<g>
		<path class="st8" d="M32.4,14.7l-0.3-0.1c-2.1-1.1-4.4-1.5-6.8-1.5l-0.6,0v-1.6c0-1.9-1.6-3.5-3.5-3.5h-5.5c-0.6,0-1,0.5-1,1v0.6
			H6.1V8.3c0-1.7,1.4-3.2,3.2-3.2h10.2c1.5,0,2.7-0.9,3.2-2.3c0.2-0.4,0.3-0.9,0.4-1.5C23.3,0.6,24,0,24.9,0h5.3
			C31.7,0,33,1.3,33,2.8v11.6L32.4,14.7z M26,12c2.1,0,4,0.4,5.9,1.2V2.8c0-1-0.8-1.7-1.7-1.7h-5.3c-0.3,0-0.6,0.2-0.7,0.5
			c-0.1,0.6-0.3,1.1-0.4,1.6c-0.6,1.8-2.3,3-4.3,3H9.3c-1.1,0-2.1,0.9-2.1,2.1v0.2h6.6c0.2-0.9,1.1-1.6,2.1-1.6h5.5
			c2.5,0,4.6,2.1,4.6,4.6L26,12C25.9,12,26,12,26,12z"/>
	</g>
	<g>
		<path class="st8" d="M2.1,13.6c-0.3,0-0.5-0.2-0.5-0.5v-1c0-0.8,0.7-1.5,1.5-1.5h10.6c0.3,0,0.5,0.2,0.5,0.5
			c0,0.3-0.2,0.5-0.5,0.5H3.1c-0.3,0-0.5,0.2-0.5,0.5v1C2.6,13.4,2.4,13.6,2.1,13.6z"/>
	</g>
	<g>
		<path class="st8" d="M25.3,36C19.6,36,15,31.4,15,25.7c0-5.7,4.6-10.3,10.3-10.3c1.9,0,3.7,0.5,5.3,1.5c0.2,0.1,0.3,0.4,0.2,0.7
			c-0.1,0.2-0.4,0.3-0.7,0.2c-1.4-0.9-3.1-1.3-4.8-1.3c-5.1,0-9.3,4.2-9.3,9.3s4.2,9.3,9.3,9.3s9.3-4.2,9.3-9.3
			c0-0.8-0.1-1.6-0.3-2.4c-0.1-0.3,0.1-0.5,0.3-0.6c0.3-0.1,0.5,0.1,0.6,0.3c0.2,0.9,0.4,1.8,0.4,2.7C35.5,31.4,30.9,36,25.3,36z"/>
	</g>
	<g>
		<path class="st8" d="M24.8,30.3c0,0-0.1,0-0.1,0c-0.2-0.1-0.2-0.1-4.8-5.7c-0.2-0.2-0.1-0.5,0.1-0.7c0.2-0.2,0.5-0.1,0.7,0.1
			c1.3,1.6,3.4,4.1,4.2,5.1c1.4-1.7,6.7-8.7,10.3-13.4c0.2-0.2,0.5-0.3,0.7-0.1c0.2,0.2,0.3,0.5,0.1,0.7
			C26.1,29.1,25.2,30.3,24.8,30.3z"/>
	</g>
</g>
</svg>
