<svg id="Layer_1" data-name="Layer 1" xmlns="http://www.w3.org/2000/svg" viewBox="0 0 36 36"><defs><style>.cls-1{fill:#0b4a99;}</style></defs><path class="cls-1" d="M30.81,29.41h-3.1V28.25h3.1A1.22,1.22,0,0,0,32,27V9.79a2.76,2.76,0,0,0-.9-1.91l-7.27-6a3.64,3.64,0,0,0-2.06-.74H10.36A1.21,1.21,0,0,0,9.15,2.37V7.25H8V2.37A2.38,2.38,0,0,1,10.36,0H21.79a4.87,4.87,0,0,1,2.8,1l7.27,6a3.92,3.92,0,0,1,1.32,2.81V27A2.38,2.38,0,0,1,30.81,29.41Z"/><path class="cls-1" d="M25.64,36H5.19a2.31,2.31,0,0,1-2.37-2.43V9A2.38,2.38,0,0,1,5.19,6.59H16.63a4.86,4.86,0,0,1,2.79,1l7.27,6A3.93,3.93,0,0,1,28,16.38V33.63A2.38,2.38,0,0,1,25.64,36ZM5.19,7.75A1.22,1.22,0,0,0,4,9v24.6a1.14,1.14,0,0,0,1.21,1.27H25.64a1.22,1.22,0,0,0,1.22-1.21V16.38A2.84,2.84,0,0,0,26,14.46l-7.27-6a3.63,3.63,0,0,0-2.05-.74Z"/><path class="cls-1" d="M17,15.39H6.72a.58.58,0,0,1,0-1.16H17a.58.58,0,0,1,0,1.16Z"/><path class="cls-1" d="M17,19.7H6.72a.58.58,0,0,1,0-1.16H17a.58.58,0,1,1,0,1.16Z"/><path class="cls-1" d="M12.75,30.05a4.12,4.12,0,1,1,4.12-4.12A4.12,4.12,0,0,1,12.75,30.05Zm0-7.08a3,3,0,1,0,3,3A3,3,0,0,0,12.75,23Z"/><path class="cls-1" d="M19.62,33.42a.58.58,0,0,1-.41-.17l-4.4-4.39a.59.59,0,0,1,0-.82.59.59,0,0,1,.83,0L20,32.43a.57.57,0,0,1,0,.82A.58.58,0,0,1,19.62,33.42Z"/></svg>