<?xml version="1.0" encoding="utf-8"?>
<!-- Generator: Adobe Illustrator 25.2.0, SVG Export Plug-In . SVG Version: 6.00 Build 0)  -->
<svg version="1.1" id="Layer_1" xmlns="http://www.w3.org/2000/svg" xmlns:xlink="http://www.w3.org/1999/xlink" x="0px" y="0px"
	 viewBox="0 0 36 36" style="enable-background:new 0 0 36 36;" xml:space="preserve">
<style type="text/css">
	.st0{fill:#0B4A99;}
</style>
<g>
	<g>
		<polygon class="st0" points="31.81,28.92 26.01,28.92 26.01,28.07 30.95,28.07 30.95,6.52 26.12,0.86 10.42,0.86 10.42,7.5 
			9.56,7.5 9.56,0 26.52,0 31.81,6.2 		"/>
	</g>
	<g>
		<polygon class="st0" points="31.38,7.04 25.89,7.04 25.89,0.43 26.75,0.43 26.75,6.18 31.38,6.18 		"/>
	</g>
	<g>
		<path class="st0" d="M26.44,36H4.19V7.08h16.95l5.29,6.21V36z M5.05,35.14h20.54V13.6l-4.83-5.66H5.05V35.14z"/>
	</g>
	<g>
		<polygon class="st0" points="26.01,14.12 20.52,14.12 20.52,7.5 21.37,7.5 21.37,13.26 26.01,13.26 		"/>
	</g>
	<g>
		<rect x="6.47" y="14.55" class="st0" width="11.79" height="0.86"/>
	</g>
	<g>
		<rect x="6.47" y="19.2" class="st0" width="11.79" height="0.86"/>
	</g>
	<g>
		<path class="st0" d="M13.03,31.29c-0.87,0-1.72-0.25-2.46-0.74c-1-0.66-1.69-1.67-1.93-2.85c-0.24-1.17-0.01-2.37,0.65-3.37
			c0.66-1,1.67-1.69,2.85-1.93c1.17-0.24,2.37-0.01,3.37,0.65c1,0.66,1.69,1.67,1.93,2.85l0,0c0.24,1.17,0.01,2.37-0.65,3.37
			c-0.66,1-1.67,1.69-2.85,1.93C13.64,31.26,13.34,31.29,13.03,31.29z M13.05,23.16c-0.25,0-0.49,0.03-0.74,0.08
			c-0.95,0.2-1.77,0.75-2.3,1.56c-0.53,0.81-0.72,1.78-0.53,2.73c0.2,0.95,0.75,1.77,1.56,2.3c0.81,0.53,1.78,0.72,2.73,0.53
			c1.96-0.4,3.23-2.33,2.83-4.29l0,0c-0.2-0.95-0.75-1.77-1.56-2.3C14.44,23.36,13.76,23.16,13.05,23.16z"/>
	</g>
	<g>
		
			<rect x="17.67" y="28.57" transform="matrix(0.703 -0.7112 0.7112 0.703 -16.8219 22.1421)" class="st0" width="0.86" height="5.28"/>
	</g>
</g>
</svg>
