<?xml version="1.0" encoding="iso-8859-1"?>
<!-- Generator: Adobe Illustrator 12.0.0, SVG Export Plug-In . SVG Version: 6.00 Build 51448)  -->
<!DOCTYPE svg PUBLIC "-//W3C//DTD SVG 1.1//EN" "http://www.w3.org/Graphics/SVG/1.1/DTD/svg11.dtd" [
	<!ENTITY ns_svg "http://www.w3.org/2000/svg">
	<!ENTITY ns_xlink "http://www.w3.org/1999/xlink">
]>
<svg  version="1.1" id="Layer_1" xmlns="&ns_svg;" xmlns:xlink="&ns_xlink;" width="22.11" height="22.11"
	 viewBox="0 0 22.11 22.11" style="overflow:visible;enable-background:new 0 0 22.11 22.11;" xml:space="preserve">
<g>
	<rect style="fill:none;" width="22.11" height="22.11"/>
	<g>
		<path style="fill:#3277BC;" d="M8.83,5.614C7.979,6.581,7.536,7.696,7.368,8.96c2.563,0,5.096,0,7.649,0
			c0-0.187,0.008-0.377-0.003-0.566c-0.052-0.824-0.229-1.616-0.681-2.322c-0.604-0.947-1.51-1.417-2.586-1.592
			c-1.564-0.25-3.075,0.015-4.541,0.55C5.06,5.811,3.259,7.089,1.824,8.874c-0.24,0.298-0.457,0.619-0.721,0.983
			c0.023-0.18,0.034-0.312,0.055-0.439c0.309-2.066,1.053-3.95,2.393-5.568c1.573-1.903,3.602-3.028,6.034-3.421
			c2.368-0.381,4.609,0.001,6.69,1.208C18.191,2.745,19.51,4.371,20.3,6.43c0.454,1.188,0.675,2.421,0.686,3.693
			c0.009,0.8,0.018,1.603,0.023,2.401c0.003,0.082,0,0.16,0,0.272c-4.527,0-9.033,0-13.556,0c0.005,1.111,0.329,2.067,1.076,2.867
			c0.866,0.922,1.979,1.371,3.199,1.549c2.56,0.374,4.969-0.094,7.221-1.378c0.057-0.032,0.114-0.066,0.174-0.098
			c0.006-0.003,0.014-0.003,0.047-0.006c0.005,0.078,0.016,0.155,0.016,0.231c0,1.367-0.003,2.734,0.003,4.098
			c0,0.156-0.052,0.239-0.19,0.307c-1.61,0.806-3.319,1.263-5.112,1.401c-1.144,0.088-2.282,0.088-3.414-0.141
			c-3.402-0.689-6.119-3.181-6.742-6.688C3.017,10.94,4.921,7.247,8.745,5.615C8.759,5.608,8.775,5.614,8.83,5.614z"/>
	</g>
</g>
</svg>
