<?xml version="1.0" encoding="utf-8"?>
<!-- Generator: Adobe Illustrator 25.0.0, SVG Export Plug-In . SVG Version: 6.00 Build 0)  -->
<svg version="1.1" id="Layer_1" xmlns="http://www.w3.org/2000/svg" xmlns:xlink="http://www.w3.org/1999/xlink" x="0px" y="0px"
	 viewBox="0 0 36 36" style="enable-background:new 0 0 36 36;" xml:space="preserve">
<style type="text/css">
	.st0{fill:#0B4A99;}
</style>
<g>
	<g>
		<path class="st0" d="M12.3,32.3h-9c-0.9,0-1.6-0.7-1.6-1.6v-29C1.6,0.7,2.3,0,3.2,0h25.6c0.9,0,1.6,0.7,1.6,1.6v10.1h-1.3V1.6
			c0-0.2-0.2-0.4-0.4-0.4H3.2C3,1.3,2.8,1.4,2.8,1.6v29C2.8,30.9,3,31,3.2,31h9V32.3z"/>
	</g>
	<g>
		<rect x="2.3" y="6.8" class="st0" width="27.5" height="1.3"/>
	</g>
	<g>
		<rect x="2.3" y="14.9" class="st0" width="23.1" height="1.3"/>
	</g>
	<g>
		<rect x="15.9" y="7.3" class="st0" width="1.3" height="19.5"/>
	</g>
	<g>
		<rect x="2.3" y="22.9" class="st0" width="17" height="1.3"/>
	</g>
	<g>
		<path class="st0" d="M33.3,17.3l-3.5-2.8l0.7-0.8c0.3-0.4,0.8-0.7,1.4-0.8c0.5-0.1,1.1,0.1,1.5,0.4l0.3,0.3c0.9,0.7,1,2,0.3,2.8
			L33.3,17.3z M31.6,14.3l1.5,1.2c0.1-0.3,0.1-0.7-0.2-0.9l-0.3-0.3c-0.2-0.1-0.4-0.2-0.6-0.2C31.8,14.2,31.7,14.2,31.6,14.3z"/>
	</g>
	<g>
		<path class="st0" d="M16.2,36c-0.2,0-0.3-0.1-0.5-0.2c-0.2-0.2-0.3-0.5-0.2-0.8l1.5-4.4l12.5-15.8l3.5,2.8L20.4,33.4l-3.9,2.5
			C16.4,36,16.3,36,16.2,36z M18,31.3L17.1,34l2.6-1.6l11.6-14.6l-1.6-1.2L18,31.3z"/>
	</g>
</g>
</svg>
