<?xml version="1.0" encoding="iso-8859-1"?>
<!-- Generator: Adobe Illustrator 12.0.0, SVG Export Plug-In . SVG Version: 6.00 Build 51448)  -->
<!DOCTYPE svg PUBLIC "-//W3C//DTD SVG 1.1//EN" "http://www.w3.org/Graphics/SVG/1.1/DTD/svg11.dtd" [
	<!ENTITY ns_svg "http://www.w3.org/2000/svg">
	<!ENTITY ns_xlink "http://www.w3.org/1999/xlink">
]>
<svg  version="1.1" id="Layer_1" xmlns="&ns_svg;" xmlns:xlink="&ns_xlink;" width="49.888" height="49.89"
	 viewBox="0 0 49.888 49.89" style="overflow:visible;enable-background:new 0 0 49.888 49.89;" xml:space="preserve">
<g>
	<path style="fill:#0071C5;" d="M46.204,6.772H3.681c-1.838,0-3.327,1.49-3.327,3.328v29.687c0,1.838,1.489,3.33,3.327,3.33h42.523
		c1.84,0,3.33-1.492,3.33-3.33V10.101C49.534,8.263,48.044,6.772,46.204,6.772z M46.745,38.013c0.512,0.461,0.555,1.252,0.094,1.764
		c-0.248,0.274-0.588,0.414-0.932,0.414c-0.295,0-0.594-0.105-0.832-0.318L30.333,26.626l-4.555,4.091
		c-0.237,0.214-0.537,0.319-0.835,0.319c-0.299,0-0.598-0.105-0.835-0.319l-4.555-4.094L4.812,39.87
		c-0.238,0.215-0.537,0.32-0.834,0.32c-0.341,0-0.683-0.14-0.928-0.414c-0.461-0.512-0.421-1.303,0.093-1.762l14.543-13.07
		L3.143,11.877c-0.514-0.462-0.554-1.25-0.095-1.764c0.463-0.512,1.251-0.553,1.764-0.094L24.943,28.11L45.075,10.02
		c0.512-0.459,1.301-0.418,1.764,0.094c0.461,0.514,0.418,1.302-0.094,1.764L32.202,24.944L46.745,38.013z"/>
	<rect style="fill:none;" width="49.888" height="49.89"/>
</g>
</svg>
