<?xml version="1.0" encoding="utf-8"?>
<!-- Generator: Adobe Illustrator 25.0.0, SVG Export Plug-In . SVG Version: 6.00 Build 0)  -->
<svg version="1.1" id="Layer_1" xmlns="http://www.w3.org/2000/svg" xmlns:xlink="http://www.w3.org/1999/xlink" x="0px" y="0px"
	 viewBox="0 0 20 20" style="enable-background:new 0 0 20 20;" xml:space="preserve">
<style type="text/css">
	.st0{fill:#40875E;}
	.st1{fill:#F0AB00;}
	.st2{fill:#A8A240;}
</style>
<g>
	<path class="st2" d="M3.6,6.6c0.3,0,0.6,0,0.9,0c0.3,0,0.4,0.1,0.4,0.5c0,0.5,0,0.9,0,1.4c0,0.3-0.1,0.5-0.4,0.5C3.9,9,3.3,9,2.7,9
		C2.4,9,2.3,8.8,2.3,8.5c0-0.5,0-1,0-1.5c0-0.3,0.1-0.4,0.4-0.4C3,6.6,3.3,6.6,3.6,6.6C3.6,6.6,3.6,6.6,3.6,6.6z"/>
	<path class="st2" d="M7.4,6.6c0.3,0,0.6,0,0.9,0c0.3,0,0.4,0.1,0.4,0.5c0,0.5,0,0.9,0,1.4c0,0.3-0.1,0.5-0.4,0.5C7.7,9,7.1,9,6.5,9
		C6.3,9,6.1,8.8,6.1,8.5c0-0.5,0-1,0-1.5c0-0.3,0.1-0.4,0.4-0.4C6.8,6.6,7.1,6.6,7.4,6.6C7.4,6.6,7.4,6.6,7.4,6.6z"/>
	<path class="st2" d="M3.6,10.9c0.3,0,0.6,0,0.9,0c0.3,0,0.4,0.1,0.4,0.5c0,0.5,0,0.9,0,1.4c0,0.3-0.1,0.5-0.4,0.5
		c-0.6,0-1.2,0-1.8,0c-0.2,0-0.4-0.1-0.4-0.4c0-0.5,0-1,0-1.5c0-0.3,0.1-0.4,0.4-0.4C3,10.9,3.3,10.9,3.6,10.9
		C3.6,10.9,3.6,10.9,3.6,10.9z"/>
	<path class="st2" d="M7.4,10.9c0.3,0,0.6,0,0.9,0c0.3,0,0.4,0.1,0.4,0.5c0,0.5,0,0.9,0,1.4c0,0.3-0.1,0.5-0.4,0.5
		c-0.6,0-1.2,0-1.8,0c-0.2,0-0.4-0.1-0.4-0.4c0-0.5,0-1,0-1.5c0-0.3,0.1-0.4,0.4-0.4C6.8,10.9,7.1,10.9,7.4,10.9
		C7.4,10.9,7.4,10.9,7.4,10.9z"/>
	<path class="st2" d="M11.3,6.6c0.3,0,0.6,0,0.9,0c0.3,0,0.4,0.1,0.4,0.5c0,0.5,0,0.9,0,1.4c0,0.3-0.1,0.5-0.4,0.5
		c-0.6,0-1.2,0-1.8,0C10.1,9,10,8.8,9.9,8.5c0-0.5,0-1,0-1.5c0-0.3,0.1-0.4,0.4-0.4C10.6,6.6,10.9,6.6,11.3,6.6
		C11.3,6.6,11.3,6.6,11.3,6.6z"/>
	<path class="st2" d="M15.1,6.6c0.3,0,0.6,0,0.9,0c0.3,0,0.4,0.1,0.4,0.5c0,0.5,0,0.9,0,1.4c0,0.3-0.1,0.5-0.4,0.5
		c-0.6,0-1.2,0-1.8,0c-0.2,0-0.4-0.1-0.4-0.4c0-0.5,0-1,0-1.5c0-0.3,0.1-0.4,0.4-0.4C14.5,6.6,14.8,6.6,15.1,6.6
		C15.1,6.6,15.1,6.6,15.1,6.6z"/>
	<polygon class="st0" points="13,15 13.6,14.4 14.8,15.4 17.5,12.7 18,13.3 14.8,16.6 	"/>
	<path class="st0" d="M5.3,4.9h-2C3.1,4.9,3,4.8,3,4.7V1.2C3,1,3.1,0.9,3.3,0.9h2c0.2,0,0.3,0.1,0.3,0.3v3.5
		C5.5,4.8,5.4,4.9,5.3,4.9z"/>
	<path class="st0" d="M15.5,4.9h-2c-0.2,0-0.3-0.1-0.3-0.3V1.2c0-0.2,0.1-0.3,0.3-0.3h2c0.2,0,0.3,0.1,0.3,0.3v3.5
		C15.8,4.8,15.7,4.9,15.5,4.9z"/>
	<path class="st2" d="M9.3,15.5H2.5c-0.1,0-0.3-0.1-0.3-0.3v0c0-0.1,0.1-0.3,0.3-0.3h6.8c0.1,0,0.3,0.1,0.3,0.3v0
		C9.6,15.4,9.5,15.5,9.3,15.5z"/>
	<path class="st0" d="M0.7,16.5V3.2h17.5v8.1l0.7,0.8V3c0-0.3-0.2-0.5-0.5-0.5H0.5C0.2,2.5,0,2.7,0,3v13.7c0,0.3,0.2,0.5,0.5,0.5
		h12.3l-0.7-0.7H0.7z"/>
	<path class="st1" d="M15.5,19.1c-2.5,0-4.5-2-4.5-4.5s2-4.5,4.5-4.5s4.5,2,4.5,4.5S18,19.1,15.5,19.1z M15.5,10.9
		c-2,0-3.7,1.6-3.7,3.7c0,2,1.6,3.7,3.7,3.7s3.7-1.6,3.7-3.7C19.1,12.5,17.5,10.9,15.5,10.9z"/>
</g>
</svg>
