<?xml version="1.0" encoding="utf-8"?>
<!-- Generator: Adobe Illustrator 25.0.0, SVG Export Plug-In . SVG Version: 6.00 Build 0)  -->
<svg version="1.1" id="Layer_1" xmlns="http://www.w3.org/2000/svg" xmlns:xlink="http://www.w3.org/1999/xlink" x="0px" y="0px"
	 viewBox="0 0 24 24" style="enable-background:new 0 0 24 24;" xml:space="preserve">
<style type="text/css">
	.st0{fill:#4D245A;}
	.st1{fill:#5C2E6D;}
	.st2{fill:#713C84;}
	.st3{fill:#945EA3;}
</style>
<path class="st0" d="M18.5,10.3h-1.5c-0.2,0-0.3-0.1-0.4-0.3c-0.2-0.6-0.4-1.1-0.7-1.6C15.8,8.2,15.8,8,16,7.9L17,6.8
	c0.2-0.2,0.2-0.4,0-0.6l-1.9-1.9c-0.2-0.2-0.4-0.2-0.6,0l-1.1,1.1c-0.1,0.1-0.3,0.2-0.5,0.1c-0.5-0.3-1-0.5-1.6-0.7
	c-0.2,0-0.3-0.2-0.3-0.4V3c0-0.2-0.2-0.4-0.4-0.4H8.1C7.9,2.6,7.7,2.7,7.7,3v1.5c0,0.2-0.1,0.3-0.3,0.4C6.9,5,6.3,5.3,5.8,5.5
	C5.7,5.6,5.5,5.6,5.3,5.5L4.3,4.4c-0.2-0.2-0.4-0.2-0.6,0L1.8,6.3c-0.2,0.2-0.2,0.4,0,0.6l1.1,1.1C3,8,3.1,8.2,3,8.4
	c-0.3,0.5-0.5,1-0.7,1.6c0,0.2-0.2,0.3-0.4,0.3H0.4c-0.2,0-0.4,0.2-0.4,0.4v2.7c0,0.2,0.2,0.4,0.4,0.4h1.5c0.2,0,0.3,0.1,0.4,0.3
	c0.2,0.6,0.4,1.1,0.7,1.6C3.1,15.8,3,16,2.9,16.1l-1.1,1.1c-0.2,0.2-0.2,0.4,0,0.6l1.9,1.9c0.2,0.2,0.4,0.2,0.6,0l1.1-1.1
	c0.1-0.1,0.3-0.2,0.5-0.1c0.5,0.3,1,0.5,1.6,0.7c0.2,0,0.3,0.2,0.3,0.4V21c0,0.2,0.2,0.4,0.4,0.4h2.6c0.2,0,0.4-0.2,0.4-0.4v-1.5
	c0-0.2,0.1-0.3,0.3-0.4c0.6-0.2,1.1-0.4,1.6-0.7c0.2-0.1,0.4-0.1,0.5,0.1l1.1,1.1c0.2,0.2,0.4,0.2,0.6,0l1.9-1.9
	c0.2-0.2,0.2-0.4,0-0.6L16,16.1c-0.1-0.1-0.2-0.3-0.1-0.5c0.3-0.5,0.5-1,0.7-1.6c0-0.2,0.2-0.3,0.4-0.3h1.5c0.2,0,0.4-0.2,0.4-0.4
	v-2.7C18.9,10.5,18.7,10.3,18.5,10.3 M9.4,15.9c-2.1,0-3.9-1.7-3.9-3.9c0-2.1,1.7-3.9,3.9-3.9c2.1,0,3.9,1.7,3.9,3.9
	C13.3,14.1,11.6,15.9,9.4,15.9"/>
<path class="st1" d="M17.4,14.7c-0.2,0-0.4,0-0.6-0.1c-0.1,0.4-0.3,0.8-0.5,1.2l1.1,1.1c0.3,0.3,0.3,0.8,0,1.1l-0.6,0.6h1.6
	c0.2,0,0.3-0.1,0.3-0.3v-1.1c0-0.1,0.1-0.2,0.2-0.3c0.4-0.1,0.8-0.3,1.1-0.5c0.1-0.1,0.2,0,0.3,0l0.8,0.8c0.1,0.1,0.3,0.1,0.4,0
	l0.6-0.6l-2.7-2.9C18.9,14.4,18.2,14.7,17.4,14.7z"/>
<path class="st2" d="M23.7,10.8h-1.1c-0.1,0-0.2-0.1-0.3-0.2c-0.1-0.4-0.3-0.8-0.5-1.1c-0.1-0.1,0-0.2,0-0.3l0.8-0.8
	c0.1-0.1,0.1-0.3,0-0.4l-0.6-0.6l-2.7,2.9c0.4,0.5,0.7,1.1,0.7,1.8c0,0.7-0.3,1.4-0.7,1.8l2.7,2.9l0.7-0.7c0.1-0.1,0.1-0.3,0-0.4
	L22,14.9c-0.1-0.1-0.1-0.2,0-0.3c0.2-0.3,0.4-0.7,0.5-1.1c0-0.1,0.1-0.2,0.3-0.2h1.1c0.2,0,0.3-0.1,0.3-0.3v-1.9
	C24,10.9,23.9,10.8,23.7,10.8z"/>
<path class="st3" d="M21.4,6.7c-0.1-0.1-0.3-0.1-0.4,0l-0.8,0.8c-0.1,0.1-0.2,0.1-0.3,0c-0.3-0.2-0.7-0.3-1.1-0.5
	c-0.1,0-0.2-0.1-0.2-0.3V5.7c0-0.2-0.1-0.3-0.3-0.3h-1.6L17.3,6c0.3,0.3,0.3,0.8,0,1.1l-1.1,1.1c0.2,0.4,0.4,0.8,0.5,1.2
	c0.2,0,0.4-0.1,0.6-0.1c0.8,0,1.5,0.3,2,0.9l2.7-2.9L21.4,6.7z"/>
</svg>
