<?xml version="1.0" encoding="utf-8"?>
<!-- Generator: Adobe Illustrator 25.0.0, SVG Export Plug-In . SVG Version: 6.00 Build 0)  -->
<svg version="1.1" id="Layer_1" xmlns="http://www.w3.org/2000/svg" xmlns:xlink="http://www.w3.org/1999/xlink" x="0px" y="0px"
	 viewBox="0 0 100 100" style="enable-background:new 0 0 100 100;" xml:space="preserve">
<style type="text/css">
	.st0{fill:#FFFFFF;stroke:#FFFFFF;stroke-width:3;}
	.st1{fill:#FFFFFF;}
	.st2{fill:none;}
</style>
<path class="st1" d="M86.7,46.1c0-9.8-8-17.7-17.8-17.7c-1.2,0-2.3,0.1-3.6,0.4C59.8,21.4,51,17.1,41.9,17.1c-7.9,0-15.4,3.1-21,8.7
	c-5.5,5.5-8.6,12.9-8.7,20.7C4.9,49.5,0,56.7,0,64.6c0,10.8,8.8,19.6,19.6,19.6h60.9c10.8,0,19.6-8.8,19.6-19.6
	C100,56.3,94.6,48.7,86.7,46.1z M14,48.7l0.9-0.3l-0.1-1.6c0-14.9,12.1-27,27-27c8.6,0,16.8,4.2,21.9,11.3l0.5,0.7l0.9-0.2
	c1.4-0.4,2.6-0.6,3.8-0.6c8.3,0,15.1,6.8,15.1,15.1c0,0.3,0,0.6,0,0.9L84,48l1,0.3c7.3,2,12.3,8.7,12.3,16.2
	c0,9.3-7.6,16.9-16.9,16.9H19.6c-9.3,0-16.9-7.6-16.9-16.9C2.7,57.4,7.2,51.1,14,48.7L14,48.7z"/>
<g>
	<rect x="44.9" y="46.2" class="st1" width="6.8" height="2.8"/>
</g>
<g>
	<rect x="44.9" y="52.7" class="st1" width="6.8" height="2.8"/>
</g>
<g>
	<polygon class="st1" points="59,55.5 52.2,55.5 52.2,52.7 59,52.7 59,55.5 	"/>
</g>
<path class="st1" d="M64.9,42.7c0-0.2-0.1-0.4-0.2-0.6l-8.6-9.8c0,0,0,0,0,0c0-0.1-0.1-0.1-0.2-0.1c0,0,0,0-0.1,0
	c-0.1,0-0.1-0.1-0.2-0.1c0,0,0,0-0.1,0c-0.1,0-0.1,0-0.2,0H34.3c-1,0-1.7,0.8-1.7,1.7v41.1c0,1,0.8,1.8,1.7,1.8h28.9
	c1,0,1.7-0.8,1.7-1.8L64.9,42.7C64.9,42.8,64.9,42.8,64.9,42.7L64.9,42.7z M39.9,73.4l-0.8-1.5c-0.3-0.6-0.5-1-0.8-1.5h0
	c-0.2,0.5-0.4,0.9-0.6,1.5L37,73.4h-2.2l2.4-4.3L34.9,65h2.2l0.7,1.5c0.2,0.5,0.4,0.9,0.6,1.4h0c0.2-0.5,0.4-0.9,0.6-1.4l0.7-1.5H42
	l-2.4,4.1l2.5,4.3H39.9z M48.4,73.4h-5.3V65H45v6.8h3.3V73.4z M51.5,73.5c-1,0-1.9-0.3-2.4-0.5l0.4-1.6c0.5,0.3,1.3,0.5,2.1,0.5
	c0.9,0,1.3-0.4,1.3-0.9c0-0.5-0.4-0.8-1.4-1.2c-1.4-0.5-2.3-1.3-2.3-2.5c0-1.4,1.2-2.5,3.2-2.5c0.9,0,1.6,0.2,2.1,0.4l-0.4,1.5
	c-0.3-0.2-0.9-0.4-1.8-0.4c-0.8,0-1.2,0.4-1.2,0.8c0,0.5,0.5,0.8,1.6,1.2c1.5,0.5,2.2,1.3,2.2,2.5C54.9,72.3,53.8,73.5,51.5,73.5
	L51.5,73.5z M60.6,73.4l-0.8-1.5c-0.3-0.6-0.5-1-0.8-1.5h0c-0.2,0.5-0.4,0.9-0.6,1.5l-0.7,1.5h-2.2l2.4-4.3L55.7,65h2.2l0.7,1.5
	c0.2,0.5,0.4,0.9,0.6,1.4h0c0.2-0.5,0.4-0.9,0.6-1.4l0.7-1.5h2.2l-2.4,4.1l2.5,4.3H60.6z M34.3,61.8v-28h20.3v9
	c0,0.5,0.4,0.9,0.9,0.9h7.7v18.1H34.3z"/>
<g>
	<path class="st1" d="M59.7,59.5H37V45.5h22.7V59.5z M37.5,59h21.7V46H37.5V59z"/>
</g>
<g>
	<path class="st1" d="M52,52.5h-7.3v-3.4H52V52.5z M45.2,52h6.3v-2.3h-6.3V52z"/>
</g>
<g>
	<path class="st1" d="M44.7,49.3h-7.3v-3.4h7.3V49.3z M37.9,48.7h6.3v-2.3h-6.3V48.7z"/>
</g>
<g>
	<path class="st1" d="M44.7,52.5h-7.3v-3.4h7.3V52.5z M37.9,52h6.3v-2.3h-6.3V52z"/>
</g>
<g>
	<path class="st1" d="M44.7,55.8h-7.3v-3.4h7.3V55.8z M37.9,55.3h6.3V53h-6.3V55.3z"/>
</g>
<g>
	<path class="st1" d="M44.7,59.1h-7.3v-3.3h7.3V59.1z M37.9,58.6h6.3v-2.3h-6.3V58.6z"/>
</g>
<g>
	<path class="st1" d="M52,59.1h-7.3v-3.3H52V59.1z M45.2,58.6h6.3v-2.3h-6.3V58.6z"/>
</g>
<g>
	<path class="st1" d="M59,59.1h-7.1v-3.3h7.3v3.1H59V59.1z M52.4,58.6h6.3v-2.3h-6.3V58.6z"/>
</g>
<g>
	<path class="st1" d="M59,52.5h-7.1v-3.4h7.3v3.1H59V52.5z M52.4,52h6.3v-2.3h-6.3V52z"/>
</g>
<g>
	<path class="st1" d="M59.2,49.3h-7.3v-3.4h7.3V49.3z M52.4,48.7h6.3v-2.3h-6.3V48.7z"/>
</g>
</svg>
