<?xml version="1.0" encoding="utf-8"?>
<!-- Generator: Adobe Illustrator 25.0.0, SVG Export Plug-In . SVG Version: 6.00 Build 0)  -->
<svg version="1.1" id="Layer_1" xmlns="http://www.w3.org/2000/svg" xmlns:xlink="http://www.w3.org/1999/xlink" x="0px" y="0px"
	 viewBox="0 0 36 36" style="enable-background:new 0 0 36 36;" xml:space="preserve">
<style type="text/css">
	.st0{fill:#CB1618;}
	.st1{fill:#185ABD;}
	.st2{fill:#D83039;}
	.st3{fill:#103F91;}
	.st4{fill:#185C37;}
	.st5{fill:#33C481;}
	.st6{fill:#107C41;}
	.st7{fill:#21A366;}
	.st8{fill:#0B4A99;}
	.st9{fill:none;}
	.st10{fill:#FFFFFF;}
	.st11{fill:#41A5EE;}
	.st12{fill:#2B7CD3;}
	.st13{opacity:0.5;enable-background:new    ;}
	.st14{fill:url(#SVGID_1_);}
	.st15{fill:url(#SVGID_2_);}
	.st16{fill:url(#SVGID_3_);}
	.st17{fill:url(#SVGID_4_);}
	.st18{fill:#E24951;}
	.st19{fill-rule:evenodd;clip-rule:evenodd;}
	.st20{fill:#262625;}
	.st21{fill:none;stroke:#000000;stroke-width:0.75;stroke-miterlimit:10;}
	.st22{fill:none;stroke:#000000;stroke-width:1.2;stroke-miterlimit:10;}
	.st23{fill-rule:evenodd;clip-rule:evenodd;fill:#0B4A99;}
</style>
<g>
	<g>
		<path class="st8" d="M34,35.6H12v-1.3h22c0.4,0,0.7-0.3,0.7-0.7V8L28,1.4H11c-0.4,0-0.7,0.3-0.7,0.7v15.5H9V2c0-1.1,0.9-2,2-2
			h17.5L36,7.4v26.2C36,34.7,35.1,35.6,34,35.6z"/>
	</g>
	<g>
		<path class="st8" d="M35.4,8.4h-6.2c-0.9,0-1.6-0.7-1.6-1.6v-6h1.3v6c0,0.2,0.1,0.3,0.3,0.3h6.2V8.4z"/>
	</g>
	<g>
		<path class="st8" d="M30.2,14.2H14.6c-0.4,0-0.7-0.3-0.7-0.7c0-0.4,0.3-0.7,0.7-0.7h15.6c0.4,0,0.7,0.3,0.7,0.7
			C30.9,13.9,30.6,14.2,30.2,14.2z"/>
	</g>
	<g>
		<path class="st8" d="M30.2,20.7H16.2c-0.4,0-0.7-0.3-0.7-0.7c0-0.4,0.3-0.7,0.7-0.7h14.1c0.4,0,0.7,0.3,0.7,0.7
			C30.9,20.4,30.6,20.7,30.2,20.7z"/>
	</g>
	<g>
		<path class="st8" d="M30.2,27.3H19.1c-0.4,0-0.7-0.3-0.7-0.7s0.3-0.7,0.7-0.7h11.1c0.4,0,0.7,0.3,0.7,0.7S30.6,27.3,30.2,27.3z"/>
	</g>
	<g>
		<path class="st8" d="M9.5,36C4.3,36,0,31.7,0,26.4s4.3-9.5,9.5-9.5c5.3,0,9.5,4.3,9.5,9.5S14.8,36,9.5,36z M9.5,18.3
			c-4.5,0-8.2,3.7-8.2,8.2s3.7,8.2,8.2,8.2s8.2-3.7,8.2-8.2S14,18.3,9.5,18.3z"/>
	</g>
	<g>
		<path class="st8" d="M12.5,30.1c-0.2,0-0.3-0.1-0.5-0.2l-6.2-6.1c-0.3-0.3-0.3-0.7,0-1c0.3-0.3,0.7-0.3,1,0L13,29
			c0.3,0.3,0.3,0.7,0,1C12.9,30.1,12.7,30.1,12.5,30.1z"/>
	</g>
	<g>
		<path class="st8" d="M6.5,30.4c-0.2,0-0.3-0.1-0.5-0.2c-0.3-0.3-0.3-0.7,0-1l6.1-6.2c0.3-0.3,0.7-0.3,1,0c0.3,0.3,0.3,0.7,0,1
			L7,30.2C6.8,30.3,6.6,30.4,6.5,30.4z"/>
	</g>
</g>
</svg>
