<?xml version="1.0" encoding="utf-8"?>
<!-- Generator: Adobe Illustrator 25.0.0, SVG Export Plug-In . SVG Version: 6.00 Build 0)  -->
<svg version="1.1" id="Layer_1" xmlns="http://www.w3.org/2000/svg" xmlns:xlink="http://www.w3.org/1999/xlink" x="0px" y="0px"
	 viewBox="0 0 36 36" style="enable-background:new 0 0 36 36;" xml:space="preserve">
<style type="text/css">
	.st0{fill:#CB1618;}
	.st1{fill:#185ABD;}
	.st2{fill:#D83039;}
	.st3{fill:#103F91;}
	.st4{fill:#185C37;}
	.st5{fill:#33C481;}
	.st6{fill:#107C41;}
	.st7{fill:#21A366;}
	.st8{fill:#0B4A99;}
	.st9{fill:none;}
	.st10{fill:#FFFFFF;}
	.st11{fill:#41A5EE;}
	.st12{fill:#2B7CD3;}
	.st13{opacity:0.5;enable-background:new    ;}
	.st14{fill:url(#SVGID_1_);}
	.st15{fill:url(#SVGID_2_);}
	.st16{fill:url(#SVGID_3_);}
	.st17{fill:url(#SVGID_4_);}
	.st18{fill:#E24951;}
	.st19{fill-rule:evenodd;clip-rule:evenodd;}
	.st20{fill:#262625;}
	.st21{fill:none;stroke:#000000;stroke-width:0.75;stroke-miterlimit:10;}
	.st22{fill:none;stroke:#000000;stroke-width:1.2;stroke-miterlimit:10;}
	.st23{fill-rule:evenodd;clip-rule:evenodd;fill:#0B4A99;}
</style>
<g>
	<g>
		<path class="st8" d="M13.7,20.8C6.9,20.8,0,19.4,0,16.6s6.9-4.2,13.7-4.2c0.3,0,0.5,0,0.8,0l0,1.4c-0.3,0-0.5,0-0.8,0
			c-8,0-12.3,1.9-12.3,2.8c0,1,4.2,2.8,12.3,2.8c2.6,0,5.1-0.2,7.3-0.6l0.2,1.3C18.9,20.6,16.4,20.8,13.7,20.8z"/>
	</g>
	<g>
		<path class="st8" d="M13.7,25.6C6.9,25.6,0,24.2,0,21.4v-4.8h1.4v4.8c0,1,4.2,2.8,12.3,2.8S26,22.4,26,21.4v-1.9h1.4v1.9
			C27.3,24.2,20.4,25.6,13.7,25.6z"/>
	</g>
	<g>
		<path class="st8" d="M13.7,30.3C6.9,30.3,0,28.9,0,26.1c0-1.2,1.2-2.2,3.6-2.9L4,24.5c-2.1,0.7-2.7,1.3-2.7,1.6
			c0,1,4.3,2.8,12.3,2.8S26,27.1,26,26.1c0-0.3-0.6-1-2.8-1.7l0.4-1.3c2.5,0.8,3.7,1.8,3.7,3C27.3,28.9,20.4,30.3,13.7,30.3z"/>
	</g>
	<g>
		<path class="st8" d="M13.7,35.1C6.9,35.1,0,33.7,0,30.9v-4.8h1.4v4.8c0,1,4.3,2.8,12.3,2.8S26,31.9,26,30.9v-4.5h1.4v4.5
			C27.3,33.7,20.4,35.1,13.7,35.1z"/>
	</g>
	<g>
		<path class="st8" d="M23.4,20.6c-5.4,0-9.9-4.4-9.9-9.9s4.4-9.9,9.9-9.9s9.9,4.4,9.9,9.9S28.9,20.6,23.4,20.6z M23.4,2.2
			c-4.7,0-8.5,3.8-8.5,8.5s3.8,8.5,8.5,8.5s8.5-3.8,8.5-8.5S28.1,2.2,23.4,2.2z"/>
	</g>
	<g>
		<rect x="32.1" y="16.2" transform="matrix(0.7345 -0.6786 0.6786 0.7345 -5.04 27.616)" class="st8" width="1.4" height="8"/>
	</g>
	<g>
		<circle class="st8" cx="26.8" cy="14.3" r="1"/>
	</g>
</g>
</svg>
