<?xml version="1.0" encoding="utf-8"?>
<!-- Generator: Adobe Illustrator 25.0.0, SVG Export Plug-In . SVG Version: 6.00 Build 0)  -->
<svg version="1.1" id="Layer_1" xmlns="http://www.w3.org/2000/svg" xmlns:xlink="http://www.w3.org/1999/xlink" x="0px" y="0px"
	 viewBox="0 0 36 36" style="enable-background:new 0 0 36 36;" xml:space="preserve">
<style type="text/css">
	.st0{fill:#CB1618;}
	.st1{fill:#185ABD;}
	.st2{fill:#D83039;}
	.st3{fill:#103F91;}
	.st4{fill:#185C37;}
	.st5{fill:#33C481;}
	.st6{fill:#107C41;}
	.st7{fill:#21A366;}
	.st8{fill:#0B4A99;}
	.st9{fill:none;}
	.st10{fill:#FFFFFF;}
	.st11{fill:#41A5EE;}
	.st12{fill:#2B7CD3;}
	.st13{opacity:0.5;enable-background:new    ;}
	.st14{fill:url(#SVGID_1_);}
	.st15{fill:url(#SVGID_2_);}
	.st16{fill:url(#SVGID_3_);}
	.st17{fill:url(#SVGID_4_);}
	.st18{fill:#E24951;}
	.st19{fill-rule:evenodd;clip-rule:evenodd;}
	.st20{fill:#262625;}
	.st21{fill:none;stroke:#000000;stroke-width:0.75;stroke-miterlimit:10;}
	.st22{fill:none;stroke:#000000;stroke-width:1.2;stroke-miterlimit:10;}
	.st23{fill-rule:evenodd;clip-rule:evenodd;fill:#0B4A99;}
</style>
<g>
	<g>
		<path class="st8" d="M0.7,29.4c-0.3,0-0.6-0.3-0.7-0.6c0-0.4,0.2-0.7,0.6-0.7c5.1-0.5,9.8-3.2,14.2-8c-4.7-5.4-9.4-8-14.1-7.8
			C0.4,12.2,0,12,0,11.6c0-0.4,0.3-0.7,0.6-0.7c5.2-0.3,10.4,2.7,15.5,8.7l0.4,0.4l-0.4,0.4C11.5,25.8,6.3,28.8,0.7,29.4
			C0.7,29.4,0.7,29.4,0.7,29.4z"/>
	</g>
	<g>
		<path class="st8" d="M35.3,20.8H15.7c-0.4,0-0.7-0.3-0.7-0.7s0.3-0.7,0.7-0.7h19.6c0.4,0,0.7,0.3,0.7,0.7S35.6,20.8,35.3,20.8z"/>
	</g>
	<g>
		<path class="st8" d="M26.9,27.7c-0.2,0-0.4-0.1-0.5-0.2c-0.2-0.3-0.2-0.7,0.1-0.9l7.9-6.4l-7.9-6.3c-0.3-0.2-0.3-0.7-0.1-0.9
			c0.2-0.3,0.7-0.3,0.9-0.1l8.3,6.6c0.2,0.2,0.3,0.4,0.3,0.7c0,0.3-0.1,0.5-0.3,0.7l-8.3,6.8C27.2,27.6,27.1,27.7,26.9,27.7z
			 M34.8,20.4L34.8,20.4L34.8,20.4z"/>
	</g>
</g>
</svg>
