<?xml version="1.0" encoding="utf-8"?>
<!-- Generator: Adobe Illustrator 24.2.1, SVG Export Plug-In . SVG Version: 6.00 Build 0)  -->
<svg version="1.1" id="Layer_2" xmlns="http://www.w3.org/2000/svg" xmlns:xlink="http://www.w3.org/1999/xlink" x="0px" y="0px"
	 viewBox="0 0 24 24" style="enable-background:new 0 0 24 24;" xml:space="preserve">
<style type="text/css">
	.st0{fill:#00C7FE;}
	.st1{fill:#0068B5;}
</style>
<rect x="20" y="2" class="st0" width="2" height="2"/>
<path class="st1" d="M22.1,5h-2v6.2h-1.4c-0.3-0.9-1.2-1.5-2.2-1.5c-1,0-1.9,0.6-2.2,1.5h-1.5v-0.5l0-2.4h0v0H12
	c-0.4,0-0.8-0.4-0.8-0.8c0-0.5,0.3-0.8,0.8-0.8h0.7l0-2.5V4l6.3,0l0-2L12,2v0H4c-1.1,0-2,0.9-2,2v8v0v8c0,1.1,0.9,2,2,2l8.7,0l0-0.3
	h0v-3.1c0.8-0.3,1.3-1,1.5-1.8c0-0.2,0.1-0.3,0.1-0.5c0-0.5-0.2-0.9-0.4-1.3c-0.3-0.4-0.6-0.7-1.1-0.8v-1.5l2.9,0v0h0v-0.7
	c0-0.1,0-0.2,0.1-0.3c0.1-0.3,0.4-0.5,0.8-0.5c0.5,0,0.8,0.3,0.8,0.8v0.7l4.8,0l0,0h0V5z M11.2,4.1v1.2c-0.8,0.3-1.4,1-1.5,1.8
	c0,0.1,0,0.3,0,0.4c0,1,0.6,1.9,1.5,2.2v1.2l0,0.3H8.4v0.7c0,0.4-0.4,0.8-0.8,0.8c-0.4,0-0.7-0.2-0.8-0.5c0-0.1-0.1-0.2-0.1-0.3
	v-0.7h0v0H4V4l7.2,0L11.2,4.1z M12.8,16.4c0,0.4-0.4,0.7-0.8,0.7h-0.7V20L4,20v-7.3h1.3c0.3,0.9,1.2,1.5,2.2,1.5s1.9-0.6,2.2-1.5
	h1.5v2.9H12C12.4,15.6,12.8,15.9,12.8,16.4z"/>
</svg>
