<?xml version="1.0" encoding="utf-8"?>
<!-- Generator: Adobe Illustrator 25.0.0, SVG Export Plug-In . SVG Version: 6.00 Build 0)  -->
<svg version="1.1" id="Layer_1" xmlns="http://www.w3.org/2000/svg" xmlns:xlink="http://www.w3.org/1999/xlink" x="0px" y="0px"
	 viewBox="0 0 36 36" style="enable-background:new 0 0 36 36;" xml:space="preserve">
<style type="text/css">
	.st0{fill:#0B4A99;}
	.st1{fill:url(#SVGID_1_);}
	.st2{fill:url(#SVGID_2_);}
	.st3{fill:#1A65B7;}
	.st4{fill:#DB464E;}
	.st5{fill:#CB1618;}
</style>
<g>
	<g>
		<path class="st0" d="M28.6,17.1H7.4c-0.7,0-1.2-0.4-1.5-1c-0.3-0.6-0.2-1.3,0.2-1.8L16.6,0.6c0.7-0.8,2.1-0.8,2.7,0l10.6,13.7
			c0.4,0.5,0.5,1.2,0.2,1.8C29.8,16.8,29.2,17.1,28.6,17.1z M18,1.2c-0.1,0-0.2,0-0.4,0.2L7.1,15.1c-0.2,0.2-0.1,0.4,0,0.5
			c0,0.1,0.2,0.3,0.4,0.3h21.1c0.3,0,0.4-0.2,0.4-0.3c0-0.1,0.1-0.3,0-0.5L18.4,1.4C18.3,1.3,18.1,1.2,18,1.2z"/>
	</g>
	<g>
		<path class="st0" d="M18,36c-0.5,0-1-0.2-1.4-0.7L6.1,21.6c-0.4-0.5-0.5-1.2-0.2-1.8c0.3-0.6,0.9-1,1.5-1h21.1
			c0.7,0,1.2,0.4,1.5,1c0.3,0.6,0.2,1.3-0.2,1.8L19.4,35.3C19,35.8,18.5,36,18,36z M7.4,20.1c-0.3,0-0.4,0.2-0.4,0.3
			c0,0.1-0.1,0.3,0,0.5l10.6,13.7c0.1,0.2,0.3,0.2,0.4,0.2c0.1,0,0.3-0.1,0.4-0.2l10.6-13.7c0.2-0.2,0.1-0.4,0-0.5
			c0-0.1-0.2-0.3-0.4-0.3H7.4z"/>
	</g>
</g>
</svg>
