<?xml version="1.0" encoding="utf-8"?>
<!-- Generator: Adobe Illustrator 25.0.0, SVG Export Plug-In . SVG Version: 6.00 Build 0)  -->
<svg version="1.1" id="Layer_1" xmlns="http://www.w3.org/2000/svg" xmlns:xlink="http://www.w3.org/1999/xlink" x="0px" y="0px"
	 viewBox="0 0 36 36" style="enable-background:new 0 0 36 36;" xml:space="preserve">
<style type="text/css">
	.st0{fill:#CB1618;}
	.st1{fill:#185ABD;}
	.st2{fill:#D83039;}
	.st3{fill:#103F91;}
	.st4{fill:#185C37;}
	.st5{fill:#33C481;}
	.st6{fill:#107C41;}
	.st7{fill:#21A366;}
	.st8{fill:#0B4A99;}
	.st9{fill:none;}
	.st10{fill:#FFFFFF;}
	.st11{fill:#41A5EE;}
	.st12{fill:#2B7CD3;}
	.st13{opacity:0.5;enable-background:new    ;}
	.st14{fill:url(#SVGID_1_);}
	.st15{fill:url(#SVGID_2_);}
	.st16{fill:url(#SVGID_3_);}
	.st17{fill:url(#SVGID_4_);}
	.st18{fill:#E24951;}
	.st19{fill-rule:evenodd;clip-rule:evenodd;}
	.st20{fill:#262625;}
	.st21{fill:none;stroke:#000000;stroke-width:0.75;stroke-miterlimit:10;}
	.st22{fill:none;stroke:#000000;stroke-width:1.2;stroke-miterlimit:10;}
	.st23{fill-rule:evenodd;clip-rule:evenodd;fill:#0B4A99;}
</style>
<g>
	<g>
		<path class="st8" d="M-0.2,26.9L6,22.3c-2.1-2.4-3.3-5.6-3.3-8.8C2.7,6,8.8,0,16.2,0c7.4,0,13.4,6,13.4,13.4
			c0,2.3-0.6,4.6-1.8,6.7l-1.2-0.7c1-1.8,1.6-3.9,1.6-6c0-6.7-5.4-12.1-12.1-12.1S4.1,6.8,4.1,13.4c0,3.2,1.2,6.2,3.5,8.5l0.5,0.6
			l-4.2,3.1c3.4,0,10,0,12.3,0c1.3,0,2.5-0.2,3.7-0.6l0.4,1.3c-1.3,0.4-2.7,0.6-4.1,0.6c-3.2,0-14.3,0-14.3,0L-0.2,26.9z"/>
	</g>
	<g>
		<path class="st8" d="M27.8,36c-4.6,0-8.4-3.8-8.4-8.4c0-4.6,3.8-8.4,8.4-8.4c4.6,0,8.4,3.8,8.4,8.4C36.2,32.2,32.4,36,27.8,36z
			 M27.8,20.6c-3.9,0-7,3.2-7,7s3.2,7,7,7s7-3.2,7-7S31.7,20.6,27.8,20.6z"/>
	</g>
	<g>
		<path class="st8" d="M16.7,15.9h-1.3v-2c0-0.9,0.6-1.8,1.5-2.2c0.6-0.3,0.9-0.7,0.9-1.3C17.8,9.6,17,9,16,9c-1,0-1.8,0.6-1.8,1.4
			h-1.3c0-1.5,1.4-2.8,3.1-2.8s3.1,1.2,3.1,2.8c0,1.1-0.7,2-1.7,2.5c-0.3,0.2-0.7,0.5-0.7,1V15.9z"/>
	</g>
	<g>
		<rect x="15.3" y="16.9" class="st8" width="1.3" height="1.4"/>
	</g>
	<g>
		<polygon class="st8" points="26.5,30.4 23.3,27.2 24.2,26.2 26.5,28.5 30.9,24.1 31.9,25.1 		"/>
	</g>
</g>
</svg>
