<?xml version="1.0" encoding="utf-8"?>
<!-- Generator: Adobe Illustrator 25.0.0, SVG Export Plug-In . SVG Version: 6.00 Build 0)  -->
<svg version="1.1" id="Layer_1" xmlns="http://www.w3.org/2000/svg" xmlns:xlink="http://www.w3.org/1999/xlink" x="0px" y="0px"
	 viewBox="0 0 36 36" style="enable-background:new 0 0 36 36;" xml:space="preserve">
<style type="text/css">
	.st0{fill:#CB1618;}
	.st1{fill:#185ABD;}
	.st2{fill:#D83039;}
	.st3{fill:#103F91;}
	.st4{fill:#185C37;}
	.st5{fill:#33C481;}
	.st6{fill:#107C41;}
	.st7{fill:#21A366;}
	.st8{fill:#0B4A99;}
	.st9{fill:none;}
	.st10{fill:#FFFFFF;}
	.st11{fill:#41A5EE;}
	.st12{fill:#2B7CD3;}
	.st13{opacity:0.5;enable-background:new    ;}
	.st14{fill:url(#SVGID_1_);}
	.st15{fill:url(#SVGID_2_);}
	.st16{fill:url(#SVGID_3_);}
	.st17{fill:url(#SVGID_4_);}
	.st18{fill:#E24951;}
	.st19{fill-rule:evenodd;clip-rule:evenodd;}
	.st20{fill:#262625;}
	.st21{fill:none;stroke:#000000;stroke-width:0.75;stroke-miterlimit:10;}
	.st22{fill:none;stroke:#000000;stroke-width:1.2;stroke-miterlimit:10;}
	.st23{fill-rule:evenodd;clip-rule:evenodd;fill:#0B4A99;}
</style>
<g id="path5149_3_">
	<path class="st8" d="M18,36C8.1,36,0,27.9,0,18S8.1,0,18,0s18,8.1,18,18S27.9,36,18,36z M18,1.4C8.9,1.4,1.4,8.9,1.4,18
		S8.9,34.6,18,34.6S34.6,27.1,34.6,18S27.1,1.4,18,1.4z"/>
</g>
<g>
	<path class="st8" d="M13.5,26.4c-0.3,0-0.7-0.1-1-0.3c-0.7-0.4-1.1-1.1-1.1-1.9V11.7c0-0.8,0.4-1.5,1.1-1.9c0.7-0.4,1.4-0.4,2.1,0
		l10.9,6.3c0.7,0.3,1.1,1,1.1,1.8c0,0.8-0.4,1.5-1.1,1.8l-10.9,6.3C14.3,26.3,13.9,26.4,13.5,26.4z M13.5,10.9c-0.1,0-0.2,0-0.4,0.1
		c-0.3,0.1-0.4,0.4-0.4,0.8v12.5c0,0.3,0.2,0.6,0.4,0.8c0.2,0.1,0.5,0.1,0.8,0l10.9-6.3c0.4-0.2,0.4-0.6,0.4-0.7s0-0.5-0.4-0.7l0,0
		L13.9,11C13.8,10.9,13.7,10.9,13.5,10.9z"/>
</g>
</svg>
