<?xml version="1.0" encoding="utf-8"?>
<!-- Generator: Adobe Illustrator 25.0.0, SVG Export Plug-In . SVG Version: 6.00 Build 0)  -->
<svg version="1.1" id="Layer_1" xmlns="http://www.w3.org/2000/svg" xmlns:xlink="http://www.w3.org/1999/xlink" x="0px" y="0px"
	 viewBox="0 0 36 36" style="enable-background:new 0 0 36 36;" xml:space="preserve">
<style type="text/css">
	.st0{fill:#0B4A99;}
</style>
<g>
	<g>
		<polygon class="st0" points="19.6,35 0,35 0,0.7 19.8,0.7 26.5,7.9 26.5,13 25.2,13 25.2,8.4 19.3,2 1.3,2 1.3,33.8 19.6,33.8 		
			"/>
	</g>
	<g>
		<polygon class="st0" points="25.9,8.7 18.8,8.7 18.8,1.2 20.1,1.2 20.1,7.4 25.9,7.4 		"/>
	</g>
	<g>
		<rect x="3.8" y="13.2" class="st0" width="11.2" height="1.3"/>
	</g>
	<g>
		<rect x="3.8" y="7.1" class="st0" width="13.1" height="1.3"/>
	</g>
	<g>
		<rect x="3.8" y="18.1" class="st0" width="11.2" height="1.3"/>
	</g>
	<g>
		<rect x="3.8" y="23" class="st0" width="11.2" height="1.3"/>
	</g>
	<g>
		<rect x="3.8" y="27.9" class="st0" width="11.2" height="1.3"/>
	</g>
	<g>
		<g>
			<path class="st0" d="M24.1,35.3c-0.3,0-0.6-0.1-0.9-0.3c-0.4-0.3-0.6-0.7-0.6-1.2v-8.4c0-0.1,0-0.2-0.1-0.3l-6-6.1
				c-0.5-0.6-0.7-1.4-0.4-2.1c0.3-0.7,1-1.2,1.8-1.2h16.3c0.8,0,1.5,0.5,1.8,1.2c0.3,0.7,0.1,1.5-0.4,2.1l-6,6.1
				c-0.1,0.1-0.1,0.2-0.1,0.3v7.2c0,0.6-0.4,1.2-1,1.4l-3.7,1.2C24.4,35.2,24.3,35.3,24.1,35.3z M17.8,17.1c-0.2,0-0.5,0.1-0.6,0.4
				c-0.1,0.2,0,0.5,0.1,0.7l6,6.1c0.3,0.3,0.5,0.7,0.5,1.2v8.4c0,0.1,0,0.1,0.1,0.2c0,0,0.1,0,0.2,0l3.7-1.2c0.1,0,0.1-0.1,0.1-0.2
				v-7.2c0-0.5,0.2-0.9,0.5-1.2l6-6.1c0.2-0.2,0.2-0.4,0.1-0.7c-0.1-0.2-0.3-0.4-0.6-0.4H17.8z"/>
		</g>
	</g>
</g>
</svg>
