<?xml version="1.0" encoding="utf-8"?>
<!-- Generator: Adobe Illustrator 25.0.0, SVG Export Plug-In . SVG Version: 6.00 Build 0)  -->
<svg version="1.1" id="Layer_1" xmlns="http://www.w3.org/2000/svg" xmlns:xlink="http://www.w3.org/1999/xlink" x="0px" y="0px"
	 viewBox="0 0 36 36" style="enable-background:new 0 0 36 36;" xml:space="preserve">
<style type="text/css">
	.st0{fill:#CB1618;}
	.st1{fill:#185ABD;}
	.st2{fill:#D83039;}
	.st3{fill:#103F91;}
	.st4{fill:#185C37;}
	.st5{fill:#33C481;}
	.st6{fill:#107C41;}
	.st7{fill:#21A366;}
	.st8{fill:#0B4A99;}
	.st9{fill:none;}
	.st10{fill:#FFFFFF;}
	.st11{fill:#41A5EE;}
	.st12{fill:#2B7CD3;}
	.st13{opacity:0.5;enable-background:new    ;}
	.st14{fill:url(#SVGID_1_);}
	.st15{fill:url(#SVGID_2_);}
	.st16{fill:url(#SVGID_3_);}
	.st17{fill:url(#SVGID_4_);}
	.st18{fill:#E24951;}
	.st19{fill-rule:evenodd;clip-rule:evenodd;}
	.st20{fill:#262625;}
	.st21{fill:none;stroke:#000000;stroke-width:0.75;stroke-miterlimit:10;}
	.st22{fill:none;stroke:#000000;stroke-width:1.2;stroke-miterlimit:10;}
	.st23{fill-rule:evenodd;clip-rule:evenodd;fill:#0B4A99;}
	.st24{fill:none;stroke:#231F20;}
	.st25{fill:none;stroke:#0071C5;stroke-width:1.3;stroke-linecap:round;stroke-miterlimit:10;}
	.st26{fill:none;stroke:#F0AB00;stroke-width:1.3;stroke-miterlimit:10;}
	.st27{fill:#1C55A6;}
	.st28{fill:none;stroke:#1C55A6;stroke-width:1.3;stroke-linecap:round;}
	.st29{fill-rule:evenodd;clip-rule:evenodd;fill:none;stroke:#1C55A6;stroke-width:1.3;stroke-linecap:round;}
	.st30{fill:none;stroke:#1C55A6;stroke-width:1.3;stroke-linecap:round;stroke-miterlimit:10;}
	.st31{fill-rule:evenodd;clip-rule:evenodd;fill:#213266;}
	.st32{fill-rule:evenodd;clip-rule:evenodd;fill:#EE3D23;}
	.st33{fill-rule:evenodd;clip-rule:evenodd;fill:#FFFFFF;}
</style>
<g>
	<g>
		<path class="st8" d="M6.1,25.9c-0.2,0-0.6,0-0.9-0.3c-0.2-0.2-0.4-0.5-0.4-1v-4.3c0-0.4,0.2-0.7,0.6-0.9c0.2-0.1,0.6-0.2,1,0.2
			l0.1,0.1c0.2,0.3,0.6,0.6,0.8,0.6c0.1,0,0.2-0.2,0.2-0.2c0.1-0.2,0.3-1,0.1-1.5c-0.1-0.2-0.2-0.3-0.4-0.4c-0.3,0-0.4,0.1-0.5,0.4
			c-0.1,0.2-0.4,0.6-1,0.6h0c-0.3,0-0.6-0.1-0.9-0.6l-0.1-0.1v-3.9c0-0.1,0-0.5,0.3-0.9c0.2-0.2,0.5-0.4,1-0.4h3.3
			c-0.3-0.3-0.7-0.8-0.7-1.4c0-0.5,0.3-1,0.8-1.4l0.1-0.1c0.3-0.1,0.8-0.3,1.4-0.4c0.8,0,1.4,0.2,2,0.7l0.1,0.1
			c0.2,0.2,0.5,0.8,0.3,1.4c-0.1,0.3-0.2,0.6-0.5,0.8h3c0.8,0,1.3,0.4,1.4,1.1c0,0.1,0,0.1,0,0.2l0,3.4c0.3-0.2,0.8-0.6,1.3-0.6
			c0.6,0,1.3,0.3,1.7,1.6l0,0.1c0,0.3,0.2,1.6-0.5,2.3c-0.3,0.3-0.7,0.5-1.1,0.5c-0.3,0-0.6-0.1-0.9-0.2c-0.1-0.1-0.3-0.2-0.6-0.4
			v3.4c0,0,0,0.4-0.3,0.8c-0.2,0.2-0.5,0.4-1,0.5l-3.8,0l-0.1-0.1c-0.2-0.1-0.5-0.3-0.6-0.7c-0.1-0.2-0.1-0.6,0.3-1.1l0.1-0.1
			c0.2-0.1,0.5-0.4,0.5-0.6c0-0.1-0.1-0.2-0.2-0.3c-0.2-0.1-1.2-0.7-2,0.2c-0.1,0.2-0.1,0.5,0.5,0.8l0.2,0.1l0.1,0.2
			c0.1,0.1,0.3,0.6,0,1.1c-0.1,0.2-0.4,0.5-1,0.5H6.2C6.2,25.9,6.1,25.9,6.1,25.9z M16.2,24.6C16.2,24.6,16.2,24.7,16.2,24.6
			L16.2,24.6z M6,21l0,3.6c0,0,0.1,0,0.1,0l0,0l3.5,0C9,24,9,23.2,9.2,22.7l0.1-0.1c1.2-1.6,3-1,3.7-0.5c0.6,0.5,0.7,1,0.7,1.3
			c0,0.5-0.3,1-0.6,1.3h2.9c0.1,0,0.1,0,0.1,0l0-4.8h1.6L18,20c0.2,0.3,0.6,0.5,0.6,0.5c0.1,0.1,0.3,0.1,0.4,0.1
			c0.1,0,0.1,0,0.2-0.1c0.2-0.2,0.2-0.9,0.2-1.3c-0.1-0.4-0.3-0.7-0.5-0.7c-0.2,0-0.5,0.2-0.7,0.4c-0.3,0.3-0.6,0.4-0.9,0.5
			c-0.5,0-0.8-0.3-1-0.5l-0.1-0.1l0-0.2v-4c0,0,0-0.1-0.1-0.1l-4.8,0l0.1-1.7l0.3-0.2c0.3-0.1,0.5-0.3,0.5-0.5
			c0-0.2-0.1-0.4-0.1-0.4c-0.3-0.2-0.6-0.4-1-0.4c-0.4,0-0.7,0.2-0.9,0.2c-0.2,0.2-0.3,0.3-0.3,0.4c0,0.2,0.4,0.5,0.6,0.6
			c0.1,0.1,0.1,0.1,0.2,0.2c0.1,0.1,0.2,0.2,0.2,0.3c0.2,0.5-0.1,1-0.4,1.3l-0.2,0.2H6.1l0,2.9c0.3-0.3,0.7-0.4,1.2-0.5
			c0.2,0,0.3,0,0.4,0l0.1,0c0.6,0.2,1,0.6,1.2,1.2c0.4,1.1-0.1,2.4-0.2,2.5c-0.4,0.7-0.9,0.9-1.2,0.9C6.9,21.6,6.4,21.3,6,21z
			 M10.2,24.7L10.2,24.7L10.2,24.7z"/>
	</g>
	<g>
		<path class="st8" d="M18.6,34.6H2.2c-1.2,0-2.2-1-2.2-2.2V3.6c0-1.2,1-2.2,2.2-2.2h30.3c1.2,0,2.2,1,2.2,2.2v17.7l-0.6-0.1
			c-0.6-0.1-1.3-0.1-2,0l-0.6,0.1V8.7H3.2v22.7h16.2l-0.7,1.1l0,0.8c0.1,0.1,0.2,0.3,0.2,0.4l0.6,0.9L18.6,34.6z M2.2,2.5
			C1.6,2.5,1.2,3,1.2,3.6v28.8c0,0.6,0.5,1.1,1.1,1.1h15.3v-0.9H2.1v-25h30.7V20c0.3,0,0.6,0,0.9,0V3.6c0-0.6-0.5-1.1-1.1-1.1H2.2z"
			/>
	</g>
	<g>
		<path class="st8" d="M26.5,33.3c-3.9,0-7.4-2-9.5-5.4l-0.1-0.1v-1l0.1-0.1c2-3.4,5.6-5.4,9.5-5.4s7.4,2,9.5,5.4l0.1,0.1v1
			l-0.1,0.1C33.9,31.2,30.3,33.3,26.5,33.3z M18.1,27.4c1.8,3,5,4.7,8.4,4.7s6.5-1.8,8.4-4.7V27c-1.8-3-5-4.7-8.4-4.7
			S19.9,24,18.1,27V27.4z M26.5,31.9c-2.6,0-4.7-2.1-4.7-4.7s2.1-4.7,4.7-4.7c2.6,0,4.7,2.1,4.7,4.7S29.1,31.9,26.5,31.9z
			 M26.5,23.6c-2,0-3.6,1.6-3.6,3.6s1.6,3.6,3.6,3.6c2,0,3.6-1.6,3.6-3.6S28.4,23.6,26.5,23.6z"/>
	</g>
	<g>
		<path class="st8" d="M26.5,29.8c-1.5,0-2.6-1.2-2.6-2.6c0-1.5,1.2-2.6,2.6-2.6c0,0,0,0,0,0c0.7,0,1.4,0.3,1.9,0.8
			c0.5,0.5,0.8,1.2,0.8,1.9C29.1,28.6,27.9,29.8,26.5,29.8z M26.5,25.7C26.5,25.7,26.5,25.7,26.5,25.7c-0.8,0-1.5,0.7-1.5,1.5
			c0,0.8,0.7,1.5,1.5,1.5c0.8,0,1.5-0.7,1.5-1.5c0-0.4-0.2-0.8-0.4-1.1C27.2,25.8,26.9,25.7,26.5,25.7z"/>
	</g>
	<g>
		<path class="st8" d="M14.5,6.3h-3.2V3.8h3.2V6.3z M12.2,5.5h1.4V4.7h-1.4V5.5z"/>
	</g>
	<g>
		<path class="st8" d="M10.6,6.3H7.4V3.8h3.2V6.3z M8.3,5.5h1.4V4.7H8.3V5.5z"/>
	</g>
	<g>
		<path class="st8" d="M6.6,6.3H3.5V3.8h3.2V6.3z M4.4,5.5h1.4V4.7H4.4V5.5z"/>
	</g>
</g>
</svg>
