<?xml version="1.0" encoding="utf-8"?>
<!-- Generator: Adobe Illustrator 22.0.1, SVG Export Plug-In . SVG Version: 6.00 Build 0)  -->
<svg version="1.1" id="Layer_1" xmlns="http://www.w3.org/2000/svg" xmlns:xlink="http://www.w3.org/1999/xlink" x="0px" y="0px"
	 viewBox="0 0 16 16" style="enable-background:new 0 0 16 16;" xml:space="preserve">
<style type="text/css">
	.st0{fill:#2DD54F;}
	.st1{fill:#FF0303;}
	.st2{fill:#0396FF;}
	.st3{fill:#FFB103;}
</style>
<g>
	<path class="st1" d="M8,16c-4.4,0-8-3.6-8-8s3.6-8,8-8s8,3.6,8,8S12.4,16,8,16z M8,0.7C4,0.7,0.7,4,0.7,8S4,15.3,8,15.3
		S15.3,12,15.3,8S12,0.7,8,0.7z"/>
</g>
<g>
	<g>
		<path class="st1" d="M11,4.9c-0.2,0-0.4-0.1-0.7-0.1c-0.3,0-0.5,0-0.6,0C9.5,4.9,9.3,5,9,5.2c-0.3,0.2-0.7,0.6-1.2,1
			C7.3,6.7,6.9,7.2,6.5,7.6C6.2,8,5.8,8.4,5.5,8.9c0,0,0,0,0,0c0,0-0.1,0.1-0.1,0.1c0,0,0,0,0,0C5,9.4,4.5,10.2,4.7,10.8
			c0,0,0,0,0,0c0.1,0,0.1,0.1,0.2,0.1C4.9,11,5,11,5.1,11c0.1,0,0.1,0,0.2,0c0.4,0,0.7-0.1,1-0.3c0.1,0,0.1-0.1,0.2-0.2c0,0,0,0,0,0
			C7,9.7,7.8,8.8,8.6,7.9c0.8-0.9,1.6-1.5,2.3-2c0.2-0.1,0.3-0.2,0.3-0.2c0.1-0.1,0.1-0.2,0.1-0.3c0-0.1,0-0.3-0.1-0.4
			C11.3,5,11.2,4.9,11,4.9z"/>
	</g>
	<g>
		<path class="st1" d="M10.1,9.3C9.9,9,9.6,8.6,9.1,8.1C8.7,7.7,8.2,7.3,7.8,6.9C7.5,6.6,7.1,6.3,6.7,6c0,0,0,0-0.1,0
			C6.2,5.6,5.8,5.4,5.4,5.2c0,0,0,0,0,0c-0.2,0-0.4-0.1-0.6,0c0,0,0,0-0.1,0c0,0.1-0.1,0.2-0.1,0.3c0,0,0,0.1,0,0.1
			c0,0.1,0,0.1,0,0.2c0,0.3,0.1,0.6,0.2,0.9c0,0.1,0.1,0.2,0.2,0.2c0,0,0,0,0,0c0.8,0.5,1.7,1.2,2.5,2c0.8,0.8,1.5,1.6,1.9,2.2
			c0.1,0.2,0.2,0.3,0.2,0.3c0.1,0.1,0.1,0.1,0.2,0.1c0.1,0,0.2,0,0.3-0.1c0.1-0.1,0.2-0.2,0.2-0.3c0-0.2,0.1-0.4,0.1-0.7
			c0-0.3,0-0.5,0-0.6C10.4,9.8,10.3,9.6,10.1,9.3z"/>
	</g>
</g>
</svg>
