<?xml version="1.0" encoding="utf-8"?>
<!-- Generator: Adobe Illustrator 25.0.0, SVG Export Plug-In . SVG Version: 6.00 Build 0)  -->
<svg version="1.1" id="Layer_1" xmlns="http://www.w3.org/2000/svg" xmlns:xlink="http://www.w3.org/1999/xlink" x="0px" y="0px"
	 viewBox="0 0 16 16" style="enable-background:new 0 0 16 16;" xml:space="preserve">
<style type="text/css">
	.st0{fill:#F0AB00;}
	.st1{fill:#A8A240;}
	.st2{fill:#40875E;}
</style>
<path class="st0" d="M15.78,1.98l-1.43-1.43c-0.15-0.15-0.34-0.22-0.54-0.22c-0.2,0-0.39,0.07-0.54,0.22l-1.15,1.14l2.5,2.5
	l1.14-1.14C16.07,2.76,16.07,2.28,15.78,1.98L15.78,1.98z"/>
<path class="st1" d="M4.7,9.11l2.5,2.5l6.9-6.88l-2.5-2.5L4.7,9.11z"/>
<path class="st0" d="M4.16,9.65l-0.53,3.03l3.04-0.53L4.16,9.65z"/>
<path class="st2" d="M11.08,14.03H1.64V4.59H8.3l1.64-1.64H1.06C0.48,2.95,0,3.43,0,4.01v10.6c0,0.58,0.48,1.06,1.06,1.06h10.6
	c0.58,0,1.06-0.48,1.06-1.06V7.03l-1.64,1.64V14.03z"/>
</svg>
