<?xml version="1.0" encoding="iso-8859-1"?>
<!-- Generator: Adobe Illustrator 12.0.0, SVG Export Plug-In . SVG Version: 6.00 Build 51448)  -->
<!DOCTYPE svg PUBLIC "-//W3C//DTD SVG 1.1//EN" "http://www.w3.org/Graphics/SVG/1.1/DTD/svg11.dtd" [
	<!ENTITY ns_svg "http://www.w3.org/2000/svg">
	<!ENTITY ns_xlink "http://www.w3.org/1999/xlink">
]>
<svg  version="1.1" id="Layer_1" xmlns="&ns_svg;" xmlns:xlink="&ns_xlink;" width="15.874" height="15.874"
	 viewBox="0 0 15.874 15.874" style="overflow:visible;enable-background:new 0 0 15.874 15.874;" xml:space="preserve">
<rect style="fill:none;" width="15.874" height="15.874"/>
<g>
	<path style="fill:#0071C5;" d="M11.906,14.383H1.117V3.595h6.787l1.671-1.082H1.112c-0.592,0-1.079,0.485-1.079,1.08v10.795
		c0,0.595,0.487,1.08,1.079,1.08h10.795c0.596,0,1.081-0.485,1.081-1.08V7.257l-1.082,1.08V14.383z"/>
	<g>
		<polygon style="fill:#0071C5;" points="6.288,11.444 3.973,12.035 4.617,9.737 		"/>
		
			<rect x="4.578" y="5.386" transform="matrix(0.7149 -0.6992 0.6992 0.7149 -1.8771 8.5567)" style="fill:#0071C5;" width="9.953" height="2.388"/>
		<path style="fill:#0071C5;" d="M12.811,1.728l1.027-1.004c0.408-0.4,1.032-0.424,1.392-0.056l0.366,0.373
			c0.358,0.369,0.32,0.992-0.087,1.39l-1.029,1.006L12.811,1.728z"/>
	</g>
</g>
</svg>
