<?xml version="1.0" encoding="utf-8"?>
<!-- Generator: Adobe Illustrator 25.0.0, SVG Export Plug-In . SVG Version: 6.00 Build 0)  -->
<svg version="1.1" id="Layer_1" xmlns="http://www.w3.org/2000/svg" xmlns:xlink="http://www.w3.org/1999/xlink" x="0px" y="0px"
	 viewBox="0 0 36 36" style="enable-background:new 0 0 36 36;" xml:space="preserve">
<style type="text/css">
	.st0{fill:#F0AB00;}
	.st1{fill:#A8A240;}
	.st2{fill:#40875E;}
	.st3{fill:#0B4A99;}
</style>
<g>
	<g>
		<g>
			<path class="st3" d="M28.87,35.89H3.19C1.43,35.89,0,34.46,0,32.7V7.02c0-1.76,1.43-3.19,3.19-3.19h21.53v1.25H3.19
				c-1.07,0-1.94,0.87-1.94,1.95V32.7c0,1.07,0.87,1.94,1.94,1.94h25.68c1.07,0,1.95-0.87,1.95-1.94V14.34h1.25V32.7
				C32.07,34.46,30.63,35.89,28.87,35.89z"/>
		</g>
	</g>
	<g>
		<path class="st3" d="M34.29,6.36L29.4,2.48l1.27-1.6c0.34-0.42,0.82-0.69,1.36-0.76c0.54-0.06,1.07,0.09,1.49,0.42l1.71,1.36
			c0.88,0.7,1.03,1.97,0.33,2.85L34.29,6.36z M31.15,2.28l2.94,2.33l0.5-0.63c0.27-0.34,0.21-0.83-0.13-1.1l-1.71-1.35
			c-0.16-0.13-0.37-0.19-0.58-0.16c-0.21,0.02-0.39,0.13-0.52,0.29L31.15,2.28z"/>
	</g>
	<g>
		<path class="st3" d="M10.02,32.7c-0.17,0-0.34-0.06-0.49-0.17c-0.26-0.2-0.36-0.54-0.27-0.85l1.99-6.35L28.76,3.23l4.89,3.87
			L16.06,29.23l-5.65,3.35C10.29,32.66,10.15,32.7,10.02,32.7z M12.3,26.02l-1.5,4.89l4.52-2.69L31.89,7.3l-2.93-2.32L12.3,26.02z"
			/>
	</g>
</g>
</svg>
