<?xml version="1.0" encoding="utf-8"?>
<!-- Generator: Adobe Illustrator 26.0.1, SVG Export Plug-In . SVG Version: 6.00 Build 0)  -->
<svg version="1.1" id="Layer_1" xmlns="http://www.w3.org/2000/svg" xmlns:xlink="http://www.w3.org/1999/xlink" x="0px" y="0px"
	 viewBox="0 0 36 36" style="enable-background:new 0 0 36 36;" xml:space="preserve">
<style type="text/css">
	.st0{fill:#7AB5F4;}
	.st1{fill:none;stroke:#0B4A99;stroke-width:1.3;stroke-miterlimit:10;}
	.st2{fill:#0B4A99;}
</style>
<rect x="8" y="1" class="st0" width="10" height="34"/>
<g>
	<g>
		<path class="st2" d="M33.7,36H2.3C1,36,0,35,0,33.7V2.3C0,1,1,0,2.3,0h31.4C35,0,36,1,36,2.3v31.4C36,35,35,36,33.7,36z M2.3,1.3
			c-0.6,0-1.1,0.5-1.1,1.1v31.4c0,0.6,0.5,1.1,1.1,1.1h31.4c0.6,0,1.1-0.5,1.1-1.1V2.3c0-0.6-0.5-1.1-1.1-1.1H2.3V1.3z"/>
	</g>
	<g>
		<rect x="18" y="8" class="st2" width="17.4" height="1.3"/>
	</g>
	<g>
		<rect x="8.3" y="0.7" class="st2" width="10.6" height="1.3"/>
	</g>
	<g>
		<rect x="8.3" y="34.5" class="st2" width="10.6" height="1.3"/>
	</g>
	<g>
		<rect x="0.6" y="8" class="st2" width="8.4" height="1.3"/>
	</g>
	<g>
		<rect x="8.1" y="0.9" class="st2" width="1.9" height="34.7"/>
	</g>
	<g>
		<g>
			<rect x="17" y="0.9" class="st2" width="1.9" height="34.7"/>
		</g>
	</g>
	<g>
		<g>
			<rect x="26.3" y="8.6" class="st2" width="1.3" height="27"/>
		</g>
	</g>
	<g>
		<rect x="18" y="14.6" class="st2" width="17.4" height="1.3"/>
	</g>
	<g>
		<rect x="0.6" y="14.6" class="st2" width="8.4" height="1.3"/>
	</g>
	<g>
		<rect x="18" y="21.3" class="st2" width="17.4" height="1.3"/>
	</g>
	<g>
		<rect x="0.6" y="21.3" class="st2" width="8.4" height="1.3"/>
	</g>
	<g>
		<rect x="18" y="27.9" class="st2" width="17.4" height="1.3"/>
	</g>
	<g>
		<rect x="0.6" y="27.9" class="st2" width="8.4" height="1.3"/>
	</g>
</g>
</svg>
