<svg width="382" height="140" viewBox="0 0 382 140" fill="none" xmlns="http://www.w3.org/2000/svg">
<rect width="382" height="140" rx="70" fill="white"/>
<path d="M64.99 64.21C64.45 62.87 63.93 62.52 62.43 62.52H55.49H55.42C55.33 62.52 55.21 62.52 55.11 62.54C54.76 62.63 54.58 62.88 54.6 63.23C54.62 63.58 54.83 63.8 55.18 63.86C55.27 63.87 55.37 63.87 55.46 63.87H62.63C63.42 63.87 63.66 64.11 63.66 64.88V84.65V84.71V84.82C63.65 85.14 63.54 85.25 63.23 85.26C63.13 85.26 63.03 85.26 62.94 85.26C62.78 85.26 62.62 85.25 62.45 85.27C62.31 85.29 62.28 85.26 62.27 85.26C62.26 85.25 62.24 85.21 62.24 85.05C62.25 80.05 62.25 75.05 62.25 70.05V68.76C62.25 68.49 62.25 68.21 62.17 67.93C61.89 66.96 61.09 66.4 59.96 66.4H56.17C52.35 66.4 48.4 66.39 44.51 66.41C44.5 66.41 44.5 66.41 44.49 66.41C43.39 66.41 42.67 66.02 42.15 65.15C41.46 64 40.4 63.41 39 63.41C38.98 63.41 38.96 63.41 38.94 63.41C37.82 63.42 36.7 63.42 35.58 63.41C34.81 63.41 34.04 63.41 33.26 63.41C33.13 63.41 33.11 63.39 33.11 63.39C33.11 63.39 33.09 63.37 33.1 63.27C33.11 63.08 33.11 62.9 33.11 62.72C33.11 62.61 33.11 62.5 33.11 62.4C33.13 61.47 33.71 60.89 34.63 60.89C36.61 60.89 38.58 60.89 40.56 60.89H41.85C42.67 60.89 43.28 61.22 43.72 61.89C43.76 61.95 43.8 62.01 43.84 62.06C43.88 62.12 43.92 62.18 43.96 62.23C44.67 63.31 45.69 63.86 46.99 63.86C47 63.86 47 63.86 47.01 63.86C48.32 63.86 49.63 63.86 50.94 63.86H52.68C52.75 63.86 52.82 63.86 52.88 63.85C53.25 63.81 53.48 63.56 53.49 63.2C53.5 62.84 53.28 62.59 52.91 62.52C52.82 62.5 52.74 62.51 52.65 62.51H52.57H51.27C49.83 62.51 48.39 62.51 46.95 62.51C46.16 62.51 45.55 62.19 45.1 61.53L44.79 61.07C44.1 60.06 43.15 59.55 41.97 59.54C39.42 59.52 36.92 59.52 34.54 59.53C33.2 59.55 32.08 60.46 31.82 61.74C31.74 62.14 31.75 62.55 31.76 62.95C31.76 63.07 31.77 63.18 31.77 63.3C31.77 63.37 31.76 63.39 31.76 63.39C31.76 63.39 31.74 63.4 31.65 63.41C30.12 63.51 29.01 64.67 29.01 66.17C29 73.54 29 80.91 29 88.28C29 89.46 29.89 90.39 31.08 90.44C31.72 90.47 32.37 90.46 33 90.45H33.28C33.69 90.45 33.97 90.19 33.98 89.81C33.99 89.41 33.73 89.15 33.29 89.11C33.23 89.11 33.16 89.11 33.1 89.11H31.44C30.61 89.11 30.34 88.84 30.34 88V82.39C30.34 77.16 30.34 71.74 30.33 66.42C30.33 65.92 30.5 65.48 30.8 65.18C31.1 64.89 31.52 64.74 32.01 64.75C34.06 64.79 36.28 64.79 38.81 64.76C38.83 64.76 38.85 64.76 38.87 64.76C39.89 64.76 40.59 65.15 41.08 65.97C41.79 67.17 42.87 67.75 44.36 67.75C44.37 67.75 44.37 67.75 44.38 67.75C48.13 67.74 51.88 67.74 55.64 67.74H59.86C60.68 67.74 60.89 67.96 60.89 68.79C60.89 75.36 60.89 81.92 60.89 88.49C60.89 88.81 60.86 88.97 60.79 89.05C60.72 89.12 60.55 89.15 60.23 89.15L36.11 89.12H36.04C35.92 89.12 35.79 89.12 35.67 89.14C35.34 89.2 35.15 89.43 35.14 89.77C35.13 90.1 35.31 90.35 35.63 90.43C35.75 90.46 35.87 90.47 35.98 90.47C44.14 90.48 52.29 90.48 60.45 90.48C61.52 90.48 62.23 89.78 62.25 88.7C62.26 88.37 62.25 88.04 62.25 87.71V87.27C62.25 86.95 62.25 86.72 62.31 86.66C62.37 86.6 62.6 86.61 62.9 86.61C63.42 86.61 63.91 86.59 64.35 86.25C64.62 86.04 64.76 85.77 64.9 85.5C64.93 85.44 64.96 85.39 64.99 85.33L65 64.27L64.99 64.21Z" fill="#0B4A99"/>
<path d="M36.58 73.5H37.51C37.82 73.5 38.13 73.5 38.44 73.5C38.87 73.5 39.29 73.5 39.72 73.5C40.54 73.5 40.99 73.05 41 72.24C41.01 71.59 41.01 70.94 41 70.29C40.99 69.51 40.53 69.04 39.78 69.04C37.59 69.03 35.44 69.03 33.4 69.04C32.66 69.04 32.21 69.5 32.2 70.27C32.19 70.86 32.2 71.45 32.2 72.04V72.19C32.2 73.08 32.63 73.51 33.52 73.51C34.23 73.51 34.94 73.51 35.64 73.51L36.58 73.5ZM33.53 70.47C33.53 70.4 33.54 70.38 33.53 70.38C33.53 70.38 33.56 70.37 33.63 70.37C35.59 70.38 37.56 70.38 39.52 70.37C39.6 70.37 39.63 70.38 39.63 70.38C39.63 70.38 39.64 70.4 39.64 70.49C39.62 71.11 39.62 71.59 39.64 72.03C39.64 72.12 39.63 72.14 39.63 72.14C39.63 72.14 39.61 72.15 39.49 72.16C38.77 72.15 38.05 72.16 37.32 72.16H36.53H35.75C35.06 72.16 34.36 72.16 33.67 72.17C33.57 72.17 33.53 72.15 33.53 72.15C33.53 72.15 33.51 72.13 33.52 72.01C33.55 71.56 33.55 71.08 33.53 70.47Z" fill="#0B4A99"/>
<path d="M143 67.3C137.1 67.3 131.1 65.5 131.1 62.2C131.1 58.8 137.1 57 143 57C148.9 57 154.9 58.8 154.9 62.1C154.9 65.5 148.9 67.3 143 67.3ZM143 58.5C136.7 58.5 132.5 60.4 132.5 62.2C132.5 64 136.7 65.9 143 65.9C149.3 65.9 153.5 64 153.5 62.2C153.5 60.4 149.3 58.5 143 58.5Z" fill="#0B4A99"/>
<path d="M143.3 75.3C136.7 75.3 131.6 73.4 131 70.6L132.4 70.3C132.8 72 137 73.8 143.2 73.8V75.3H143.3Z" fill="#0B4A99"/>
<path d="M142.7 75.3V73.8C148.9 73.8 153.2 72 153.5 70.3L154.9 70.6C154.3 73.4 149.3 75.3 142.7 75.3Z" fill="#0B4A99"/>
<path d="M143.3 84.3C136.7 84.3 131.6 82.4 131 79.6L132.4 79.3C132.8 81 137 82.8 143.2 82.8V84.3H143.3Z" fill="#0B4A99"/>
<path d="M142.7 84.3V82.8C148.9 82.8 153.2 81 153.5 79.3L154.9 79.6C154.3 82.4 149.3 84.3 142.7 84.3Z" fill="#0B4A99"/>
<path d="M132.5 62.3H131.1V72.9H132.5V62.3Z" fill="#0B4A99"/>
<path d="M154.9 62.6H153.5V72.8H154.9V62.6Z" fill="#0B4A99"/>
<path d="M132.5 71.8H131.1V84.3H132.5V71.8Z" fill="#0B4A99"/>
<path d="M154.9 72.8H153.5V84.1H154.9V72.8Z" fill="#0B4A99"/>
<path d="M143.3 93C136.7 93 131.6 91.1 131 88.3L132.5 88C132.9 89.7 137.1 91.5 143.3 91.5V93Z" fill="#0B4A99"/>
<path d="M142.7 93V91.5C148.9 91.5 153.2 89.7 153.5 88L154.9 88.3C154.3 91.1 149.3 93 142.7 93Z" fill="#0B4A99"/>
<path d="M132.5 82.7H131.1V88.7H132.5V82.7Z" fill="#0B4A99"/>
<path d="M154.9 83.2H153.5V88.6H154.9V83.2Z" fill="#0B4A99"/>
<g clip-path="url(#clip0_0_1)">
<path d="M245.521 71.8792H243.208C242.9 71.8792 242.746 71.725 242.592 71.4167C242.283 70.4917 241.975 69.7208 241.512 68.95C241.358 68.6417 241.358 68.3333 241.667 68.1792L243.208 66.4833C243.517 66.175 243.517 65.8667 243.208 65.5583L240.279 62.6292C239.971 62.3208 239.662 62.3208 239.354 62.6292L237.658 64.325C237.504 64.4792 237.196 64.6333 236.887 64.4792C236.117 64.0167 235.346 63.7083 234.421 63.4C234.112 63.4 233.958 63.0917 233.958 62.7833V60.625C233.958 60.3167 233.65 60.0083 233.342 60.0083H229.488C229.179 60.0083 228.871 60.1625 228.871 60.625V62.9375C228.871 63.2458 228.717 63.4 228.408 63.5542C227.637 63.7083 226.713 64.1708 225.942 64.4792C225.788 64.6333 225.479 64.6333 225.171 64.4792L223.629 62.7833C223.321 62.475 223.012 62.475 222.704 62.7833L219.775 65.7125C219.467 66.0208 219.467 66.3292 219.775 66.6375L221.471 68.3333C221.625 68.3333 221.779 68.6417 221.625 68.95C221.162 69.7208 220.854 70.4917 220.546 71.4167C220.546 71.725 220.237 71.8792 219.929 71.8792H217.617C217.308 71.8792 217 72.1875 217 72.4958V76.6583C217 76.9667 217.308 77.275 217.617 77.275H219.929C220.237 77.275 220.392 77.4292 220.546 77.7375C220.854 78.6625 221.162 79.4333 221.625 80.2042C221.779 80.3583 221.625 80.6667 221.471 80.8208L219.775 82.5167C219.467 82.825 219.467 83.1333 219.775 83.4417L222.704 86.3708C223.012 86.6792 223.321 86.6792 223.629 86.3708L225.325 84.675C225.479 84.5208 225.787 84.3667 226.096 84.5208C226.867 84.9833 227.637 85.2917 228.562 85.6C228.871 85.6 229.025 85.9083 229.025 86.2167V88.375C229.025 88.6833 229.333 88.9917 229.642 88.9917H233.65C233.958 88.9917 234.267 88.6833 234.267 88.375V86.0625C234.267 85.7542 234.421 85.6 234.729 85.4458C235.654 85.1375 236.425 84.8292 237.196 84.3667C237.504 84.2125 237.813 84.2125 237.967 84.5208L239.662 86.2167C239.971 86.525 240.279 86.525 240.587 86.2167L243.517 83.2875C243.825 82.9792 243.825 82.6708 243.517 82.3625L241.667 80.8208C241.512 80.6667 241.358 80.3583 241.512 80.05C241.975 79.2792 242.283 78.5083 242.592 77.5833C242.592 77.275 242.9 77.1208 243.208 77.1208H245.521C245.829 77.1208 246.137 76.8125 246.137 76.5042V72.3417C246.137 72.1875 245.829 71.8792 245.521 71.8792ZM231.492 80.5125C228.254 80.5125 225.479 77.8917 225.479 74.5C225.479 71.2625 228.1 68.4875 231.492 68.4875C234.729 68.4875 237.504 71.1083 237.504 74.5C237.504 77.7375 234.883 80.5125 231.492 80.5125Z" fill="#4D245A"/>
<path d="M243.825 78.6625C243.517 78.6625 243.208 78.6625 242.9 78.5083C242.746 79.125 242.437 79.7417 242.129 80.3583L243.825 82.0542C244.287 82.5167 244.287 83.2875 243.825 83.75L242.9 84.675H245.367C245.675 84.675 245.829 84.5208 245.829 84.2125V82.5167C245.829 82.3625 245.983 82.2083 246.137 82.0542C246.754 81.9 247.371 81.5917 247.833 81.2833C247.988 81.1292 248.142 81.2833 248.296 81.2833L249.529 82.5167C249.683 82.6708 249.992 82.6708 250.146 82.5167L251.071 81.5917L246.908 77.1208C246.137 78.2 245.058 78.6625 243.825 78.6625Z" fill="#5C2E6D"/>
<path d="M253.538 72.65H251.842C251.688 72.65 251.533 72.4958 251.379 72.3417C251.225 71.725 250.917 71.1083 250.608 70.6458C250.454 70.4917 250.608 70.3375 250.608 70.1833L251.842 68.95C251.996 68.7958 251.996 68.4875 251.842 68.3333L250.917 67.4083L246.754 71.8792C247.371 72.65 247.833 73.575 247.833 74.6542C247.833 75.7333 247.371 76.8125 246.754 77.4292L250.917 81.9L251.996 80.8208C252.15 80.6667 252.15 80.3583 251.996 80.2042L250.917 78.9708C250.763 78.8167 250.763 78.6625 250.917 78.5083C251.225 78.0458 251.533 77.4292 251.688 76.8125C251.688 76.6583 251.842 76.5042 252.15 76.5042H253.846C254.154 76.5042 254.308 76.35 254.308 76.0417V73.1125C254 72.8042 253.846 72.65 253.538 72.65Z" fill="#713C84"/>
<path d="M249.992 66.3292C249.838 66.175 249.529 66.175 249.375 66.3292L248.142 67.5625C247.988 67.7167 247.833 67.7167 247.679 67.5625C247.217 67.2542 246.6 67.1 245.983 66.7917C245.829 66.7917 245.675 66.6375 245.675 66.3292V64.7875C245.675 64.4792 245.521 64.325 245.213 64.325H242.746L243.671 65.25C244.133 65.7125 244.133 66.4833 243.671 66.9458L241.975 68.6417C242.283 69.2583 242.592 69.875 242.746 70.4917C243.054 70.4917 243.363 70.3375 243.671 70.3375C244.904 70.3375 245.983 70.8 246.754 71.725L250.917 67.2542L249.992 66.3292Z" fill="#945EA3"/>
</g>
<path d="M343.29 82.13C342.98 82.13 342.71 81.88 342.7 81.57C342.69 81.25 342.94 80.97 343.26 80.96C346.38 80.83 348.82 78.4 348.82 75.43C348.82 72.38 346.27 69.9 343.14 69.9H342.57L342.55 69.33C342.42 65.74 340.41 61.88 336.29 61.88C330.77 61.88 329.35 65.41 329 67.51L328.97 67.7L328.84 67.83C328.59 68.08 328.33 68.03 327.84 67.94C326.69 67.73 324 67.25 321.96 69.02C321.11 69.76 320.53 70.87 320.41 71.99L320.35 72.54L319.8 72.51C318.53 72.44 317.35 72.87 316.47 73.71C315.63 74.5 315.18 75.58 315.18 76.73C315.18 79.02 317.11 80.95 319.4 80.95H324.3C324.63 80.95 324.89 81.21 324.89 81.54C324.89 81.87 324.63 82.13 324.3 82.13H319.4C316.47 82.13 314 79.66 314 76.73C314 75.25 314.59 73.87 315.66 72.86C316.65 71.92 317.94 71.39 319.33 71.33C319.59 70.1 320.25 68.95 321.19 68.13C323.59 66.03 326.68 66.53 327.95 66.76C328.46 64.58 330.21 60.7 336.29 60.7C340.97 60.7 343.36 64.77 343.69 68.73C347.21 69.01 349.99 71.9 349.99 75.42C349.99 79.02 347.05 81.97 343.31 82.13C343.31 82.13 343.3 82.13 343.29 82.13Z" fill="#0B4A99"/>
<path d="M340.08 76.04H326.89C326.39 76.04 325.99 75.63 325.99 75.14V71.85C325.99 71.35 326.4 70.95 326.89 70.95H340.08C340.58 70.95 340.98 71.36 340.98 71.85V75.14C340.98 75.64 340.57 76.04 340.08 76.04ZM327.17 74.87H339.8V72.13H327.17V74.87Z" fill="#0B4A99"/>
<path d="M328.91 74.78C328.58 74.78 328.32 74.52 328.32 74.19V72.99C328.32 72.66 328.58 72.4 328.91 72.4C329.24 72.4 329.5 72.66 329.5 72.99V74.19C329.5 74.52 329.24 74.78 328.91 74.78Z" fill="#0B4A99"/>
<path d="M330.57 74.78C330.24 74.78 329.98 74.52 329.98 74.19V72.99C329.98 72.66 330.24 72.4 330.57 72.4C330.9 72.4 331.16 72.66 331.16 72.99V74.19C331.16 74.52 330.89 74.78 330.57 74.78Z" fill="#0B4A99"/>
<path d="M332.22 74.78C331.89 74.78 331.63 74.52 331.63 74.19V72.99C331.63 72.66 331.89 72.4 332.22 72.4C332.55 72.4 332.81 72.66 332.81 72.99V74.19C332.81 74.52 332.55 74.78 332.22 74.78Z" fill="#0B4A99"/>
<path d="M338.7 74.1H336.4C336.07 74.1 335.81 73.84 335.81 73.51C335.81 73.18 336.07 72.92 336.4 72.92H338.7C339.03 72.92 339.29 73.18 339.29 73.51C339.29 73.84 339.02 74.1 338.7 74.1Z" fill="#0B4A99"/>
<path d="M340.08 81.67H326.89C326.39 81.67 325.99 81.26 325.99 80.77V77.48C325.99 76.98 326.4 76.58 326.89 76.58H340.08C340.58 76.58 340.98 76.99 340.98 77.48V80.77C340.98 81.27 340.57 81.67 340.08 81.67ZM327.17 80.49H339.8V77.75H327.17V80.49Z" fill="#0B4A99"/>
<path d="M328.91 80.41C328.58 80.41 328.32 80.15 328.32 79.82V78.62C328.32 78.29 328.58 78.03 328.91 78.03C329.24 78.03 329.5 78.29 329.5 78.62V79.82C329.5 80.14 329.24 80.41 328.91 80.41Z" fill="#0B4A99"/>
<path d="M330.57 80.41C330.24 80.41 329.98 80.15 329.98 79.82V78.62C329.98 78.29 330.24 78.03 330.57 78.03C330.9 78.03 331.16 78.29 331.16 78.62V79.82C331.16 80.14 330.89 80.41 330.57 80.41Z" fill="#0B4A99"/>
<path d="M332.22 80.41C331.89 80.41 331.63 80.15 331.63 79.82V78.62C331.63 78.29 331.89 78.03 332.22 78.03C332.55 78.03 332.81 78.29 332.81 78.62V79.82C332.81 80.14 332.55 80.41 332.22 80.41Z" fill="#0B4A99"/>
<path d="M338.7 79.73H336.4C336.07 79.73 335.81 79.47 335.81 79.14C335.81 78.81 336.07 78.55 336.4 78.55H338.7C339.03 78.55 339.29 78.81 339.29 79.14C339.29 79.47 339.02 79.73 338.7 79.73Z" fill="#0B4A99"/>
<path d="M340.08 87.3H326.89C326.39 87.3 325.99 86.89 325.99 86.4V83.1C325.99 82.6 326.4 82.2 326.89 82.2H340.08C340.58 82.2 340.98 82.61 340.98 83.1V86.39C340.98 86.89 340.57 87.3 340.08 87.3ZM327.17 86.12H339.8V83.38H327.17V86.12Z" fill="#0B4A99"/>
<path d="M328.91 86.03C328.58 86.03 328.32 85.77 328.32 85.44V84.24C328.32 83.91 328.58 83.65 328.91 83.65C329.24 83.65 329.5 83.91 329.5 84.24V85.44C329.5 85.77 329.24 86.03 328.91 86.03Z" fill="#0B4A99"/>
<path d="M330.57 86.03C330.24 86.03 329.98 85.77 329.98 85.44V84.24C329.98 83.91 330.24 83.65 330.57 83.65C330.9 83.65 331.16 83.91 331.16 84.24V85.44C331.16 85.77 330.89 86.03 330.57 86.03Z" fill="#0B4A99"/>
<path d="M332.22 86.03C331.89 86.03 331.63 85.77 331.63 85.44V84.24C331.63 83.91 331.89 83.65 332.22 83.65C332.55 83.65 332.81 83.91 332.81 84.24V85.44C332.81 85.77 332.55 86.03 332.22 86.03Z" fill="#0B4A99"/>
<path d="M338.7 85.36H336.4C336.07 85.36 335.81 85.1 335.81 84.77C335.81 84.44 336.07 84.18 336.4 84.18H338.7C339.03 84.18 339.29 84.44 339.29 84.77C339.29 85.1 339.02 85.36 338.7 85.36Z" fill="#0B4A99"/>
<path d="M328.72 77.72C328.39 77.72 328.13 77.46 328.13 77.13V75.47C328.13 75.14 328.39 74.88 328.72 74.88C329.05 74.88 329.31 75.14 329.31 75.47V77.13C329.31 77.45 329.05 77.72 328.72 77.72Z" fill="#0B4A99"/>
<path d="M338.09 77.72C337.76 77.72 337.5 77.46 337.5 77.13V75.47C337.5 75.14 337.76 74.88 338.09 74.88C338.42 74.88 338.68 75.14 338.68 75.47V77.13C338.68 77.45 338.42 77.72 338.09 77.72Z" fill="#0B4A99"/>
<path d="M328.72 83.25C328.39 83.25 328.13 82.99 328.13 82.66V81.08C328.13 80.75 328.39 80.49 328.72 80.49C329.05 80.49 329.31 80.75 329.31 81.08V82.66C329.31 82.99 329.05 83.25 328.72 83.25Z" fill="#0B4A99"/>
<path d="M338.09 83.25C337.76 83.25 337.5 82.99 337.5 82.66V81.08C337.5 80.75 337.76 80.49 338.09 80.49C338.42 80.49 338.68 80.75 338.68 81.08V82.66C338.68 82.99 338.42 83.25 338.09 83.25Z" fill="#0B4A99"/>
<defs>
<clipPath id="clip0_0_1">
<rect width="37" height="37" fill="white" transform="translate(217 56)"/>
</clipPath>
</defs>
</svg>
