<?xml version="1.0" encoding="utf-8"?>
<!-- Generator: Adobe Illustrator 25.0.0, SVG Export Plug-In . SVG Version: 6.00 Build 0)  -->
<svg version="1.1" id="Layer_1" xmlns="http://www.w3.org/2000/svg" xmlns:xlink="http://www.w3.org/1999/xlink" x="0px" y="0px"
	 viewBox="0 0 36 36" style="enable-background:new 0 0 36 36;" xml:space="preserve">
<style type="text/css">
	.st0{fill:#0B4A99;}
	.st1{fill:none;stroke:#FFFFFF;stroke-width:1.3;stroke-miterlimit:10;}
</style>
<g>
	<path class="st0" d="M35.99,7.21c-0.54-1.34-1.06-1.69-2.56-1.69l-6.94,0l-0.07,0c-0.09,0-0.21,0-0.31,0.02
		c-0.35,0.09-0.53,0.34-0.51,0.69c0.02,0.35,0.23,0.57,0.58,0.63c0.09,0.01,0.19,0.01,0.28,0.01l7.17,0c0.79,0,1.03,0.24,1.03,1.01
		v19.77l0,0.06l0,0.11c-0.01,0.32-0.12,0.43-0.43,0.44c-0.1,0-0.2,0-0.29,0c-0.16,0-0.32-0.01-0.49,0.01
		c-0.14,0.02-0.17-0.01-0.18-0.01c-0.01-0.01-0.03-0.05-0.03-0.21c0.01-5,0.01-10,0.01-15v-1.29c0-0.27,0-0.55-0.08-0.83
		c-0.28-0.97-1.08-1.53-2.21-1.53l-3.79,0c-3.82,0-7.77-0.01-11.66,0.01c-0.01,0-0.01,0-0.02,0c-1.1,0-1.82-0.39-2.34-1.26
		c-0.69-1.15-1.75-1.74-3.15-1.74c-0.02,0-0.04,0-0.06,0C8.82,6.42,7.7,6.42,6.58,6.41c-0.77,0-1.54,0-2.32,0c0,0,0,0,0,0
		c-0.13,0-0.15-0.02-0.15-0.02c0,0-0.02-0.02-0.01-0.12C4.11,6.08,4.11,5.9,4.11,5.72c0-0.11,0-0.22,0-0.32
		c0.02-0.93,0.6-1.51,1.52-1.51c1.98,0,3.95,0,5.93,0l1.29,0c0.82,0,1.43,0.33,1.87,1c0.04,0.06,0.08,0.12,0.12,0.17
		c0.04,0.06,0.08,0.12,0.12,0.17c0.71,1.08,1.73,1.63,3.03,1.63c0.01,0,0.01,0,0.02,0c1.31,0,2.62,0,3.93,0l1.74,0
		c0.07,0,0.14,0,0.2-0.01c0.37-0.04,0.6-0.29,0.61-0.65c0.01-0.36-0.21-0.61-0.58-0.68c-0.09-0.02-0.17-0.01-0.26-0.01l-0.08,0
		l-1.3,0c-1.44,0-2.88,0-4.32,0c-0.79,0-1.4-0.32-1.85-0.98l-0.31-0.46c-0.69-1.01-1.64-1.52-2.82-1.53
		c-2.55-0.02-5.05-0.02-7.43-0.01C4.2,2.55,3.08,3.46,2.82,4.74c-0.08,0.4-0.07,0.81-0.06,1.21c0,0.12,0.01,0.23,0.01,0.35
		c0,0.07-0.01,0.09-0.01,0.09c0,0-0.02,0.01-0.11,0.02c-1.53,0.1-2.64,1.26-2.64,2.76C0,16.54,0,23.91,0,31.28
		c0,1.18,0.89,2.11,2.08,2.16c0.64,0.03,1.29,0.02,1.92,0.01l0.28,0c0.41,0,0.69-0.26,0.7-0.64c0.01-0.4-0.25-0.66-0.69-0.7
		c-0.06,0-0.13,0-0.19,0H2.44c-0.83,0-1.1-0.27-1.1-1.11l0-5.61c0-5.23,0-10.65-0.01-15.97c0-0.5,0.17-0.94,0.47-1.24
		c0.3-0.29,0.72-0.44,1.21-0.43c2.05,0.04,4.27,0.04,6.8,0.01c0.02,0,0.04,0,0.06,0c1.02,0,1.72,0.39,2.21,1.21
		c0.71,1.2,1.79,1.78,3.28,1.78c0.01,0,0.01,0,0.02,0c3.75-0.01,7.5-0.01,11.26-0.01l4.22,0c0.82,0,1.03,0.22,1.03,1.05
		c0,6.57,0,13.13,0,19.7c0,0.32-0.03,0.48-0.1,0.56c-0.07,0.07-0.24,0.1-0.56,0.1c0,0,0,0,0,0L7.11,32.12l-0.07,0
		c-0.12,0-0.25,0-0.37,0.02c-0.33,0.06-0.52,0.29-0.53,0.63c-0.01,0.33,0.17,0.58,0.49,0.66c0.12,0.03,0.24,0.04,0.35,0.04
		c8.16,0.01,16.31,0.01,24.47,0.01h0c1.07,0,1.78-0.7,1.8-1.78c0.01-0.33,0-0.66,0-0.99l0-0.44c0-0.32,0-0.55,0.06-0.61
		c0.06-0.06,0.29-0.05,0.59-0.05c0.52,0,1.01-0.02,1.45-0.36c0.27-0.21,0.41-0.48,0.55-0.75c0.03-0.06,0.06-0.11,0.09-0.17L36,7.27
		L35.99,7.21z"/>
	<path class="st0" d="M7.58,16.5l0.93,0c0.31,0,0.62,0,0.93,0c0.43,0,0.85,0,1.28,0c0.82,0,1.27-0.45,1.28-1.26
		c0.01-0.65,0.01-1.3,0-1.95c-0.01-0.78-0.47-1.25-1.22-1.25c-2.19-0.01-4.34-0.01-6.38,0c-0.74,0-1.19,0.46-1.2,1.23
		c-0.01,0.59,0,1.18,0,1.77v0.15c0,0.89,0.43,1.32,1.32,1.32c0.71,0,1.42,0,2.12,0L7.58,16.5z M4.53,13.47c0-0.07,0.01-0.09,0-0.09
		c0,0,0.03-0.01,0.1-0.01c0,0,0,0,0,0c1.96,0.01,3.93,0.01,5.89,0c0,0,0,0,0,0c0.08,0,0.11,0.01,0.11,0.01c0,0,0.01,0.02,0.01,0.11
		c-0.02,0.62-0.02,1.1,0,1.54c0,0.09-0.01,0.11-0.01,0.11c0,0-0.02,0.01-0.14,0.02c-0.72-0.01-1.44,0-2.17,0l-0.79,0l-0.78,0
		c-0.69,0-1.39,0-2.08,0.01c-0.1,0-0.14-0.02-0.14-0.02c0,0-0.02-0.02-0.01-0.14C4.55,14.56,4.55,14.08,4.53,13.47z"/>
</g>
</svg>
