<?xml version="1.0" encoding="utf-8"?>
<!-- Generator: Adobe Illustrator 25.0.0, SVG Export Plug-In . SVG Version: 6.00 Build 0)  -->
<svg version="1.1" id="Layer_1" xmlns="http://www.w3.org/2000/svg" xmlns:xlink="http://www.w3.org/1999/xlink" x="0px" y="0px"
	 viewBox="0 0 36 36" style="enable-background:new 0 0 36 36;" xml:space="preserve">
<style type="text/css">
	.st0{fill:#0B4A99;}
	.st1{fill:none;stroke:#FFFFFF;stroke-width:1.3;stroke-miterlimit:10;}
</style>
<g>
	<path class="st0" d="M35.71,13.6c-0.29-0.45-0.75-0.74-1.25-0.78c-0.64-0.05-1.28-0.03-1.9-0.02c-0.11,0-0.13-0.01-0.13-0.01
		c0,0-0.02-0.03-0.02-0.15c0.01-0.81,0.01-1.62,0.01-2.43l0-0.85c0-0.62-0.19-1.09-0.59-1.46c-0.45-0.41-0.99-0.46-1.42-0.46
		c0,0,0,0,0,0c-4.72,0-9.43,0-14.15,0.01c0,0,0,0,0,0c-0.2,0-0.3-0.05-0.41-0.21c-0.45-0.64-0.9-1.27-1.35-1.9
		c-0.42-0.59-0.84-1.17-1.25-1.76c-0.16-0.22-0.33-0.31-0.6-0.31c0,0,0,0,0,0c-2.64,0.01-5.28,0.01-7.93,0.01l-2.77,0
		c-0.21,0-0.4,0-0.59,0.05C0.7,3.49,0.27,3.93,0.01,4.71L0,31.39l0.01,0.06c0.35,0.86,0.93,1.28,1.78,1.28h0c5.56,0,11.12,0,16.68,0
		l9.73,0c0.84,0,1.42-0.4,1.7-1.19c2-5.48,4-10.96,6-16.44C36.08,14.62,36.01,14.06,35.71,13.6z M30.95,12.55
		c0,0.15-0.02,0.2-0.03,0.21c-0.02,0.02-0.07,0.04-0.21,0.04c0,0,0,0,0,0c-4.77-0.01-9.55-0.01-14.32-0.01l-3.07,0l-1.52,0l-3.81,0
		c-1.04,0-1.54,0.35-1.91,1.34L1.49,26.62V5.37c0-0.58,0.03-0.61,0.62-0.61l1.92,0c2.66,0,5.32,0,7.98-0.01c0,0,0,0,0,0
		c0.19,0,0.29,0.05,0.41,0.22c0.38,0.54,0.76,1.07,1.15,1.61c0.46,0.64,0.92,1.29,1.37,1.94c0.21,0.3,0.44,0.42,0.79,0.42
		c0,0,0,0,0,0c3.95-0.01,7.89-0.01,11.84-0.01h2.76c0.58,0,0.61,0.02,0.61,0.62c0,0.3,0,0.6,0,0.9
		C30.94,11.14,30.94,11.85,30.95,12.55z M1.54,30.88c0.33-0.91,0.66-1.82,0.99-2.72l1.64-4.49c1.1-3.01,2.2-6.03,3.29-9.05
		c0.1-0.27,0.21-0.34,0.49-0.34c0,0,0,0,0,0c6.9,0.01,13.81,0.01,20.7,0.01h5.45c0.13,0,0.3,0.02,0.36,0.11
		c0.06,0.09,0.03,0.26-0.02,0.38l-1.86,5.1c-1.35,3.7-2.7,7.39-4.04,11.09c-0.08,0.22-0.18,0.28-0.46,0.28c0,0,0,0,0,0
		c-2.7,0-5.4,0-8.1,0c-0.83,0-1.66,0-2.48,0H2.04l-0.08,0c-0.05,0-0.11,0-0.16,0c-0.14-0.01-0.24-0.03-0.27-0.08
		C1.49,31.11,1.5,31.01,1.54,30.88z"/>
</g>
</svg>
