<?xml version="1.0" encoding="utf-8"?>
<!-- Generator: Adobe Illustrator 25.0.0, SVG Export Plug-In . SVG Version: 6.00 Build 0)  -->
<svg version="1.1" id="Layer_1" xmlns="http://www.w3.org/2000/svg" xmlns:xlink="http://www.w3.org/1999/xlink" x="0px" y="0px"
	 viewBox="0 0 36 36" style="enable-background:new 0 0 36 36;" xml:space="preserve">
<style type="text/css">
	.st0{fill:#FFFFFF;}
	.st1{fill:#F0AB00;}
	.st2{fill:#40875E;}
	.st3{fill:#A8A240;}
	.st4{fill:#0B4A99;}
</style>
<g>
	<path class="st4" d="M14.5,35.4c-0.3,0-0.7-0.1-1-0.3c-0.4-0.3-0.7-0.8-0.7-1.3V17.7c0-0.5-0.2-1-0.6-1.4L0.7,4.7
		C0,4-0.2,3,0.2,2.1c0.4-0.9,1.2-1.5,2.2-1.5h31.2c1,0,1.9,0.6,2.2,1.5C36.2,3,36,4,35.3,4.7L23.7,16.3c-0.4,0.4-0.6,0.9-0.6,1.4
		v13.7c0,0.7-0.4,1.3-1.1,1.5l-7,2.3C14.8,35.4,14.7,35.4,14.5,35.4z M2.4,1.9c-0.5,0-0.9,0.3-1.1,0.7C1.2,3,1.3,3.5,1.6,3.8
		l11.6,11.6c0.6,0.6,0.9,1.4,0.9,2.3v16.1c0,0.2,0.1,0.3,0.2,0.3c0.1,0,0.2,0.1,0.3,0.1l7-2.3c0.2-0.1,0.3-0.2,0.3-0.4V17.7
		c0-0.9,0.3-1.7,0.9-2.3L34.4,3.8c0.3-0.3,0.4-0.8,0.2-1.3c-0.2-0.4-0.6-0.7-1.1-0.7H2.4z"/>
</g>
</svg>
