<?xml version="1.0" encoding="iso-8859-1"?>
<!-- Generator: Adobe Illustrator 12.0.0, SVG Export Plug-In . SVG Version: 6.00 Build 51448)  -->
<!DOCTYPE svg PUBLIC "-//W3C//DTD SVG 1.1//EN" "http://www.w3.org/Graphics/SVG/1.1/DTD/svg11.dtd" [
	<!ENTITY ns_svg "http://www.w3.org/2000/svg">
	<!ENTITY ns_xlink "http://www.w3.org/1999/xlink">
]>
<svg  version="1.1" id="Layer_1" xmlns="&ns_svg;" xmlns:xlink="&ns_xlink;" width="15.874" height="15.874"
	 viewBox="0 0 15.874 15.874" style="overflow:visible;enable-background:new 0 0 15.874 15.874;" xml:space="preserve">
<g>
	<g>
		<path style="fill:#0071C5;" d="M11.558,14.457c-0.098,0.086-0.211,0.131-0.34,0.131c-0.132,0-0.248-0.043-0.346-0.129
			c-0.1-0.086-0.149-0.205-0.149-0.361c0-0.137,0.048-0.252,0.145-0.344c0.096-0.094,0.211-0.141,0.351-0.141
			c0.138,0,0.253,0.047,0.347,0.141c0.093,0.092,0.14,0.207,0.14,0.344C11.704,14.252,11.655,14.369,11.558,14.457L11.558,14.457z"
			/>
		<path style="fill:#0071C5;" d="M12.775,11.439c-0.075,0.139-0.164,0.26-0.27,0.359c-0.102,0.102-0.287,0.273-0.554,0.512
			c-0.075,0.066-0.134,0.125-0.179,0.178c-0.044,0.051-0.077,0.096-0.098,0.139c-0.024,0.043-0.039,0.084-0.053,0.127
			c-0.011,0.043-0.029,0.117-0.052,0.225c-0.043,0.225-0.171,0.338-0.389,0.338c-0.112,0-0.208-0.035-0.285-0.111
			c-0.078-0.074-0.115-0.184-0.115-0.328c0-0.184,0.028-0.34,0.085-0.475c0.056-0.135,0.131-0.252,0.225-0.352
			c0.093-0.102,0.219-0.221,0.378-0.361c0.139-0.119,0.24-0.213,0.3-0.273c0.063-0.063,0.116-0.131,0.157-0.209
			c0.044-0.074,0.064-0.156,0.064-0.246c0-0.174-0.065-0.322-0.194-0.441c-0.129-0.117-0.297-0.178-0.501-0.178
			c-0.238,0-0.413,0.061-0.527,0.182c-0.113,0.119-0.209,0.297-0.285,0.531c-0.076,0.246-0.217,0.369-0.421,0.369
			c-0.122,0-0.226-0.043-0.31-0.129c-0.083-0.086-0.124-0.18-0.124-0.279c0-0.205,0.064-0.414,0.198-0.627
			c0.133-0.213,0.326-0.387,0.58-0.527c0.254-0.137,0.551-0.207,0.889-0.207c0.315,0,0.594,0.059,0.834,0.174
			c0.241,0.117,0.428,0.275,0.56,0.475c0.131,0.199,0.197,0.418,0.197,0.65C12.887,11.139,12.85,11.301,12.775,11.439L12.775,11.439
			z"/>
	</g>
	<path style="fill:#0071C5;" d="M15.272,11.818c0,2.23-1.81,4.039-4.039,4.039c-2.231,0-4.04-1.809-4.04-4.039
		c0-2.232,1.808-4.04,4.04-4.04C13.463,7.779,15.272,9.586,15.272,11.818z M11.233,8.472c-1.849,0-3.346,1.497-3.346,3.347
		c0,1.848,1.498,3.346,3.346,3.346c1.848,0,3.346-1.498,3.346-3.346C14.579,9.969,13.081,8.472,11.233,8.472z"/>
	<path style="fill:#0071C5;" d="M5.708,10.234v2.104c0,0.244-0.162,0.408-0.408,0.408c-0.241,0-0.403-0.164-0.403-0.408v-2.104
		C4.41,10.07,4.086,9.584,4.086,9.1c0-0.649,0.569-1.214,1.213-1.214c0.649,0,1.219,0.565,1.219,1.214
		C6.519,9.664,6.193,10.07,5.708,10.234L5.708,10.234z"/>
	<path style="fill:#0071C5;" d="M8.151,13.949H2.048c-0.297,0-0.538-0.242-0.538-0.539V7.522c0-0.297,0.241-0.538,0.538-0.538h8.064
		c0.296,0,0.537,0.241,0.537,0.538v0.879l0.999,0.018V7.378c0-0.839-0.684-1.576-1.58-1.576l0,0V3.96
		c0-2.157-1.788-3.944-3.946-3.944c-2.154,0-3.945,1.787-3.945,3.944v1.842c-0.893,0-1.576,0.683-1.576,1.576v5.924
		c0,0.893,0.683,1.578,1.576,1.578h6.889L8.151,13.949z M9.016,5.811H3.234V4.019c0-1.606,1.282-2.892,2.888-2.892
		c1.606,0,2.894,1.286,2.894,2.892V5.811z"/>
</g>
<rect style="fill:none;" width="15.874" height="15.874"/>
</svg>
