<?xml version="1.0" encoding="iso-8859-1"?>
<!-- Generator: Adobe Illustrator 12.0.0, SVG Export Plug-In . SVG Version: 6.00 Build 51448)  -->
<!DOCTYPE svg PUBLIC "-//W3C//DTD SVG 1.1//EN" "http://www.w3.org/Graphics/SVG/1.1/DTD/svg11.dtd" [
	<!ENTITY ns_svg "http://www.w3.org/2000/svg">
	<!ENTITY ns_xlink "http://www.w3.org/1999/xlink">
]>
<svg  version="1.1" id="Layer_1" xmlns="&ns_svg;" xmlns:xlink="&ns_xlink;" width="60.095" height="60.095"
	 viewBox="0 0 60.095 60.095" style="overflow:visible;enable-background:new 0 0 60.095 60.095;" xml:space="preserve">
<g>
	<g>
		<path style="fill:none;stroke:#008FD3;" d="M16.353,42.2c0,0.554-0.448,1.001-1.002,1.001H9.26c-0.553,0-1.001-0.447-1.001-1.001
			v-6.091c0-0.554,0.448-1.003,1.001-1.003h6.091c0.554,0,1.002,0.449,1.002,1.003V42.2z"/>
		<g>
			<g>
				<path style="fill:#008FD3;" d="M23.202,19.152c0,1.015-0.822,1.838-1.839,1.838h-11.18c-1.016,0-1.839-0.824-1.839-1.838V7.97
					c0-1.015,0.823-1.838,1.839-1.838h11.18c1.017,0,1.839,0.824,1.839,1.838V19.152z"/>
				<path style="fill:#008FD3;" d="M51.751,15.136c0,0.682-0.561,1.235-1.252,1.235H29.931c-0.69,0-1.25-0.553-1.25-1.235v-3.15
					c0-0.683,0.56-1.236,1.25-1.236h20.568c0.691,0,1.252,0.553,1.252,1.236V15.136z"/>
			</g>
			<path style="fill:#008FD3;" d="M51.837,28.987c0,0.794-0.554,1.437-1.236,1.437h-27.69c-0.682,0-1.236-0.643-1.236-1.437l0,0
				c0-0.793,0.554-1.437,1.236-1.437h27.69C51.283,27.55,51.837,28.193,51.837,28.987L51.837,28.987z"/>
			<path style="fill:#008FD3;" d="M16.353,31.3c0,0.553-0.448,1.002-1.002,1.002H9.26c-0.553,0-1.001-0.449-1.001-1.002v-6.09
				c0-0.553,0.448-1.001,1.001-1.001h6.091c0.554,0,1.002,0.448,1.002,1.001V31.3z"/>
			<path style="fill:#008FD3;" d="M51.837,39.887c0,0.794-0.554,1.437-1.236,1.437h-27.69c-0.682,0-1.236-0.643-1.236-1.437l0,0
				c0-0.795,0.554-1.437,1.236-1.437h27.69C51.283,38.45,51.837,39.092,51.837,39.887L51.837,39.887z"/>
			<path style="fill:#008FD3;" d="M51.837,50.648c0,0.792-0.554,1.437-1.236,1.437h-27.69c-0.682,0-1.236-0.645-1.236-1.437l0,0
				c0-0.794,0.554-1.438,1.236-1.438h27.69C51.283,49.21,51.837,49.854,51.837,50.648L51.837,50.648z"/>
			<path style="fill:#008FD3;" d="M16.353,52.963c0,0.551-0.448,1-1.002,1H9.26c-0.553,0-1.001-0.449-1.001-1v-6.091
				c0-0.554,0.448-1.003,1.001-1.003h6.091c0.554,0,1.002,0.449,1.002,1.003V52.963z"/>
			<path style="fill:#008FD3;" d="M13.148,41.88c-0.461,0.461-1.209,0.461-1.669,0l-2.587-2.587c-0.46-0.46-0.46-1.207,0-1.669
				c0.462-0.461,1.209-0.461,1.67,0l1.541,1.54c0.116,0.118,0.305,0.118,0.421,0l4.173-4.173c0.462-0.461,1.208-0.461,1.669,0
				c0.221,0.222,0.347,0.523,0.347,0.836s-0.125,0.612-0.347,0.834L13.148,41.88z"/>
		</g>
	</g>
	<path style="fill:#008FD3;" d="M60.095,52.176c0,4.37-3.771,7.919-8.43,7.919H8.437C3.778,60.095,0,56.546,0,52.176V7.923
		C0,3.55,3.778,0,8.437,0h43.229c4.658,0,8.43,3.55,8.43,7.923V52.176z M57.167,10.079c0-3.947-3.404-7.151-7.608-7.151H10.542
		c-4.204,0-7.614,3.204-7.614,7.151V50.02c0,3.944,3.41,7.147,7.614,7.147h39.017c4.204,0,7.608-3.203,7.608-7.147V10.079z"/>
</g>
</svg>
