<?xml version="1.0" encoding="utf-8"?>
<!-- Generator: Adobe Illustrator 25.0.0, SVG Export Plug-In . SVG Version: 6.00 Build 0)  -->
<svg version="1.1" id="Layer_1" xmlns="http://www.w3.org/2000/svg" xmlns:xlink="http://www.w3.org/1999/xlink" x="0px" y="0px"
	 viewBox="0 0 16 16" style="enable-background:new 0 0 16 16;" xml:space="preserve">
<style type="text/css">
	.st0{fill:#FFFFFF;}
</style>
<path class="st0" d="M0,5.3C0,3.5,0,1.8,0,0c1.8,0,3.5,0,5.3,0c0,0.6,0,1.2,0,1.8c-1.2,0-2.4,0-3.5,0c0,1.2,0,2.4,0,3.6
	C1.2,5.3,0.6,5.3,0,5.3z"/>
<path class="st0" d="M16,5.3c-0.6,0-1.2,0-1.8,0c0-1.2,0-2.4,0-3.6c-1.2,0-2.4,0-3.6,0c0-0.6,0-1.2,0-1.8c1.8,0,3.5,0,5.3,0
	C16,1.8,16,3.6,16,5.3z"/>
<path class="st0" d="M5.3,14.2c0,0.6,0,1.2,0,1.8c-1.8,0-3.5,0-5.3,0c0-1.8,0-3.5,0-5.3c0.6,0,1.2,0,1.8,0c0,1.2,0,2.4,0,3.6
	C3,14.2,4.1,14.2,5.3,14.2z"/>
<path class="st0" d="M14.2,10.7c0.6,0,1.2,0,1.8,0c0,1.8,0,3.5,0,5.3c-1.8,0-3.5,0-5.3,0c0-0.6,0-1.2,0-1.8c1.2,0,2.4,0,3.5,0
	C14.2,13,14.2,11.9,14.2,10.7z"/>
</svg>
