<?xml version="1.0" encoding="utf-8"?>
<!-- Generator: Adobe Illustrator 22.0.1, SVG Export Plug-In . SVG Version: 6.00 Build 0)  -->
<svg version="1.1" id="Layer_1" xmlns="http://www.w3.org/2000/svg" xmlns:xlink="http://www.w3.org/1999/xlink" x="0px" y="0px"
	 viewBox="0 0 200 200" style="enable-background:new 0 0 200 200;" xml:space="preserve">
<style type="text/css">
	.st0{fill:#40875E;}
	.st1{fill:#A8A240;}
	.st2{fill:#F0AB00;}
	.st3{fill:none;stroke:#000000;stroke-width:2;}
	.st4{fill:#F1AB1C;}
	.st5{fill:none;stroke:#000000;stroke-width:2;stroke-miterlimit:10;}
	.st6{fill:none;}
	.st7{fill:none;stroke:#EC1C24;stroke-width:0.25;}
	.st8{fill:#A69F3D;}
	.st9{fill:#EFAA1E;}
	.st10{fill-rule:evenodd;clip-rule:evenodd;fill:#F0AB00;}
	.st11{fill-rule:evenodd;clip-rule:evenodd;fill:#A69F3D;}
	.st12{fill:#A69F3D;stroke:#A69F3D;stroke-width:2;stroke-miterlimit:10;}
	.st13{fill:#EFAA1E;stroke:#EFAA1E;stroke-width:2;stroke-miterlimit:10;}
	.st14{fill:none;stroke:#A69F3D;stroke-width:2;stroke-miterlimit:10;}
</style>
<path class="st9" d="M84.6,88.7c0,0,1.9-0.1,3.4-1.1c0.7-0.5,0.8-1.4,0.4-2.1c-1.2-1.8-3-4.7-3-4.7l-3.2,0.3L84.6,88.7z"/>
<path class="st9" d="M91.8,96.5c1,1.4,0.3,3.4-1.4,3.9l-5.7,1.8c-1.4,0.4-2.9,0.3-4.1-0.4c-1.5-0.8-2.5-2.1-2.8-3.8l-2.1-14.3
	c-0.1-0.4,0.2-0.8,0.6-0.9l7.3-2.3c0.4-0.1,0.7,0.1,0.8,0.5l2,13.4l1.4-0.4c1.2-0.4,2.4,0.1,3.1,1.1L91.8,96.5 M81.8,81.6l-1.2,0.4
	l1,9.1c0.4,2,0,4,1.9,3.4l0,0L81.8,81.6z"/>
<rect x="110.3" y="63.8" transform="matrix(0.9549 -0.2968 0.2968 0.9549 -14.434 35.8252)" class="st9" width="0.9" height="3.3"/>
<polygon class="st9" points="111.4,67.4 109.6,70 107.2,62.4 110.2,63.5 "/>
<path class="st9" d="M110.1,70.3l-6.3,2l-2.6-8.3l6.3-2L110.1,70.3z M107.7,62.8l-6.3,2l0.2,0.8l6.3-2L107.7,62.8z M108.3,64.7
	l-6.3,2l0.2,0.8l6.3-2L108.3,64.7z M108.9,66.5l-6.3,2l0.2,0.8l6.3-2L108.9,66.5z M109.5,68.4l-6.3,2l0.2,0.8l6.3-2L109.5,68.4z"/>
<rect x="93.3" y="65.2" transform="matrix(0.9549 -0.2968 0.2968 0.9549 -16.5702 31.7445)" class="st9" width="5.9" height="10.5"/>
<polygon class="st9" points="106.6,71.9 100.2,76.3 95.8,62.4 103.6,62.4 "/>
<path class="st9" d="M98.3,77.2l-23,7.1c-1.7,0.5-3.6-0.4-4.1-2.2l-2.4-7.8c-0.5-1.7,0.4-3.6,2.2-4.1l23-7.1L98.3,77.2z M92,75.2
	c0.7-0.2,1.1-1,0.9-1.7l-0.6-2c-0.5-1.5-2.1-2.4-3.6-1.9l-9.2,2.9c-1.5,0.5-2.4,2.1-1.9,3.6l0.6,2c0.2,0.7,1,1.1,1.7,0.9L92,75.2"/>
<path class="st9" d="M119.2,63.4l-9.6,3l-0.4-1.3l9.6-3c0.4-0.1,0.7,0.1,0.8,0.4C119.7,62.9,119.5,63.3,119.2,63.4 M116.8,63.2
	c-0.1,0.2,0,0.4,0.2,0.5l0.4,0.2l1.1-0.3l-1.1-0.6C117.1,63,116.9,63,116.8,63.2 M118.9,62.8c0.1-0.2,0-0.4-0.2-0.5l-0.1,0l-1.1,0.3
	l0.8,0.4C118.5,63.1,118.8,63,118.9,62.8"/>
<path class="st9" d="M104.5,83.9l-0.9-2.8l0,0c0.3-0.1,0.4-0.4,0.3-0.6l-0.8-2.5c-0.1-0.3-0.4-0.4-0.6-0.3l0,0l-1.2-4l-3.5,1.1
	l3.4,10.8c0.5,1.5,1.9,2.4,3.4,2.1c0.1,0,0.2,0,0.3-0.1l0.6-0.2c0.7-0.2,1.1-0.9,0.8-1.6l-0.3-1.1C105.8,84.1,105.2,83.7,104.5,83.9
	z"/>
<path class="st10" d="M136.7,122.9l-18.4,0.6c-0.3,0.1-0.6-0.2-0.6-0.6l-0.1-1.6c0-0.4,0.2-0.7,0.6-0.6l18.4-0.7
	c0.4,0,0.7,0.2,0.6,0.6l0.1,1.7C137.3,122.6,137.1,122.9,136.7,122.9L136.7,122.9z"/>
<path class="st11" d="M123.2,84c0.1,1.7,1.4,2.9,3,2.8c1.6-0.1,2.8-1.3,2.7-2.9c-0.1-1.6-1.3-2.8-3-2.8
	C124.4,81.2,123.2,82.5,123.2,84L123.2,84z M129.4,79.3c0.7,0,1.1,0.4,1.2,1.1l0.2,7c0,0.7-0.4,1.1-1.1,1.2l-1.3,0l0.5,13.8
	l-4.4,0.1l-0.4-13.7l-1.3,0c-0.7,0-1.1-0.4-1.2-1.1l-0.3-7c0-0.6,0.5-1.1,1.1-1.2L129.4,79.3z"/>
<path class="st11" d="M125.3,110c0,0.9,0.8,1.6,1.7,1.6c0.9,0,1.6-0.8,1.6-1.7c0-0.9-0.8-1.6-1.7-1.6
	C126,108.3,125.3,109.1,125.3,110L125.3,110z M136.6,102.9l0.3,10.6c0.1,0.3-0.2,0.7-0.6,0.6l-18.4,0.6c-0.2,0.1-0.3-0.1-0.5-0.2
	c-0.1-0.1-0.2-0.2-0.2-0.5l-0.4-10.8L136.6,102.9z"/>
<path class="st10" d="M136.5,115.7c0.3,0,0.5,0.2,0.6,0.6l0,1.6c0.1,0.3-0.2,0.6-0.6,0.6l-18.4,0.7c-0.3-0.1-0.6-0.3-0.6-0.6
	l-0.1-1.7c0-0.4,0.2-0.7,0.6-0.6L136.5,115.7z"/>
<path class="st0" d="M182.1,92.7h-10.6c-1.5,0-2.8-1.1-3.1-2.7c-0.7-4.4-1.9-8.7-3.4-12.7c-0.5-1.4,0.1-3,1.4-3.8l9.1-5.3
	c1.5-0.9,2-2.8,1.2-4.3l-5.1-8.9c-0.9-1.5-2.8-2-4.3-1.2l-9.1,5.3c-1.3,0.8-3.1,0.5-4-0.7c-2.8-3.4-5.9-6.5-9.3-9.3
	c-1.2-1-1.5-2.7-0.7-4l5.3-9.1c0.9-1.5,0.4-3.5-1.2-4.3l-8.9-5.1c-1.5-0.9-3.5-0.4-4.3,1.2l-5.3,9.1c-0.8,1.3-2.4,1.9-3.8,1.4
	c-4.1-1.5-8.3-2.7-12.7-3.4c-1.5-0.2-2.7-1.5-2.7-3.1V21c0-1.8-1.4-3.2-3.2-3.2H96.9c-1.8,0-3.2,1.4-3.2,3.2v10.6
	c0,1.5-1.1,2.8-2.7,3.1c-4.4,0.7-8.7,1.9-12.7,3.4c-1.4,0.5-3-0.1-3.8-1.4l-5.3-9.1c-0.9-1.5-2.8-2-4.3-1.2L56,31.5
	c-1.5,0.9-2,2.8-1.2,4.3l5.3,9.1c0.8,1.3,0.5,3.1-0.7,4c-3.4,2.8-6.5,5.9-9.3,9.3c-1,1.2-2.7,1.5-4,0.7l-9.1-5.3
	c-1.5-0.9-3.5-0.4-4.3,1.2l-5.1,8.9c-0.9,1.5-0.4,3.5,1.2,4.3l9.1,5.3c1.3,0.8,1.9,2.4,1.4,3.8c-1.5,4.1-2.7,8.3-3.4,12.7
	c-0.2,1.5-1.5,2.7-3.1,2.7H22.1c-1.8,0-3.2,1.4-3.2,3.2v10.3c0,1.8,1.4,3.2,3.2,3.2h10.6c1.5,0,2.8,1.1,3.1,2.7
	c0.7,4.4,1.9,8.7,3.4,12.7c0.5,1.4-0.1,3-1.4,3.8l-9.1,5.3c-1.5,0.9-2,2.8-1.2,4.3l5.1,8.9c0.9,1.5,2.8,2,4.3,1.2l9.1-5.3
	c1.3-0.8,3.1-0.5,4,0.7c2.8,3.4,5.9,6.5,9.3,9.3c1.2,1,1.5,2.7,0.7,4l-5.3,9.1c-0.9,1.5-0.4,3.5,1.2,4.3l8.9,5.1
	c1.5,0.9,3.5,0.4,4.3-1.2l5.3-9.1c0.8-1.3,2.4-1.9,3.8-1.4c4.1,1.5,8.3,2.7,12.7,3.4c1.5,0.2,2.7,1.5,2.7,3.1V181
	c0,1.8,1.4,3.2,3.2,3.2h10.3c1.7,0,3.2-1.4,3.2-3.2v-10.6c0-1.5,1.1-2.8,2.7-3.1c4.4-0.7,8.7-1.9,12.7-3.4c1.4-0.5,3,0.1,3.8,1.4
	l5.3,9.1c0.9,1.5,2.8,2,4.3,1.2l8.9-5.1c1.5-0.9,2-2.8,1.2-4.3L144,157c-0.8-1.3-0.5-3.1,0.7-4c3.4-2.8,6.5-5.9,9.3-9.3
	c1-1.2,2.7-1.5,4-0.7l9.1,5.3c1.5,0.9,3.5,0.4,4.3-1.2l5.1-8.9c0.9-1.5,0.4-3.5-1.2-4.3l-9.1-5.3c-1.3-0.8-1.9-2.4-1.4-3.8
	c1.5-4.1,2.7-8.3,3.4-12.7c0.3-1.5,1.5-2.7,3.1-2.7h10.6c1.8,0,3.2-1.4,3.2-3.2V95.8C185.3,94.1,183.8,92.7,182.1,92.7z
	 M102.1,148.5c-26.3,0-47.5-21.3-47.5-47.5c0-26.3,21.3-47.5,47.5-47.5s47.5,21.3,47.5,47.5C149.6,127.2,128.3,148.5,102.1,148.5z"
	/>
<path class="st1" d="M114.9,107.9l-2.3,1.3c-0.9,0.5-1.3,0.6-2-0.1c-0.7-0.6-1.1-1.4-1.2-2.2c-0.2-0.9,0.3-1.3,0.8-1.6l2.7-1.3
	c-0.2-0.3-0.3-0.4-0.5-0.4c-1.5-0.2-4.2,0.1-5.4,1.6c-1.2,1.5-1.1,4.4-3.6,6.8l-19.5,18.9c-0.8,0.8-2,1.5-3.3,2.2
	c0.9-0.1,1.9,0.3,2.6,1c0.7,0.7,1,1.7,0.9,2.6c0.7-1.3,1.5-2.5,2.3-3.3l19.5-18.9c1.4-1.4,2.7-2,4.5-2.3c-0.1,0-0.2-0.1-0.2-0.1
	c0.5,0.1,0.9,0,1.4-0.1c1.7-0.5,3.1-2.4,3.5-3.7C115.1,108.4,115.1,108.2,114.9,107.9L114.9,107.9z M83,134.4
	c-1.2-1.3-3.3-1.3-4.6-0.1c-1.3,1.2-1.3,3.3-0.1,4.6c1.2,1.3,3.3,1.3,4.6,0.1C84.2,137.7,84.2,135.7,83,134.4L83,134.4z M81.9,138.8
	L81.9,138.8c-0.4-0.3-1-0.1-1.3,0.3c-0.2-0.5-0.8-0.6-1.2-0.4c0-0.5-0.4-1-0.9-0.9c0.3-0.4,0.1-1-0.3-1.3c0.5-0.2,0.6-0.8,0.4-1.2
	c0.5,0,1-0.4,0.9-0.9c0.4,0.3,1,0.1,1.3-0.3c0.2,0.5,0.8,0.6,1.3,0.4c-0.1,0.5,0.4,1,0.9,0.9c-0.3,0.4-0.1,1.1,0.3,1.3
	c-0.4,0.2-0.6,0.8-0.4,1.2C82.3,137.9,81.8,138.3,81.9,138.8L81.9,138.8z M85,133.9L85,133.9l-1.4-1.5l1.2-1.2l1.4,1.5L85,133.9z"/>
<path class="st0" d="M95.8,104.2c-0.2-0.1-0.7-0.2-1-0.3c-0.3,0-2.1-0.3-3.5-0.4c-1.4,0-2.1,0-3.3,0.3c-1.3,0.3-2.6,0.9-3.7,1.8
	c-0.7,0.6-2.3,2.2-2.7,2.6c-0.4,0.4-0.3,0.9-0.5,1.2c-0.2,0.3-0.5,0.9-0.7,1.2c-0.2,0.2-0.7,0.7-0.9,0.8c-0.2,0.1-0.6,0.2-0.9,0.4
	c0,0-0.1,0.1-0.2,0.2l2.6,2.8c0.2-0.2,0.4-0.4,0.5-0.5c0.1-0.1,0.1-0.4,0.2-0.6c0-0.2,0.2-0.6,0.5-0.9c0.3-0.3,0.6-0.7,0.9-1
	c0.3-0.3,0.7-0.7,1-0.6c0.4,0.1,0.6,0.2,1,0.5c0.4,0.3,0.9,0.8,1.1,0.9c0.2,0.1,0.4,0,0.4,0s0.6,0.7,1,1.1c0.4,0.4,1.9,1.7,2.4,2.1
	c0.5,0.5,1.4,1.4,2,2c0.6,0.6,3.2,3.7,3.9,4.5c0,0-0.2,0.1,0,0.3c0.2,0.2,0.7,0.7,1,1.1c0.3,0.4,1.7,2.1,2.2,2.6
	c0.5,0.5,2,2.2,2.6,2.8c0.6,0.6,3.5,3.4,3.9,3.8c0.4,0.4,2.1,2.3,2.6,2.9c0.5,0.6,2.5,3.1,2.8,3.5c0.3,0.4,0.5,0.4,0.8,0.3
	c0.3-0.1,0.6-0.3,0.9-0.6c0.3-0.2,0.5-0.4,1.1-0.9c0.6-0.6,1-0.9,1.2-1.2c0.2-0.2,0.2-0.5,0.2-0.6c0-0.2,0-0.3-0.2-0.5
	c-0.2-0.1-2.9-2.6-3.3-3c-0.4-0.4-2.1-2-2.8-2.8c-0.7-0.8-2.9-3.4-3.5-4.1c-0.6-0.7-1.9-2.1-2.6-2.8c-0.7-0.7-2.2-2.1-2.6-2.5
	c-0.4-0.4-0.7-0.7-1-1c-0.2-0.2-0.4-0.1-0.4-0.1s-3.7-3.6-4.2-4.1c-0.4-0.5-1.4-1.5-1.9-2.2c-0.5-0.6-1.5-2-1.8-2.4
	c-0.3-0.4-0.9-1-1.1-1.3c0,0,0.2-0.2,0-0.5c-0.2-0.3-0.9-1.1-1.2-1.6c-0.3-0.5-0.6-1.1,0-1.7c0.4-0.3,1.2-0.6,1.7-0.8
	c0.5-0.2,1-0.3,2-0.4c1.1-0.1,2.5-0.2,2.8-0.1c0.3,0,0.7-0.1,0.8-0.2C95.9,104.5,96,104.3,95.8,104.2L95.8,104.2z M78,112.5
	c-0.3,0.3-0.5,0.5-0.6,0.7c-0.2,0.3,0,0.7,0.2,0.9c0.2,0.2,0.5,0.6,0.9,0.9c0.3,0.3,1,0.7,1.2,0.8c0.2,0.1,0.4,0.1,0.6-0.1
	c0-0.1,0.2-0.2,0.4-0.4L78,112.5z M111.4,138.3l-6.5-6.9l2.2-2.1l6.5,6.9L111.4,138.3z"/>
<g>
	<g>
		<path class="st5" d="M195.4,135c-19.3,50.9-76.3,76.5-127.2,57.1c-23.3-8.9-41.3-25.6-52.1-46.1"/>
		<g>
			<polygon points="23.3,144.9 11.8,137 10.7,150.9 			"/>
		</g>
	</g>
</g>
<g>
	<g>
		<path class="st5" d="M11.1,65C30.4,14.1,87.4-11.5,138.2,7.9c23.1,8.8,40.9,25.3,51.8,45.4"/>
		<g>
			<polygon points="182.8,54.6 194.3,62.4 195.3,48.5 			"/>
		</g>
	</g>
</g>
</svg>
