<?xml version="1.0" encoding="utf-8"?>
<!-- Generator: Adobe Illustrator 25.0.0, SVG Export Plug-In . SVG Version: 6.00 Build 0)  -->
<svg version="1.1" id="Layer_1" xmlns="http://www.w3.org/2000/svg" xmlns:xlink="http://www.w3.org/1999/xlink" x="0px" y="0px"
	 viewBox="0 0 36 36" style="enable-background:new 0 0 36 36;" xml:space="preserve">
<style type="text/css">
	.st0{fill:#7AB5F4;}
	.st1{fill:#FFFFFF;}
	.st2{fill:#0B4A99;}
	.st3{fill:#CB1618;}
	.st4{fill:none;}
	.st5{opacity:0.25;}
	.st6{fill:none;stroke:#0B4A99;stroke-width:3.000000e-02;stroke-miterlimit:10;}
</style>
<polygon class="st0" points="28.6,14.6 35,4.7 1.1,4.7 7.5,14.7 "/>
<g>
	<g>
		<path class="st2" d="M21.9,28.4h-8V25l-2.2-3.4h12.6l-2.3,3.4V28.4z M15,27.2h5.6v-2.5l1.2-1.8h-8l1.2,1.8V27.2z"/>
	</g>
	<g>
		<path class="st2" d="M21.9,32h-8v-4.8h8V32z M15,30.7h5.6v-2.3H15V30.7z"/>
	</g>
	<g>
		<path class="st2" d="M23.3,22.9H12.4l-6.1-9.2h23.2L23.3,22.9z M13.1,21.7h9.6l4.5-6.8H8.6L13.1,21.7z"/>
	</g>
	<g>
		<path class="st2" d="M28.7,14.9H7.2L0,4h36L28.7,14.9z M7.8,13.7h20.2l5.7-8.4H2.3L7.8,13.7z"/>
	</g>
</g>
</svg>
