<svg id="Layer_1" data-name="Layer 1" xmlns="http://www.w3.org/2000/svg" viewBox="0 0 50 50"><defs><style>.cls-1{fill:#0071c5;}</style></defs><title>Fx icon</title><path class="cls-1" d="M49.58,38.41a1.5,1.5,0,0,0-1.12-.56,2,2,0,0,0-1.89,1.43c-.44,1.09-1.09,1.62-1.94,1.57a2.74,2.74,0,0,1-1.72-.67,9.29,9.29,0,0,1-2.44-3.47,33.38,33.38,0,0,1-1.83-7l-1.29-7.13a18.78,18.78,0,0,1,4.1-4.77,4.88,4.88,0,0,1,2.91-1c2-.07,2.58-.29,2.85-.47a1.85,1.85,0,0,0,.89-1.53,1.9,1.9,0,0,0-.56-1.44A2.16,2.16,0,0,0,46,12.68a7.33,7.33,0,0,0-4.13,1.61,23.67,23.67,0,0,0-5,5.24,16.81,16.81,0,0,0-1.3-5A2,2,0,0,0,33.8,13.4a4.78,4.78,0,0,0-2.12.68,20.21,20.21,0,0,0-2.46,1.47,7.34,7.34,0,0,1-4.84,1.26l-2.07-.2,1.11-4.72a16.43,16.43,0,0,1,2-5.21A3.22,3.22,0,0,1,28,4.88a9.23,9.23,0,0,1,1.74.23A18.67,18.67,0,0,0,33,5.63,2.24,2.24,0,0,0,34.61,5a2,2,0,0,0,.63-1.49,2.08,2.08,0,0,0-.9-1.69,4,4,0,0,0-2.46-.66A11.63,11.63,0,0,0,26.11,3a14,14,0,0,0-4.93,4.79,31.16,31.16,0,0,0-3.24,8.82H12.16l-.63,2.5h5.79L12.52,38.32c-.71,2.84-1.41,4.63-2.08,5.33a4.33,4.33,0,0,1-3.2,1A25.24,25.24,0,0,1,4,44.45a13.75,13.75,0,0,0-1.55-.12,2.78,2.78,0,0,0-1.81.54A1.85,1.85,0,0,0,0,46.36a2.16,2.16,0,0,0,.94,1.78,4.19,4.19,0,0,0,2.54.67,12.58,12.58,0,0,0,8.7-3.73c2.63-2.46,4.57-6.12,5.76-10.86l3.72-15.15,3.76-.11a9.07,9.07,0,0,0,4.41-1.35c.26-.16.53-.31.82-.46.5-.27.72-.32.83-.31s.29,0,.56.39a6.24,6.24,0,0,1,.64,2.23l.81,4.39-3,4.19a24.86,24.86,0,0,1-2.28,2.6,7.39,7.39,0,0,1-1.56,1.32,1.41,1.41,0,0,1-.57.15c-.21,0-.47-.22-.74-.6a2.12,2.12,0,0,0-1.55-1,1.86,1.86,0,0,0-1.37.58,2.05,2.05,0,0,0-.61,1.42,2.18,2.18,0,0,0,.78,1.74,3,3,0,0,0,2,.75A5.86,5.86,0,0,0,28,33.75a26.89,26.89,0,0,0,5-5.47l1.06-1.41a42.62,42.62,0,0,0,2.4,9.57,12,12,0,0,0,3.63,5,8.12,8.12,0,0,0,4.61,1.68,6.09,6.09,0,0,0,3.71-.95A3.14,3.14,0,0,0,50,39.69,1.82,1.82,0,0,0,49.58,38.41Z"/></svg>