<?xml version="1.0" encoding="utf-8"?>
<!-- Generator: Adobe Illustrator 22.0.1, SVG Export Plug-In . SVG Version: 6.00 Build 0)  -->
<svg version="1.1" id="Layer_1" xmlns="http://www.w3.org/2000/svg" xmlns:xlink="http://www.w3.org/1999/xlink" x="0px" y="0px"
	 viewBox="0 0 30 30" style="enable-background:new 0 0 30 30;" xml:space="preserve">
<style type="text/css">
	.st0{fill:#008520;}
	.st1{opacity:0.5;fill:none;stroke:#000000;stroke-width:5.000000e-02;stroke-miterlimit:10;}
	.st2{fill:#0C4B96;}
	.st3{fill:#C63621;}
	.st4{fill:#F85544;}
	.st5{fill:#EFC150;}
	.st6{fill:#27314E;}
	.st7{fill:#063ABC;}
	.st8{fill:#C74E41;}
	.st9{fill:#C67E42;}
	.st10{fill:#2CBCBB;}
	.st11{fill:#134658;}
	.st12{fill:none;stroke:#134658;stroke-miterlimit:10;}
	.st13{fill:#2BBBBA;}
	.st14{fill:#8C7053;}
	.st15{fill:#A93B33;}
	.st16{fill:#2F99A5;}
	.st17{fill:#654538;}
	.st18{fill:#BE5141;}
	.st19{fill:none;stroke:#134658;stroke-width:0.75;stroke-miterlimit:10;}
	.st20{fill:none;}
	.st21{opacity:0.5;}
	.st22{fill:#FF040F;}
	.st23{fill:#00A4F5;}
	.st24{fill:#70B74F;}
	.st25{fill:#F45DF4;}
	.st26{fill:#213763;}
	.st27{fill:#E8C67C;}
	.st28{fill:#135D7A;}
	.st29{fill:#A07C2B;}
	.st30{fill:none;stroke:#FF040F;stroke-width:0.25;stroke-miterlimit:10;}
	.st31{fill:#00457F;}
	.st32{fill:#48A030;}
	.st33{fill:#FFD445;}
	.st34{fill:#FF431D;}
	.st35{fill:#39B0C7;}
	.st36{fill:#5379A9;}
	.st37{fill:#E84049;}
	.st38{fill:#F57C45;}
	.st39{fill:#F1602D;}
	.st40{fill:#945965;}
	.st41{fill:#5C55A8;}
	.st42{fill:#4673C5;}
	.st43{fill:#E68549;}
	.st44{fill:none;stroke:#000000;stroke-width:0.15;stroke-miterlimit:10;}
	.st45{fill:none;stroke:#000000;stroke-width:0.1;stroke-miterlimit:10;}
	.st46{font-family:'MyriadPro-Regular';}
	.st47{font-size:0.93px;}
	.st48{font-size:1px;}
	.st49{fill:#278EAA;}
	.st50{fill:#39BCA9;}
	.st51{fill:#EFCC3C;}
	.st52{fill:#E04444;}
</style>
<rect x="2.5" y="6.3" class="st0" width="1.7" height="1"/>
<line class="st1" x1="4.2" y1="4.1" x2="4.2" y2="25.3"/>
<line class="st1" x1="7.3" y1="4.1" x2="7.3" y2="25.3"/>
<line class="st1" x1="10.4" y1="4.1" x2="10.4" y2="25.3"/>
<line class="st1" x1="13.5" y1="4.1" x2="13.5" y2="25.3"/>
<line class="st1" x1="16.6" y1="4.1" x2="16.6" y2="25.3"/>
<line class="st1" x1="19.8" y1="4.1" x2="19.8" y2="25.3"/>
<line class="st1" x1="22.9" y1="4.1" x2="22.9" y2="25.3"/>
<line class="st1" x1="26" y1="4.1" x2="26" y2="25.3"/>
<line class="st1" x1="29.2" y1="4.1" x2="29.2" y2="25.3"/>
<rect x="4.2" y="7.8" class="st0" width="1.1" height="1"/>
<rect x="4.2" y="9.3" class="st0" width="6.2" height="1"/>
<rect x="9.1" y="11" class="st0" width="1.9" height="1"/>
<rect x="10.4" y="12.4" class="st2" width="6.2" height="1"/>
<rect x="10.4" y="15.6" class="st2" width="8.3" height="1"/>
<rect x="19.8" y="13.8" class="st2" width="3.1" height="1"/>
<rect x="15.2" y="17.2" class="st2" width="2.7" height="1"/>
<rect x="18.8" y="18.7" class="st3" width="2.9" height="1"/>
<rect x="20.7" y="20.2" class="st3" width="2.7" height="1"/>
<rect x="22.9" y="21.7" class="st3" width="3.1" height="1"/>
<rect x="26" y="23.3" class="st3" width="1.2" height="1"/>
<polygon points="29.8,25.5 2.3,25.5 2.3,2.4 2.5,2.4 2.5,25.2 29.8,25.2 "/>
<rect x="1.9" y="6.3" width="0.6" height="0.1"/>
<rect x="1.9" y="10" width="0.6" height="0.1"/>
<rect x="1.8" y="13.9" width="0.6" height="0.1"/>
<rect x="1.9" y="17.7" width="0.6" height="0.1"/>
<rect x="1.9" y="21.5" width="0.5" height="0.1"/>
<rect x="4.1" y="25.3" width="0.1" height="0.5"/>
<rect x="7.3" y="25.3" width="0.1" height="0.5"/>
<rect x="10.4" y="25.3" width="0.1" height="0.5"/>
<rect x="13.5" y="25.3" width="0.1" height="0.5"/>
<rect x="16.6" y="25.3" width="0.1" height="0.5"/>
<rect x="19.8" y="25.3" width="0.1" height="0.5"/>
<rect x="22.9" y="25.3" width="0.1" height="0.5"/>
<rect x="26" y="25.3" width="0.1" height="0.5"/>
<rect x="29.1" y="25.3" width="0.1" height="0.5"/>
<text transform="matrix(1 0 0 1 0.2495 6.6462)" class="st46 st47">50</text>
<text transform="matrix(1 0 0 1 0.2495 10.4264)" class="st46 st47">40</text>
<text transform="matrix(1 0 0 1 0.2495 14.1833)" class="st46 st47">30</text>
<text transform="matrix(1 0 0 1 0.2495 17.9626)" class="st46 st47">20</text>
<text transform="matrix(1 0 0 1 0.7642 21.8542)" class="st46 st47">10</text>
<text transform="matrix(1 0 0 1 1.2114 25.6344)" class="st46 st47">0</text>
<text transform="matrix(1 0 0 1 3.6354 26.8509)" class="st46 st48">0.1</text>
<text transform="matrix(1 0 0 1 6.6667 26.8509)" class="st46 st48">0.2</text>
<text transform="matrix(1 0 0 1 9.7917 26.8509)" class="st46 st48">0.3</text>
<text transform="matrix(1 0 0 1 12.9167 26.8509)" class="st46 st48">0.4</text>
<text transform="matrix(1 0 0 1 16.0417 26.8509)" class="st46 st48">0.5</text>
<text transform="matrix(1 0 0 1 19.1667 26.8509)" class="st46 st48">0.6</text>
<text transform="matrix(1 0 0 1 22.2917 26.8509)" class="st46 st48">0.7</text>
<text transform="matrix(1 0 0 1 25.4167 26.8509)" class="st46 st48">0.8</text>
<text transform="matrix(1 0 0 1 28.5417 26.8509)" class="st46 st48">0.9</text>
</svg>
