<svg id="Layer_1" data-name="Layer 1" xmlns="http://www.w3.org/2000/svg" viewBox="0 0 36 36"><defs><style>.cls-1{fill:#04468e;}.cls-2{fill:#c2ccd3;}</style></defs><path class="cls-1" d="M18,36A18,18,0,1,1,36,18,18,18,0,0,1,18,36ZM2.27,17.2c.24,0,5.86,0,6,0a22.62,22.62,0,0,1,1.16-6.25A23.84,23.84,0,0,1,5.25,8.78a15.31,15.31,0,0,0-2,3.61A15.82,15.82,0,0,0,2.27,17.2Zm24.34-6.27c.19.71.39,1.39.56,2.08a16.67,16.67,0,0,1,.38,2.09c.08.7.14,1.41.21,2.11.41,0,5.83,0,6,0a15.66,15.66,0,0,0-3-8.42A23.74,23.74,0,0,1,26.61,10.93Zm0,14.12c.71.34,1.42.65,2.09,1s1.35.76,2,1.15A15.9,15.9,0,0,0,33.24,22a13.13,13.13,0,0,0,.46-3.23h-6A22.54,22.54,0,0,1,27.42,22,24.33,24.33,0,0,1,26.65,25.05ZM2.27,18.79a15.73,15.73,0,0,0,3,8.45,22.56,22.56,0,0,1,4.13-2.16,22.18,22.18,0,0,1-1.11-6.29Zm22.9,5.76a20.69,20.69,0,0,0,1-5.76H18.79v4.65A23.16,23.16,0,0,1,25.17,24.55Zm-8-5.75c-.25,0-7.26,0-7.38,0a19.87,19.87,0,0,0,1,5.73,23.56,23.56,0,0,1,6.35-1.1Zm1.58-6.23v4.64h7.39a21.09,21.09,0,0,0-1.06-5.74A23.69,23.69,0,0,1,18.79,12.57Zm-1.58,0a23.53,23.53,0,0,1-6.31-1.1,20.16,20.16,0,0,0-1.05,5.74h7.36Zm1.58,21.14a.61.61,0,0,0,.56-.16,20.94,20.94,0,0,0,5.21-7.37l.07-.16a21.57,21.57,0,0,0-5.84-1ZM17.21,25a21.6,21.6,0,0,0-5.82,1v.06l.06.13a20.83,20.83,0,0,0,5.22,7.36.64.64,0,0,0,.54.16Zm1.58-14a21.92,21.92,0,0,0,5.78-1c0-.09-.08-.16-.11-.24A20.58,20.58,0,0,0,21,4.36a19.48,19.48,0,0,0-2-2c-.08-.07-.15-.14-.27-.09Zm-1.58,0V2.28a.26.26,0,0,0-.26.1,20.86,20.86,0,0,0-5.44,7.44l-.06.17A20.84,20.84,0,0,0,17.21,11Zm-11-3.44A21.78,21.78,0,0,0,10,9.48a22.5,22.5,0,0,1,4.38-6.77,13.44,13.44,0,0,0-3.27,1.13A16,16,0,0,0,6.22,7.55Zm23.57,0a15.69,15.69,0,0,0-8.13-4.85,24.93,24.93,0,0,1,2.49,3.2A23.6,23.6,0,0,1,26,9.48,22.2,22.2,0,0,0,29.79,7.54ZM6.22,28.46a15.69,15.69,0,0,0,7.91,4.8A23.28,23.28,0,0,1,9.9,26.55,21.78,21.78,0,0,0,6.22,28.46ZM26.1,26.55a23.09,23.09,0,0,1-1.82,3.53,24.74,24.74,0,0,1-2.41,3.17,15,15,0,0,0,4.32-1.79,15.66,15.66,0,0,0,3.59-3A21.73,21.73,0,0,0,26.1,26.55Z"/><path class="cls-2" d="M26.61,10.93a23.74,23.74,0,0,0,4.15-2.16,15.66,15.66,0,0,1,3,8.42c-.14,0-5.56.06-6,0-.07-.7-.13-1.41-.21-2.11A16.67,16.67,0,0,0,27.17,13C27,12.32,26.8,11.64,26.61,10.93Z"/><path class="cls-2" d="M26.65,25.05A24.33,24.33,0,0,0,27.42,22a22.54,22.54,0,0,0,.32-3.18h6A13.13,13.13,0,0,1,33.24,22a15.9,15.9,0,0,1-2.46,5.19c-.69-.39-1.35-.79-2-1.15S27.36,25.39,26.65,25.05Z"/><path class="cls-2" d="M25.17,24.55a23.16,23.16,0,0,0-6.38-1.11V18.79h7.39A20.69,20.69,0,0,1,25.17,24.55Z"/><path class="cls-2" d="M18.79,12.57a23.69,23.69,0,0,0,6.33-1.1,21.09,21.09,0,0,1,1.06,5.74H18.79Z"/><path class="cls-2" d="M18.79,33.71V25a21.57,21.57,0,0,1,5.84,1l-.07.16a20.94,20.94,0,0,1-5.21,7.37A.61.61,0,0,1,18.79,33.71Z"/><path class="cls-2" d="M18.79,11V2.29c.12,0,.19,0,.27.09a19.48,19.48,0,0,1,2,2,20.58,20.58,0,0,1,3.42,5.4c0,.08.07.15.11.24A21.92,21.92,0,0,1,18.79,11Z"/><path class="cls-2" d="M29.79,7.54A22.2,22.2,0,0,1,26,9.48a23.6,23.6,0,0,0-1.89-3.59,24.93,24.93,0,0,0-2.49-3.2A15.69,15.69,0,0,1,29.79,7.54Z"/><path class="cls-2" d="M26.1,26.55a21.73,21.73,0,0,1,3.68,1.9,15.66,15.66,0,0,1-3.59,3,15,15,0,0,1-4.32,1.79,24.74,24.74,0,0,0,2.41-3.17A23.09,23.09,0,0,0,26.1,26.55Z"/></svg>