<?xml version="1.0" encoding="utf-8"?>
<!-- Generator: Adobe Illustrator 25.0.0, SVG Export Plug-In . SVG Version: 6.00 Build 0)  -->
<svg version="1.1" id="Layer_1" xmlns="http://www.w3.org/2000/svg" xmlns:xlink="http://www.w3.org/1999/xlink" x="0px" y="0px"
	 viewBox="0 0 30 30" style="enable-background:new 0 0 30 30;" xml:space="preserve">
<style type="text/css">
	.st0{fill:#0B4A99;}
</style>
<g>
	<path class="st0" d="M29,13.4L11.3,3.2c-0.5-0.3-1.3-0.3-1.8,0c-0.6,0.3-1,0.9-1,1.6v1.7L3.5,3.5c-0.7-0.4-1.6-0.4-2.3,0
		C0.4,4,0,4.7,0,5.5v1.6C0,8,0.5,8.8,1.3,9.2c2.3,0.9,3.8,3.3,3.8,5.7c0,2.4-1.5,4.6-3.8,5.7C0.5,21.2,0,21.9,0,22.8v1.6
		c0,0.8,0.4,1.6,1.1,2c0.3,0.2,0.7,0.3,1.2,0.3c0.4,0,0.9-0.1,1.2-0.3l5.1-2.9v1.8c0,0.6,0.4,1.3,1,1.6c0.3,0.1,0.6,0.2,0.9,0.2
		c0.3,0,0.5-0.1,0.9-0.3L29,16.6c0.6-0.3,1-0.9,1-1.6C30,14.4,29.6,13.7,29,13.4z M10,25.3v-2.6l9.9-5.7c0.7-0.4,1.2-1.1,1.2-2
		c0-0.8-0.4-1.6-1.2-2L10,7.3V4.7c0-0.2,0.2-0.4,0.2-0.4c0.1-0.1,0.3-0.1,0.4,0l17.9,10.3c0.2,0.1,0.2,0.2,0.2,0.4
		c0,0.1,0,0.2-0.2,0.4L10.7,25.7c-0.2,0.1-0.3,0.1-0.4,0l0,0h-0.1C10.1,25.6,10,25.5,10,25.3z M1.9,25.2c-0.2-0.1-0.4-0.4-0.4-0.8
		v-1.6c0-0.4,0.2-0.7,0.4-0.8c2.8-1.3,4.5-4.1,4.5-7.1c0-3.1-1.8-5.9-4.5-7.1C1.6,7.8,1.4,7.5,1.4,7.1V5.5c0-0.3,0.1-0.6,0.5-0.9
		C2,4.6,2.1,4.6,2.3,4.6c0.2,0,0.3,0.1,0.4,0.2l16.5,9.4c0.2,0.1,0.4,0.4,0.4,0.8c0,0.4-0.2,0.7-0.4,0.8L2.8,25.2
		C2.5,25.3,2.1,25.3,1.9,25.2z"/>
</g>
</svg>
