<?xml version="1.0" encoding="iso-8859-1"?>
<!-- Generator: Adobe Illustrator 12.0.0, SVG Export Plug-In . SVG Version: 6.00 Build 51448)  -->
<!DOCTYPE svg PUBLIC "-//W3C//DTD SVG 1.1//EN" "http://www.w3.org/Graphics/SVG/1.1/DTD/svg11.dtd" [
	<!ENTITY ns_svg "http://www.w3.org/2000/svg">
	<!ENTITY ns_xlink "http://www.w3.org/1999/xlink">
]>
<svg  version="1.1" id="Layer_1" xmlns="&ns_svg;" xmlns:xlink="&ns_xlink;" width="15.874" height="15.874"
	 viewBox="0 0 15.874 15.874" style="overflow:visible;enable-background:new 0 0 15.874 15.874;" xml:space="preserve">
<rect style="fill:none;" width="15.874" height="15.874"/>
<g>
	<path style="fill-rule:evenodd;clip-rule:evenodd;fill:#0071C5;" d="M7.957,12.629c-0.353,0.35-0.353,0.917,0,1.267
		c0.352,0.35,0.923,0.35,1.275,0l5.308-5.279c0.188-0.187,0.273-0.436,0.261-0.679c0.013-0.245-0.072-0.492-0.261-0.678L9.232,1.979
		c-0.352-0.35-0.923-0.35-1.275,0c-0.353,0.352-0.353,0.918,0,1.269l4.716,4.69L7.957,12.629z"/>
	<path style="fill-rule:evenodd;clip-rule:evenodd;fill:#0071C5;" d="M1.336,12.629c-0.352,0.35-0.352,0.917,0,1.267
		s0.923,0.35,1.276,0l5.308-5.279C8.108,8.43,8.192,8.181,8.18,7.938c0.012-0.245-0.072-0.492-0.259-0.678L2.613,1.979
		c-0.353-0.35-0.924-0.35-1.276,0c-0.352,0.352-0.352,0.918,0,1.269l4.716,4.69L1.336,12.629z"/>
</g>
</svg>
