<?xml version="1.0" encoding="utf-8"?>
<!-- Generator: Adobe Illustrator 25.0.0, SVG Export Plug-In . SVG Version: 6.00 Build 0)  -->
<svg version="1.1" id="Layer_1" xmlns="http://www.w3.org/2000/svg" xmlns:xlink="http://www.w3.org/1999/xlink" x="0px" y="0px"
	 viewBox="0 0 30 30" style="enable-background:new 0 0 30 30;" xml:space="preserve">
<style type="text/css">
	.st0{fill:none;stroke:#0B4A99;stroke-width:1.2;stroke-miterlimit:10;}
	.st1{fill:none;stroke:#CB1618;stroke-width:1.2;stroke-miterlimit:10;}
</style>
<g>
	<g>
		<path d="M10.4,27.1c-0.3,0-0.6-0.1-0.9-0.2c-0.5-0.3-0.9-0.9-0.9-1.5v-3h1.2v3c0,0.3,0.2,0.5,0.3,0.5c0.1,0.1,0.3,0.2,0.6,0
			l17.9-10.3c0.3-0.2,0.3-0.4,0.3-0.5c0-0.1,0-0.4-0.3-0.5L10.6,4.2c-0.3-0.2-0.5-0.1-0.6,0C10,4.2,9.8,4.4,9.8,4.7v2.9H8.6V4.7
			c0-0.6,0.3-1.2,0.9-1.5c0.5-0.3,1.2-0.3,1.7,0l17.9,10.3c0.5,0.3,0.9,0.9,0.9,1.5s-0.3,1.2-0.9,1.5L11.2,26.8
			C10.9,27,10.7,27.1,10.4,27.1z"/>
	</g>
	<g>
		<path d="M2.2,26.7c-0.4,0-0.8-0.1-1.1-0.3C0.4,26,0,25.3,0,24.5v-1.6c0-0.9,0.5-1.6,1.2-2c2.3-1.1,3.9-3.4,3.9-5.9
			s-1.5-4.9-3.9-5.9C0.5,8.7,0,8,0,7.1V5.5C0,4.7,0.4,4,1.1,3.6c0.7-0.4,1.5-0.4,2.2,0l16.5,9.5c0.7,0.4,1.1,1.1,1.1,1.9
			s-0.4,1.5-1.1,1.9L3.3,26.4C3,26.6,2.6,26.7,2.2,26.7z M2.2,4.4c-0.2,0-0.4,0-0.5,0.1C1.4,4.8,1.2,5.1,1.2,5.5v1.6
			c0,0.4,0.2,0.8,0.5,0.9c2.8,1.2,4.5,4,4.5,7c0,3-1.8,5.7-4.5,7c-0.3,0.1-0.5,0.5-0.5,0.9v1.6c0,0.4,0.2,0.7,0.5,0.9
			c0.3,0.2,0.7,0.2,1.1,0l16.5-9.5c0.3-0.2,0.5-0.5,0.5-0.9c0-0.4-0.2-0.7-0.5-0.9L2.7,4.6C2.6,4.5,2.4,4.4,2.2,4.4z"/>
	</g>
</g>
</svg>
