<?xml version="1.0" encoding="iso-8859-1"?>
<!-- Generator: Adobe Illustrator 12.0.0, SVG Export Plug-In . SVG Version: 6.00 Build 51448)  -->
<!DOCTYPE svg PUBLIC "-//W3C//DTD SVG 1.1//EN" "http://www.w3.org/Graphics/SVG/1.1/DTD/svg11.dtd" [
	<!ENTITY ns_svg "http://www.w3.org/2000/svg">
	<!ENTITY ns_xlink "http://www.w3.org/1999/xlink">
]>
<svg  version="1.1" id="Layer_1" xmlns="&ns_svg;" xmlns:xlink="&ns_xlink;" width="15.87" height="15.874"
	 viewBox="0 0 15.87 15.874" style="overflow:visible;enable-background:new 0 0 15.87 15.874;" xml:space="preserve">
<g>
	<g>
		<circle style="fill:#B6B6B4;" cx="7.932" cy="7.937" r="7.686"/>
		<g>
			<path style="fill:#D95032;" d="M5.889,12.006c-2.283,0-4.142-1.825-4.142-4.068c0-2.244,1.858-4.068,4.142-4.068
				c0.999,0,1.964,0.354,2.718,0.998L7.553,6.056c-0.461-0.394-1.052-0.61-1.664-0.61c-1.399,0-2.537,1.118-2.537,2.492
				c0,1.375,1.139,2.493,2.537,2.493c1.185,0,1.959-0.567,2.211-1.586H5.908V7.269h3.885v0.788
				C9.793,10.418,8.225,12.006,5.889,12.006z"/>
			<polygon style="fill:#D95032;" points="14.117,7.27 12.916,7.27 12.916,6.068 11.955,6.068 11.955,7.27 10.754,7.27 
				10.754,8.229 11.955,8.229 11.955,9.431 12.916,9.431 12.916,8.229 14.117,8.229 			"/>
		</g>
	</g>
	<rect style="fill:none;" width="15.87" height="15.874"/>
</g>
</svg>
