<?xml version="1.0" encoding="iso-8859-1"?>
<!-- Generator: Adobe Illustrator 12.0.0, SVG Export Plug-In . SVG Version: 6.00 Build 51448)  -->
<!DOCTYPE svg PUBLIC "-//W3C//DTD SVG 1.1//EN" "http://www.w3.org/Graphics/SVG/1.1/DTD/svg11.dtd" [
	<!ENTITY ns_svg "http://www.w3.org/2000/svg">
	<!ENTITY ns_xlink "http://www.w3.org/1999/xlink">
]>
<svg  version="1.1" id="Layer_1" xmlns="&ns_svg;" xmlns:xlink="&ns_xlink;" width="15.87" height="15.874"
	 viewBox="0 0 15.87 15.874" style="overflow:visible;enable-background:new 0 0 15.87 15.874;" xml:space="preserve">
<g>
	<g>
		<circle style="fill:#D95032;" cx="7.936" cy="7.937" r="7.686"/>
		<g>
			<path style="fill:#FFFFFF;" d="M5.893,12.005c-2.284,0-4.143-1.824-4.143-4.067c0-2.244,1.858-4.068,4.143-4.068
				c0.999,0,1.964,0.354,2.718,0.998L7.557,6.056C7.096,5.662,6.505,5.445,5.893,5.445c-1.399,0-2.537,1.118-2.537,2.492
				s1.139,2.493,2.537,2.493c1.184,0,1.959-0.567,2.211-1.586H5.912V7.268h3.886v0.789C9.798,10.418,8.229,12.005,5.893,12.005z"/>
			<polygon style="fill:#FFFFFF;" points="14.12,7.269 12.919,7.269 12.919,6.068 11.958,6.068 11.958,7.269 10.757,7.269 
				10.757,8.229 11.958,8.229 11.958,9.431 12.919,9.431 12.919,8.229 14.12,8.229 			"/>
		</g>
	</g>
	<rect style="fill:none;" width="15.87" height="15.874"/>
</g>
</svg>
