<?xml version="1.0" encoding="utf-8"?>
<!-- Generator: Adobe Illustrator 25.0.0, SVG Export Plug-In . SVG Version: 6.00 Build 0)  -->
<svg version="1.1" id="Layer_1" xmlns="http://www.w3.org/2000/svg" xmlns:xlink="http://www.w3.org/1999/xlink" x="0px" y="0px"
	 viewBox="0 0 16 16" style="enable-background:new 0 0 16 16;" xml:space="preserve">
<style type="text/css">
	.st0{fill:#F0AB00;}
	.st1{fill:#40875E;}
	.st2{fill:#A8A240;}
</style>
<path class="st0" d="M15.13,13l-4.49-2.3l2.3-4.49C15.42,7.48,16.4,10.52,15.13,13"/>
<path class="st1" d="M13.94,13.3c-1.25,2.44-4.24,3.41-6.68,2.16c-2.44-1.25-3.41-4.24-2.16-6.68c1.25-2.44,4.24-3.41,6.68-2.16
	l-2.26,4.42L13.94,13.3z"/>
<rect x="0.32" y="6.56" class="st2" width="1.87" height="4.34"/>
<path class="st2" d="M4.88,4.45H3v6.45h1.03c0.02-1.02,0.33-1.97,0.84-2.78V4.45z"/>
<path class="st2" d="M7.57,4.99H5.7v2.12c0.53-0.52,1.17-0.93,1.87-1.2V4.99z"/>
<path class="st2" d="M10.27,5.61V2.73H8.4v2.94c0.36-0.07,0.74-0.1,1.12-0.1C9.77,5.57,10.02,5.58,10.27,5.61z"/>
<polygon class="st0" points="1.51,5.36 1.17,5.01 3.78,2.46 6.56,3.79 9.14,0.48 9.53,0.78 6.7,4.4 3.88,3.05 "/>
<circle class="st0" cx="1.25" cy="5.28" r="0.74"/>
<circle class="st0" cx="3.94" cy="2.73" r="0.74"/>
<circle class="st0" cx="6.63" cy="3.98" r="0.74"/>
<circle class="st0" cx="9.33" cy="0.74" r="0.74"/>
</svg>
