<?xml version="1.0" encoding="iso-8859-1"?>
<!-- Generator: Adobe Illustrator 12.0.0, SVG Export Plug-In . SVG Version: 6.00 Build 51448)  -->
<!DOCTYPE svg PUBLIC "-//W3C//DTD SVG 1.1//EN" "http://www.w3.org/Graphics/SVG/1.1/DTD/svg11.dtd" [
	<!ENTITY ns_svg "http://www.w3.org/2000/svg">
	<!ENTITY ns_xlink "http://www.w3.org/1999/xlink">
]>
<svg  version="1.1" id="Layer_1" xmlns="&ns_svg;" xmlns:xlink="&ns_xlink;" width="60.095" height="60.094"
	 viewBox="0 0 60.095 60.094" style="overflow:visible;enable-background:new 0 0 60.095 60.094;" xml:space="preserve">
<g>
	<path style="fill:#008FD3;" d="M60.095,53.256c0,3.776-3.062,6.838-6.839,6.838H6.838C3.062,60.094,0,57.033,0,53.256V6.838
		C0,3.062,3.062,0,6.838,0h46.417c3.777,0,6.839,3.062,6.839,6.838V53.256z M21.128,11.708h-1.226v42.896h1.226V11.708z
		 M40.192,11.708h-1.226v42.896h1.226V11.708z M57.091,23.192v-1.226H3.005v1.226H57.091z M57.091,34.841v-1.225H3.005v1.225H57.091
		z M57.091,45.411v-1.227H3.005v1.227H57.091z M57.091,11.708H3.005v42.895h54.086V11.708z M57.091,54.603v-1.225H3.005v1.225
		H57.091z"/>
	<path style="fill:#008FD3;" d="M30.908,21.048v-4.894l3.096-2.641c0.11-0.109,0.142-0.272,0.083-0.414l0,0
		c-0.059-0.144-0.196-0.235-0.352-0.235h-7.582c-0.154,0-0.292,0.092-0.351,0.235c-0.059,0.142-0.026,0.305,0.083,0.414l3.096,2.641
		v4.878L30.908,21.048z"/>
	<g>
		<path style="fill:#008FD3;" d="M29.1,40.871h-0.621V35.94c0-0.086-0.069-0.155-0.155-0.155h-1.25
			c-0.085,0-0.155,0.069-0.155,0.155v4.931h-0.621c-0.06,0-0.114,0.035-0.14,0.088c-0.025,0.055-0.018,0.118,0.019,0.165l1.401,2.09
			c0.03,0.037,0.074,0.059,0.121,0.059s0.091-0.021,0.121-0.059l1.401-2.09c0.037-0.047,0.045-0.11,0.019-0.165
			C29.214,40.906,29.16,40.871,29.1,40.871L29.1,40.871z"/>
		<path style="fill:#008FD3;" d="M29.1,40.871"/>
		<path style="fill:#008FD3;" d="M32.998,38.833l-1.032-2.929c-0.022-0.063-0.081-0.104-0.146-0.104h-0.3
			c-0.008,0-0.017,0.001-0.024,0.002c-0.009-0.001-0.017-0.002-0.024-0.002h-0.292c-0.065,0-0.124,0.041-0.146,0.104l-1.03,2.929
			c-0.017,0.047-0.009,0.1,0.02,0.141s0.076,0.066,0.126,0.066h0.448c0.068,0,0.128-0.045,0.148-0.111l0.197-0.645h1.118
			l0.196,0.645c0.02,0.066,0.08,0.111,0.148,0.111h0.447c0.051,0,0.098-0.025,0.127-0.066C33.008,38.933,33.016,38.88,32.998,38.833
			L32.998,38.833z M31.127,37.667c0.187-0.602,0.313-1.021,0.374-1.242l0.383,1.242H31.127z M31.127,37.667"/>
		<path style="fill:#008FD3;" d="M32.554,42.5h-1.382l1.468-2.109c0.018-0.026,0.028-0.057,0.028-0.089v-0.265
			c0-0.086-0.069-0.155-0.155-0.155H30.49c-0.085,0-0.154,0.069-0.154,0.155v0.299c0,0.085,0.069,0.154,0.154,0.154h1.302
			l-1.47,2.107c-0.018,0.025-0.028,0.057-0.028,0.089v0.267c0,0.085,0.069,0.155,0.155,0.155h2.104c0.085,0,0.155-0.07,0.155-0.155
			v-0.298C32.709,42.57,32.639,42.5,32.554,42.5L32.554,42.5z"/>
		<path style="fill:#008FD3;" d="M32.554,42.75"/>
	</g>
	<g>
		<path style="fill:#008FD3;" d="M12.162,29.031c-0.077,0-0.14,0.062-0.14,0.139v3.547c0,0.077,0.063,0.14,0.14,0.14h1.271
			c0.077,0,0.14-0.063,0.14-0.14V29.17c0-0.077-0.063-0.139-0.14-0.139H12.162z"/>
		<path style="fill:#008FD3;" d="M12.162,29.031"/>
		<path style="fill:#008FD3;" d="M14.503,27.418v5.299c0,0.077,0.063,0.14,0.14,0.14h1.271c0.077,0,0.14-0.063,0.14-0.14v-5.299
			c0-0.037-0.015-0.073-0.041-0.099c-0.026-0.026-0.062-0.041-0.099-0.041h-1.271C14.565,27.279,14.503,27.341,14.503,27.418
			L14.503,27.418z"/>
		<path style="fill:#008FD3;" d="M14.503,27.418"/>
		<path style="fill:#008FD3;" d="M9.68,27.79c-0.077,0-0.139,0.063-0.139,0.14v4.787c0,0.077,0.063,0.14,0.139,0.14h1.271
			c0.077,0,0.14-0.063,0.14-0.14V27.93c0-0.077-0.063-0.14-0.14-0.14H9.68z"/>
		<path style="fill:#008FD3;" d="M9.68,27.79"/>
		<path style="fill:#008FD3;" d="M7.199,29.279c-0.077,0-0.139,0.062-0.139,0.139v3.299c0,0.077,0.063,0.14,0.139,0.14h1.272
			c0.077,0,0.139-0.063,0.139-0.14v-3.299c0-0.077-0.063-0.139-0.139-0.139H7.199z"/>
		<path style="fill:#008FD3;" d="M7.199,29.279"/>
		<path style="fill:#008FD3;" d="M7.508,28.81c0.037,0.043,0.089,0.066,0.142,0.066c0.043,0,0.085-0.014,0.121-0.045l2.541-2.147
			l2.229,1.705c0.079,0.061,0.189,0.049,0.254-0.026l2.059-2.376l0.288,0.25c0.051,0.043,0.12,0.057,0.183,0.035
			c0.063-0.021,0.109-0.075,0.122-0.141l0.344-1.784c0.013-0.065-0.011-0.132-0.06-0.176c-0.051-0.043-0.121-0.056-0.183-0.036
			l-1.718,0.595c-0.063,0.022-0.109,0.076-0.122,0.141c-0.013,0.065,0.01,0.132,0.061,0.175l0.289,0.25l-1.524,1.759l-2.135-1.633
			c-0.069-0.053-0.167-0.051-0.233,0.006L7.09,28.026c-0.038,0.032-0.062,0.077-0.066,0.126c-0.004,0.05,0.012,0.098,0.043,0.136
			L7.508,28.81z"/>
		<path style="fill:#008FD3;" d="M7.508,28.81"/>
	</g>
	<path style="fill:#008FD3;" d="M45.105,24.894c-1.146,1.146-1.146,3.011,0,4.156c1.044,1.046,2.687,1.137,3.837,0.276l0.509,0.509
		c-0.049,0.242,0.021,0.502,0.208,0.69l2.189,2.189c0.297,0.298,0.778,0.298,1.075,0c0.297-0.297,0.297-0.779,0-1.076l-2.189-2.189
		c-0.187-0.187-0.447-0.256-0.689-0.208l-0.51-0.509c0.861-1.15,0.77-2.792-0.274-3.837C48.115,23.749,46.251,23.749,45.105,24.894
		L45.105,24.894z M48.667,28.456c-0.818,0.818-2.15,0.818-2.969,0c-0.818-0.818-0.818-2.149,0-2.968c0.818-0.819,2.15-0.818,2.969,0
		S49.485,27.638,48.667,28.456L48.667,28.456z M48.667,28.456"/>
</g>
</svg>
