<?xml version="1.0" encoding="utf-8"?>
<!-- Generator: Adobe Illustrator 25.0.0, SVG Export Plug-In . SVG Version: 6.00 Build 0)  -->
<svg version="1.1" id="Layer_1" xmlns="http://www.w3.org/2000/svg" xmlns:xlink="http://www.w3.org/1999/xlink" x="0px" y="0px"
	 viewBox="0 0 36 36" style="enable-background:new 0 0 36 36;" xml:space="preserve">
<style type="text/css">
	.st0{fill:#CB1618;}
	.st1{fill:#185ABD;}
	.st2{fill:#D83039;}
	.st3{fill:#103F91;}
	.st4{fill:#185C37;}
	.st5{fill:#33C481;}
	.st6{fill:#107C41;}
	.st7{fill:#21A366;}
	.st8{fill:#0B4A99;}
	.st9{fill:none;}
	.st10{fill:#FFFFFF;}
	.st11{fill:#41A5EE;}
	.st12{fill:#2B7CD3;}
	.st13{opacity:0.5;enable-background:new    ;}
	.st14{fill:url(#SVGID_1_);}
	.st15{fill:url(#SVGID_2_);}
	.st16{fill:url(#SVGID_3_);}
	.st17{fill:url(#SVGID_4_);}
	.st18{fill:#E24951;}
	.st19{fill-rule:evenodd;clip-rule:evenodd;}
	.st20{fill:#262625;}
	.st21{fill:none;stroke:#000000;stroke-width:0.75;stroke-miterlimit:10;}
	.st22{fill:none;stroke:#000000;stroke-width:1.2;stroke-miterlimit:10;}
	.st23{fill-rule:evenodd;clip-rule:evenodd;fill:#0B4A99;}
</style>
<g>
	<g>
		<path class="st8" d="M35.9,9.3H0V1.5C0,0.6,0.7,0,1.6,0h32.8c0.9,0,1.6,0.7,1.6,1.6V9.3z M1.2,8.1h33.6V1.5c0-0.2-0.1-0.4-0.4-0.4
			H1.6c-0.2,0-0.4,0.1-0.4,0.4V8.1z"/>
	</g>
	<g>
		<path class="st8" d="M34.5,36H1.4C0.6,36,0,35.4,0,34.7V11.6h1.2v23.1c0,0.1,0.1,0.2,0.2,0.2h33.2c0.2,0,0.3-0.2,0.3-0.3V11.5H36
			l0,23.3C35.8,35.6,35.2,36,34.5,36z"/>
	</g>
	<g>
		<rect x="4.8" y="12.9" class="st8" width="26.8" height="1.1"/>
	</g>
	<g>
		<rect x="4.8" y="13" class="st8" width="1.1" height="18.6"/>
	</g>
	<g>
		<rect x="13.3" y="13" class="st8" width="1.1" height="18.6"/>
	</g>
	<g>
		<rect x="21.9" y="13" class="st8" width="1.1" height="18.6"/>
	</g>
	<g>
		<rect x="30.5" y="12.9" class="st8" width="1.1" height="18.6"/>
	</g>
	<g>
		<rect x="4.8" y="17.4" class="st8" width="26.8" height="1.1"/>
	</g>
	<g>
		<rect x="4.8" y="21.8" class="st8" width="26.8" height="1.1"/>
	</g>
	<g>
		<rect x="4.8" y="26.3" class="st8" width="26.8" height="1.1"/>
	</g>
	<g>
		<rect x="4.8" y="30.7" class="st8" width="26.8" height="1.1"/>
	</g>
</g>
</svg>
