<?xml version="1.0" encoding="utf-8"?>
<!-- Generator: Adobe Illustrator 22.0.1, SVG Export Plug-In . SVG Version: 6.00 Build 0)  -->
<svg version="1.1" id="Layer_1" xmlns="http://www.w3.org/2000/svg" xmlns:xlink="http://www.w3.org/1999/xlink" x="0px" y="0px"
	 viewBox="0 0 30 30" style="enable-background:new 0 0 30 30;" xml:space="preserve">
<style type="text/css">
	.st0{fill:#0B4A99;}
	.st1{fill:#FF0000;}
</style>
<g>
	<circle class="st0" cx="24.6" cy="15.1" r="5.4"/>
	<rect x="7.8" y="13.7" class="st0" width="12.5" height="2.7"/>
	<path class="st1" d="M0.1,15.1c0-2.4,2-4.4,4.4-4.4s4.4,2,4.4,4.4c0,2.4-2,4.4-4.4,4.4S0.1,17.5,0.1,15.1z M1.9,15.1
		c0,1.4,1.2,2.6,2.6,2.6s2.6-1.2,2.6-2.6s-1.2-2.6-2.6-2.6S1.9,13.7,1.9,15.1z"/>
	<path class="st0" d="M7.7,21.5c1.6-3.3,4.4-5.7,8.1-6.8c2.7-0.8,5-0.7,5.1-0.7l-0.1,2.4c-0.1,0-7.7-0.4-10.8,6.2L7.7,21.5z"/>
	<path class="st0" d="M16.2,15.5c-3.7-1.1-6.5-3.5-8.1-6.8l2.2-1c1.3,2.7,3.5,4.5,6.5,5.5c2.3,0.7,4.3,0.6,4.3,0.6l0.2,2.4
		c-0.1,0-0.2,0-0.5,0C20,16.2,18.2,16.2,16.2,15.5z"/>
	<path class="st1" d="M4.5,4.4C4.5,2,6.5,0,8.9,0c2.4,0,4.4,2,4.4,4.4s-2,4.4-4.4,4.4S4.5,6.8,4.5,4.4z M6.3,4.4
		C6.3,5.8,7.5,7,8.9,7s2.6-1.2,2.6-2.6s-1.2-2.6-2.6-2.6C7.4,1.8,6.3,3,6.3,4.4z"/>
	<path class="st1" d="M4.5,25.5c0-2.4,2-4.4,4.4-4.4s4.4,2,4.4,4.4s-2,4.4-4.4,4.4S4.5,28,4.5,25.5z M6.3,25.5
		c0,1.4,1.2,2.6,2.6,2.6s2.6-1.2,2.6-2.6s-1.2-2.6-2.6-2.6C7.4,22.9,6.3,24.1,6.3,25.5z"/>
</g>
</svg>
