<?xml version="1.0" encoding="utf-8"?>
<!-- Generator: Adobe Illustrator 25.0.0, SVG Export Plug-In . SVG Version: 6.00 Build 0)  -->
<svg version="1.1" id="Layer_1" xmlns="http://www.w3.org/2000/svg" xmlns:xlink="http://www.w3.org/1999/xlink" x="0px" y="0px"
	 viewBox="0 0 36 36" style="enable-background:new 0 0 36 36;" xml:space="preserve">
<style type="text/css">
	.st0{fill:#40875E;}
	.st1{fill:#F0AB00;}
	.st2{fill:#A8A240;}
	.st3{fill:#0B4A99;}
	.st4{fill:#CB1618;}
</style>
<g>
	<g>
		<path class="st3" d="M24.2,36h-2.7c-0.4,0-0.8-0.4-0.8-0.8v-1.6c-0.6-0.2-1.2-0.4-1.7-0.7L17.8,34c-0.3,0.3-0.8,0.3-1.2,0L14.7,32
			c-0.2-0.2-0.2-0.4-0.2-0.6c0-0.2,0.1-0.4,0.2-0.6l1.1-1.1c-0.3-0.6-0.5-1.1-0.7-1.7l-1.6,0c-0.4,0-0.8-0.4-0.8-0.8v-2.7
			c0-0.4,0.4-0.8,0.8-0.8H15c0.2-0.6,0.4-1.2,0.7-1.7l-1.1-1.1c-0.2-0.2-0.2-0.4-0.2-0.6c0-0.2,0.1-0.4,0.2-0.6l1.9-1.9
			c0.3-0.3,0.8-0.3,1.2,0l1.1,1.1c0.6-0.3,1.1-0.5,1.8-0.7l0-1.6c0-0.4,0.4-0.8,0.8-0.8h2.7c0.4,0,0.8,0.4,0.8,0.8V18
			c0.6,0.2,1.2,0.4,1.7,0.7l1.1-1.1c0.3-0.3,0.8-0.3,1.2,0l1.9,1.9c0.2,0.2,0.2,0.4,0.2,0.6c0,0.2-0.1,0.4-0.2,0.6l-1.1,1.1
			c0.3,0.6,0.5,1.1,0.7,1.7l1.6,0c0.4,0,0.8,0.4,0.8,0.8v2.7c0,0.4-0.4,0.8-0.8,0.8h-1.6c-0.2,0.6-0.4,1.2-0.7,1.7l1.1,1.1
			c0.3,0.3,0.3,0.8,0,1.2L29.1,34c-0.3,0.3-0.8,0.3-1.2,0l-1.1-1.1c-0.6,0.3-1.1,0.5-1.8,0.7l0,1.6C25,35.6,24.7,36,24.2,36z
			 M18.9,32.1c0.1,0,0.3,0,0.4,0.1c0.5,0.3,1,0.5,1.6,0.6c0.4,0.1,0.6,0.4,0.6,0.8v1.6l2.8,0l0-1.6c0-0.4,0.2-0.7,0.6-0.8
			c0.5-0.2,1.1-0.4,1.6-0.6c0.3-0.2,0.7-0.1,1,0.1l1.1,1.1l2-1.9l-1.1-1.1c-0.3-0.3-0.3-0.7-0.1-1c0.3-0.5,0.5-1,0.6-1.6
			c0.1-0.4,0.4-0.6,0.8-0.6h1.6l0-2.8l0,0h-1.6c-0.4,0-0.7-0.2-0.8-0.6c-0.2-0.5-0.4-1.1-0.6-1.6c-0.2-0.3-0.1-0.7,0.1-1l1.1-1.1
			l-1.9-2l-1.1,1.1c-0.3,0.3-0.7,0.3-1,0.1c-0.5-0.3-1-0.5-1.6-0.6c-0.4-0.1-0.6-0.4-0.6-0.8v-1.6l-2.8,0l0,1.6
			c0,0.4-0.2,0.7-0.6,0.8c-0.5,0.2-1.1,0.4-1.6,0.6c-0.3,0.2-0.7,0.1-1-0.1l-1.1-1.1l-2,1.9l1.1,1.1c0.3,0.3,0.3,0.7,0.1,1
			c-0.3,0.5-0.5,1-0.6,1.6c-0.1,0.4-0.4,0.6-0.8,0.6h-1.6l0,2.8l1.6,0c0.4,0,0.7,0.2,0.8,0.6c0.2,0.5,0.4,1.1,0.6,1.6
			c0.2,0.3,0.1,0.7-0.1,1l-1.1,1.1l1.9,2l1.1-1.1C18.5,32.1,18.7,32.1,18.9,32.1z M22.8,30.2c-2.4,0-4.4-2-4.4-4.4s2-4.4,4.4-4.4
			s4.4,2,4.4,4.4S25.3,30.2,22.8,30.2z M22.8,22.2c-2,0-3.6,1.6-3.6,3.6s1.6,3.6,3.6,3.6s3.6-1.6,3.6-3.6S24.8,22.2,22.8,22.2z"/>
	</g>
	<g>
		<path class="st3" d="M30.4,14.1h-1.6c-0.4,0-0.6-0.3-0.6-0.6v-0.8c-0.3-0.1-0.6-0.2-0.9-0.4l-0.6,0.6c-0.2,0.2-0.7,0.2-0.9,0
			l-1.2-1.2c-0.3-0.3-0.3-0.7,0-0.9l0.6-0.6c-0.1-0.3-0.3-0.6-0.4-0.9h-0.8c-0.4,0-0.6-0.3-0.6-0.6V7.1c0-0.4,0.3-0.6,0.6-0.6h0.8
			c0.1-0.3,0.2-0.6,0.4-0.9L24.7,5c-0.3-0.3-0.3-0.7,0-0.9l1.2-1.2c0.1-0.1,0.3-0.2,0.5-0.2h0c0.2,0,0.3,0.1,0.5,0.2l0.6,0.6
			c0.3-0.1,0.6-0.3,0.9-0.4V2.3c0-0.4,0.3-0.6,0.6-0.6h1.6c0.4,0,0.6,0.3,0.6,0.6v0.8c0.3,0.1,0.6,0.2,0.9,0.4l0.6-0.6
			c0.1-0.1,0.3-0.2,0.5-0.2c0,0,0,0,0,0c0.2,0,0.3,0.1,0.5,0.2l1.2,1.2c0.3,0.3,0.3,0.7,0,0.9L34,5.6c0.1,0.3,0.3,0.6,0.4,0.9h0.8
			c0.4,0,0.6,0.3,0.6,0.6v1.6c0,0.4-0.3,0.6-0.6,0.6h-0.8c-0.1,0.3-0.2,0.6-0.4,0.9l0.6,0.6c0.1,0.1,0.2,0.3,0.2,0.5
			s-0.1,0.3-0.2,0.5l-1.2,1.2c-0.2,0.2-0.7,0.2-0.9,0l-0.6-0.6c-0.3,0.1-0.6,0.3-0.9,0.4v0.8C31.1,13.8,30.8,14.1,30.4,14.1z
			 M29,13.3h1.3v-0.8c0-0.3,0.2-0.5,0.5-0.6c0.3-0.1,0.6-0.2,0.9-0.4c0.3-0.1,0.6-0.1,0.8,0.1l0.6,0.6l0.9-0.9l-0.6-0.6
			c-0.2-0.2-0.2-0.5-0.1-0.8c0.2-0.3,0.3-0.6,0.4-0.9c0.1-0.3,0.3-0.5,0.6-0.5H35V7.2h-0.8c-0.3,0-0.5-0.2-0.6-0.5
			c-0.1-0.3-0.2-0.6-0.4-0.9c-0.1-0.3-0.1-0.6,0.1-0.8l0.6-0.6L33,3.6l-0.6,0.6c-0.2,0.2-0.5,0.2-0.8,0.1c-0.3-0.2-0.6-0.3-0.9-0.4
			c-0.3-0.1-0.5-0.3-0.5-0.6V2.5H29v0.8c0,0.3-0.2,0.5-0.5,0.6c-0.3,0.1-0.6,0.2-0.9,0.4c-0.3,0.1-0.6,0.1-0.8-0.1l-0.6-0.6
			l-0.9,0.9l0.6,0.6c0.2,0.2,0.2,0.5,0.1,0.8c-0.2,0.3-0.3,0.6-0.4,0.9C25.5,7,25.3,7.2,25,7.2h-0.8v1.3H25c0.3,0,0.5,0.2,0.6,0.5
			c0.1,0.3,0.2,0.6,0.4,0.9c0.1,0.3,0.1,0.6-0.1,0.8l-0.6,0.6l0.9,0.9l0.6-0.6c0.2-0.2,0.5-0.2,0.8-0.1c0.3,0.2,0.6,0.3,0.9,0.4
			c0.3,0.1,0.5,0.3,0.5,0.6V13.3z M32.9,12.3L32.9,12.3L32.9,12.3z M26.2,12.3L26.2,12.3L26.2,12.3z M27.4,12.2L27.4,12.2
			C27.4,12.2,27.4,12.2,27.4,12.2z M25.3,10.3C25.3,10.3,25.3,10.3,25.3,10.3C25.3,10.3,25.3,10.3,25.3,10.3z M34.4,9.2
			C34.4,9.2,34.4,9.2,34.4,9.2C34.4,9.2,34.4,9.2,34.4,9.2z M34.4,6.5C34.4,6.5,34.4,6.5,34.4,6.5C34.4,6.5,34.4,6.5,34.4,6.5z
			 M25.3,5.5C25.3,5.5,25.3,5.5,25.3,5.5C25.3,5.5,25.3,5.5,25.3,5.5z M33.9,5.5C33.9,5.5,33.9,5.5,33.9,5.5
			C33.9,5.5,33.9,5.5,33.9,5.5z M27.4,3.6L27.4,3.6C27.4,3.6,27.4,3.6,27.4,3.6z M32.9,3.5C32.9,3.5,32.9,3.5,32.9,3.5L32.9,3.5z
			 M29.6,10.7c-1.5,0-2.8-1.2-2.8-2.8s1.2-2.8,2.8-2.8c1.5,0,2.8,1.2,2.8,2.8S31.2,10.7,29.6,10.7z M29.6,5.9c-1.1,0-2,0.9-2,2
			s0.9,2,2,2s2-0.9,2-2S30.7,5.9,29.6,5.9z"/>
	</g>
	<g>
		<path class="st3" d="M9.1,15.7H7c-0.4,0-0.7-0.3-0.7-0.7v-1.1c-0.4-0.1-0.8-0.3-1.2-0.5l-0.8,0.8c-0.1,0.1-0.3,0.2-0.5,0.2h0
			c-0.2,0-0.4-0.1-0.5-0.2l-1.5-1.5c-0.1-0.1-0.2-0.3-0.2-0.5c0-0.2,0.1-0.4,0.2-0.5l0.8-0.8C2.3,10.4,2.2,10,2,9.6H0.9
			c-0.4,0-0.7-0.3-0.7-0.7V6.8c0-0.4,0.3-0.7,0.7-0.7H2c0.1-0.4,0.3-0.8,0.5-1.2L1.7,4C1.6,3.9,1.5,3.7,1.5,3.5
			c0-0.2,0.1-0.4,0.2-0.5l1.5-1.5c0.3-0.3,0.7-0.3,1,0L5,2.4C5.4,2.2,5.8,2,6.2,1.9V0.7C6.2,0.3,6.6,0,7,0h2.1
			c0.4,0,0.7,0.3,0.7,0.7v1.1C10.2,2,10.6,2.2,11,2.4l0.8-0.8c0.1-0.1,0.3-0.2,0.5-0.2c0,0,0,0,0,0c0.2,0,0.4,0.1,0.5,0.2L14.3,3
			c0.1,0.1,0.2,0.3,0.2,0.5c0,0.2-0.1,0.4-0.2,0.5l-0.8,0.8c0.2,0.4,0.4,0.8,0.5,1.2h1.1c0.4,0,0.7,0.3,0.7,0.7v2.1
			c0,0.4-0.3,0.7-0.7,0.7H14c-0.1,0.4-0.3,0.8-0.5,1.2l0.8,0.8c0.1,0.1,0.2,0.3,0.2,0.5c0,0.2-0.1,0.4-0.2,0.5l-1.5,1.5
			c-0.1,0.1-0.3,0.2-0.5,0.2h0c-0.2,0-0.4-0.1-0.5-0.2L11,13.3c-0.4,0.2-0.8,0.4-1.2,0.5V15C9.8,15.4,9.4,15.7,9.1,15.7z M7.1,14.9
			H9v-1.1c0-0.3,0.2-0.6,0.5-0.7c0.4-0.1,0.8-0.3,1.2-0.5c0.3-0.2,0.6-0.1,0.9,0.1l0.8,0.8l1.4-1.4l-0.8-0.8
			c-0.2-0.2-0.3-0.6-0.1-0.9c0.2-0.4,0.4-0.8,0.5-1.2c0.1-0.3,0.4-0.5,0.7-0.5H15V6.9h-1.1c-0.3,0-0.6-0.2-0.7-0.5
			c-0.1-0.4-0.3-0.8-0.5-1.2c-0.2-0.3-0.1-0.6,0.1-0.9l0.8-0.8l-1.4-1.4L11.5,3c-0.2,0.2-0.6,0.3-0.9,0.1c-0.4-0.2-0.8-0.4-1.2-0.5
			C9.2,2.5,9,2.2,9,1.9V0.8H7.1v1.1c0,0.3-0.2,0.6-0.5,0.7C6.1,2.7,5.7,2.9,5.4,3.1C5.1,3.3,4.7,3.2,4.5,3L3.7,2.2L2.4,3.5l0.8,0.8
			c0.2,0.2,0.3,0.6,0.1,0.9C3.1,5.6,2.9,5.9,2.8,6.4C2.7,6.7,2.4,6.9,2.1,6.9H1v1.9h1.1c0.3,0,0.6,0.2,0.7,0.5
			c0.1,0.4,0.3,0.8,0.5,1.2c0.2,0.3,0.1,0.6-0.1,0.9l-0.8,0.8l1.4,1.4l0.8-0.8c0.2-0.2,0.6-0.3,0.9-0.1c0.4,0.2,0.8,0.4,1.2,0.5
			c0.3,0.1,0.5,0.4,0.5,0.7V14.9z M6.3,13.8L6.3,13.8L6.3,13.8z M12.2,13.5C12.2,13.5,12.2,13.5,12.2,13.5L12.2,13.5z M3.6,13.5
			C3.6,13.5,3.6,13.5,3.6,13.5L3.6,13.5z M5.1,13.3L5.1,13.3C5.1,13.3,5.1,13.3,5.1,13.3z M13.4,10.8L13.4,10.8L13.4,10.8z M2,9.5
			C2,9.5,2,9.5,2,9.5C2,9.5,2,9.5,2,9.5z M14,9.5L14,9.5L14,9.5z M14,6.1C14,6.1,14,6.1,14,6.1L14,6.1z M13.7,3.6
			C13.7,3.6,13.7,3.6,13.7,3.6L13.7,3.6z M2.3,3.6L2.3,3.6C2.3,3.6,2.3,3.6,2.3,3.6z M5.1,2.4L5.1,2.4C5.1,2.4,5.1,2.4,5.1,2.4z
			 M12.2,2.1L12.2,2.1L12.2,2.1z M8,11.3c-1.9,0-3.4-1.5-3.4-3.4c0-1.9,1.5-3.4,3.4-3.4c1.9,0,3.4,1.5,3.4,3.4
			C11.5,9.7,9.9,11.3,8,11.3z M8,5.2c-1.5,0-2.6,1.2-2.6,2.6c0,1.5,1.2,2.6,2.6,2.6c1.5,0,2.6-1.2,2.6-2.6C10.6,6.4,9.5,5.2,8,5.2z"
			/>
	</g>
	<g>
		<rect x="17.5" y="7.6" class="st3" width="4.4" height="0.8"/>
	</g>
	<g>
		<polygon class="st3" points="10.7,26.7 4.6,26.7 4.6,16 5.4,16 5.4,25.9 10.7,25.9 		"/>
	</g>
	<g>
		<polygon class="st3" points="9.3,28.2 8.8,27.5 10.3,26.4 8.8,25.1 9.3,24.5 11.5,26.4 		"/>
	</g>
</g>
</svg>
