<?xml version="1.0" encoding="utf-8"?>
<!-- Generator: Adobe Illustrator 25.0.0, SVG Export Plug-In . SVG Version: 6.00 Build 0)  -->
<svg version="1.1" id="Layer_1" xmlns="http://www.w3.org/2000/svg" xmlns:xlink="http://www.w3.org/1999/xlink" x="0px" y="0px"
	 viewBox="0 0 16 16" style="enable-background:new 0 0 16 16;" xml:space="preserve">
<style type="text/css">
	.st0{fill:#F0AB00;}
	.st1{fill:#40875E;}
	.st2{fill:#A8A240;}
</style>
<path class="st0" d="M6.02,13.34H5.14c-0.57,0-1.03-0.46-1.03-1.03v-1.73c0-0.57,0.46-1.03,1.03-1.03h6.36
	c0.3,0,0.54-0.24,0.54-0.54V7.28c0-0.3-0.24-0.54-0.54-0.54H5.14c-0.57,0-1.03-0.46-1.03-1.03V3.99c0-0.57,0.46-1.03,1.03-1.03h0.79
	v0.49H5.14c-0.3,0-0.54,0.24-0.54,0.54v1.73c0,0.3,0.24,0.54,0.54,0.54h6.36c0.57,0,1.03,0.46,1.03,1.03v1.73
	c0,0.57-0.46,1.03-1.03,1.03H5.14c-0.3,0-0.54,0.24-0.54,0.54v1.73c0,0.3,0.24,0.54,0.54,0.54h0.88V13.34z"/>
<g>
	<path class="st1" d="M1.93,0l9.49,0l2.65,3.34V16H1.93V0z M13.35,3.66l-2.29-3.01H2.65v14.76h10.71V3.66z"/>
</g>
<rect x="5.63" y="2.32" class="st2" width="2.83" height="1.79"/>
<rect x="5.63" y="5.61" class="st2" width="5.25" height="1.79"/>
<rect x="5.63" y="8.9" class="st2" width="5.25" height="1.79"/>
<rect x="5.63" y="12.2" class="st2" width="5.25" height="1.79"/>
</svg>
