<svg id="Layer_1" data-name="Layer 1" xmlns="http://www.w3.org/2000/svg" viewBox="0 0 36 36"><defs><style>.cls-1{fill:#67b4f9;}.cls-2{fill:#b7daf9;}.cls-3{fill:#04468e;}.cls-4{fill:#7ab5f4;}</style></defs><rect class="cls-1" x="0.5" y="0.5" width="6.39" height="6.53"/><rect class="cls-2" x="7.65" y="0.5" width="6.39" height="6.53"/><rect class="cls-1" x="14.81" y="0.5" width="6.39" height="6.53"/><rect class="cls-3" x="21.96" y="0.5" width="6.39" height="6.53"/><rect class="cls-4" x="29.11" y="0.5" width="6.39" height="6.53"/><rect class="cls-3" x="0.5" y="21.85" width="6.39" height="6.53"/><rect class="cls-1" x="7.65" y="21.85" width="6.39" height="6.53"/><rect class="cls-1" x="14.81" y="21.85" width="6.39" height="6.53"/><rect class="cls-3" x="21.96" y="21.85" width="6.39" height="6.53"/><rect class="cls-2" x="29.11" y="21.85" width="6.39" height="6.53"/><rect class="cls-2" x="0.5" y="28.97" width="6.39" height="6.53"/><rect class="cls-2" x="7.65" y="28.97" width="6.39" height="6.53"/><rect class="cls-2" x="14.81" y="28.97" width="6.39" height="6.53"/><rect class="cls-1" x="21.96" y="28.97" width="6.39" height="6.53"/><rect class="cls-4" x="29.11" y="28.97" width="6.39" height="6.53"/><rect class="cls-1" x="0.5" y="7.62" width="6.39" height="6.53"/><rect class="cls-2" x="14.81" y="7.62" width="6.39" height="6.53"/><rect class="cls-3" x="21.96" y="7.62" width="6.39" height="6.53"/><rect class="cls-4" x="29.11" y="7.62" width="6.39" height="6.53"/><rect class="cls-2" x="7.65" y="14.73" width="6.39" height="6.53"/><rect class="cls-2" x="14.81" y="14.73" width="6.39" height="6.53"/><rect class="cls-2" x="29.11" y="14.73" width="6.39" height="6.53"/></svg>