<?xml version="1.0" encoding="utf-8"?>
<!-- Generator: Adobe Illustrator 22.0.1, SVG Export Plug-In . SVG Version: 6.00 Build 0)  -->
<svg version="1.1" id="Layer_1" xmlns="http://www.w3.org/2000/svg" xmlns:xlink="http://www.w3.org/1999/xlink" x="0px" y="0px"
	 viewBox="0 0 20 20" style="enable-background:new 0 0 20 20;" xml:space="preserve">
<style type="text/css">
	.st0{fill:#F5AC3A;}
	.st1{fill:#ABA34A;}
	.st2{fill:#FFFFFF;}
	.st3{fill:#0B4A99;}
	.st4{fill:#58AE86;}
	.st5{fill:#F5AC3A;stroke:#ABA34A;stroke-width:0.5;}
</style>
<g>
	<path class="st3" d="M8.3,7.8H7.7C7.9,7.1,8,6.4,8,5.8c0.8-0.3,1.5-0.5,2.1-0.5c0.7,0,1.3,0.2,1.6,0.6c0.4,0.4,0.5,0.8,0.5,1.3
		c0,0.2,0,0.5-0.1,0.7S12,8.4,11.8,8.7c-0.1,0.1-0.3,0.5-0.7,1s-0.6,0.8-0.7,0.8c-0.1,0.1-0.2,0.3-0.2,0.5c-0.1,0.2-0.1,0.5-0.2,0.9
		H9.3c0-0.5,0.1-1,0.2-1.4c0.1-0.4,0.3-0.9,0.6-1.6c0.2-0.5,0.4-0.9,0.4-1.2c0-0.3-0.1-0.5-0.3-0.7C10,6.7,9.8,6.6,9.5,6.6
		C9.2,6.6,9,6.7,8.8,6.8S8.4,7.3,8.3,7.8z M9.7,12.4c0.3,0,0.6,0.1,0.8,0.3c0.2,0.2,0.3,0.5,0.3,0.8c0,0.3-0.1,0.6-0.3,0.8
		c-0.2,0.2-0.5,0.3-0.8,0.3c-0.3,0-0.6-0.1-0.8-0.3c-0.2-0.2-0.3-0.5-0.3-0.8c0-0.3,0.1-0.6,0.3-0.8C9.2,12.5,9.4,12.4,9.7,12.4z"/>
</g>
<g>
	<path class="st3" d="M10,19.9c-5.5,0-9.9-4.5-9.9-9.9S4.5,0.1,10,0.1s9.9,4.5,9.9,9.9S15.5,19.9,10,19.9z M10,1.1
		c-4.9,0-8.9,4-8.9,8.9s4,8.9,8.9,8.9s8.9-4,8.9-8.9S14.9,1.1,10,1.1z"/>
</g>
</svg>
