<?xml version="1.0" encoding="utf-8"?>
<!-- Generator: Adobe Illustrator 25.0.0, SVG Export Plug-In . SVG Version: 6.00 Build 0)  -->
<svg version="1.1" id="Layer_1" xmlns="http://www.w3.org/2000/svg" xmlns:xlink="http://www.w3.org/1999/xlink" x="0px" y="0px"
	 viewBox="0 0 30 30" style="enable-background:new 0 0 30 30;" xml:space="preserve">
<style type="text/css">
	.st0{fill:#0B4A99;}
</style>
<g>
	<path class="st0" d="M21.3,2.6C19.6,0.9,17.4,0,15,0c-4.9,0-8.8,4-8.8,8.8h1.3c0-4.2,3.4-7.6,7.6-7.6c2,0,4,0.8,5.4,2.2
		c1.4,1.4,2.2,3.3,2.2,5.3c0,3.6-2,5.3-4.1,7c-2,1.7-4,3.4-4,6.7v4h1.3v-4c0-2.7,1.7-4.1,3.6-5.8c2.1-1.8,4.5-3.8,4.5-8
		C23.9,6.5,22.9,4.3,21.3,2.6z"/>
	<rect x="14.5" y="28.5" class="st0" width="1.3" height="1.5"/>
</g>
</svg>
