<?xml version="1.0" encoding="utf-8"?>
<!-- Generator: Adobe Illustrator 22.0.1, SVG Export Plug-In . SVG Version: 6.00 Build 0)  -->
<svg version="1.1" id="Layer_1" xmlns="http://www.w3.org/2000/svg" xmlns:xlink="http://www.w3.org/1999/xlink" x="0px" y="0px"
	 viewBox="0 0 20 20" style="enable-background:new 0 0 20 20;" xml:space="preserve">
<style type="text/css">
	.st0{fill:#F5AC3A;}
	.st1{fill:#ABA34A;}
	.st2{fill:#FFFFFF;}
	.st3{fill:#0B4A99;}
	.st4{fill:#40875E;}
	.st5{fill:#F5AC3A;stroke:#ABA34A;stroke-width:0.5;}
</style>
<g>
	<path class="st0" d="M8.9,13.2c-0.2,0.2-0.4,0.5-0.4,0.9s0.1,0.6,0.4,0.9c0.2,0.2,0.5,0.4,0.9,0.4c0.3,0,0.6-0.1,0.9-0.4
		c0.2-0.2,0.4-0.5,0.4-0.9c0-0.3-0.1-0.6-0.4-0.9C10.2,12.7,9.3,12.7,8.9,13.2z"/>
	<path class="st1" d="M12,5.4L12,5.4c-0.8-0.8-2.1-1-4.1-0.2L7.7,5.3l0,0.2c0,0.6-0.1,1.2-0.3,1.9L7.3,7.9h1.3l0.1-0.2
		C8.9,7.1,9,6.9,9.1,6.9c0.3-0.2,0.7-0.2,0.9,0c0.1,0.1,0.2,0.3,0.2,0.5c0,0.2-0.1,0.5-0.3,1c-0.3,0.7-0.5,1.3-0.6,1.7
		C9.1,10.5,9,11,9,11.6L9,12h1.4l0-0.3c0.1-0.4,0.1-0.6,0.2-0.8c0.1-0.2,0.1-0.3,0.2-0.4c0-0.1,0.3-0.3,0.6-0.8
		c0.4-0.5,0.7-0.8,0.7-1c0.2-0.3,0.3-0.6,0.4-0.8c0.1-0.3,0.1-0.5,0.1-0.8C12.7,6.4,12.5,5.8,12,5.4z"/>
</g>
<g>
	<path class="st4" d="M10,20C4.5,20,0,15.5,0,10C0,4.5,4.5,0,10,0s10,4.5,10,10C20,15.5,15.5,20,10,20z M10,1.5
		c-4.7,0-8.5,3.8-8.5,8.5c0,4.7,3.8,8.5,8.5,8.5s8.5-3.8,8.5-8.5C18.5,5.3,14.7,1.5,10,1.5z"/>
</g>
</svg>
