<?xml version="1.0" encoding="utf-8"?>
<!-- Generator: Adobe Illustrator 22.0.1, SVG Export Plug-In . SVG Version: 6.00 Build 0)  -->
<svg version="1.1" id="Layer_1" xmlns="http://www.w3.org/2000/svg" xmlns:xlink="http://www.w3.org/1999/xlink" x="0px" y="0px"
	 viewBox="0 0 30 30" style="enable-background:new 0 0 30 30;" xml:space="preserve">
<style type="text/css">
	.st0{fill:#3F865E;}
	.st1{fill:#A6A03C;}
	.st2{fill:#EEAA1F;}
	.st3{fill:#FF0000;}
</style>
<g>
	<g>
		<g>
			<path class="st0" d="M15.3,24.5c-4.9,0-9.9-3-15-9L0,15.1l0.3-0.4c4.5-5.9,9.2-8.9,14-9c5-0.1,10.1,2.9,15.3,9l0.3,0.4l-0.3,0.4
				c-4.5,5.9-9.2,8.9-14,9C15.5,24.5,15.4,24.5,15.3,24.5z M1.7,15.1c4.8,5.5,9.5,8.2,13.9,8.1c4.3-0.1,8.5-2.8,12.7-8.1
				C23.5,9.6,18.8,6.9,14.4,7C10.1,7.1,5.9,9.8,1.7,15.1z"/>
		</g>
	</g>
	<g>
		<path class="st2" d="M15.2,9.8c-3,0-5.4,2.4-5.4,5.4c0,1.3,0.5,2.5,1.3,3.5l7.5-7.6C17.7,10.2,16.5,9.8,15.2,9.8z"/>
	</g>
	<g>
		<path class="st2" d="M12.5,19.7c0.8,0.5,1.7,0.7,2.7,0.7c3,0,5.4-2.4,5.4-5.4c0-1-0.3-1.9-0.7-2.7L12.5,19.7z"/>
	</g>
	
		<rect x="-3.7" y="14.3" transform="matrix(0.7059 -0.7083 0.7083 0.7059 -6.6055 14.0907)" class="st1" width="34.8" height="1.5"/>
</g>
</svg>
