<svg width="463" height="463" viewBox="0 0 463 463" fill="none" xmlns="http://www.w3.org/2000/svg">
<g clip-path="url(#clip0_41_29)">
<path d="M235.696 81.72C235.696 77.233 232.063 73.591 227.567 73.591C180.641 73.591 142.461 111.771 142.461 158.697C142.461 163.184 146.094 166.826 150.59 166.826C155.085 166.826 158.719 163.184 158.719 158.697C158.719 120.737 189.608 89.848 227.568 89.848C232.063 89.848 235.696 86.215 235.696 81.72Z" fill="white"/>
<path d="M108.305 158.697C108.305 186.594 117.32 212.971 134.381 234.976C134.462 235.082 134.552 235.187 134.641 235.293C170.22 284.682 161.376 308.174 161.376 308.214C159.474 312.278 161.23 317.115 165.294 319.025C166.408 319.545 167.578 319.797 168.732 319.789C171.788 319.789 174.715 318.058 176.096 315.107C177.567 311.986 189.191 282.893 147.402 225.197C147.215 224.945 147.028 224.701 146.817 224.474C132.259 205.453 124.569 182.726 124.569 158.689C124.569 98.96 173.17 50.368 232.89 50.368C292.61 50.368 341.213 98.96 341.213 158.689C341.213 182.79 333.475 205.607 318.689 224.839C276.876 282.576 288.971 312.002 290.483 315.172C292.393 319.147 297.083 320.773 301.099 318.976C305.115 317.179 306.935 312.4 305.236 308.336C305.138 308.1 295.823 284.137 331.719 234.561C348.561 212.646 357.47 186.415 357.47 158.697C357.47 90.002 301.586 34.118 232.891 34.118C164.196 34.118 108.305 90.011 108.305 158.697Z" fill="white"/>
<path d="M305.439 351.084V344.175C305.439 333.161 296.473 324.203 285.467 324.203H175.927C164.913 324.203 155.955 333.161 155.955 344.175V351.084C155.955 362.09 164.913 371.056 175.927 371.056H285.476C296.482 371.056 305.439 362.098 305.439 351.084ZM172.212 351.084V344.175C172.212 342.127 173.878 340.46 175.927 340.46H285.476C287.524 340.46 289.191 342.126 289.191 344.175V351.084C289.191 353.132 287.525 354.799 285.476 354.799H175.927C173.878 354.799 172.212 353.133 172.212 351.084Z" fill="white"/>
<path d="M189.087 383.412C184.592 383.412 180.958 387.054 180.958 391.541V413.009C180.958 416.195 182.819 419.081 185.713 420.406L229.518 440.394C230.591 440.882 231.737 441.126 232.891 441.126C234.078 441.126 235.265 440.866 236.362 440.346L280.289 419.618C283.134 418.277 284.947 415.416 284.947 412.27V391.55C284.947 387.063 281.314 383.421 276.818 383.421C272.322 383.421 268.689 387.063 268.689 391.55V407.124L232.834 424.048L197.215 407.791V391.55C197.215 387.045 193.582 383.412 189.087 383.412Z" fill="white"/>
<path d="M422.263 305.581C424.929 301.972 424.157 296.883 420.548 294.217L365.404 253.558C361.787 250.892 356.706 251.656 354.04 255.273C351.374 258.882 352.146 263.971 355.755 266.637L410.899 307.296C412.354 308.369 414.045 308.881 415.719 308.881C418.207 308.889 420.67 307.743 422.263 305.581Z" fill="white"/>
<path d="M99.1604 77.468C100.615 78.541 102.306 79.053 103.98 79.053C106.475 79.053 108.93 77.907 110.532 75.745C113.198 72.136 112.426 67.047 108.817 64.381L52.4294 22.811C48.8204 20.137 43.7314 20.917 41.0654 24.526C38.3994 28.143 39.1634 33.232 42.7804 35.898L99.1604 77.468Z" fill="white"/>
<path d="M101.721 250.761L42.7888 294.216C39.1798 296.882 38.4078 301.971 41.0738 305.58C42.6668 307.742 45.1298 308.888 47.6258 308.888C49.2998 308.888 50.9908 308.376 52.4458 307.303L111.378 263.848C114.987 261.182 115.759 256.093 113.093 252.484C110.41 248.867 105.33 248.103 101.721 250.761Z" fill="white"/>
<path d="M358.161 61.699C354.552 64.365 353.78 69.454 356.446 73.063C358.039 75.225 360.502 76.371 362.998 76.371C364.672 76.371 366.363 75.851 367.818 74.786L420.564 35.899C424.173 33.233 424.945 28.144 422.279 24.535C419.613 20.926 414.532 20.146 410.915 22.82L358.161 61.699Z" fill="white"/>
<path d="M454.217 156.933H392.042C387.547 156.933 383.913 160.575 383.913 165.062C383.913 169.549 387.546 173.191 392.042 173.191H454.217C458.712 173.191 462.346 169.549 462.346 165.062C462.346 160.575 458.712 156.933 454.217 156.933Z" fill="white"/>
<path d="M80.416 165.062C80.416 160.575 76.783 156.933 72.287 156.933H8.129C3.634 156.933 0 160.575 0 165.062C0 169.549 3.633 173.191 8.129 173.191H72.288C76.774 173.19 80.416 169.549 80.416 165.062Z" fill="white"/>
</g>
<defs>
<clipPath id="clip0_41_29">
<rect width="462.345" height="462.345" fill="white"/>
</clipPath>
</defs>
</svg>
