<?xml version="1.0" encoding="utf-8"?>
<!-- Generator: Adobe Illustrator 25.0.0, SVG Export Plug-In . SVG Version: 6.00 Build 0)  -->
<svg version="1.1" id="Layer_1" xmlns="http://www.w3.org/2000/svg" xmlns:xlink="http://www.w3.org/1999/xlink" x="0px" y="0px"
	 viewBox="0 0 36 36" style="enable-background:new 0 0 36 36;" xml:space="preserve">
<style type="text/css">
	.st0{fill:#7AB5F4;}
	.st1{fill:#FFFFFF;}
	.st2{fill:#0B4A99;}
	.st3{fill:#CB1618;}
	.st4{fill:none;}
	.st5{opacity:0.25;}
	.st6{fill:none;stroke:#0B4A99;stroke-width:3.000000e-02;stroke-miterlimit:10;}
</style>
<rect x="15.6" y="4.6" class="st0" width="5.4" height="30.5"/>
<g>
	<polygon class="st2" points="35.9,36 -0.1,36 -0.1,0.7 1.1,0.7 1.1,34.8 35.9,34.8 	"/>
</g>
<g>
	<path class="st2" d="M11,35.5H4.3V19.8H11V35.5z M5.6,34.2h4.1V21.1H5.6V34.2z"/>
</g>
<g>
	<path class="st2" d="M16.4,35.5H9.7V11.7h6.7V35.5z M11,34.2h4.1V13H11V34.2z"/>
</g>
<g>
	<path class="st2" d="M21.8,35.5h-6.7V4h6.7V35.5z M16.4,34.2h4.1V5.3h-4.1V34.2z"/>
</g>
<g>
	<path class="st2" d="M27.2,35.5h-6.7V6.8h6.7V35.5z M21.8,34.2h4.1V8.1h-4.1V34.2z"/>
</g>
<g>
	<path class="st2" d="M32.5,35.5h-6.7V24.9h6.7V35.5z M27.1,34.2h4.1v-8h-4.1V34.2z"/>
</g>
</svg>
