<?xml version="1.0" encoding="utf-8"?>
<!-- Generator: Adobe Illustrator 25.0.0, SVG Export Plug-In . SVG Version: 6.00 Build 0)  -->
<svg version="1.1" id="Layer_1" xmlns="http://www.w3.org/2000/svg" xmlns:xlink="http://www.w3.org/1999/xlink" x="0px" y="0px"
	 viewBox="0 0 100 100" style="enable-background:new 0 0 100 100;" xml:space="preserve">
<style type="text/css">
	.st0{fill-rule:evenodd;clip-rule:evenodd;fill:#F0AB00;}
	.st1{fill:#F0AB00;}
	.st2{fill:#008FD3;}
	.st3{fill:#609A7F;}
	.st4{fill:#A8A240;}
	.st5{fill-rule:evenodd;clip-rule:evenodd;fill:#008FD3;}
	.st6{fill-rule:evenodd;clip-rule:evenodd;fill:#609A7F;}
	.st7{fill-rule:evenodd;clip-rule:evenodd;fill:#A8A240;}
	.st8{fill:none;stroke:#000000;}
	.st9{fill:none;}
	.st10{fill:#FFFFFF;}
	.st11{fill:#40875E;}
	.st12{fill:#231F20;}
	.st13{fill-rule:evenodd;clip-rule:evenodd;fill:#40875E;}
	.st14{stroke:#231F20;stroke-width:0.5;stroke-miterlimit:10;}
	.st15{fill-rule:evenodd;clip-rule:evenodd;}
</style>
<circle class="st0" cx="39.12" cy="26.23" r="2.36"/>
<circle class="st0" cx="33.53" cy="19.11" r="2.36"/>
<circle class="st0" cx="24.19" cy="18.93" r="2.36"/>
<circle class="st0" cx="18.56" cy="26.28" r="2.36"/>
<circle class="st0" cx="20.48" cy="35.14" r="2.36"/>
<circle class="st0" cx="28.78" cy="39.37" r="2.36"/>
<circle class="st0" cx="37.09" cy="35.25" r="2.36"/>
<path class="st13" d="M28.47,13.63c4.56-0.13,8.05,1.72,10.52,4.01c2.89,2.69,5.24,6.52,4.82,12.36c-0.28,3.87-2.08,7.08-4.33,9.31
	c-2.75,2.72-6.56,4.7-11.96,4.34c-4.13-0.28-7.19-2.15-9.63-4.74c-2.29-2.42-4.15-5.79-4.17-10.12c-0.02-4.78,1.98-8.26,4.25-10.68
	C20.07,15.87,24.01,13.75,28.47,13.63z M21.97,15.87c-4.43,2.4-8.12,7-7.55,13.97c0.34,4.2,2.14,7.32,4.74,9.63
	c2.5,2.23,6.56,3.96,10.84,3.61c4.14-0.34,7.33-2.3,9.55-4.82c2.21-2.5,4.06-6.1,3.69-10.76c-0.33-4.17-2.45-7.54-4.74-9.63
	c-2.35-2.15-6.36-3.96-10.84-3.61C25.56,14.43,23.54,15.02,21.97,15.87z"/>
<path class="st7" d="M27.91,15.23c4.13-0.3,7.82,1.44,10.03,3.45c2.17,1.97,4.05,5.25,4.34,9.07c0.32,4.39-1.49,7.65-3.53,9.95
	c-2.17,2.45-5.2,4.03-9.07,4.34c-4.02,0.31-7.58-1.26-9.95-3.37c-2.42-2.16-4.03-5.16-4.33-9.07c-0.35-4.46,1.36-7.64,3.37-9.95
	C20.73,17.37,23.88,15.53,27.91,15.23z M25.34,16.68c0.42,0.09,0.59,0.43,0.96,0.56c1.42-0.42,3.55-0.41,4.98,0
	c0.37-0.19,0.75-0.37,1.04-0.64C30.32,16.04,27.21,15.88,25.34,16.68z M22.13,19.57c0.41,2.18,4.16,1.97,4.17-0.48
	c0.01-1.43-1.13-2.3-2.57-2.01C22.68,17.29,21.85,18.06,22.13,19.57z M33.77,21.17c2.38-0.33,2.26-4.69-0.8-4.09
	C30.35,17.59,31.2,21.53,33.77,21.17z M27.35,17.4c0.09,0.55,0.43,0.85,0.4,1.52c0.39,0.01,1.69,0.01,2.09,0
	c0.09-0.58,0.3-1.04,0.48-1.52C29.33,17.31,28.32,17.29,27.35,17.4z M17.31,23.9c0.21-0.25,0.65-0.26,0.96-0.4
	c0.59-1.09,1.33-2.3,2.25-3.21c0.55-0.55,1.31-0.88,1.04-1.93C19.79,19.8,17.97,21.62,17.31,23.9z M36.1,19.49
	c1.3,1.13,2.47,2.4,3.21,4.09c0.44,0.01,0.68,0.23,1.04,0.32c-0.94-2.32-2.41-4.11-4.34-5.46C36.04,18.8,36.15,19.06,36.1,19.49z
	 M27.11,19.49c-0.12,0.31-0.13,0.72-0.32,0.96c1.16-0.38,2.97-0.18,4.01-0.08c-0.16-0.22-0.22-0.53-0.24-0.88
	C29.48,19.3,28.17,19.26,27.11,19.49z M19.08,22.86c0.68,0.02,1.1,0.3,1.52,0.56c0.13-0.76,1.31-1.1,1.28-1.69
	c-0.01-0.2-1.08-1.1-0.96-1.28C20.27,21.22,19.58,21.94,19.08,22.86z M35.78,21.89c0.47,0.46,0.84,1.03,1.28,1.53
	c0.34-0.36,1.01-0.38,1.45-0.64c-0.63-0.76-1.07-1.71-1.93-2.25C36.41,21.08,35.96,21.35,35.78,21.89z M21.49,26.87
	c-1.26,5.07,2.79,8.87,6.34,9.23c4.42,0.45,9.07-2.75,8.43-8.51c-0.18-1.64-1.23-3.39-2.09-4.25c-1.49-1.51-3.62-2.46-6.5-2.09
	C24.46,21.67,22.21,23.95,21.49,26.87z M22.69,21.57c-0.77,0.84-1.61,1.61-2.09,2.73c0.19,0.24,0.4,0.45,0.56,0.72
	c0.57-1.27,1.51-2.18,2.41-3.13C23.18,21.88,23.02,21.65,22.69,21.57z M34.81,21.65c-0.28,0.12-0.63,0.18-0.8,0.4
	c1.01,0.76,1.82,1.71,2.33,2.97c0.35-0.13,0.46-0.5,0.64-0.8C36.38,23.24,35.78,22.27,34.81,21.65z M16.35,26.47
	c0.25,2.68,4.75,2.36,4.17-0.72c-0.17-0.91-0.99-1.76-2.41-1.52C17,24.4,16.22,25.08,16.35,26.47z M37.06,26.79
	c0.43,2.23,4.23,2.06,4.17-0.56c-0.03-1.38-1.09-2.29-2.65-1.93C37.4,24.58,36.81,25.49,37.06,26.79z M17.87,34.66
	c0.09-0.37,0.26-0.65,0.32-1.04c-0.63-1.4-1.08-2.99-1.12-4.98c-0.32-0.19-0.43-0.59-0.8-0.72C16.21,30.75,16.83,32.92,17.87,34.66z
	 M40.43,30.08c-0.16,1.38-0.7,2.72-1.12,3.69c0.19,0.22,0.32,0.49,0.32,0.88c1.17-1.61,1.69-3.87,1.69-6.66
	c-0.02-0.06-0.07-0.09-0.16-0.08C40.46,28.4,40.54,29.15,40.43,30.08z M20.2,28.56c-0.12,0.25-0.48,0.27-0.72,0.4
	c0.08,1.28,0.38,2.35,0.72,3.37c0.32,0,0.64,0,0.96,0C20.65,31.27,20.53,29.81,20.2,28.56z M36.34,32.41
	c0.26-0.12,0.67-0.08,1.04-0.08c0.32-1.02,0.62-2.05,0.72-3.29c-0.28-0.17-0.58-0.33-0.88-0.48C37.22,30.14,36.82,31.31,36.34,32.41
	z M18.12,32.49c0.43,0.01,0.86-0.63,1.44-0.72c-0.13-0.67-0.38-1.23-0.4-2.01c-0.6,0.01-1.2,0.02-1.61-0.16
	C17.57,30.73,17.89,31.56,18.12,32.49z M38.43,29.84c-0.04,0.76-0.31,1.3-0.4,2.01c0.6,0.09,0.89,0.5,1.36,0.72
	c0.31-0.86,0.58-1.77,0.64-2.89C39.55,29.81,38.8,29.85,38.43,29.84z M20.68,37.31c2.64-0.22,2.4-4.68-0.64-4.09
	C17.59,33.69,18.08,37.52,20.68,37.31z M34.97,35.22c-0.03,2.31,3.68,2.95,4.17,0.56c0.36-1.73-0.92-2.7-2.25-2.57
	C35.64,33.34,34.99,34.18,34.97,35.22z M23.25,36.1c0.88,0.67,1.94,1.16,3.13,1.53c0.19-0.29,0.43-0.53,0.64-0.8
	c-1.54-0.23-2.57-0.96-3.61-1.69C23.43,35.53,23.31,35.78,23.25,36.1z M30.56,36.91c0.33,0.15,0.4,0.56,0.72,0.72
	c1.11-0.44,2.3-0.81,3.05-1.61c-0.26-0.12-0.05-0.7-0.24-0.88C33.18,35.99,31.92,36.5,30.56,36.91z M22.53,38.11
	c0.87,0.42,1.86,1.13,2.81,1.2c-0.14-0.2,0.07-1.06,0.16-1.53c-0.7-0.23-1.27-0.61-1.93-0.88C23.39,37.47,22.86,37.69,22.53,38.11z
	 M32.08,37.79c0.11,0.48,0.21,0.97,0.16,1.61c1.03-0.34,2.01-0.72,2.73-1.36c-0.43-0.32-0.76-0.74-1.12-1.12
	C33.34,37.28,32.71,37.54,32.08,37.79z M26.95,38.19c-1.38,2.55,2.46,4.37,3.69,2.09c0.88-1.62-0.52-3.36-2.25-3.05
	C27.52,37.38,27.13,37.85,26.95,38.19z M26.22,40.04c-1-0.26-1.77-0.45-2.65-0.88c-1.05-0.52-1.76-1.6-3.13-1.28
	c1.54,1.54,3.83,2.75,6.34,3.05C26.5,40.72,26.33,40.41,26.22,40.04z M36.02,37.79c-1.24,1.06-2.78,1.82-4.66,2.25
	C31.27,40.46,31,40.7,30.8,41c1.94-0.34,3.8-1.16,5.14-2.09c0.41-0.29,1.12-0.72,1.04-1.04C36.6,37.9,36.31,37.84,36.02,37.79z"/>
<path class="st13" d="M27.91,22.3c4.26-0.51,8.06,2.84,7.22,7.55c-0.51,2.88-2.95,4.95-5.54,5.22c-4.06,0.42-7.64-2.66-7.23-7.14
	c0.08-0.86,0.27-1.48,0.56-2.09C23.62,24.39,25.39,22.6,27.91,22.3z M23.57,26.15c-1.91,4.04,1.47,8.78,6.1,8.19
	c2.92-0.37,5.18-3.29,4.82-6.5c-0.31-2.75-2.89-5.34-6.58-4.82C25.81,23.31,24.24,24.75,23.57,26.15z"/>
<path class="st7" d="M72.27,55c0.55,0.83,0.96,1.8,1.4,2.73c2.73-0.08,5.63-0.34,5.66,2.1c0.03,2.81-3.52,2.1-6.42,2.16
	c-0.01,0.83,0.01,2.15,0,3.18c0.37,0.18,1.2-0.1,1.4,0.25c0.26,0.44,0.07,1.33,0.13,1.97c0.3,0.37,0.69,0.42,1.14,0.76
	c0.44,0.33,0.87,1.08,1.33,1.21c0.99,0.27,2.05-0.2,3.3,0c0.13-0.84-0.29-1.63,0.25-2.03c0.62-0.46,3.08-0.01,3.81,0
	c0.34,1.05,0.19,2.29,0.19,3.5c0,3.53,0.1,7.55-0.13,10.93c-1.05,0.2-2.9,0.21-3.94,0c-0.32-0.42-0.15-1.33-0.19-2.03
	c-1.22,0.08-2.09-0.33-3.18-0.06c-0.41,0.1-0.91,0.73-1.27,1.02c-2.07,1.68-5.68,2.48-8.64,0.95c-0.4-0.2-1-0.56-1.4-0.89
	c-0.32-0.26-0.79-0.97-1.21-1.08c-1.06-0.29-2.18,0.22-3.24,0c-0.04,0.72,0.13,1.66-0.19,2.1c-1.04,0.21-2.9,0.2-3.94,0
	c-0.21-4.49-0.21-9.87,0-14.36c0.35-0.3,1.19-0.19,1.97-0.19c0.73,0,1.63-0.15,1.97,0.19c0.43,0.44,0.07,1.09,0.19,1.91
	c1.12-0.05,2.28,0.3,3.24,0.06c0.81-0.19,1.57-1.71,2.54-1.91c0.06-0.66-0.13-1.57,0.13-2.03c0.23-0.3,0.9-0.16,1.4-0.19
	c-0.01-1.02,0.01-2.36,0-3.18c-2.67-0.28-6.39,0.74-6.42-2.16c-0.03-2.41,2.74-2.28,5.59-2.16c0.6-0.55,0.83-2.57,1.72-2.8
	C70.25,54.73,71.31,55.03,72.27,55z M69.98,56.2c-0.32,0.44-0.58,0.95-0.76,1.52c1.02,0,2.03,0,3.05,0c-0.15-0.59-0.48-1-0.7-1.52
	C71.04,56.2,70.51,56.2,69.98,56.2z M69.85,61.99c0,1.08,0,2.16,0,3.24c0.59,0,1.19,0,1.78,0c0-1.08,0-2.16,0-3.24
	C71.04,61.99,70.45,61.99,69.85,61.99z M58.22,80.67c0.59,0,1.19,0,1.78,0c0-4.09,0-8.18,0-12.27c-0.57,0-1.14,0-1.72,0
	C58.14,72.37,58.26,76.6,58.22,80.67z M81.48,80.67c0.59,0,1.19,0,1.78,0c0-4.09,0-8.18,0-12.27c-0.57,0-1.14,0-1.72,0
	C81.4,72.37,81.52,76.6,81.48,80.67z"/>
<path class="st7" d="M66.61,74.06c0.29,2.11,1.04,3.75,3.05,4.32c0.55,0.16,1.31-0.02,1.59,0.32c0.17,0.21,0.11,0.7,0,0.83
	c-0.46,0.56-2.15-0.04-2.73-0.32c-0.7-0.33-1.41-0.83-1.91-1.46c-0.68-0.87-1.41-2.77-0.83-3.69
	C65.93,73.83,66.44,73.94,66.61,74.06z"/>
<path class="st0" d="M66.83,24.88c-0.08-0.09-0.16-0.18-0.21-0.26c-0.32-0.49-0.58-0.99-0.84-1.51c-0.06-0.12-0.11-0.24-0.15-0.37
	c-0.06-0.17-0.13-0.34-0.22-0.51c-0.18-0.33-0.52-0.63-0.84-0.92l-0.2-0.18c-0.66-0.61-1.4-1.07-2.07-1.3
	c-1.2-0.4-2.5-0.13-3.23,0.68c-1.06,1.2-0.85,3.58-0.46,4.88c0.69,2.29,2.36,4.52,4.15,5.56c0.26,0.15,0.66,0.35,0.95,0.44
	c0.38,0.12,0.74,0.17,1.07,0.17c1.25,0,2.17-0.73,2.56-1.57c0.55-1.18,0.37-3.63-0.16-4.67C67.07,25.16,66.95,25.02,66.83,24.88z
	 M66.56,29.64c-0.35,0.76-1.3,1.35-2.61,0.95c-0.18-0.06-0.53-0.22-0.78-0.36c-1.59-0.92-3.13-3-3.76-5.07
	C59,23.81,59,21.87,59.69,21.09c0.51-0.56,1.45-0.74,2.33-0.44c0.55,0.19,1.19,0.59,1.76,1.12L64,21.95
	c0.26,0.23,0.55,0.49,0.66,0.69c0.06,0.12,0.12,0.25,0.17,0.4c0.06,0.15,0.12,0.31,0.19,0.45c0.27,0.54,0.55,1.06,0.89,1.58
	c0.09,0.14,0.19,0.26,0.29,0.36c0.09,0.1,0.17,0.2,0.22,0.28C66.84,26.55,66.99,28.71,66.56,29.64z"/>
<path class="st7" d="M87.57,35.64c-0.26-2.01-1.51-3.07-2.82-3.92l-0.19-0.12l0.02-0.15l-0.11,0.09l-0.29-0.19l-0.05,0.45
	l-0.33,0.25c-0.13,0.1-0.26,0.21-0.4,0.33c-0.28,0.23-0.56,0.48-0.88,0.66c-3.13,1.77-8.8,1.32-10.81-0.83l-0.01-0.12l-0.47-0.21
	v-0.44c0.03,0.05,0.05,0.1,0.08,0.15c0.32,0.52,1.02,1.09,1.54,1.38c1.3,0.72,3.04,1.08,4.79,1.08c1.75,0,3.5-0.36,4.8-1.08
	c1.23-0.68,1.94-1.63,2.04-2.74c0.08-0.88-0.02-1.86-0.11-2.81l-0.04-0.45c-0.33-3.5-1.11-5.96-2.46-7.75
	c-1.68-2.23-3.52-3.56-5.96-4.32c-1.02-0.31-2.17-0.47-3-0.54H72.2l-0.03,0c-2.04,0.16-3.44,0.47-4.54,1l-0.52,0.25
	c-0.05-0.01-0.11-0.02-0.16-0.02c-1.14-0.08-1.94,0.43-2.64,0.88c-0.23,0.15-0.45,0.29-0.67,0.4l-0.67,0.35l0.65,0.39
	c1.9,1.14,3.52,2.83,4.7,4.88c1.25,2.19,1.87,4.35,1.89,6.62l0.01,0.76l0.64-0.4c-0.03,0.79,0.08,1.39,0.36,1.92l-0.61,0.35
	c-0.38,0.22-0.8,0.51-1.2,0.86c0.63-1.26,0.86-2.93,0.6-4.75c-0.42-2.98-2.1-5.84-3.52-7.53c-1.12-1.33-2.14-2.2-3.3-2.85
	c-1.36-0.75-3.51-1.32-5.1-0.47c-0.26,0.14-0.82,0.6-1.02,0.84c-0.49,0.58-0.91,1.53-1.08,2.42c-0.04,0.21-0.05,0.43-0.05,0.64
	c-0.01,0.23-0.01,0.46-0.06,0.62l-0.02,0.06l0,0.37c0.24,3.52,1.63,6.72,4.15,9.52c1,1.11,2.2,2.01,3.47,2.6
	c0.57,0.26,1.32,0.57,2.06,0.63c0.12,0.01,0.23,0.01,0.34,0.01c1.04,0,1.79-0.34,2.41-0.79c-0.12,0.22-0.24,0.44-0.32,0.68
	c-0.33,0.98-0.35,2.4-0.04,3.47c0.11,0.38,0.36,0.77,0.58,1.1c0.98,1.48,2.77,2.32,3.75,2.7c1.31,0.5,2.82,0.77,4.91,0.89
	c-0.12-0.01-0.31-0.12-0.34-0.34l0.4-0.05l0.16,0.39l0.33-0.14c0.12,0.15,0.3,0.17,0.39,0.17c0.02,0,0.04,0,0.05,0h0.34v-0.04
	c3.86-0.23,6.87-1.5,8.28-3.5c0.36-0.51,0.6-1.1,0.71-1.74h0.08v-1.81L87.57,35.64z M85.79,34.42c-0.02,0.02-0.12,0.06-0.28,0.06
	c0,0-0.01,0-0.01,0c-0.19,0-0.34-0.05-0.39-0.09c-0.01-0.05,0.01-0.07,0.02-0.09c0.04-0.06,0.15-0.13,0.25-0.15
	c0.1-0.02,0.27,0.04,0.36,0.14C85.79,34.36,85.79,34.4,85.79,34.42z M85.46,33.31c-0.08,0-0.17,0-0.25,0.02
	c-0.1,0.02-0.2,0.05-0.3,0.09c-0.01-0.19-0.01-0.38-0.01-0.57C85.1,33,85.29,33.15,85.46,33.31z M84.5,37.94
	c-0.01-0.16,0.15-0.21,0.25-0.23c0.16-0.03,0.26,0.05,0.3,0.1c0.06,0.07,0.06,0.14,0.06,0.16c0,0.01-0.04,0.04-0.15,0.05
	C84.78,38.04,84.57,37.99,84.5,37.94z M80.36,40.2c-0.05,0.04-0.19,0.11-0.4,0.09c-0.17,0-0.27-0.05-0.28-0.06
	c-0.02-0.12,0.17-0.24,0.31-0.3C80.17,39.98,80.35,40.08,80.36,40.2z M74.16,39.84c-0.13,0.1-0.55,0.12-0.67,0.04
	c-0.01-0.06,0-0.09,0.02-0.12c0.04-0.06,0.13-0.12,0.25-0.14c0.13-0.03,0.27,0.01,0.35,0.09C74.15,39.75,74.16,39.79,74.16,39.84z
	 M71.69,32.36c0,0.02,0,0.03,0,0.05C71.69,32.4,71.69,32.38,71.69,32.36L71.69,32.36z M70.26,33.38c0.08-0.07,0.23-0.12,0.37-0.05
	l0.23,0.11c0,0.05,0,0.1,0,0.15l-0.12,0.02c-0.24,0.04-0.49,0-0.57-0.05C70.16,33.47,70.22,33.41,70.26,33.38z M86.72,36.68
	l-0.03,0.36c-0.05,0.64-0.25,1.21-0.6,1.71c-1.27,1.8-4.21,2.98-7.85,3.16c-0.13-0.01-0.38-0.01-0.53,0.19l-0.07,0.09
	c-0.05-0.14-0.19-0.27-0.42-0.28c-2-0.12-3.44-0.37-4.66-0.84c-1.51-0.57-2.73-1.44-3.35-2.37c-0.14-0.21-0.39-0.59-0.47-0.87
	c-0.26-0.9-0.25-2.14,0.03-2.96c0.13-0.38,0.34-0.73,0.59-1.03c0.13,0.41,0.55,0.6,1.01,0.63c-0.01,0.61,0,1.18,0.07,1.68
	c-0.18-0.09-0.38-0.14-0.58-0.14c-0.38,0.01-0.76,0.19-0.95,0.46c-0.33,0.46-0.22,0.82-0.13,1c0.23,0.43,0.78,0.59,1.19,0.57
	c0.45-0.01,0.8-0.19,0.97-0.48c0.01,0.02,0.03,0.04,0.04,0.06c0.18,0.24,0.49,0.57,0.72,0.76c0.36,0.29,0.77,0.55,1.22,0.77
	c-0.05,0.06-0.1,0.12-0.14,0.18c-0.15,0.24-0.19,0.52-0.11,0.81c0.12,0.43,0.57,0.68,1.18,0.65c0.62-0.03,1.06-0.33,1.13-0.75
	c0.01-0.05,0.01-0.11,0.01-0.16c1.21,0.28,2.54,0.37,3.84,0.24c-0.01,0.08-0.01,0.16,0,0.25c0.07,0.48,0.51,0.78,1.12,0.78
	c0,0,0,0,0,0c0.54,0,1.15-0.25,1.22-0.79c0.04-0.26-0.03-0.5-0.17-0.7c1.15-0.34,2.03-0.8,2.68-1.38c0.19,0.46,0.81,0.65,1.35,0.59
	c0.41-0.05,0.71-0.26,0.84-0.58c0.13-0.32,0.06-0.71-0.19-1.01c-0.24-0.29-0.6-0.44-0.97-0.41c0.02-0.05,0.04-0.1,0.05-0.15
	c0.15-0.45,0.19-0.94,0.19-1.46c0.17,0.05,0.35,0.08,0.52,0.07c0.47,0,0.83-0.18,1.01-0.48c0.1,0.26,0.16,0.55,0.21,0.87V36.68z
	 M70.22,37.13c-0.03,0.03-0.18,0.08-0.39,0.05c-0.18-0.02-0.28-0.09-0.29-0.09c0-0.01,0.01-0.06,0.06-0.13
	c0.03-0.03,0.14-0.1,0.29-0.1c0.09-0.01,0.24,0.06,0.31,0.17C70.23,37.06,70.23,37.09,70.22,37.13z"/>
<path class="st0" d="M61.09,22.34c-0.94,0.55-0.86,2.46,0.2,4.29c1.05,1.82,2.67,2.86,3.61,2.31c0.94-0.55,0.86-2.46-0.19-4.29
	C63.65,22.83,62.03,21.79,61.09,22.34z"/>
<path class="st11" d="M43.2,71.08h2.44v-4.13h-2.5c-0.29-1.56-0.89-2.84-1.7-3.54l0-0.03c0.01-0.38,0.01-0.77-0.12-1.07l-0.09-0.19
	h-3.16l-0.01,0.31c-0.01,0.36-0.02,0.73-0.03,1.1l-0.09-0.01c-0.6-0.04-1.22-0.06-1.84-0.08l-0.02-0.19c-0.02-0.2-0.01-0.44,0-0.68
	c0.02-0.46,0.04-0.94-0.12-1.3l-0.09-0.19h-7.55l-0.09,0.06c-0.4,0.29-0.36,0.86-0.32,1.41c0.02,0.25,0.03,0.5,0,0.68l-0.03,0.21
	c-0.54,0-1.08,0-1.61-0.01l-0.05,0l-0.05,0.02c-0.27,0.09-0.42,0.31-0.41,0.59v0.32l-0.17,0.01c-0.72,0.05-1.27,0.31-1.65,0.76
	c-0.46,0.56-0.65,1.39-0.56,2.53h-1.19v-3.93l-0.08-0.09c-0.2-0.22-0.5-0.21-0.77-0.2c-0.05,0-0.11,0-0.17,0
	c0-0.16-0.01-0.33-0.01-0.5c-0.01-0.25-0.03-0.53,0.01-0.73h1.53l0.1-0.13c0.19-0.26,0.17-0.62,0.16-0.97
	c-0.01-0.15-0.01-0.3,0-0.41l0.01-0.08h0.03l-0.01-0.14l0.01-0.15l-0.03,0l-0.01-0.07c-0.01-0.12,0-0.26,0-0.41
	c0.02-0.35,0.03-0.71-0.16-0.97l-0.09-0.12l-0.15-0.01c-0.3-0.02-0.65-0.01-0.96,0.01c-0.14,0.01-0.3,0.01-0.43,0.01v-1.62H18.3
	l-0.1,0.15c-0.17,0.27-0.15,0.63-0.14,0.98c0.01,0.14,0.01,0.34,0,0.47c-0.1,0-0.2,0-0.29,0c-0.42-0.01-0.86-0.02-1.2,0.12
	l-0.09,0.04l-0.06,0.08c-0.22,0.32-0.22,1.13-0.01,1.47l-0.17,0.02l0.03,0.32c0.01,0.09,0,0.21,0,0.33
	c-0.01,0.32-0.03,0.65,0.17,0.89l0.04,0.05l0.06,0.03c0.33,0.16,0.77,0.15,1.2,0.13c0.11,0,0.21-0.01,0.31-0.01v1.23
	c-0.29-0.01-0.62-0.02-0.84,0.18l-0.1,0.1v2.12c-0.88,0.2-1.43,0.82-1.64,1.83H14.1l-0.06,0.24c-0.17,0.63-0.17,1.88,0,2.51
	l0.06,0.22l0.23,0.02c0.2,0.02,0.41,0.01,0.62,0c0.2-0.01,0.43-0.02,0.59,0.01c0.07,1.13,0.87,1.56,1.6,1.86c0,0.2,0,0.42-0.01,0.64
	c-0.02,0.53-0.04,1.08,0.11,1.5l0.08,0.23l0.24-0.01c0.19-0.01,0.39-0.01,0.59-0.01l0.01,0.16c0.03,0.82-0.44,1.08-1.2,1.43
	c-0.1,0.05-0.21,0.09-0.33,0.16c-0.32,0.19-0.28,0.58-0.25,0.87c0.01,0.06,0.01,0.14,0.01,0.21h-0.78l-0.1,0.11
	c-0.09,0.1-0.25,0.24-0.41,0.38c-0.52,0.44-1.06,0.89-0.73,1.34l0.1,0.14l0.17,0c3.49-0.02,7.09-0.01,10.56,0
	c2.03,0.01,4.09,0.01,6.16,0.01c3.66,0,7.33-0.02,10.9-0.11l0.13-0.62c-0.17-0.08-0.29-0.24-0.44-0.44c-0.22-0.29-0.5-0.66-1.02-0.8
	c-0.58-0.16-1.24-0.1-1.93-0.03c-0.5,0.05-1.01,0.09-1.49,0.06v-1.21l-0.28-0.04c-0.99-0.16-1.46-0.61-1.51-1.48l-0.01-0.11
	c0.03,0,0.06,0,0.08,0c0.78-0.01,1.5-0.01,2.13-0.01l0.11,0c0.01,0.33,0.02,0.67,0.03,1l0.01,0.31h3.11l0.1-0.13
	c0.19-0.26,0.17-0.62,0.16-0.97c0-0.1-0.01-0.19-0.01-0.28C42.32,74.1,42.94,72.76,43.2,71.08z M43.31,67.6h1.69v2.83h-1.69v-0.27
	c0.02-0.25,0.03-0.51,0.04-0.77c0.01-0.39-0.01-0.78-0.04-1.15V67.6z M37.6,69.69v0.15c-2.12,0.23-4.56,0.19-6.92,0.15
	c-0.9-0.01-1.81-0.03-2.72-0.03c-0.52,0-1.03,0-1.54,0.02c0-0.04-0.01-0.08-0.01-0.12c-0.01-0.07-0.01-0.17-0.01-0.25
	c1.41,0.02,2.87,0.01,4.29,0C33,69.6,35.38,69.58,37.6,69.69z M37.6,68.68H26.42c0-0.04-0.01-0.08-0.01-0.13
	c-0.01-0.07-0.01-0.18-0.01-0.26h11.2V68.68z M28.59,61.73h6.83c0.04,0.22,0.02,0.52,0.01,0.81c-0.01,0.14-0.01,0.27-0.01,0.41H28.6
	c0-0.15-0.01-0.3-0.02-0.45C28.56,62.28,28.53,61.89,28.59,61.73z M22.57,68.3h1.54l-0.04-0.36c-0.13-1.13,0-1.93,0.38-2.4
	c0.21-0.25,0.49-0.41,0.87-0.48c0.11,1.6,0.09,3.36,0.07,5.06c-0.01,1.02-0.02,2.06-0.01,3.08c-0.39-0.02-0.69-0.14-0.9-0.36
	c-0.39-0.4-0.52-1.18-0.41-2.38l0.02-0.19l-0.16-0.11c-0.2-0.13-0.45-0.17-0.71-0.17c-0.13,0-0.26,0.01-0.39,0.01
	c-0.09,0-0.18,0.01-0.26,0.01V68.3z M21.96,74.77l0.23-0.07v-4.05l0.01,0c0.21,0.03,0.44,0.01,0.67,0c0.17-0.01,0.38-0.02,0.53-0.01
	c-0.09,1.28,0.11,2.12,0.61,2.64c0.36,0.38,0.87,0.56,1.53,0.56c0.06,0,0.13,0,0.19-0.01l0.04,0c0,0.21,0,0.41-0.01,0.6l-0.02,0.33
	l0.33,0.02c0.71,0.04,1.46,0.07,2.22,0.08l0.01,0.17c0.04,0.78-0.36,1.01-1.08,1.35c-0.15,0.07-0.3,0.14-0.45,0.23
	c-0.32,0.19-0.28,0.58-0.25,0.88c0.01,0.06,0.01,0.14,0.01,0.21h-3.62c0.01-0.19-0.01-0.36-0.03-0.52
	c-0.02-0.14-0.04-0.29-0.04-0.47l0-0.33l-0.33,0.01c-0.82,0.01-1.23-0.37-1.46-1.43l-0.01-0.04C21.38,74.89,21.69,74.85,21.96,74.77
	z M16.94,59.41c0.22-0.05,0.52-0.04,0.82-0.03c0.19,0,0.38,0.01,0.55,0l0.16-0.01l0.09-0.13c0.19-0.27,0.17-0.64,0.16-1.01
	c-0.01-0.14-0.01-0.32,0-0.45h1.78v1.53l0.26,0.06c0.18,0.04,0.44,0.03,0.85,0.01c0.22-0.01,0.46-0.02,0.68-0.02
	c0.01,0.13,0.01,0.31,0,0.43c0,0.05,0,0.1-0.01,0.14h-5.35C16.91,59.79,16.91,59.55,16.94,59.41z M36.85,77.07v1.23l0.27,0.04
	c0.65,0.1,1.3,0.04,1.93-0.02c0.63-0.06,1.23-0.12,1.7,0.01c0.3,0.08,0.47,0.3,0.67,0.56c0.01,0.01,0.02,0.02,0.03,0.03
	c-5.33,0.12-10.88,0.1-16.25,0.08C23.16,79.01,21.08,79,19,79c-1.29,0-2.57,0-3.85,0.01c0.12-0.12,0.27-0.24,0.37-0.32
	c0.14-0.12,0.27-0.23,0.38-0.34h0.79l0.08-0.04c0.32-0.19,0.28-0.58,0.25-0.88c-0.01-0.08-0.02-0.21-0.01-0.28
	c0.07-0.03,0.15-0.07,0.22-0.1c0.66-0.3,1.46-0.67,1.57-1.71h1.68c0.2,0.74,0.61,1.57,1.73,1.68c0.01,0.08,0.02,0.16,0.03,0.23
	c0.03,0.26,0.05,0.43-0.03,0.67l-0.14,0.43h4.76l0.08-0.04c0.32-0.19,0.28-0.58,0.25-0.88c-0.01-0.08-0.02-0.21-0.01-0.28
	c0.11-0.06,0.23-0.12,0.35-0.17c0.61-0.29,1.36-0.65,1.44-1.63h6.15C35.25,76.26,35.83,76.84,36.85,77.07z M40.93,74.38l-0.12,0.09
	l-0.01,0.15c-0.02,0.16-0.01,0.34,0,0.5c0.01,0.12,0.01,0.3,0,0.42h-2.08c-0.14-4.08-0.14-8.7,0-12.78h2.07
	c0.02,0.17,0.02,0.39,0.02,0.61l0,0.36l0.13,0.1c0.93,0.71,1.58,2.42,1.74,4.44v1.87C42.5,72.11,41.86,73.7,40.93,74.38z"/>
<g>
	<g>
		<path d="M49.2,49.2H-0.15l0.04-1.04C0.83,22.04,22.04,0.83,48.16-0.11l1.04-0.04V49.2z M1.94,47.2H47.2V1.94
			C22.94,3.34,3.34,22.94,1.94,47.2z"/>
	</g>
	<g>
		<path d="M49.2,100.15l-1.04-0.04C22.04,99.17,0.83,77.96-0.11,51.84l-0.04-1.04H49.2V100.15z M1.94,52.8
			c1.4,24.26,21,43.86,45.26,45.26V52.8H1.94z"/>
	</g>
	<g>
		<path d="M50.8,100.15V50.8h49.35l-0.04,1.04c-0.94,26.13-22.14,47.33-48.27,48.27L50.8,100.15z M52.8,52.8v45.26
			c24.26-1.4,43.86-21,45.26-45.26H52.8z"/>
	</g>
	<g>
		<path d="M100.15,49.2H50.8V-0.15l1.04,0.04c26.13,0.94,47.33,22.15,48.27,48.27L100.15,49.2z M52.8,47.2h45.26
			c-1.4-24.26-21-43.86-45.26-45.26V47.2z"/>
	</g>
</g>
</svg>
