<?xml version="1.0" encoding="utf-8"?>
<!-- Generator: Adobe Illustrator 25.0.0, SVG Export Plug-In . SVG Version: 6.00 Build 0)  -->
<svg version="1.1" id="Layer_1" xmlns="http://www.w3.org/2000/svg" xmlns:xlink="http://www.w3.org/1999/xlink" x="0px" y="0px"
	 viewBox="0 0 100 100" style="enable-background:new 0 0 100 100;" xml:space="preserve">
<style type="text/css">
	.st0{fill-rule:evenodd;clip-rule:evenodd;fill:#40875E;}
	.st1{fill-rule:evenodd;clip-rule:evenodd;fill:#A8A240;}
	.st2{fill:none;}
	.st3{fill:#F0AB00;}
	.st4{fill:#A8A240;}
	.st5{fill:#40875E;}
	.st6{fill-rule:evenodd;clip-rule:evenodd;fill:#F0AB00;}
	.st7{fill-rule:evenodd;clip-rule:evenodd;fill:#0B4A99;}
	.st8{fill:none;stroke:#F0AB00;stroke-miterlimit:10;}
	.st9{fill:#A8A240;stroke:#F0AB00;stroke-width:2;stroke-miterlimit:10;}
	.st10{fill:#F0AB00;stroke:#A8A240;stroke-width:3;stroke-miterlimit:10;}
	.st11{fill:#3E865F;}
	.st12{fill:#EFAA03;}
	.st13{fill:#A6A13E;}
	.st14{fill:#0B4A99;}
	.st15{fill:#F5B026;}
	.st16{fill:#FFCD2E;}
	.st17{fill:#D4D2D2;}
	.st18{fill:#E3E4E3;}
	.st19{fill:#FBD97C;}
	.st20{fill:#57BEC5;}
	.st21{fill:#469BA3;}
	.st22{fill:#CB151A;}
	.st23{fill:url(#SVGID_1_);}
	.st24{fill:url(#SVGID_2_);}
	.st25{fill:url(#SVGID_3_);}
	.st26{fill:#CFCFCE;}
	.st27{fill:#D4D3D3;}
	.st28{fill:#E4E5E3;}
	.st29{fill:#A2BAD0;}
	.st30{fill:#4B708F;}
	.st31{fill:#8AA4BE;}
	.st32{fill:#CCCACA;}
	.st33{opacity:0.59;fill:#3E865F;}
	.st34{opacity:0.6;}
	.st35{fill:#3F5B7A;}
	.st36{opacity:0.2;}
	.st37{fill:#516D8C;}
	.st38{fill-rule:evenodd;clip-rule:evenodd;fill:#CC8E05;}
	.st39{fill:url(#SVGID_4_);}
	.st40{fill:none;stroke:#40875E;stroke-width:2;stroke-miterlimit:10;}
	.st41{fill:url(#SVGID_5_);}
	.st42{fill:url(#SVGID_6_);}
	.st43{fill:url(#SVGID_7_);}
	.st44{opacity:0.44;fill:#40875E;}
</style>
<path class="st6" d="M18.26,22.93c0,0,4.61-4.26,8.86-2.48c0,0,3.08,3.66,8.16,0.17c0,0,5.2-4.85-7.8-5.68
	c0,0-12.59-1.06-12.94,7.98H18.26z"/>
<path class="st6" d="M39.84,28.07c0,0,4.61-3.54,8.86-2.07c0,0,3.07,3.05,8.16,0.15c0,0,5.2-4.03-7.8-4.71
	c0,0-12.59-0.88-12.94,6.63H39.84z"/>
<path class="st0" d="M-0.17,55.07h13.24V25.53h6.38v28.36h14.89V30.25h6.15v26.71h11.58v3.31h4.73V44.43h4.25v40.66H-0.17V55.07z
	 M38.48,62.16H0.66V65h37.82V62.16z M57.27,62.16H44.63V65h12.65V62.16z M22.52,68.66h-8.51v6.03h8.51V68.66z M38.01,68.66h-6.15
	v6.03h6.15V68.66z M48.65,68.66h-4.02v6.03h4.02V68.66z M57.04,68.66h-4.02v6.03h4.02V68.66z"/>
<rect x="74.29" y="44.32" class="st0" width="4.02" height="40.76"/>
<path class="st1" d="M91.34,25.52v56.72H82.8v-64.7h4.97L91.34,25.52z M88.36,15.24h-7.07v69.84h11.43V24.05L88.36,15.24z"/>
<rect x="60.35" y="47.15" class="st0" width="15.25" height="2.13"/>
<rect x="60.35" y="64.17" class="st0" width="15.25" height="2.13"/>
<rect x="60.35" y="82.96" class="st0" width="15.25" height="2.13"/>
<path class="st1" d="M100,33.38v5.05H55.23v2.75H45.3v-3.72l7.44-7.18h44.68L100,33.38z M96.36,31.05H53.61l-7.13,6.34v2.56h6.67
	v-3.34h44.9v-3.12L96.36,31.05z"/>
<polygon class="st1" points="81.74,21.51 56.68,30.49 60.73,30.49 81.74,22.22 "/>
<polygon class="st1" points="92.73,24.08 100,33.44 97.4,30.31 91.95,24.07 "/>
<rect x="50.53" y="40.65" class="st1" width="1.95" height="10.29"/>
<rect x="49.2" y="50.76" class="st1" width="4.52" height="6.2"/>
<polygon class="st1" points="62.91,37.97 63.46,37.63 59.41,31.12 58.17,30.51 "/>
<polygon class="st1" points="72.4,37.97 72.94,37.63 68.9,31.12 67.65,30.51 "/>
<polygon class="st1" points="62.97,37.97 62.42,37.63 66.47,31.12 67.72,30.51 "/>
<polygon class="st1" points="54.02,37.97 53.47,37.63 57.52,31.12 58.76,30.51 "/>
<polygon class="st1" points="72.37,37.97 71.82,37.63 75.87,31.12 77.11,30.51 "/>
<polygon class="st1" points="81.7,37.97 82.25,37.63 78.21,31.12 76.96,30.51 "/>
<polygon class="st1" points="81.68,37.97 81.13,37.63 85.18,31.12 86.42,30.51 "/>
<polygon class="st1" points="91.1,37.97 91.65,37.63 87.6,31.12 86.36,30.51 "/>
<polygon class="st1" points="91.08,37.97 90.52,37.63 94.57,31.12 95.82,30.51 "/>
<polygon class="st1" points="83.43,30.92 82.46,30.33 89.63,20.4 90.27,21.59 "/>
<polygon class="st1" points="89.43,82.49 82.89,73.89 89.31,66.18 82.83,56.26 89.37,47.03 83.26,37.91 85.2,37.91 91.31,47.03 
	84.77,56.26 91.25,66.18 84.83,73.89 91.37,82.49 "/>
</svg>
