<?xml version="1.0" encoding="utf-8"?>
<!-- Generator: Adobe Illustrator 25.0.0, SVG Export Plug-In . SVG Version: 6.00 Build 0)  -->
<svg version="1.1" id="Layer_1" xmlns="http://www.w3.org/2000/svg" xmlns:xlink="http://www.w3.org/1999/xlink" x="0px" y="0px"
	 viewBox="0 0 100 100" style="enable-background:new 0 0 100 100;" xml:space="preserve">
<style type="text/css">
	.st0{fill-rule:evenodd;clip-rule:evenodd;fill:#40875E;}
	.st1{fill-rule:evenodd;clip-rule:evenodd;fill:#A8A240;}
	.st2{fill:none;}
	.st3{fill:#F0AB00;}
	.st4{fill:#A8A240;}
	.st5{fill:#40875E;}
	.st6{fill-rule:evenodd;clip-rule:evenodd;fill:#F0AB00;}
	.st7{fill-rule:evenodd;clip-rule:evenodd;fill:#0B4A99;}
	.st8{fill:none;stroke:#F0AB00;stroke-miterlimit:10;}
	.st9{fill:#A8A240;stroke:#F0AB00;stroke-width:2;stroke-miterlimit:10;}
	.st10{fill:#F0AB00;stroke:#A8A240;stroke-width:3;stroke-miterlimit:10;}
	.st11{fill:#3E865F;}
	.st12{fill:#EFAA03;}
	.st13{fill:#A6A13E;}
	.st14{fill:#0B4A99;}
	.st15{fill:#F5B026;}
	.st16{fill:#FFCD2E;}
	.st17{fill:#D4D2D2;}
	.st18{fill:#E3E4E3;}
	.st19{fill:#FBD97C;}
	.st20{fill:#57BEC5;}
	.st21{fill:#469BA3;}
	.st22{fill:#CB151A;}
	.st23{fill:url(#SVGID_1_);}
	.st24{fill:url(#SVGID_2_);}
	.st25{fill:url(#SVGID_3_);}
	.st26{fill:#CFCFCE;}
	.st27{fill:#D4D3D3;}
	.st28{fill:#E4E5E3;}
	.st29{fill:#A2BAD0;}
	.st30{fill:#4B708F;}
	.st31{fill:#8AA4BE;}
	.st32{fill:#CCCACA;}
	.st33{opacity:0.59;fill:#3E865F;}
	.st34{opacity:0.6;}
	.st35{fill:#3F5B7A;}
	.st36{opacity:0.2;}
	.st37{fill:#516D8C;}
	.st38{fill-rule:evenodd;clip-rule:evenodd;fill:#CC8E05;}
	.st39{fill:url(#SVGID_4_);}
	.st40{fill:none;stroke:#40875E;stroke-width:2;stroke-miterlimit:10;}
	.st41{fill:url(#SVGID_5_);}
	.st42{fill:url(#SVGID_6_);}
	.st43{fill:url(#SVGID_7_);}
	.st44{opacity:0.44;fill:#40875E;}
</style>
<path class="st5" d="M89.83,57.94c0,20.86-16.92,37.78-37.78,37.78c-20.87,0-37.79-16.92-37.79-37.78
	c0-20.87,16.92-37.78,37.79-37.78C72.91,20.15,89.83,37.07,89.83,57.94z M52.04,16.35c-22.97,0-41.58,18.62-41.58,41.58
	c0,22.97,18.62,41.58,41.58,41.58c22.96,0,41.58-18.62,41.58-41.58C93.62,34.97,75,16.35,52.04,16.35z"/>
<path class="st3" d="M23.25,6.46c0,0-0.13-1.03,0.19-2.03c0,0-1.71,1.82-1.27,4.27c0,0,0.55,3.35,3.93,4.46c0,0-1.88-1.37-2.03-2.66
	c0,0,0.17,0.16,0.52,0.3c0,0,0.55,0.29,1.31,0v-0.63c0,0-0.57-0.9-0.53-1.85V6.99c0,0,0.07-0.7,0.21-0.71c0,0,0.2-0.13,0.2,0.33
	c0,0,0.08,1.17,0.26,1.44c0,0,0.15,0.13,0.15-0.3V7.17c0,0,0.1-0.32,0.32-0.59c0,0,0.87-1.01,0.95-1.68V3.85
	c0,0,0.16-0.58,0.45,0.04v1.41c0,0-0.04,1.31-0.26,1.86c0,0-0.22,0.29-0.18,0.55v1.29c0,0,0.14,0.97,1.13,1.11
	c0,0,1.09,0.18,1.72-0.93h0.65v0.99c0,0,0.08,1.32-1.77,2.62l-0.39,0.29c0,0,5.81-1.99,1.8-8.21v1.79c0,0-1.21,2.11-1.43,0.42v-0.9
	l0.27-0.42c0,0,1.63-4.01-4.38-5.28c0,0,1.11,0.53,1.32,1.32v1.53l-1.11-1.06v1.21c-0.08,1.37-1.32,3.01-1.32,3.01
	s-0.26,0.37-0.59,0.43C23.38,6.92,23.3,6.76,23.25,6.46z"/>
<path class="st3" d="M37.68,30.2c0,0,0.11-0.75-0.15-1.48c0,0,1.4,1.32,1.04,3.11c0,0-0.46,2.43-3.22,3.24c0,0,1.54-1,1.66-1.94
	c0,0-0.14,0.12-0.42,0.22c0,0-0.45,0.21-1.07,0v-0.46c0,0,0.47-0.65,0.43-1.34v-0.97c0,0-0.05-0.51-0.17-0.52
	c0,0-0.16-0.1-0.16,0.24c0,0-0.06,0.85-0.22,1.04c0,0-0.12,0.1-0.12-0.22v-0.41c0,0-0.08-0.23-0.26-0.43c0,0-0.72-0.73-0.78-1.23
	V28.3c0,0-0.13-0.42-0.37,0.03v1.02c0,0,0.03,0.95,0.21,1.35c0,0,0.18,0.22,0.15,0.4v0.93c0,0-0.11,0.71-0.92,0.81
	c0,0-0.89,0.13-1.41-0.68h-0.53v0.72c0,0-0.06,0.96,1.45,1.9L33.12,35c0,0-4.76-1.45-1.48-5.97v1.3c0,0,1,1.54,1.17,0.31v-0.65
	l-0.22-0.31c0,0-1.34-2.91,3.59-3.84c0,0-0.91,0.38-1.08,0.96v1.12l0.91-0.77v0.88c0.06,1,1.08,2.19,1.08,2.19s0.22,0.27,0.49,0.32
	C37.58,30.53,37.65,30.42,37.68,30.2z"/>
<rect x="23.86" y="14.03" class="st4" width="6.12" height="55.09"/>
<rect x="30.93" y="35.67" class="st4" width="6.12" height="33.46"/>
<path class="st5" d="M14.68,68.59H39.8v25.75C39.8,94.35,22.17,90.76,14.68,68.59z"/>
<path class="st5" d="M47.71,96.35V61.37h-7.81c0,0-1.45,0.21-1.45-1.45V44.51c0,0-0.24-1.72,1.58-1.58h8.87v-0.58
	c0,0-0.06-0.5,0.53-0.53h2.06v-5.14c0,0,0.74-5.36,7.07-6.25v-7.15c0,0,0.92-1.37,2.06-0.08v7.28c0,0,5.51,1.5,6.2,6.52V96.3H51.36
	V46.96H49.4c0,0-0.44-0.05-0.44-0.55v-1.48h-8.59v14.69h9.87V96.4L47.71,96.35z"/>
<path class="st5" d="M75.22,3.53v15c0,0-5.38,1.23-5.38,6.41v67.87c0,0,11.36-3.6,15.51-16.78v-50.9c0,0,0.48-4.79-5.23-6.37v-7.28
	c0,0-0.99-1.5-2.02,0.04v6.76h-0.79V3.49C77.32,3.49,76.21,2.14,75.22,3.53z"/>
<path class="st3" d="M69.9,38.87c-1.21,0-2.2-0.91-2.2-2.04l0,0c0-1.13,0.98-2.04,2.2-2.04V38.87z"/>
<path class="st3" d="M69.9,51.85c-1.21,0-2.2-0.91-2.2-2.04l0,0c0-1.13,0.98-2.04,2.2-2.04V51.85z"/>
<path class="st3" d="M69.9,65.15c-1.21,0-2.2-0.91-2.2-2.04l0,0c0-1.13,0.98-2.04,2.2-2.04V65.15z"/>
<path class="st3" d="M85.11,51.85c1.21,0,2.2-0.91,2.2-2.04l0,0c0-1.13-0.98-2.04-2.2-2.04V51.85z"/>
<path class="st3" d="M85.11,65.15c1.21,0,2.2-0.91,2.2-2.04l0,0c0-1.13-0.98-2.04-2.2-2.04V65.15z"/>
<path class="st3" d="M69.9,79.4c-1.21,0-2.2-0.91-2.2-2.04l0,0c0-1.13,0.98-2.04,2.2-2.04V79.4z"/>
</svg>
