<?xml version="1.0" encoding="utf-8"?>
<!-- Generator: Adobe Illustrator 25.0.0, SVG Export Plug-In . SVG Version: 6.00 Build 0)  -->
<svg version="1.1" id="Layer_1" xmlns="http://www.w3.org/2000/svg" xmlns:xlink="http://www.w3.org/1999/xlink" x="0px" y="0px"
	 viewBox="0 0 100 100" style="enable-background:new 0 0 100 100;" xml:space="preserve">
<style type="text/css">
	.st0{fill-rule:evenodd;clip-rule:evenodd;fill:#40875E;}
	.st1{fill-rule:evenodd;clip-rule:evenodd;fill:#A8A240;}
	.st2{fill:none;}
	.st3{fill:#F0AB00;}
	.st4{fill:#A8A240;}
	.st5{fill:#40875E;}
	.st6{fill-rule:evenodd;clip-rule:evenodd;fill:#F0AB00;}
	.st7{fill-rule:evenodd;clip-rule:evenodd;fill:#0B4A99;}
	.st8{fill:none;stroke:#F0AB00;stroke-miterlimit:10;}
	.st9{fill:#A8A240;stroke:#F0AB00;stroke-width:2;stroke-miterlimit:10;}
	.st10{fill:#F0AB00;stroke:#A8A240;stroke-width:3;stroke-miterlimit:10;}
	.st11{fill:#3E865F;}
	.st12{fill:#EFAA03;}
	.st13{fill:#A6A13E;}
	.st14{fill:#0B4A99;}
	.st15{fill:#F5B026;}
	.st16{fill:#FFCD2E;}
	.st17{fill:#D4D2D2;}
	.st18{fill:#E3E4E3;}
	.st19{fill:#FBD97C;}
	.st20{fill:#57BEC5;}
	.st21{fill:#469BA3;}
	.st22{fill:#CB151A;}
	.st23{fill:url(#SVGID_1_);}
	.st24{fill:url(#SVGID_2_);}
	.st25{fill:url(#SVGID_3_);}
	.st26{fill:#CFCFCE;}
	.st27{fill:#D4D3D3;}
	.st28{fill:#E4E5E3;}
	.st29{fill:#A2BAD0;}
	.st30{fill:#4B708F;}
	.st31{fill:#8AA4BE;}
	.st32{fill:#CCCACA;}
	.st33{opacity:0.59;fill:#3E865F;}
	.st34{opacity:0.6;}
	.st35{fill:#3F5B7A;}
	.st36{opacity:0.2;}
	.st37{fill:#516D8C;}
	.st38{fill-rule:evenodd;clip-rule:evenodd;fill:#CC8E05;}
	.st39{fill:url(#SVGID_4_);}
	.st40{fill:none;stroke:#40875E;stroke-width:2;stroke-miterlimit:10;}
	.st41{fill:url(#SVGID_5_);}
	.st42{fill:url(#SVGID_6_);}
	.st43{fill:url(#SVGID_7_);}
	.st44{opacity:0.44;fill:#40875E;}
</style>
<polygon class="st0" points="98,55.54 98,75.3 55.74,97.25 0.97,69.52 0.97,44.36 36.52,56.08 50.89,66.08 79.02,61.47 91.2,56.86 
	"/>
<polygon class="st1" points="39.82,58.92 55.5,77.88 99.41,54.91 82.53,38.03 79.84,39.36 45.45,21.63 0.97,44.37 39.82,65.17 "/>
<path class="st6" d="M28.94,16.39v31.64c-1.46,1.61-4.09,1.53-4.09,1.53c-3.18-0.18-4.04-1.53-4.04-1.53V16.39
	C20.81,16.39,25.11,14.52,28.94,16.39z"/>
<path class="st6" d="M41.44,9.52v31.64c-1.46,1.61-4.09,1.54-4.09,1.54c-3.18-0.18-4.04-1.54-4.04-1.54V9.52
	C33.31,9.52,37.61,7.64,41.44,9.52z"/>
<path class="st6" d="M53.63,3.58v31.64c-1.46,1.62-4.09,1.54-4.09,1.54c-3.18-0.18-4.04-1.54-4.04-1.54V3.58
	C45.5,3.58,49.8,1.7,53.63,3.58z"/>
</svg>
