<?xml version="1.0" encoding="utf-8"?>
<!-- Generator: Adobe Illustrator 25.0.0, SVG Export Plug-In . SVG Version: 6.00 Build 0)  -->
<svg version="1.1" id="Layer_1" xmlns="http://www.w3.org/2000/svg" xmlns:xlink="http://www.w3.org/1999/xlink" x="0px" y="0px"
	 viewBox="0 0 114.87 100" style="enable-background:new 0 0 114.87 100;" xml:space="preserve">
<style type="text/css">
	.st0{fill-rule:evenodd;clip-rule:evenodd;fill:#40875E;}
	.st1{fill-rule:evenodd;clip-rule:evenodd;fill:#A8A240;}
	.st2{fill:none;}
	.st3{fill:#F0AB00;}
	.st4{fill:#A8A240;}
	.st5{fill:#40875E;}
	.st6{fill-rule:evenodd;clip-rule:evenodd;fill:#F0AB00;}
	.st7{fill-rule:evenodd;clip-rule:evenodd;fill:#0B4A99;}
	.st8{fill:none;stroke:#F0AB00;stroke-miterlimit:10;}
	.st9{fill:#A8A240;stroke:#F0AB00;stroke-width:2;stroke-miterlimit:10;}
	.st10{fill:#F0AB00;stroke:#A8A240;stroke-width:3;stroke-miterlimit:10;}
	.st11{fill:#3E865F;}
	.st12{fill:#EFAA03;}
	.st13{fill:#A6A13E;}
	.st14{fill:#0B4A99;}
	.st15{fill:#F5B026;}
	.st16{fill:#FFCD2E;}
	.st17{fill:#D4D2D2;}
	.st18{fill:#E3E4E3;}
	.st19{fill:#FBD97C;}
	.st20{fill:#57BEC5;}
	.st21{fill:#469BA3;}
	.st22{fill:#CB151A;}
	.st23{fill:url(#SVGID_1_);}
	.st24{fill:url(#SVGID_2_);}
	.st25{fill:url(#SVGID_3_);}
	.st26{fill:#CFCFCE;}
	.st27{fill:#D4D3D3;}
	.st28{fill:#E4E5E3;}
	.st29{fill:#A2BAD0;}
	.st30{fill:#4B708F;}
	.st31{fill:#8AA4BE;}
	.st32{fill:#CCCACA;}
	.st33{opacity:0.59;fill:#3E865F;}
	.st34{opacity:0.6;}
	.st35{fill:#3F5B7A;}
	.st36{opacity:0.2;}
	.st37{fill:#516D8C;}
	.st38{fill-rule:evenodd;clip-rule:evenodd;fill:#CC8E05;}
	.st39{fill:url(#SVGID_4_);}
	.st40{fill:none;stroke:#40875E;stroke-width:2;stroke-miterlimit:10;}
	.st41{fill:url(#SVGID_5_);}
	.st42{fill:url(#SVGID_6_);}
	.st43{fill:url(#SVGID_7_);}
	.st44{opacity:0.44;fill:#40875E;}
</style>
<path class="st4" d="M34.26,70.2l-9.07-23.65v-9.92h0.9c0.4,0,0.72-0.37,0.72-0.83v-1.67c0-0.46-0.32-0.83-0.72-0.83H15.15
	c-0.4,0-0.72,0.37-0.72,0.83v1.67c0,0.45,0.32,0.83,0.72,0.83h0.82v9.92L7.61,70.12c-2.13,3.85-0.65,6.97,3.32,6.97h20.12
	C35.02,77.08,36.46,74,34.26,70.2L34.26,70.2z M18.54,48.02l0.3-0.69V36.64h3.48v10.75l0.34,0.73L28,61.19l-12.28-5.14L18.54,48.02z
	 M18.54,48.02"/>
<path class="st0" d="M45.17,76.66V17.73c-0.85,0-1.54-0.54-1.54-1.21l0,0c0-0.67,0.69-1.21,1.54-1.21h9.12
	c0.85,0,1.54,0.54,1.54,1.21l0,0c0,0.67-0.69,1.21-1.54,1.21v58.93H45.17z M53.46,22.98c0-0.55-0.44-0.99-0.98-0.99H47.2
	c-0.54,0-0.99,0.44-0.99,0.99v4.36c0,0.55,0.44,0.99,0.99,0.99h5.27c0.54,0,0.98-0.45,0.98-0.99V22.98z M53.46,33.52
	c0-0.54-0.44-0.99-0.98-0.99H47.2c-0.54,0-0.99,0.45-0.99,0.99v4.37c0,0.55,0.44,0.98,0.99,0.98h5.27c0.54,0,0.98-0.44,0.98-0.98
	V33.52z M53.46,43.74c0-0.55-0.44-0.98-0.98-0.98H47.2c-0.54,0-0.99,0.43-0.99,0.98v4.36c0,0.55,0.44,0.99,0.99,0.99h5.27
	c0.54,0,0.98-0.45,0.98-0.99V43.74z M53.46,53.95c0-0.55-0.44-0.99-0.98-0.99H47.2c-0.54,0-0.99,0.44-0.99,0.99v4.36
	c0,0.54,0.44,0.98,0.99,0.98h5.27c0.54,0,0.98-0.44,0.98-0.98V53.95z M53.46,64.5c0-0.54-0.44-0.99-0.98-0.99H47.2
	c-0.54,0-0.99,0.44-0.99,0.99v4.37c0,0.55,0.44,0.99,0.99,0.99h5.27c0.54,0,0.98-0.44,0.98-0.99V64.5z M48.32,74.13h-2.06v1.73h2.06
	V74.13z M53.3,74.13h-4.08v1.73h4.08V74.13z"/>
<path class="st0" d="M71.84,76.68V32.2c-0.65,0-1.17-0.41-1.17-0.92l0,0c0-0.51,0.52-0.93,1.17-0.93h6.96
	c0.65,0,1.18,0.41,1.18,0.93l0,0c0,0.51-0.53,0.92-1.18,0.92v44.48H71.84z"/>
<rect x="44.65" y="49.3" class="st6" width="1.23" height="1.81"/>
<rect x="40.78" y="49.87" class="st6" width="4.61" height="0.66"/>
<rect x="40.78" y="50" class="st6" width="0.66" height="7.79"/>
<rect x="36.46" y="73.39" class="st6" width="0.66" height="2.96"/>
<rect x="83.91" y="73.39" class="st6" width="0.66" height="2.96"/>
<rect x="107.41" y="73.39" class="st6" width="0.66" height="2.96"/>
<path class="st0" d="M42.67,58.24v18.41h-3.13V58.24C39.54,58.24,41.03,55.84,42.67,58.24z"/>
<rect x="53.92" y="18.33" class="st6" width="3.63" height="0.52"/>
<rect x="53.92" y="28.88" class="st6" width="3.63" height="0.52"/>
<rect x="53.92" y="39.42" class="st6" width="3.63" height="0.52"/>
<rect x="53.92" y="49.97" class="st6" width="3.63" height="0.52"/>
<rect x="53.92" y="60.51" class="st6" width="3.63" height="0.51"/>
<rect x="36.46" y="73.36" class="st6" width="71.61" height="0.51"/>
<rect x="36.46" y="76.02" class="st6" width="71.61" height="0.67"/>
<rect x="56.81" y="18.51" class="st6" width="0.74" height="58.16"/>
<rect x="102.03" y="18.33" class="st7" width="3.63" height="0.52"/>
<rect x="102.03" y="28.88" class="st6" width="3.63" height="0.52"/>
<rect x="102.03" y="39.42" class="st6" width="3.63" height="0.52"/>
<rect x="102.03" y="49.97" class="st6" width="3.63" height="0.52"/>
<rect x="102.03" y="60.51" class="st6" width="3.63" height="0.51"/>
<rect x="102.03" y="71.05" class="st6" width="3.63" height="0.52"/>
<rect x="104.92" y="18.51" class="st6" width="0.75" height="58.16"/>
<rect x="54.02" y="45.96" class="st6" width="42.89" height="1.15"/>
<rect x="56.32" y="45.53" class="st6" width="1.7" height="1.92"/>
<rect x="56.32" y="57.06" class="st6" width="1.7" height="1.92"/>
<rect x="53.79" y="57.06" class="st6" width="1.7" height="2.36"/>
<rect x="56.32" y="69.25" class="st6" width="1.7" height="2.47"/>
<rect x="60.66" y="69.25" class="st6" width="2.25" height="2.47"/>
<rect x="66.37" y="69.25" class="st6" width="3.35" height="2.47"/>
<rect x="53.96" y="69.52" class="st6" width="48.44" height="2.03"/>
<rect x="55.06" y="57.77" class="st6" width="7.42" height="0.94"/>
<rect x="61.38" y="58.04" class="st6" width="1.1" height="18.62"/>
<path class="st6" d="M74.64,19.02c0,0,2.31,3.27,1.46,5.3c-0.85,2.02-2.99,2.72,0.35,5.25c0,0-0.33-3.32,1.07-5.28
	C78.41,23.06,77.21,19.99,74.64,19.02z"/>
<path class="st7" d="M88.52,33.84c0,0,1.52,2.15,0.96,3.48c-0.55,1.32-1.97,1.79,0.23,3.45c0,0-0.22-2.18,0.71-3.46
	C91.01,36.49,90.22,34.48,88.52,33.84z"/>
<path class="st6" d="M88.52,33.84c0,0,1.52,2.15,0.96,3.48c-0.55,1.32-1.97,1.79,0.23,3.45c0,0-0.22-2.18,0.71-3.46
	C91.01,36.49,90.22,34.48,88.52,33.84z"/>
<path class="st6" d="M82.63,39.32H68.02v-3.85h14.61V39.32z M70.02,36.68h-1.36v1.87h1.36V36.68z M71.61,36.68h-0.97v1.87h0.97
	V36.68z M80.47,38.55h1.37v-1.87h-1.37V38.55z M78.87,38.55h0.98v-1.87h-0.98V38.55z"/>
<path class="st6" d="M80.16,43.24c0,0.53-0.43,0.96-0.96,0.96h-7.52c-0.53,0-0.96-0.43-0.96-0.96l0,0c0-0.53,0.43-0.96,0.96-0.96
	h7.52C79.73,42.28,80.16,42.71,80.16,43.24L80.16,43.24z"/>
<path class="st6" d="M80.16,55.1c0,0.53-0.43,0.96-0.96,0.96h-7.52c-0.53,0-0.96-0.43-0.96-0.96l0,0c0-0.53,0.43-0.96,0.96-0.96
	h7.52C79.73,54.14,80.16,54.57,80.16,55.1L80.16,55.1z"/>
<path class="st6" d="M80.16,66.97c0,0.53-0.43,0.96-0.96,0.96h-7.52c-0.53,0-0.96-0.43-0.96-0.96l0,0c0-0.53,0.43-0.96,0.96-0.96
	h7.52C79.73,66.01,80.16,66.43,80.16,66.97L80.16,66.97z"/>
<path class="st0" d="M85.96,76.66V42.79c-0.5,0-0.9-0.31-0.9-0.7l0,0c0-0.39,0.4-0.7,0.9-0.7h5.3c0.5,0,0.9,0.31,0.9,0.7l0,0
	c0,0.39-0.4,0.7-0.9,0.7v33.87H85.96z"/>
<path class="st6" d="M92.29,51.2c0,0.4-0.33,0.73-0.73,0.73h-5.73c-0.41,0-0.73-0.33-0.73-0.73l0,0c0-0.4,0.33-0.73,0.73-0.73h5.73
	C91.96,50.47,92.29,50.8,92.29,51.2L92.29,51.2z"/>
<path class="st6" d="M92.29,60.23c0,0.41-0.33,0.73-0.73,0.73h-5.73c-0.41,0-0.73-0.33-0.73-0.73l0,0c0-0.4,0.33-0.73,0.73-0.73
	h5.73C91.96,59.5,92.29,59.83,92.29,60.23L92.29,60.23z"/>
<path class="st6" d="M92.29,69.26c0,0.41-0.33,0.73-0.73,0.73h-5.73c-0.41,0-0.73-0.32-0.73-0.73l0,0c0-0.4,0.33-0.73,0.73-0.73
	h5.73C91.96,68.53,92.29,68.86,92.29,69.26L92.29,69.26z"/>
<path class="st0" d="M96.17,76.66V15.11c-0.49,0-0.89-0.32-0.89-0.7l0,0c0-0.39,0.4-0.7,0.89-0.7h6.63c0.49,0,0.89,0.31,0.89,0.7
	l0,0c0,0.38-0.4,0.7-0.89,0.7v61.54H96.17z"/>
<rect x="57.17" y="51.81" class="st6" width="10.63" height="0.85"/>
<rect x="71.34" y="49.3" class="st6" width="1.24" height="1.81"/>
<rect x="67.47" y="49.87" class="st6" width="4.61" height="0.66"/>
<rect x="67.47" y="50" class="st6" width="0.66" height="7.79"/>
<path class="st0" d="M69.36,58.24v18.41h-3.13V58.24C66.24,58.24,67.72,55.84,69.36,58.24z"/>
<rect x="0.91" y="79.57" class="st0" width="112.9" height="3.51"/>
</svg>
