<?xml version="1.0" encoding="utf-8"?>
<!-- Generator: Adobe Illustrator 25.0.0, SVG Export Plug-In . SVG Version: 6.00 Build 0)  -->
<svg version="1.1" id="Layer_1" xmlns="http://www.w3.org/2000/svg" xmlns:xlink="http://www.w3.org/1999/xlink" x="0px" y="0px"
	 viewBox="0 0 100 100" style="enable-background:new 0 0 100 100;" xml:space="preserve">
<style type="text/css">
	.st0{fill-rule:evenodd;clip-rule:evenodd;fill:#40875E;}
	.st1{fill-rule:evenodd;clip-rule:evenodd;fill:#A8A240;}
	.st2{fill:none;}
	.st3{fill:#F0AB00;}
	.st4{fill:#A8A240;}
	.st5{fill:#40875E;}
	.st6{fill-rule:evenodd;clip-rule:evenodd;fill:#F0AB00;}
	.st7{fill-rule:evenodd;clip-rule:evenodd;fill:#0B4A99;}
	.st8{fill:none;stroke:#F0AB00;stroke-miterlimit:10;}
	.st9{fill:#A8A240;stroke:#F0AB00;stroke-width:2;stroke-miterlimit:10;}
	.st10{fill:#F0AB00;stroke:#A8A240;stroke-width:3;stroke-miterlimit:10;}
	.st11{fill:#3E865F;}
	.st12{fill:#EFAA03;}
	.st13{fill:#A6A13E;}
	.st14{fill:#0B4A99;}
	.st15{fill:#F5B026;}
	.st16{fill:#FFCD2E;}
	.st17{fill:#D4D2D2;}
	.st18{fill:#E3E4E3;}
	.st19{fill:#FBD97C;}
	.st20{fill:#57BEC5;}
	.st21{fill:#469BA3;}
	.st22{fill:#CB151A;}
	.st23{fill:url(#SVGID_1_);}
	.st24{fill:url(#SVGID_2_);}
	.st25{fill:url(#SVGID_3_);}
	.st26{fill:#CFCFCE;}
	.st27{fill:#D4D3D3;}
	.st28{fill:#E4E5E3;}
	.st29{fill:#A2BAD0;}
	.st30{fill:#4B708F;}
	.st31{fill:#8AA4BE;}
	.st32{fill:#CCCACA;}
	.st33{opacity:0.59;fill:#3E865F;}
	.st34{opacity:0.6;}
	.st35{fill:#3F5B7A;}
	.st36{opacity:0.2;}
	.st37{fill:#516D8C;}
	.st38{fill-rule:evenodd;clip-rule:evenodd;fill:#CC8E05;}
	.st39{fill:url(#SVGID_4_);}
	.st40{fill:none;stroke:#40875E;stroke-width:2;stroke-miterlimit:10;}
	.st41{fill:url(#SVGID_5_);}
	.st42{fill:url(#SVGID_6_);}
	.st43{fill:url(#SVGID_7_);}
	.st44{opacity:0.44;fill:#40875E;}
</style>
<path class="st0" d="M90.97,89.27c0,1.82-1.48,3.29-3.29,3.29h-5.76c-1.82,0-3.29-1.47-3.29-3.29v-27.7c0-1.82,1.47-3.29,3.29-3.29
	h5.76c1.82,0,3.29,1.47,3.29,3.29V89.27z"/>
<path class="st0" d="M76.15,89.27c0,1.82,2.64,3.29,0.82,3.29h-3.29c-1.82,0-3.29-1.47-3.29-3.29v-27.7c0-1.82,1.48-3.29,3.29-3.29
	h3.29c1.82,0-0.82,1.47-0.82,3.29V89.27z"/>
<path class="st0" d="M68.2,89.27c0,1.82,2.64,3.29,0.83,3.29h-3.29c-1.82,0-3.29-1.47-3.29-3.29v-27.7c0-1.82,1.47-3.29,3.29-3.29
	h3.29c1.82,0-0.83,1.47-0.83,3.29V89.27z"/>
<path class="st0" d="M60.1,89.27c0,1.82,2.64,3.29,0.82,3.29h-3.29c-1.82,0-3.29-1.47-3.29-3.29v-27.7c0-1.82,1.47-3.29,3.29-3.29
	h3.29c1.82,0-0.82,1.47-0.82,3.29V89.27z"/>
<path class="st1" d="M91.37,97.05c0,0.93-0.75,1.68-1.68,1.68H15.57c-0.93,0-1.68-0.75-1.68-1.68l0,0c0-0.93,0.75-1.68,1.68-1.68
	H89.7C90.62,95.38,91.37,96.13,91.37,97.05L91.37,97.05z"/>
<rect x="13.88" y="81.73" class="st0" width="37.92" height="11.52"/>
<rect x="13.88" y="71.12" class="st0" width="15.63" height="9.33"/>
<rect x="20.12" y="21.11" class="st1" width="3.15" height="27.09"/>
<polygon class="st0" points="27.88,69.32 15.53,69.32 19.65,49.56 23.76,49.56 "/>
<path class="st0" d="M49.51,77.06c0,1.87-1.51,3.39-3.39,3.39H35.27c-1.87,0-3.38-1.52-3.38-3.39v-8.25c0-1.87,1.51-3.38,3.38-3.38
	h10.86c1.87,0,3.39,1.51,3.39,3.38V77.06z"/>
<path class="st6" d="M31.44,16.92c0,0-5.73,3.32-9.05-0.07c0,0-2.16-2.47,0.48-4.32c0,0,1.24-1.06,4.9-0.99c0,0,1.75,0.03,2.64-1.58
	c0.34-0.61,6.31-8.07,14.4-9.15c0,0,11.65-1.85,15.57,5.28c0,0,5.07,9.26-7.89,11.86H35.95c0,0-1.67,0.06-2.52-1.17
	C33.43,16.78,31.82,16.53,31.44,16.92z"/>
<path class="st1" d="M41.97,64.05V54.3c0-2.73,2.21-4.94,4.94-4.94h32.3c2.72,0,4.94,2.21,4.94,4.94v2.4h1.95v-2.71
	c0-3.64-2.95-6.58-6.58-6.58H45.88c-3.64,0-6.58,2.95-6.58,6.58v10.06L41.97,64.05z"/>
<path class="st1" d="M58.78,49.05c0,0,2.37,0.62,2.93,4.22v3.24h-1.75v-2.97c0,0,0.03-2.36-3.29-4.49H58.78z"/>
<path class="st1" d="M66.29,49.05c0,0,2.37,0.62,2.93,4.22v3.24h-1.75v-2.97c0,0,0.03-2.36-3.29-4.49H66.29z"/>
<path class="st1" d="M74.65,49.05c0,0,2.37,0.62,2.93,4.22v3.24h-1.75v-2.97c0,0,0.03-2.36-3.29-4.49H74.65z"/>
</svg>
