<?xml version="1.0" encoding="utf-8"?>
<!-- Generator: Adobe Illustrator 25.0.0, SVG Export Plug-In . SVG Version: 6.00 Build 0)  -->
<svg version="1.1" id="Layer_1" xmlns="http://www.w3.org/2000/svg" xmlns:xlink="http://www.w3.org/1999/xlink" x="0px" y="0px"
	 viewBox="0 0 100 100" style="enable-background:new 0 0 100 100;" xml:space="preserve">
<style type="text/css">
	.st0{fill-rule:evenodd;clip-rule:evenodd;fill:#40875E;}
	.st1{fill-rule:evenodd;clip-rule:evenodd;fill:#A8A240;}
	.st2{fill:none;}
	.st3{fill:#F0AB00;}
	.st4{fill:#A8A240;}
	.st5{fill:#40875E;}
	.st6{fill-rule:evenodd;clip-rule:evenodd;fill:#F0AB00;}
	.st7{fill-rule:evenodd;clip-rule:evenodd;fill:#0B4A99;}
	.st8{fill:none;stroke:#F0AB00;stroke-miterlimit:10;}
	.st9{fill:#A8A240;stroke:#F0AB00;stroke-width:2;stroke-miterlimit:10;}
	.st10{fill:#F0AB00;stroke:#A8A240;stroke-width:3;stroke-miterlimit:10;}
	.st11{fill:#3E865F;}
	.st12{fill:#EFAA03;}
	.st13{fill:#A6A13E;}
	.st14{fill:#0B4A99;}
	.st15{fill:#F5B026;}
	.st16{fill:#FFCD2E;}
	.st17{fill:#D4D2D2;}
	.st18{fill:#E3E4E3;}
	.st19{fill:#FBD97C;}
	.st20{fill:#57BEC5;}
	.st21{fill:#469BA3;}
	.st22{fill:#CB151A;}
	.st23{fill:url(#SVGID_1_);}
	.st24{fill:url(#SVGID_2_);}
	.st25{fill:url(#SVGID_3_);}
	.st26{fill:#CFCFCE;}
	.st27{fill:#D4D3D3;}
	.st28{fill:#E4E5E3;}
	.st29{fill:#A2BAD0;}
	.st30{fill:#4B708F;}
	.st31{fill:#8AA4BE;}
	.st32{fill:#CCCACA;}
	.st33{opacity:0.59;fill:#3E865F;}
	.st34{opacity:0.6;}
	.st35{fill:#3F5B7A;}
	.st36{opacity:0.2;}
	.st37{fill:#516D8C;}
	.st38{fill-rule:evenodd;clip-rule:evenodd;fill:#CC8E05;}
	.st39{fill:url(#SVGID_4_);}
	.st40{fill:none;stroke:#40875E;stroke-width:2;stroke-miterlimit:10;}
	.st41{fill:url(#SVGID_5_);}
	.st42{fill:url(#SVGID_6_);}
	.st43{fill:url(#SVGID_7_);}
	.st44{opacity:0.44;fill:#40875E;}
</style>
<rect x="49.31" y="1" class="st12" width="1.56" height="13.93"/>
<path class="st11" d="M38.09,99.93c-0.13,0-0.27-0.03-0.39-0.09c-0.31-0.16-0.49-0.48-0.46-0.83l7.16-84.07
	c0.04-0.44,0.4-0.78,0.85-0.78h9.35c0.44,0,0.81,0.33,0.85,0.78l7.3,84.07c0.03,0.34-0.15,0.67-0.46,0.83
	c-0.31,0.16-0.68,0.12-0.94-0.11L49.98,90.1l-11.35,9.63C38.48,99.87,38.28,99.93,38.09,99.93z M37.64,98.55
	C37.64,98.56,37.63,98.56,37.64,98.55L37.64,98.55z M40.25,81.85l-1.33,15.62l9.87-8.38L40.25,81.85z M51.17,89.09l9.89,8.38
	L59.7,81.85L51.17,89.09z M41.71,81.07l8.27,7.01l8.26-7.01H41.71z M40.45,79.52H59.5L53.96,15.7h-8.08L40.45,79.52z"/>
<path class="st11" d="M40.12,80.87l-1.03-1.15l9.73-8.67l-8.58-7.66l0.18-0.54c0.12-0.32,0.42-0.52,0.76-0.52h17.31
	c0.39,0,0.73,0.23,0.87,0.6c0.14,0.36,0.04,0.76-0.25,1.02l-7.97,7.1l9.72,8.67l-1.03,1.15l-9.85-8.79L40.12,80.87z M43.09,63.87
	l6.89,6.15l6.9-6.15H43.09z"/>
<path class="st11" d="M58.39,63.68l-8.43-7.31l-8.39,7.31l-1.01-1.16l8.22-7.16l-6.84-5.93c-0.27-0.23-0.36-0.61-0.24-0.94
	c0.12-0.33,0.44-0.55,0.8-0.55h14.87c0.36,0,0.67,0.22,0.8,0.55c0.12,0.33,0.03,0.71-0.23,0.94l-6.81,5.93l8.26,7.17L58.39,63.68z
	 M44.36,49.47l5.6,4.86l5.57-4.86H44.36z"/>
<path class="st11" d="M56.96,49.13l-7.02-10.36l-7,10.36l-1.28-0.86l7.35-10.87l-5.52-8.15c-0.18-0.27-0.2-0.62-0.05-0.91
	c0.15-0.29,0.45-0.47,0.78-0.47h11.48c0.32,0,0.61,0.17,0.76,0.46c0.15,0.28,0.13,0.62-0.05,0.88l-5.53,8.19l7.37,10.87L56.96,49.13
	z M45.46,29.41l4.48,6.61l4.47-6.61H45.46z"/>
<path class="st11" d="M55.25,29.12l-5.32-6.83l-5.31,6.83l-1.22-0.95l5.55-7.14l-4.29-5.51c-0.2-0.26-0.23-0.6-0.09-0.89
	c0.14-0.29,0.43-0.47,0.76-0.47h9.13c0.34,0,0.64,0.19,0.79,0.49c0.15,0.3,0.11,0.66-0.1,0.93l-4.24,5.45l5.56,7.14L55.25,29.12z
	 M46.75,15.7l3.17,4.07l3.16-4.07H46.75z M53.92,14.63C53.92,14.63,53.92,14.63,53.92,14.63L53.92,14.63z"/>
<rect x="55.01" y="27.61" class="st11" width="5.34" height="2.06"/>
<path class="st12" d="M63.66,32.06h-3.83V19.94h3.83V32.06z M60.86,31.03h1.77V20.97h-1.77V31.03z"/>
<rect x="33.65" y="47.67" class="st11" width="10.36" height="2.06"/>
<circle class="st13" cx="43.49" cy="22.19" r="6.08"/>
<path class="st11" d="M39.8,22.3c-0.28,0-0.51-0.23-0.51-0.51c0-1.9,1.13-3.61,2.89-4.36c0.26-0.11,0.56,0.01,0.67,0.27
	s-0.01,0.56-0.27,0.67c-1.37,0.58-2.26,1.92-2.26,3.41C40.31,22.07,40.08,22.3,39.8,22.3z"/>
<circle class="st13" cx="58.9" cy="46.39" r="9.67"/>
<circle class="st13" cx="39.8" cy="67.5" r="9.67"/>
<path class="st11" d="M65.89,46.91c-0.28,0-0.51-0.23-0.51-0.51c0-3.06-2.17-5.73-5.17-6.34c-0.28-0.06-0.46-0.33-0.4-0.61
	c0.06-0.28,0.33-0.46,0.61-0.4c3.47,0.71,5.99,3.8,5.99,7.35C66.4,46.68,66.17,46.91,65.89,46.91z"/>
<path class="st11" d="M38.05,74.77c-0.04,0-0.09-0.01-0.13-0.02c-2.41-0.62-4.34-2.39-5.18-4.73c-0.1-0.27,0.04-0.56,0.31-0.66
	s0.56,0.04,0.66,0.31c0.72,2.02,2.39,3.55,4.47,4.08c0.27,0.07,0.44,0.35,0.37,0.63C38.49,74.61,38.28,74.77,38.05,74.77z"/>
<path class="st12" d="M34.17,54.63h-4.54V38.16h4.54V54.63z M30.65,53.6h2.48V39.19h-2.48V53.6z"/>
<rect x="30.13" y="38.5" class="st12" width="3.52" height="15.1"/>
<rect x="60.34" y="20.39" class="st12" width="2.76" height="11.22"/>
</svg>
