<?xml version="1.0" encoding="utf-8"?>
<!-- Generator: Adobe Illustrator 25.0.0, SVG Export Plug-In . SVG Version: 6.00 Build 0)  -->
<svg version="1.1" id="Layer_1" xmlns="http://www.w3.org/2000/svg" xmlns:xlink="http://www.w3.org/1999/xlink" x="0px" y="0px"
	 viewBox="0 0 118.96 100" style="enable-background:new 0 0 118.96 100;" xml:space="preserve">
<style type="text/css">
	.st0{fill-rule:evenodd;clip-rule:evenodd;fill:#40875E;}
	.st1{fill-rule:evenodd;clip-rule:evenodd;fill:#A8A240;}
	.st2{fill:none;}
	.st3{fill:#F0AB00;}
	.st4{fill:#A8A240;}
	.st5{fill:#40875E;}
	.st6{fill-rule:evenodd;clip-rule:evenodd;fill:#F0AB00;}
	.st7{fill-rule:evenodd;clip-rule:evenodd;fill:#0B4A99;}
	.st8{fill:none;stroke:#F0AB00;stroke-miterlimit:10;}
	.st9{fill:#A8A240;stroke:#F0AB00;stroke-width:2;stroke-miterlimit:10;}
	.st10{fill:#F0AB00;stroke:#A8A240;stroke-width:3;stroke-miterlimit:10;}
	.st11{fill:#3E865F;}
	.st12{fill:#EFAA03;}
	.st13{fill:#A6A13E;}
	.st14{fill:#0B4A99;}
	.st15{fill:#F5B026;}
	.st16{fill:#FFCD2E;}
	.st17{fill:#D4D2D2;}
	.st18{fill:#E3E4E3;}
	.st19{fill:#FBD97C;}
	.st20{fill:#57BEC5;}
	.st21{fill:#469BA3;}
	.st22{fill:#CB151A;}
	.st23{fill:url(#SVGID_1_);}
	.st24{fill:url(#SVGID_2_);}
	.st25{fill:url(#SVGID_3_);}
	.st26{fill:#CFCFCE;}
	.st27{fill:#D4D3D3;}
	.st28{fill:#E4E5E3;}
	.st29{fill:#A2BAD0;}
	.st30{fill:#4B708F;}
	.st31{fill:#8AA4BE;}
	.st32{fill:#CCCACA;}
	.st33{opacity:0.59;fill:#3E865F;}
	.st34{opacity:0.6;}
	.st35{fill:#3F5B7A;}
	.st36{opacity:0.2;}
	.st37{fill:#516D8C;}
	.st38{fill-rule:evenodd;clip-rule:evenodd;fill:#CC8E05;}
	.st39{fill:url(#SVGID_4_);}
	.st40{fill:none;stroke:#40875E;stroke-width:2;stroke-miterlimit:10;}
	.st41{fill:url(#SVGID_5_);}
	.st42{fill:url(#SVGID_6_);}
	.st43{fill:url(#SVGID_7_);}
	.st44{opacity:0.44;fill:#40875E;}
</style>
<rect x="32.09" y="52.61" class="st2" width="6.61" height="5.95"/>
<rect x="62.71" y="61.66" class="st2" width="5.49" height="5.95"/>
<rect x="54.16" y="61.66" class="st2" width="5.49" height="5.95"/>
<rect x="32.09" y="62.37" class="st2" width="6.61" height="5.95"/>
<rect x="12.56" y="52.61" class="st2" width="6.61" height="5.95"/>
<rect x="12.56" y="62.37" class="st2" width="6.61" height="5.95"/>
<rect x="22.33" y="62.37" class="st2" width="6.61" height="5.95"/>
<rect x="22.33" y="52.61" class="st2" width="6.61" height="5.95"/>
<rect x="91.18" y="61.96" class="st2" width="5.49" height="5.95"/>
<rect x="100.34" y="52.3" class="st2" width="7.02" height="5.95"/>
<rect x="100.34" y="61.96" class="st2" width="7.02" height="5.95"/>
<rect x="81.93" y="61.96" class="st2" width="5.49" height="5.95"/>
<rect x="91.18" y="52.3" class="st2" width="5.49" height="5.95"/>
<rect x="81.93" y="52.3" class="st2" width="5.49" height="5.95"/>
<path class="st4" d="M44.55,36.79H28.38v5.49H15.72L1.07,53.27v19.99h47.75V42.44h-4.27V36.79z M19.17,68.32h-6.61v-5.95h6.61V68.32
	z M19.17,58.56h-6.61v-5.95h6.61V58.56z M28.94,68.32h-6.61v-5.95h6.61V68.32z M28.94,58.56h-6.61v-5.95h6.61V58.56z M38.7,68.32
	h-6.61v-5.95h6.61V68.32z M38.7,58.56h-6.61v-5.95h6.61V58.56z"/>
<rect x="81.93" y="52.3" class="st2" width="5.49" height="5.95"/>
<rect x="81.93" y="61.96" class="st2" width="5.49" height="5.95"/>
<rect x="91.18" y="61.96" class="st2" width="5.49" height="5.95"/>
<rect x="54.16" y="61.66" class="st2" width="5.49" height="5.95"/>
<rect x="62.71" y="61.66" class="st2" width="5.49" height="5.95"/>
<rect x="100.34" y="61.96" class="st2" width="7.02" height="5.95"/>
<rect x="91.18" y="52.3" class="st2" width="5.49" height="5.95"/>
<rect x="100.34" y="52.3" class="st2" width="7.02" height="5.95"/>
<polygon class="st3" points="74.76,41.52 70.49,41.52 70.49,12.99 64.08,12.99 64.08,48.54 66.37,48.54 68.35,45.87 70.11,45.87 
	71.25,47.01 65.45,52.96 74.76,43.46 "/>
<path class="st5" d="M104.36,42.44H90.47v-6.1H74.76v2.23v2.95v1.94l-9.31,9.5h-2.39v-2.95H59.2l-8.39,4.97V73.1h67.28V53.12
	L104.36,42.44z M59.66,67.61h-5.49v-5.95h5.49V67.61z M68.2,67.61h-5.49v-5.95h5.49V67.61z M87.42,67.91h-5.49v-5.95h5.49V67.91z
	 M87.42,58.25h-5.49V52.3h5.49V58.25z M96.68,67.91h-5.49v-5.95h5.49V67.91z M96.68,58.25h-5.49V52.3h5.49V58.25z M107.36,67.91
	h-7.02v-5.95h7.02V67.91z M107.36,58.25h-7.02V52.3h7.02V58.25z"/>
</svg>
