<?xml version="1.0" encoding="utf-8"?>
<!-- Generator: Adobe Illustrator 25.0.0, SVG Export Plug-In . SVG Version: 6.00 Build 0)  -->
<svg version="1.1" id="Layer_1" xmlns="http://www.w3.org/2000/svg" xmlns:xlink="http://www.w3.org/1999/xlink" x="0px" y="0px"
	 viewBox="0 0 114.73 100" style="enable-background:new 0 0 114.73 100;" xml:space="preserve">
<style type="text/css">
	.st0{fill-rule:evenodd;clip-rule:evenodd;fill:#40875E;}
	.st1{fill-rule:evenodd;clip-rule:evenodd;fill:#A8A240;}
	.st2{fill:none;}
	.st3{fill:#F0AB00;}
	.st4{fill:#A8A240;}
	.st5{fill:#40875E;}
	.st6{fill-rule:evenodd;clip-rule:evenodd;fill:#F0AB00;}
	.st7{fill-rule:evenodd;clip-rule:evenodd;fill:#0B4A99;}
	.st8{fill:none;stroke:#F0AB00;stroke-miterlimit:10;}
	.st9{fill:#A8A240;stroke:#F0AB00;stroke-width:2;stroke-miterlimit:10;}
	.st10{fill:#F0AB00;stroke:#A8A240;stroke-width:3;stroke-miterlimit:10;}
	.st11{fill:#3E865F;}
	.st12{fill:#EFAA03;}
	.st13{fill:#A6A13E;}
	.st14{fill:#0B4A99;}
	.st15{fill:#F5B026;}
	.st16{fill:#FFCD2E;}
	.st17{fill:#D4D2D2;}
	.st18{fill:#E3E4E3;}
	.st19{fill:#FBD97C;}
	.st20{fill:#57BEC5;}
	.st21{fill:#469BA3;}
	.st22{fill:#CB151A;}
	.st23{fill:url(#SVGID_1_);}
	.st24{fill:url(#SVGID_2_);}
	.st25{fill:url(#SVGID_3_);}
	.st26{fill:#CFCFCE;}
	.st27{fill:#D4D3D3;}
	.st28{fill:#E4E5E3;}
	.st29{fill:#A2BAD0;}
	.st30{fill:#4B708F;}
	.st31{fill:#8AA4BE;}
	.st32{fill:#CCCACA;}
	.st33{opacity:0.59;fill:#3E865F;}
	.st34{opacity:0.6;}
	.st35{fill:#3F5B7A;}
	.st36{opacity:0.2;}
	.st37{fill:#516D8C;}
	.st38{fill-rule:evenodd;clip-rule:evenodd;fill:#CC8E05;}
	.st39{fill:url(#SVGID_4_);}
	.st40{fill:none;stroke:#40875E;stroke-width:2;stroke-miterlimit:10;}
	.st41{fill:url(#SVGID_5_);}
	.st42{fill:url(#SVGID_6_);}
	.st43{fill:url(#SVGID_7_);}
	.st44{opacity:0.44;fill:#40875E;}
</style>
<rect x="64.92" y="53.68" class="st5" width="6.99" height="2.65"/>
<rect x="64.92" y="53.68" class="st5" width="6.99" height="0.3"/>
<polygon class="st5" points="71.91,56.28 71.91,53.98 71.61,53.98 71.61,56.05 65.25,56.05 65.25,53.98 64.92,53.98 64.92,56.28 "/>
<path class="st5" d="M65.07,53.83h6.69v2.36h-6.69V53.83L65.07,53.83z M64.77,53.53v2.95h7.29v-2.95H64.77L64.77,53.53z"/>
<g>
	<g class="st34">
		<rect x="70.97" y="54.18" class="st35" width="0.16" height="1.66"/>
	</g>
	<g class="st34">
		<rect x="70.33" y="54.18" class="st35" width="0.16" height="1.66"/>
	</g>
	<g class="st34">
		<rect x="69.69" y="54.18" class="st35" width="0.16" height="1.66"/>
	</g>
	<g class="st34">
		<rect x="69.06" y="54.18" class="st35" width="0.16" height="1.66"/>
	</g>
	<g class="st34">
		<rect x="68.42" y="54.18" class="st35" width="0.16" height="1.66"/>
	</g>
	<g class="st34">
		<rect x="67.78" y="54.18" class="st35" width="0.16" height="1.66"/>
	</g>
	<g class="st34">
		<rect x="67.15" y="54.18" class="st35" width="0.16" height="1.66"/>
	</g>
	<g class="st34">
		<rect x="66.51" y="54.18" class="st35" width="0.16" height="1.66"/>
	</g>
	<g class="st34">
		<rect x="65.87" y="54.18" class="st35" width="0.16" height="1.66"/>
	</g>
</g>
<g>
	<g>
		<rect x="70.83" y="54.18" class="st4" width="0.16" height="1.66"/>
	</g>
	<g>
		<rect x="70.19" y="54.18" class="st4" width="0.16" height="1.66"/>
	</g>
	<g>
		<rect x="69.55" y="54.18" class="st4" width="0.16" height="1.66"/>
	</g>
	<g>
		<rect x="68.92" y="54.18" class="st4" width="0.16" height="1.66"/>
	</g>
	<g>
		<rect x="68.28" y="54.18" class="st4" width="0.16" height="1.66"/>
	</g>
	<g>
		<rect x="67.64" y="54.18" class="st4" width="0.16" height="1.66"/>
	</g>
	<g>
		<rect x="67" y="54.18" class="st4" width="0.16" height="1.66"/>
	</g>
	<g>
		<rect x="66.37" y="54.18" class="st4" width="0.16" height="1.66"/>
	</g>
	<g>
		<rect x="65.73" y="54.18" class="st4" width="0.16" height="1.66"/>
	</g>
</g>
<rect x="72.21" y="56.53" class="st5" width="6.99" height="2.65"/>
<rect x="72.21" y="56.53" class="st5" width="6.99" height="0.3"/>
<path class="st5" d="M72.36,56.67h6.69v2.36h-6.69V56.67L72.36,56.67z M72.06,56.38v2.95h7.29v-2.95H72.06L72.06,56.38z"/>
<g>
	<g class="st34">
		<rect x="78.25" y="57.03" class="st35" width="0.16" height="1.66"/>
	</g>
	<g class="st34">
		<rect x="77.62" y="57.03" class="st35" width="0.16" height="1.66"/>
	</g>
	<g class="st34">
		<rect x="76.98" y="57.03" class="st35" width="0.16" height="1.66"/>
	</g>
	<g class="st34">
		<rect x="76.34" y="57.03" class="st35" width="0.16" height="1.66"/>
	</g>
	<g class="st34">
		<rect x="75.71" y="57.03" class="st35" width="0.16" height="1.66"/>
	</g>
	<g class="st34">
		<rect x="75.07" y="57.03" class="st35" width="0.16" height="1.66"/>
	</g>
	<g class="st34">
		<rect x="74.43" y="57.03" class="st35" width="0.16" height="1.66"/>
	</g>
	<g class="st34">
		<rect x="73.8" y="57.03" class="st35" width="0.16" height="1.66"/>
	</g>
	<g class="st34">
		<rect x="73.16" y="57.03" class="st35" width="0.16" height="1.66"/>
	</g>
</g>
<g>
	<g>
		<rect x="78.11" y="57.03" class="st4" width="0.16" height="1.66"/>
	</g>
	<g>
		<rect x="77.48" y="57.03" class="st4" width="0.16" height="1.66"/>
	</g>
	<g>
		<rect x="76.84" y="57.03" class="st4" width="0.16" height="1.66"/>
	</g>
	<g>
		<rect x="76.2" y="57.03" class="st4" width="0.16" height="1.66"/>
	</g>
	<g>
		<rect x="75.57" y="57.03" class="st4" width="0.16" height="1.66"/>
	</g>
	<g>
		<rect x="74.93" y="57.03" class="st4" width="0.16" height="1.66"/>
	</g>
	<g>
		<rect x="74.29" y="57.03" class="st4" width="0.16" height="1.66"/>
	</g>
	<g>
		<rect x="73.66" y="57.03" class="st4" width="0.16" height="1.66"/>
	</g>
	<g>
		<rect x="73.02" y="57.03" class="st4" width="0.16" height="1.66"/>
	</g>
</g>
<rect x="68.67" y="50.73" class="st5" width="6.99" height="2.65"/>
<path class="st5" d="M68.82,50.88h6.69v2.36h-6.69V50.88L68.82,50.88z M68.52,50.58v2.95h7.29v-2.95H68.52L68.52,50.58z"/>
<g>
	<g class="st34">
		<rect x="74.71" y="51.23" class="st35" width="0.16" height="1.66"/>
	</g>
	<g class="st34">
		<rect x="74.07" y="51.23" class="st35" width="0.16" height="1.66"/>
	</g>
	<g class="st34">
		<rect x="73.44" y="51.23" class="st35" width="0.16" height="1.66"/>
	</g>
	<g class="st34">
		<rect x="72.8" y="51.23" class="st35" width="0.16" height="1.66"/>
	</g>
	<g class="st34">
		<rect x="72.16" y="51.23" class="st35" width="0.16" height="1.66"/>
	</g>
	<g class="st34">
		<rect x="71.53" y="51.23" class="st35" width="0.16" height="1.66"/>
	</g>
	<g class="st34">
		<rect x="70.89" y="51.23" class="st35" width="0.16" height="1.66"/>
	</g>
	<g class="st34">
		<rect x="70.25" y="51.23" class="st35" width="0.16" height="1.66"/>
	</g>
	<g class="st34">
		<rect x="69.62" y="51.23" class="st35" width="0.16" height="1.66"/>
	</g>
</g>
<g>
	<g>
		<g>
			<rect x="74.57" y="51.23" class="st4" width="0.16" height="1.66"/>
		</g>
		<g>
			<rect x="73.93" y="51.23" class="st4" width="0.16" height="1.66"/>
		</g>
		<g>
			<rect x="73.3" y="51.23" class="st4" width="0.16" height="1.66"/>
		</g>
		<g>
			<rect x="72.66" y="51.23" class="st4" width="0.16" height="1.66"/>
		</g>
		<g>
			<rect x="72.02" y="51.23" class="st4" width="0.16" height="1.66"/>
		</g>
		<g>
			<rect x="71.39" y="51.23" class="st4" width="0.16" height="1.66"/>
		</g>
		<g>
			<rect x="70.75" y="51.23" class="st4" width="0.16" height="1.66"/>
		</g>
		<g>
			<rect x="70.11" y="51.23" class="st4" width="0.16" height="1.66"/>
		</g>
		<g>
			<rect x="69.48" y="51.23" class="st4" width="0.16" height="1.66"/>
		</g>
	</g>
</g>
<rect x="64.99" y="56.53" class="st4" width="6.99" height="2.66"/>
<rect x="64.99" y="56.53" class="st4" width="6.99" height="0.3"/>
<polygon class="st4" points="71.98,59.12 71.98,56.82 71.67,56.82 71.67,58.89 65.31,58.89 65.31,56.82 64.99,56.82 64.99,59.12 "/>
<path class="st4" d="M65.14,56.67h6.69v2.36h-6.69V56.67L65.14,56.67z M64.84,56.38v2.95h7.29v-2.95H64.84L64.84,56.38z"/>
<g>
	<g class="st36">
		<rect x="71.03" y="57.03" class="st37" width="0.16" height="1.66"/>
	</g>
	<g class="st36">
		<rect x="70.4" y="57.03" class="st37" width="0.16" height="1.66"/>
	</g>
	<g class="st36">
		<rect x="69.76" y="57.03" class="st37" width="0.16" height="1.66"/>
	</g>
	<g class="st36">
		<rect x="69.12" y="57.03" class="st37" width="0.16" height="1.66"/>
	</g>
	<g class="st36">
		<rect x="68.48" y="57.03" class="st37" width="0.16" height="1.66"/>
	</g>
	<g class="st36">
		<rect x="67.85" y="57.03" class="st37" width="0.16" height="1.66"/>
	</g>
	<g class="st36">
		<rect x="67.21" y="57.03" class="st37" width="0.16" height="1.66"/>
	</g>
	<g class="st36">
		<rect x="66.57" y="57.03" class="st37" width="0.16" height="1.66"/>
	</g>
	<g class="st36">
		<rect x="65.94" y="57.03" class="st37" width="0.16" height="1.66"/>
	</g>
</g>
<g>
	<g class="st34">
		<rect x="70.89" y="57.03" class="st37" width="0.16" height="1.66"/>
	</g>
	<g class="st34">
		<rect x="70.25" y="57.03" class="st37" width="0.16" height="1.66"/>
	</g>
	<g class="st34">
		<rect x="69.62" y="57.03" class="st37" width="0.16" height="1.66"/>
	</g>
	<g class="st34">
		<rect x="68.98" y="57.03" class="st37" width="0.16" height="1.66"/>
	</g>
	<g class="st34">
		<rect x="68.34" y="57.03" class="st37" width="0.16" height="1.66"/>
	</g>
	<g class="st34">
		<rect x="67.71" y="57.03" class="st37" width="0.16" height="1.66"/>
	</g>
	<g class="st34">
		<rect x="67.07" y="57.03" class="st37" width="0.16" height="1.66"/>
	</g>
	<g class="st34">
		<rect x="66.43" y="57.03" class="st37" width="0.16" height="1.66"/>
	</g>
	<g class="st34">
		<rect x="65.8" y="57.03" class="st37" width="0.16" height="1.66"/>
	</g>
</g>
<rect x="72.21" y="53.68" class="st4" width="6.99" height="2.66"/>
<polygon class="st4" points="79.2,56.28 79.2,53.98 78.89,53.98 78.89,56.05 72.54,56.05 72.54,53.98 72.21,53.98 72.21,56.28 "/>
<path class="st4" d="M72.36,53.83h6.69v2.36h-6.69V53.83L72.36,53.83z M72.06,53.53v2.95h7.29v-2.95H72.06L72.06,53.53z"/>
<g>
	<g class="st36">
		<rect x="78.25" y="54.18" class="st37" width="0.16" height="1.66"/>
	</g>
	<g class="st36">
		<rect x="77.62" y="54.18" class="st37" width="0.16" height="1.66"/>
	</g>
	<g class="st36">
		<rect x="76.98" y="54.18" class="st37" width="0.16" height="1.66"/>
	</g>
	<g class="st36">
		<rect x="76.34" y="54.18" class="st37" width="0.16" height="1.66"/>
	</g>
	<g class="st36">
		<rect x="75.71" y="54.18" class="st37" width="0.16" height="1.66"/>
	</g>
	<g class="st36">
		<rect x="75.07" y="54.18" class="st37" width="0.16" height="1.66"/>
	</g>
	<g class="st36">
		<rect x="74.43" y="54.18" class="st37" width="0.16" height="1.66"/>
	</g>
	<g class="st36">
		<rect x="73.8" y="54.18" class="st37" width="0.16" height="1.66"/>
	</g>
	<g class="st36">
		<rect x="73.16" y="54.18" class="st37" width="0.16" height="1.66"/>
	</g>
</g>
<g>
	<g class="st34">
		<rect x="78.11" y="54.18" class="st37" width="0.16" height="1.66"/>
	</g>
	<g class="st34">
		<rect x="77.48" y="54.18" class="st37" width="0.16" height="1.66"/>
	</g>
	<g class="st34">
		<rect x="76.84" y="54.18" class="st37" width="0.16" height="1.66"/>
	</g>
	<g class="st34">
		<rect x="76.2" y="54.18" class="st37" width="0.16" height="1.66"/>
	</g>
	<g class="st34">
		<rect x="75.57" y="54.18" class="st37" width="0.16" height="1.66"/>
	</g>
	<g class="st34">
		<rect x="74.93" y="54.18" class="st37" width="0.16" height="1.66"/>
	</g>
	<g class="st34">
		<rect x="74.29" y="54.18" class="st37" width="0.16" height="1.66"/>
	</g>
	<g class="st34">
		<rect x="73.66" y="54.18" class="st37" width="0.16" height="1.66"/>
	</g>
	<g class="st34">
		<rect x="73.02" y="54.18" class="st37" width="0.16" height="1.66"/>
	</g>
</g>
<g>
	<path class="st3" d="M80.06,26.76C80.06,26.76,80.06,26.76,80.06,26.76c-0.33,0-0.66,0-0.98,0c-0.53,0-1.06,0-1.58,0
		c-0.14,0-0.22,0.06-0.23,0.18c-0.01,0.13,0.08,0.21,0.24,0.21c0.67,0,1.34,0,2.02,0c1.01,0,2.02,0,3.02,0
		c0.42,0,0.77,0.31,0.82,0.71c0.06,0.41-0.2,0.79-0.6,0.91c-0.51,0.14-1.03-0.25-1.04-0.78c0-0.13-0.09-0.21-0.2-0.21
		c-0.11,0.01-0.18,0.1-0.18,0.23c0.01,0.74,0.74,1.31,1.47,1.15c0.6-0.14,1.01-0.7,0.95-1.32c-0.06-0.6-0.58-1.07-1.19-1.07
		C81.72,26.76,80.89,26.76,80.06,26.76z M77.81,26.21C77.81,26.21,77.81,26.21,77.81,26.21c0.78,0,1.56,0.01,2.34,0
		c0.62-0.01,1.13-0.47,1.2-1.08c0.06-0.6-0.33-1.16-0.92-1.31c-0.6-0.14-1.21,0.18-1.42,0.76c-0.05,0.13-0.06,0.27-0.07,0.41
		c-0.01,0.11,0.08,0.19,0.19,0.19c0.1,0,0.18-0.07,0.19-0.17c0.01-0.05,0.01-0.1,0.02-0.16c0.06-0.41,0.45-0.71,0.87-0.68
		c0.4,0.02,0.74,0.37,0.77,0.77c0.03,0.43-0.32,0.88-0.9,0.88c-1.53-0.01-3.07,0-4.6,0c-0.19,0-0.29,0.06-0.29,0.19
		c0,0.13,0.09,0.19,0.29,0.19C76.25,26.21,77.03,26.21,77.81,26.21z M77.46,27.78c-0.76,0-1.53,0-2.29,0
		c-0.14,0-0.23,0.07-0.23,0.19c0,0.12,0.08,0.19,0.22,0.19c0.21,0,0.42,0,0.62,0c1.3,0,2.59,0,3.89,0c0.52,0,0.89,0.48,0.75,0.98
		c-0.1,0.37-0.44,0.59-0.83,0.56c-0.37-0.04-0.64-0.33-0.67-0.71c-0.01-0.16-0.09-0.25-0.2-0.24c-0.12,0.01-0.19,0.1-0.18,0.26
		c0.03,0.49,0.36,0.91,0.84,1.04c0.48,0.13,1-0.05,1.27-0.46c0.25-0.38,0.27-0.78,0.07-1.18c-0.21-0.4-0.56-0.61-1.01-0.62
		C78.95,27.77,78.2,27.78,77.46,27.78z"/>
	<path class="st3" d="M85.5,24.46c-0.01,0.03-0.02,0.05-0.03,0.08c-0.27,1.11-1.38,1.74-2.47,1.4c-0.08-0.02-0.12-0.01-0.17,0.05
		c-0.11,0.12-0.23,0.23-0.36,0.33c-0.1,0.08-0.22,0.06-0.28-0.03c-0.06-0.09-0.03-0.19,0.06-0.28c0.14-0.14,0.28-0.29,0.41-0.45
		c0.09-0.1,0.15-0.12,0.31-0.06c0.56,0.22,1.09,0.18,1.57-0.19c0.52-0.4,0.71-0.94,0.56-1.58c-0.15-0.63-0.57-1.01-1.21-1.14
		c-0.25-0.05-0.27-0.08-0.25-0.36c0.14-1.34-0.61-2.57-1.87-3.06c-1.36-0.53-2.9,0.02-3.62,1.29c-0.12,0.21-0.18,0.23-0.39,0.11
		c-0.54-0.3-1.22-0.25-1.7,0.13c-0.49,0.39-0.69,1.01-0.51,1.62c0.06,0.21-0.04,0.33-0.26,0.28c-0.79-0.18-1.56,0.33-1.69,1.12
		c-0.13,0.81,0.44,1.56,1.25,1.64c0.03,0,0.06,0,0.09,0.01c0.1,0.03,0.16,0.1,0.14,0.21c-0.01,0.11-0.08,0.18-0.18,0.17
		c-0.14-0.01-0.29-0.03-0.42-0.07c-0.65-0.21-1.1-0.64-1.24-1.31c-0.26-1.28,0.7-2.19,1.76-2.18c0.03,0,0.06,0,0.11,0
		c-0.08-0.75,0.16-1.38,0.78-1.82c0.61-0.45,1.28-0.47,1.98-0.17c0.49-0.78,1.18-1.29,2.08-1.51c0.67-0.16,1.34-0.11,1.98,0.14
		c1.26,0.49,2.25,1.8,2.11,3.41c0.05,0.01,0.1,0.03,0.14,0.04c0.67,0.23,1.1,0.68,1.29,1.36c0.01,0.04,0.03,0.08,0.04,0.12
		C85.5,24,85.5,24.23,85.5,24.46z"/>
	<path class="st3" d="M80.06,26.76c0.83,0,1.66,0,2.5,0c0.61,0,1.13,0.47,1.19,1.07c0.07,0.62-0.34,1.18-0.95,1.32
		c-0.73,0.16-1.46-0.4-1.47-1.15c0-0.13,0.07-0.22,0.18-0.23c0.11-0.01,0.2,0.07,0.2,0.21c0.02,0.54,0.53,0.93,1.04,0.78
		c0.4-0.11,0.66-0.5,0.6-0.91c-0.06-0.41-0.4-0.71-0.82-0.71c-1.01,0-2.02,0-3.02,0c-0.67,0-1.34,0-2.02,0
		c-0.15,0-0.25-0.08-0.24-0.21c0.01-0.11,0.09-0.18,0.23-0.18c0.53,0,1.06,0,1.58,0C79.4,26.76,79.73,26.76,80.06,26.76
		C80.06,26.76,80.06,26.76,80.06,26.76z"/>
	<path class="st3" d="M77.81,26.21c-0.78,0-1.55,0-2.33,0c-0.2,0-0.29-0.06-0.29-0.19c0-0.13,0.09-0.19,0.29-0.19
		c1.53,0,3.07-0.01,4.6,0c0.58,0,0.92-0.45,0.9-0.88c-0.03-0.4-0.36-0.75-0.77-0.77c-0.43-0.02-0.81,0.27-0.87,0.68
		c-0.01,0.05-0.01,0.1-0.02,0.16c-0.01,0.11-0.09,0.18-0.19,0.17c-0.11,0-0.19-0.08-0.19-0.19c0.01-0.14,0.03-0.28,0.07-0.41
		c0.21-0.58,0.82-0.91,1.42-0.76c0.58,0.14,0.98,0.71,0.92,1.31c-0.06,0.6-0.58,1.07-1.2,1.08C79.37,26.21,78.59,26.21,77.81,26.21
		C77.81,26.21,77.81,26.21,77.81,26.21z"/>
	<path class="st3" d="M77.46,27.78c0.74,0,1.49-0.01,2.23,0c0.45,0.01,0.8,0.21,1.01,0.62c0.21,0.4,0.18,0.81-0.07,1.18
		c-0.27,0.41-0.79,0.59-1.27,0.46c-0.48-0.13-0.81-0.55-0.84-1.04c-0.01-0.16,0.06-0.25,0.18-0.26c0.12-0.01,0.19,0.08,0.2,0.24
		c0.03,0.38,0.31,0.68,0.67,0.71c0.39,0.04,0.73-0.19,0.83-0.56c0.14-0.5-0.22-0.98-0.75-0.98c-1.3,0-2.59,0-3.89,0
		c-0.21,0-0.42,0-0.62,0c-0.14,0-0.23-0.08-0.22-0.19c0-0.12,0.09-0.19,0.23-0.19C75.93,27.78,76.69,27.78,77.46,27.78z"/>
</g>
<g>
	<path class="st3" d="M43.85,21.67C43.85,21.67,43.85,21.67,43.85,21.67c-0.33,0-0.66,0-0.98,0c-0.53,0-1.06,0-1.58,0
		c-0.14,0-0.22,0.06-0.23,0.18c-0.01,0.13,0.08,0.21,0.24,0.21c0.67,0,1.34,0,2.02,0c1.01,0,2.02,0,3.02,0
		c0.42,0,0.77,0.31,0.82,0.71c0.06,0.41-0.2,0.79-0.6,0.91c-0.51,0.14-1.03-0.25-1.04-0.78c0-0.13-0.09-0.21-0.2-0.21
		c-0.11,0.01-0.18,0.1-0.18,0.23c0.01,0.74,0.74,1.31,1.47,1.15c0.6-0.14,1.01-0.7,0.95-1.32c-0.06-0.6-0.58-1.07-1.19-1.07
		C45.51,21.67,44.68,21.67,43.85,21.67z M41.6,21.12C41.6,21.12,41.6,21.12,41.6,21.12c0.78,0,1.56,0.01,2.34,0
		c0.62-0.01,1.13-0.47,1.2-1.08c0.06-0.6-0.33-1.16-0.92-1.31c-0.6-0.14-1.21,0.18-1.42,0.76c-0.05,0.13-0.06,0.27-0.07,0.41
		c-0.01,0.11,0.08,0.19,0.19,0.19c0.1,0,0.18-0.07,0.19-0.17c0.01-0.05,0.01-0.1,0.02-0.16c0.06-0.41,0.45-0.71,0.87-0.68
		c0.4,0.02,0.74,0.37,0.77,0.77c0.03,0.43-0.32,0.88-0.9,0.88c-1.53-0.01-3.07,0-4.6,0c-0.19,0-0.29,0.06-0.29,0.19
		c0,0.13,0.09,0.19,0.29,0.19C40.04,21.12,40.82,21.12,41.6,21.12z M41.25,22.69c-0.76,0-1.53,0-2.29,0c-0.14,0-0.23,0.07-0.23,0.19
		c0,0.12,0.08,0.19,0.22,0.19c0.21,0,0.42,0,0.62,0c1.3,0,2.59,0,3.89,0c0.52,0,0.89,0.48,0.75,0.98c-0.1,0.37-0.44,0.59-0.83,0.56
		c-0.37-0.04-0.64-0.33-0.67-0.71c-0.01-0.16-0.09-0.25-0.2-0.24c-0.12,0.01-0.19,0.1-0.18,0.26c0.03,0.49,0.36,0.91,0.84,1.04
		c0.48,0.13,1-0.05,1.27-0.46c0.25-0.38,0.27-0.78,0.07-1.18c-0.21-0.4-0.56-0.61-1.01-0.62C42.74,22.68,41.99,22.69,41.25,22.69z"
		/>
	<path class="st3" d="M49.29,19.37c-0.01,0.03-0.02,0.05-0.03,0.08c-0.27,1.11-1.38,1.74-2.47,1.4c-0.08-0.02-0.12-0.01-0.17,0.05
		c-0.11,0.12-0.23,0.23-0.36,0.33c-0.1,0.08-0.22,0.06-0.28-0.03c-0.06-0.09-0.03-0.19,0.06-0.28c0.14-0.14,0.28-0.29,0.41-0.45
		c0.09-0.1,0.15-0.12,0.31-0.06c0.56,0.22,1.09,0.18,1.57-0.19c0.52-0.4,0.71-0.94,0.56-1.58c-0.15-0.63-0.57-1.01-1.21-1.14
		c-0.25-0.05-0.27-0.08-0.25-0.36c0.14-1.34-0.61-2.57-1.87-3.06c-1.36-0.53-2.9,0.02-3.62,1.29c-0.12,0.21-0.18,0.23-0.39,0.11
		c-0.54-0.3-1.22-0.25-1.7,0.13c-0.49,0.39-0.69,1.01-0.51,1.62c0.06,0.21-0.04,0.33-0.26,0.28c-0.79-0.18-1.56,0.33-1.69,1.12
		c-0.13,0.81,0.44,1.56,1.25,1.64c0.03,0,0.06,0,0.09,0.01c0.1,0.03,0.16,0.1,0.14,0.21c-0.01,0.11-0.08,0.18-0.18,0.17
		c-0.14-0.01-0.29-0.03-0.42-0.07c-0.65-0.21-1.1-0.64-1.24-1.31c-0.26-1.28,0.7-2.19,1.76-2.18c0.03,0,0.06,0,0.11,0
		c-0.08-0.75,0.16-1.38,0.78-1.82c0.61-0.45,1.28-0.47,1.98-0.17c0.49-0.78,1.18-1.29,2.08-1.51c0.67-0.16,1.34-0.11,1.98,0.14
		c1.26,0.49,2.25,1.8,2.11,3.41c0.05,0.01,0.1,0.03,0.14,0.04c0.67,0.23,1.1,0.68,1.29,1.36c0.01,0.04,0.03,0.08,0.04,0.12
		C49.29,18.91,49.29,19.14,49.29,19.37z"/>
	<path class="st3" d="M43.85,21.67c0.83,0,1.66,0,2.5,0c0.61,0,1.13,0.47,1.19,1.07c0.07,0.62-0.34,1.18-0.95,1.32
		c-0.73,0.16-1.46-0.4-1.47-1.15c0-0.13,0.07-0.22,0.18-0.23c0.11-0.01,0.2,0.07,0.2,0.21c0.02,0.54,0.53,0.93,1.04,0.78
		c0.4-0.11,0.66-0.5,0.6-0.91c-0.06-0.41-0.4-0.71-0.82-0.71c-1.01,0-2.02,0-3.02,0c-0.67,0-1.34,0-2.02,0
		c-0.15,0-0.25-0.08-0.24-0.21c0.01-0.11,0.09-0.18,0.23-0.18c0.53,0,1.06,0,1.58,0C43.19,21.67,43.52,21.67,43.85,21.67
		C43.85,21.67,43.85,21.67,43.85,21.67z"/>
	<path class="st3" d="M41.6,21.12c-0.78,0-1.55,0-2.33,0c-0.2,0-0.29-0.06-0.29-0.19c0-0.13,0.09-0.19,0.29-0.19
		c1.53,0,3.07-0.01,4.6,0c0.58,0,0.92-0.45,0.9-0.88c-0.03-0.4-0.36-0.75-0.77-0.77c-0.43-0.02-0.81,0.27-0.87,0.68
		c-0.01,0.05-0.01,0.1-0.02,0.16c-0.01,0.11-0.09,0.18-0.19,0.17c-0.11,0-0.19-0.08-0.19-0.19c0.01-0.14,0.03-0.28,0.07-0.41
		c0.21-0.58,0.82-0.91,1.42-0.76c0.58,0.14,0.98,0.71,0.92,1.31c-0.06,0.6-0.58,1.07-1.2,1.08C43.16,21.12,42.38,21.12,41.6,21.12
		C41.6,21.12,41.6,21.12,41.6,21.12z"/>
	<path class="st3" d="M41.25,22.69c0.74,0,1.49-0.01,2.23,0c0.45,0.01,0.8,0.21,1.01,0.62c0.21,0.4,0.18,0.81-0.07,1.18
		c-0.27,0.41-0.79,0.59-1.27,0.46c-0.48-0.13-0.81-0.55-0.84-1.04c-0.01-0.16,0.06-0.25,0.18-0.26c0.12-0.01,0.19,0.08,0.2,0.24
		c0.03,0.38,0.31,0.68,0.67,0.71c0.39,0.04,0.73-0.19,0.83-0.56c0.14-0.5-0.22-0.98-0.75-0.98c-1.3,0-2.59,0-3.89,0
		c-0.21,0-0.42,0-0.62,0c-0.14,0-0.23-0.08-0.22-0.19c0-0.12,0.09-0.19,0.23-0.19C39.72,22.69,40.49,22.69,41.25,22.69z"/>
</g>
<g>
	<path class="st3" d="M20.82,40.31C20.82,40.31,20.82,40.31,20.82,40.31c-0.33,0-0.66,0-0.98,0c-0.53,0-1.06,0-1.58,0
		c-0.14,0-0.22,0.06-0.23,0.18c-0.01,0.13,0.08,0.21,0.24,0.21c0.67,0,1.34,0,2.02,0c1.01,0,2.02,0,3.02,0
		c0.42,0,0.77,0.31,0.82,0.71c0.06,0.41-0.2,0.79-0.6,0.91c-0.51,0.14-1.03-0.25-1.04-0.78c0-0.13-0.09-0.21-0.2-0.21
		c-0.11,0.01-0.18,0.1-0.18,0.23c0.01,0.74,0.74,1.31,1.47,1.15c0.6-0.14,1.01-0.7,0.95-1.32c-0.06-0.6-0.58-1.07-1.19-1.07
		C22.48,40.3,21.65,40.31,20.82,40.31z M18.57,39.75C18.57,39.75,18.57,39.75,18.57,39.75c0.78,0,1.56,0.01,2.34,0
		c0.62-0.01,1.13-0.47,1.2-1.08c0.06-0.6-0.33-1.16-0.92-1.31c-0.6-0.14-1.21,0.18-1.42,0.76c-0.05,0.13-0.06,0.27-0.07,0.41
		c-0.01,0.11,0.08,0.19,0.19,0.19c0.1,0,0.18-0.07,0.19-0.17c0.01-0.05,0.01-0.1,0.02-0.16c0.06-0.41,0.45-0.71,0.87-0.68
		c0.4,0.02,0.74,0.37,0.77,0.77c0.03,0.43-0.32,0.88-0.9,0.88c-1.53-0.01-3.07,0-4.6,0c-0.19,0-0.29,0.06-0.29,0.19
		c0,0.13,0.09,0.19,0.29,0.19C17.02,39.75,17.79,39.75,18.57,39.75z M18.22,41.32c-0.76,0-1.53,0-2.29,0
		c-0.14,0-0.23,0.07-0.23,0.19c0,0.12,0.08,0.19,0.22,0.19c0.21,0,0.42,0,0.62,0c1.3,0,2.59,0,3.89,0c0.52,0,0.89,0.48,0.75,0.98
		c-0.1,0.37-0.44,0.59-0.83,0.56c-0.37-0.04-0.64-0.33-0.67-0.71c-0.01-0.16-0.09-0.25-0.2-0.24c-0.12,0.01-0.19,0.1-0.18,0.26
		c0.03,0.49,0.36,0.91,0.84,1.04c0.48,0.13,1-0.05,1.27-0.46c0.25-0.38,0.27-0.78,0.07-1.18c-0.21-0.4-0.56-0.61-1.01-0.62
		C19.71,41.32,18.96,41.32,18.22,41.32z"/>
	<path class="st3" d="M26.26,38.01c-0.01,0.03-0.02,0.05-0.03,0.08c-0.27,1.11-1.38,1.74-2.47,1.4c-0.08-0.02-0.12-0.01-0.17,0.05
		c-0.11,0.12-0.23,0.23-0.36,0.33c-0.1,0.08-0.22,0.06-0.28-0.03c-0.06-0.09-0.03-0.19,0.06-0.28c0.14-0.14,0.28-0.29,0.41-0.45
		c0.09-0.1,0.15-0.12,0.31-0.06c0.56,0.22,1.09,0.18,1.57-0.19c0.52-0.4,0.71-0.94,0.56-1.58c-0.15-0.63-0.57-1.01-1.21-1.14
		c-0.25-0.05-0.27-0.08-0.25-0.36c0.14-1.34-0.61-2.57-1.87-3.06c-1.36-0.53-2.9,0.02-3.62,1.29c-0.12,0.21-0.18,0.23-0.39,0.11
		c-0.54-0.3-1.22-0.25-1.7,0.13c-0.49,0.39-0.69,1.01-0.51,1.62c0.06,0.21-0.04,0.33-0.26,0.28c-0.79-0.18-1.56,0.33-1.69,1.12
		c-0.13,0.81,0.44,1.56,1.25,1.64c0.03,0,0.06,0,0.09,0.01c0.1,0.03,0.16,0.1,0.14,0.21c-0.01,0.11-0.08,0.18-0.18,0.17
		c-0.14-0.01-0.29-0.03-0.42-0.07c-0.65-0.21-1.1-0.64-1.24-1.31c-0.26-1.28,0.7-2.19,1.76-2.18c0.03,0,0.06,0,0.11,0
		c-0.08-0.75,0.16-1.38,0.78-1.82c0.61-0.45,1.28-0.47,1.98-0.17c0.49-0.78,1.18-1.29,2.08-1.51c0.67-0.16,1.34-0.11,1.98,0.14
		c1.26,0.49,2.25,1.8,2.11,3.41c0.05,0.01,0.1,0.03,0.14,0.04c0.67,0.23,1.1,0.68,1.29,1.36c0.01,0.04,0.03,0.08,0.04,0.12
		C26.26,37.54,26.26,37.77,26.26,38.01z"/>
	<path class="st3" d="M20.82,40.31c0.83,0,1.66,0,2.5,0c0.61,0,1.13,0.47,1.19,1.07c0.07,0.62-0.34,1.18-0.95,1.32
		c-0.73,0.16-1.46-0.4-1.47-1.15c0-0.13,0.07-0.22,0.18-0.23c0.11-0.01,0.2,0.07,0.2,0.21c0.02,0.54,0.53,0.93,1.04,0.78
		c0.4-0.11,0.66-0.5,0.6-0.91c-0.06-0.41-0.4-0.71-0.82-0.71c-1.01,0-2.02,0-3.02,0c-0.67,0-1.34,0-2.02,0
		c-0.15,0-0.25-0.08-0.24-0.21c0.01-0.11,0.09-0.18,0.23-0.18c0.53,0,1.06,0,1.58,0C20.16,40.31,20.49,40.31,20.82,40.31
		C20.82,40.31,20.82,40.31,20.82,40.31z"/>
	<path class="st3" d="M18.57,39.75c-0.78,0-1.55,0-2.33,0c-0.2,0-0.29-0.06-0.29-0.19c0-0.13,0.09-0.19,0.29-0.19
		c1.53,0,3.07-0.01,4.6,0c0.58,0,0.92-0.45,0.9-0.88c-0.03-0.4-0.36-0.75-0.77-0.77c-0.43-0.02-0.81,0.27-0.87,0.68
		c-0.01,0.05-0.01,0.1-0.02,0.16c-0.01,0.11-0.09,0.18-0.19,0.17c-0.11,0-0.19-0.08-0.19-0.19c0.01-0.14,0.03-0.28,0.07-0.41
		c0.21-0.58,0.82-0.91,1.42-0.76c0.58,0.14,0.98,0.71,0.92,1.31c-0.06,0.6-0.58,1.07-1.2,1.08C20.13,39.76,19.35,39.75,18.57,39.75
		C18.57,39.75,18.57,39.75,18.57,39.75z"/>
	<path class="st3" d="M18.22,41.32c0.74,0,1.49-0.01,2.23,0c0.45,0.01,0.8,0.21,1.01,0.62c0.21,0.4,0.18,0.81-0.07,1.18
		c-0.27,0.41-0.79,0.59-1.27,0.46c-0.48-0.13-0.81-0.55-0.84-1.04c-0.01-0.16,0.06-0.25,0.18-0.26c0.12-0.01,0.19,0.08,0.2,0.24
		c0.03,0.38,0.31,0.68,0.67,0.71c0.39,0.04,0.73-0.19,0.83-0.56c0.14-0.5-0.22-0.98-0.75-0.98c-1.3,0-2.59,0-3.89,0
		c-0.21,0-0.42,0-0.62,0c-0.14,0-0.23-0.08-0.22-0.19c0-0.12,0.09-0.19,0.23-0.19C16.69,41.32,17.46,41.32,18.22,41.32z"/>
</g>
<g>
	<g>
		<g>
			<path class="st1" d="M38.49,42.78c-0.15,0-0.28,0.12-0.28,0.28c0,0.15,0.12,0.28,0.28,0.28c0.15,0,0.28-0.12,0.28-0.28
				C38.77,42.91,38.65,42.78,38.49,42.78L38.49,42.78z"/>
		</g>
	</g>
</g>
<g>
	<g>
		<g>
			<path class="st4" d="M38.11,41.89h0.51v1.22h-0.51V41.89z M38.22,41.94h-0.07v1.13h0.07V41.94z M38.45,41.94h-0.18v1.13h0.18
				V41.94z M38.57,41.94h-0.07v1.13h0.07V41.94z"/>
		</g>
	</g>
</g>
<g>
	<g>
		<g>
			<polygon class="st1" points="38.6,43.19 38.21,43.19 38.17,43.71 38.32,43.85 38.41,43.85 38.6,43.67 38.6,43.19 			"/>
		</g>
	</g>
</g>
<g>
	<g>
		<g>
			<path class="st1" d="M38.1,44.12c-0.01,0.12,0.09,0.21,0.2,0.21c0.11,0,0.2-0.1,0.2-0.21c0-0.08-0.04-0.15-0.1-0.18
				c-0.03-0.02-0.04-0.05-0.04-0.08V43.8l-0.04,0.04l-0.04-0.04v0.12c0,0.04,0.02,0.07,0.06,0.09c0.05,0.02,0.08,0.05,0.08,0.11
				c0,0.07-0.06,0.13-0.12,0.13c-0.07,0-0.13-0.06-0.12-0.13C38.18,44.04,38.1,44.04,38.1,44.12L38.1,44.12z"/>
		</g>
	</g>
</g>
<g>
	<g>
		<path class="st0" d="M38.58,33.57c-0.24,0-0.43,0.19-0.43,0.43c0,0.24,0.19,0.43,0.43,0.43c0.24,0,0.43-0.19,0.43-0.43
			C39.01,33.76,38.82,33.57,38.58,33.57L38.58,33.57z"/>
	</g>
</g>
<path class="st4" d="M38.09,33.97h0.85v7.97h-0.85V33.97z M38.89,34.02h-0.76v7.87h0.76V34.02z"/>
<g>
	<g>
		<g>
			<path class="st1" d="M38.54,41.54c-0.23,0-0.41,0.18-0.41,0.41c0,0.23,0.18,0.41,0.41,0.41c0.23,0,0.41-0.18,0.41-0.41
				C38.95,41.73,38.77,41.54,38.54,41.54L38.54,41.54z"/>
		</g>
	</g>
</g>
<g>
	<g>
		<path class="st0" d="M46.26,26.72c-0.19,0-0.35,0.16-0.35,0.35c0,0.19,0.16,0.35,0.35,0.35c0.19,0,0.35-0.16,0.35-0.35
			C46.61,26.88,46.45,26.72,46.26,26.72L46.26,26.72z"/>
	</g>
</g>
<g>
	<g>
		<path class="st5" d="M46.02,27.23l-0.01-0.02l0.25-0.19l1.92,2.52l0.01,0.02l-0.25,0.19L46.02,27.23z M46.25,27.08l-0.18,0.14
			l1.88,2.47l0.18-0.14L46.25,27.08z"/>
	</g>
</g>
<g>
	<g>
		<polygon class="st0" points="38.37,33.72 46.18,26.93 46.26,27.23 38.82,33.72 38.37,33.72 		"/>
	</g>
</g>
<g>
	<g>
		<polygon class="st0" points="51.94,27.84 51.23,27.52 38.46,33.74 38.73,34.29 51.94,27.84 		"/>
	</g>
</g>
<g>
	<g>
		<polygon class="st6" points="64.98,32.92 61.64,36.96 60.44,37.97 59.84,38.79 59.69,38.68 60.34,37.82 61.51,36.81 64.86,32.78 
			64.98,32.92 		"/>
	</g>
</g>
<g>
	<g>
		<polygon class="st6" points="69.5,34.57 64.96,32.73 64.81,33.1 69.36,34.93 69.5,34.57 		"/>
	</g>
</g>
<g>
	<g>
		<path class="st6" d="M64.98,32.53c-0.22,0-0.4,0.18-0.4,0.4c0,0.22,0.18,0.4,0.4,0.4c0.22,0,0.4-0.18,0.4-0.4
			C65.38,32.7,65.2,32.53,64.98,32.53L64.98,32.53z"/>
	</g>
</g>
<g>
	<g>
		<polygon class="st0" points="67.31,34.32 51.47,27.18 46.29,26.81 46.38,27.11 51.19,27.55 66.56,34.99 67.31,34.96 67.31,34.32 
					"/>
	</g>
</g>
<g>
	<g>
		<polygon class="st0" points="49.08,29.06 49.45,30.25 48.79,30.64 46.9,30.16 49.08,29.06 		"/>
	</g>
</g>
<g>
	<g>
		<g>
			<path class="st0" d="M62.72,46.71l2.7,8.54v2.7l0.57,0.27v0.37h-1.04l-0.23-2.9c-0.04-0.45-0.48-1.05-0.83-1.05h-2.49v-1.39
				l1.32,0c0.48,0,0.64-0.41,0.49-1.01l-1.34-5.54H62.72L62.72,46.71z"/>
		</g>
	</g>
</g>
<g>
	<g>
		<g>
			<path class="st0" d="M62.93,46.71l2.7,8.54v2.7l0.57,0.27v0.37h-1.04l-0.23-2.9c-0.04-0.45-0.48-1.05-0.83-1.05h-2.49v-1.39
				l1.32,0c0.48,0,0.64-0.41,0.49-1.01l-1.34-5.54H62.93L62.93,46.71z"/>
		</g>
	</g>
</g>
<g>
	<g>
		<path class="st0" d="M60.85,46.71l-2.7,8.54v2.7l-0.57,0.27v0.37h1.04l0.23-2.9c0.04-0.45,0.48-1.05,0.83-1.05h2.49v-1.39l-1.32,0
			c-0.48,0-0.64-0.41-0.49-1.01l1.34-5.54H60.85L60.85,46.71z"/>
	</g>
</g>
<g>
	<g>
		<g>
			<path class="st0" d="M60.59,46.71l-2.7,8.54v2.7l-0.57,0.27v0.37h1.04l0.23-2.9c0.04-0.45,0.48-1.05,0.83-1.05h2.49v-1.39
				l-1.32,0c-0.48,0-0.64-0.41-0.49-1.01l1.34-5.54H60.59L60.59,46.71z"/>
		</g>
	</g>
</g>
<g>
	<g>
		<polygon class="st0" points="60.59,46.71 60.25,47.79 61.04,48.4 61.44,46.71 60.59,46.71 		"/>
	</g>
</g>
<g>
	<g>
		<g>
			<polygon class="st1" points="65.85,48.46 57.75,48.46 57.75,48.66 65.85,48.66 65.85,48.46 			"/>
		</g>
	</g>
</g>
<g>
	<g>
		<polygon class="st0" points="58.28,46.54 60.01,46.54 60.01,44.23 58.28,44.23 57.87,44.78 59.19,44.78 59.19,46.2 58.28,46.2 
			58.28,46.54 		"/>
	</g>
</g>
<g>
	<g>
		<polygon class="st0" points="58.28,46.54 61.05,46.54 61.05,44.67 57.96,44.66 57.87,44.78 59.19,44.78 59.19,46.2 58.28,46.2 
			58.28,46.54 		"/>
	</g>
</g>
<g>
	<g>
		<path class="st0" d="M58.1,38.95c-0.4,0-0.77,0.16-1.03,0.43l1.78,2.27c0.42-0.26,0.7-0.72,0.7-1.25
			C59.55,39.6,58.9,38.95,58.1,38.95L58.1,38.95z"/>
	</g>
</g>
<g>
	<g>
		<polygon class="st6" points="59.62,38.62 58.63,39.94 58.93,40.16 59.92,38.85 59.62,38.62 		"/>
	</g>
</g>
<g>
	<g>
		<polygon class="st6" points="70.24,34.35 68.94,34.58 68.94,34.58 69.72,35.65 70.24,34.35 		"/>
	</g>
</g>
<g>
	<g>
		<polygon class="st0" points="69.06,34.88 66.43,39.87 66.73,42.16 63.94,42.16 63.89,39.19 68.25,34.62 69.06,34.88 		"/>
	</g>
</g>
<g>
	<g>
		<polygon class="st1" points="68.76,34.88 66.14,39.87 66.43,42.16 63.64,42.16 63.6,39.19 67.96,34.62 68.76,34.88 		"/>
	</g>
</g>
<g>
	<g>
		<polygon class="st6" points="67.19,39.37 59.81,39.8 59.83,40.17 67.19,39.75 67.19,39.37 		"/>
	</g>
</g>
<g>
	<g>
		<polygon class="st1" points="66.89,34.41 51.06,27.27 46.17,26.89 46.26,27.19 50.77,27.64 66.14,35.07 66.89,35.04 66.89,34.41 
					"/>
	</g>
</g>
<g>
	<g>
		<polygon class="st6" points="63.45,32.91 60.16,36.81 59.88,37.69 59.27,38.49 59.42,38.6 60.06,37.74 60.33,36.89 63.62,33 
			63.45,32.91 		"/>
	</g>
</g>
<g>
	<g>
		<polygon class="st0" points="68.08,31.83 67.19,31.83 67.19,42.16 68.08,42.16 68.08,31.83 		"/>
	</g>
</g>
<g>
	<g>
		<polygon class="st0" points="56.95,58.6 58.65,58.6 58.65,59.09 56.95,59.09 56.95,58.6 		"/>
	</g>
</g>
<g>
	<g>
		<polygon class="st0" points="55.42,58.6 56.96,58.6 56.96,59.09 55.42,59.09 55.42,58.6 		"/>
	</g>
</g>
<g>
	<g>
		<polygon class="st38" points="72.32,45.54 64.5,45.54 64.5,46.08 69.37,46.08 72.32,45.81 72.32,45.54 		"/>
	</g>
</g>
<g>
	<g>
		<polygon class="st1" points="63.24,46.05 60.33,46.05 60.33,46.51 63.24,46.51 63.24,46.05 		"/>
	</g>
</g>
<g>
	<g>
		<polygon class="st6" points="67.83,45.54 60.01,45.54 60.01,46.08 64.87,46.08 67.83,45.81 67.83,45.54 		"/>
	</g>
</g>
<g>
	<g>
		<g>
			<path class="st4" d="M57.84,52.4h8.08v0.89h-8.08V52.4z M58.4,52.86h-0.51v0.37h0.51V52.86z M59.35,52.86h-0.91v0.37h0.91V52.86z
				 M60.35,52.86H59.4v0.37h0.95V52.86z M61.3,52.86h-0.91v0.37h0.91V52.86z M62.34,52.86h-0.99v0.37h0.99V52.86z M63.29,52.86
				h-0.91v0.37h0.91V52.86z M64.37,52.86h-1.04v0.37h1.04V52.86z M65.33,52.86h-0.91v0.37h0.91V52.86z M65.88,52.86h-0.51v0.37h0.51
				V52.86z M58.4,52.44h-0.51v0.37h0.51V52.44z M59.35,52.44h-0.91v0.37h0.91V52.44z M60.35,52.44H59.4v0.37h0.95V52.44z
				 M61.3,52.44h-0.91v0.37h0.91V52.44z M62.34,52.44h-0.99v0.37h0.99V52.44z M63.29,52.44h-0.91v0.37h0.91V52.44z M64.37,52.44
				h-1.04v0.37h1.04V52.44z M65.33,52.44h-0.91v0.37h0.91V52.44z M65.88,52.44h-0.51v0.37h0.51V52.44z"/>
		</g>
	</g>
</g>
<g>
	<g>
		<polygon class="st1" points="57.87,44.78 58.28,46.2 59.19,46.2 59.19,44.78 57.87,44.78 		"/>
	</g>
</g>
<g>
	<g>
		<polygon class="st1" points="67.78,31.83 66.89,31.83 66.89,42.16 67.78,42.16 67.78,31.83 		"/>
	</g>
</g>
<g>
	<g>
		<polygon class="st1" points="51.62,27.82 50.91,27.5 38.14,33.72 38.41,34.27 51.62,27.82 		"/>
	</g>
</g>
<g>
	<g>
		<polygon class="st0" points="64.02,46.51 59.49,46.51 59.49,46.71 64.02,46.71 64.02,46.51 		"/>
	</g>
</g>
<g>
	<g>
		<polygon class="st0" points="65.99,58.6 64.95,58.6 64.95,59.09 65.99,59.09 65.99,58.6 		"/>
	</g>
</g>
<g>
	<g>
		<g>
			<polygon class="st0" points="57.2,58.6 58.36,58.6 58.36,59.09 57.2,59.09 57.2,58.6 			"/>
		</g>
	</g>
</g>
<path class="st4" d="M57.77,47.59h8.08v0.89h-8.08V47.59z M58.32,48.06h-0.51v0.37h0.51V48.06z M59.28,48.06h-0.91v0.37h0.91V48.06z
	 M60.27,48.06h-0.95v0.37h0.95V48.06z M61.22,48.06h-0.91v0.37h0.91V48.06z M62.26,48.06h-0.99v0.37h0.99V48.06z M63.22,48.06h-0.91
	v0.37h0.91V48.06z M64.3,48.06h-1.04v0.37h1.04V48.06z M65.25,48.06h-0.91v0.37h0.91V48.06z M65.81,48.06H65.3v0.37h0.51V48.06z
	 M58.32,47.64h-0.51v0.37h0.51V47.64z M59.28,47.64h-0.91v0.37h0.91V47.64z M60.27,47.64h-0.95v0.37h0.95V47.64z M61.22,47.64h-0.91
	v0.37h0.91V47.64z M62.26,47.64h-0.99v0.37h0.99V47.64z M63.22,47.64h-0.91v0.37h0.91V47.64z M64.3,47.64h-1.04v0.37h1.04V47.64z
	 M65.25,47.64h-0.91v0.37h0.91V47.64z M65.81,47.64H65.3v0.37h0.51V47.64z M37.85,33.98h0.85v7.97h-0.85V33.98z M38.65,34.02h-0.76
	v7.87h0.76V34.02z"/>
<g>
	<g>
		<polygon class="st0" points="66.33,58.6 65.17,58.6 65.17,59.09 66.33,59.09 66.33,58.6 		"/>
	</g>
</g>
<g>
	<g>
		<g>
			<path class="st0" d="M59.92,46.71l-3.58,8.54v2.7l-0.76,0.27v0.37h1.38l0.31-2.9c0.05-0.45,0.63-1.05,1.1-1.05h3.31v-1.39
				l-1.76,0c-0.64,0-0.85-0.41-0.65-1.01l1.79-5.54H59.92L59.92,46.71z"/>
		</g>
	</g>
</g>
<g>
	<g>
		<polygon class="st0" points="59.92,46.71 59.73,47.16 60.06,47.16 60.76,47.61 61.05,46.71 59.92,46.71 		"/>
	</g>
</g>
<g>
	<g>
		<g>
			<path class="st1" d="M60.25,46.71l-3.58,8.54v2.7l-0.76,0.27v0.37h1.38l0.31-2.9c0.05-0.45,0.63-1.05,1.1-1.05h3.31v-1.39
				l-1.76,0c-0.64,0-0.85-0.41-0.65-1.01l1.79-5.54H60.25L60.25,46.71z"/>
		</g>
	</g>
</g>
<g>
	<g>
		<g>
			<path class="st0" d="M63.57,46.71l3.58,8.54v2.7l0.76,0.27v0.37h-1.38l-0.31-2.9c-0.05-0.45-0.63-1.05-1.1-1.05h-3.31v-1.39
				l1.76,0c0.64,0,0.85-0.41,0.65-1.01l-1.79-5.54H63.57L63.57,46.71z"/>
		</g>
	</g>
</g>
<g>
	<g>
		<g>
			<polygon class="st0" points="68.06,58.6 66.53,58.6 66.53,59.09 68.06,59.09 68.06,58.6 			"/>
		</g>
	</g>
</g>
<g>
	<g>
		<g>
			<polygon class="st0" points="55.75,58.6 57.29,58.6 57.29,59.09 55.75,59.09 55.75,58.6 			"/>
		</g>
	</g>
</g>
<g>
	<g>
		<g>
			<path class="st1" d="M63.36,46.71l3.58,8.54v2.7l0.76,0.27v0.37h-1.38l-0.31-2.9c-0.05-0.45-0.63-1.05-1.1-1.05H61.6v-1.39
				l1.76,0c0.64,0,0.85-0.41,0.65-1.01l-1.79-5.54H63.36L63.36,46.71z"/>
		</g>
	</g>
</g>
<g>
	<g>
		<polygon class="st0" points="67.86,58.6 66.32,58.6 66.32,59.09 67.86,59.09 67.86,58.6 		"/>
	</g>
</g>
<g>
	<g>
		<polygon class="st0" points="49.31,29.4 48.74,29.39 48.47,30.39 60.48,45.71 61.49,44.92 49.31,29.4 		"/>
	</g>
</g>
<g>
	<g>
		<polygon class="st1" points="48.74,29.39 47.57,29.96 59.89,45.67 60.89,44.88 48.74,29.39 		"/>
	</g>
</g>
<g>
	<g>
		<path class="st3" d="M67.91,41.09h4.38v0.89h-4.38V41.09z M68.21,41.56h-0.25v0.37h0.25V41.56z M68.72,41.56h-0.47v0.37h0.47
			V41.56z M69.26,41.56h-0.49v0.37h0.49V41.56z M69.78,41.56h-0.47v0.37h0.47V41.56z M70.34,41.56h-0.51v0.37h0.51V41.56z
			 M70.85,41.56h-0.47v0.37h0.47V41.56z M71.44,41.56H70.9v0.37h0.54V41.56z M71.95,41.56h-0.47v0.37h0.47V41.56z M72.25,41.56H72
			v0.37h0.25V41.56z M68.21,41.14h-0.25v0.37h0.25V41.14z M68.72,41.14h-0.47v0.37h0.47V41.14z M69.26,41.14h-0.49v0.37h0.49V41.14z
			 M69.78,41.14h-0.47v0.37h0.47V41.14z M70.34,41.14h-0.51v0.37h0.51V41.14z M70.85,41.14h-0.47v0.37h0.47V41.14z M71.44,41.14
			H70.9v0.37h0.54V41.14z M71.95,41.14h-0.47v0.37h0.47V41.14z M72.25,41.14H72v0.37h0.25V41.14z"/>
	</g>
</g>
<g>
	<g>
		<polygon class="st6" points="72.56,41.95 65.15,41.95 65.15,42.16 72.56,42.16 72.56,41.95 		"/>
	</g>
</g>
<g>
	<g>
		<polygon class="st6" points="72.27,42.16 68.04,42.16 68.04,45.54 72.27,45.54 72.27,42.16 		"/>
	</g>
</g>
<g>
	<g>
		<polygon class="st6" points="61.91,42.16 61.91,42.16 60.88,42.16 60.88,45.54 61.91,45.54 61.91,45.54 62.93,45.54 62.93,45.54 
			63.95,45.54 63.95,45.54 64.97,45.54 64.97,45.54 65.99,45.54 65.99,45.54 67.02,45.54 67.02,45.54 68.04,45.54 68.04,42.16 
			67.02,42.16 67.02,42.16 65.99,42.16 65.99,42.16 64.97,42.16 64.97,42.16 63.95,42.16 63.95,42.16 62.93,42.16 62.93,42.16 
			61.91,42.16 		"/>
	</g>
</g>
<g>
	<g>
		<polygon class="st1" points="62.93,43.04 61.91,43.04 61.91,43.85 62.93,43.85 62.93,43.04 		"/>
	</g>
</g>
<g>
	<g>
		<polygon class="st1" points="65.98,43.04 64.96,43.04 64.96,43.85 65.98,43.85 65.98,43.04 		"/>
	</g>
</g>
<g>
	<g>
		<path class="st0" d="M60.28,44.93c-0.28,0-0.51,0.23-0.51,0.51c0,0.28,0.23,0.51,0.51,0.51c0.28,0,0.51-0.23,0.51-0.51
			C60.78,45.16,60.56,44.93,60.28,44.93L60.28,44.93z"/>
	</g>
</g>
<g>
	<g>
		<path class="st1" d="M60.17,44.93c-0.28,0-0.51,0.23-0.51,0.51c0,0.28,0.23,0.51,0.51,0.51c0.28,0,0.51-0.23,0.51-0.51
			C60.68,45.16,60.45,44.93,60.17,44.93L60.17,44.93z"/>
	</g>
</g>
<g>
	<g>
		<path class="st0" d="M60.23,45.2c-0.16,0-0.29,0.13-0.29,0.29c0,0.16,0.13,0.29,0.29,0.29c0.16,0,0.29-0.13,0.29-0.29
			C60.51,45.33,60.38,45.2,60.23,45.2L60.23,45.2z"/>
	</g>
</g>
<g>
	<g>
		<path class="st0" d="M60.14,45.13c-0.16,0-0.29,0.13-0.29,0.29c0,0.16,0.13,0.29,0.29,0.29c0.16,0,0.29-0.13,0.29-0.29
			C60.43,45.25,60.3,45.13,60.14,45.13L60.14,45.13z"/>
	</g>
</g>
<g>
	<g>
		<path class="st1" d="M60.17,45.15c-0.16,0-0.29,0.13-0.29,0.29c0,0.16,0.13,0.29,0.29,0.29c0.16,0,0.29-0.13,0.29-0.29
			C60.46,45.28,60.33,45.15,60.17,45.15L60.17,45.15z"/>
	</g>
</g>
<g>
	<g>
		<polygon class="st6" points="59.8,39.61 58.16,39.7 58.2,40.46 59.84,40.36 59.8,39.61 		"/>
	</g>
</g>
<g>
	<g>
		<polygon class="st6" points="59.19,38.43 58.21,39.75 58.5,39.97 59.49,38.66 59.19,38.43 		"/>
	</g>
</g>
<g>
	<g>
		<path class="st1" d="M57.6,38.95c-0.4,0-0.77,0.16-1.03,0.43l1.78,2.27c0.42-0.26,0.7-0.72,0.7-1.25
			C59.06,39.6,58.41,38.95,57.6,38.95L57.6,38.95z"/>
	</g>
</g>
<g>
	<g>
		<polygon class="st6" points="68.81,34.35 67.5,34.58 67.5,34.58 68.28,35.65 68.81,34.35 		"/>
	</g>
</g>
<g>
	<g>
		<polygon class="st1" points="72.59,35.2 70.51,34.36 70.23,34.36 69.99,35.65 71.79,36.49 72.06,36.49 72.59,35.2 		"/>
	</g>
</g>
<g>
	<g>
		<polygon class="st6" points="72.31,35.2 70.23,34.36 69.71,35.65 71.79,36.49 72.31,35.2 		"/>
	</g>
</g>
<g>
	<g>
		<polygon class="st1" points="71.15,35.2 69.08,34.36 68.79,34.37 68.55,35.65 70.35,36.49 70.63,36.49 71.15,35.2 		"/>
	</g>
</g>
<g>
	<g>
		<path class="st0" d="M57.95,39.64c-0.31,0-0.56,0.25-0.56,0.56c0,0.31,0.25,0.56,0.56,0.56c0.31,0,0.56-0.25,0.56-0.56
			C58.51,39.89,58.26,39.64,57.95,39.64L57.95,39.64z"/>
	</g>
</g>
<g>
	<g>
		<path class="st1" d="M57.84,39.64c-0.31,0-0.56,0.25-0.56,0.56c0,0.31,0.25,0.56,0.56,0.56c0.31,0,0.56-0.25,0.56-0.56
			C58.4,39.89,58.15,39.64,57.84,39.64L57.84,39.64z"/>
	</g>
</g>
<g>
	<g>
		<path class="st0" d="M57.89,39.94c-0.18,0-0.32,0.14-0.32,0.32c0,0.18,0.14,0.32,0.32,0.32c0.18,0,0.32-0.14,0.32-0.32
			C58.21,40.08,58.07,39.94,57.89,39.94L57.89,39.94z"/>
	</g>
</g>
<g>
	<g>
		<path class="st0" d="M57.8,39.85c-0.18,0-0.32,0.14-0.32,0.32c0,0.18,0.14,0.32,0.32,0.32c0.18,0,0.32-0.14,0.32-0.32
			C58.12,40,57.98,39.85,57.8,39.85L57.8,39.85z"/>
	</g>
</g>
<g>
	<g>
		<path class="st1" d="M57.84,39.88c-0.18,0-0.32,0.14-0.32,0.32c0,0.18,0.14,0.32,0.32,0.32c0.18,0,0.32-0.14,0.32-0.32
			C58.16,40.03,58.01,39.88,57.84,39.88L57.84,39.88z"/>
	</g>
</g>
<g>
	<g>
		<path class="st0" d="M67.39,39.32c-0.12,0-0.22,0.1-0.22,0.22c0,0.12,0.1,0.22,0.22,0.22c0.12,0,0.22-0.1,0.22-0.22
			C67.62,39.42,67.52,39.32,67.39,39.32L67.39,39.32z"/>
	</g>
</g>
<g>
	<g>
		<path class="st0" d="M67.33,39.26c-0.12,0-0.22,0.1-0.22,0.22c0,0.12,0.1,0.22,0.22,0.22c0.12,0,0.22-0.1,0.22-0.22
			C67.55,39.37,67.45,39.26,67.33,39.26L67.33,39.26z"/>
	</g>
</g>
<g>
	<g>
		<path class="st1" d="M67.35,39.29c-0.12,0-0.22,0.1-0.22,0.22c0,0.12,0.1,0.22,0.22,0.22c0.12,0,0.22-0.1,0.22-0.22
			C67.58,39.39,67.48,39.29,67.35,39.29L67.35,39.29z"/>
	</g>
</g>
<g>
	<g>
		<polygon class="st0" points="67.63,34.56 64.84,39.87 65.13,42.16 62.34,42.16 62.3,39.19 66.89,34.41 67.63,34.56 		"/>
	</g>
</g>
<g>
	<g>
		<polygon class="st1" points="67.3,34.6 64.54,39.87 64.83,42.16 62.04,42.16 62,39.19 66.64,34.29 67.3,34.6 		"/>
	</g>
</g>
<g>
	<g>
		<polygon class="st6" points="68.25,41.95 60.66,41.95 60.66,42.16 68.25,42.16 68.25,41.95 		"/>
	</g>
</g>
<g>
	<g>
		<path class="st3" d="M61,41.09h6.95v0.89H61V41.09z M61.48,41.56h-0.43v0.37h0.43V41.56z M62.3,41.56h-0.77v0.37h0.77V41.56z
			 M63.15,41.56h-0.81v0.37h0.81V41.56z M63.97,41.56H63.2v0.37h0.77V41.56z M64.87,41.56h-0.85v0.37h0.85V41.56z M65.69,41.56
			h-0.77v0.37h0.77V41.56z M66.62,41.56h-0.89v0.37h0.89V41.56z M67.44,41.56h-0.77v0.37h0.77V41.56z M67.91,41.56h-0.43v0.37h0.43
			V41.56z M61.48,41.14h-0.43v0.37h0.43V41.14z M62.3,41.14h-0.77v0.37h0.77V41.14z M63.15,41.14h-0.81v0.37h0.81V41.14z
			 M63.97,41.14H63.2v0.37h0.77V41.14z M64.87,41.14h-0.85v0.37h0.85V41.14z M65.69,41.14h-0.77v0.37h0.77V41.14z M66.62,41.14
			h-0.89v0.37h0.89V41.14z M67.44,41.14h-0.77v0.37h0.77V41.14z M67.91,41.14h-0.43v0.37h0.43V41.14z"/>
	</g>
</g>
<g>
	<g>
		<polygon class="st6" points="68.07,34.57 63.53,32.73 63.38,33.1 67.92,34.93 68.07,34.57 		"/>
	</g>
</g>
<g>
	<g>
		<path class="st6" d="M63.55,32.53c-0.22,0-0.4,0.18-0.4,0.4c0,0.22,0.18,0.4,0.4,0.4c0.22,0,0.4-0.18,0.4-0.4
			C63.95,32.7,63.77,32.53,63.55,32.53L63.55,32.53z"/>
	</g>
</g>
<g>
	<g>
		<polygon class="st6" points="70.88,35.2 68.8,34.36 68.28,35.65 70.35,36.49 70.88,35.2 		"/>
	</g>
</g>
<g>
	<g>
		<polygon class="st38" points="68.04,42.16 60.88,42.16 60.88,42.42 68.04,42.42 68.04,42.16 		"/>
	</g>
</g>
<g>
	<g>
		<polygon class="st1" points="38.14,33.72 45.96,26.93 46.03,27.23 38.6,33.72 38.14,33.72 		"/>
	</g>
</g>
<g>
	<g>
		<polygon class="st1" points="51.88,32 46.84,32 46.84,32.2 51.88,32.2 51.88,32 		"/>
	</g>
</g>
<g>
	<g>
		<path class="st4" d="M46.84,32L46.84,32l-0.01-0.84h0.01v-0.02h5.05v0.02h0.01V32h-0.01v0.02h-5.05V32z M47.83,31.6h-0.94v0.37
			h0.94V31.6z M48.78,31.6h-0.91v0.37h0.91V31.6z M49.82,31.6h-0.99v0.37h0.99V31.6z M50.77,31.6h-0.91v0.37h0.91V31.6z M51.84,31.6
			h-1.02v0.37h1.02V31.6z M47.83,31.18h-0.94v0.37h0.94V31.18z M48.78,31.18h-0.91v0.37h0.91V31.18z M49.82,31.18h-0.99v0.37h0.99
			V31.18z M50.77,31.18h-0.91v0.37h0.91V31.18z M51.84,31.18h-1.02v0.37h1.02V31.18z"/>
	</g>
</g>
<g>
	<g>
		<polygon class="st0" points="48.65,29.3 49.02,30.48 48.36,30.87 46.47,30.39 48.65,29.3 		"/>
	</g>
</g>
<g>
	<g>
		<polygon class="st0" points="48.56,29.29 48.94,30.48 48.28,30.87 46.29,30.37 48.56,29.29 		"/>
	</g>
</g>
<g>
	<g>
		<path class="st0" d="M48.33,29.78c-0.26,0-0.47,0.21-0.47,0.47c0,0.26,0.21,0.47,0.47,0.47c0.26,0,0.47-0.21,0.47-0.47
			C48.81,29.99,48.59,29.78,48.33,29.78L48.33,29.78z"/>
	</g>
</g>
<g>
	<g>
		<path class="st1" d="M48.24,29.78c-0.26,0-0.47,0.21-0.47,0.47c0,0.26,0.21,0.47,0.47,0.47c0.26,0,0.47-0.21,0.47-0.47
			C48.71,29.99,48.5,29.78,48.24,29.78L48.24,29.78z"/>
	</g>
</g>
<g>
	<g>
		<path class="st0" d="M48.29,30.03c-0.15,0-0.27,0.12-0.27,0.27c0,0.15,0.12,0.27,0.27,0.27c0.15,0,0.27-0.12,0.27-0.27
			C48.55,30.15,48.43,30.03,48.29,30.03L48.29,30.03z"/>
	</g>
</g>
<g>
	<g>
		<path class="st0" d="M48.21,29.96c-0.15,0-0.27,0.12-0.27,0.27c0,0.15,0.12,0.27,0.27,0.27c0.15,0,0.27-0.12,0.27-0.27
			C48.48,30.08,48.36,29.96,48.21,29.96L48.21,29.96z"/>
	</g>
</g>
<g>
	<g>
		<path class="st1" d="M48.24,29.99c-0.15,0-0.27,0.12-0.27,0.27c0,0.15,0.12,0.27,0.27,0.27c0.15,0,0.27-0.12,0.27-0.27
			C48.51,30.11,48.39,29.99,48.24,29.99L48.24,29.99z"/>
	</g>
</g>
<g>
	<g>
		<polygon class="st6" points="62.21,36.04 60.88,36.04 60.88,36.19 62.21,36.19 62.21,36.04 		"/>
	</g>
</g>
<g>
	<g>
		<path class="st0" d="M46.05,26.72c-0.19,0-0.35,0.16-0.35,0.35c0,0.19,0.16,0.35,0.35,0.35c0.19,0,0.35-0.16,0.35-0.35
			C46.41,26.88,46.25,26.72,46.05,26.72L46.05,26.72z"/>
	</g>
</g>
<g>
	<g>
		<path class="st0" d="M38.34,33.58c-0.23,0-0.41,0.18-0.41,0.41c0,0.23,0.18,0.41,0.41,0.41c0.23,0,0.41-0.18,0.41-0.41
			C38.75,33.76,38.57,33.58,38.34,33.58L38.34,33.58z"/>
	</g>
</g>
<g>
	<g>
		<path class="st1" d="M38.26,33.58c-0.23,0-0.41,0.18-0.41,0.41c0,0.23,0.18,0.41,0.41,0.41c0.23,0,0.41-0.18,0.41-0.41
			C38.67,33.76,38.49,33.58,38.26,33.58L38.26,33.58z"/>
	</g>
</g>
<g>
	<g>
		<path class="st0" d="M38.3,33.8c-0.13,0-0.23,0.1-0.23,0.23c0,0.13,0.1,0.23,0.23,0.23c0.13,0,0.23-0.1,0.23-0.23
			C38.53,33.9,38.43,33.8,38.3,33.8L38.3,33.8z"/>
	</g>
</g>
<g>
	<g>
		<path class="st0" d="M38.24,33.74c-0.13,0-0.23,0.1-0.23,0.23c0,0.13,0.1,0.23,0.23,0.23c0.13,0,0.23-0.1,0.23-0.23
			C38.47,33.84,38.37,33.74,38.24,33.74L38.24,33.74z"/>
	</g>
</g>
<g>
	<g>
		<path class="st1" d="M38.26,33.76c-0.13,0-0.23,0.1-0.23,0.23c0,0.13,0.1,0.23,0.23,0.23c0.13,0,0.23-0.1,0.23-0.23
			C38.49,33.86,38.39,33.76,38.26,33.76L38.26,33.76z"/>
	</g>
</g>
<g>
	<g>
		<g>
			<path class="st1" d="M38.32,41.53c-0.23,0-0.42,0.19-0.42,0.42c0,0.23,0.19,0.42,0.42,0.42c0.23,0,0.42-0.19,0.42-0.42
				C38.74,41.71,38.56,41.53,38.32,41.53L38.32,41.53z"/>
		</g>
	</g>
</g>
<g>
	<g>
		<g>
			<path class="st1" d="M38.24,41.53c-0.23,0-0.42,0.19-0.42,0.42c0,0.23,0.19,0.42,0.42,0.42c0.23,0,0.42-0.19,0.42-0.42
				C38.66,41.72,38.47,41.53,38.24,41.53L38.24,41.53z"/>
		</g>
	</g>
</g>
<g>
	<g>
		<g>
			<path class="st1" d="M38.28,41.75c-0.13,0-0.24,0.11-0.24,0.24c0,0.13,0.11,0.24,0.24,0.24c0.13,0,0.24-0.11,0.24-0.24
				C38.52,41.86,38.41,41.75,38.28,41.75L38.28,41.75z"/>
		</g>
	</g>
</g>
<g>
	<g>
		<g>
			<path class="st1" d="M38.22,41.69c-0.13,0-0.24,0.11-0.24,0.24c0,0.13,0.11,0.24,0.24,0.24s0.24-0.11,0.24-0.24
				C38.45,41.8,38.35,41.69,38.22,41.69L38.22,41.69z"/>
		</g>
	</g>
</g>
<g>
	<g>
		<g>
			<path class="st1" d="M38.24,41.71c-0.13,0-0.24,0.11-0.24,0.24c0,0.13,0.11,0.24,0.24,0.24c0.13,0,0.24-0.11,0.24-0.24
				C38.48,41.82,38.37,41.71,38.24,41.71L38.24,41.71z"/>
		</g>
	</g>
</g>
<g>
	<g>
		<g>
			<polygon class="st0" points="36.04,49.8 33.86,49.8 33.86,49.98 36.04,49.98 36.04,49.8 			"/>
		</g>
	</g>
</g>
<g>
	<g>
		<g>
			<polygon class="st0" points="36.11,46.81 33.79,46.81 33.79,49.98 34.02,49.98 34.02,49.88 34.19,49.88 34.19,49.98 35.72,49.98 
				35.72,49.88 35.89,49.88 35.89,49.98 36.11,49.98 36.11,46.81 			"/>
		</g>
	</g>
</g>
<g>
	<g>
		<g>
			<polygon class="st0" points="36.11,46.81 33.79,46.81 33.79,47.02 36.11,47.02 36.11,46.81 			"/>
		</g>
	</g>
</g>
<g>
	<g>
		<g>
			<polygon class="st0" points="36.04,47.02 34.95,47.02 34.95,49.8 36.04,49.8 36.04,47.02 			"/>
		</g>
	</g>
</g>
<g>
	<g>
		<g>
			<polygon class="st0" points="34.95,47.02 33.86,47.02 33.86,49.8 34.95,49.8 34.95,47.02 			"/>
		</g>
	</g>
</g>
<g>
	<g>
		<g>
			<polygon class="st0" points="35.98,47.06 34.95,47.06 34.95,49.75 35.98,49.75 35.98,47.06 			"/>
		</g>
	</g>
</g>
<g>
	<g>
		<g>
			<path class="st5" d="M34.93,47.04h1.08v2.74h-1.08V47.04z M35.96,47.08h-0.99v2.64h0.99V47.08z"/>
		</g>
	</g>
</g>
<g>
	<g>
		<g>
			<polygon class="st0" points="34.95,47.06 33.92,47.06 33.92,49.75 34.95,49.75 34.95,47.06 			"/>
		</g>
	</g>
</g>
<g>
	<g>
		<g>
			<path class="st5" d="M33.9,47.04h1.08v2.74H33.9V47.04z M34.93,47.08h-0.99v2.64h0.99V47.08z"/>
		</g>
	</g>
</g>
<g>
	<g>
		<g>
			<polygon class="st0" points="35.19,47.1 35.02,47.1 35.02,47.23 35.19,47.23 35.19,47.1 			"/>
		</g>
	</g>
</g>
<g>
	<g>
		<g>
			<polygon class="st0" points="34.53,47.1 34.36,47.1 34.36,47.23 34.53,47.23 34.53,47.1 			"/>
		</g>
	</g>
</g>
<g>
	<g>
		<g>
			<polygon class="st0" points="35.53,47.1 35.36,47.1 35.36,47.23 35.53,47.23 35.53,47.1 			"/>
		</g>
	</g>
</g>
<g>
	<g>
		<g>
			<polygon class="st0" points="34.87,47.1 34.7,47.1 34.7,47.23 34.87,47.23 34.87,47.1 			"/>
		</g>
	</g>
</g>
<g>
	<g>
		<g>
			<polygon class="st0" points="35.19,49.58 35.02,49.58 35.02,49.72 35.19,49.72 35.19,49.58 			"/>
		</g>
	</g>
</g>
<g>
	<g>
		<g>
			<polygon class="st0" points="34.53,49.58 34.36,49.58 34.36,49.72 34.53,49.72 34.53,49.58 			"/>
		</g>
	</g>
</g>
<g>
	<g>
		<g>
			<polygon class="st0" points="35.53,49.58 35.36,49.58 35.36,49.72 35.53,49.72 35.53,49.58 			"/>
		</g>
	</g>
</g>
<g>
	<g>
		<g>
			<polygon class="st0" points="34.87,49.58 34.7,49.58 34.7,49.72 34.87,49.72 34.87,49.58 			"/>
		</g>
	</g>
</g>
<g>
	<g>
		<g>
			<path class="st0" d="M35.11,46.86c-0.03,0-0.06,0.03-0.06,0.06c0,0.03,0.03,0.06,0.06,0.06c0.03,0,0.06-0.03,0.06-0.06
				C35.16,46.88,35.14,46.86,35.11,46.86L35.11,46.86z"/>
		</g>
	</g>
</g>
<g>
	<g>
		<g>
			<path class="st0" d="M34.45,46.86c-0.03,0-0.06,0.03-0.06,0.06c0,0.03,0.03,0.06,0.06,0.06c0.03,0,0.06-0.03,0.06-0.06
				C34.5,46.88,34.48,46.86,34.45,46.86L34.45,46.86z"/>
		</g>
	</g>
</g>
<g>
	<g>
		<g>
			<path class="st0" d="M35.44,46.86c-0.03,0-0.06,0.03-0.06,0.06c0,0.03,0.02,0.06,0.06,0.06c0.03,0,0.06-0.03,0.06-0.06
				C35.5,46.88,35.47,46.86,35.44,46.86L35.44,46.86z"/>
		</g>
	</g>
</g>
<g>
	<g>
		<g>
			<path class="st0" d="M34.79,46.86c-0.03,0-0.06,0.03-0.06,0.06c0,0.03,0.02,0.06,0.06,0.06c0.03,0,0.06-0.03,0.06-0.06
				C34.84,46.88,34.82,46.86,34.79,46.86L34.79,46.86z"/>
		</g>
	</g>
</g>
<g>
	<g>
		<g>
			<path class="st0" d="M35.11,49.83c-0.03,0-0.06,0.03-0.06,0.06c0,0.03,0.03,0.06,0.06,0.06c0.03,0,0.06-0.03,0.06-0.06
				C35.16,49.86,35.14,49.83,35.11,49.83L35.11,49.83z"/>
		</g>
	</g>
</g>
<g>
	<g>
		<g>
			<path class="st0" d="M34.45,49.83c-0.03,0-0.06,0.03-0.06,0.06c0,0.03,0.03,0.06,0.06,0.06c0.03,0,0.06-0.03,0.06-0.06
				C34.5,49.86,34.48,49.83,34.45,49.83L34.45,49.83z"/>
		</g>
	</g>
</g>
<g>
	<g>
		<g>
			<path class="st0" d="M35.44,49.83c-0.03,0-0.06,0.03-0.06,0.06c0,0.03,0.02,0.06,0.06,0.06c0.03,0,0.06-0.03,0.06-0.06
				C35.5,49.86,35.47,49.83,35.44,49.83L35.44,49.83z"/>
		</g>
	</g>
</g>
<g>
	<g>
		<g>
			<path class="st0" d="M34.79,49.83c-0.03,0-0.06,0.03-0.06,0.06c0,0.03,0.02,0.06,0.06,0.06c0.03,0,0.06-0.03,0.06-0.06
				C34.84,49.86,34.82,49.83,34.79,49.83L34.79,49.83z"/>
		</g>
	</g>
</g>
<g>
	<g>
		<g>
			<polygon class="st0" points="34.86,47.29 34,47.29 34,47.51 34.86,47.51 34.86,47.29 			"/>
		</g>
	</g>
</g>
<g>
	<g>
		<g>
			<polygon class="st0" points="35.9,47.29 35.04,47.29 35.04,47.51 35.9,47.51 35.9,47.29 			"/>
		</g>
	</g>
</g>
<g>
	<g>
		<g>
			<polygon class="st0" points="34.86,48 34,48 34,48.21 34.86,48.21 34.86,48 			"/>
		</g>
	</g>
</g>
<g>
	<g>
		<g>
			<polygon class="st0" points="35.9,48 35.04,48 35.04,48.21 35.9,48.21 35.9,48 			"/>
		</g>
	</g>
</g>
<g>
	<g>
		<g>
			<polygon class="st0" points="34.86,48.32 34,48.32 34,48.54 34.86,48.54 34.86,48.32 			"/>
		</g>
	</g>
</g>
<g>
	<g>
		<g>
			<polygon class="st0" points="35.9,48.32 35.04,48.32 35.04,48.54 35.9,48.54 35.9,48.32 			"/>
		</g>
	</g>
</g>
<g>
	<g>
		<g>
			<polygon class="st0" points="34.86,47.29 34,47.29 34,47.35 34.86,47.35 34.86,47.29 			"/>
		</g>
	</g>
</g>
<g>
	<g>
		<g>
			<polygon class="st0" points="35.9,47.29 35.04,47.29 35.04,47.35 35.9,47.35 35.9,47.29 			"/>
		</g>
	</g>
</g>
<g>
	<g>
		<g>
			<polygon class="st0" points="34.86,48 34,48 34,48.06 34.86,48.06 34.86,48 			"/>
		</g>
	</g>
</g>
<g>
	<g>
		<g>
			<polygon class="st0" points="35.9,48 35.04,48 35.04,48.06 35.9,48.06 35.9,48 			"/>
		</g>
	</g>
</g>
<g>
	<g>
		<g>
			<polygon class="st0" points="34.86,48.32 34,48.32 34,48.39 34.86,48.39 34.86,48.32 			"/>
		</g>
	</g>
</g>
<g>
	<g>
		<g>
			<polygon class="st0" points="35.9,48.32 35.04,48.32 35.04,48.39 35.9,48.39 35.9,48.32 			"/>
		</g>
	</g>
</g>
<g>
	<g>
		<g>
			<polygon class="st0" points="34.86,47.46 34,47.46 34,47.51 34.86,47.51 34.86,47.46 			"/>
		</g>
	</g>
</g>
<g>
	<g>
		<g>
			<polygon class="st0" points="35.9,47.46 35.04,47.46 35.04,47.51 35.9,47.51 35.9,47.46 			"/>
		</g>
	</g>
</g>
<g>
	<g>
		<g>
			<polygon class="st0" points="34.86,48.17 34,48.17 34,48.21 34.86,48.21 34.86,48.17 			"/>
		</g>
	</g>
</g>
<g>
	<g>
		<g>
			<polygon class="st0" points="35.9,48.17 35.04,48.17 35.04,48.21 35.9,48.21 35.9,48.17 			"/>
		</g>
	</g>
</g>
<g>
	<g>
		<g>
			<polygon class="st0" points="34.86,48.5 34,48.5 34,48.54 34.86,48.54 34.86,48.5 			"/>
		</g>
	</g>
</g>
<g>
	<g>
		<g>
			<polygon class="st0" points="35.9,48.5 35.04,48.5 35.04,48.54 35.9,48.54 35.9,48.5 			"/>
		</g>
	</g>
</g>
<g>
	<g>
		<g>
			<polygon class="st0" points="34.05,47.29 34,47.29 34,47.51 34.05,47.46 34.05,47.29 			"/>
		</g>
	</g>
</g>
<g>
	<g>
		<g>
			<polygon class="st0" points="35.08,47.29 35.03,47.29 35.03,47.51 35.08,47.46 35.08,47.29 			"/>
		</g>
	</g>
</g>
<g>
	<g>
		<g>
			<polygon class="st0" points="34.05,48 34,48 34,48.21 34.05,48.17 34.05,48 			"/>
		</g>
	</g>
</g>
<g>
	<g>
		<g>
			<polygon class="st0" points="35.08,48 35.03,48 35.03,48.21 35.08,48.17 35.08,48 			"/>
		</g>
	</g>
</g>
<g>
	<g>
		<g>
			<polygon class="st0" points="34.05,48.32 34,48.32 34,48.54 34.05,48.5 34.05,48.32 			"/>
		</g>
	</g>
</g>
<g>
	<g>
		<g>
			<polygon class="st0" points="35.08,48.32 35.03,48.32 35.03,48.54 35.08,48.5 35.08,48.32 			"/>
		</g>
	</g>
</g>
<g>
	<g>
		<g>
			<polygon class="st0" points="34.86,48.64 34,48.64 34,48.86 34.86,48.86 34.86,48.64 			"/>
		</g>
	</g>
</g>
<g>
	<g>
		<g>
			<polygon class="st0" points="35.9,48.64 35.04,48.64 35.04,48.86 35.9,48.86 35.9,48.64 			"/>
		</g>
	</g>
</g>
<g>
	<g>
		<g>
			<polygon class="st0" points="34.86,48.64 34,48.64 34,48.7 34.86,48.7 34.86,48.64 			"/>
		</g>
	</g>
</g>
<g>
	<g>
		<g>
			<polygon class="st0" points="35.9,48.64 35.04,48.64 35.04,48.7 35.9,48.7 35.9,48.64 			"/>
		</g>
	</g>
</g>
<g>
	<g>
		<g>
			<polygon class="st0" points="34.86,48.81 34,48.81 34,48.86 34.86,48.86 34.86,48.81 			"/>
		</g>
	</g>
</g>
<g>
	<g>
		<g>
			<polygon class="st0" points="35.9,48.81 35.04,48.81 35.04,48.86 35.9,48.86 35.9,48.81 			"/>
		</g>
	</g>
</g>
<g>
	<g>
		<g>
			<polygon class="st0" points="34.05,48.64 34,48.64 34,48.86 34.05,48.81 34.05,48.64 			"/>
		</g>
	</g>
</g>
<g>
	<g>
		<g>
			<polygon class="st0" points="35.08,48.64 35.03,48.64 35.03,48.86 35.08,48.81 35.08,48.64 			"/>
		</g>
	</g>
</g>
<g>
	<g>
		<g>
			<polygon class="st0" points="34.86,49.32 34,49.32 34,49.54 34.86,49.54 34.86,49.32 			"/>
		</g>
	</g>
</g>
<g>
	<g>
		<g>
			<polygon class="st0" points="35.9,49.32 35.04,49.32 35.04,49.54 35.9,49.54 35.9,49.32 			"/>
		</g>
	</g>
</g>
<g>
	<g>
		<g>
			<polygon class="st0" points="34.86,49.32 34,49.32 34,49.38 34.86,49.38 34.86,49.32 			"/>
		</g>
	</g>
</g>
<g>
	<g>
		<g>
			<polygon class="st0" points="35.9,49.32 35.04,49.32 35.04,49.38 35.9,49.38 35.9,49.32 			"/>
		</g>
	</g>
</g>
<g>
	<g>
		<g>
			<polygon class="st0" points="34.86,49.49 34,49.49 34,49.54 34.86,49.54 34.86,49.49 			"/>
		</g>
	</g>
</g>
<g>
	<g>
		<g>
			<polygon class="st0" points="35.9,49.49 35.04,49.49 35.04,49.54 35.9,49.54 35.9,49.49 			"/>
		</g>
	</g>
</g>
<g>
	<g>
		<g>
			<polygon class="st0" points="34.05,49.32 34,49.32 34,49.54 34.05,49.5 34.05,49.32 			"/>
		</g>
	</g>
</g>
<g>
	<g>
		<g>
			<polygon class="st0" points="35.08,49.32 35.03,49.32 35.03,49.54 35.08,49.5 35.08,49.32 			"/>
		</g>
	</g>
</g>
<g>
	<g>
		<g>
			<path class="st0" d="M34.79,46.9L34.79,46.9c-0.02,0-0.03,0.02-0.03,0.03v2.95c0,0.02,0.01,0.03,0.03,0.03l0,0
				c0.02,0,0.03-0.02,0.03-0.03v-2.95C34.82,46.92,34.8,46.9,34.79,46.9L34.79,46.9z"/>
		</g>
	</g>
</g>
<g>
	<g>
		<g>
			<path class="st0" d="M35.11,46.9L35.11,46.9c-0.02,0-0.03,0.02-0.03,0.03v2.95c0,0.02,0.01,0.03,0.03,0.03l0,0
				c0.02,0,0.03-0.02,0.03-0.03v-2.95C35.14,46.92,35.12,46.9,35.11,46.9L35.11,46.9z"/>
		</g>
	</g>
</g>
<g>
	<g>
		<g>
			<path class="st0" d="M35.44,46.9L35.44,46.9c-0.02,0-0.03,0.02-0.03,0.03v2.95c0,0.02,0.01,0.03,0.03,0.03l0,0
				c0.02,0,0.03-0.02,0.03-0.03v-2.95C35.47,46.92,35.46,46.9,35.44,46.9L35.44,46.9z"/>
		</g>
	</g>
</g>
<g>
	<g>
		<g>
			<path class="st0" d="M35.46,48.95H35.2c-0.01,0-0.02,0.01-0.02,0.02v0c0,0.01,0.01,0.02,0.02,0.02h0.26
				c0.01,0,0.02-0.01,0.02-0.02v0C35.47,48.96,35.47,48.95,35.46,48.95L35.46,48.95z"/>
		</g>
	</g>
</g>
<g>
	<g>
		<g>
			<path class="st0" d="M34.44,49.1h0.26c0.01,0,0.02,0.01,0.02,0.02v0c0,0.01-0.01,0.02-0.02,0.02h-0.26
				c-0.01,0-0.02-0.01-0.02-0.02v0C34.43,49.1,34.43,49.1,34.44,49.1L34.44,49.1z"/>
		</g>
	</g>
</g>
<g>
	<g>
		<g>
			<path class="st0" d="M34.8,48.95h-0.26c-0.01,0-0.02,0.01-0.02,0.02v0c0,0.01,0.01,0.02,0.02,0.02h0.26
				c0.01,0,0.02-0.01,0.02-0.02v0C34.81,48.96,34.81,48.95,34.8,48.95L34.8,48.95z"/>
		</g>
	</g>
</g>
<g>
	<g>
		<g>
			<path class="st0" d="M35.11,49.1h0.26c0.01,0,0.02,0.01,0.02,0.02v0c0,0.01-0.01,0.02-0.02,0.02h-0.26
				c-0.01,0-0.02-0.01-0.02-0.02v0C35.09,49.1,35.1,49.1,35.11,49.1L35.11,49.1z"/>
		</g>
	</g>
</g>
<g>
	<g>
		<g>
			<polygon class="st0" points="35.36,48.89 35.32,48.89 35.32,49.04 35.36,49.04 35.36,48.89 			"/>
		</g>
	</g>
</g>
<g>
	<g>
		<g>
			<polygon class="st0" points="34.54,49.04 34.58,49.04 34.58,49.19 34.54,49.19 34.54,49.04 			"/>
		</g>
	</g>
</g>
<g>
	<g>
		<g>
			<polygon class="st0" points="34.7,48.89 34.66,48.89 34.66,49.04 34.7,49.04 34.7,48.89 			"/>
		</g>
	</g>
</g>
<g>
	<g>
		<g>
			<polygon class="st0" points="35.2,49.04 35.24,49.04 35.24,49.19 35.2,49.19 35.2,49.04 			"/>
		</g>
	</g>
</g>
<g>
	<g>
		<g>
			<polygon class="st0" points="33.86,49.83 33.97,49.83 33.97,49.94 33.86,49.94 33.86,49.83 			"/>
		</g>
	</g>
</g>
<g>
	<g>
		<g>
			<polygon class="st0" points="35.93,49.83 36.04,49.83 36.04,49.94 35.93,49.94 35.93,49.83 			"/>
		</g>
	</g>
</g>
<g>
	<g>
		<g>
			<path class="st0" d="M36,49.6c-0.04,0-0.16-0.02-0.16,0.04l0,0c0,0.06,0.12,0.04,0.16,0.04V49.6L36,49.6z"/>
		</g>
	</g>
</g>
<g>
	<g>
		<g>
			<path class="st0" d="M33.9,49.6c0.04,0,0.16-0.02,0.16,0.04l0,0c0,0.06-0.11,0.04-0.16,0.04V49.6L33.9,49.6z"/>
		</g>
	</g>
</g>
<g>
	<g>
		<g>
			<path class="st0" d="M36,48.89c-0.04,0-0.16-0.02-0.16,0.04l0,0c0,0.06,0.12,0.04,0.16,0.04V48.89L36,48.89z"/>
		</g>
	</g>
</g>
<g>
	<g>
		<g>
			<path class="st0" d="M33.9,48.89c0.04,0,0.16-0.02,0.16,0.04l0,0c0,0.06-0.11,0.04-0.16,0.04V48.89L33.9,48.89z"/>
		</g>
	</g>
</g>
<g>
	<g>
		<g>
			<path class="st0" d="M36,47.14c-0.04,0-0.16-0.02-0.16,0.04l0,0c0,0.06,0.12,0.04,0.16,0.04V47.14L36,47.14z"/>
		</g>
	</g>
</g>
<g>
	<g>
		<g>
			<path class="st0" d="M33.9,47.14c0.04,0,0.16-0.02,0.16,0.04l0,0c0,0.06-0.11,0.04-0.16,0.04V47.14L33.9,47.14z"/>
		</g>
	</g>
</g>
<g>
	<g>
		<g>
			<path class="st0" d="M36,47.83c-0.04,0-0.16-0.02-0.16,0.04l0,0c0,0.06,0.12,0.04,0.16,0.04V47.83L36,47.83z"/>
		</g>
	</g>
</g>
<g>
	<g>
		<g>
			<path class="st0" d="M33.9,47.83c0.04,0,0.16-0.02,0.16,0.04l0,0c0,0.06-0.11,0.04-0.16,0.04V47.83L33.9,47.83z"/>
		</g>
	</g>
</g>
<g>
	<g>
		<g>
			<path class="st0" d="M35.99,49.64c-0.04,0-0.16-0.02-0.16,0.04l0,0c0,0.06,0.12,0.04,0.16,0.04V49.64L35.99,49.64z"/>
		</g>
	</g>
</g>
<g>
	<g>
		<g>
			<path class="st0" d="M33.91,49.64c0.04,0,0.16-0.02,0.16,0.04l0,0c0,0.06-0.11,0.04-0.16,0.04V49.64L33.91,49.64z"/>
		</g>
	</g>
</g>
<g>
	<g>
		<g>
			<path class="st0" d="M35.99,48.92c-0.04,0-0.16-0.02-0.16,0.04l0,0c0,0.06,0.12,0.04,0.16,0.04V48.92L35.99,48.92z"/>
		</g>
	</g>
</g>
<g>
	<g>
		<g>
			<path class="st0" d="M33.91,48.92c0.04,0,0.16-0.02,0.16,0.04l0,0c0,0.06-0.11,0.04-0.16,0.04V48.92L33.91,48.92z"/>
		</g>
	</g>
</g>
<g>
	<g>
		<g>
			<path class="st0" d="M35.99,47.17c-0.04,0-0.16-0.02-0.16,0.04l0,0c0,0.06,0.12,0.04,0.16,0.04V47.17L35.99,47.17z"/>
		</g>
	</g>
</g>
<g>
	<g>
		<g>
			<path class="st0" d="M33.91,47.17c0.04,0,0.16-0.02,0.16,0.04l0,0c0,0.06-0.11,0.04-0.16,0.04V47.17L33.91,47.17z"/>
		</g>
	</g>
</g>
<g>
	<g>
		<g>
			<path class="st0" d="M35.99,47.87c-0.04,0-0.16-0.02-0.16,0.04l0,0c0,0.06,0.12,0.04,0.16,0.04V47.87L35.99,47.87z"/>
		</g>
	</g>
</g>
<g>
	<g>
		<g>
			<path class="st0" d="M33.91,47.87c0.04,0,0.16-0.02,0.16,0.04l0,0c0,0.06-0.11,0.04-0.16,0.04V47.87L33.91,47.87z"/>
		</g>
	</g>
</g>
<g>
	<g>
		<g>
			<path class="st0" d="M36,49.62c-0.04,0-0.16-0.02-0.16,0.04l0,0c0,0.06,0.11,0.04,0.16,0.04V49.62L36,49.62z"/>
		</g>
	</g>
</g>
<g>
	<g>
		<g>
			<path class="st0" d="M33.9,49.62c0.04,0,0.16-0.02,0.16,0.04l0,0c0,0.06-0.11,0.04-0.16,0.04V49.62L33.9,49.62z"/>
		</g>
	</g>
</g>
<g>
	<g>
		<g>
			<path class="st0" d="M36,48.9c-0.04,0-0.16-0.02-0.16,0.04l0,0c0,0.06,0.11,0.04,0.16,0.04V48.9L36,48.9z"/>
		</g>
	</g>
</g>
<g>
	<g>
		<g>
			<path class="st0" d="M33.9,48.9c0.04,0,0.16-0.02,0.16,0.04l0,0c0,0.06-0.11,0.04-0.16,0.04V48.9L33.9,48.9z"/>
		</g>
	</g>
</g>
<g>
	<g>
		<g>
			<path class="st0" d="M36,47.15c-0.04,0-0.16-0.02-0.16,0.04l0,0c0,0.06,0.11,0.04,0.16,0.04V47.15L36,47.15z"/>
		</g>
	</g>
</g>
<g>
	<g>
		<g>
			<path class="st0" d="M33.9,47.15c0.04,0,0.16-0.02,0.16,0.04l0,0c0,0.06-0.11,0.04-0.16,0.04V47.15L33.9,47.15z"/>
		</g>
	</g>
</g>
<g>
	<g>
		<g>
			<path class="st0" d="M36,47.85c-0.04,0-0.16-0.02-0.16,0.04l0,0c0,0.06,0.11,0.04,0.16,0.04V47.85L36,47.85z"/>
		</g>
	</g>
</g>
<g>
	<g>
		<g>
			<path class="st0" d="M33.9,47.85c0.04,0,0.16-0.02,0.16,0.04l0,0c0,0.06-0.11,0.04-0.16,0.04V47.85L33.9,47.85z"/>
		</g>
	</g>
</g>
<g>
	<g>
		<g>
			<path class="st5" d="M34.36,47.7h-0.02v-0.02h-0.01v-0.02h0.01v-0.09h0.02l0.03,0.09v0.01h-0.03V47.7L34.36,47.7z M34.38,47.66
				l-0.02-0.06v0.06H34.38L34.38,47.66z"/>
		</g>
	</g>
</g>
<g>
	<g>
		<g>
			<path class="st5" d="M34.27,47.66c0,0.01,0,0.02,0.01,0.03c0,0.01,0.01,0.01,0.02,0.01c0.01,0,0.02,0,0.02-0.01
				c0-0.01,0.01-0.01,0.01-0.03v-0.01h-0.02v0.01c0,0.01,0,0.01,0,0.01c0,0,0,0-0.01,0c0,0-0.01,0-0.01,0c0,0,0-0.01,0-0.02
				c0-0.01,0-0.01,0-0.02c0,0,0-0.01,0.01-0.01h0.01v-0.01H34.3c0,0-0.01,0-0.01,0c0,0,0-0.01,0-0.01c0-0.01,0-0.01,0-0.01
				c0,0,0,0,0.01,0c0,0,0.01,0,0.01,0c0,0,0,0.01,0,0.01v0h0.02v0c0-0.01,0-0.02-0.01-0.03c0-0.01-0.01-0.01-0.02-0.01
				c-0.01,0-0.02,0-0.02,0.01c0,0.01-0.01,0.01-0.01,0.03c0,0.01,0,0.01,0,0.02c0,0,0.01,0.01,0.01,0.01c0,0-0.01,0.01-0.01,0.01
				C34.27,47.65,34.27,47.65,34.27,47.66L34.27,47.66z"/>
		</g>
	</g>
</g>
<g>
	<g>
		<g>
			<path class="st5" d="M34.23,47.68C34.23,47.68,34.23,47.68,34.23,47.68c0.01-0.01,0.01-0.01,0.01-0.02V47.6c0-0.01,0-0.01,0-0.01
				c0,0,0,0-0.01,0c0,0,0,0,0,0c0,0-0.01,0.01-0.01,0.02v0.06C34.22,47.67,34.22,47.68,34.23,47.68
				C34.22,47.68,34.22,47.68,34.23,47.68L34.23,47.68z M34.2,47.69c0-0.01-0.01-0.01-0.01-0.03V47.6c0-0.01,0-0.02,0.01-0.03
				c0-0.01,0.01-0.01,0.02-0.01c0.01,0,0.02,0,0.02,0.01s0.01,0.01,0.01,0.03v0.06c0,0.01,0,0.02-0.01,0.03
				c0,0.01-0.01,0.01-0.02,0.01C34.22,47.7,34.21,47.69,34.2,47.69L34.2,47.69z"/>
		</g>
	</g>
</g>
<g>
	<g>
		<g>
			<path class="st5" d="M34.16,47.62v-0.02c0-0.01,0-0.01,0-0.02c0,0,0,0-0.01,0c0,0-0.01,0-0.01,0c0,0,0,0.01,0,0.02v0h-0.02V47.6
				c0-0.01,0-0.02,0.01-0.02c0,0,0.01-0.01,0.02-0.01c0.01,0,0.01,0,0.02,0c0.01,0,0.01,0.02,0.01,0.03v0.05c0,0.01,0,0.02,0,0.02
				c0,0.01-0.01,0.01-0.03,0.02c-0.01,0-0.02,0-0.02-0.01c0-0.01-0.01-0.02-0.01-0.03v-0.01c0-0.01,0-0.02,0-0.03
				c0-0.01,0.01-0.01,0.02-0.01C34.15,47.62,34.16,47.62,34.16,47.62L34.16,47.62z M34.16,47.68c0,0,0-0.01,0-0.01v-0.02
				c0,0,0,0,0,0c0,0,0,0-0.01,0c0,0,0,0-0.01,0c0,0,0,0.01,0,0.02v0.01c0,0.01,0,0.01,0,0.01C34.15,47.68,34.15,47.68,34.16,47.68
				C34.16,47.68,34.16,47.68,34.16,47.68L34.16,47.68z"/>
		</g>
	</g>
</g>
<g>
	<g>
		<g>
			<path class="st5" d="M34.06,47.66v-0.05c0-0.01,0-0.02,0-0.02c0-0.01,0-0.01,0.01-0.01c0,0,0.01,0,0.02,0
				c0.01,0,0.01,0,0.02,0.01c0.01,0.01,0.01,0.02,0.01,0.03v0c0,0.01,0,0.02-0.01,0.03c0,0.01-0.01,0.01-0.02,0.01
				c-0.01,0-0.01,0-0.01,0v0.02c0,0.01,0,0.01,0,0.01c0,0,0,0,0,0c0,0,0,0,0.01,0c0,0,0,0,0.01,0c0,0,0-0.01,0-0.02v0h0.02v0.01
				c0,0.01,0,0.02-0.01,0.02c0,0-0.01,0.01-0.02,0.01s-0.02,0-0.02-0.01S34.06,47.67,34.06,47.66L34.06,47.66z M34.09,47.63
				C34.09,47.63,34.1,47.63,34.09,47.63c0.01-0.01,0.01-0.01,0.01-0.02V47.6c0-0.01,0-0.01,0-0.01c0,0,0,0-0.01,0c0,0-0.01,0-0.01,0
				c0,0,0,0.01,0,0.01L34.09,47.63C34.08,47.63,34.08,47.63,34.09,47.63L34.09,47.63z"/>
		</g>
	</g>
</g>
<g>
	<g>
		<g>
			<path class="st5" d="M34.04,47.7L34.04,47.7c0-0.01,0-0.02,0-0.03c0-0.01-0.01-0.01-0.01-0.02c0,0,0,0-0.01-0.01
				c0-0.01-0.01-0.01-0.01-0.01c0-0.01-0.01-0.01-0.01-0.03c0-0.01,0-0.02,0.01-0.02c0,0,0.01,0,0.01,0.01c0,0,0,0.01,0,0.01v0.02
				h0.02v-0.01c0-0.02,0-0.03,0-0.03c0-0.01-0.01-0.01-0.01-0.01c0,0-0.01,0-0.01,0c0,0-0.01,0-0.01,0c0,0-0.01,0-0.01,0.01
				c0,0.01-0.01,0.01-0.01,0.02c0,0.01,0,0.02,0.01,0.03c0,0.01,0.01,0.01,0.01,0.02c0.01,0.01,0.01,0.02,0.01,0.03h-0.03v0.02
				H34.04L34.04,47.7z"/>
		</g>
	</g>
</g>
<g>
	<g>
		<g>
			<path class="st5" d="M34.36,47.93h-0.02V47.9h-0.01v-0.02h0.01V47.8h0.02l0.03,0.09v0.01h-0.03V47.93L34.36,47.93z M34.37,47.89
				l-0.02-0.06v0.06H34.37L34.37,47.89z"/>
		</g>
	</g>
</g>
<g>
	<g>
		<g>
			<path class="st5" d="M34.32,47.93L34.32,47.93c0-0.01,0-0.02,0-0.03c0-0.01-0.01-0.01-0.01-0.02c0,0,0,0-0.01-0.01
				c0-0.01-0.01-0.01-0.01-0.01c0-0.01-0.01-0.01-0.01-0.03c0-0.01,0-0.02,0.01-0.02c0,0,0.01,0,0.01,0.01c0,0,0,0.01,0,0.01v0.02
				h0.02v-0.01c0-0.02,0-0.03,0-0.03c0-0.01-0.01-0.01-0.01-0.01c0,0-0.01,0-0.01,0c0,0-0.01,0-0.01,0c0,0-0.01,0-0.01,0.01
				c0,0.01-0.01,0.01-0.01,0.02c0,0.01,0,0.02,0.01,0.03c0,0.01,0.01,0.01,0.01,0.02c0.01,0.01,0.01,0.02,0.01,0.03h-0.03v0.02
				H34.32L34.32,47.93z"/>
		</g>
	</g>
</g>
<g>
	<g>
		<g>
			<path class="st5" d="M34.23,47.85v-0.02c0-0.01,0-0.01,0-0.02c0,0,0,0-0.01,0s-0.01,0-0.01,0c0,0,0,0.01,0,0.02v0H34.2v-0.01
				c0-0.01,0-0.02,0.01-0.02c0,0,0.01-0.01,0.02-0.01c0.01,0,0.01,0,0.02,0c0.01,0,0.01,0.02,0.01,0.03v0.05c0,0.01,0,0.02,0,0.02
				c0,0.01-0.01,0.01-0.03,0.02c-0.01,0-0.02,0-0.02-0.01c0-0.01-0.01-0.02-0.01-0.03v-0.01c0-0.01,0-0.02,0-0.03
				c0-0.01,0.01-0.01,0.02-0.01C34.22,47.85,34.23,47.85,34.23,47.85L34.23,47.85z M34.23,47.91c0,0,0-0.01,0-0.01v-0.02
				c0,0,0,0,0,0c0,0,0,0-0.01,0c0,0,0,0-0.01,0c0,0,0,0.01,0,0.01v0.01c0,0.01,0,0.01,0,0.01C34.22,47.91,34.22,47.91,34.23,47.91
				C34.23,47.91,34.23,47.91,34.23,47.91L34.23,47.91z"/>
		</g>
	</g>
</g>
<g>
	<g>
		<g>
			<path class="st5" d="M34.17,47.93v-0.1c0,0,0,0,0.01,0c0,0,0.01,0,0.01,0v-0.01c0,0-0.01,0-0.01,0c0,0-0.01-0.01-0.01-0.01h-0.01
				v0.13H34.17L34.17,47.93z"/>
		</g>
	</g>
</g>
<g>
	<g>
		<g>
			<path class="st0" d="M34.45,46.9L34.45,46.9c-0.02,0-0.03,0.02-0.03,0.03v2.95c0,0.02,0.01,0.03,0.03,0.03l0,0
				c0.02,0,0.03-0.02,0.03-0.03v-2.95C34.48,46.92,34.46,46.9,34.45,46.9L34.45,46.9z"/>
		</g>
	</g>
</g>
<g>
	<g>
		<g>
			<polygon class="st0" points="34.33,48.95 34.12,48.95 34.12,49.25 34.33,49.25 34.33,48.95 			"/>
		</g>
	</g>
</g>
<g>
	<g>
		<g>
			<polygon class="st0" points="34.33,49.61 34.12,49.61 34.12,49.7 34.33,49.7 34.33,49.61 			"/>
		</g>
	</g>
</g>
<g>
	<g>
		<g>
			<polygon class="st0" points="34.71,47.58 34.51,47.58 34.51,47.7 34.71,47.7 34.71,47.58 			"/>
		</g>
	</g>
</g>
<g>
	<g>
		<g>
			<polygon class="st0" points="43.14,46.81 36.12,46.81 36.12,50.01 43.14,50.01 43.14,46.81 			"/>
		</g>
	</g>
</g>
<g>
	<g>
		<g>
			<polygon class="st0" points="42.91,46.93 36.12,46.93 36.12,47.04 42.91,47.04 42.91,46.93 			"/>
		</g>
	</g>
</g>
<g>
	<g>
		<g>
			<polygon class="st0" points="39.41,46.98 39.46,46.98 39.46,49.82 39.41,49.82 39.41,46.98 			"/>
		</g>
	</g>
</g>
<g>
	<g>
		<g>
			<polygon class="st0" points="39.57,46.98 39.63,46.98 39.63,49.82 39.57,49.82 39.57,46.98 			"/>
		</g>
	</g>
</g>
<g>
	<g>
		<g>
			<polygon class="st0" points="39.74,46.98 39.79,46.98 39.79,49.82 39.74,49.82 39.74,46.98 			"/>
		</g>
	</g>
</g>
<g>
	<g>
		<g>
			<polygon class="st0" points="39.9,46.98 39.95,46.98 39.95,49.82 39.9,49.82 39.9,46.98 			"/>
		</g>
	</g>
</g>
<g>
	<g>
		<g>
			<polygon class="st0" points="40.06,46.98 40.12,46.98 40.12,49.82 40.06,49.82 40.06,46.98 			"/>
		</g>
	</g>
</g>
<g>
	<g>
		<g>
			<polygon class="st0" points="40.23,46.98 40.28,46.98 40.28,49.82 40.23,49.82 40.23,46.98 			"/>
		</g>
	</g>
</g>
<g>
	<g>
		<g>
			<polygon class="st0" points="40.39,46.98 40.44,46.98 40.44,49.82 40.39,49.82 40.39,46.98 			"/>
		</g>
	</g>
</g>
<g>
	<g>
		<g>
			<polygon class="st0" points="40.55,46.98 40.61,46.98 40.61,49.82 40.55,49.82 40.55,46.98 			"/>
		</g>
	</g>
</g>
<g>
	<g>
		<g>
			<polygon class="st0" points="40.72,46.98 40.77,46.98 40.77,49.82 40.72,49.82 40.72,46.98 			"/>
		</g>
	</g>
</g>
<g>
	<g>
		<g>
			<polygon class="st0" points="40.88,46.98 40.93,46.98 40.93,49.82 40.88,49.82 40.88,46.98 			"/>
		</g>
	</g>
</g>
<g>
	<g>
		<g>
			<polygon class="st0" points="41.04,46.98 41.1,46.98 41.1,49.82 41.04,49.82 41.04,46.98 			"/>
		</g>
	</g>
</g>
<g>
	<g>
		<g>
			<polygon class="st0" points="41.21,46.98 41.26,46.98 41.26,49.82 41.21,49.82 41.21,46.98 			"/>
		</g>
	</g>
</g>
<g>
	<g>
		<g>
			<polygon class="st0" points="41.37,46.98 41.42,46.98 41.42,49.82 41.37,49.82 41.37,46.98 			"/>
		</g>
	</g>
</g>
<g>
	<g>
		<g>
			<polygon class="st0" points="41.53,46.98 41.59,46.98 41.59,49.82 41.53,49.82 41.53,46.98 			"/>
		</g>
	</g>
</g>
<g>
	<g>
		<g>
			<polygon class="st0" points="41.7,46.98 41.75,46.98 41.75,49.82 41.7,49.82 41.7,46.98 			"/>
		</g>
	</g>
</g>
<g>
	<g>
		<g>
			<polygon class="st0" points="41.86,46.98 41.91,46.98 41.91,49.82 41.86,49.82 41.86,46.98 			"/>
		</g>
	</g>
</g>
<g>
	<g>
		<g>
			<polygon class="st0" points="42.02,46.98 42.08,46.98 42.08,49.82 42.02,49.82 42.02,46.98 			"/>
		</g>
	</g>
</g>
<g>
	<g>
		<g>
			<polygon class="st0" points="42.19,46.98 42.24,46.98 42.24,49.82 42.19,49.82 42.19,46.98 			"/>
		</g>
	</g>
</g>
<g>
	<g>
		<g>
			<polygon class="st0" points="42.35,46.98 42.4,46.98 42.4,49.82 42.35,49.82 42.35,46.98 			"/>
		</g>
	</g>
</g>
<g>
	<g>
		<g>
			<polygon class="st0" points="42.52,46.98 42.57,46.98 42.57,49.82 42.52,49.82 42.52,46.98 			"/>
		</g>
	</g>
</g>
<g>
	<g>
		<g>
			<polygon class="st0" points="42.68,46.98 42.73,46.98 42.73,49.82 42.68,49.82 42.68,46.98 			"/>
		</g>
	</g>
</g>
<g>
	<g>
		<g>
			<polygon class="st0" points="42.84,46.98 42.89,46.98 42.89,49.82 42.84,49.82 42.84,46.98 			"/>
		</g>
	</g>
</g>
<g>
	<g>
		<g>
			<polygon class="st0" points="36.47,46.98 36.52,46.98 36.52,49.82 36.47,49.82 36.47,46.98 			"/>
		</g>
	</g>
</g>
<g>
	<g>
		<g>
			<polygon class="st0" points="36.63,46.98 36.68,46.98 36.68,49.82 36.63,49.82 36.63,46.98 			"/>
		</g>
	</g>
</g>
<g>
	<g>
		<g>
			<polygon class="st0" points="36.79,46.98 36.85,46.98 36.85,49.82 36.79,49.82 36.79,46.98 			"/>
		</g>
	</g>
</g>
<g>
	<g>
		<g>
			<polygon class="st0" points="36.96,46.98 37.01,46.98 37.01,49.82 36.96,49.82 36.96,46.98 			"/>
		</g>
	</g>
</g>
<g>
	<g>
		<g>
			<polygon class="st0" points="37.12,46.98 37.17,46.98 37.17,49.82 37.12,49.82 37.12,46.98 			"/>
		</g>
	</g>
</g>
<g>
	<g>
		<g>
			<polygon class="st0" points="37.28,46.98 37.34,46.98 37.34,49.82 37.28,49.82 37.28,46.98 			"/>
		</g>
	</g>
</g>
<g>
	<g>
		<g>
			<polygon class="st0" points="37.45,46.98 37.5,46.98 37.5,49.82 37.45,49.82 37.45,46.98 			"/>
		</g>
	</g>
</g>
<g>
	<g>
		<g>
			<polygon class="st0" points="37.61,46.98 37.66,46.98 37.66,49.82 37.61,49.82 37.61,46.98 			"/>
		</g>
	</g>
</g>
<g>
	<g>
		<g>
			<polygon class="st0" points="37.77,46.98 37.83,46.98 37.83,49.82 37.77,49.82 37.77,46.98 			"/>
		</g>
	</g>
</g>
<g>
	<g>
		<g>
			<polygon class="st0" points="37.94,46.98 37.99,46.98 37.99,49.82 37.94,49.82 37.94,46.98 			"/>
		</g>
	</g>
</g>
<g>
	<g>
		<g>
			<polygon class="st0" points="38.1,46.98 38.15,46.98 38.15,49.82 38.1,49.82 38.1,46.98 			"/>
		</g>
	</g>
</g>
<g>
	<g>
		<g>
			<polygon class="st0" points="38.26,46.98 38.32,46.98 38.32,49.82 38.26,49.82 38.26,46.98 			"/>
		</g>
	</g>
</g>
<g>
	<g>
		<g>
			<polygon class="st0" points="38.43,46.98 38.48,46.98 38.48,49.82 38.43,49.82 38.43,46.98 			"/>
		</g>
	</g>
</g>
<g>
	<g>
		<g>
			<polygon class="st0" points="38.59,46.98 38.64,46.98 38.64,49.82 38.59,49.82 38.59,46.98 			"/>
		</g>
	</g>
</g>
<g>
	<g>
		<g>
			<polygon class="st0" points="38.75,46.98 38.81,46.98 38.81,49.82 38.75,49.82 38.75,46.98 			"/>
		</g>
	</g>
</g>
<g>
	<g>
		<g>
			<polygon class="st0" points="38.92,46.98 38.97,46.98 38.97,49.82 38.92,49.82 38.92,46.98 			"/>
		</g>
	</g>
</g>
<g>
	<g>
		<g>
			<polygon class="st0" points="39.08,46.98 39.13,46.98 39.13,49.82 39.08,49.82 39.08,46.98 			"/>
		</g>
	</g>
</g>
<g>
	<g>
		<g>
			<polygon class="st0" points="39.24,46.98 39.3,46.98 39.3,49.82 39.24,49.82 39.24,46.98 			"/>
		</g>
	</g>
</g>
<g>
	<g>
		<g>
			<polygon class="st0" points="42.93,46.81 36.12,46.81 36.12,46.93 42.93,46.93 42.93,46.81 			"/>
		</g>
	</g>
</g>
<g>
	<g>
		<g>
			<polygon class="st0" points="42.93,49.77 36.12,49.77 36.12,49.82 42.93,49.82 42.93,49.77 			"/>
		</g>
	</g>
</g>
<g>
	<g>
		<g>
			<polygon class="st0" points="42.93,49.87 36.12,49.87 36.12,49.94 42.93,49.94 42.93,49.87 			"/>
		</g>
	</g>
</g>
<g>
	<g>
		<g>
			<polygon class="st5" points="42.92,46.83 42.94,46.79 38.25,44.17 38.24,44.16 38.23,44.17 38.23,44.16 38.22,44.18 34.15,46.79 
				34.17,46.83 38.14,44.28 36.26,46.8 36.3,46.83 38.24,44.23 40.79,46.83 40.83,46.8 38.36,44.29 			"/>
		</g>
	</g>
</g>
<g>
	<g>
		<g>
			<polygon class="st1" points="38.52,43.19 38.13,43.19 38.13,43.65 38.32,43.82 38.52,43.65 38.52,43.19 			"/>
		</g>
	</g>
</g>
<g>
	<g>
		<g>
			<path class="st1" d="M38.34,42.77c-0.16,0-0.28,0.13-0.28,0.28c0,0.16,0.13,0.28,0.28,0.28c0.16,0,0.28-0.13,0.28-0.28
				C38.63,42.9,38.5,42.77,38.34,42.77L38.34,42.77z"/>
		</g>
	</g>
</g>
<g>
	<g>
		<g>
			<path class="st1" d="M38.29,42.78c-0.16,0-0.28,0.13-0.28,0.28c0,0.16,0.13,0.28,0.28,0.28c0.16,0,0.28-0.13,0.28-0.28
				C38.57,42.9,38.44,42.78,38.29,42.78L38.29,42.78z"/>
		</g>
	</g>
</g>
<g>
	<g>
		<g>
			<path class="st1" d="M38.32,42.92c-0.09,0-0.16,0.07-0.16,0.16c0,0.09,0.07,0.16,0.16,0.16c0.09,0,0.16-0.07,0.16-0.16
				C38.48,43,38.41,42.92,38.32,42.92L38.32,42.92z"/>
		</g>
	</g>
</g>
<g>
	<g>
		<g>
			<path class="st1" d="M38.27,42.88c-0.09,0-0.16,0.07-0.16,0.16s0.07,0.16,0.16,0.16c0.09,0,0.16-0.07,0.16-0.16
				S38.36,42.88,38.27,42.88L38.27,42.88z"/>
		</g>
	</g>
</g>
<g>
	<g>
		<g>
			<path class="st1" d="M38.29,42.9c-0.09,0-0.16,0.07-0.16,0.16s0.07,0.16,0.16,0.16c0.09,0,0.16-0.07,0.16-0.16
				S38.38,42.9,38.29,42.9L38.29,42.9z"/>
		</g>
	</g>
</g>
<rect x="49.45" y="59.09" class="st0" width="61.82" height="10.3"/>
<path class="st1" d="M45.2,72.25c-3.31,0.55-7.46-0.92-10.47-0.85c-3.01,0.07-3.95,0.98-7.98,1.02c-4.03,0.04-8.31-2.42-11.57-1.51
	c-4.54,1.27-9.42,3.54-13.61,3.8c4.86,0.23,8.92-1.77,13.44-2.83c3.29-0.78,7.64,1.19,11.67,1.15c4.03-0.04,4.97-0.95,7.98-1.02
	C35.93,71.98,42.33,73.2,45.2,72.25z"/>
<path class="st1" d="M60.18,77.6c-3.31,0.55-7.46-0.92-10.47-0.85c-3.01,0.07-3.95,0.98-7.98,1.02c-4.03,0.04-8.31-2.42-11.57-1.51
	c-4.54,1.27-9.42,3.54-13.61,3.8c4.86,0.23,8.92-1.77,13.44-2.83c3.29-0.78,7.64,1.19,11.67,1.15c4.03-0.04,4.97-0.95,7.98-1.02
	C50.91,77.33,57.31,78.54,60.18,77.6z"/>
<path class="st1" d="M90.54,70.94c-3.31,0.55-7.46-0.92-10.47-0.85c-3.01,0.07-3.95,0.98-7.98,1.02c-4.03,0.04-8.31-2.42-11.57-1.51
	c-4.54,1.27-9.42,3.54-13.61,3.8c4.86,0.23,8.92-1.77,13.44-2.83c3.29-0.78,7.64,1.19,11.67,1.15c4.03-0.04,4.97-0.95,7.98-1.02
	C81.27,70.67,87.67,71.88,90.54,70.94z"/>
<path class="st1" d="M113.13,74.27c-3.31,0.55-7.46-0.92-10.47-0.85c-3.01,0.07-3.95,0.98-7.98,1.02
	c-4.03,0.04-8.31-2.42-11.57-1.51c-4.54,1.27-9.42,3.54-13.61,3.8c4.86,0.23,8.92-1.77,13.44-2.83c3.29-0.78,7.64,1.19,11.67,1.15
	c4.03-0.04,4.97-0.95,7.98-1.02C103.86,74,110.26,75.21,113.13,74.27z"/>
<path class="st4" d="M42.51,53.36h-2.83v-0.67H39v-2.1h-0.39v2.1h-0.67v0.67h-2.83v3.75c1.72-0.65,3.7-1.27,3.7-1.27
	s1.98,0.62,3.7,1.27V53.36z M37.32,55.08h-1.52v-0.96h1.52V55.08z M37.87,55.08v-0.96h1.75l0.04,0.96H37.87z M41.82,55.08h-1.61
	l-0.04-0.96h1.65V55.08z"/>
<path class="st5" d="M31.6,60.01c2.81,3.76,4.12,3.47,3.6,9.07c-0.07,0.71,3.31,0,3.31,0V56.41C38.51,56.41,30.61,58.69,31.6,60.01z
	"/>
<path class="st5" d="M39.1,56.41v12.66c0,0,3.37,0.71,3.31,0c-0.52-5.59,0.79-5.31,3.6-9.07C47,58.69,39.1,56.41,39.1,56.41z"/>
<path class="st5" d="M103.26,56.63c0.37,0,0.63,0,0.99,0c0-6.2,0-12.4,0-18.75c2.06,1.03,4,1.99,5.92,2.98
	c0.16,0.08,0.29,0.39,0.29,0.6c0.01,5.28,0.01,10.57,0.01,15.85c0,0.1-0.04,0.21-0.07,0.36c-2.7,0-5.38,0-8.15,0
	c-0.01-0.31-0.04-0.61-0.04-0.9c0-2.64,0-5.28,0-7.93c0-1.46-0.53-1.97-2-1.98c-0.96,0-1.93,0-2.89-0.01
	c-0.05,0-0.11-0.02-0.22-0.05c0-2.91,0-5.84,0-8.88c0.37,0.18,0.71,0.34,1.04,0.5c1.48,0.73,2.94,1.49,4.43,2.2
	c0.51,0.24,0.71,0.53,0.71,1.12c-0.03,4.62-0.02,9.25-0.02,13.87C103.26,55.95,103.26,56.28,103.26,56.63z M105.87,41.76
	c0,1.41,0,2.71,0,4.04c1.03,0,2,0,2.98,0c0-1.38,0-2.71,0-4.04C107.83,41.76,106.88,41.76,105.87,41.76z M105.86,51.47
	c1.03,0,2,0,2.99,0c0-1.37,0-2.7,0-4.02c-1.03,0-2,0-2.99,0C105.86,48.82,105.86,50.13,105.86,51.47z M98.66,41.77
	c0,1.39,0,2.7,0,4.02c1.02,0,1.99,0,2.97,0c0-1.37,0-2.68,0-4.02C100.63,41.77,99.68,41.77,98.66,41.77z M108.87,56.63
	c0-1.19,0-2.33,0-3.5c-1.02,0-1.99,0-3,0c0,1.19,0,2.32,0,3.5C106.87,56.63,107.82,56.63,108.87,56.63z"/>
<path class="st4" d="M87.75,57.5c0-3.09,0-6.08,0-9.08c0-0.54,0.28-0.72,0.78-0.72c3.96,0,7.92,0,11.88,0
	c0.44,0,0.76,0.13,0.76,0.65c0,3.02,0,6.04,0,9.09c-0.8,0.18-1.35,0.21-1.8-0.69c-0.75-1.5-2.96-1.41-3.78,0.07
	c-0.12,0.21-0.2,0.45-0.33,0.73c-2.24,0-4.49,0-6.74,0C88.29,57.53,88.07,57.51,87.75,57.5z M89.34,48.8c0,2.57,0,5.08,0,7.62
	c0.34,0,0.63,0,0.95,0c0-2.56,0-5.07,0-7.62C89.95,48.8,89.66,48.8,89.34,48.8z M93.35,56.42c0-2.57,0-5.1,0-7.63
	c-0.33,0-0.6,0-0.91,0c0,2.56,0,5.07,0,7.63C92.75,56.42,93.04,56.42,93.35,56.42z M95.56,48.79c0,2.07,0,4.09,0,6.15
	c0.34-0.02,0.63-0.03,0.92-0.04c0-2.07,0-4.07,0-6.11C96.17,48.79,95.9,48.79,95.56,48.79z M98.67,48.8c0,2.07,0,4.09,0,6.15
	c0.35-0.02,0.63-0.03,0.92-0.04c0-2.07,0-4.06,0-6.1C99.28,48.8,99.01,48.8,98.67,48.8z"/>
<path class="st5" d="M91.07,44.99c-0.16-0.31-0.29-0.57-0.42-0.82c3.31-2.6,4.16-5.64,2.47-8.62c-1.48-2.61-4.64-3.78-7.48-2.75
	c-3.08,1.11-4.57,4.03-3.86,7.71c-0.28,0.1-0.57,0.2-0.86,0.3c-1.33-3.14,0.49-7.26,3.83-8.77c3.58-1.63,7.8-0.08,9.5,3.49
	C95.92,38.99,94.53,43.22,91.07,44.99z"/>
<path class="st5" d="M86.73,50.3c0,0.83,0,1.54,0,2.25c0,0.24,0,0.49,0,0.79c-1.56,0-3.06,0-4.74,0c0.65-1.02,1.24-1.99,1.87-2.93
	c0.07-0.11,0.35-0.1,0.54-0.11C85.14,50.3,85.88,50.3,86.73,50.3z"/>
<path class="st5" d="M81.6,57.45c0-0.98,0-1.96,0-2.97c1.7,0,3.36,0,5.07,0c0,0.92,0,1.8,0,2.81c-0.18-0.23-0.29-0.39-0.42-0.55
	c-0.94-1.12-2.61-1.04-3.34,0.23C82.57,57.58,82.19,57.61,81.6,57.45z"/>
<path class="st4" d="M107.39,34.52c0.72,0,1.34,0,2,0c0,1.57,0,3.11,0,4.77c-0.6-0.3-1.17-0.55-1.7-0.87
	c-0.16-0.1-0.28-0.39-0.28-0.6C107.37,36.75,107.39,35.68,107.39,34.52z"/>
<path class="st4" d="M101.1,38.76c-0.61-0.3-1.18-0.55-1.72-0.85c-0.13-0.07-0.24-0.3-0.25-0.46c-0.02-0.95-0.01-1.91-0.01-2.91
	c0.68,0,1.3,0,1.98,0C101.1,35.91,101.1,37.28,101.1,38.76z"/>
<path class="st3" d="M98.68,57.84c0.02,0.67-0.51,1.22-1.17,1.22c-0.63,0-1.15-0.51-1.17-1.14c-0.02-0.69,0.48-1.21,1.17-1.21
	C98.17,56.72,98.66,57.19,98.68,57.84z"/>
<path class="st3" d="M85.67,58.13c-0.11,0.6-0.46,0.94-1.07,0.93c-0.57-0.01-1.02-0.54-0.97-1.11c0.05-0.57,0.58-1,1.16-0.91
	C85.4,57.13,85.66,57.53,85.67,58.13z"/>
<path class="st4" d="M99.17,33.37c0-0.29,0-0.58,0-0.91c0.66,0,1.27,0,1.95,0c0.02,0.29,0.03,0.55,0.05,0.91
	C100.49,33.37,99.84,33.37,99.17,33.37z"/>
<path class="st4" d="M109.38,33.42c-0.65,0-1.26,0-1.96,0c-0.01-0.3-0.03-0.58-0.04-0.93c0.69,0,1.32,0,2,0
	C109.38,32.79,109.38,33.08,109.38,33.42z"/>
<path class="st3" d="M81.61,42.49c0.35-0.22,0.58-0.37,0.86-0.55c0.32,0.38,0.62,0.75,1,1.2c-0.25,0.22-0.46,0.42-0.75,0.68
	C82.34,43.38,82,42.96,81.61,42.49z"/>
<path class="st3" d="M86.08,45.68c-0.61-0.22-1.09-0.4-1.67-0.61c0.18-0.34,0.31-0.61,0.47-0.9c0.47,0.17,0.88,0.31,1.39,0.49
	C86.21,44.94,86.16,45.24,86.08,45.68z"/>
<path class="st3" d="M87.79,45.88c0-0.42,0-0.71,0-1.05c0.46-0.05,0.89-0.09,1.36-0.14c0.09,0.31,0.17,0.59,0.28,0.97
	C88.87,45.74,88.37,45.81,87.79,45.88z"/>
<path class="st5" d="M106.94,42.78c0.33,0,0.6,0,0.91,0c0,0.65,0,1.27,0,1.99c-0.27,0.01-0.56,0.03-0.91,0.05
	C106.94,44.11,106.94,43.48,106.94,42.78z"/>
<path class="st5" d="M106.9,50.43c0-0.67,0-1.27,0-1.94c0.31,0,0.59,0,0.94,0c0,0.63,0,1.27,0,1.94
	C107.52,50.43,107.22,50.43,106.9,50.43z"/>
<path class="st5" d="M99.66,44.75c0-0.67,0-1.28,0-1.97c0.29-0.02,0.58-0.03,0.93-0.05c0,0.68,0,1.32,0,2.02
	C100.31,44.75,100.02,44.75,99.66,44.75z"/>
<path class="st5" d="M107.86,55.61c-0.31,0.01-0.57,0.03-0.91,0.04c0-0.5,0-0.97,0-1.49c0.3,0,0.59,0,0.91,0
	C107.86,54.66,107.86,55.11,107.86,55.61z"/>
<path class="st4" d="M91.72,37.82h-0.67c-0.08,0-0.15-0.05-0.17-0.13c-0.07-0.24-0.17-0.47-0.29-0.69
	c-0.04-0.07-0.03-0.15,0.03-0.21l0.47-0.47c0.07-0.07,0.07-0.18,0-0.25l-0.82-0.82c-0.07-0.07-0.18-0.07-0.25,0l-0.47,0.47
	c-0.06,0.06-0.14,0.07-0.21,0.03c-0.22-0.12-0.45-0.22-0.69-0.29c-0.08-0.02-0.13-0.09-0.13-0.17v-0.67c0-0.1-0.08-0.17-0.17-0.17
	h-1.15c-0.1,0-0.17,0.08-0.17,0.17v0.67c0,0.08-0.05,0.15-0.13,0.17c-0.24,0.07-0.47,0.17-0.69,0.29c-0.07,0.04-0.15,0.03-0.21-0.03
	l-0.47-0.47c-0.07-0.07-0.18-0.07-0.25,0l-0.82,0.82c-0.07,0.07-0.07,0.18,0,0.25l0.47,0.47c0.06,0.06,0.07,0.14,0.03,0.21
	c-0.12,0.22-0.22,0.45-0.29,0.69c-0.02,0.08-0.09,0.13-0.17,0.13h-0.67c-0.1,0-0.17,0.08-0.17,0.17v1.16c0,0.1,0.08,0.17,0.17,0.17
	h0.67c0.08,0,0.15,0.05,0.17,0.13c0.07,0.24,0.16,0.47,0.29,0.69c0.04,0.07,0.03,0.15-0.03,0.21l-0.47,0.47
	c-0.07,0.07-0.07,0.18,0,0.25l0.82,0.82c0.07,0.07,0.18,0.07,0.25,0L86,41.41c0.06-0.06,0.14-0.07,0.21-0.03
	c0.22,0.12,0.45,0.22,0.69,0.29c0.08,0.02,0.13,0.09,0.13,0.17v0.67c0,0.1,0.08,0.17,0.17,0.17h1.15c0.1,0,0.17-0.08,0.17-0.17
	v-0.67c0-0.08,0.05-0.15,0.13-0.17c0.24-0.07,0.47-0.16,0.69-0.29c0.07-0.04,0.15-0.03,0.21,0.03l0.47,0.47
	c0.07,0.07,0.18,0.07,0.25,0l0.82-0.82c0.07-0.07,0.07-0.18,0-0.25l-0.47-0.47c-0.06-0.06-0.07-0.14-0.03-0.21
	c0.12-0.22,0.22-0.45,0.29-0.69c0.02-0.08,0.09-0.13,0.17-0.13h0.67c0.1,0,0.17-0.08,0.17-0.17v-1.16
	C91.9,37.9,91.82,37.82,91.72,37.82 M87.79,40.25c-0.93,0-1.68-0.75-1.68-1.68c0-0.93,0.75-1.68,1.68-1.68
	c0.93,0,1.68,0.75,1.68,1.68C89.47,39.5,88.71,40.25,87.79,40.25"/>
<path class="st1" d="M4.38,70.02c3.31,0.51,7.46-1.01,10.47-0.98c3.01,0.03,3.98,0.7,8.01,0.69c4.03-0.01,8.82-2.19,11.95-1.44
	c4.57,1.09,7.92,2.03,13.97-0.25c-5.01,3.38-9.59,2.12-14.16,1.35c-3.32-0.56-7.69,1.17-11.72,1.18c-4.03,0.01-4.97-0.89-7.98-0.93
	C13.65,69.64,7.25,70.93,4.38,70.02z"/>
</svg>
