<?xml version="1.0" encoding="utf-8"?>
<!-- Generator: Adobe Illustrator 25.0.0, SVG Export Plug-In . SVG Version: 6.00 Build 0)  -->
<svg version="1.1" id="Layer_1" xmlns="http://www.w3.org/2000/svg" xmlns:xlink="http://www.w3.org/1999/xlink" x="0px" y="0px"
	 viewBox="0 0 100 100" style="enable-background:new 0 0 100 100;" xml:space="preserve">
<style type="text/css">
	.st0{fill-rule:evenodd;clip-rule:evenodd;fill:#40875E;}
	.st1{fill-rule:evenodd;clip-rule:evenodd;fill:#A8A240;}
	.st2{fill:none;}
	.st3{fill:#F0AB00;}
	.st4{fill:#A8A240;}
	.st5{fill:#40875E;}
	.st6{fill-rule:evenodd;clip-rule:evenodd;fill:#F0AB00;}
	.st7{fill-rule:evenodd;clip-rule:evenodd;fill:#0B4A99;}
	.st8{fill:none;stroke:#F0AB00;stroke-miterlimit:10;}
	.st9{fill:#A8A240;stroke:#F0AB00;stroke-width:2;stroke-miterlimit:10;}
	.st10{fill:#F0AB00;stroke:#A8A240;stroke-width:3;stroke-miterlimit:10;}
	.st11{fill:#3E865F;}
	.st12{fill:#EFAA03;}
	.st13{fill:#A6A13E;}
	.st14{fill:#0B4A99;}
	.st15{fill:#F5B026;}
	.st16{fill:#FFCD2E;}
	.st17{fill:#D4D2D2;}
	.st18{fill:#E3E4E3;}
	.st19{fill:#FBD97C;}
	.st20{fill:#57BEC5;}
	.st21{fill:#469BA3;}
	.st22{fill:#CB151A;}
	.st23{fill:url(#SVGID_1_);}
	.st24{fill:url(#SVGID_2_);}
	.st25{fill:url(#SVGID_3_);}
	.st26{fill:#CFCFCE;}
	.st27{fill:#D4D3D3;}
	.st28{fill:#E4E5E3;}
	.st29{fill:#A2BAD0;}
	.st30{fill:#4B708F;}
	.st31{fill:#8AA4BE;}
	.st32{fill:#CCCACA;}
	.st33{opacity:0.59;fill:#3E865F;}
	.st34{opacity:0.6;}
	.st35{fill:#3F5B7A;}
	.st36{opacity:0.2;}
	.st37{fill:#516D8C;}
	.st38{fill-rule:evenodd;clip-rule:evenodd;fill:#CC8E05;}
	.st39{fill:url(#SVGID_4_);}
	.st40{fill:none;stroke:#40875E;stroke-width:2;stroke-miterlimit:10;}
	.st41{fill:url(#SVGID_5_);}
	.st42{fill:url(#SVGID_6_);}
	.st43{fill:url(#SVGID_7_);}
	.st44{opacity:0.44;fill:#40875E;}
</style>
<polygon class="st2" points="61.51,95.61 61.68,94.82 61.2,97.04 "/>
<path class="st2" d="M61.68,94.82l8.67-3.95l3.56,1.17l0.08-0.38l-0.08,0.38l0.01,0l0.99-0.59l-0.26-0.09l-0.64-0.21l0.64,0.21
	l-3.13-1.03l3.86-1.76l0.8,0.33l0.33,1.43l0.14-0.63l-0.14,0.63l0.01,0.06l2.88-2.06l-0.34-1.1l0.34,1.1l0.01-0.01l-0.8-3.71
	c6.56-4.88,13.84-14.49,14.21-14.99h0.75v-3.37l-6.69-2.21c2.65-2.9,4.72-5.41,5.57-6.46h1.12v-6.85l-7.41-2.44
	c3.05-4.12,5.37-7.67,6.18-8.93h1.22v-6.84l-17.85-5.89v-1.19l-4.05-9.25H67.2l-3.7,10.39l-18.03,5.95v5.89l-0.68,0.09
	C36.84,58.75,29.23,71.77,24.27,79.1V41.06l12.48,6.79c0,0,1.88,0.63,2.94,0.72l-4.77-3.57l-9.64-5.59c0,0,0.77-1.54-0.87-2.7
	l-0.14-12.29c0,0-0.1-3.28-2.31-4.91v17.25c0,0-2.31,0.15-1.83,3.28L6.05,49.49c0,0,1.93-0.19,3.09-0.58l9.16-5.54l2.6-1.45V83.8
	c-1.47,1.93-2.32,2.83-2.32,2.83l0.72,0.63c0.52-0.47,1.06-1.01,1.6-1.59v2.8l3.07,2.17l0.7,0.51c8.94-9.79,17.68-27.04,20.83-33.56
	h1.33v-5.88h16.62v8.62l-17.97,5.93v5.87h-0.18c-9.38,15.91-15.78,21.66-15.78,21.66l0.76,0.36c6.61-6.09,13.49-17.63,15.46-21.05
	h1.09v-5.88h16.62v4.34l-1.03,4.53C44.9,91.27,34.6,95.85,34.6,95.85l0.94,0.33C45.09,91.85,56.8,82.36,62,77.94l-2.56,11.29
	c-7.99,6.57-13.27,9.04-13.27,9.04l0.69,0.03c4.03-1.83,9.07-5.57,12.39-8.22l-1.73,7.64l3.68-0.68l0.26-1.19l-0.26,1.19l0.01,0
	L61.68,94.82z M70.28,89.93l-5.11-1.69l4.5-2.04l4.6,1.91L70.28,89.93z M69.66,85.24l-3.52-1.46l3.47-1.53l3.48,1.44L69.66,85.24z
	 M92.23,69.47l-0.1-0.02c-6.46,7.64-11.28,12.31-13.66,14.48l-2.11-9.86c2.53-1.94,5.15-4.4,7.54-6.84h8.34V69.47z M89.63,65.97
	h-4.53c0.34-0.36,0.68-0.72,1.01-1.08L89.63,65.97z M84.86,65.13v-0.62l0.44,0.14C85.16,64.81,85.01,64.98,84.86,65.13z
	 M92.23,56.98l-0.27-0.03c-2.15,2.63-4.11,4.89-5.87,6.84l-10.21-3.37c2.63-2.53,5.29-5.64,7.7-8.71h8.65V56.98z M89.63,50.46h-4.77
	v-0.41c0.22-0.29,0.43-0.57,0.65-0.86L89.63,50.46z M84.86,30.78l4.77,1.46h-4.77V30.78z M75.73,27.98l5.59,1.71v0.78h-3v1.12h3.65
	v-0.83h0.58v-0.69l1.08,0.33v1.84h-7.9V27.98z M75.73,33.49h16.5v5.39h-0.63c-2.31,3.53-4.41,6.55-6.3,9.13l-9.57-3.16V33.49z
	 M75.73,46.19l5.59,1.72v0.78h-3v1.12h3.65v-0.83h0.58v-0.69l1.08,0.33v1.65c-0.05,0.06-0.09,0.13-0.14,0.19h-7.76V46.19z
	 M75.73,51.71h6.8c-3.19,4.13-5.52,6.7-6.8,8.02V51.71z M75.73,61.71l5.59,1.71v0.78h-3v1.12h3.65v-0.83h0.58V63.8l1.08,0.33v1.84
	h-7.9V61.71z M75.73,67.22h7.15c-3.14,3.25-5.39,5.24-6.65,6.27l-0.51-2.37V67.22z M75.83,87.41l-0.46,0.21l-4.59-1.91l3.44-1.56
	l0.94,0.39L75.83,87.41z M74.78,82.92l-0.58,0.26l-3.46-1.43l3.42-1.51L74.78,82.92z M73.68,78.22l-2.88-1.23l2.36-1.03L73.68,78.22
	z M70.42,18.76h0.65v1.59h-0.65V18.76z M67.82,18.76h0.65v1.59h-0.65V18.76z M66.48,25.59l2.89-4.19l2.89,4.34v0.58h-5.78V25.59z
	 M66.48,27.13h5.78v0.56l-2.83,1.73l-2.96-1.81V27.13z M72.26,28.49v2.67l-2.18-1.34L72.26,28.49z M66.48,28.41l2.31,1.42
	l-2.31,1.42V28.41z M66.48,32.03l2.96-1.81l2.83,1.73v0.63h-5.78V32.03z M66.48,33.4h5.78v0.49l-2.83,1.73l-2.96-1.81V33.4z
	 M72.26,34.68v2.67l-2.18-1.34L72.26,34.68z M66.48,34.6l2.31,1.42l-2.31,1.42V34.6z M66.48,38.22l2.96-1.81l2.83,1.73v1.72
	l-2.83,1.73l-2.96-1.81V38.22z M72.26,40.65v2.67l-2.18-1.34L72.26,40.65z M66.48,40.57l2.31,1.42l-2.31,1.42V40.57z M66.48,44.2
	l2.96-1.81l2.83,1.73v0.56h-5.78V44.2z M66.48,45.49h5.78v0.42l-2.83,1.73l-2.96-1.81V45.49z M72.26,46.7v2.67l-2.18-1.34
	L72.26,46.7z M66.48,46.62l2.31,1.42l-2.31,1.42V46.62z M66.48,50.25l2.96-1.81l2.83,1.73v0.58h-5.78V50.25z M66.48,51.57h5.78v0.1
	l-2.83,1.73l-2.96-1.82V51.57z M72.26,52.46v2.67l-2.18-1.34L72.26,52.46z M66.48,52.38l2.31,1.42l-2.31,1.42V52.38z M66.48,56
	l2.96-1.81l2.83,1.73v0.33l-2.83,1.74l-2.96-1.82V56z M70.08,58.38l2.18-1.34v2.67L70.08,58.38z M72.23,60.5h-5.59l2.79-1.71
	L72.23,60.5z M66.48,56.97l2.31,1.42l-2.31,1.42V56.97z M66.48,61.31h5.78v0.11l-2.83,1.73l-2.96-1.82V61.31z M72.26,62.22v2.67
	l-2.18-1.34L72.26,62.22z M66.48,62.14l2.31,1.42l-2.31,1.42V62.14z M66.48,65.76l2.96-1.81l2.83,1.73v0.77h-5.78V65.76z
	 M70.08,69.48l2.18-1.34v2.67L70.08,69.48z M72.26,71.61v0.05h-5.74l2.91-1.78L72.26,71.61z M69.44,69.09l-2.95-1.81h5.78v0.08
	L69.44,69.09z M66.48,68.06l2.31,1.42l-2.31,1.42V68.06z M66.48,72.57v-0.09h5.86l0.61,2.6l-3.28,1.43l-3.7-1.58L66.48,72.57z
	 M65.78,75.81L68.56,77l-3.35,1.46L65.78,75.81z M69.68,77.48l4.26,1.82l0.01,0.06l-4.35,1.92l-4.43-1.84L69.68,77.48z M64.82,80.26
	l3.66,1.52l-3.47,1.53l-0.77-0.32L64.82,80.26z M55.42,30.4l1.08-0.33v0.69h0.58v0.83h3.65v-1.12h-3v-0.78l5.71-1.75v4.3h-8.02V30.4
	z M54.19,30.78v1.46h-4.77L54.19,30.78z M45.47,50.74v4.36l-0.29,0.03C34.09,78.3,25.91,88.38,24.27,90.3v-8.77
	c9.37-12.88,19.47-36.86,21.64-42.16h0.91v-5.88h16.62v11.33L45.47,50.74z M54.19,50.46h-4.77l4.77-1.46V50.46z M55.42,50.46v-1.84
	l1.08-0.33v0.69h0.58v0.83h3.65v-1.12h-3v-0.78l5.71-1.75v4.3H55.42z M54.19,65.97h-4.77l4.77-1.46V65.97z M55.42,65.97v-1.84
	l1.08-0.33v0.69h0.58v0.83h3.65V64.2h-3v-0.78l5.71-1.75v4.3H55.42z M63.85,84.78l1.17-0.52l3.54,1.47l-4.63,2.1l-0.69-0.23
	L63.85,84.78z M62.88,89.29l1.12-0.51l5.12,1.68l-7.19,3.27L62.88,89.29z"/>
<polygon class="st4" points="66.48,40.57 66.48,43.41 68.79,41.99 "/>
<polygon class="st4" points="72.26,44.12 69.44,42.39 66.48,44.2 66.48,44.68 72.26,44.68 "/>
<polygon class="st4" points="72.26,45.91 72.26,45.49 66.48,45.49 66.48,45.83 69.44,47.64 "/>
<polygon class="st4" points="72.26,39.86 72.26,38.14 69.44,36.41 66.48,38.22 66.48,39.78 69.44,41.6 "/>
<polygon class="st4" points="72.26,34.68 70.08,36.02 72.26,37.35 "/>
<polygon class="st4" points="72.26,40.65 70.08,41.99 72.26,43.33 "/>
<polygon class="st4" points="72.26,46.7 70.08,48.04 72.26,49.37 "/>
<polygon class="st4" points="66.48,34.6 66.48,37.43 68.79,36.02 "/>
<polygon class="st4" points="66.64,60.5 72.23,60.5 69.44,58.78 "/>
<polygon class="st4" points="66.48,52.38 66.48,55.21 68.79,53.8 "/>
<polygon class="st4" points="66.48,46.62 66.48,49.45 68.79,48.04 "/>
<polygon class="st4" points="72.26,57.05 70.08,58.38 72.26,59.72 "/>
<polygon class="st4" points="72.26,52.46 70.08,53.8 72.26,55.13 "/>
<polygon class="st4" points="72.26,50.17 69.44,48.44 66.48,50.25 66.48,50.75 72.26,50.75 "/>
<polygon class="st4" points="72.26,51.67 72.26,51.57 66.48,51.57 66.48,51.59 69.44,53.4 "/>
<polygon class="st4" points="72.26,56.26 72.26,55.92 69.44,54.19 66.48,56 66.48,56.18 69.44,57.99 "/>
<polygon class="st4" points="83.63,64.13 82.55,63.8 82.55,64.49 81.98,64.49 81.98,65.32 78.32,65.32 78.32,64.2 81.32,64.2 
	81.32,63.42 75.73,61.71 75.73,65.97 83.63,65.97 "/>
<path class="st5" d="M75.73,51.71v8.02c1.28-1.32,3.61-3.89,6.8-8.02H75.73z"/>
<polygon class="st4" points="74.2,83.18 74.78,82.92 74.15,80.23 70.74,81.75 "/>
<polygon class="st4" points="84.86,30.78 84.86,32.24 89.63,32.24 "/>
<polygon class="st4" points="73.68,78.22 73.15,75.96 70.8,76.99 "/>
<path class="st4" d="M83.63,50.27v-1.65l-1.08-0.33v0.69h-0.58v0.83h-3.65v-1.12h3v-0.78l-5.59-1.72v4.26h7.76
	C83.54,50.4,83.59,50.33,83.63,50.27z"/>
<polygon class="st4" points="83.63,30.4 82.55,30.07 82.55,30.76 81.98,30.76 81.98,31.59 78.32,31.59 78.32,30.47 81.32,30.47 
	81.32,29.69 75.73,27.98 75.73,32.24 83.63,32.24 "/>
<polygon class="st4" points="72.26,27.7 72.26,27.13 66.48,27.13 66.48,27.61 69.44,29.43 "/>
<polygon class="st4" points="66.48,28.41 66.48,31.24 68.79,29.82 "/>
<rect x="70.42" y="18.76" class="st4" width="0.65" height="1.59"/>
<polygon class="st4" points="72.26,31.95 69.44,30.22 66.48,32.03 66.48,32.58 72.26,32.58 "/>
<polygon class="st4" points="72.26,28.49 70.08,29.82 72.26,31.16 "/>
<rect x="67.82" y="18.76" class="st4" width="0.65" height="1.59"/>
<polygon class="st4" points="72.26,25.74 69.37,21.4 66.48,25.59 66.48,26.32 72.26,26.32 "/>
<polygon class="st4" points="72.26,33.89 72.26,33.4 66.48,33.4 66.48,33.81 69.44,35.62 "/>
<polygon class="st4" points="69.61,82.24 66.14,83.77 69.66,85.24 73.09,83.68 "/>
<polygon class="st4" points="63.99,88.78 62.88,89.29 61.92,93.74 69.11,90.47 "/>
<polygon class="st4" points="65.18,88.25 70.28,89.93 74.27,88.12 69.67,86.21 "/>
<polygon class="st4" points="68.56,85.74 65.02,84.27 63.85,84.78 63.24,87.61 63.93,87.84 "/>
<polygon class="st4" points="70.78,85.71 75.37,87.62 75.83,87.41 75.16,84.54 74.22,84.14 "/>
<polygon class="st4" points="63.44,61.67 57.74,63.42 57.74,64.2 60.73,64.2 60.73,65.32 57.08,65.32 57.08,64.49 56.51,64.49 
	56.51,63.8 55.42,64.13 55.42,65.97 63.44,65.97 "/>
<polygon class="st4" points="54.19,50.46 54.19,48.99 49.42,50.46 "/>
<path class="st5" d="M82.89,67.22h-7.15v3.9l0.51,2.37C77.49,72.46,79.75,70.47,82.89,67.22z"/>
<polygon class="st4" points="54.19,65.97 54.19,64.51 49.42,65.97 "/>
<polygon class="st4" points="63.44,46.16 57.74,47.91 57.74,48.69 60.73,48.69 60.73,49.81 57.08,49.81 57.08,48.98 56.51,48.98 
	56.51,48.28 55.42,48.62 55.42,50.46 63.44,50.46 "/>
<path class="st5" d="M91.61,38.88h0.63v-5.39h-16.5v11.36l9.57,3.16C87.2,45.43,89.3,42.41,91.61,38.88z"/>
<path class="st4" d="M84.86,50.05v0.41h4.77l-4.12-1.26C85.3,49.48,85.08,49.77,84.86,50.05z"/>
<path class="st4" d="M76.18,88.91l-0.8-0.33l-3.86,1.76l3.13,1.03l0.29,0.09c0.52-0.32,1.03-0.65,1.54-0.99l0.03-0.13L76.18,88.91z"
	/>
<path class="st4" d="M70.35,90.87l-8.67,3.95l-0.17,0.79l-0.31,1.43l-0.01,0l-0.02,0.09c4.53-1.08,8.8-2.8,12.73-5.06l0.01-0.02
	L70.35,90.87z"/>
<path class="st5" d="M76.36,74.06l2.11,9.86c2.38-2.17,7.2-6.84,13.66-14.48l0.1,0.02v-2.25H83.9
	C81.51,69.67,78.9,72.12,76.36,74.06z"/>
<path class="st4" d="M85.11,65.97h4.53l-3.52-1.08C85.79,65.25,85.45,65.61,85.11,65.97z"/>
<path class="st4" d="M84.86,64.51v0.62c0.14-0.15,0.3-0.33,0.44-0.49L84.86,64.51z"/>
<path class="st5" d="M75.88,60.42l10.21,3.37c1.77-1.96,3.73-4.22,5.87-6.84l0.27,0.03v-5.27h-8.65
	C81.17,54.78,78.51,57.89,75.88,60.42z"/>
<path class="st5" d="M63.44,33.49H46.82v5.88h-0.91c-2.17,5.3-12.26,29.28-21.64,42.16v8.77c1.64-1.91,9.83-12,20.91-35.17
	l0.29-0.03v-4.36l17.97-5.92V33.49z"/>
<polygon class="st4" points="72.26,68.14 70.08,69.48 72.26,70.82 "/>
<polygon class="st4" points="66.53,71.66 72.26,71.66 72.26,71.61 69.44,69.88 "/>
<polygon class="st4" points="72.26,65.68 69.44,63.95 66.48,65.76 66.48,66.46 72.26,66.46 "/>
<polygon class="st4" points="72.26,61.43 72.26,61.31 66.48,61.31 66.48,61.34 69.44,63.16 "/>
<polygon class="st4" points="72.26,67.28 66.49,67.28 69.44,69.09 72.26,67.35 "/>
<polygon class="st4" points="66.48,62.14 66.48,64.97 68.79,63.55 "/>
<polygon class="st4" points="72.26,62.22 70.08,63.55 72.26,64.89 "/>
<polygon class="st4" points="72.95,75.09 72.34,72.48 66.48,72.48 66.48,72.57 65.97,74.93 69.67,76.51 "/>
<polygon class="st4" points="68.48,81.77 64.82,80.26 64.24,82.98 65.01,83.3 "/>
<polygon class="st4" points="66.48,68.06 66.48,70.9 68.79,69.48 "/>
<polygon class="st4" points="54.19,30.78 49.42,32.24 54.19,32.24 "/>
<polygon class="st4" points="63.44,27.94 57.74,29.69 57.74,30.47 60.73,30.47 60.73,31.59 57.08,31.59 57.08,30.76 56.51,30.76 
	56.51,30.07 55.42,30.4 55.42,32.24 63.44,32.24 "/>
<polygon class="st4" points="66.48,56.97 66.48,59.8 68.79,58.38 "/>
<polygon class="st4" points="65.78,75.81 65.21,78.46 68.56,77 "/>
<polygon class="st4" points="73.95,79.35 73.93,79.3 69.68,77.48 65.17,79.44 69.6,81.28 "/>
<path class="st5" d="M50,98.45c2.54,0,5.04-0.2,7.48-0.58l0.31-1.4l-0.31,1.4c0,0,0,0,0,0l0.47-2.07l-0.47,2.07
	c0.02-0.08,0.03-0.14,0.03-0.14l1.73-7.64c-3.32,2.65-8.36,6.39-12.39,8.22l-0.69-0.03c0,0,5.29-2.47,13.27-9.04L62,77.94
	c-5.2,4.42-16.91,13.9-26.46,18.23l-0.94-0.33c0,0,10.29-4.58,27.82-19.75l1.03-4.53v-4.34H46.82v5.88h-1.09
	c-1.97,3.42-8.86,14.95-15.46,21.05l-0.76-0.36c0,0,6.41-5.75,15.78-21.66h0.18v-5.87l17.97-5.93v-8.62H46.82v5.88H45.5
	c-3.08,6.37-11.51,23.01-20.24,32.9l-0.61,0.72C32,95.79,40.69,98.45,50,98.45z"/>
<path class="st5" d="M50,2.46c-26.51,0-47.99,21.49-47.99,48c0,14.46,6.4,27.41,16.51,36.21l1.72-2.02
	c0.21-0.26,0.42-0.54,0.66-0.85V41.93l-2.6,1.45l-9.16,5.54c-1.16,0.39-3.09,0.58-3.09,0.58l14.07-9.44
	c-0.48-3.13,1.83-3.28,1.83-3.28V19.52c2.22,1.64,2.31,4.91,2.31,4.91l0.14,12.29c1.64,1.16,0.87,2.7,0.87,2.7l9.64,5.59l4.77,3.57
	c-1.06-0.09-2.94-0.72-2.94-0.72l-12.48-6.79V79.1c4.96-7.33,12.57-20.35,20.53-40.59l0.68-0.09v-5.89l18.03-5.95l3.7-10.39h4.48
	l4.05,9.25v1.19l17.85,5.89v6.84h-1.22c-0.81,1.26-3.14,4.81-6.18,8.93l7.41,2.44v6.85h-1.12c-0.85,1.05-2.92,3.56-5.57,6.46
	l6.69,2.21v3.37h-0.75c-0.38,0.5-7.66,10.11-14.21,14.99l0.8,3.71l-0.01,0.01l0.01,0.03C90.72,79.59,98,65.87,98,50.46
	C98,23.95,76.51,2.46,50,2.46z"/>
<g>
	<polygon class="st3" points="22.79,37.73 22.49,21.32 23.79,37.68 	"/>
</g>
<line class="st8" x1="22.89" y1="40.48" x2="22.49" y2="89.61"/>
<g>
	<polygon class="st3" points="22.73,38.99 35.45,46.31 22.26,39.88 	"/>
</g>
<g>
	<polygon class="st3" points="22.77,39.85 8.35,48.84 22.22,39.02 	"/>
</g>
<circle class="st3" cx="22.69" cy="38.86" r="1.95"/>
</svg>
