<?xml version="1.0" encoding="utf-8"?>
<!-- Generator: Adobe Illustrator 25.0.0, SVG Export Plug-In . SVG Version: 6.00 Build 0)  -->
<svg version="1.1" id="Layer_1" xmlns="http://www.w3.org/2000/svg" xmlns:xlink="http://www.w3.org/1999/xlink" x="0px" y="0px"
	 viewBox="0 0 100 100" style="enable-background:new 0 0 100 100;" xml:space="preserve">
<style type="text/css">
	.st0{fill-rule:evenodd;clip-rule:evenodd;fill:#40875E;}
	.st1{fill-rule:evenodd;clip-rule:evenodd;fill:#A8A240;}
	.st2{fill:none;}
	.st3{fill:#F0AB00;}
	.st4{fill:#A8A240;}
	.st5{fill:#40875E;}
	.st6{fill-rule:evenodd;clip-rule:evenodd;fill:#F0AB00;}
	.st7{fill-rule:evenodd;clip-rule:evenodd;fill:#0B4A99;}
	.st8{fill:none;stroke:#F0AB00;stroke-miterlimit:10;}
	.st9{fill:#A8A240;stroke:#F0AB00;stroke-width:2;stroke-miterlimit:10;}
	.st10{fill:#F0AB00;stroke:#A8A240;stroke-width:3;stroke-miterlimit:10;}
	.st11{fill:#3E865F;}
	.st12{fill:#EFAA03;}
	.st13{fill:#A6A13E;}
	.st14{fill:#0B4A99;}
	.st15{fill:#F5B026;}
	.st16{fill:#FFCD2E;}
	.st17{fill:#D4D2D2;}
	.st18{fill:#E3E4E3;}
	.st19{fill:#FBD97C;}
	.st20{fill:#57BEC5;}
	.st21{fill:#469BA3;}
	.st22{fill:#CB151A;}
	.st23{fill:url(#SVGID_1_);}
	.st24{fill:url(#SVGID_2_);}
	.st25{fill:url(#SVGID_3_);}
	.st26{fill:#CFCFCE;}
	.st27{fill:#D4D3D3;}
	.st28{fill:#E4E5E3;}
	.st29{fill:#A2BAD0;}
	.st30{fill:#4B708F;}
	.st31{fill:#8AA4BE;}
	.st32{fill:#CCCACA;}
	.st33{opacity:0.59;fill:#3E865F;}
	.st34{opacity:0.6;}
	.st35{fill:#3F5B7A;}
	.st36{opacity:0.2;}
	.st37{fill:#516D8C;}
	.st38{fill-rule:evenodd;clip-rule:evenodd;fill:#CC8E05;}
	.st39{fill:url(#SVGID_4_);}
	.st40{fill:none;stroke:#40875E;stroke-width:2;stroke-miterlimit:10;}
	.st41{fill:url(#SVGID_5_);}
	.st42{fill:url(#SVGID_6_);}
	.st43{fill:url(#SVGID_7_);}
	.st44{opacity:0.44;fill:#40875E;}
</style>
<path class="st1" d="M29.7,0.33L19.6,14.93c0,0-7.7,10.75-5.78,23.59c0,0,5.38,2.33,15.57-7.79c0,0,5.14-5.37,7.06-9.23l46.38,31.62
	l2,6.5l6.34-8.1L40.13,16.06l3.93-5.37L29.7,0.33z"/>
<rect x="13.7" y="35.19" class="st1" width="1.28" height="49.67"/>
<rect x="11.37" y="84.41" class="st6" width="5.94" height="10.94"/>
<rect x="8.37" y="94.9" class="st0" width="85.64" height="4.52"/>
<rect x="79.41" y="85.91" class="st0" width="14.6" height="9.86"/>
<rect x="85.94" y="54.56" class="st1" width="1.55" height="32.23"/>
<path class="st6" d="M17.21,60.83c0,2.43-1.29,4.39-2.89,4.39c-1.59,0-2.88-1.96-2.88-4.39c0-2.42,1.3-4.38,2.88-4.38
	C15.92,56.45,17.21,58.41,17.21,60.83z"/>
<path class="st0" d="M55.61,31.5L80.7,96.35h-3.96L51.27,76.34L26.96,95.71l-4.05-0.1l23.34-64.09h6.2L55.61,31.5z M54.53,34.51
	h-6.4l-2.5,7.27h11.4L54.53,34.51z M63.59,62.16L51.33,50.73L39.07,62.16H63.59z M47.1,44.2l4.23,3.94l4.23-3.94H47.1z M39.13,59.17
	l10.37-9.57l-5.03-4.76L39.13,59.17z M58.18,44.84l-5.03,4.76l10.38,9.57L58.18,44.84z M41.14,64.82l10.19,9.5l10.18-9.5H41.14z
	 M65.72,65.22L53.47,75.28l22.89,17.81L65.72,65.22z M26.3,93.09l22.89-17.81L36.94,65.22L26.3,93.09z"/>
</svg>
