<?xml version="1.0" encoding="utf-8"?>
<!-- Generator: Adobe Illustrator 25.0.0, SVG Export Plug-In . SVG Version: 6.00 Build 0)  -->
<svg version="1.1" id="Layer_1" xmlns="http://www.w3.org/2000/svg" xmlns:xlink="http://www.w3.org/1999/xlink" x="0px" y="0px"
	 viewBox="0 0 100 100" style="enable-background:new 0 0 100 100;" xml:space="preserve">
<style type="text/css">
	.st0{fill-rule:evenodd;clip-rule:evenodd;fill:#40875E;}
	.st1{fill-rule:evenodd;clip-rule:evenodd;fill:#A8A240;}
	.st2{fill:none;}
	.st3{fill:#F0AB00;}
	.st4{fill:#A8A240;}
	.st5{fill:#40875E;}
	.st6{fill-rule:evenodd;clip-rule:evenodd;fill:#F0AB00;}
	.st7{fill-rule:evenodd;clip-rule:evenodd;fill:#0B4A99;}
	.st8{fill:none;stroke:#F0AB00;stroke-miterlimit:10;}
	.st9{fill:#A8A240;stroke:#F0AB00;stroke-width:2;stroke-miterlimit:10;}
	.st10{fill:#F0AB00;stroke:#A8A240;stroke-width:3;stroke-miterlimit:10;}
	.st11{fill:#3E865F;}
	.st12{fill:#EFAA03;}
	.st13{fill:#A6A13E;}
	.st14{fill:#0B4A99;}
	.st15{fill:#F5B026;}
	.st16{fill:#FFCD2E;}
	.st17{fill:#D4D2D2;}
	.st18{fill:#E3E4E3;}
	.st19{fill:#FBD97C;}
	.st20{fill:#57BEC5;}
	.st21{fill:#469BA3;}
	.st22{fill:#CB151A;}
	.st23{fill:url(#SVGID_1_);}
	.st24{fill:url(#SVGID_2_);}
	.st25{fill:url(#SVGID_3_);}
	.st26{fill:#CFCFCE;}
	.st27{fill:#D4D3D3;}
	.st28{fill:#E4E5E3;}
	.st29{fill:#A2BAD0;}
	.st30{fill:#4B708F;}
	.st31{fill:#8AA4BE;}
	.st32{fill:#CCCACA;}
	.st33{opacity:0.59;fill:#3E865F;}
	.st34{opacity:0.6;}
	.st35{fill:#3F5B7A;}
	.st36{opacity:0.2;}
	.st37{fill:#516D8C;}
	.st38{fill-rule:evenodd;clip-rule:evenodd;fill:#CC8E05;}
	.st39{fill:url(#SVGID_4_);}
	.st40{fill:none;stroke:#40875E;stroke-width:2;stroke-miterlimit:10;}
	.st41{fill:url(#SVGID_5_);}
	.st42{fill:url(#SVGID_6_);}
	.st43{fill:url(#SVGID_7_);}
	.st44{opacity:0.44;fill:#40875E;}
</style>
<path class="st11" d="M39.18,75.24c-0.7,4.38-1.31,8.19-2,12.54c-4.41,0-9.06,0-13.72,0c-3.88,0-7.76,0.07-11.64-0.03
	C6.99,87.61,4.16,84.77,4.14,80C4.09,68,4.07,56,4.21,44.01c0.02-1.46,0.8-3.14,1.73-4.32c2.55-3.22,5.49-6.14,8.04-9.36
	c1.58-2,2.72-4.34,4.46-7.17c9.81,0,20.7,0,30.76,0c1.39,2.13,2.35,3.91,3.6,5.46c1.62,2.01,3.2,4.24,5.28,5.66
	c9.27,6.34,6.67,15.82,6.79,24.58c0.01,0.53-0.56,1.28-1.06,1.57c-2.32,1.32-4.71,2.52-7.74,4.11c0-4.9,0.03-9.18-0.01-13.46
	c-0.04-4.99-1.31-6.26-6.25-6.26c-10.7-0.01-21.4-0.01-32.11,0.01c-5,0.01-6.33,1.32-6.35,6.19c-0.02,6.23-0.04,12.47,0,18.7
	c0.03,4.12,1.38,5.5,5.5,5.53C24.25,75.27,31.64,75.24,39.18,75.24z"/>
<path class="st13" d="M55.25,99.39c-6.97-0.23-12.98-4.5-14.77-10.66c-1.89-6.47,0.76-14.11,7.01-17.26
	c8.88-4.49,18-8.61,27.29-12.18c7.51-2.89,15.91,0.99,19.05,7.83c3.14,6.84,0.45,15.71-6.77,19.38
	c-8.66,4.41-17.72,8.05-26.66,11.89C58.83,99.06,56.98,99.08,55.25,99.39z M62.41,67.78c-4.4,1.97-8.55,3.59-12.48,5.65
	c-5.75,3.01-8.24,9.76-5.96,15.32c2.31,5.63,8.68,8.81,14.89,6.85c4.55-1.43,8.86-3.6,13.56-5.56
	C69.03,82.52,65.82,75.37,62.41,67.78z"/>
<path class="st11" d="M33.27,21.55c-5.52,0-11.04,0.04-16.56-0.01c-4-0.04-5.28-1.34-5.34-5.28c-0.05-3.29-0.02-6.58-0.01-9.87
	c0.01-3.19,1.7-4.78,4.8-4.79C27.79,1.56,39.42,1.54,51.05,1.6c3.49,0.02,4.9,1.49,4.98,4.95c0.07,3.29,0.05,6.58-0.01,9.87
	c-0.06,3.69-1.4,5.08-5.14,5.13c-5.87,0.08-11.75,0.02-17.62,0.02C33.27,21.56,33.27,21.55,33.27,21.55z"/>
<path class="st12" d="M29.96,63.76c-2.71,0-4.79,0-7.14,0c0-2.49,0-4.77,0-7.44c2.15-0.1,4.33-0.19,6.84-0.31c0-2.42,0-4.71,0-7.27
	c2.51,0,4.67,0,7.06,0c0.12,2.41,0.23,4.7,0.36,7.31c2.38,0,4.55,0,7.01,0c0,2.61,0,4.88,0,7.46c-2.23,0.11-4.41,0.22-6.91,0.34
	c-0.11,2.37-0.22,4.66-0.34,7.25c-2.23,0-4.36,0-6.88,0C29.96,68.8,29.96,66.51,29.96,63.76z"/>
<g>
	<path class="st11" d="M70.1,34.32c-3.72,4.92-3.75,13,1.92,18.13c5.51,4.98,13.06,4.14,17.14,0.93
		C82.81,47.03,76.46,40.68,70.1,34.32z"/>
	<path class="st11" d="M94.88,43.12c-0.09,0.63-0.15,1.26-0.28,1.88c-0.36,1.86-1.1,3.57-2.18,5.12c-0.04,0.05-0.08,0.1-0.1,0.13
		c-6.36-6.37-12.71-12.73-19.11-19.13c0.6-0.35,1.23-0.76,1.91-1.09c8.03-3.95,17.59,0.69,19.46,9.44c0.12,0.56,0.17,1.13,0.25,1.7
		c0.01,0.09,0.03,0.18,0.05,0.27C94.88,41.99,94.88,42.56,94.88,43.12z"/>
	<path class="st11" d="M70.1,34.32c6.36,6.36,12.71,12.71,19.05,19.06c-4.08,3.21-11.63,4.05-17.14-0.93
		C66.35,47.32,66.38,39.24,70.1,34.32z"/>
</g>
</svg>
