<?xml version="1.0" encoding="utf-8"?>
<!-- Generator: Adobe Illustrator 25.0.0, SVG Export Plug-In . SVG Version: 6.00 Build 0)  -->
<svg version="1.1" id="Layer_1" xmlns="http://www.w3.org/2000/svg" xmlns:xlink="http://www.w3.org/1999/xlink" x="0px" y="0px"
	 viewBox="0 0 100 100" style="enable-background:new 0 0 100 100;" xml:space="preserve">
<style type="text/css">
	.st0{fill-rule:evenodd;clip-rule:evenodd;fill:#40875E;}
	.st1{fill-rule:evenodd;clip-rule:evenodd;fill:#A8A240;}
	.st2{fill:none;}
	.st3{fill:#F0AB00;}
	.st4{fill:#A8A240;}
	.st5{fill:#40875E;}
	.st6{fill-rule:evenodd;clip-rule:evenodd;fill:#F0AB00;}
	.st7{fill-rule:evenodd;clip-rule:evenodd;fill:#0B4A99;}
	.st8{fill:none;stroke:#F0AB00;stroke-miterlimit:10;}
	.st9{fill:#A8A240;stroke:#F0AB00;stroke-width:2;stroke-miterlimit:10;}
	.st10{fill:#F0AB00;stroke:#A8A240;stroke-width:3;stroke-miterlimit:10;}
	.st11{fill:#3E865F;}
	.st12{fill:#EFAA03;}
	.st13{fill:#A6A13E;}
	.st14{fill:#0B4A99;}
	.st15{fill:#F5B026;}
	.st16{fill:#FFCD2E;}
	.st17{fill:#D4D2D2;}
	.st18{fill:#E3E4E3;}
	.st19{fill:#FBD97C;}
	.st20{fill:#57BEC5;}
	.st21{fill:#469BA3;}
	.st22{fill:#CB151A;}
	.st23{fill:url(#SVGID_1_);}
	.st24{fill:url(#SVGID_2_);}
	.st25{fill:url(#SVGID_3_);}
	.st26{fill:#CFCFCE;}
	.st27{fill:#D4D3D3;}
	.st28{fill:#E4E5E3;}
	.st29{fill:#A2BAD0;}
	.st30{fill:#4B708F;}
	.st31{fill:#8AA4BE;}
	.st32{fill:#CCCACA;}
	.st33{opacity:0.59;fill:#3E865F;}
	.st34{opacity:0.6;}
	.st35{fill:#3F5B7A;}
	.st36{opacity:0.2;}
	.st37{fill:#516D8C;}
	.st38{fill-rule:evenodd;clip-rule:evenodd;fill:#CC8E05;}
	.st39{fill:url(#SVGID_4_);}
	.st40{fill:none;stroke:#40875E;stroke-width:2;stroke-miterlimit:10;}
	.st41{fill:url(#SVGID_5_);}
	.st42{fill:url(#SVGID_6_);}
	.st43{fill:url(#SVGID_7_);}
	.st44{opacity:0.44;fill:#40875E;}
</style>
<rect x="11.82" y="45.78" class="st4" width="78.52" height="9.47"/>
<rect x="21.3" y="55.25" class="st4" width="11.41" height="25.91"/>
<rect x="45.32" y="55.25" class="st4" width="11.41" height="25.91"/>
<rect x="69.86" y="55.25" class="st4" width="11.41" height="25.91"/>
<rect x="19.13" y="55.25" class="st3" width="15.52" height="3.42"/>
<rect x="43.32" y="55.25" class="st3" width="15.52" height="3.42"/>
<rect x="67.8" y="55.25" class="st3" width="15.52" height="3.42"/>
<rect x="15.13" y="81.16" class="st4" width="72.02" height="4.68"/>
<rect x="9.43" y="85.84" class="st5" width="83.2" height="4.68"/>
<g>
	<g>
		<path class="st5" d="M69.86,94.5H8.74c-0.37,0-0.67-0.3-0.67-0.67s0.3-0.67,0.67-0.67h61.12c0.37,0,0.67,0.3,0.67,0.67
			S70.23,94.5,69.86,94.5z"/>
	</g>
</g>
<g>
	<g>
		<path class="st5" d="M24.83,96.9h-21c-0.37,0-0.67-0.3-0.67-0.67c0-0.37,0.3-0.67,0.67-0.67h21c0.37,0,0.67,0.3,0.67,0.67
			C25.51,96.6,25.2,96.9,24.83,96.9z"/>
	</g>
</g>
<g>
	<g>
		<path class="st5" d="M86.58,96.9H44.01c-0.37,0-0.67-0.3-0.67-0.67c0-0.37,0.3-0.67,0.67-0.67h42.57c0.37,0,0.67,0.3,0.67,0.67
			C87.25,96.6,86.95,96.9,86.58,96.9z"/>
	</g>
</g>
<g>
	<g>
		<path class="st5" d="M96.17,96.9h-6.51c-0.37,0-0.67-0.3-0.67-0.67c0-0.37,0.3-0.67,0.67-0.67h6.51c0.37,0,0.67,0.3,0.67,0.67
			C96.84,96.6,96.54,96.9,96.17,96.9z"/>
	</g>
</g>
<path class="st5" d="M95.88,44.96L51.49,24.29c-0.12-0.05-0.25-0.05-0.36,0L6.2,44.95c-0.42,0.19-0.28,0.83,0.18,0.83h89.31
	C96.16,45.78,96.3,45.15,95.88,44.96z M51.03,41.67c-2.64,0-4.78-2.14-4.78-4.78c0-2.64,2.14-4.78,4.78-4.78s4.78,2.14,4.78,4.78
	C55.8,39.53,53.67,41.67,51.03,41.67z"/>
<path class="st5" d="M82.81,79.17H72.69c-5.01,0-9.06-4.06-9.06-9.06v-0.38c0-5.01,4.06-9.06,9.06-9.06h10.12
	c5.01,0,9.06,4.06,9.06,9.06v0.38C91.88,75.11,87.82,79.17,82.81,79.17z"/>
<g>
	<g>
		<rect x="63.63" y="63.48" class="st4" width="28.25" height="1.34"/>
	</g>
</g>
<g>
	<g>
		<rect x="63.63" y="66.39" class="st4" width="28.25" height="1.34"/>
	</g>
</g>
<g>
	<path class="st3" d="M71.79,73.21h-5.93c-0.37,0-0.67-0.3-0.67-0.67s0.3-0.67,0.67-0.67h5.93c0.37,0,0.67,0.3,0.67,0.67
		S72.16,73.21,71.79,73.21z"/>
</g>
<g>
	<path class="st3" d="M77.5,76.23H65.85c-0.37,0-0.67-0.3-0.67-0.67c0-0.37,0.3-0.67,0.67-0.67H77.5c0.37,0,0.67,0.3,0.67,0.67
		C78.17,75.93,77.87,76.23,77.5,76.23z"/>
</g>
<path class="st9" d="M86.17,71.85c-0.55,0-1.06,0.19-1.46,0.51c-0.4-0.32-0.9-0.51-1.46-0.51c-1.29,0-2.34,1.05-2.34,2.34
	c0,1.29,1.05,2.34,2.34,2.34c0.55,0,1.06-0.19,1.46-0.51c0.4,0.32,0.9,0.51,1.46,0.51c1.29,0,2.34-1.05,2.34-2.34
	C88.51,72.9,87.46,71.85,86.17,71.85z"/>
<circle class="st10" cx="26.89" cy="33.66" r="8"/>
<g>
	<g>
		<path class="st5" d="M23.46,22.01c-0.37,0-0.67-0.3-0.67-0.67V12.1c0-0.37,0.3-0.67,0.67-0.67s0.67,0.3,0.67,0.67v9.24
			C24.14,21.71,23.83,22.01,23.46,22.01z"/>
	</g>
</g>
<g>
	<g>
		<path class="st5" d="M26.89,22.01c-0.37,0-0.67-0.3-0.67-0.67V12.1c0-0.37,0.3-0.67,0.67-0.67s0.67,0.3,0.67,0.67v9.24
			C27.56,21.71,27.26,22.01,26.89,22.01z"/>
	</g>
</g>
<g>
	<g>
		<path class="st5" d="M30.31,22.01c-0.37,0-0.67-0.3-0.67-0.67V12.1c0-0.37,0.3-0.67,0.67-0.67s0.67,0.3,0.67,0.67v9.24
			C30.98,21.71,30.68,22.01,30.31,22.01z"/>
	</g>
</g>
<circle class="st10" cx="75.57" cy="23.5" r="8"/>
<g>
	<g>
		<path class="st5" d="M72.14,11.85c-0.37,0-0.67-0.3-0.67-0.67V1.93c0-0.37,0.3-0.67,0.67-0.67c0.37,0,0.67,0.3,0.67,0.67v9.24
			C72.81,11.55,72.51,11.85,72.14,11.85z"/>
	</g>
</g>
<g>
	<g>
		<path class="st5" d="M75.57,11.85c-0.37,0-0.67-0.3-0.67-0.67V1.93c0-0.37,0.3-0.67,0.67-0.67s0.67,0.3,0.67,0.67v9.24
			C76.24,11.55,75.94,11.85,75.57,11.85z"/>
	</g>
</g>
<g>
	<g>
		<path class="st5" d="M78.99,11.85c-0.37,0-0.67-0.3-0.67-0.67V1.93c0-0.37,0.3-0.67,0.67-0.67s0.67,0.3,0.67,0.67v9.24
			C79.66,11.55,79.36,11.85,78.99,11.85z"/>
	</g>
</g>
<path class="st5" d="M27.51,32.99c-0.1-0.03-0.2-0.07-0.29-0.1v-2.96c0.24,0.03,0.48,0.14,0.7,0.32c0.27,0.23,0.47,0.49,0.58,0.78
	h0.15c0.1-0.42,0.24-0.82,0.41-1.21c-0.17-0.1-0.43-0.2-0.79-0.3c-0.33-0.09-0.68-0.14-1.05-0.14v-0.9h-0.58v0.93
	c-0.59,0.07-1.09,0.28-1.5,0.63c-0.52,0.44-0.78,1.06-0.78,1.86c0,1.04,0.67,1.76,2.01,2.14c0.09,0.03,0.18,0.06,0.27,0.08v3.09
	c-0.36-0.01-0.71-0.13-1.04-0.35c-0.35-0.24-0.64-0.54-0.85-0.9h-0.14c-0.03,0.2-0.09,0.41-0.15,0.62c-0.07,0.21-0.14,0.42-0.2,0.62
	c0.28,0.17,0.62,0.3,1.01,0.4s0.76,0.14,1.11,0.14c0.09,0,0.17,0,0.25-0.01v1.09h0.58v-1.16c0.48-0.1,0.91-0.29,1.3-0.58
	c0.67-0.5,1-1.17,1-2.03C29.52,34.12,28.85,33.42,27.51,32.99z M25.5,31.32c0-0.44,0.15-0.79,0.44-1.04c0.2-0.17,0.43-0.27,0.7-0.33
	v2.69C25.88,32.28,25.5,31.84,25.5,31.32z M27.87,36.79c-0.2,0.17-0.42,0.29-0.65,0.36v-2.8c0.77,0.35,1.16,0.79,1.16,1.33
	C28.38,36.12,28.21,36.49,27.87,36.79z"/>
<path class="st5" d="M76.19,22.83c-0.1-0.03-0.2-0.07-0.29-0.1v-2.96c0.24,0.03,0.48,0.14,0.7,0.32c0.27,0.23,0.47,0.49,0.58,0.78
	h0.15c0.1-0.42,0.24-0.82,0.41-1.21c-0.17-0.1-0.43-0.2-0.79-0.3c-0.33-0.09-0.68-0.14-1.05-0.14v-0.9h-0.58v0.93
	c-0.59,0.07-1.09,0.28-1.5,0.63c-0.52,0.44-0.78,1.06-0.78,1.86c0,1.04,0.67,1.76,2.01,2.14c0.09,0.03,0.18,0.06,0.27,0.08v3.09
	c-0.36-0.01-0.71-0.13-1.04-0.35c-0.35-0.24-0.64-0.54-0.85-0.9h-0.14c-0.03,0.2-0.09,0.41-0.15,0.62c-0.07,0.21-0.14,0.42-0.2,0.62
	c0.28,0.17,0.62,0.3,1.01,0.4s0.76,0.14,1.11,0.14c0.09,0,0.17,0,0.25-0.01v1.09h0.58v-1.16c0.48-0.1,0.91-0.29,1.3-0.58
	c0.67-0.5,1-1.17,1-2.03C78.19,23.95,77.53,23.26,76.19,22.83z M74.18,21.16c0-0.44,0.15-0.79,0.44-1.04
	c0.2-0.17,0.43-0.27,0.7-0.33v2.69C74.56,22.12,74.18,21.67,74.18,21.16z M76.54,26.63c-0.2,0.17-0.42,0.29-0.65,0.36v-2.8
	c0.77,0.35,1.16,0.79,1.16,1.33C77.05,25.96,76.88,26.33,76.54,26.63z"/>
<ellipse class="st0" cx="14.13" cy="91.76" rx="8.3" ry="3.93"/>
<rect x="5.83" y="90.15" class="st0" width="16.6" height="1.61"/>
<path class="st0" d="M14.13,94.07c4.57,0,8.3-1.76,8.3-3.93c0-2.16-3.73-3.93-8.3-3.93c-4.57,0-8.3,1.76-8.3,3.93
	C5.83,92.31,9.56,94.07,14.13,94.07z"/>
<path class="st6" d="M14.13,93.31c3.97,0,7.21-1.42,7.21-3.16c0-1.74-3.24-3.16-7.21-3.16c-3.97,0-7.21,1.42-7.21,3.16
	C6.92,91.89,10.16,93.31,14.13,93.31z"/>
<path class="st5" d="M14.93,88.29c0.34,0.04,0.62,0.12,0.85,0.22c0.31,0.14,0.52,0.33,0.6,0.57l-1.28,0.08
	c-0.03-0.08-0.09-0.16-0.18-0.22V88.29L14.93,88.29z M14.93,89.77c0.58,0.09,0.99,0.21,1.22,0.34c0.29,0.16,0.44,0.38,0.44,0.63
	c0,0.29-0.18,0.53-0.55,0.73c-0.28,0.15-0.65,0.26-1.11,0.32v-0.57c0.07-0.02,0.13-0.05,0.19-0.08c0.16-0.09,0.24-0.19,0.24-0.31
	c0-0.11-0.07-0.2-0.2-0.28c-0.06-0.03-0.13-0.07-0.23-0.09V89.77z M13.78,91.27v-1c-0.11-0.02-0.22-0.03-0.33-0.05V89.5
	c0.09,0.04,0.2,0.07,0.33,0.09v-0.83c-0.12,0.02-0.23,0.05-0.33,0.09v-0.58c0.1-0.01,0.21-0.02,0.33-0.02v-0.24h0.73v0.24
	c0.15,0.01,0.29,0.02,0.43,0.04v0.65c-0.1-0.07-0.25-0.13-0.43-0.17v0.93c0.15,0.02,0.29,0.04,0.43,0.06v0.69
	c-0.12-0.03-0.26-0.06-0.43-0.09v0.93c0.16-0.01,0.3-0.04,0.43-0.08v0.57c-0.13,0.02-0.28,0.03-0.43,0.04v0.45h-0.73v-0.43
	c-0.11-0.01-0.22-0.02-0.33-0.03v-0.65C13.55,91.21,13.66,91.25,13.78,91.27z M13.45,90.22c-0.5-0.09-0.87-0.2-1.13-0.35
	c-0.31-0.18-0.46-0.4-0.46-0.66c0-0.26,0.17-0.48,0.52-0.66c0.28-0.14,0.64-0.24,1.07-0.28v0.58c-0.06,0.02-0.11,0.05-0.15,0.08
	c-0.12,0.08-0.18,0.16-0.18,0.25c0,0.08,0.05,0.16,0.16,0.23c0.05,0.03,0.1,0.06,0.17,0.08V90.22L13.45,90.22z M13.45,91.82
	c-0.44-0.05-0.8-0.14-1.09-0.28c-0.36-0.17-0.59-0.41-0.7-0.73l1.32-0.07c0.05,0.13,0.15,0.24,0.3,0.33
	c0.05,0.03,0.11,0.06,0.17,0.09V91.82z"/>
<path class="st0" d="M19.72,93.6c4.57,0,8.3-1.76,8.3-3.93s-3.73-3.93-8.3-3.93c-4.57,0-8.3,1.76-8.3,3.93S15.15,93.6,19.72,93.6z"
	/>
<rect x="11.43" y="88.06" class="st0" width="16.6" height="1.61"/>
<ellipse class="st0" cx="19.72" cy="88.06" rx="8.3" ry="3.93"/>
<ellipse class="st6" cx="19.72" cy="88.06" rx="7.21" ry="3.16"/>
<path class="st5" d="M20.53,86.2c0.34,0.04,0.62,0.12,0.85,0.22c0.31,0.14,0.52,0.33,0.6,0.57l-1.28,0.08
	c-0.03-0.08-0.09-0.16-0.18-0.22V86.2L20.53,86.2z M20.53,87.68c0.58,0.09,0.99,0.21,1.22,0.34c0.29,0.16,0.44,0.38,0.44,0.63
	c0,0.29-0.18,0.53-0.55,0.73c-0.28,0.15-0.65,0.26-1.11,0.32v-0.57c0.07-0.02,0.13-0.05,0.19-0.08c0.16-0.09,0.24-0.19,0.24-0.31
	c0-0.11-0.07-0.2-0.2-0.28c-0.06-0.03-0.13-0.07-0.23-0.09V87.68z M19.37,89.18v-1c-0.11-0.02-0.22-0.03-0.33-0.05v-0.72
	c0.09,0.04,0.2,0.07,0.33,0.09v-0.83c-0.12,0.02-0.23,0.05-0.33,0.09v-0.58c0.1-0.01,0.21-0.02,0.33-0.02v-0.24h0.73v0.24
	c0.15,0.01,0.29,0.02,0.43,0.04v0.65c-0.1-0.07-0.25-0.13-0.43-0.17v0.93c0.15,0.02,0.29,0.04,0.43,0.06v0.69
	c-0.12-0.03-0.26-0.06-0.43-0.09v0.93c0.16-0.01,0.3-0.04,0.43-0.08v0.57c-0.13,0.02-0.28,0.03-0.43,0.04v0.45h-0.73v-0.43
	c-0.11-0.01-0.22-0.02-0.33-0.03v-0.65C19.15,89.12,19.26,89.16,19.37,89.18z M19.05,88.13c-0.5-0.09-0.87-0.2-1.13-0.35
	c-0.31-0.18-0.46-0.4-0.46-0.66c0-0.26,0.17-0.48,0.52-0.66c0.28-0.14,0.64-0.24,1.07-0.28v0.58c-0.06,0.02-0.1,0.05-0.15,0.08
	c-0.12,0.08-0.18,0.16-0.18,0.25c0,0.08,0.05,0.16,0.16,0.23c0.05,0.03,0.1,0.06,0.16,0.08V88.13L19.05,88.13z M19.05,89.73
	c-0.44-0.05-0.8-0.14-1.09-0.28c-0.36-0.17-0.59-0.41-0.7-0.73l1.32-0.07c0.05,0.13,0.16,0.24,0.3,0.33
	c0.05,0.03,0.11,0.06,0.17,0.09V89.73z"/>
<path class="st0" d="M13.02,90.21c4.57,0,8.3-1.76,8.3-3.93c0-2.16-3.73-3.93-8.3-3.93c-4.57,0-8.3,1.76-8.3,3.93
	C4.72,88.45,8.45,90.21,13.02,90.21z"/>
<rect x="4.72" y="84.67" class="st0" width="16.6" height="1.61"/>
<ellipse class="st0" cx="13.02" cy="84.67" rx="8.3" ry="3.93"/>
<ellipse class="st6" cx="13.02" cy="84.67" rx="7.21" ry="3.16"/>
<path class="st5" d="M13.82,82.81c0.34,0.04,0.62,0.12,0.85,0.22c0.31,0.14,0.52,0.33,0.6,0.57L14,83.68
	c-0.03-0.08-0.09-0.16-0.18-0.22V82.81L13.82,82.81z M13.82,84.3c0.58,0.09,0.99,0.21,1.22,0.34c0.29,0.16,0.44,0.38,0.44,0.63
	c0,0.29-0.18,0.53-0.55,0.73c-0.28,0.15-0.65,0.26-1.11,0.32v-0.57c0.07-0.02,0.13-0.05,0.19-0.08c0.16-0.09,0.24-0.19,0.24-0.31
	c0-0.11-0.07-0.2-0.2-0.28c-0.06-0.03-0.13-0.07-0.23-0.09V84.3z M12.66,85.8v-1c-0.11-0.02-0.22-0.03-0.33-0.05v-0.72
	c0.09,0.04,0.2,0.07,0.33,0.09v-0.83c-0.12,0.02-0.23,0.05-0.33,0.09V82.8c0.1-0.01,0.21-0.02,0.33-0.02v-0.24h0.73v0.24
	c0.15,0.01,0.29,0.02,0.43,0.04v0.65c-0.1-0.07-0.25-0.13-0.43-0.17v0.93c0.15,0.02,0.29,0.04,0.43,0.06v0.69
	c-0.12-0.03-0.26-0.06-0.43-0.09v0.93c0.16-0.01,0.3-0.04,0.43-0.08v0.57c-0.13,0.02-0.28,0.03-0.43,0.04v0.45h-0.73v-0.43
	c-0.11-0.01-0.22-0.02-0.33-0.03v-0.65C12.44,85.74,12.55,85.77,12.66,85.8z M12.34,84.75c-0.5-0.09-0.87-0.2-1.13-0.35
	c-0.31-0.18-0.46-0.4-0.46-0.66c0-0.26,0.17-0.48,0.52-0.66c0.28-0.14,0.64-0.24,1.07-0.28v0.58c-0.06,0.02-0.11,0.05-0.15,0.08
	c-0.12,0.08-0.18,0.16-0.18,0.25c0,0.08,0.05,0.16,0.16,0.23c0.05,0.03,0.1,0.06,0.17,0.08V84.75L12.34,84.75z M12.34,86.34
	c-0.44-0.05-0.8-0.14-1.09-0.28c-0.36-0.17-0.59-0.41-0.7-0.73l1.32-0.07c0.05,0.13,0.15,0.24,0.3,0.33
	c0.05,0.03,0.11,0.06,0.17,0.09V86.34z"/>
<ellipse class="st0" cx="18.95" cy="83.44" rx="8.3" ry="3.93"/>
<rect x="10.66" y="81.82" class="st0" width="16.6" height="1.61"/>
<ellipse class="st0" cx="18.95" cy="81.82" rx="8.3" ry="3.93"/>
<path class="st6" d="M18.95,84.99c3.97,0,7.21-1.42,7.21-3.16c0-1.74-3.24-3.16-7.21-3.16c-3.97,0-7.21,1.42-7.21,3.16
	C11.74,83.57,14.98,84.99,18.95,84.99z"/>
<path class="st5" d="M19.76,79.97c0.34,0.04,0.62,0.12,0.85,0.22c0.32,0.14,0.52,0.33,0.6,0.57l-1.28,0.08
	c-0.03-0.08-0.09-0.16-0.18-0.22V79.97L19.76,79.97z M19.76,81.45c0.58,0.09,0.99,0.21,1.22,0.34c0.29,0.16,0.44,0.38,0.44,0.63
	c0,0.29-0.18,0.53-0.55,0.73c-0.28,0.15-0.65,0.26-1.11,0.32V82.9c0.07-0.02,0.13-0.05,0.19-0.08c0.16-0.09,0.24-0.19,0.24-0.31
	c0-0.11-0.07-0.2-0.2-0.28c-0.06-0.03-0.13-0.07-0.23-0.09V81.45z M18.6,82.95v-1c-0.11-0.02-0.22-0.03-0.33-0.05v-0.72
	c0.09,0.04,0.2,0.07,0.33,0.09v-0.83c-0.13,0.02-0.23,0.05-0.33,0.09v-0.58c0.1-0.01,0.21-0.02,0.33-0.02v-0.24h0.73v0.24
	c0.15,0.01,0.29,0.02,0.43,0.04v0.65c-0.1-0.07-0.25-0.13-0.43-0.17v0.93c0.15,0.02,0.29,0.04,0.43,0.06v0.69
	c-0.12-0.03-0.26-0.06-0.43-0.09v0.93c0.16-0.01,0.3-0.04,0.43-0.08v0.57c-0.13,0.02-0.28,0.03-0.43,0.04v0.45H18.6v-0.43
	c-0.11-0.01-0.22-0.02-0.33-0.03v-0.65C18.38,82.89,18.49,82.92,18.6,82.95z M18.28,81.9c-0.5-0.09-0.87-0.2-1.13-0.35
	c-0.31-0.18-0.46-0.4-0.46-0.66c0-0.26,0.17-0.48,0.52-0.66c0.28-0.14,0.64-0.24,1.07-0.28v0.58c-0.06,0.02-0.1,0.05-0.15,0.08
	c-0.12,0.08-0.18,0.16-0.18,0.25c0,0.08,0.05,0.16,0.16,0.23c0.05,0.03,0.1,0.06,0.16,0.08V81.9L18.28,81.9z M18.28,83.5
	c-0.44-0.05-0.8-0.14-1.09-0.28c-0.36-0.17-0.59-0.41-0.7-0.73l1.32-0.07c0.05,0.13,0.16,0.24,0.3,0.33
	c0.05,0.03,0.11,0.06,0.17,0.09V83.5z"/>
<ellipse class="st0" cx="16.41" cy="80.59" rx="8.3" ry="3.93"/>
<rect x="8.11" y="78.97" class="st0" width="16.6" height="1.61"/>
<path class="st0" d="M16.41,82.9c4.57,0,8.3-1.76,8.3-3.93c0-2.16-3.73-3.93-8.3-3.93c-4.57,0-8.3,1.76-8.3,3.93
	C8.11,81.14,11.84,82.9,16.41,82.9z"/>
<path class="st6" d="M16.41,82.14c3.97,0,7.21-1.42,7.21-3.16c0-1.74-3.24-3.16-7.21-3.16c-3.97,0-7.21,1.42-7.21,3.16
	C9.19,80.72,12.44,82.14,16.41,82.14z"/>
<path class="st5" d="M17.21,77.11c0.34,0.04,0.62,0.12,0.85,0.22c0.32,0.14,0.52,0.33,0.6,0.57l-1.28,0.08
	c-0.03-0.08-0.09-0.16-0.18-0.22V77.11L17.21,77.11z M17.21,78.6c0.58,0.09,0.99,0.21,1.22,0.34c0.29,0.16,0.44,0.38,0.44,0.63
	c0,0.29-0.18,0.53-0.55,0.73c-0.28,0.15-0.65,0.26-1.11,0.32v-0.57c0.07-0.02,0.13-0.05,0.19-0.08c0.16-0.09,0.24-0.19,0.24-0.31
	c0-0.11-0.07-0.2-0.2-0.28c-0.06-0.03-0.13-0.07-0.23-0.09V78.6z M16.06,80.1v-1c-0.11-0.02-0.22-0.03-0.33-0.05v-0.72
	c0.09,0.04,0.2,0.07,0.33,0.09V77.6c-0.12,0.02-0.23,0.05-0.33,0.09V77.1c0.1-0.01,0.21-0.02,0.33-0.02v-0.24h0.73v0.24
	c0.15,0.01,0.29,0.02,0.43,0.04v0.65c-0.1-0.07-0.25-0.13-0.43-0.17v0.93c0.15,0.02,0.29,0.04,0.43,0.06v0.69
	c-0.12-0.03-0.26-0.06-0.43-0.09v0.93c0.16-0.01,0.3-0.04,0.43-0.08v0.57c-0.13,0.02-0.28,0.03-0.43,0.04v0.45h-0.73v-0.43
	c-0.11-0.01-0.22-0.02-0.33-0.03v-0.65C15.83,80.04,15.94,80.07,16.06,80.1z M15.73,79.05c-0.5-0.09-0.87-0.2-1.13-0.35
	c-0.31-0.18-0.46-0.4-0.46-0.66c0-0.26,0.17-0.48,0.52-0.66c0.28-0.14,0.64-0.24,1.07-0.28v0.58c-0.06,0.02-0.11,0.05-0.15,0.08
	c-0.12,0.08-0.18,0.16-0.18,0.25c0,0.08,0.05,0.16,0.16,0.23c0.05,0.03,0.1,0.06,0.17,0.08V79.05L15.73,79.05z M15.73,80.65
	c-0.44-0.05-0.8-0.14-1.09-0.28c-0.36-0.17-0.59-0.41-0.7-0.73l1.32-0.07c0.05,0.13,0.15,0.24,0.3,0.33
	c0.05,0.03,0.11,0.06,0.17,0.09V80.65z"/>
<path class="st0" d="M18.53,82.27c4.57,0,8.3-1.76,8.3-3.93c0-2.16-3.73-3.93-8.3-3.93c-4.57,0-8.3,1.76-8.3,3.93
	C10.23,80.5,13.96,82.27,18.53,82.27z"/>
<rect x="10.23" y="76.73" class="st0" width="16.6" height="1.61"/>
<path class="st0" d="M18.53,80.65c4.57,0,8.3-1.76,8.3-3.93c0-2.16-3.73-3.93-8.3-3.93c-4.57,0-8.3,1.76-8.3,3.93
	C10.23,78.89,13.96,80.65,18.53,80.65z"/>
<path class="st0" d="M18.53,79.89c3.97,0,7.21-1.42,7.21-3.16c0-1.74-3.24-3.16-7.21-3.16c-3.97,0-7.21,1.42-7.21,3.16
	C11.32,78.47,14.56,79.89,18.53,79.89z"/>
<path class="st5" d="M19.33,74.87c0.34,0.04,0.62,0.12,0.85,0.22c0.31,0.14,0.52,0.33,0.6,0.57l-1.28,0.08
	c-0.03-0.08-0.09-0.16-0.18-0.22V74.87L19.33,74.87z M19.33,76.35c0.58,0.09,0.99,0.21,1.22,0.34c0.29,0.16,0.44,0.38,0.44,0.63
	c0,0.29-0.18,0.53-0.55,0.73c-0.28,0.15-0.65,0.26-1.11,0.32V77.8c0.07-0.02,0.13-0.05,0.19-0.08c0.16-0.09,0.24-0.19,0.24-0.31
	c0-0.11-0.07-0.2-0.2-0.28c-0.06-0.03-0.13-0.07-0.23-0.09V76.35z M18.18,77.85v-1c-0.11-0.02-0.22-0.03-0.33-0.05v-0.72
	c0.09,0.04,0.2,0.07,0.33,0.09v-0.83c-0.13,0.02-0.23,0.05-0.33,0.09v-0.58c0.1-0.01,0.21-0.02,0.33-0.02v-0.24h0.73v0.24
	c0.15,0.01,0.29,0.02,0.43,0.04v0.65c-0.1-0.07-0.25-0.13-0.43-0.17v0.93c0.15,0.02,0.29,0.04,0.43,0.06v0.69
	c-0.12-0.03-0.26-0.06-0.43-0.09v0.93c0.16-0.01,0.3-0.04,0.43-0.08v0.57c-0.13,0.02-0.28,0.03-0.43,0.04v0.45h-0.73v-0.43
	c-0.11-0.01-0.22-0.02-0.33-0.03v-0.65C17.95,77.79,18.06,77.83,18.18,77.85z M17.85,76.8c-0.5-0.09-0.87-0.2-1.13-0.35
	c-0.31-0.18-0.46-0.4-0.46-0.66c0-0.26,0.17-0.48,0.52-0.66c0.28-0.14,0.64-0.24,1.07-0.28v0.58c-0.06,0.02-0.11,0.05-0.15,0.08
	c-0.12,0.08-0.18,0.16-0.18,0.25c0,0.08,0.05,0.16,0.16,0.23c0.05,0.03,0.1,0.06,0.17,0.08V76.8L17.85,76.8z M17.85,78.4
	c-0.44-0.05-0.8-0.14-1.09-0.28c-0.36-0.17-0.59-0.41-0.7-0.73l1.32-0.07c0.05,0.13,0.16,0.24,0.3,0.33
	c0.05,0.03,0.11,0.06,0.17,0.09V78.4z"/>
<ellipse class="st0" cx="15.68" cy="75.98" rx="8.3" ry="3.93"/>
<rect x="7.38" y="74.37" class="st0" width="16.6" height="1.61"/>
<path class="st0" d="M15.68,78.3c4.57,0,8.3-1.76,8.3-3.93c0-2.16-3.73-3.93-8.3-3.93c-4.57,0-8.3,1.76-8.3,3.93
	C7.38,76.53,11.11,78.3,15.68,78.3z"/>
<path class="st6" d="M15.68,77.53c3.97,0,7.21-1.42,7.21-3.16c0-1.74-3.24-3.16-7.21-3.16c-3.97,0-7.21,1.42-7.21,3.16
	C8.47,76.11,11.71,77.53,15.68,77.53z"/>
<path class="st5" d="M16.48,72.51c0.34,0.04,0.62,0.12,0.85,0.22c0.31,0.14,0.52,0.33,0.6,0.57l-1.28,0.08
	c-0.03-0.08-0.09-0.16-0.18-0.22V72.51L16.48,72.51z M16.48,73.99c0.58,0.09,0.99,0.21,1.22,0.34c0.29,0.16,0.44,0.38,0.44,0.63
	c0,0.29-0.18,0.53-0.55,0.73c-0.28,0.15-0.65,0.26-1.11,0.32v-0.57c0.07-0.02,0.13-0.05,0.19-0.08c0.16-0.09,0.24-0.19,0.24-0.31
	c0-0.11-0.07-0.2-0.2-0.28c-0.06-0.03-0.13-0.07-0.23-0.09V73.99z M15.33,75.5v-1c-0.11-0.02-0.22-0.03-0.33-0.05v-0.72
	c0.09,0.04,0.2,0.07,0.33,0.09v-0.83c-0.12,0.02-0.23,0.05-0.33,0.09V72.5c0.1-0.01,0.21-0.02,0.33-0.02v-0.24h0.73v0.24
	c0.15,0.01,0.29,0.02,0.43,0.04v0.65c-0.1-0.07-0.25-0.13-0.43-0.17v0.93c0.15,0.02,0.29,0.04,0.43,0.06v0.69
	c-0.12-0.03-0.26-0.06-0.43-0.09v0.93c0.16-0.01,0.3-0.04,0.43-0.08v0.57c-0.13,0.02-0.28,0.03-0.43,0.04v0.45h-0.73v-0.43
	c-0.11-0.01-0.22-0.02-0.33-0.03v-0.65C15.1,75.44,15.21,75.47,15.33,75.5z M15,74.45c-0.5-0.09-0.87-0.2-1.13-0.35
	c-0.31-0.18-0.46-0.4-0.46-0.66c0-0.26,0.17-0.48,0.52-0.66c0.28-0.14,0.64-0.24,1.07-0.28v0.58c-0.06,0.02-0.11,0.05-0.15,0.08
	c-0.12,0.08-0.18,0.16-0.18,0.25c0,0.08,0.05,0.16,0.16,0.23c0.05,0.03,0.1,0.06,0.17,0.08V74.45L15,74.45z M15,76.04
	c-0.44-0.05-0.8-0.14-1.09-0.28c-0.36-0.17-0.59-0.41-0.7-0.73l1.32-0.07c0.05,0.13,0.15,0.24,0.3,0.33
	c0.05,0.03,0.11,0.06,0.17,0.09V76.04z"/>
<ellipse class="st0" cx="13.61" cy="73.81" rx="8.3" ry="3.93"/>
<rect x="5.31" y="72.19" class="st0" width="16.6" height="1.61"/>
<path class="st0" d="M13.61,76.12c4.57,0,8.3-1.76,8.3-3.93c0-2.16-3.73-3.93-8.3-3.93s-8.3,1.76-8.3,3.93
	C5.31,74.36,9.04,76.12,13.61,76.12z"/>
<path class="st6" d="M13.61,75.36c3.97,0,7.21-1.42,7.21-3.16c0-1.74-3.24-3.16-7.21-3.16c-3.97,0-7.21,1.42-7.21,3.16
	C6.4,73.94,9.64,75.36,13.61,75.36z"/>
<path class="st5" d="M14.42,70.34c0.34,0.04,0.62,0.12,0.85,0.22c0.31,0.14,0.52,0.33,0.6,0.57l-1.28,0.08
	c-0.03-0.08-0.09-0.16-0.18-0.22V70.34L14.42,70.34z M14.42,71.82c0.58,0.09,0.99,0.21,1.22,0.34c0.29,0.16,0.44,0.38,0.44,0.63
	c0,0.29-0.18,0.53-0.55,0.73c-0.28,0.15-0.65,0.26-1.11,0.32v-0.57c0.07-0.02,0.13-0.05,0.19-0.08c0.16-0.09,0.24-0.19,0.24-0.31
	c0-0.11-0.07-0.2-0.2-0.28c-0.06-0.03-0.13-0.07-0.23-0.09V71.82z M13.26,73.32v-1c-0.11-0.02-0.22-0.03-0.33-0.05v-0.72
	c0.09,0.04,0.2,0.07,0.33,0.09v-0.83c-0.12,0.02-0.23,0.05-0.33,0.09v-0.58c0.1-0.01,0.21-0.02,0.33-0.02v-0.24h0.73v0.24
	c0.15,0.01,0.29,0.02,0.43,0.04v0.65c-0.1-0.07-0.25-0.13-0.43-0.17v0.93c0.15,0.02,0.29,0.04,0.43,0.06v0.69
	c-0.12-0.03-0.26-0.06-0.43-0.09v0.93c0.16-0.01,0.3-0.04,0.43-0.08v0.57c-0.13,0.02-0.28,0.03-0.43,0.04v0.45h-0.73v-0.43
	c-0.11-0.01-0.22-0.02-0.33-0.03v-0.65C13.04,73.26,13.14,73.3,13.26,73.32z M12.93,72.27c-0.5-0.09-0.87-0.2-1.13-0.35
	c-0.31-0.18-0.46-0.4-0.46-0.66c0-0.26,0.17-0.48,0.52-0.66c0.28-0.14,0.64-0.24,1.07-0.28v0.58c-0.06,0.02-0.11,0.05-0.15,0.08
	c-0.12,0.08-0.18,0.16-0.18,0.25c0,0.08,0.05,0.16,0.16,0.23c0.05,0.03,0.1,0.06,0.17,0.08V72.27L12.93,72.27z M12.93,73.87
	c-0.44-0.05-0.8-0.14-1.09-0.28c-0.36-0.17-0.59-0.41-0.7-0.73l1.32-0.07c0.05,0.13,0.15,0.24,0.3,0.33
	c0.05,0.03,0.11,0.06,0.17,0.09V73.87z"/>
<ellipse class="st0" cx="17.37" cy="70.97" rx="8.3" ry="3.93"/>
<rect x="9.07" y="69.36" class="st0" width="16.6" height="1.61"/>
<path class="st0" d="M17.37,73.29c4.57,0,8.3-1.76,8.3-3.93c0-2.16-3.73-3.93-8.3-3.93c-4.57,0-8.3,1.76-8.3,3.93
	C9.07,71.52,12.8,73.29,17.37,73.29z"/>
<path class="st6" d="M17.37,72.52c3.97,0,7.21-1.42,7.21-3.16c0-1.74-3.24-3.16-7.21-3.16c-3.97,0-7.21,1.42-7.21,3.16
	C10.15,71.1,13.39,72.52,17.37,72.52z"/>
<path class="st5" d="M18.17,67.5c0.34,0.04,0.62,0.12,0.85,0.22c0.31,0.14,0.52,0.33,0.6,0.57l-1.28,0.08
	c-0.03-0.08-0.09-0.16-0.18-0.22V67.5L18.17,67.5z M18.17,68.98c0.58,0.09,0.99,0.21,1.22,0.34c0.29,0.16,0.44,0.38,0.44,0.63
	c0,0.29-0.18,0.53-0.55,0.73c-0.28,0.15-0.65,0.26-1.11,0.32v-0.57c0.07-0.02,0.13-0.05,0.19-0.08c0.16-0.09,0.24-0.19,0.24-0.31
	c0-0.11-0.07-0.2-0.2-0.28c-0.06-0.03-0.14-0.07-0.23-0.09V68.98z M17.01,70.49v-1c-0.11-0.02-0.22-0.03-0.33-0.05v-0.72
	c0.09,0.04,0.2,0.07,0.33,0.09v-0.83c-0.12,0.02-0.23,0.05-0.33,0.09v-0.58c0.1-0.01,0.21-0.02,0.33-0.02v-0.24h0.73v0.24
	c0.15,0.01,0.29,0.02,0.43,0.04v0.65c-0.1-0.07-0.25-0.13-0.43-0.17v0.93c0.15,0.02,0.29,0.04,0.43,0.06v0.69
	c-0.12-0.03-0.26-0.06-0.43-0.09v0.93c0.16-0.01,0.3-0.04,0.43-0.08v0.57c-0.13,0.02-0.28,0.03-0.43,0.04v0.45h-0.73v-0.43
	c-0.11-0.01-0.22-0.02-0.33-0.03v-0.65C16.79,70.42,16.9,70.46,17.01,70.49z M16.69,69.44c-0.5-0.09-0.87-0.2-1.13-0.35
	c-0.31-0.18-0.46-0.4-0.46-0.66c0-0.26,0.17-0.48,0.52-0.66c0.28-0.14,0.64-0.24,1.07-0.28v0.58c-0.06,0.02-0.11,0.05-0.15,0.08
	c-0.12,0.08-0.18,0.16-0.18,0.25c0,0.08,0.05,0.16,0.16,0.23c0.05,0.03,0.1,0.06,0.17,0.08V69.44L16.69,69.44z M16.69,71.03
	c-0.44-0.05-0.8-0.14-1.09-0.28c-0.36-0.17-0.59-0.41-0.7-0.73l1.32-0.07c0.05,0.13,0.15,0.24,0.3,0.33
	c0.05,0.03,0.11,0.06,0.17,0.09V71.03z"/>
<path class="st0" d="M28.11,99.51c4.57,0,8.3-3.73,8.3-8.3c0-4.57-3.73-8.3-8.3-8.3c-4.57,0-8.3,3.73-8.3,8.3
	C19.82,95.79,23.54,99.51,28.11,99.51z"/>
<path class="st6" d="M28.11,97.9c3.68,0,6.69-3,6.69-6.69c0-3.68-3-6.69-6.69-6.69c-3.68,0-6.69,3-6.69,6.69
	C21.43,94.9,24.43,97.9,28.11,97.9z"/>
<path class="st5" d="M28.92,87.29c0.34,0.09,0.62,0.25,0.85,0.46c0.31,0.3,0.52,0.7,0.6,1.21l-1.28,0.17
	c-0.03-0.18-0.09-0.33-0.18-0.46V87.29L28.92,87.29z M28.92,90.42c0.58,0.2,0.99,0.44,1.22,0.72c0.29,0.35,0.44,0.79,0.44,1.34
	c0,0.61-0.18,1.12-0.55,1.54c-0.28,0.32-0.65,0.55-1.11,0.68v-1.2c0.07-0.05,0.13-0.11,0.19-0.17c0.16-0.19,0.24-0.41,0.24-0.66
	c0-0.23-0.07-0.42-0.2-0.58c-0.06-0.07-0.13-0.14-0.23-0.2V90.42z M27.76,93.6v-2.11c-0.11-0.03-0.22-0.07-0.33-0.11v-1.53
	c0.09,0.07,0.2,0.14,0.33,0.19V88.3c-0.13,0.04-0.23,0.1-0.33,0.18v-1.23c0.1-0.02,0.21-0.04,0.33-0.05v-0.5h0.73v0.5
	c0.15,0.02,0.29,0.05,0.43,0.08v1.38c-0.1-0.16-0.25-0.27-0.43-0.35v1.97c0.15,0.04,0.29,0.08,0.43,0.13v1.46
	c-0.12-0.07-0.26-0.13-0.43-0.18v1.97c0.16-0.03,0.3-0.09,0.43-0.18v1.2c-0.13,0.04-0.28,0.07-0.43,0.09v0.94h-0.73v-0.92
	c-0.11-0.01-0.22-0.03-0.33-0.06v-1.38C27.54,93.47,27.65,93.54,27.76,93.6z M27.44,91.38c-0.5-0.18-0.87-0.43-1.13-0.75
	c-0.31-0.38-0.46-0.85-0.46-1.39c0-0.55,0.17-1.01,0.52-1.39c0.28-0.3,0.64-0.5,1.07-0.6v1.23c-0.06,0.05-0.1,0.1-0.15,0.16
	c-0.12,0.16-0.18,0.34-0.18,0.54c0,0.18,0.05,0.34,0.16,0.5c0.05,0.06,0.1,0.12,0.17,0.18V91.38L27.44,91.38z M27.44,94.75
	c-0.44-0.1-0.8-0.3-1.09-0.59c-0.36-0.36-0.59-0.87-0.7-1.54l1.32-0.14c0.05,0.27,0.15,0.5,0.3,0.7c0.05,0.07,0.11,0.14,0.17,0.19
	V94.75z"/>
</svg>
