<?xml version="1.0" encoding="utf-8"?>
<!-- Generator: Adobe Illustrator 25.0.0, SVG Export Plug-In . SVG Version: 6.00 Build 0)  -->
<svg version="1.1" id="Layer_1" xmlns="http://www.w3.org/2000/svg" xmlns:xlink="http://www.w3.org/1999/xlink" x="0px" y="0px"
	 viewBox="0 0 100 100" style="enable-background:new 0 0 100 100;" xml:space="preserve">
<style type="text/css">
	.st0{fill-rule:evenodd;clip-rule:evenodd;fill:#40875E;}
	.st1{fill:none;stroke:#000201;stroke-miterlimit:10;}
	.st2{fill:#F0AB00;}
	.st3{fill:none;stroke:#000000;stroke-width:2;stroke-miterlimit:10;}
	.st4{fill:#A8A240;}
	.st5{fill:#40875E;}
	.st6{fill:none;}
	.st7{fill:#A69F3D;}
	.st8{fill:none;stroke:#000000;stroke-width:1.5;stroke-miterlimit:10;}
	.st9{fill-rule:evenodd;clip-rule:evenodd;fill:#A8A240;}
	.st10{fill-rule:evenodd;clip-rule:evenodd;fill:#F0AB00;}
</style>
<path class="st5" d="M82.67,40.82l-2.2-1.37c-0.26-0.16-0.37-0.48-0.29-0.77c0.27-0.94,0.42-1.9,0.47-2.86
	c0.01-0.31,0.22-0.57,0.52-0.64l2.52-0.59c0.36-0.09,0.59-0.45,0.5-0.81l-1.02-4.36c-0.08-0.36-0.45-0.59-0.81-0.5l-2.52,0.59
	c-0.3,0.07-0.6-0.08-0.75-0.34c-0.46-0.84-1.03-1.63-1.69-2.36c-0.21-0.23-0.25-0.56-0.08-0.82l1.37-2.2
	c0.2-0.32,0.1-0.73-0.22-0.93l-3.81-2.36c-0.32-0.2-0.73-0.1-0.93,0.22l-1.37,2.2c-0.16,0.26-0.48,0.37-0.77,0.29
	c-0.94-0.27-1.9-0.43-2.86-0.47c-0.31-0.01-0.57-0.22-0.64-0.52l-0.59-2.52c-0.08-0.36-0.45-0.59-0.81-0.5l-4.36,1.02
	c-0.36,0.08-0.59,0.45-0.5,0.81l0.59,2.53c0.07,0.3-0.07,0.6-0.34,0.75c-0.84,0.46-1.63,1.03-2.35,1.69
	c-0.23,0.21-0.56,0.25-0.82,0.08l-2.2-1.37c-0.32-0.2-0.73-0.1-0.93,0.22l-2.37,3.81c-0.2,0.32-0.1,0.73,0.22,0.93l2.2,1.37
	c0.26,0.16,0.37,0.48,0.29,0.77c-0.27,0.94-0.43,1.9-0.47,2.86c-0.01,0.31-0.22,0.57-0.52,0.64l-2.52,0.59
	c-0.36,0.08-0.59,0.45-0.5,0.81l1.02,4.37c0.09,0.36,0.45,0.59,0.81,0.5l2.52-0.59c0.3-0.07,0.6,0.07,0.75,0.34
	c0.46,0.84,1.03,1.63,1.69,2.36c0.21,0.23,0.25,0.56,0.08,0.82l-1.37,2.2c-0.2,0.32-0.1,0.73,0.22,0.93l3.81,2.36
	c0.32,0.2,0.73,0.1,0.93-0.22l1.37-2.2c0.16-0.26,0.48-0.37,0.77-0.29c0.94,0.27,1.9,0.43,2.86,0.47c0.31,0.01,0.57,0.22,0.64,0.52
	l0.59,2.52c0.09,0.36,0.45,0.59,0.81,0.5l4.37-1.02c0.36-0.09,0.59-0.45,0.5-0.81l-0.59-2.52c-0.07-0.3,0.07-0.6,0.34-0.75
	c0.84-0.46,1.63-1.03,2.35-1.69c0.23-0.21,0.56-0.25,0.82-0.08l2.2,1.37c0.32,0.2,0.73,0.1,0.93-0.22l2.37-3.81
	C83.09,41.44,82.99,41.02,82.67,40.82 M63.61,42.53c-4.03-2.5-5.27-7.8-2.77-11.83c2.5-4.03,7.8-5.27,11.83-2.77
	c4.03,2.5,5.27,7.8,2.77,11.83C72.94,43.8,67.64,45.04,63.61,42.53"/>
<path class="st2" d="M64.55,14.03l-1.31-0.81c-0.15-0.1-0.22-0.28-0.17-0.46c0.16-0.56,0.25-1.13,0.28-1.7
	c0.01-0.18,0.13-0.34,0.31-0.38l1.5-0.35c0.22-0.05,0.35-0.27,0.3-0.48l-0.61-2.59c-0.05-0.22-0.27-0.35-0.48-0.3l-1.5,0.35
	c-0.18,0.04-0.36-0.04-0.45-0.2c-0.27-0.5-0.61-0.97-1-1.4c-0.12-0.14-0.15-0.33-0.05-0.49l0.81-1.31c0.12-0.19,0.06-0.44-0.13-0.55
	l-2.26-1.4c-0.19-0.12-0.44-0.06-0.55,0.13L58.44,3.4c-0.1,0.15-0.28,0.22-0.46,0.17c-0.56-0.16-1.13-0.25-1.7-0.28
	c-0.18-0.01-0.34-0.13-0.38-0.31l-0.35-1.5c-0.05-0.21-0.27-0.35-0.48-0.3L52.48,1.8c-0.22,0.05-0.35,0.27-0.3,0.48l0.35,1.5
	c0.04,0.18-0.04,0.36-0.2,0.44c-0.5,0.28-0.97,0.61-1.4,1c-0.14,0.12-0.33,0.15-0.49,0.05l-1.31-0.81
	c-0.19-0.12-0.43-0.06-0.55,0.13l-1.4,2.26c-0.12,0.19-0.06,0.43,0.13,0.55l1.31,0.81c0.15,0.1,0.22,0.28,0.17,0.46
	c-0.16,0.56-0.25,1.13-0.28,1.69c-0.01,0.18-0.13,0.34-0.31,0.38l-1.5,0.35c-0.21,0.05-0.35,0.27-0.3,0.48l0.61,2.59
	c0.05,0.22,0.27,0.35,0.48,0.3l1.5-0.35c0.18-0.04,0.36,0.04,0.44,0.2c0.28,0.5,0.61,0.97,1,1.4c0.12,0.13,0.15,0.33,0.05,0.49
	l-0.81,1.31c-0.12,0.19-0.06,0.44,0.13,0.55l2.26,1.4c0.19,0.12,0.44,0.06,0.55-0.13l0.81-1.31c0.1-0.16,0.28-0.22,0.46-0.17
	c0.56,0.16,1.13,0.25,1.7,0.28c0.18,0.01,0.34,0.13,0.38,0.31l0.35,1.5c0.05,0.21,0.27,0.35,0.48,0.3l2.59-0.61
	c0.22-0.05,0.35-0.27,0.3-0.48l-0.35-1.5c-0.04-0.18,0.04-0.36,0.2-0.44c0.5-0.28,0.97-0.61,1.4-1c0.13-0.12,0.33-0.15,0.49-0.05
	l1.31,0.81c0.19,0.12,0.44,0.06,0.55-0.13l1.4-2.26C64.8,14.4,64.74,14.15,64.55,14.03 M52.96,15.51c-2.64-1.64-3.46-5.12-1.82-7.76
	c1.64-2.64,5.12-3.46,7.76-1.81c2.64,1.64,3.46,5.12,1.82,7.76C59.08,16.34,55.6,17.15,52.96,15.51"/>
<path class="st4" d="M51.37,31.09l-1.67-1.04c-0.2-0.12-0.28-0.36-0.22-0.59c0.21-0.72,0.32-1.45,0.36-2.18
	c0.01-0.23,0.17-0.43,0.4-0.49l1.92-0.45c0.28-0.06,0.45-0.34,0.38-0.62l-0.78-3.32c-0.06-0.28-0.34-0.45-0.62-0.38l-1.92,0.45
	c-0.23,0.05-0.46-0.06-0.57-0.26c-0.35-0.64-0.78-1.24-1.29-1.79c-0.16-0.17-0.19-0.42-0.06-0.62l1.04-1.67
	c0.15-0.24,0.08-0.56-0.17-0.71l-2.89-1.8c-0.24-0.15-0.56-0.08-0.71,0.17l-1.04,1.67c-0.12,0.2-0.36,0.28-0.59,0.22
	c-0.72-0.21-1.45-0.32-2.18-0.36c-0.23-0.01-0.43-0.17-0.49-0.4l-0.45-1.92c-0.06-0.28-0.34-0.45-0.62-0.38l-3.32,0.77
	c-0.28,0.06-0.45,0.34-0.38,0.62l0.45,1.92c0.05,0.23-0.06,0.46-0.26,0.57c-0.64,0.35-1.24,0.78-1.79,1.28
	c-0.17,0.16-0.43,0.19-0.62,0.06l-1.67-1.04c-0.24-0.15-0.56-0.08-0.71,0.16l-1.8,2.9c-0.15,0.24-0.07,0.56,0.17,0.71l1.67,1.04
	c0.2,0.12,0.28,0.36,0.22,0.59c-0.2,0.72-0.32,1.44-0.36,2.17c-0.01,0.23-0.17,0.43-0.4,0.49l-1.92,0.45
	c-0.28,0.06-0.45,0.34-0.38,0.62l0.78,3.32c0.06,0.28,0.34,0.45,0.62,0.38l1.92-0.45c0.23-0.05,0.46,0.06,0.57,0.26
	c0.35,0.64,0.78,1.24,1.28,1.79c0.16,0.17,0.19,0.42,0.06,0.62l-1.04,1.67c-0.15,0.24-0.08,0.56,0.17,0.71l2.89,1.8
	c0.24,0.15,0.56,0.08,0.71-0.16l1.04-1.67c0.12-0.2,0.36-0.28,0.59-0.22c0.72,0.21,1.45,0.32,2.18,0.36
	c0.23,0.01,0.43,0.17,0.49,0.4l0.45,1.92c0.06,0.28,0.34,0.45,0.62,0.38l3.32-0.78c0.28-0.06,0.45-0.34,0.38-0.62l-0.45-1.92
	c-0.05-0.23,0.06-0.46,0.26-0.57c0.64-0.35,1.24-0.78,1.79-1.28c0.17-0.16,0.42-0.19,0.62-0.06l1.67,1.04
	c0.24,0.15,0.56,0.08,0.71-0.16l1.8-2.9C51.69,31.56,51.61,31.24,51.37,31.09 M36.94,32.31c-3.01-1.87-3.94-5.83-2.07-8.85
	c1.87-3.01,5.84-3.94,8.85-2.07c3.02,1.87,3.94,5.83,2.07,8.85C43.92,33.25,39.96,34.18,36.94,32.31"/>
<path class="st3" d="M79.46,48.04c-0.22,0-0.44,0-0.65-0.01c-1.22,4.15-4.09,7.53-8.1,9.41c-2.34,1.1-4.8,1.57-7.38,1.2
	c-1.54-0.22-2.77-1.02-3.66-2.29c-0.75-1.06-1.42-2.18-2.23-3.2c-0.28-0.35-0.87-0.64-1.31-0.64c-3.18,0.04-4.73-0.94-5.89-3.9
	c-0.28-0.7-0.55-1.41-0.75-2.14c-0.49-1.79-1.65-3.03-3.36-3.54c-1.99-0.6-4.04-1.02-6.1-1.32c-2.28-0.33-4.65-0.2-6.88-0.68
	c-5.04-1.09-7.64-5.52-7.04-9.89c-1.13-2.12-1.88-4.48-2.16-6.98c-2.38,3.1-4.03,6.83-4.77,11.31c-0.57,3.42-0.7,6.88,1.09,10.14
	c1.02,1.87,0.73,3.8-0.28,5.7c-1.41,2.64-2.73,5.33-3.98,8.05c-0.59,1.29-0.02,2.44,1.29,3c0.46,0.19,0.97,0.32,1.46,0.35
	c1.02,0.05,1.4,0.59,1.37,1.55c-0.02,0.98,0.05,1.96-0.05,2.93c-0.1,1.04,0.36,1.61,1.22,2.06c0.25,0.13,0.55,0.69,0.46,0.84
	c-0.7,1.23-0.23,2.27,0.5,3.21c0.92,1.2,1.35,2.44,0.91,3.94c-0.12,0.41-0.13,0.86-0.16,1.29c-0.16,2.42,0.65,3.55,2.99,4.17
	c0.38,0.1,0.78,0.23,1.17,0.21c2.44-0.09,4.91-0.07,7.33-0.37c4.29-0.53,6.42,0.42,8.34,4.27c2,4.02,3.89,8.1,5.82,12.13
	c1.07-1.59,2.17-3.37,3.41-5.04c5.26-7.09,10.97-13.67,19.85-16.44c-0.2-1.32-0.5-2.56-0.56-3.81c-0.22-4.72,1.51-8.81,4.11-12.64
	c1.83-2.69,3.61-5.41,5.27-8.2c0.95-1.6,1.73-3.25,2.28-4.97C81.86,47.92,80.67,48.04,79.46,48.04z"/>
<path class="st9" d="M66.16,27.67l-1.32,1.9c0,0-1,1.4-0.75,3.07c0,0,0.7,0.3,2.03-1.01c0,0,0.67-0.7,0.92-1.2l6.04,4.12l0.26,0.85
	l0.83-1.06l-6.65-4.62l0.51-0.7L66.16,27.67z"/>
<rect x="64.07" y="32.21" class="st9" width="0.17" height="6.47"/>
<rect x="63.77" y="38.62" class="st10" width="0.77" height="1.43"/>
<rect x="63.38" y="39.99" class="st0" width="11.16" height="0.59"/>
<rect x="72.64" y="38.82" class="st0" width="1.9" height="1.29"/>
<rect x="73.49" y="34.73" class="st9" width="0.2" height="4.2"/>
<path class="st10" d="M64.53,35.55c0,0.32-0.17,0.57-0.38,0.57c-0.21,0-0.38-0.26-0.38-0.57c0-0.32,0.17-0.57,0.38-0.57
	C64.36,34.98,64.53,35.24,64.53,35.55z"/>
<path class="st0" d="M69.53,31.73l3.27,8.45h-0.52l-3.32-2.61L65.8,40.1l-0.53-0.01l3.04-8.35h0.81L69.53,31.73z M69.39,32.12h-0.83
	l-0.33,0.95h1.48L69.39,32.12z M70.57,35.72l-1.6-1.49l-1.6,1.49H70.57z M68.43,33.38l0.55,0.51l0.55-0.51H68.43z M67.39,35.33
	l1.35-1.25l-0.66-0.62L67.39,35.33z M69.87,33.47l-0.66,0.62l1.35,1.25L69.87,33.47z M67.65,36.07l1.33,1.24l1.33-1.24H67.65z
	 M70.85,36.12l-1.6,1.31l2.98,2.32L70.85,36.12z M65.72,39.75l2.98-2.32l-1.6-1.31L65.72,39.75z"/>
<path class="st5" d="M59.22,11.41c0,1.82-1.47,3.29-3.29,3.29c-1.82,0-3.29-1.47-3.29-3.29c0-1.82,1.47-3.29,3.29-3.29
	C57.75,8.12,59.22,9.59,59.22,11.41z M55.93,7.79c-2,0-3.62,1.62-3.62,3.62c0,2,1.62,3.62,3.62,3.62c2,0,3.62-1.62,3.62-3.62
	C59.55,9.41,57.93,7.79,55.93,7.79z"/>
<path class="st2" d="M53.42,6.93c0,0-0.01-0.09,0.02-0.18c0,0-0.15,0.16-0.11,0.37c0,0,0.05,0.29,0.34,0.39c0,0-0.16-0.12-0.18-0.23
	c0,0,0.01,0.01,0.04,0.03c0,0,0.05,0.03,0.11,0V7.25c0,0-0.05-0.08-0.05-0.16V6.97c0,0,0.01-0.06,0.02-0.06c0,0,0.02-0.01,0.02,0.03
	c0,0,0.01,0.1,0.02,0.13c0,0,0.01,0.01,0.01-0.03V6.99c0,0,0.01-0.03,0.03-0.05c0,0,0.08-0.09,0.08-0.15V6.7c0,0,0.01-0.05,0.04,0
	v0.12c0,0,0,0.11-0.02,0.16c0,0-0.02,0.03-0.02,0.05v0.11c0,0,0.01,0.08,0.1,0.1c0,0,0.1,0.02,0.15-0.08h0.06v0.09
	c0,0,0.01,0.12-0.15,0.23L53.91,7.5c0,0,0.51-0.17,0.16-0.72v0.16c0,0-0.11,0.18-0.12,0.04V6.9l0.02-0.04c0,0,0.14-0.35-0.38-0.46
	c0,0,0.1,0.05,0.12,0.12v0.13l-0.1-0.09v0.11c-0.01,0.12-0.11,0.26-0.11,0.26s-0.02,0.03-0.05,0.04
	C53.43,6.97,53.43,6.95,53.42,6.93z"/>
<path class="st2" d="M54.68,8.99c0,0,0.01-0.07-0.01-0.13c0,0,0.12,0.12,0.09,0.27c0,0-0.04,0.21-0.28,0.28c0,0,0.13-0.09,0.15-0.17
	c0,0-0.01,0.01-0.04,0.02c0,0-0.04,0.02-0.09,0V9.23c0,0,0.04-0.06,0.04-0.12V9.03c0,0,0-0.04-0.02-0.05c0,0-0.01-0.01-0.01,0.02
	c0,0-0.01,0.07-0.02,0.09c0,0-0.01,0.01-0.01-0.02V9.04c0,0-0.01-0.02-0.02-0.04c0,0-0.06-0.06-0.07-0.11V8.83c0,0-0.01-0.04-0.03,0
	v0.09c0,0,0,0.08,0.02,0.12c0,0,0.02,0.02,0.01,0.04v0.08c0,0-0.01,0.06-0.08,0.07c0,0-0.08,0.01-0.12-0.06h-0.05v0.06
	c0,0-0.01,0.08,0.13,0.17l0.03,0.02c0,0-0.41-0.13-0.13-0.52V9c0,0,0.09,0.13,0.1,0.03V8.97l-0.02-0.03c0,0-0.12-0.25,0.31-0.33
	c0,0-0.08,0.03-0.09,0.08v0.1l0.08-0.07V8.8c0.01,0.09,0.09,0.19,0.09,0.19s0.02,0.02,0.04,0.03C54.67,9.02,54.68,9.01,54.68,8.99z"
	/>
<rect x="53.48" y="7.58" class="st4" width="0.53" height="4.8"/>
<rect x="54.09" y="9.47" class="st4" width="0.53" height="2.91"/>
<path class="st5" d="M52.68,12.34h2.19v2.24C54.86,14.58,53.33,14.27,52.68,12.34z"/>
<path class="st5" d="M55.55,14.76v-3.05h-0.68c0,0-0.13,0.02-0.13-0.13v-1.34c0,0-0.02-0.15,0.14-0.14h0.77v-0.05
	c0,0-0.01-0.04,0.05-0.05h0.18V9.56c0,0,0.06-0.47,0.62-0.54V8.39c0,0,0.08-0.12,0.18-0.01v0.63c0,0,0.48,0.13,0.54,0.57v5.17h-1.35
	v-4.3H55.7c0,0-0.04,0-0.04-0.05v-0.13h-0.75v1.28h0.86v3.2L55.55,14.76z"/>
<path class="st5" d="M57.95,6.67v1.31c0,0-0.47,0.11-0.47,0.56v5.91c0,0,0.99-0.31,1.35-1.46V8.55c0,0,0.04-0.42-0.46-0.55V7.36
	c0,0-0.09-0.13-0.18,0v0.59h-0.07V6.67C58.13,6.67,58.04,6.55,57.95,6.67z"/>
<path class="st2" d="M57.49,9.75c-0.11,0-0.19-0.08-0.19-0.18l0,0c0-0.1,0.09-0.18,0.19-0.18V9.75z"/>
<path class="st2" d="M57.49,10.88c-0.11,0-0.19-0.08-0.19-0.18l0,0c0-0.1,0.09-0.18,0.19-0.18V10.88z"/>
<path class="st2" d="M57.49,12.04c-0.11,0-0.19-0.08-0.19-0.18l0,0c0-0.1,0.09-0.18,0.19-0.18V12.04z"/>
<path class="st2" d="M58.81,10.88c0.11,0,0.19-0.08,0.19-0.18l0,0c0-0.1-0.09-0.18-0.19-0.18V10.88z"/>
<path class="st2" d="M58.81,12.04c0.11,0,0.19-0.08,0.19-0.18l0,0c0-0.1-0.09-0.18-0.19-0.18V12.04z"/>
<path class="st2" d="M57.49,13.28c-0.11,0-0.19-0.08-0.19-0.18l0,0c0-0.1,0.09-0.18,0.19-0.18V13.28z"/>
<path class="st0" d="M43.99,29.99c0,0.17-0.14,0.31-0.31,0.31h-0.55c-0.17,0-0.31-0.14-0.31-0.31v-2.65c0-0.17,0.14-0.31,0.31-0.31
	h0.55c0.17,0,0.31,0.14,0.31,0.31V29.99z"/>
<path class="st0" d="M42.58,29.99c0,0.17,0.25,0.31,0.08,0.31h-0.31c-0.17,0-0.31-0.14-0.31-0.31v-2.65c0-0.17,0.14-0.31,0.31-0.31
	h0.31c0.17,0-0.08,0.14-0.08,0.31V29.99z"/>
<path class="st0" d="M41.82,29.99c0,0.17,0.25,0.31,0.08,0.31h-0.31c-0.17,0-0.31-0.14-0.31-0.31v-2.65c0-0.17,0.14-0.31,0.31-0.31
	h0.31c0.17,0-0.08,0.14-0.08,0.31V29.99z"/>
<path class="st0" d="M41.04,29.99c0,0.17,0.25,0.31,0.08,0.31h-0.31c-0.17,0-0.31-0.14-0.31-0.31v-2.65c0-0.17,0.14-0.31,0.31-0.31
	h0.31c0.17,0-0.08,0.14-0.08,0.31V29.99z"/>
<path class="st9" d="M44.03,30.73c0,0.09-0.07,0.16-0.16,0.16h-7.09c-0.09,0-0.16-0.07-0.16-0.16l0,0c0-0.09,0.07-0.16,0.16-0.16
	h7.09C43.96,30.57,44.03,30.64,44.03,30.73L44.03,30.73z"/>
<rect x="36.63" y="29.27" class="st0" width="3.63" height="1.1"/>
<rect x="36.63" y="28.25" class="st0" width="1.49" height="0.89"/>
<rect x="37.22" y="23.47" class="st9" width="0.3" height="2.59"/>
<polygon class="st0" points="37.96,28.08 36.78,28.08 37.18,26.19 37.57,26.19 "/>
<path class="st0" d="M40.03,28.82c0,0.18-0.14,0.32-0.32,0.32h-1.04c-0.18,0-0.32-0.15-0.32-0.32v-0.79c0-0.18,0.14-0.32,0.32-0.32
	h1.04c0.18,0,0.32,0.14,0.32,0.32V28.82z"/>
<path class="st10" d="M38.3,23.07c0,0-0.55,0.32-0.87-0.01c0,0-0.21-0.24,0.05-0.41c0,0,0.12-0.1,0.47-0.1c0,0,0.17,0,0.25-0.15
	c0.03-0.06,0.6-0.77,1.38-0.88c0,0,1.11-0.18,1.49,0.5c0,0,0.49,0.88-0.75,1.13h-1.58c0,0-0.16,0.01-0.24-0.11
	C38.49,23.06,38.34,23.04,38.3,23.07z"/>
<path class="st9" d="M39.31,27.58v-0.93c0-0.26,0.21-0.47,0.47-0.47h3.09c0.26,0,0.47,0.21,0.47,0.47v0.23h0.19v-0.26
	c0-0.35-0.28-0.63-0.63-0.63h-3.22c-0.35,0-0.63,0.28-0.63,0.63v0.96L39.31,27.58z"/>
<path class="st9" d="M40.92,26.14c0,0,0.23,0.06,0.28,0.4v0.31h-0.17v-0.28c0,0,0-0.23-0.31-0.43H40.92z"/>
<path class="st9" d="M41.64,26.14c0,0,0.23,0.06,0.28,0.4v0.31h-0.17v-0.28c0,0,0-0.23-0.31-0.43H41.64z"/>
<path class="st9" d="M42.43,26.14c0,0,0.23,0.06,0.28,0.4v0.31h-0.17v-0.28c0,0,0-0.23-0.31-0.43H42.43z"/>
</svg>
