<svg id="Layer_1" data-name="Layer 1" xmlns="http://www.w3.org/2000/svg" viewBox="0 0 36 36"><defs><style>.cls-1,.cls-2{fill:#0b4a99;}.cls-1{fill-rule:evenodd;}</style></defs><path class="cls-1" d="M23.38,8.18,23,8.73a1.37,1.37,0,0,0-.26.95s.24.08.65-.31c0,0,.24-.23.25-.39l1.8,1.32.07.24.25-.32-2-1.48.17-.23Z"/><rect class="cls-2" x="21.74" y="10.47" width="1.99" height="0.08" transform="translate(11.72 33.01) rotate(-88.72)"/><rect class="cls-2" x="22.43" y="11.51" width="0.4" height="0.24" transform="translate(10.5 33.99) rotate(-88.72)"/><rect class="cls-2" x="24.02" y="10.27" width="0.16" height="3.35" transform="translate(11.62 35.77) rotate(-88.72)"/><rect class="cls-2" x="25.3" y="11.49" width="0.4" height="0.56" transform="matrix(0.02, -1, 1, 0.02, 13.16, 37)"/><rect class="cls-2" x="24.88" y="10.9" width="1.28" height="0.08" transform="translate(14.01 36.2) rotate(-88.72)"/><path class="cls-1" d="M22.78,10.48a.29.29,0,0,1-.09.15.23.23,0,0,1-.07-.16.28.28,0,0,1,.08-.16C22.78,10.32,22.78,10.4,22.78,10.48Z"/><path class="cls-1" d="M24.31,9.39l.9,2.57h-.16l-1-.82-1,.78H22.9l1-2.52h.39Zm0,.08h-.24l-.16.31h.47Zm.3,1.13-.47-.49-.49.46ZM24,9.86l.16.17.16-.16Zm-.33.64.41-.39-.16-.25Zm.81-.54-.24.15.39.41Zm-.73.7.39.4.4-.39Zm.95.1-.48.39.86.73Zm-1.53,1,.89-.7-.47-.41Z"/><path class="cls-2" d="M21.34,3.19a1,1,0,0,1-1.91,0,1,1,0,0,1,1-.94A.87.87,0,0,1,21.34,3.19Zm-.93-1.14a1.1,1.1,0,0,0-1.14,1.09,1.09,1.09,0,0,0,1.09,1.14A1.08,1.08,0,0,0,21.5,3.19,1.14,1.14,0,0,0,20.41,2.05Z"/><path class="cls-2" d="M19.62,1.8h0c0,.08,0,.16.08.16a.08.08,0,0,1-.08-.08h0c.08,0,.08,0,0-.08h.08V1.72h0V1.8h.08l-.08.08h0a.18.18,0,0,0,.08-.24v.08h0s.08-.08-.07-.16h0l-.09.24Z"/><path class="cls-2" d="M20,2.44h0c0,.08,0,.08-.08.16,0-.08.08-.08.08-.16v.08h0V2.44c-.08.08-.07,0,0,0h-.07v.08h0s-.16,0,0-.16h0A.08.08,0,0,1,20,2.28h0v.16Z"/><rect class="cls-2" x="18.96" y="2.59" width="1.43" height="0.16" transform="translate(16.57 22.29) rotate(-88.72)"/><rect class="cls-2" x="19.48" y="2.88" width="0.88" height="0.16" transform="translate(16.51 22.8) rotate(-88.72)"/><path class="cls-2" d="M19.35,3.38l.71,0V4C20.05,4.12,19.57,4,19.35,3.38Z"/><path class="cls-2" d="M20.2,4.2l0-1h-.16V2.76a.08.08,0,0,1,.08-.08h.32V2.61a.15.15,0,0,1,.16-.15V2.22h.08v.24a.16.16,0,0,1,.16.16l0,1.59h-.4l0-1.36h-.39v.4h.24l-.11,1Z"/><path class="cls-2" d="M21,1.75v.39a.16.16,0,0,0-.16.16l0,1.75a.59.59,0,0,0,.41-.47l0-1.27a.15.15,0,0,0-.15-.16V1.91H21v.16h0V1.75C21.06,1.75,21.06,1.67,21,1.75Z"/><path class="cls-2" d="M20.88,2.7c-.08,0-.08-.08,0,0h0c-.08-.08,0-.08,0-.08Z"/><path class="cls-2" d="M20.87,3h0c-.08-.08,0-.08,0-.08Z"/><path class="cls-2" d="M20.86,3.34h0c-.08-.08-.08-.08,0-.08Z"/><path class="cls-2" d="M21.27,3h0c.08-.08,0-.08,0-.08Z"/><path class="cls-2" d="M21.26,3.35h0c.08-.08,0-.08,0-.08Z"/><path class="cls-2" d="M20.85,3.74h0c-.07-.08,0-.08,0-.08Z"/><path class="cls-1" d="M16.29,8.82a.08.08,0,0,1-.08.08h-.16A.08.08,0,0,1,16,8.82L16,8a.08.08,0,0,1,.08-.08h.16a.08.08,0,0,1,.08.08Z"/><path class="cls-1" d="M15.89,8.82c0,.08.08.08,0,.08h-.08a.08.08,0,0,1-.08-.08l0-.79a.08.08,0,0,1,.08-.08h.08c.08,0,0,.08,0,.08Z"/><path class="cls-1" d="M15.65,8.81c0,.08.08.08,0,.08h-.08a.08.08,0,0,1-.08-.08l0-.8a.08.08,0,0,1,.08-.08h.08c.08,0,0,.08,0,.08Z"/><path class="cls-1" d="M15.41,8.8c0,.08.08.09,0,.08h-.08a.08.08,0,0,1-.08-.08l0-.8a.07.07,0,0,1,.08-.07h.08c.08,0,0,.08,0,.08Z"/><path class="cls-1" d="M16.36,9.07h0l-2.15,0A.08.08,0,0,1,14.13,9h0a.08.08,0,0,1,.08-.08l2.15.13Z"/><rect class="cls-2" x="14.53" y="8.23" width="0.32" height="1.12" transform="translate(5.58 23.28) rotate(-88.72)"/><rect class="cls-2" x="14.26" y="8.18" width="0.24" height="0.48" transform="translate(5.64 22.61) rotate(-88.72)"/><rect class="cls-2" x="13.97" y="7.23" width="0.8" height="0.08" transform="translate(6.78 21.47) rotate(-88.72)"/><polygon class="cls-1" points="14.55 8.23 14.15 8.22 14.32 7.66 14.4 7.67 14.55 8.23"/><path class="cls-1" d="M15.1,8.48a.08.08,0,0,1-.08.08H14.7a.08.08,0,0,1-.08-.08V8.23a.08.08,0,0,1,.08-.08H15a.07.07,0,0,1,.07.08Z"/><path class="cls-1" d="M14.66,6.72s-.16.07-.24,0a.11.11,0,0,1,0-.16h.16a.08.08,0,0,0,.09-.07.52.52,0,0,1,.4-.23.44.44,0,0,1,.47.17s.16.24-.24.31h-.64Z"/><path class="cls-1" d="M15,8.08V7.84a.19.19,0,0,1,.17-.16l1,0a.19.19,0,0,1,.16.17V8h.08V7.87a.17.17,0,0,0-.16-.16l-.95,0a.19.19,0,0,0-.17.16L15,8.08Z"/><path class="cls-1" d="M15.44,7.69s.08,0,.07.16v.08h-.08V7.69Z"/><path class="cls-1" d="M15.67,7.69s.08,0,.08.17v.08h-.08V7.69Z"/><path class="cls-1" d="M15.91,7.7s.08,0,.08.16v.08h-.08V7.7Z"/><path class="cls-2" d="M17.41,36l-.86-1.72c-.11-.26-.21-.47-.32-.69a8,8,0,0,1-.34-.73c-.22-.43-.45-.92-.69-1.42s-.45-.94-.67-1.39c-.41-.82-.7-1-1.9-.95a14.36,14.36,0,0,1-2,.09H10a1.59,1.59,0,0,1-.66-.1h0a2.19,2.19,0,0,1-1.82-2.56,1.37,1.37,0,0,1,.11-.7c0-.09,0-.2-.18-.45A1.86,1.86,0,0,1,7,23.82a1.91,1.91,0,0,1-.48-1.29v-.59a3.1,3.1,0,0,1-.4-.16A1.74,1.74,0,0,1,5,20.65a1.65,1.65,0,0,1,.18-1.4c.41-.93.87-1.86,1.34-2.78.31-.56.24-.77.11-1a6.31,6.31,0,0,1-.54-4.26A9.84,9.84,0,0,1,8,6.82L9.57,4.77l.22,2.64a6.13,6.13,0,0,0,.63,2l.2.2V10a2.07,2.07,0,0,0,1.65,2.35,3.39,3.39,0,0,0,.57.09c.2,0,.42,0,.63.08a4.93,4.93,0,0,1,1.19.11,13.28,13.28,0,0,1,2.23.47,2.54,2.54,0,0,1,1.89,2l.11.28c.05.12.1.24.15.39.26.58.43.69,1.08.69a2,2,0,0,1,1.26.55l.07.09a2.72,2.72,0,0,0,.25.32l.28.38a2.09,2.09,0,0,1,.16.22l.07.1a1,1,0,0,0,.69.47,3.38,3.38,0,0,0,1.91-.32,4.07,4.07,0,0,0,2.26-2.64l.21-.82h1a5.05,5.05,0,0,0,1.07-.08l1.69-.21-.43,1.52a8.66,8.66,0,0,1-.89,2l-.8,1.25c-.32.5-.66,1-1.06,1.63a6.44,6.44,0,0,0-1.27,3.8c0,.11,0,.21,0,.32a3,3,0,0,1,.06.51,1.25,1.25,0,0,1,.09.37l.22.9-1,.23c-2.79.85-4.68,3.13-6.37,5.38l-.4.57c-.13.21-.27.41-.4.59a2.11,2.11,0,0,1-.21.31.8.8,0,0,0-.13.19ZM13,27.88a2.52,2.52,0,0,1,2.61,1.63c.23.46.46.94.68,1.42s.47,1,.7,1.43a6.4,6.4,0,0,0,.32.69c.07.14.14.28.2.42a3.07,3.07,0,0,1,.2-.28l.13-.18.05-.1c.13-.17.27-.37.4-.57s.29-.43.43-.62c1.7-2.27,3.77-4.77,6.84-5.77a1.09,1.09,0,0,1-.07-.39,1.55,1.55,0,0,0,0-.31,3.15,3.15,0,0,1-.05-.52,7.55,7.55,0,0,1,1.48-4.47c.39-.58.72-1.12,1-1.61l.79-1.24A8,8,0,0,0,29.39,16a6.14,6.14,0,0,1-1.09.07h-.08a5.35,5.35,0,0,1-2.87,3.33,4.72,4.72,0,0,1-2.64.43,2.16,2.16,0,0,1-1.42-.88l-.16-.21-.06-.1L21,18.54c-.08-.12-.17-.22-.25-.32l-.26-.35a.83.83,0,0,0-.37-.16,2.08,2.08,0,0,1-2.2-1.46l-.15-.38c-.05-.13-.1-.26-.15-.41a1.44,1.44,0,0,0-1-1.17,13,13,0,0,0-2.13-.44,4.11,4.11,0,0,0-1-.09H13.3c-.2,0-.4-.06-.59-.08a7.05,7.05,0,0,1-.73-.11,3.26,3.26,0,0,1-2.58-3.5l0,0A7.64,7.64,0,0,1,8.65,8,8.79,8.79,0,0,0,7.3,11.42a5.22,5.22,0,0,0,.39,3.46A2,2,0,0,1,7.6,17c-.44.88-.89,1.79-1.35,2.8a.52.52,0,0,0-.07.47c0,.13.08.21.43.39a1.29,1.29,0,0,0,.38.12h.6l.09.6v1.11a.74.74,0,0,0,.31.62l.38.28-.19.44a.7.7,0,0,0,.15.71,1.75,1.75,0,0,1,.44,1.58l0,.13c0,.05,0,.05,0,.19v.14a1,1,0,0,0,.86,1.27h.16l.14.09h.81a12.33,12.33,0,0,0,1.84-.09ZM9.85,28l.13.08A.24.24,0,0,0,9.85,28Z"/><rect class="cls-2" x="16.25" y="4.72" width="1.35" height="0.68" transform="translate(2.24 14.87) rotate(-50.4)"/><path class="cls-2" d="M15.08,10.77a2.93,2.93,0,1,1,3-2.87A2.94,2.94,0,0,1,15.08,10.77Zm.12-5.19a2.26,2.26,0,1,0,2.2,2.31A2.26,2.26,0,0,0,15.2,5.58Z"/><rect class="cls-2" x="14" y="3.98" width="0.68" height="1.13" transform="translate(-0.68 3.73) rotate(-14.47)"/><rect class="cls-2" x="15.58" y="10.53" width="0.68" height="1.25" transform="translate(-2.09 3.84) rotate(-12.91)"/><rect class="cls-2" x="17.53" y="8.92" width="0.68" height="1.35" transform="translate(0.2 19.55) rotate(-57.65)"/><rect class="cls-2" x="17.66" y="6.82" width="1.3" height="0.68" transform="translate(-1.27 5.38) rotate(-16.15)"/><rect class="cls-2" x="11.96" y="5.31" width="0.68" height="1.48" transform="translate(0.6 13.19) rotate(-57.58)"/><rect class="cls-2" x="11.29" y="8.14" width="1.35" height="0.68" transform="translate(-1.72 3.22) rotate(-14.3)"/><rect class="cls-2" x="12.74" y="10.21" width="1.29" height="0.68" transform="translate(-2.71 16.16) rotate(-57.44)"/><rect class="cls-2" x="21.15" y="0.62" width="1.05" height="0.53" transform="translate(7.18 17.02) rotate(-50.4)"/><path class="cls-2" d="M20.25,5.33A2.28,2.28,0,1,1,22.58,3.1,2.27,2.27,0,0,1,20.25,5.33Zm.09-4a1.76,1.76,0,1,0,1.71,1.79A1.75,1.75,0,0,0,20.34,1.3Z"/><rect class="cls-2" x="19.41" y="0.05" width="0.53" height="0.88" transform="translate(0.5 4.93) rotate(-14.47)"/><rect class="cls-2" x="20.64" y="5.15" width="0.53" height="0.97" transform="translate(-0.73 4.81) rotate(-12.91)"/><rect class="cls-2" x="22.15" y="3.9" width="0.53" height="1.05" transform="translate(6.68 20.99) rotate(-57.65)"/><rect class="cls-2" x="22.25" y="2.26" width="1.01" height="0.53" transform="translate(0.2 6.43) rotate(-16.15)"/><rect class="cls-2" x="17.81" y="1.08" width="0.53" height="1.15" transform="translate(6.98 16.03) rotate(-57.58)"/><rect class="cls-2" x="17.29" y="3.29" width="1.05" height="0.53" transform="translate(-0.32 4.51) rotate(-14.3)"/><rect class="cls-2" x="18.43" y="4.9" width="1" height="0.53" transform="translate(4.39 18.34) rotate(-57.44)"/><path class="cls-2" d="M23.86,13.78a3.44,3.44,0,1,1,3.52-3.36A3.43,3.43,0,0,1,23.86,13.78ZM24,7.69a2.65,2.65,0,1,0,2.59,2.71A2.66,2.66,0,0,0,24,7.69Z"/><rect class="cls-2" x="22.59" y="5.82" width="0.79" height="1.33" transform="translate(-0.89 5.95) rotate(-14.47)"/><rect class="cls-2" x="24.45" y="13.5" width="0.8" height="1.47" transform="translate(-2.55 5.91) rotate(-12.91)"/><rect class="cls-2" x="26.73" y="11.62" width="0.79" height="1.59" transform="translate(2.13 28.69) rotate(-57.65)"/><rect class="cls-2" x="26.89" y="9.14" width="1.53" height="0.79" transform="translate(-1.56 8.07) rotate(-16.15)"/><rect class="cls-2" x="25.23" y="6.67" width="1.59" height="0.79" transform="translate(3.98 22.61) rotate(-50.4)"/><rect class="cls-2" x="20.19" y="7.37" width="0.8" height="1.74" transform="translate(2.59 21.2) rotate(-57.58)"/><rect class="cls-2" x="19.41" y="10.69" width="1.58" height="0.8" transform="translate(-2.11 5.33) rotate(-14.3)"/><rect class="cls-2" x="21.11" y="13.13" width="1.51" height="0.79" transform="translate(-1.3 24.68) rotate(-57.44)"/></svg>