<?xml version="1.0" encoding="utf-8"?>
<!-- Generator: Adobe Illustrator 25.0.0, SVG Export Plug-In . SVG Version: 6.00 Build 0)  -->
<svg version="1.1" id="Layer_1" xmlns="http://www.w3.org/2000/svg" xmlns:xlink="http://www.w3.org/1999/xlink" x="0px" y="0px"
	 viewBox="0 0 100 100" style="enable-background:new 0 0 100 100;" xml:space="preserve">
<style type="text/css">
	.st0{fill-rule:evenodd;clip-rule:evenodd;fill:#40875E;}
	.st1{fill-rule:evenodd;clip-rule:evenodd;fill:#A8A240;}
	.st2{fill:none;}
	.st3{fill:#F0AB00;}
	.st4{fill:#A8A240;}
	.st5{fill:#40875E;}
	.st6{fill-rule:evenodd;clip-rule:evenodd;fill:#F0AB00;}
	.st7{fill-rule:evenodd;clip-rule:evenodd;fill:#0B4A99;}
	.st8{fill:none;stroke:#F0AB00;stroke-miterlimit:10;}
	.st9{fill:#A8A240;stroke:#F0AB00;stroke-width:2;stroke-miterlimit:10;}
	.st10{fill:#F0AB00;stroke:#A8A240;stroke-width:3;stroke-miterlimit:10;}
	.st11{fill:#3E865F;}
	.st12{fill:#EFAA03;}
	.st13{fill:#A6A13E;}
	.st14{fill:#0B4A99;}
	.st15{fill:#F5B026;}
	.st16{fill:#FFCD2E;}
	.st17{fill:#D4D2D2;}
	.st18{fill:#E3E4E3;}
	.st19{fill:#FBD97C;}
	.st20{fill:#57BEC5;}
	.st21{fill:#469BA3;}
	.st22{fill:#CB151A;}
	.st23{fill:url(#SVGID_1_);}
	.st24{fill:url(#SVGID_2_);}
	.st25{fill:url(#SVGID_3_);}
	.st26{fill:#CFCFCE;}
	.st27{fill:#D4D3D3;}
	.st28{fill:#E4E5E3;}
	.st29{fill:#A2BAD0;}
	.st30{fill:#4B708F;}
	.st31{fill:#8AA4BE;}
	.st32{fill:#CCCACA;}
	.st33{opacity:0.59;fill:#3E865F;}
	.st34{opacity:0.6;}
	.st35{fill:#3F5B7A;}
	.st36{opacity:0.2;}
	.st37{fill:#516D8C;}
	.st38{fill-rule:evenodd;clip-rule:evenodd;fill:#CC8E05;}
	.st39{fill:url(#SVGID_4_);}
	.st40{fill:none;stroke:#40875E;stroke-width:2;stroke-miterlimit:10;}
	.st41{fill:url(#SVGID_5_);}
	.st42{fill:url(#SVGID_6_);}
	.st43{fill:url(#SVGID_7_);}
	.st44{opacity:0.44;fill:#40875E;}
</style>
<path class="st12" d="M64.57,76.75l1.08,0.1l0.94,0.08c0.37,0.11,0.76,0.17,1.15,0.17c0.09,0,0.18-0.02,0.27-0.02
	c0.14-0.01,0.29-0.02,0.43-0.05c0.62-0.11,1.22-0.37,1.74-0.76l11.03-8.69c0.13-0.1,0.24-0.24,0.32-0.39
	c0.54-1.01,0.51-2.19-0.07-3.16c-0.05-0.08-0.12-0.15-0.18-0.23c-0.36-0.49-0.83-0.85-1.37-1.08c-0.38-0.16-0.78-0.27-1.2-0.27
	c-0.32,0-0.64,0.05-0.95,0.14l-1.12,0.34c-0.07,0.02-0.14,0.05-0.2,0.08l-0.83,0.42l-0.75,0.38L68.61,67
	c-0.04,0.02-0.09,0.05-0.13,0.07c-0.25,0.17-0.55,0.26-0.85,0.26c-0.18,0-0.36-0.04-0.53-0.1c-0.13-0.05-0.26-0.11-0.37-0.19
	l-1.36-0.98l10.22-9.43l0.16-0.13c0.5-0.39,1.07-0.53,1.6-0.48c0.54-0.26,1.19-0.18,1.69,0.18l2.56-2.36l0.16-0.13
	c0.43-0.34,0.91-0.49,1.38-0.49c0.62-0.36,1.42-0.31,1.98,0.21l0.16,0.15c0.12,0.11,0.19,0.24,0.27,0.38l2.99-2.77l0.2-0.16
	c0.63-0.49,1.33-0.65,2-0.58c0.68-0.42,1.57-0.38,2.18,0.19l0.18,0.16c0.54,0.51,0.7,1.27,0.47,1.93c0.64-0.4,1.35-0.47,1.99-0.29
	c0.59-0.16,1.23-0.05,1.71,0.39l0.18,0.17c0.73,0.68,0.77,1.83,0.09,2.56l-0.16,0.17c-0.1,0.33-0.26,0.63-0.48,0.9L74.74,83.3
	c-0.49,0.59-1.23,0.94-2,0.94H51.97c-0.52,0-1.02-0.16-1.45-0.45L36.4,74.24l22.09,1.97L64.57,76.75z"/>
<path class="st12" d="M13.45,61.48l10.32-7.54c0.17-0.13,0.37-0.21,0.57-0.3c0.16-0.06,0.33-0.11,0.52-0.15
	c0.09-0.02,0.19-0.04,0.28-0.05c0.17-0.02,0.34-0.03,0.53-0.03h18.62h0.58c0.58,0,1.15,0.18,1.62,0.52l17.96,12.96l1.56,1.12
	c0.04,0.03,0.09,0.04,0.14,0.07c0.45,0.29,0.96,0.45,1.48,0.45c0.53,0,1.07-0.15,1.53-0.46l2.38-1.21l2.09-1.06l3.36-1.71l1.12-0.34
	c0.2-0.06,0.4-0.09,0.59-0.09c0.13,0,0.24,0.03,0.36,0.05c0.33,0.06,0.63,0.21,0.88,0.42c0.16,0.14,0.31,0.29,0.42,0.47
	c0.35,0.56,0.44,1.3,0.07,1.99l-1.27,1l-9.59,7.56l-0.17,0.14c-0.41,0.31-0.88,0.49-1.37,0.54c-0.1,0.01-0.2,0.03-0.3,0.03
	c-0.3,0-0.61-0.05-0.9-0.15l-1.31-0.12l-0.3-0.03l-7.16-0.63l-22.22-1.98c-0.29-0.1-0.6-0.15-0.9-0.15c-0.21,0-0.42,0.03-0.63,0.08
	c-0.18,0.04-0.36,0.1-0.53,0.17l-15.5,6.12l-0.12-0.43L13.5,61.67L13.45,61.48z"/>
<path class="st13" d="M1.42,61.79c0.42-0.73,1.1-1.25,1.91-1.48l4.9-1.34c0.27-0.07,0.55-0.11,0.83-0.11c1.35,0,2.53,0.87,2.97,2.13
	c0.02,0.07,0.05,0.13,0.07,0.19l0.12,0.43l0.17,0.63l0.06,0.21l4.57,16.78l0.11,0.4l0.02,0.08c0.05,0.18,0.07,0.36,0.09,0.53
	c0.02,0.22,0.02,0.44-0.01,0.66c-0.15,1.24-1.02,2.32-2.3,2.67l-4.9,1.34c-1.65,0.45-3.42-0.58-3.87-2.21L1.12,64.18
	C0.9,63.37,1.01,62.52,1.42,61.79"/>
<polygon class="st11" points="59.87,29.5 59.87,14.97 51.71,14.97 51.71,29.5 37.74,29.5 37.74,37.41 51.71,37.41 51.71,52.06 
	59.87,52.06 59.87,37.41 73.84,37.41 73.84,29.5 "/>
</svg>
