<?xml version="1.0" encoding="utf-8"?>
<!-- Generator: Adobe Illustrator 25.0.0, SVG Export Plug-In . SVG Version: 6.00 Build 0)  -->
<svg version="1.1" id="Layer_1" xmlns="http://www.w3.org/2000/svg" xmlns:xlink="http://www.w3.org/1999/xlink" x="0px" y="0px"
	 viewBox="0 0 100 100" style="enable-background:new 0 0 100 100;" xml:space="preserve">
<style type="text/css">
	.st0{fill-rule:evenodd;clip-rule:evenodd;fill:#40875E;}
	.st1{fill-rule:evenodd;clip-rule:evenodd;fill:#A8A240;}
	.st2{fill:none;}
	.st3{fill:#F0AB00;}
	.st4{fill:#A8A240;}
	.st5{fill:#40875E;}
	.st6{fill-rule:evenodd;clip-rule:evenodd;fill:#F0AB00;}
	.st7{fill-rule:evenodd;clip-rule:evenodd;fill:#0B4A99;}
	.st8{fill:none;stroke:#F0AB00;stroke-miterlimit:10;}
	.st9{fill:#A8A240;stroke:#F0AB00;stroke-width:2;stroke-miterlimit:10;}
	.st10{fill:#F0AB00;stroke:#A8A240;stroke-width:3;stroke-miterlimit:10;}
	.st11{fill:#3E865F;}
	.st12{fill:#EFAA03;}
	.st13{fill:#A6A13E;}
	.st14{fill:#0B4A99;}
	.st15{fill:#F5B026;}
	.st16{fill:#FFCD2E;}
	.st17{fill:#D4D2D2;}
	.st18{fill:#E3E4E3;}
	.st19{fill:#FBD97C;}
	.st20{fill:#57BEC5;}
	.st21{fill:#469BA3;}
	.st22{fill:#CB151A;}
	.st23{fill:url(#SVGID_1_);}
	.st24{fill:url(#SVGID_2_);}
	.st25{fill:url(#SVGID_3_);}
	.st26{fill:#CFCFCE;}
	.st27{fill:#D4D3D3;}
	.st28{fill:#E4E5E3;}
	.st29{fill:#A2BAD0;}
	.st30{fill:#4B708F;}
	.st31{fill:#8AA4BE;}
	.st32{fill:#CCCACA;}
	.st33{opacity:0.59;fill:#3E865F;}
	.st34{opacity:0.6;}
	.st35{fill:#3F5B7A;}
	.st36{opacity:0.2;}
	.st37{fill:#516D8C;}
	.st38{fill-rule:evenodd;clip-rule:evenodd;fill:#CC8E05;}
	.st39{fill:url(#SVGID_4_);}
	.st40{fill:none;stroke:#40875E;stroke-width:2;stroke-miterlimit:10;}
	.st41{fill:url(#SVGID_5_);}
	.st42{fill:url(#SVGID_6_);}
	.st43{fill:url(#SVGID_7_);}
	.st44{opacity:0.44;fill:#40875E;}
</style>
<path class="st1" d="M73.32,50.92c7.45-6.26,11.72-15.41,11.72-25.08c0-9.68-4.27-18.82-11.72-25.09c-0.99-0.83-2.47-0.7-3.3,0.29
	c-0.37,0.43-0.55,0.97-0.55,1.5c0,0.67,0.28,1.33,0.83,1.79c6.39,5.37,10.06,13.21,10.06,21.5c0,8.29-3.67,16.13-10.05,21.5
	c-0.56,0.46-0.84,1.12-0.84,1.79c0,0.54,0.18,1.07,0.55,1.5C70.85,51.62,72.33,51.75,73.32,50.92L73.32,50.92z"/>
<path class="st1" d="M75.67,25.83c0-6.91-3.05-13.44-8.37-17.92c-0.99-0.83-2.47-0.71-3.3,0.28c-0.37,0.44-0.55,0.98-0.55,1.51
	c0,0.66,0.28,1.33,0.83,1.79C68.55,15.08,71,20.3,71,25.83c0,5.53-2.45,10.75-6.71,14.33c-0.55,0.47-0.83,1.13-0.83,1.79
	c0,0.53,0.17,1.07,0.55,1.51c0.83,0.99,2.31,1.12,3.3,0.28C72.63,39.27,75.67,32.74,75.67,25.83L75.67,25.83z"/>
<path class="st1" d="M66.31,25.83c0-4.15-1.83-8.07-5.02-10.75c-0.98-0.83-2.46-0.7-3.29,0.29c-0.38,0.44-0.56,0.97-0.56,1.5
	c0,0.67,0.28,1.33,0.83,1.8c2.14,1.78,3.35,4.4,3.35,7.16s-1.22,5.38-3.35,7.16c-0.55,0.46-0.83,1.13-0.83,1.8
	c0,0.53,0.18,1.07,0.56,1.5c0.83,0.99,2.3,1.12,3.29,0.29C64.48,33.9,66.31,29.99,66.31,25.83L66.31,25.83z"/>
<path class="st1" d="M26.68,50.92c0.99,0.83,2.47,0.7,3.3-0.29c0.37-0.43,0.55-0.97,0.55-1.5c0-0.67-0.28-1.33-0.83-1.79
	c-6.39-5.37-10.05-13.21-10.05-21.5c0-8.3,3.66-16.13,10.06-21.5c0.55-0.46,0.83-1.12,0.83-1.79c0-0.53-0.18-1.07-0.55-1.5
	c-0.83-0.99-2.31-1.12-3.3-0.29c-7.45,6.26-11.72,15.41-11.72,25.09C14.96,35.51,19.23,44.65,26.68,50.92L26.68,50.92z"/>
<path class="st1" d="M24.32,25.83c0,6.91,3.05,13.44,8.37,17.91c0.99,0.84,2.46,0.71,3.3-0.28c0.38-0.44,0.55-0.97,0.55-1.51
	c0-0.66-0.28-1.32-0.83-1.79C31.45,36.58,29,31.37,29,25.83c0-5.53,2.45-10.75,6.71-14.34c0.55-0.46,0.83-1.13,0.83-1.79
	c0-0.53-0.18-1.07-0.55-1.51c-0.83-0.99-2.31-1.11-3.3-0.28C27.37,12.39,24.32,18.92,24.32,25.83L24.32,25.83z"/>
<path class="st1" d="M33.69,25.83c0,4.16,1.83,8.07,5.02,10.75c0.98,0.83,2.46,0.7,3.29-0.29c0.38-0.43,0.55-0.97,0.55-1.5
	c0-0.67-0.28-1.33-0.83-1.8c-2.13-1.78-3.35-4.39-3.35-7.16s1.22-5.38,3.35-7.16c0.55-0.47,0.83-1.13,0.83-1.8
	c0-0.53-0.18-1.07-0.55-1.5c-0.83-0.99-2.3-1.12-3.29-0.29C35.52,17.76,33.69,21.68,33.69,25.83L33.69,25.83z"/>
<path class="st0" d="M52.83,32.89c4.28,33.09,23.03,57.76,26.79,62.6c0,0,1.3,2.97-2.53,1.84l-15.53-8.36L50.78,99.8l-11.7-10.46
	l-15.85,8.25c-3.83,0.81-2.32-2.11-2.32-2.11c3.76-4.84,22.51-29.5,26.79-62.6H52.83z M45.77,54.83l1.4,2.26l1.56-2.21v-9.11
	L45.77,54.83z M52.13,45.78v9.11l1.56,2.21l1.4-2.26L52.13,45.78z M42.4,66.15l1.99,3.07l3.78-3.51l-1.72-3.5L42.4,66.15z
	 M54.42,62.22l-1.72,3.5l3.77,3.51l1.99-3.07L54.42,62.22z M38.08,74.62l3.72-3.4l-1.24-2.1L38.08,74.62z M60.3,69.12l-1.24,2.1
	l3.72,3.4L60.3,69.12z M52.08,69.66v6.25l2.75-3.88L52.08,69.66z M46.04,72.03l2.75,3.88v-6.25L46.04,72.03z M52.4,81.68l8.14,4.31
	l4.96-4.58l-8.41-7.82L52.4,81.68z M43.78,73.59l-8.41,7.82l4.96,4.58l8.14-4.31L43.78,73.59z M52.1,84.54v9.97l6.52-6.47
	L52.1,84.54z M42.24,88.05l6.53,6.47v-9.97L42.24,88.05z M63.81,87.45l9.11,4.21l-5.23-8.3L63.81,87.45z M33.18,83.36l-5.23,8.3
	l9.11-4.21L33.18,83.36z"/>
<path class="st6" d="M57.57,26.42c0,4.05-3.28,7.34-7.33,7.34s-7.33-3.28-7.33-7.34c0-4.05,3.28-7.33,7.33-7.33
	S57.57,22.37,57.57,26.42z"/>
</svg>
