<?xml version="1.0" encoding="utf-8"?>
<!-- Generator: Adobe Illustrator 25.0.0, SVG Export Plug-In . SVG Version: 6.00 Build 0)  -->
<svg version="1.1" id="Layer_1" xmlns="http://www.w3.org/2000/svg" xmlns:xlink="http://www.w3.org/1999/xlink" x="0px" y="0px"
	 viewBox="0 0 100 100" style="enable-background:new 0 0 100 100;" xml:space="preserve">
<style type="text/css">
	.st0{fill-rule:evenodd;clip-rule:evenodd;fill:#40875E;}
	.st1{fill-rule:evenodd;clip-rule:evenodd;fill:#A8A240;}
	.st2{fill:none;}
	.st3{fill:#F0AB00;}
	.st4{fill:#A8A240;}
	.st5{fill:#40875E;}
	.st6{fill-rule:evenodd;clip-rule:evenodd;fill:#F0AB00;}
	.st7{fill-rule:evenodd;clip-rule:evenodd;fill:#0B4A99;}
	.st8{fill:none;stroke:#F0AB00;stroke-miterlimit:10;}
	.st9{fill:#A8A240;stroke:#F0AB00;stroke-width:2;stroke-miterlimit:10;}
	.st10{fill:#F0AB00;stroke:#A8A240;stroke-width:3;stroke-miterlimit:10;}
	.st11{fill:#3E865F;}
	.st12{fill:#EFAA03;}
	.st13{fill:#A6A13E;}
	.st14{fill:#0B4A99;}
	.st15{fill:#F5B026;}
	.st16{fill:#FFCD2E;}
	.st17{fill:#D4D2D2;}
	.st18{fill:#E3E4E3;}
	.st19{fill:#FBD97C;}
	.st20{fill:#57BEC5;}
	.st21{fill:#469BA3;}
	.st22{fill:#CB151A;}
	.st23{fill:url(#SVGID_1_);}
	.st24{fill:url(#SVGID_2_);}
	.st25{fill:url(#SVGID_3_);}
	.st26{fill:#CFCFCE;}
	.st27{fill:#D4D3D3;}
	.st28{fill:#E4E5E3;}
	.st29{fill:#A2BAD0;}
	.st30{fill:#4B708F;}
	.st31{fill:#8AA4BE;}
	.st32{fill:#CCCACA;}
	.st33{opacity:0.59;fill:#3E865F;}
	.st34{opacity:0.6;}
	.st35{fill:#3F5B7A;}
	.st36{opacity:0.2;}
	.st37{fill:#516D8C;}
	.st38{fill-rule:evenodd;clip-rule:evenodd;fill:#CC8E05;}
	.st39{fill:url(#SVGID_4_);}
	.st40{fill:none;stroke:#40875E;stroke-width:2;stroke-miterlimit:10;}
	.st41{fill:url(#SVGID_5_);}
	.st42{fill:url(#SVGID_6_);}
	.st43{fill:url(#SVGID_7_);}
	.st44{opacity:0.44;fill:#40875E;}
</style>
<path class="st13" d="M49.11,83.4c-0.58,1.15-0.99,2.18-1.58,3.09c-2.63,4.04-6.42,6.2-11.22,6.3c-5.85,0.12-11.71,0.08-17.56,0.02
	c-7.76-0.09-13.58-6-13.64-13.75c0-0.61,0-1.23,0-1.93c2.63,0,5.18,0.12,7.71-0.04c1.73-0.11,2.78,0.34,3.35,2.06
	c0.41,1.23,1.17,2.33,1.71,3.52c0.27,0.6,0.63,0.76,1.27,0.76c9.52-0.02,19.03-0.02,28.55-0.02C48.08,83.4,48.47,83.4,49.11,83.4z"
	/>
<path class="st11" d="M39.75,30.05c7.32,0,14.57,0,22.11,0c0.51,5.16,1.02,10.31,1.54,15.58c-8.55,0-16.86,0-25.17,0
	C37.86,43.67,38.81,33.83,39.75,30.05z M52.18,39.5c-1.06,0-2.05,0-3.02,0c0,1.06,0,2.05,0,3.02c1.04,0,2.01,0,3.02,0
	C52.18,41.51,52.18,40.54,52.18,39.5z M55.41,42.52c1.08,0,2.04,0,3.04,0c0-1.04,0-2.03,0-3.02c-1.05,0-2.04,0-3.04,0
	C55.41,40.53,55.41,41.5,55.41,42.52z M42.85,42.52c1.08,0,2.05,0,3.03,0c0-1.04,0-2.03,0-3.01c-1.05,0-2.04,0-3.03,0
	C42.85,40.54,42.85,41.51,42.85,42.52z"/>
<path class="st11" d="M63.42,48.91c-0.53,5.26-1.05,10.42-1.58,15.64c-0.59,0-0.91,0-1.23,0c-5.72,0-11.45-0.01-17.17,0.01
	c-0.6,0-0.92-0.19-1.32-0.69c-0.64-0.81-1.56-1.4-2.35-2.1c-0.24-0.22-0.63-0.46-0.65-0.71c-0.36-3.97-0.67-7.94-0.99-11.92
	c0-0.06,0.04-0.12,0.08-0.23C46.49,48.91,54.78,48.91,63.42,48.91z M42.88,52.03c0,1.1,0,2.09,0,3.05c1.05,0,2.01,0,3,0
	c0-1.04,0-2.03,0-3.05C44.85,52.03,43.89,52.03,42.88,52.03z M52.18,52.07c-1.07,0-2.06,0-3.02,0c0,1.06,0,2.05,0,3.02
	c1.05,0,2.01,0,3.02,0C52.18,54.06,52.18,53.1,52.18,52.07z M55.45,52.02c0,1.02,0,2.03,0,3.05c1.02,0,2.01,0,2.98,0
	c0-1.06,0-2.05,0-3.05C57.41,52.02,56.47,52.02,55.45,52.02z"/>
<path class="st12" d="M5.11,14.45C5.12,7.87,9.9,2.51,16.42,1.79c6.21-0.69,12.12,3.6,13.51,9.9c0.73,3.32,0.37,6.56-1.48,9.44
	c-3.1,4.84-6.33,9.6-9.53,14.38c-0.71,1.06-1.78,1.07-2.48,0.03C13.2,30.71,9.97,25.87,6.8,21C5.58,19.14,5.11,16.91,5.11,14.45z
	 M8.25,14.18c0,5.31,4.15,9.54,9.38,9.55c5.17,0.02,9.48-4.26,9.46-9.38c-0.02-5.2-4.23-9.44-9.4-9.45
	C12.55,4.88,8.25,9.11,8.25,14.18z"/>
<path class="st11" d="M86.69,48.92c-0.16,4.29-1.12,8.35-2.74,12.27c-0.34,0.81-0.77,1.59-1.09,2.41c-0.29,0.73-0.71,0.99-1.53,0.98
	c-5.13-0.05-10.26-0.02-15.4-0.02c-0.35,0-0.71,0-0.9,0c0.51-5.23,1.01-10.39,1.53-15.63C73.15,48.92,79.89,48.92,86.69,48.92z"/>
<path class="st11" d="M34.85,48.91c0.33,4.17,0.66,8.26,1,12.51c-0.24,0-0.54,0-0.85,0c-5.56,0-11.11-0.01-16.67,0.02
	c-0.71,0-1.01-0.23-1.26-0.87c-1.43-3.62-2.22-7.37-2.46-11.24c-0.01-0.12,0.02-0.25,0.03-0.42C21.38,48.91,28.11,48.91,34.85,48.91
	z"/>
<path class="st11" d="M14.51,45.65c0.3-2.24,0.59-4.42,0.88-6.57c0.96,0.13,1.75,0.34,2.54,0.31c1.58-0.05,2.77-0.87,3.63-2.17
	c1.46-2.2,2.92-4.41,4.42-6.59c0.19-0.28,0.58-0.59,0.87-0.59c3.1-0.04,6.21-0.02,9.31-0.01c0.09,0,0.18,0.05,0.1,0.02
	c-0.51,5.2-1.01,10.36-1.52,15.6C28.16,45.65,21.41,45.65,14.51,45.65z"/>
<path class="st11" d="M86.69,45.67c-6.81,0-13.53,0-20.16,0c-0.49-5.21-0.98-10.36-1.48-15.62c0.92,0.06,2.02-0.37,3.03,0.67
	c0.94,0.96,2.03,0.99,4.23,0.58c1.51,3.01,3.02,6.04,4.61,9.22c1.02-1.02,1.99-1.97,2.94-2.94c0.78-0.79,1.93-1.49,2.19-2.43
	c0.26-0.94-0.37-2.13-0.64-3.2c-0.39-1.6-0.8-3.2-1.06-4.85C84.32,32.62,86.32,38.8,86.69,45.67z"/>
<path class="st13" d="M89.68,3.32c1.95,0.1,3.56,1.04,4.44,2.96c0.88,1.91,0.73,3.84-0.71,5.4c-5.07,5.45-10.49,10.49-17.11,14.06
	c-1.63,0.88-3.32,1.68-5.02,2.43c-0.4,0.18-1.05,0.15-1.42-0.06c-0.59-0.34-0.35-0.95-0.11-1.49c2.94-6.76,7.07-12.7,12.28-17.9
	c1.29-1.29,2.58-2.59,3.87-3.89C86.9,3.82,88.12,3.36,89.68,3.32z M88.63,11.16c0.79-0.74,1.51-1.42,2.28-2.14
	c-0.67-0.65-1.37-1.33-1.98-1.92c-0.75,0.7-1.48,1.4-2.24,2.11C87.38,9.9,88.07,10.59,88.63,11.16z M84.41,11.48
	c-0.74,0.71-1.46,1.4-2.07,1.98c0.73,0.75,1.43,1.46,2.1,2.15c0.66-0.65,1.36-1.32,2.08-2.02C85.8,12.86,85.08,12.15,84.41,11.48z
	 M77.87,17.87c0.74,0.76,1.44,1.47,2.07,2.11c0.72-0.67,1.42-1.32,2.04-1.9c-0.74-0.73-1.44-1.43-2.1-2.09
	C79.24,16.59,78.56,17.23,77.87,17.87z"/>
<path class="st11" d="M60.96,26.83c-6.95,0-13.7,0-20.56,0c1.26-4.62,2.66-9.09,5.68-12.85c0.49-0.61,1.05-1.17,1.66-1.66
	c1.97-1.56,4.06-1.52,5.99,0.09c2.25,1.88,3.51,4.44,4.7,7.02c0.09,0.19-0.06,0.54-0.2,0.75c-0.18,0.29-0.46,0.52-0.72,0.8
	C60.34,21.97,60.06,24.65,60.96,26.83z"/>
<path class="st11" d="M40.46,70.5c0.72-0.94,1.31-1.74,1.95-2.51c0.13-0.16,0.42-0.28,0.64-0.28c5.85-0.01,11.7-0.01,17.55,0
	c0.06,0,0.12,0.03,0.33,0.09c-1.76,5.68-3.23,11.49-8.69,15.42c0-1.16,0-2.01,0-2.97c-2.11,0-4.13,0.02-6.14-0.02
	c-0.34-0.01-0.84-0.24-0.98-0.51C43.5,76.62,41.96,73.49,40.46,70.5z"/>
<path class="st12" d="M14.58,73.98c0-1.11,0-2.08,0-3.14c0.36,0,0.68,0,1,0c6.86,0,13.73,0.01,20.59-0.02c0.73,0,1.09,0.23,1.4,0.88
	c1.36,2.81,2.78,5.6,4.23,8.51c-0.39,0.02-0.67,0.05-0.94,0.05c-6.57,0-13.14-0.01-19.71,0.02c-0.74,0-1.09-0.24-1.39-0.89
	c-0.69-1.51-1.53-2.96-2.2-4.48c-0.33-0.75-0.76-1.04-1.55-0.94C15.56,74.02,15.1,73.98,14.58,73.98z M23.88,77.08
	c0-1.1,0-2.09,0-3.05c-1.05,0-2.01,0-3,0c0,1.04,0,2.03,0,3.05C21.9,77.08,22.87,77.08,23.88,77.08z M27.17,74.02
	c0,1.08,0,2.07,0,3.05c1.04,0,2.01,0,3.01,0c0-1.04,0-2.03,0-3.05C29.16,74.02,28.2,74.02,27.17,74.02z M36.44,77.08
	c0-1.09,0-2.08,0-3.05c-1.04,0-2.01,0-3.01,0c0,1.04,0,2.03,0,3.05C34.46,77.08,35.43,77.08,36.44,77.08z"/>
<path class="st11" d="M28.47,26.87c0.76-1.15,1.39-2.13,2.05-3.1c1.52-2.23,2.44-4.67,2.74-7.36c0.05-0.4,0.37-0.92,0.72-1.12
	c2.83-1.6,5.89-2.64,9.07-3.33c0.15-0.03,0.31,0,0.52,0c-0.69,1.06-1.38,2.04-1.98,3.08c-1.98,3.42-3.24,7.12-4.17,10.94
	c-0.18,0.73-0.48,0.91-1.18,0.9C33.72,26.85,31.2,26.87,28.47,26.87z"/>
<path class="st12" d="M25.47,67.7c-4.02,0-8.04,0.03-12.05-0.03c-0.58-0.01-1.33-0.27-1.7-0.68c-0.74-0.83-0.21-2.09,0.88-2.36
	c0.28-0.07,0.58-0.07,0.87-0.07c8.04,0,16.07-0.02,24.11,0.02c0.59,0,1.31,0.25,1.72,0.65c0.29,0.28,0.36,1.13,0.14,1.5
	c-0.26,0.45-0.91,0.86-1.43,0.92c-1.13,0.14-2.28,0.05-3.42,0.05C31.55,67.7,28.51,67.7,25.47,67.7z"/>
<path class="st12" d="M93.62,16.04c0.79,2.35,1.56,4.63,2.32,6.91c0.48,1.42,0.89,2.87,1.44,4.26c0.37,0.92,0.29,1.59-0.54,2.16
	c-0.21,0.14-0.38,0.35-0.5,0.47c-2.79-2.81-5.55-5.6-8.34-8.41C89.74,19.76,91.64,17.94,93.62,16.04z"/>
<path class="st12" d="M76.45,10.03c-2.82-2.82-5.58-5.58-8.36-8.37c0.01-0.01,0.05-0.09,0.11-0.17c0.76-1.09,1.6-1.31,2.95-0.8
	c3.5,1.32,7.08,2.41,10.76,3.64C80.03,6.29,78.23,8.17,76.45,10.03z"/>
<path class="st11" d="M57.97,82.63c1.24-2.42,2.63-4.79,3.69-7.29c0.95-2.24,1.56-4.63,2.3-6.96c0.2-0.63,0.18-0.63,0.82-0.63
	c0,4.07,0.01,8.14-0.02,12.21c0,0.23-0.19,0.61-0.37,0.67c-2.14,0.69-4.29,1.34-6.44,1.99C57.91,82.63,57.84,82.58,57.97,82.63z"/>
<path class="st11" d="M70.82,17.72c-1.79-0.44-3.6-0.83-5.37-1.32c-1.65-0.46-3.29-1.11-4.32,1.02c-1.14-1.91-2.19-3.66-3.22-5.38
	C60.61,12.03,68.66,15.42,70.82,17.72z"/>
<path class="st13" d="M69.2,20.58c-0.42,0.82-0.76,1.48-1.15,2.23c-1.75-0.87-3.46-1.73-5.21-2.6c0.44-0.78,0.94-1.07,1.82-0.8
	C66.12,19.85,67.61,20.18,69.2,20.58z"/>
<path class="st13" d="M77.83,35.3c-0.95-1.9-1.81-3.62-2.7-5.4c0.73-0.37,1.42-0.73,2.23-1.14c0.46,1.79,0.95,3.51,1.29,5.25
	C78.72,34.33,78.19,34.77,77.83,35.3z"/>
<path class="st11" d="M63.46,24.06c1.14,0.57,2.15,1.08,3.22,1.61c-0.11,0.42-0.2,0.78-0.29,1.13
	C64.09,27.05,64.09,27.05,63.46,24.06z"/>
<path class="st13" d="M17.7,8.04c3.39,0.01,6.26,2.88,6.26,6.25c0,3.48-2.84,6.32-6.3,6.3c-3.48-0.02-6.28-2.86-6.25-6.34
	C11.42,10.86,14.3,8.03,17.7,8.04z"/>
<path class="st2" d="M86.39,80.07c0.01-1.03,0-2.07,0-3.1c0-1.03,0.01-2.07,0-3.1c-0.01-0.83-0.41-1.3-1.22-1.32
	c-1.81-0.03-3.61-0.03-5.42,0c-0.79,0.01-1.22,0.45-1.22,1.23c-0.02,2.12-0.02,4.24,0,6.36c0.01,0.81,0.5,1.24,1.3,1.24
	c1.75,0,3.51,0,5.26,0C85.92,81.39,86.38,80.92,86.39,80.07z"/>
<path class="st2" d="M84.34,89.38c-0.14-0.3-0.31-0.4-0.65-0.4c-3.71,0.01-7.41,0.02-11.12-0.01c-0.62-0.01-0.99,0.14-1.23,0.74
	c-0.26,0.66-0.64,1.27-1,1.98c5.09,0,10.09,0,15.15,0C85.1,90.9,84.7,90.15,84.34,89.38z"/>
<path class="st2" d="M76.02,72.57c-1.85-0.03-3.7-0.03-5.54,0c-0.73,0.01-1.15,0.44-1.16,1.16c-0.02,2.16-0.03,4.32,0,6.48
	c0.01,0.77,0.49,1.18,1.27,1.18c1.77,0,3.53,0,5.3,0c0.82,0,1.28-0.46,1.29-1.29c0-1.03,0-2.07,0-3.1c0-1.06,0-2.12,0-3.18
	C77.17,73.07,76.77,72.58,76.02,72.57z"/>
<path class="st2" d="M75.24,68.03c0.9,0,1.79,0,2.69,0c0.9,0,1.79,0,2.69,0c0.43,0,0.64-0.17,0.65-0.5
	c0.01-0.35-0.22-0.57-0.64-0.57c-1.79,0-3.58,0-5.37,0c-0.41,0-0.67,0.23-0.66,0.56C74.6,67.83,74.83,68.03,75.24,68.03z"/>
<path class="st2" d="M86.63,84.89c0.01-0.63-0.49-1.14-1.12-1.15c-0.67-0.01-1.17,0.47-1.17,1.12c0,0.64,0.52,1.17,1.15,1.17
	C86.11,86.03,86.63,85.51,86.63,84.89z"/>
<path class="st2" d="M70.39,83.74c-0.66,0-1.16,0.49-1.15,1.15c0.01,0.62,0.52,1.14,1.14,1.14c0.63,0,1.17-0.54,1.16-1.16
	C71.53,84.25,71.02,83.74,70.39,83.74z"/>
<path class="st2" d="M85.86,93.13c-2.13,0.01-4.26,0-6.4-0.01c-3.18-0.01-6.36-0.02-9.53-0.02c-0.13,0-0.32,0.06-0.38,0.15
	c-0.31,0.54-0.58,1.1-0.89,1.71c6.21,0,12.34,0,18.52,0c-0.26-0.51-0.53-0.99-0.76-1.5C86.3,93.19,86.14,93.13,85.86,93.13z"/>
<path class="st12" d="M87.34,91.53c-0.42-0.83-0.84-1.66-1.27-2.51c0.08-0.02,0.12-0.03,0.16-0.04c0.08,0,0.16-0.01,0.24-0.02H69.24
	c0.17,0.02,0.35,0.04,0.54,0.07c-0.08,0.16-0.14,0.3-0.21,0.44c-1.38,2.68-2.77,5.35-4.15,8.03c-0.29,0.56-0.18,0.99,0.31,1.25
	c0.47,0.26,0.9,0.1,1.2-0.46c0.28-0.52,0.57-1.05,0.82-1.59c0.13-0.28,0.3-0.37,0.6-0.35c0.53,0.03,1.06,0.03,1.59,0.03
	c2.38,0.01,4.76,0.01,7.13,0.01c3.49,0.01,6.98,0.01,10.48,0.01c0.28,0,0.44,0.08,0.56,0.34c0.25,0.54,0.53,1.07,0.8,1.6
	c0.29,0.56,0.73,0.73,1.19,0.49c0.49-0.25,0.61-0.69,0.33-1.24C89.4,95.57,88.37,93.55,87.34,91.53z M71.35,89.71
	c0.24-0.6,0.6-0.75,1.23-0.74c3.71,0.03,7.41,0.02,11.12,0.01c0.33,0,0.51,0.1,0.65,0.4c0.37,0.77,0.76,1.52,1.16,2.31
	c-5.06,0-10.07,0-15.15,0C70.71,90.98,71.09,90.37,71.35,89.71z M68.66,94.96c0.32-0.62,0.59-1.17,0.89-1.71
	c0.05-0.09,0.25-0.15,0.38-0.15c3.18,0,6.36,0.01,9.53,0.02c2.13,0.01,4.26,0.02,6.4,0.01c0.28,0,0.44,0.07,0.56,0.34
	c0.23,0.5,0.5,0.99,0.76,1.5C81,94.96,74.86,94.96,68.66,94.96z"/>
<path class="st13" d="M88.67,86.45c0-4.78,0-9.56,0-14.35c0-0.86-0.28-1.13-1.15-1.13c-6.39,0-12.77,0-19.16,0
	c-0.9,0-1.15,0.26-1.16,1.17c0,3.65,0,7.31,0,10.96c0,1.29-0.01,2.58,0.03,3.87c0.03,0.93,0.66,1.68,1.55,1.92
	c0.15,0.04,0.29,0.06,0.45,0.08h17.24C87.97,88.82,88.67,88.03,88.67,86.45z M70.37,86.03c-0.61,0-1.13-0.53-1.14-1.14
	c-0.01-0.65,0.49-1.15,1.15-1.15c0.63,0,1.14,0.51,1.14,1.13C71.54,85.49,71,86.04,70.37,86.03z M77.18,80.1
	c0,0.83-0.46,1.29-1.29,1.29c-1.77,0-3.53,0-5.3,0c-0.77,0-1.26-0.41-1.27-1.18c-0.02-2.16-0.02-4.32,0-6.48
	c0.01-0.72,0.43-1.15,1.16-1.16c1.85-0.03,3.7-0.03,5.54,0c0.74,0.01,1.15,0.5,1.15,1.25c0.01,1.06,0,2.12,0,3.18
	C77.18,78.03,77.18,79.06,77.18,80.1z M78.52,80.15c-0.02-2.12-0.02-4.24,0-6.36c0.01-0.78,0.44-1.22,1.22-1.23
	c1.81-0.03,3.61-0.03,5.42,0c0.82,0.01,1.22,0.48,1.22,1.32c0.01,1.03,0,2.07,0,3.1c0,1.03,0,2.07,0,3.1c0,0.85-0.46,1.32-1.31,1.32
	c-1.75,0-3.51,0-5.26,0C79.01,81.39,78.52,80.96,78.52,80.15z M84.34,84.87c0-0.66,0.5-1.13,1.17-1.12
	c0.63,0.01,1.13,0.52,1.12,1.15c-0.01,0.62-0.53,1.14-1.14,1.14C84.86,86.04,84.34,85.51,84.34,84.87z"/>
<path class="st12" d="M68.34,69.74c3.21,0,6.41,0,9.62,0c3.19,0,6.38,0,9.58,0c0.28,0,0.56,0.01,0.7-0.29
	c0.14-0.31-0.03-0.53-0.21-0.77c-0.94-1.22-2.2-1.97-3.62-2.46c-4.07-1.39-8.18-1.41-12.29-0.23c-1.66,0.48-3.18,1.27-4.27,2.69
	c-0.18,0.23-0.37,0.45-0.21,0.77C67.79,69.75,68.06,69.74,68.34,69.74z M75.25,66.96c1.79,0,3.58,0,5.37,0
	c0.42,0,0.65,0.22,0.64,0.57c-0.01,0.33-0.22,0.5-0.65,0.5c-0.9,0-1.79,0-2.69,0c-0.9,0-1.79,0-2.69,0c-0.4,0-0.64-0.19-0.65-0.51
	C74.58,67.18,74.84,66.96,75.25,66.96z"/>
</svg>
