<?xml version="1.0" encoding="utf-8"?>
<!-- Generator: Adobe Illustrator 25.0.0, SVG Export Plug-In . SVG Version: 6.00 Build 0)  -->
<svg version="1.1" id="Layer_1" xmlns="http://www.w3.org/2000/svg" xmlns:xlink="http://www.w3.org/1999/xlink" x="0px" y="0px"
	 viewBox="0 0 100 100" style="enable-background:new 0 0 100 100;" xml:space="preserve">
<style type="text/css">
	.st0{fill-rule:evenodd;clip-rule:evenodd;fill:#40875E;}
	.st1{fill-rule:evenodd;clip-rule:evenodd;fill:#A8A240;}
	.st2{fill:none;}
	.st3{fill:#F0AB00;}
	.st4{fill:#A8A240;}
	.st5{fill:#40875E;}
	.st6{fill-rule:evenodd;clip-rule:evenodd;fill:#F0AB00;}
	.st7{fill-rule:evenodd;clip-rule:evenodd;fill:#0B4A99;}
	.st8{fill:none;stroke:#F0AB00;stroke-miterlimit:10;}
	.st9{fill:#A8A240;stroke:#F0AB00;stroke-width:2;stroke-miterlimit:10;}
	.st10{fill:#F0AB00;stroke:#A8A240;stroke-width:3;stroke-miterlimit:10;}
	.st11{fill:#3E865F;}
	.st12{fill:#EFAA03;}
	.st13{fill:#A6A13E;}
	.st14{fill:#0B4A99;}
	.st15{fill:#F5B026;}
	.st16{fill:#FFCD2E;}
	.st17{fill:#D4D2D2;}
	.st18{fill:#E3E4E3;}
	.st19{fill:#FBD97C;}
	.st20{fill:#57BEC5;}
	.st21{fill:#469BA3;}
	.st22{fill:#CB151A;}
	.st23{fill:url(#SVGID_1_);}
	.st24{fill:url(#SVGID_2_);}
	.st25{fill:url(#SVGID_3_);}
	.st26{fill:#CFCFCE;}
	.st27{fill:#D4D3D3;}
	.st28{fill:#E4E5E3;}
	.st29{fill:#A2BAD0;}
	.st30{fill:#4B708F;}
	.st31{fill:#8AA4BE;}
	.st32{fill:#CCCACA;}
	.st33{opacity:0.59;fill:#3E865F;}
	.st34{opacity:0.6;}
	.st35{fill:#3F5B7A;}
	.st36{opacity:0.2;}
	.st37{fill:#516D8C;}
	.st38{fill-rule:evenodd;clip-rule:evenodd;fill:#CC8E05;}
	.st39{fill:url(#SVGID_4_);}
	.st40{fill:none;stroke:#40875E;stroke-width:2;stroke-miterlimit:10;}
	.st41{fill:url(#SVGID_5_);}
	.st42{fill:url(#SVGID_6_);}
	.st43{fill:url(#SVGID_7_);}
	.st44{opacity:0.44;fill:#40875E;}
</style>
<g>
	<path class="st4" d="M45.06,55.99V28.07c0-1,0.81-1.8,1.8-1.8h8.02c0.99,0,1.8,0.81,1.8,1.8v27.92H45.06z"/>
	<path class="st4" d="M59.09,55.99v-17.7c0-1,0.81-1.8,1.8-1.8h8.02c0.99,0,1.8,0.81,1.8,1.8v17.7H59.09z"/>
	<path class="st3" d="M53.14,23.86h-5.48c0,0-2.67-8.42-2.41-14.29c0,0,0.62-6.83,8.6-8.93c0,0,2.51-0.64,3.76-0.64
		c0,0,2.76,0.1,4.16,1.6c0,0,0.9,0.95,2.05,1.55c0,0,5.16,1.45,5.91,1.65c0,0,8.62,2.51,8.67,8.22c0,0,0.6,6.96-7.26,8.12
		c0,0-4.86,0.81-7.54-3.63c0,0-1.7-3.01-3.4-3.71c0,0-2.78-0.73-3.93,1.5C56.26,15.3,53.95,21.1,53.14,23.86z"/>
	<path class="st3" d="M63.66,33.42c0,0,2.27-10.45,15.1-11.15c0,0,11.75-0.27,12.09,6.81c0,0,0.53,6.61-6.15,6.58h-0.8
		c0,0-1.94-0.03-4.58-1.04c0,0-2.9-1.1-4.74-1.53c0,0-3.81-0.72-6.31,0.32L63.66,33.42z"/>
	<path class="st5" d="M34.44,100H5.51c-0.99,0-1.8-0.81-1.8-1.8V72.34c0-0.99,0.81-1.8,1.8-1.8h28.92V100z M27.36,77.84H10.92v5.02
		h16.43V77.84z"/>
	<path class="st5" d="M37.24,98.19V60.33c0-1,0.81-1.81,1.8-1.81h55.44c1,0,1.8,0.81,1.8,1.81v37.85c0,1-0.81,1.81-1.8,1.81H37.24
		V98.19z M50.07,65.88h-4.81v8.75h4.81V65.88z M62.69,65.88h-4.81v8.75h4.81V65.88z M75.12,65.88h-4.81v8.75h4.81V65.88z
		 M87.74,65.88h-4.81v8.75h4.81V65.88z"/>
</g>
</svg>
