<?xml version="1.0" encoding="utf-8"?>
<!-- Generator: Adobe Illustrator 25.0.0, SVG Export Plug-In . SVG Version: 6.00 Build 0)  -->
<svg version="1.1" id="Layer_1" xmlns="http://www.w3.org/2000/svg" xmlns:xlink="http://www.w3.org/1999/xlink" x="0px" y="0px"
	 viewBox="0 0 100 100" style="enable-background:new 0 0 100 100;" xml:space="preserve">
<style type="text/css">
	.st0{fill-rule:evenodd;clip-rule:evenodd;fill:#40875E;}
	.st1{fill-rule:evenodd;clip-rule:evenodd;fill:#A8A240;}
	.st2{fill:none;}
	.st3{fill:#F0AB00;}
	.st4{fill:#A8A240;}
	.st5{fill:#40875E;}
	.st6{fill-rule:evenodd;clip-rule:evenodd;fill:#F0AB00;}
	.st7{fill-rule:evenodd;clip-rule:evenodd;fill:#0B4A99;}
	.st8{fill:none;stroke:#F0AB00;stroke-miterlimit:10;}
	.st9{fill:#A8A240;stroke:#F0AB00;stroke-width:2;stroke-miterlimit:10;}
	.st10{fill:#F0AB00;stroke:#A8A240;stroke-width:3;stroke-miterlimit:10;}
	.st11{fill:#3E865F;}
	.st12{fill:#EFAA03;}
	.st13{fill:#A6A13E;}
	.st14{fill:#0B4A99;}
	.st15{fill:#F5B026;}
	.st16{fill:#FFCD2E;}
	.st17{fill:#D4D2D2;}
	.st18{fill:#E3E4E3;}
	.st19{fill:#FBD97C;}
	.st20{fill:#57BEC5;}
	.st21{fill:#469BA3;}
	.st22{fill:#CB151A;}
	.st23{fill:url(#SVGID_1_);}
	.st24{fill:url(#SVGID_2_);}
	.st25{fill:url(#SVGID_3_);}
	.st26{fill:#CFCFCE;}
	.st27{fill:#D4D3D3;}
	.st28{fill:#E4E5E3;}
	.st29{fill:#A2BAD0;}
	.st30{fill:#4B708F;}
	.st31{fill:#8AA4BE;}
	.st32{fill:#CCCACA;}
	.st33{opacity:0.59;fill:#3E865F;}
	.st34{opacity:0.6;}
	.st35{fill:#3F5B7A;}
	.st36{opacity:0.2;}
	.st37{fill:#516D8C;}
	.st38{fill-rule:evenodd;clip-rule:evenodd;fill:#CC8E05;}
	.st39{fill:url(#SVGID_4_);}
	.st40{fill:none;stroke:#40875E;stroke-width:2;stroke-miterlimit:10;}
	.st41{fill:url(#SVGID_5_);}
	.st42{fill:url(#SVGID_6_);}
	.st43{fill:url(#SVGID_7_);}
	.st44{opacity:0.44;fill:#40875E;}
</style>
<polygon class="st0" points="61.29,37.81 62.59,36.73 50.06,20.8 48.77,21.88 "/>
<polygon class="st0" points="35.87,37.81 34.57,36.73 47.09,20.8 48.39,21.88 "/>
<polygon class="st0" points="58.85,19.77 60.11,18.87 49.98,3.64 48.72,4.54 "/>
<polygon class="st0" points="38.31,19.77 37.05,18.87 47.17,3.64 48.43,4.54 "/>
<path class="st0" d="M26.28,72.9l8.73-72.57h26.82l9.04,72.57H26.28z M66.77,68.97L59.39,3.94H37.51l-7.12,65.02H66.77z"/>
<rect x="47.29" y="0.33" class="st1" width="2.84" height="95.6"/>
<path class="st0" d="M70.87,99.19H26.28V72.89h44.59V99.19z M68.14,74.59H29.02v21.42h39.12V74.59z"/>
<rect x="44.37" y="82.85" class="st6" width="8.41" height="13.16"/>
<g>
	<g>
		
			<rect x="23.44" y="83.86" transform="matrix(0.6477 -0.7619 0.7619 0.6477 -51.3076 59.0226)" class="st0" width="29.45" height="2.25"/>
		
			<rect x="57.87" y="70.27" transform="matrix(0.7619 -0.6477 0.6477 0.7619 -41.0011 58.4427)" class="st0" width="2.25" height="29.45"/>
	</g>
</g>
<rect x="29.14" y="60.72" transform="matrix(0.6474 -0.7621 0.7621 0.6474 -32.5933 52.7582)" class="st0" width="23.16" height="1.77"/>
<rect x="56.21" y="50.03" transform="matrix(0.7621 -0.6474 0.6474 0.7621 -26.3027 51.6179)" class="st0" width="1.77" height="23.16"/>
<rect x="34.61" y="18.5" class="st0" width="27.45" height="2.58"/>
<rect x="32.4" y="36.3" class="st0" width="31.87" height="2.95"/>
<rect x="30.51" y="52.08" class="st0" width="35.65" height="4.21"/>
<rect x="30.45" y="44.48" transform="matrix(0.647 -0.7625 0.7625 0.647 -19.9641 47.494)" class="st0" width="21.71" height="1.66"/>
<rect x="55.83" y="34.45" transform="matrix(0.7615 -0.6481 0.6481 0.7615 -15.8521 47.5293)" class="st0" width="1.66" height="21.71"/>
</svg>
