<?xml version="1.0" encoding="utf-8"?>
<!-- Generator: Adobe Illustrator 25.0.0, SVG Export Plug-In . SVG Version: 6.00 Build 0)  -->
<svg version="1.1" id="Layer_1" xmlns="http://www.w3.org/2000/svg" xmlns:xlink="http://www.w3.org/1999/xlink" x="0px" y="0px"
	 viewBox="0 0 100 100" style="enable-background:new 0 0 100 100;" xml:space="preserve">
<style type="text/css">
	.st0{fill-rule:evenodd;clip-rule:evenodd;fill:#40875E;}
	.st1{fill-rule:evenodd;clip-rule:evenodd;fill:#A8A240;}
	.st2{fill:none;}
	.st3{fill:#F0AB00;}
	.st4{fill:#A8A240;}
	.st5{fill:#40875E;}
	.st6{fill-rule:evenodd;clip-rule:evenodd;fill:#F0AB00;}
	.st7{fill-rule:evenodd;clip-rule:evenodd;fill:#0B4A99;}
	.st8{fill:none;stroke:#F0AB00;stroke-miterlimit:10;}
	.st9{fill:#A8A240;stroke:#F0AB00;stroke-width:2;stroke-miterlimit:10;}
	.st10{fill:#F0AB00;stroke:#A8A240;stroke-width:3;stroke-miterlimit:10;}
	.st11{fill:#3E865F;}
	.st12{fill:#EFAA03;}
	.st13{fill:#A6A13E;}
	.st14{fill:#0B4A99;}
	.st15{fill:#F5B026;}
	.st16{fill:#FFCD2E;}
	.st17{fill:#D4D2D2;}
	.st18{fill:#E3E4E3;}
	.st19{fill:#FBD97C;}
	.st20{fill:#57BEC5;}
	.st21{fill:#469BA3;}
	.st22{fill:#CB151A;}
	.st23{fill:url(#SVGID_1_);}
	.st24{fill:url(#SVGID_2_);}
	.st25{fill:url(#SVGID_3_);}
	.st26{fill:#CFCFCE;}
	.st27{fill:#D4D3D3;}
	.st28{fill:#E4E5E3;}
	.st29{fill:#A2BAD0;}
	.st30{fill:#4B708F;}
	.st31{fill:#8AA4BE;}
	.st32{fill:#CCCACA;}
	.st33{opacity:0.59;fill:#3E865F;}
	.st34{opacity:0.6;}
	.st35{fill:#3F5B7A;}
	.st36{opacity:0.2;}
	.st37{fill:#516D8C;}
	.st38{fill-rule:evenodd;clip-rule:evenodd;fill:#CC8E05;}
	.st39{fill:url(#SVGID_4_);}
	.st40{fill:none;stroke:#40875E;stroke-width:2;stroke-miterlimit:10;}
	.st41{fill:url(#SVGID_5_);}
	.st42{fill:url(#SVGID_6_);}
	.st43{fill:url(#SVGID_7_);}
	.st44{opacity:0.44;fill:#40875E;}
</style>
<path class="st2" d="M28,78.9c-6.33,0-11.46,5.13-11.46,11.46v2.72h22.93v-2.72C39.47,84.04,34.34,78.9,28,78.9z"/>
<rect x="41.16" y="66.28" class="st2" width="3.26" height="5.08"/>
<rect x="17.9" y="61.04" class="st2" width="3.79" height="15.45"/>
<path class="st2" d="M21.69,50.33V18.72c0,0,0.73-4.53,5.99-5.75c0,0,0.25-2.44,2.93-2.69h3.06c0,0-0.61-6.6-6.73-6.36h-4.04
	c0,0-5.01,1.35-5.01,5.38v41.27v6.78h3.79V50.33z"/>
<path class="st2" d="M26.37,21.15v10.73c0,0.79,0.64,1.42,1.42,1.42c0.79,0,1.42-0.63,1.42-1.42V21.15c0-0.79-0.64-1.42-1.42-1.42
	C27,19.73,26.37,20.36,26.37,21.15z"/>
<polygon class="st2" points="44.41,71.53 41.16,71.53 41.16,71.37 39.95,71.37 39.95,93.09 52.74,93.09 52.74,71.37 44.41,71.37 "/>
<rect x="82.15" y="69.89" class="st2" width="6.6" height="6.24"/>
<rect x="82.15" y="83.71" class="st2" width="6.6" height="6.24"/>
<path class="st2" d="M89.61,50.76h-1.16l1.4,10.79h2.57l-1.62-9.57C90.81,51.98,90.44,51.06,89.61,50.76z"/>
<rect x="68.28" y="69.89" class="st2" width="6.6" height="6.24"/>
<path class="st2" d="M83.04,42.57c-0.46-2.11-1.74-2.11-1.74-2.11h-2.66v21.09h2.84h4.58L83.04,42.57z"/>
<rect x="41.16" y="71.37" class="st5" width="3.26" height="0.17"/>
<rect x="62.65" y="46.72" class="st0" width="22.5" height="3.67"/>
<path class="st6" d="M60.64,26.91c0,1.02-1.19,1.85-2.66,1.85l0,0c-1.47,0-2.66-0.83-2.66-1.85v-5.05c0-1.02,1.19-1.85,2.66-1.85
	l0,0c1.47,0,2.66,0.83,2.66,1.85V26.91z"/>
<path class="st6" d="M75.48,26.91c0,1.02-1.19,1.85-2.66,1.85l0,0c-1.46,0-2.65-0.83-2.65-1.85v-5.05c0-1.02,1.19-1.85,2.65-1.85
	l0,0c1.47,0,2.66,0.83,2.66,1.85V26.91z"/>
<path class="st2" d="M28,78.9c-6.33,0-11.46,5.13-11.46,11.46v2.72h22.93v-2.72C39.47,84.04,34.34,78.9,28,78.9z"/>
<rect x="68.28" y="69.89" class="st2" width="6.6" height="6.24"/>
<polygon class="st2" points="44.41,66.28 41.16,66.28 41.16,71.37 39.95,71.37 39.95,93.09 52.74,93.09 52.74,71.37 44.41,71.37 "/>
<path class="st2" d="M26.95,3.92h-4.04c0,0-5.01,1.35-5.01,5.38v41.27v6.78h3.79l0-4.95v-2.08V18.72c0,0,0.73-4.53,5.99-5.75
	c0,0,0.25-2.44,2.93-2.69h1.02h2.04C33.68,10.28,33.06,3.68,26.95,3.92z"/>
<polygon class="st2" points="17.9,61.04 17.9,76.5 20.81,76.5 21.68,76.5 21.68,62.99 21.68,61.04 "/>
<path class="st2" d="M27.79,33.3c0.79,0,1.42-0.63,1.42-1.42V21.15c0-0.79-0.64-1.42-1.42-1.42c-0.78,0-1.42,0.63-1.42,1.42v10.73
	C26.37,32.67,27,33.3,27.79,33.3z"/>
<path class="st2" d="M83.04,42.57c-0.46-2.11-1.74-2.11-1.74-2.11h-2.66v21.09h2.84h4.58L83.04,42.57z"/>
<polygon class="st2" points="21.69,57.36 21.69,52.41 21.69,57.36 "/>
<path class="st2" d="M89.61,50.76h-1.16l1.4,10.79h2.57l-1.62-9.57C90.81,51.98,90.44,51.06,89.61,50.76z"/>
<rect x="82.15" y="83.71" class="st2" width="6.6" height="6.24"/>
<rect x="82.15" y="69.89" class="st2" width="6.6" height="6.24"/>
<path class="st2" d="M11.24,63.47L8.99,76.5h4.86V61.04h-0.96C12.89,61.04,11.79,60.81,11.24,63.47z"/>
<path class="st4" d="M17.9,76.5V61.04h3.79v1.95l0-5.64H17.9v-6.78V9.3c0-4.04,5.01-5.38,5.01-5.38h4.04
	c6.11-0.24,6.73,6.36,6.73,6.36h7.23c-0.08-0.03-0.14-0.05-0.14-0.05h-3.44C37.23-0.82,24.99,0.01,24.99,0.01
	c-9.53,0.37-11,8.25-11,8.25V56.5c-6.05,0.73-6.79,5.68-6.79,5.68L5,76.68H1.7v0.06l19.11-0.24H17.9z M13.85,76.5H8.99l2.25-13.02
	c0.55-2.66,1.65-2.43,1.65-2.43h0.96V76.5z"/>
<path class="st5" d="M96.4,61.45l-1.59-9.84c-0.86-4.65-5.38-5.01-5.38-5.01h-1.59l-1.35-6.36c-1.34-3.18-4.46-3.37-4.46-3.37h-3.3
	v-12.1H67.18v36.5h-3.48V24.59H52.32v36.68H49.2V19.45c-0.18-5.32-5.87-6.6-5.87-6.6c-0.27-1.69-1.95-2.4-2.43-2.57h-7.23h-2.04
	h-1.02c-2.69,0.25-2.93,2.69-2.93,2.69c-5.26,1.22-5.99,5.75-5.99,5.75v31.61v2.08v4.95h0l0,5.64v13.5h-0.88L1.7,76.74v22.84h96.11
	V61.45H96.4z M26.37,21.15c0-0.79,0.64-1.42,1.42-1.42c0.79,0,1.42,0.63,1.42,1.42v10.73c0,0.79-0.64,1.42-1.42,1.42
	c-0.78,0-1.42-0.63-1.42-1.42V21.15z M39.47,93.09H16.54v-2.72c0-6.33,5.13-11.46,11.46-11.46c6.33,0,11.46,5.13,11.46,11.46V93.09z
	 M52.74,93.09H39.95V71.37h1.21v-5.08h3.26v5.08h8.32V93.09z M74.88,76.13h-6.6v-6.24h6.6V76.13z M78.64,61.54V40.45h2.66
	c0,0,1.28,0,1.74,2.11l3.02,18.98h-4.58H78.64z M88.76,89.95h-6.6v-6.24h6.6V89.95z M88.76,76.13h-6.6v-6.24h6.6V76.13z
	 M89.86,61.54l-1.4-10.79h1.16c0.83,0.3,1.19,1.22,1.19,1.22l1.62,9.57H89.86z"/>
</svg>
