<?xml version="1.0" encoding="utf-8"?>
<!-- Generator: Adobe Illustrator 25.0.0, SVG Export Plug-In . SVG Version: 6.00 Build 0)  -->
<svg version="1.1" id="Layer_1" xmlns="http://www.w3.org/2000/svg" xmlns:xlink="http://www.w3.org/1999/xlink" x="0px" y="0px"
	 viewBox="0 0 100 100" style="enable-background:new 0 0 100 100;" xml:space="preserve">
<style type="text/css">
	.st0{fill-rule:evenodd;clip-rule:evenodd;fill:#40875E;}
	.st1{fill-rule:evenodd;clip-rule:evenodd;fill:#A8A240;}
	.st2{fill:none;}
	.st3{fill:#F0AB00;}
	.st4{fill:#A8A240;}
	.st5{fill:#40875E;}
	.st6{fill-rule:evenodd;clip-rule:evenodd;fill:#F0AB00;}
	.st7{fill-rule:evenodd;clip-rule:evenodd;fill:#0B4A99;}
	.st8{fill:none;stroke:#F0AB00;stroke-miterlimit:10;}
	.st9{fill:#A8A240;stroke:#F0AB00;stroke-width:2;stroke-miterlimit:10;}
	.st10{fill:#F0AB00;stroke:#A8A240;stroke-width:3;stroke-miterlimit:10;}
	.st11{fill:#3E865F;}
	.st12{fill:#EFAA03;}
	.st13{fill:#A6A13E;}
	.st14{fill:#0B4A99;}
	.st15{fill:#F5B026;}
	.st16{fill:#FFCD2E;}
	.st17{fill:#D4D2D2;}
	.st18{fill:#E3E4E3;}
	.st19{fill:#FBD97C;}
	.st20{fill:#57BEC5;}
	.st21{fill:#469BA3;}
	.st22{fill:#CB151A;}
	.st23{fill:url(#SVGID_1_);}
	.st24{fill:url(#SVGID_2_);}
	.st25{fill:url(#SVGID_3_);}
	.st26{fill:#CFCFCE;}
	.st27{fill:#D4D3D3;}
	.st28{fill:#E4E5E3;}
	.st29{fill:#A2BAD0;}
	.st30{fill:#4B708F;}
	.st31{fill:#8AA4BE;}
	.st32{fill:#CCCACA;}
	.st33{opacity:0.59;fill:#3E865F;}
	.st34{opacity:0.6;}
	.st35{fill:#3F5B7A;}
	.st36{opacity:0.2;}
	.st37{fill:#516D8C;}
	.st38{fill-rule:evenodd;clip-rule:evenodd;fill:#CC8E05;}
	.st39{fill:url(#SVGID_4_);}
	.st40{fill:none;stroke:#40875E;stroke-width:2;stroke-miterlimit:10;}
	.st41{fill:url(#SVGID_5_);}
	.st42{fill:url(#SVGID_6_);}
	.st43{fill:url(#SVGID_7_);}
	.st44{opacity:0.44;fill:#40875E;}
</style>
<g>
	<path class="st11" d="M68.03,22.88c-1.46,0.19-2.81,0.36-4.38,0.56c0-1.52,0-2.95,0-4.38c0-2.13,0.01-4.27,0.01-6.4
		c0-1.86-0.46-3.56-1.62-5.06c-1.18-1.53-2.7-2.4-4.63-2.4c-12.87-0.01-25.75-0.02-38.62,0c-3.72,0.01-6.68,3.25-6.69,7.25
		c-0.02,6.8-0.01,13.6-0.01,20.4c0,18.09,0,36.17-0.01,54.26c0,1.61,0.13,3.17,1.05,4.57c1.3,1.99,3.12,3.11,5.5,3.12
		c12.91,0.02,25.82,0.03,38.73,0c3.42-0.01,6.06-2.42,6.18-5.85c0.16-4.73,0.11-9.47,0.09-14.21c0-0.95,0.26-1.3,1.23-1.42
		c1.05-0.14,2.07-0.56,3.22-0.89c0,0.8,0,1.58,0,2.36c0,4.59,0.03,9.19-0.01,13.78c-0.05,5.09-3.58,9.55-8.47,10.41
		c-2.15,0.38-4.39,0.24-6.6,0.24c-11.25,0.02-22.49-0.02-33.74,0.01c-6.76,0.01-11.61-4.7-11.61-11.47
		c-0.02-18.7-0.01-37.4-0.01-56.1c0-6.26,0.02-12.52,0-18.77C7.64,9.82,8.5,7.05,10.53,4.7c2.2-2.54,4.93-3.91,8.35-3.9
		C31.5,0.82,44.12,0.93,56.74,0.75c6.35-0.09,10.77,4.69,11.23,10.12C68.3,14.81,68.03,18.81,68.03,22.88z"/>
	<path class="st12" d="M51.77,48.37c-0.33-0.81-0.59-1.43-0.91-2.22c1.18,0,2.22-0.07,3.25,0.04c0.29,0.03,0.6,0.54,0.77,0.89
		c0.77,1.55,0.76,1.58,2.44,1.32c1.99-0.31,3.97-0.66,6.06-1c-0.54-2.04-1.05-3.98-1.58-5.98c-1.69,0.28-3.27,0.64-4.88,0.8
		c-2.44,0.25-4.88,0.49-7.33,0.52c-6.29,0.07-12.58,0.02-18.88,0.02c-0.22,0-0.43,0-0.65-0.01c-1.1-0.05-1.82-0.66-1.85-1.57
		c-0.03-0.97,0.7-1.68,1.83-1.7c1.84-0.03,3.69-0.01,5.53-0.01c3.94,0,7.88,0,11.94,0c-0.12-0.35-0.18-0.62-0.29-0.87
		c-1.61-3.43-3.26-6.85-4.84-10.29c-0.33-0.72-0.72-0.93-1.48-0.79c-2.77,0.5-5.55,0.96-8.33,1.42c-0.25,0.04-0.5,0.08-0.75,0.1
		c-1.05,0.05-1.77-0.46-1.91-1.35c-0.15-0.96,0.37-1.71,1.46-1.91c2.45-0.45,4.91-0.84,7.37-1.25c1.1-0.19,2.21-0.36,3.31-0.55
		c1.41-0.25,1.95,0.02,2.58,1.34c0.61,1.27,1.23,2.54,1.77,3.83c0.29,0.68,0.67,0.9,1.4,0.8c3.65-0.49,7.31-0.94,10.96-1.41
		c6.02-0.76,12.04-1.52,18.06-2.28c4.34-0.55,8.67-1.08,13.01-1.65c1.99-0.26,2.8,0.56,2.4,2.51c-1.2,5.83-2.39,11.67-3.58,17.51
		c-0.36,1.75-0.59,2.03-2.34,2.33c-9.26,1.55-18.5,3.22-27.79,4.55c-3.3,0.47-6.71,0.13-10.08,0.15c-4.19,0.01-8.39,0-12.58,0
		c-0.29,0-0.58,0.01-0.87-0.02c-1.03-0.08-1.65-0.7-1.66-1.63c-0.01-0.97,0.66-1.64,1.75-1.64c3-0.02,6,0,9,0
		C46.61,48.37,49.1,48.37,51.77,48.37z M62.61,31.42c0.57,2.14,1.1,4.11,1.65,6.2c3.48-0.57,6.89-1.13,10.29-1.72
		c0.16-0.03,0.4-0.35,0.39-0.52c-0.11-1.79-0.27-3.59-0.42-5.48C70.53,30.42,66.64,30.91,62.61,31.42z M48.38,33.22
		c0.86,1.83,1.73,3.53,2.45,5.29c0.42,1.03,0.92,1.42,2.01,1.03c0.53-0.19,1.14-0.18,1.7-0.27c2.12-0.36,4.25-0.72,6.42-1.09
		c-0.57-2.16-1.12-4.21-1.68-6.33C55.63,32.3,52.08,32.75,48.38,33.22z M66.68,46.85c3.09-0.52,6.06-1.02,9.07-1.52
		c-0.18-2.13-0.34-4.09-0.51-6.15c-3.4,0.57-6.69,1.12-10.12,1.69C65.65,42.9,66.15,44.8,66.68,46.85z M78.31,35.29
		c3-0.5,5.91-0.97,8.81-1.47c0.17-0.03,0.4-0.24,0.44-0.4c0.37-1.71,0.7-3.43,1.07-5.3c-3.69,0.47-7.21,0.92-10.81,1.38
		C77.99,31.46,78.15,33.31,78.31,35.29z M79.03,44.78c2.13-0.35,4.12-0.65,6.1-1.02c0.18-0.03,0.38-0.4,0.43-0.65
		c0.41-1.89,0.79-3.8,1.22-5.85c-2.8,0.47-5.48,0.92-8.21,1.38C78.73,40.7,78.87,42.64,79.03,44.78z"/>
	<path class="st11" d="M57.66,24.17c-0.77,0.11-1.4,0.19-2.17,0.3c0-3.75,0-7.42,0-11.18c-11.74,0-23.36,0-35.07,0
		c0,20.81,0,41.65,0,62.57c11.64,0,23.26,0,35.02,0c0-1.76,0-3.47,0-5.37c0.75,0.54,1.36,0.92,1.88,1.39
		c0.22,0.2,0.32,0.62,0.33,0.94c0.04,1.23,0.02,2.46,0.01,3.69c-0.01,1.27-0.32,1.59-1.61,1.59c-5.46,0.01-10.92,0.01-16.38,0.01
		c-6.58,0-13.16,0-19.74-0.01c-1.6,0-1.8-0.2-1.8-1.83c-0.01-21.12-0.01-42.24-0.01-63.36c0-1.66,0.23-1.89,1.87-1.89
		c11.93,0,23.86,0,35.8,0.01c1.66,0,1.88,0.24,1.87,1.88C57.66,16.63,57.66,20.35,57.66,24.17z"/>
	<path class="st12" d="M88.51,55.65c1.71,3.06,1.51,5.92-0.52,8.07c-1.88,1.99-4.77,2.52-7.27,1.33c-2.71-1.29-3.86-3.85-3.33-7.66
		c-3.09,0.51-6.13,1.01-9.32,1.53c1.2,1.97,1.67,3.94,0.86,6.05c-0.52,1.36-1.37,2.45-2.64,3.2c-2.55,1.52-5.82,1.06-7.83-1.12
		c-2.21-2.39-2.2-5.37,0.02-8.62c-1.13-1.01-2.26-2.02-3.38-3.04c0.06-0.12,0.13-0.23,0.19-0.35c1.78,0.13,3.56-0.37,5.35,0.45
		c2.1,0.96,4.32,0.59,6.51,0.22c6.69-1.12,13.38-2.27,20.08-3.35c0.62-0.1,1.43-0.02,1.94,0.31C90.25,53.39,89.93,54.65,88.51,55.65
		z M83.42,62.33c1.63,0.01,2.91-1.22,2.95-2.83c0.03-1.66-1.26-3.01-2.89-3.01c-1.66,0-2.98,1.32-2.97,2.96
		C80.51,61.03,81.81,62.32,83.42,62.33z M65.97,62.88c0.03-1.66-1.27-3.02-2.89-3.02c-1.57,0-2.91,1.3-2.97,2.88
		c-0.06,1.59,1.31,3.01,2.92,3.01C64.64,65.76,65.95,64.48,65.97,62.88z"/>
	<path class="st13" d="M37.96,83.94c1.34,0,2.67-0.04,4.01,0.01c1.84,0.06,3.22,1.48,3.24,3.25c0.02,1.72-1.27,3.23-3.07,3.29
		c-2.85,0.1-5.7,0.1-8.55-0.01c-1.81-0.07-3.05-1.58-3.02-3.33c0.04-1.74,1.35-3.13,3.17-3.21C35.14,83.89,36.55,83.94,37.96,83.94z
		 M37.84,88.34C37.84,88.34,37.84,88.34,37.84,88.34c1.23,0.01,2.45,0,3.68,0.01c0.77,0,1.41-0.2,1.42-1.1
		c0.01-0.89-0.62-1.13-1.39-1.13c-2.45,0-4.91,0-7.36,0c-0.8,0-1.39,0.31-1.38,1.16c0.02,0.79,0.6,1.07,1.35,1.06
		C35.39,88.33,36.62,88.34,37.84,88.34z"/>
	<path class="st12" d="M46.2,57.04c1.52,0,3.03-0.01,4.55,0c1.17,0.01,1.89,0.65,1.9,1.62c0.01,0.97-0.72,1.64-1.87,1.65
		c-3.07,0.02-6.14,0.02-9.21,0c-1.1-0.01-1.78-0.66-1.79-1.61c-0.01-0.95,0.68-1.63,1.76-1.65C43.1,57.02,44.65,57.04,46.2,57.04z"
		/>
</g>
</svg>
