<?xml version="1.0" encoding="utf-8"?>
<!-- Generator: Adobe Illustrator 25.0.0, SVG Export Plug-In . SVG Version: 6.00 Build 0)  -->
<svg version="1.1" id="Layer_1" xmlns="http://www.w3.org/2000/svg" xmlns:xlink="http://www.w3.org/1999/xlink" x="0px" y="0px"
	 viewBox="0 0 100 100" style="enable-background:new 0 0 100 100;" xml:space="preserve">
<style type="text/css">
	.st0{fill-rule:evenodd;clip-rule:evenodd;fill:#40875E;}
	.st1{fill-rule:evenodd;clip-rule:evenodd;fill:#A8A240;}
	.st2{fill:none;}
	.st3{fill:#F0AB00;}
	.st4{fill:#A8A240;}
	.st5{fill:#40875E;}
	.st6{fill-rule:evenodd;clip-rule:evenodd;fill:#F0AB00;}
	.st7{fill-rule:evenodd;clip-rule:evenodd;fill:#0B4A99;}
	.st8{fill:none;stroke:#F0AB00;stroke-miterlimit:10;}
	.st9{fill:#A8A240;stroke:#F0AB00;stroke-width:2;stroke-miterlimit:10;}
	.st10{fill:#F0AB00;stroke:#A8A240;stroke-width:3;stroke-miterlimit:10;}
	.st11{fill:#3E865F;}
	.st12{fill:#EFAA03;}
	.st13{fill:#A6A13E;}
	.st14{fill:#0B4A99;}
	.st15{fill:#F5B026;}
	.st16{fill:#FFCD2E;}
	.st17{fill:#D4D2D2;}
	.st18{fill:#E3E4E3;}
	.st19{fill:#FBD97C;}
	.st20{fill:#57BEC5;}
	.st21{fill:#469BA3;}
	.st22{fill:#CB151A;}
	.st23{fill:url(#SVGID_1_);}
	.st24{fill:url(#SVGID_2_);}
	.st25{fill:url(#SVGID_3_);}
	.st26{fill:#CFCFCE;}
	.st27{fill:#D4D3D3;}
	.st28{fill:#E4E5E3;}
	.st29{fill:#A2BAD0;}
	.st30{fill:#4B708F;}
	.st31{fill:#8AA4BE;}
	.st32{fill:#CCCACA;}
	.st33{opacity:0.59;fill:#3E865F;}
	.st34{opacity:0.6;}
	.st35{fill:#3F5B7A;}
	.st36{opacity:0.2;}
	.st37{fill:#516D8C;}
	.st38{fill-rule:evenodd;clip-rule:evenodd;fill:#CC8E05;}
	.st39{fill:url(#SVGID_4_);}
	.st40{fill:none;stroke:#40875E;stroke-width:2;stroke-miterlimit:10;}
	.st41{fill:url(#SVGID_5_);}
	.st42{fill:url(#SVGID_6_);}
	.st43{fill:url(#SVGID_7_);}
	.st44{opacity:0.44;fill:#40875E;}
</style>
<g>
	<polygon class="st1" points="17.82,4.22 3.9,23.09 3.9,37.46 3.9,74.14 0.61,74.14 0.61,76.69 3.45,76.69 3.45,79.68 0.9,79.68 
		0.9,90.17 3.3,90.17 3.3,96 5.69,96 5.69,90.46 8.69,90.46 8.69,79.98 6.14,79.98 6.14,76.83 8.54,76.83 8.54,74.24 6.14,74.24 
		6.14,36.79 17.15,26.68 19.17,26.68 67.46,45.32 73.82,48.16 76.52,40.98 20.07,18.82 20.07,4 	"/>
	<rect x="68.11" y="44.42" class="st1" width="2.36" height="10.93"/>
	<rect x="68.7" y="55.2" class="st1" width="1.18" height="11.22"/>
	<rect x="38.49" y="33.75" class="st0" width="7.97" height="8.31"/>
	<polygon class="st0" points="34.22,84.74 30.37,87.96 38.82,33.3 42.28,34.36 	"/>
	<polygon class="st0" points="50.84,84.74 54.69,87.96 46.23,33.3 42.78,34.36 	"/>
	<polygon class="st0" points="50.35,64.38 49.09,65.53 37.35,51.59 38.6,50.43 	"/>
	<polygon class="st0" points="32.88,78.52 34.1,79.72 50.36,66.05 49.15,64.85 	"/>
	<rect x="33.21" y="77.21" class="st0" width="18.87" height="2.36"/>
	<rect x="34.89" y="63.63" class="st0" width="15.5" height="2.36"/>
	<path class="st6" d="M82.73,71.21c0,2.58-2.09,4.67-4.68,4.67c-2.58,0-4.67-2.09-4.67-4.67c0-2.58,2.09-4.68,4.67-4.68
		C80.64,66.53,82.73,68.62,82.73,71.21z M78.05,65.41c-3.2,0-5.8,2.59-5.8,5.8c0,3.2,2.59,5.79,5.8,5.79c3.2,0,5.8-2.59,5.8-5.79
		C83.85,68,81.25,65.41,78.05,65.41z"/>
	<rect x="73.13" y="70.65" class="st6" width="10.11" height="1.2"/>
	
		<rect x="73.14" y="70.65" transform="matrix(0.4888 -0.8724 0.8724 0.4888 -22.182 104.6404)" class="st6" width="10.11" height="1.2"/>
	
		<rect x="77.47" y="66.19" transform="matrix(0.8725 -0.4886 0.4886 0.8725 -24.8576 47.2297)" class="st6" width="1.2" height="10.11"/>
	<path class="st6" d="M72.74,67.73v-2.39h-6.94v12.7h6.94v-3.48C72.74,74.56,70.5,71.72,72.74,67.73z"/>
	<path class="st6" d="M52.91,78.68h32.97c0,0,1.28,0.12,0.28,1.19c0,0-2.56,4.32-7.75,6.52h-1.64v-0.96H63.34v1h-1.72
		C61.62,86.43,55.87,83.8,52.91,78.68z"/>
	<rect x="56.9" y="95.05" class="st0" width="26.15" height="0.8"/>
	<path class="st1" d="M84.29,69.58l3.51,3.39l0.69-0.45l4.38,5.28l0.27,3.54l-6.38-1.02c0,0,1.08-1.65-0.24-2.22l-2.58-0.06
		l-0.78-1.23l-2.16,0.06l0.42-0.3h1.65l4.44-3.36l-3.21-3.09V69.58z"/>
	<rect x="57.91" y="87.19" class="st0" width="4.76" height="8.07"/>
	<path class="st0" d="M99.39,82.76H83.65v0.56h0.48c-2.92,2.68-5.44,3.68-5.44,3.68h20.71V82.76z"/>
	<rect x="63.98" y="86.07" class="st0" width="12.27" height="0.96"/>
	<rect x="65.74" y="86.87" class="st0" width="6.95" height="8.43"/>
	<rect x="82.65" y="87.31" class="st0" width="13.35" height="8.54"/>
	<path class="st0" d="M61.42,86.99h-4.26v8.86H30.29V84.21h26.88C59.14,85.95,61.42,86.99,61.42,86.99z M56.05,84.84h-0.96v0.6h0.96
		V84.84z"/>
	<rect x="0.61" y="74.14" class="st0" width="7.93" height="2.69"/>
	<rect x="0.61" y="79.72" class="st0" width="8.08" height="10.56"/>
</g>
</svg>
