<?xml version="1.0" encoding="utf-8"?>
<!-- Generator: Adobe Illustrator 25.0.0, SVG Export Plug-In . SVG Version: 6.00 Build 0)  -->
<svg version="1.1" id="Layer_1" xmlns="http://www.w3.org/2000/svg" xmlns:xlink="http://www.w3.org/1999/xlink" x="0px" y="0px"
	 viewBox="0 0 100 100" style="enable-background:new 0 0 100 100;" xml:space="preserve">
<style type="text/css">
	.st0{fill-rule:evenodd;clip-rule:evenodd;fill:#40875E;}
	.st1{fill-rule:evenodd;clip-rule:evenodd;fill:#A8A240;}
	.st2{fill:none;}
	.st3{fill:#F0AB00;}
	.st4{fill:#A8A240;}
	.st5{fill:#40875E;}
	.st6{fill-rule:evenodd;clip-rule:evenodd;fill:#F0AB00;}
	.st7{fill-rule:evenodd;clip-rule:evenodd;fill:#0B4A99;}
	.st8{fill:none;stroke:#F0AB00;stroke-miterlimit:10;}
	.st9{fill:#A8A240;stroke:#F0AB00;stroke-width:2;stroke-miterlimit:10;}
	.st10{fill:#F0AB00;stroke:#A8A240;stroke-width:3;stroke-miterlimit:10;}
	.st11{fill:#3E865F;}
	.st12{fill:#EFAA03;}
	.st13{fill:#A6A13E;}
	.st14{fill:#0B4A99;}
	.st15{fill:#F5B026;}
	.st16{fill:#FFCD2E;}
	.st17{fill:#D4D2D2;}
	.st18{fill:#E3E4E3;}
	.st19{fill:#FBD97C;}
	.st20{fill:#57BEC5;}
	.st21{fill:#469BA3;}
	.st22{fill:#CB151A;}
	.st23{fill:url(#SVGID_1_);}
	.st24{fill:url(#SVGID_2_);}
	.st25{fill:url(#SVGID_3_);}
	.st26{fill:#CFCFCE;}
	.st27{fill:#D4D3D3;}
	.st28{fill:#E4E5E3;}
	.st29{fill:#A2BAD0;}
	.st30{fill:#4B708F;}
	.st31{fill:#8AA4BE;}
	.st32{fill:#CCCACA;}
	.st33{opacity:0.59;fill:#3E865F;}
	.st34{opacity:0.6;}
	.st35{fill:#3F5B7A;}
	.st36{opacity:0.2;}
	.st37{fill:#516D8C;}
	.st38{fill-rule:evenodd;clip-rule:evenodd;fill:#CC8E05;}
	.st39{fill:url(#SVGID_4_);}
	.st40{fill:none;stroke:#40875E;stroke-width:2;stroke-miterlimit:10;}
	.st41{fill:url(#SVGID_5_);}
	.st42{fill:url(#SVGID_6_);}
	.st43{fill:url(#SVGID_7_);}
	.st44{opacity:0.44;fill:#40875E;}
</style>
<g>
	<rect x="43.49" y="63.25" class="st13" width="41.49" height="25.9"/>
	<path class="st12" d="M47.27,55.42c-0.02-0.02-0.05-0.03-0.07-0.01c-0.04,0.03-0.06,0.06-0.08,0.1c-0.01,0.01-0.01,0.03-0.01,0.04
		c0,0.01,0,0.02-0.01,0.03v0v0v0.01l0,0v0l0,0l0,0.01c0,0,0,0.01,0,0.02c-0.01,0.02-0.02,0.05-0.04,0.07
		c-0.01,0.02-0.04,0.04-0.06,0.05l-0.04,0.02c-0.01,0-0.03,0-0.04,0.01c-0.02,0.01-0.07,0.01-0.09,0.01c-0.03,0-0.06-0.01-0.08-0.01
		c-0.01,0-0.03-0.01-0.04-0.01c-0.01,0-0.02-0.01-0.03-0.02c-0.01-0.01-0.02-0.01-0.03-0.03c-0.01-0.01-0.02-0.01-0.02-0.03
		c0-0.01-0.01-0.02-0.02-0.03c0-0.01,0-0.03-0.01-0.04c-0.01-0.02-0.01-0.07-0.01-0.09c0-0.03,0-0.05,0.02-0.08
		c0.02-0.05,0.05-0.1,0.1-0.15c0.04-0.05,0.1-0.09,0.15-0.13l0,0l0.03-0.01v-0.03v-0.35c0-0.03-0.02-0.05-0.05-0.05
		c-0.03,0-0.05,0.02-0.05,0.05v0.32c-0.03,0.01-0.05,0.02-0.07,0.04c-0.03,0.02-0.06,0.04-0.09,0.07c-0.06,0.05-0.11,0.11-0.15,0.19
		c-0.02,0.04-0.02,0.08-0.03,0.13v0.01v0v0.01l0,0v0l0,0.01l0,0.02c0,0.02,0,0.03,0.01,0.06c0.01,0.02,0.01,0.04,0.02,0.07
		c0.01,0.02,0.02,0.04,0.03,0.06c0.01,0.02,0.03,0.04,0.04,0.05c0.02,0.02,0.04,0.03,0.05,0.05c0.02,0.01,0.04,0.02,0.06,0.03
		c0.02,0.01,0.04,0.02,0.06,0.02c0.04,0.01,0.08,0.01,0.12,0.01h0h0.01h0.01l0.01,0l0.02,0l0.03,0c0.01,0,0.02-0.01,0.03-0.01
		c0.05-0.01,0.08-0.03,0.12-0.05c0.03-0.03,0.06-0.05,0.09-0.09c0.02-0.03,0.04-0.07,0.05-0.12c0.01-0.01,0-0.02,0.01-0.03l0-0.02
		v-0.01l0,0c0,0.01,0,0,0,0v0v0c0-0.01,0-0.02,0-0.03c0,0,0,0,0-0.01c0.01-0.02,0.03-0.05,0.04-0.06l0,0
		C47.29,55.47,47.29,55.44,47.27,55.42z"/>
	<path class="st12" d="M47.98,54.23h-2.33v-5.52l2.33-4.35V54.23z M45.75,54.13h2.13v-9.58l-2.13,4.26V54.13z"/>
	<path class="st11" d="M47.66,53.32h-1.69c-0.19,0-0.35-0.16-0.35-0.35v-0.04h2.39v0.04C48.01,53.16,47.86,53.32,47.66,53.32z"/>
	<path class="st12" d="M46.23,52.87c0,0.17-0.13,0.31-0.3,0.31c-0.17,0-0.31-0.14-0.31-0.31c0-0.17,0.14-0.3,0.31-0.3
		C46.1,52.56,46.23,52.7,46.23,52.87z"/>
	<path class="st12" d="M48.01,52.87c0,0.17-0.14,0.31-0.31,0.31c-0.17,0-0.31-0.14-0.31-0.31c0-0.17,0.14-0.3,0.31-0.3
		C47.88,52.56,48.01,52.7,48.01,52.87z"/>
	<path class="st11" d="M47.76,54.56l-0.95,0.4l-0.94-0.4c-0.15-0.06-0.25-0.21-0.25-0.37v-0.24h2.39v0.24
		C48.01,54.35,47.91,54.5,47.76,54.56z"/>
	<g>
		<g>
			<g>
				<g>
					<polygon class="st13" points="41.16,58.26 39.34,58.65 39.28,58.38 41.1,57.98 					"/>
				</g>
				<g>
					<polygon class="st13" points="41.25,58.06 41,58.17 40.23,56.48 40.48,56.36 					"/>
				</g>
				<g>
					<polygon class="st13" points="42.2,56.16 40.39,56.56 40.33,56.28 42.15,55.89 					"/>
				</g>
				<g>
					
						<rect x="41.65" y="54.24" transform="matrix(0.9094 -0.4159 0.4159 0.9094 -19.1634 22.3798)" class="st13" width="0.28" height="1.86"/>
				</g>
				<g>
					<polygon class="st13" points="43.25,54.07 41.43,54.47 41.37,54.19 43.19,53.79 					"/>
				</g>
				<g>
					<polygon class="st13" points="43.35,53.87 43.09,53.99 42.32,52.29 42.57,52.18 					"/>
				</g>
				<g>
					<polygon class="st13" points="44.3,51.97 42.48,52.37 42.41,52.1 44.24,51.7 					"/>
				</g>
				<g>
					<polygon class="st13" points="44.39,51.78 44.14,51.9 43.37,50.2 43.62,50.08 					"/>
				</g>
				<g>
					<polygon class="st13" points="45.34,49.88 43.52,50.28 43.46,50.01 45.29,49.61 					"/>
				</g>
				<g>
					<polygon class="st13" points="45.44,49.68 45.19,49.8 44.41,48.1 44.67,47.99 					"/>
				</g>
				<g>
					
						<rect x="44.52" y="47.71" transform="matrix(0.977 -0.2134 0.2134 0.977 -9.1621 10.7985)" class="st13" width="1.86" height="0.28"/>
				</g>
				<g>
					<polygon class="st13" points="46.49,47.59 46.23,47.71 45.46,46.01 45.71,45.9 					"/>
				</g>
				<g>
					<polygon class="st13" points="47.44,45.7 45.62,46.09 45.55,45.82 47.38,45.42 					"/>
				</g>
				<g>
					
						<rect x="46.88" y="43.78" transform="matrix(0.909 -0.4167 0.4167 0.909 -14.3544 23.6625)" class="st13" width="0.28" height="1.86"/>
				</g>
			</g>
			<g>
				<g>
					
						<rect x="39.23" y="58.18" transform="matrix(0.9768 -0.214 0.214 0.9768 -11.5503 9.9456)" class="st13" width="1.86" height="0.28"/>
				</g>
				<g>
					
						<rect x="40.55" y="56.34" transform="matrix(0.9095 -0.4157 0.4157 0.9095 -20.1282 22.0968)" class="st13" width="0.28" height="1.86"/>
				</g>
				<g>
					<polygon class="st13" points="42.15,56.17 40.33,56.57 40.27,56.29 42.09,55.89 					"/>
				</g>
				<g>
					<polygon class="st13" points="42.25,55.97 41.99,56.09 41.22,54.39 41.47,54.28 					"/>
				</g>
				<g>
					<polygon class="st13" points="43.19,54.07 41.37,54.47 41.31,54.2 43.14,53.8 					"/>
				</g>
				<g>
					<polygon class="st13" points="43.29,53.88 43.04,54 42.26,52.3 42.52,52.18 					"/>
				</g>
				<g>
					<polygon class="st13" points="44.24,51.98 42.42,52.38 42.36,52.11 44.18,51.71 					"/>
				</g>
				<g>
					<polygon class="st13" points="44.34,51.79 44.08,51.9 43.31,50.21 43.57,50.09 					"/>
				</g>
				<g>
					<polygon class="st13" points="45.29,49.89 43.47,50.29 43.41,50.01 45.23,49.61 					"/>
				</g>
				<g>
					
						<rect x="44.73" y="47.97" transform="matrix(0.9103 -0.414 0.414 0.9103 -16.221 22.9666)" class="st13" width="0.28" height="1.86"/>
				</g>
				<g>
					
						<rect x="44.46" y="47.72" transform="matrix(0.9767 -0.2146 0.2146 0.9767 -9.2112 10.8547)" class="st13" width="1.86" height="0.28"/>
				</g>
				<g>
					
						<rect x="45.78" y="45.88" transform="matrix(0.9069 -0.4213 0.4213 0.9069 -15.4459 23.6988)" class="st13" width="0.28" height="1.86"/>
				</g>
				<g>
					<polygon class="st13" points="47.38,45.7 45.56,46.1 45.5,45.82 47.32,45.42 					"/>
				</g>
				<g>
					<polygon class="st13" points="47.48,45.51 47.22,45.62 46.45,43.93 46.7,43.81 					"/>
				</g>
			</g>
			<g>
				<path class="st13" d="M48.65,43.27l-8.63,17.27l-0.92-2.02l7.39-14.77L48.65,43.27z M40.03,59.89l8.11-16.22l-1.47,0.32
					l-7.27,14.53L40.03,59.89z"/>
			</g>
		</g>
	</g>
	<rect x="36.15" y="58.6" class="st11" width="5.1" height="3.81"/>
	<rect x="39.41" y="58.6" class="st17" width="1.85" height="3.81"/>
	<rect x="37.65" y="62.27" class="st11" width="2.11" height="14.37"/>
	<rect x="37.89" y="62.43" class="st13" width="0.5" height="13.87"/>
	<rect x="37.65" y="62.42" class="st18" width="2.11" height="0.77"/>
	<rect x="36.15" y="65.36" class="st12" width="5.1" height="0.61"/>
	<polygon class="st12" points="41.25,65.36 36.15,65.36 36.27,65.23 41.13,65.23 	"/>
	<rect x="37.65" y="65.97" class="st18" width="2.11" height="0.54"/>
	<polygon class="st12" points="41.25,65.97 36.15,65.97 36.27,66.09 41.13,66.09 	"/>
	<path class="st13" d="M40.69,60.49h-0.45c-0.14,0-0.26-0.12-0.26-0.26v-0.56c0-0.14,0.12-0.26,0.26-0.26h0.45
		c0.15,0,0.26,0.12,0.26,0.26v0.56C40.95,60.38,40.83,60.49,40.69,60.49z"/>
	<path class="st12" d="M40.61,60.39h-0.4c-0.14,0-0.25-0.11-0.25-0.25v-0.55c0-0.14,0.11-0.25,0.25-0.25h0.4
		c0.14,0,0.25,0.11,0.25,0.25v0.55C40.86,60.27,40.75,60.39,40.61,60.39z"/>
	<path class="st12" d="M3.75,61.54c0.02-0.02,0.05-0.03,0.07-0.01c0.03,0.03,0.06,0.05,0.08,0.09c0,0.01,0.01,0.02,0.01,0.04
		c0,0.01,0,0.02,0,0.03l0,0l0,0v0.01l0,0l0,0v0l0,0.01c0,0.01,0,0.01,0,0.02c0.01,0.02,0.02,0.05,0.04,0.06
		c0.02,0.02,0.04,0.03,0.06,0.05l0.04,0.02c0.01,0,0.02,0,0.03,0.01c0.01,0.01,0.07,0.01,0.08,0.01c0.03,0,0.05,0,0.08-0.01
		c0.02,0,0.02-0.01,0.04-0.01c0.01,0,0.02-0.01,0.03-0.02c0.01,0,0.02-0.01,0.03-0.02c0.01-0.01,0.02-0.01,0.02-0.03
		c0-0.01,0.01-0.02,0.02-0.03c0-0.01,0-0.02,0.01-0.03c0-0.02,0.01-0.07,0.01-0.08c0-0.02-0.01-0.05-0.02-0.07
		c-0.02-0.05-0.05-0.1-0.09-0.14c-0.04-0.04-0.09-0.08-0.14-0.12l0,0L4.13,61.3v-0.03v-0.33c0-0.02,0.02-0.04,0.05-0.04
		c0.02,0,0.05,0.02,0.05,0.04v0.3c0.03,0.01,0.05,0.02,0.07,0.03c0.03,0.02,0.06,0.04,0.09,0.06c0.05,0.04,0.1,0.1,0.14,0.18
		c0.02,0.04,0.02,0.08,0.02,0.12l0,0.01v0v0l0,0v0v0.01l0,0.03c0,0.02,0,0.03-0.01,0.05c0,0.02-0.01,0.04-0.02,0.06
		c-0.01,0.02-0.02,0.04-0.03,0.05c-0.01,0.02-0.03,0.03-0.04,0.05c-0.02,0.02-0.03,0.03-0.05,0.04c-0.02,0.01-0.04,0.02-0.06,0.03
		C4.33,61.99,4.31,62,4.29,62c-0.04,0.01-0.07,0.01-0.11,0.01h0H4.16H4.15l-0.01,0l-0.02,0l-0.03,0C4.08,62,4.08,62,4.06,62
		c-0.04-0.01-0.08-0.03-0.11-0.05c-0.03-0.02-0.06-0.05-0.09-0.08c-0.02-0.03-0.04-0.07-0.05-0.11c0-0.01,0-0.02,0-0.03v-0.02
		l0-0.01l0,0c0,0.01,0,0,0,0l0,0v0c0-0.01,0-0.02,0-0.02c0,0,0,0,0-0.01c-0.01-0.02-0.02-0.05-0.04-0.06l0,0
		C3.74,61.59,3.74,61.56,3.75,61.54z"/>
	<g>
		<path class="st12" d="M3.1,55.99l2.17,0.94v3.51H3.1V55.99z M5.18,57.02l-1.98-0.86v4.18h1.98V57.02z"/>
	</g>
	<path class="st11" d="M3.39,59.59h1.57c0.18,0,0.32-0.14,0.32-0.32v-0.04H3.07v0.04C3.07,59.44,3.21,59.59,3.39,59.59z"/>
	<path class="st12" d="M4.72,59.17c0,0.16,0.13,0.29,0.28,0.29c0.16,0,0.29-0.13,0.29-0.29c0-0.15-0.13-0.28-0.29-0.28
		C4.85,58.89,4.72,59.01,4.72,59.17z"/>
	<path class="st12" d="M3.07,59.17c0,0.16,0.13,0.29,0.28,0.29c0.15,0,0.28-0.13,0.28-0.29c0-0.15-0.13-0.28-0.28-0.28
		C3.19,58.89,3.07,59.01,3.07,59.17z"/>
	<g>
		<g>
			<g>
				<g>
					
						<rect x="15.47" y="61.01" transform="matrix(0.8877 -0.4604 0.4604 0.8877 -26.3126 14.3879)" class="st13" width="1.73" height="0.26"/>
				</g>
				<g>
					
						<rect x="15.21" y="59.84" transform="matrix(0.965 -0.2623 0.2623 0.965 -15.3875 6.1516)" class="st13" width="0.26" height="1.73"/>
				</g>
				<g>
					<polygon class="st13" points="13.64,60.78 15.17,59.98 15.06,59.75 13.52,60.55 					"/>
				</g>
				<g>
					<polygon class="st13" points="13.45,60.7 13.7,60.63 13.25,58.96 12.99,59.03 					"/>
				</g>
				<g>
					<polygon class="st13" points="11.64,59.91 13.18,59.11 13.06,58.87 11.52,59.68 					"/>
				</g>
				<g>
					
						<rect x="11.22" y="58.09" transform="matrix(0.9629 -0.2697 0.2697 0.9629 -15.4788 5.2465)" class="st13" width="0.26" height="1.73"/>
				</g>
				<g>
					
						<rect x="9.49" y="58.39" transform="matrix(0.8868 -0.4621 0.4621 0.8868 -25.8684 11.4079)" class="st13" width="1.73" height="0.26"/>
				</g>
				<g>
					
						<rect x="9.23" y="57.22" transform="matrix(0.9671 -0.2544 0.2544 0.9671 -14.471 4.2935)" class="st13" width="0.26" height="1.73"/>
				</g>
				<g>
					<polygon class="st13" points="7.65,58.16 9.19,57.36 9.07,57.13 7.53,57.93 					"/>
				</g>
				<g>
					<polygon class="st13" points="7.47,58.08 7.72,58.01 7.26,56.34 7.01,56.41 					"/>
				</g>
				<g>
					
						<rect x="5.5" y="56.64" transform="matrix(0.8874 -0.461 0.461 0.8874 -25.4557 9.3288)" class="st13" width="1.73" height="0.26"/>
				</g>
				<g>
					
						<rect x="5.24" y="55.47" transform="matrix(0.9666 -0.2562 0.2562 0.9666 -14.2552 3.2569)" class="st13" width="0.26" height="1.73"/>
				</g>
				<g>
					
						<rect x="3.51" y="55.77" transform="matrix(0.888 -0.4598 0.4598 0.888 -25.2154 8.2731)" class="st13" width="1.73" height="0.26"/>
				</g>
				<g>
					<polygon class="st13" points="3.48,56.34 3.73,56.27 3.28,54.6 3.03,54.66 					"/>
				</g>
			</g>
			<g>
				<g>
					<polygon class="st13" points="15.68,61.62 17.21,60.83 17.09,60.59 15.55,61.39 					"/>
				</g>
				<g>
					<polygon class="st13" points="15.49,61.54 15.74,61.47 15.29,59.8 15.03,59.87 					"/>
				</g>
				<g>
					<polygon class="st13" points="13.68,60.75 15.22,59.95 15.1,59.72 13.56,60.52 					"/>
				</g>
				<g>
					<polygon class="st13" points="13.5,60.67 13.75,60.6 13.29,58.93 13.04,59 					"/>
				</g>
				<g>
					<polygon class="st13" points="11.69,59.88 13.22,59.08 13.1,58.85 11.57,59.65 					"/>
				</g>
				<g>
					
						<rect x="11.27" y="58.06" transform="matrix(0.9644 -0.2645 0.2645 0.9644 -15.1788 5.1128)" class="st13" width="0.26" height="1.73"/>
				</g>
				<g>
					
						<rect x="9.54" y="58.36" transform="matrix(0.8873 -0.4612 0.4612 0.8873 -25.8048 11.3903)" class="st13" width="1.73" height="0.26"/>
				</g>
				<g>
					<polygon class="st13" points="9.51,58.93 9.76,58.86 9.3,57.18 9.05,57.26 					"/>
				</g>
				<g>
					<polygon class="st13" points="7.7,58.14 9.24,57.34 9.12,57.11 7.58,57.9 					"/>
				</g>
				<g>
					<polygon class="st13" points="7.51,58.05 7.77,57.99 7.31,56.31 7.06,56.38 					"/>
				</g>
				<g>
					
						<rect x="5.55" y="56.62" transform="matrix(0.8878 -0.4601 0.4601 0.8878 -25.3919 9.3158)" class="st13" width="1.73" height="0.26"/>
				</g>
				<g>
					
						<rect x="5.29" y="55.44" transform="matrix(0.9643 -0.2648 0.2648 0.9643 -14.7167 3.4443)" class="st13" width="0.26" height="1.73"/>
				</g>
				<g>
					
						<rect x="3.55" y="55.74" transform="matrix(0.8881 -0.4596 0.4596 0.8881 -25.1837 8.281)" class="st13" width="1.73" height="0.26"/>
				</g>
				<g>
					<polygon class="st13" points="3.53,56.31 3.78,56.24 3.32,54.57 3.07,54.64 					"/>
				</g>
			</g>
			<g>
				<path class="st13" d="M3.19,54.46l14.07,6.16l0.54,2l-16.46-7.2L3.19,54.46z M17.05,60.8L3.2,54.75l-1.24,0.65l15.45,6.76
					L17.05,60.8z"/>
			</g>
		</g>
	</g>
	<path class="st11" d="M3.3,60.74l0.89,0.37l0.87-0.37c0.14-0.06,0.23-0.19,0.23-0.35v-0.22H3.07v0.22
		C3.07,60.55,3.16,60.68,3.3,60.74z"/>
	<rect x="17.24" y="59.77" class="st11" width="4.75" height="3.54"/>
	<rect x="20.27" y="59.77" class="st17" width="1.72" height="3.54"/>
	<rect x="18.63" y="63.2" class="st11" width="1.96" height="13.37"/>
	<rect x="18.86" y="63.33" class="st13" width="0.47" height="12.9"/>
	<rect x="18.63" y="63.31" class="st18" width="1.96" height="0.72"/>
	<rect x="17.24" y="66.05" class="st12" width="4.75" height="0.57"/>
	<polygon class="st12" points="21.98,66.05 17.24,66.05 17.35,65.94 21.87,65.94 	"/>
	<rect x="18.63" y="66.62" class="st18" width="1.96" height="0.5"/>
	<polygon class="st12" points="21.98,66.62 17.24,66.62 17.35,66.73 21.87,66.73 	"/>
	<path class="st13" d="M19.64,61.57h-1.83c-0.13,0-0.24-0.11-0.24-0.24v-0.52c0-0.13,0.11-0.24,0.24-0.24h1.83
		c0.14,0,0.24,0.11,0.24,0.24v0.52C19.88,61.46,19.77,61.57,19.64,61.57z"/>
	<path class="st12" d="M19.57,61.47h-1.78c-0.13,0-0.24-0.1-0.24-0.23v-0.51c0-0.13,0.11-0.24,0.24-0.24h1.78
		c0.13,0,0.23,0.11,0.23,0.24v0.51C19.8,61.37,19.7,61.47,19.57,61.47z"/>
	<g>
		<rect x="47.07" y="66.13" class="st12" width="1.87" height="2.95"/>
		<rect x="47.07" y="66.13" class="st12" width="1.66" height="2.75"/>
		<rect x="47.07" y="66.13" class="st12" width="1.66" height="0.65"/>
	</g>
	<g>
		<rect x="50.13" y="66.13" class="st12" width="1.87" height="2.95"/>
		<rect x="50.13" y="66.13" class="st12" width="1.66" height="2.75"/>
		<rect x="50.13" y="66.13" class="st12" width="1.66" height="0.65"/>
	</g>
	<g>
		<rect x="53.26" y="66.13" class="st19" width="1.88" height="2.95"/>
		<rect x="53.26" y="66.13" class="st20" width="1.66" height="2.75"/>
		<rect x="53.26" y="66.13" class="st21" width="1.66" height="0.65"/>
	</g>
	<g>
		<rect x="60.8" y="66.13" class="st12" width="1.87" height="2.95"/>
		<rect x="60.8" y="66.13" class="st12" width="1.66" height="2.75"/>
		<rect x="60.8" y="66.13" class="st12" width="1.66" height="0.65"/>
	</g>
	<g>
		<rect x="63.85" y="66.13" class="st19" width="1.88" height="2.95"/>
		<rect x="63.85" y="66.13" class="st20" width="1.66" height="2.75"/>
		<rect x="63.85" y="66.13" class="st21" width="1.66" height="0.65"/>
	</g>
	<g>
		<rect x="66.99" y="66.13" class="st12" width="1.88" height="2.95"/>
		<rect x="66.99" y="66.13" class="st12" width="1.66" height="2.75"/>
		<rect x="66.99" y="66.13" class="st12" width="1.66" height="0.65"/>
	</g>
	<g>
		<rect x="74.53" y="66.13" class="st12" width="1.88" height="2.95"/>
		<rect x="74.53" y="66.13" class="st12" width="1.66" height="2.75"/>
		<rect x="74.53" y="66.13" class="st12" width="1.66" height="0.65"/>
	</g>
	<g>
		<rect x="77.59" y="66.13" class="st19" width="1.88" height="2.95"/>
		<rect x="77.59" y="66.13" class="st20" width="1.66" height="2.75"/>
		<rect x="77.59" y="66.13" class="st21" width="1.66" height="0.65"/>
	</g>
	<g>
		<rect x="80.72" y="66.13" class="st19" width="1.88" height="2.95"/>
		<rect x="80.72" y="66.13" class="st20" width="1.66" height="2.75"/>
		<rect x="80.72" y="66.13" class="st21" width="1.66" height="0.65"/>
	</g>
	<g>
		<rect x="47.07" y="71.92" class="st12" width="1.87" height="2.95"/>
		<rect x="47.07" y="71.92" class="st12" width="1.66" height="2.75"/>
		<rect x="47.07" y="71.92" class="st12" width="1.66" height="0.65"/>
	</g>
	<g>
		<rect x="50.13" y="71.92" class="st12" width="1.87" height="2.95"/>
		<rect x="50.13" y="71.92" class="st12" width="1.66" height="2.75"/>
		<rect x="50.13" y="71.92" class="st12" width="1.66" height="0.65"/>
	</g>
	<g>
		<rect x="53.26" y="71.92" class="st19" width="1.88" height="2.95"/>
		<rect x="53.26" y="71.92" class="st20" width="1.66" height="2.75"/>
		<rect x="53.26" y="71.92" class="st21" width="1.66" height="0.65"/>
	</g>
	<g>
		<rect x="60.8" y="71.92" class="st12" width="1.87" height="2.95"/>
		<rect x="60.8" y="71.92" class="st12" width="1.66" height="2.75"/>
		<rect x="60.8" y="71.92" class="st12" width="1.66" height="0.65"/>
	</g>
	<g>
		<rect x="63.85" y="71.92" class="st19" width="1.88" height="2.95"/>
		<rect x="63.85" y="71.92" class="st20" width="1.66" height="2.75"/>
		<rect x="63.85" y="71.92" class="st21" width="1.66" height="0.65"/>
	</g>
	<g>
		<rect x="66.99" y="71.92" class="st12" width="1.88" height="2.95"/>
		<rect x="66.99" y="71.92" class="st12" width="1.66" height="2.75"/>
		<rect x="66.99" y="71.92" class="st12" width="1.66" height="0.65"/>
	</g>
	<g>
		<rect x="74.53" y="71.92" class="st12" width="1.88" height="2.95"/>
		<rect x="74.53" y="71.92" class="st12" width="1.66" height="2.75"/>
		<rect x="74.53" y="71.92" class="st12" width="1.66" height="0.65"/>
	</g>
	<g>
		<rect x="77.59" y="71.92" class="st19" width="1.88" height="2.95"/>
		<rect x="77.59" y="71.92" class="st20" width="1.66" height="2.75"/>
		<rect x="77.59" y="71.92" class="st21" width="1.66" height="0.65"/>
	</g>
	<g>
		<rect x="80.72" y="71.92" class="st19" width="1.88" height="2.95"/>
		<rect x="80.72" y="71.92" class="st20" width="1.66" height="2.75"/>
		<rect x="80.72" y="71.92" class="st21" width="1.66" height="0.65"/>
	</g>
	<g>
		<rect x="47.07" y="77.25" class="st19" width="1.87" height="2.94"/>
		<rect x="47.07" y="77.25" class="st20" width="1.66" height="2.75"/>
		<rect x="47.07" y="77.25" class="st21" width="1.66" height="0.65"/>
	</g>
	<g>
		<rect x="50.13" y="77.25" class="st19" width="1.87" height="2.94"/>
		<rect x="50.13" y="77.25" class="st20" width="1.66" height="2.75"/>
		<rect x="50.13" y="77.25" class="st21" width="1.66" height="0.65"/>
	</g>
	<g>
		<rect x="53.26" y="77.25" class="st19" width="1.88" height="2.94"/>
		<rect x="53.26" y="77.25" class="st20" width="1.66" height="2.75"/>
		<rect x="53.26" y="77.25" class="st21" width="1.66" height="0.65"/>
	</g>
	<g>
		<rect x="60.8" y="77.25" class="st12" width="1.87" height="2.94"/>
		<rect x="60.8" y="77.25" class="st12" width="1.66" height="2.75"/>
		<rect x="60.8" y="77.25" class="st12" width="1.66" height="0.65"/>
	</g>
	<g>
		<rect x="63.85" y="77.25" class="st19" width="1.88" height="2.94"/>
		<rect x="63.85" y="77.25" class="st20" width="1.66" height="2.75"/>
		<rect x="63.85" y="77.25" class="st21" width="1.66" height="0.65"/>
	</g>
	<g>
		<rect x="66.99" y="77.25" class="st12" width="1.88" height="2.94"/>
		<rect x="66.99" y="77.25" class="st12" width="1.66" height="2.75"/>
		<rect x="66.99" y="77.25" class="st12" width="1.66" height="0.65"/>
	</g>
	<g>
		<rect x="74.53" y="77.25" class="st12" width="1.88" height="2.94"/>
		<rect x="74.53" y="77.25" class="st12" width="1.66" height="2.75"/>
		<rect x="74.53" y="77.25" class="st12" width="1.66" height="0.65"/>
	</g>
	<g>
		<rect x="77.59" y="77.25" class="st19" width="1.88" height="2.94"/>
		<rect x="77.59" y="77.25" class="st20" width="1.66" height="2.75"/>
		<rect x="77.59" y="77.25" class="st21" width="1.66" height="0.65"/>
	</g>
	<g>
		<rect x="80.72" y="77.25" class="st19" width="1.88" height="2.94"/>
		<rect x="80.72" y="77.25" class="st20" width="1.66" height="2.75"/>
		<rect x="80.72" y="77.25" class="st21" width="1.66" height="0.65"/>
	</g>
	<g>
		<rect x="47.07" y="82.58" class="st19" width="1.87" height="2.95"/>
		<rect x="47.07" y="82.58" class="st20" width="1.66" height="2.75"/>
		<rect x="47.07" y="82.58" class="st21" width="1.66" height="0.65"/>
	</g>
	<g>
		<rect x="50.13" y="82.58" class="st19" width="1.87" height="2.95"/>
		<rect x="50.13" y="82.58" class="st20" width="1.66" height="2.75"/>
		<rect x="50.13" y="82.58" class="st21" width="1.66" height="0.65"/>
	</g>
	<g>
		<rect x="53.26" y="82.58" class="st19" width="1.88" height="2.95"/>
		<rect x="53.26" y="82.58" class="st20" width="1.66" height="2.75"/>
		<rect x="53.26" y="82.58" class="st21" width="1.66" height="0.65"/>
	</g>
	<g>
		<rect x="60.8" y="82.58" class="st12" width="1.87" height="2.95"/>
		<rect x="60.8" y="82.58" class="st12" width="1.66" height="2.75"/>
		<rect x="60.8" y="82.58" class="st12" width="1.66" height="0.65"/>
	</g>
	<g>
		<rect x="63.85" y="82.58" class="st19" width="1.88" height="2.95"/>
		<rect x="63.85" y="82.58" class="st20" width="1.66" height="2.75"/>
		<rect x="63.85" y="82.58" class="st21" width="1.66" height="0.65"/>
	</g>
	<g>
		<rect x="66.99" y="82.58" class="st22" width="1.88" height="2.95"/>
		<rect x="66.99" y="82.58" class="st22" width="1.66" height="2.75"/>
		<rect x="66.99" y="82.58" class="st22" width="1.66" height="0.65"/>
	</g>
	<g>
		<rect x="74.53" y="82.58" class="st12" width="1.88" height="2.95"/>
		<rect x="74.53" y="82.58" class="st12" width="1.66" height="2.75"/>
		<rect x="74.53" y="82.58" class="st12" width="1.66" height="0.65"/>
	</g>
	<g>
		<rect x="77.59" y="82.58" class="st19" width="1.88" height="2.95"/>
		<rect x="77.59" y="82.58" class="st20" width="1.66" height="2.75"/>
		<rect x="77.59" y="82.58" class="st21" width="1.66" height="0.65"/>
	</g>
	<g>
		<rect x="80.72" y="82.58" class="st19" width="1.88" height="2.95"/>
		<rect x="80.72" y="82.58" class="st20" width="1.66" height="2.75"/>
		<rect x="80.72" y="82.58" class="st21" width="1.66" height="0.65"/>
	</g>
	<g>
		<g>
			<polygon class="st12" points="50.95,76.87 46.92,72.84 43.11,76.65 39.29,72.83 35.47,76.65 31.66,72.84 27.87,76.63 
				24.01,72.78 20.18,76.6 16.63,73.05 16.63,76.35 16.21,76.35 16.21,72.03 20.18,76.01 24.01,72.17 27.87,76.03 31.66,72.24 
				35.47,76.05 39.29,72.23 43.11,76.05 46.92,72.24 50.53,75.85 50.53,72.54 50.95,72.54 			"/>
		</g>
		<g>
			<rect x="19.96" y="72.54" class="st12" width="0.42" height="3.82"/>
		</g>
		<g>
			<rect x="23.71" y="72.54" class="st12" width="0.43" height="3.82"/>
		</g>
		<g>
			<rect x="27.67" y="72.54" class="st12" width="0.42" height="3.82"/>
		</g>
		<g>
			<rect x="31.46" y="72.54" class="st12" width="0.42" height="3.82"/>
		</g>
		<g>
			<rect x="39.1" y="72.54" class="st12" width="0.42" height="3.82"/>
		</g>
		<g>
			<rect x="46.7" y="72.54" class="st12" width="0.42" height="3.82"/>
		</g>
		<g>
			<rect x="35.27" y="72.54" class="st12" width="0.42" height="3.82"/>
		</g>
		<g>
			<rect x="42.9" y="72.54" class="st12" width="0.42" height="3.82"/>
		</g>
	</g>
	<rect x="15.53" y="71.56" class="st11" width="36.1" height="0.97"/>
	<rect x="15.44" y="76.35" class="st11" width="36.19" height="19.1"/>
	<rect x="15.44" y="79.21" class="st18" width="36.19" height="1.66"/>
	<rect x="14.59" y="77.78" class="st13" width="37.89" height="1.43"/>
	<polygon class="st11" points="89.36,95.45 79.17,95.45 79.27,89.73 79.41,82.31 79.52,76.55 79.52,76.28 79.54,75.08 79.66,69.12 
		79.7,66.65 79.76,63.36 79.9,55.94 80,50.18 80.07,46.89 80.14,42.76 80.25,37 80.28,35.6 80.39,29.57 80.49,23.82 80.63,16.39 
		80.64,15.84 80.74,10.63 80.85,4.55 87.69,4.55 87.79,10.63 87.89,15.84 87.9,16.39 88.04,23.82 88.14,29.57 88.26,35.6 88.28,37 
		88.39,42.76 88.46,46.89 88.53,50.18 88.63,55.94 88.77,63.36 88.83,66.65 88.88,69.12 88.99,75.08 89.01,76.28 89.01,76.55 
		89.12,82.31 89.26,89.73 	"/>
	<linearGradient id="SVGID_1_" gradientUnits="userSpaceOnUse" x1="79.6554" y1="66.2448" x2="88.8793" y2="66.2448">
		<stop  offset="0" style="stop-color:#E43416"/>
		<stop  offset="1" style="stop-color:#A42316"/>
	</linearGradient>
	<polygon class="st23" points="88.88,69.12 79.66,69.12 79.7,66.65 79.76,63.36 88.77,63.36 88.83,66.65 	"/>
	<linearGradient id="SVGID_2_" gradientUnits="userSpaceOnUse" x1="79.4078" y1="79.4273" x2="89.122" y2="79.4273">
		<stop  offset="0" style="stop-color:#E43416"/>
		<stop  offset="1" style="stop-color:#A42316"/>
	</linearGradient>
	<polygon class="st24" points="89.12,82.31 79.41,82.31 79.52,76.55 89.01,76.55 	"/>
	<linearGradient id="SVGID_3_" gradientUnits="userSpaceOnUse" x1="79.1675" y1="92.5892" x2="89.3623" y2="92.5892">
		<stop  offset="0" style="stop-color:#E43416"/>
		<stop  offset="1" style="stop-color:#A42316"/>
	</linearGradient>
	<polygon class="st25" points="89.36,95.45 79.17,95.45 79.27,89.73 89.26,89.73 	"/>
	<g>
		<g>
			<polygon class="st13" points="82.57,46.89 82.65,35.6 82.8,15.84 82.89,4.55 81.44,4.55 81.26,15.84 80.96,35.6 80.79,46.89 
				80.48,66.65 80.04,95.45 82.21,95.45 82.42,66.65 			"/>
		</g>
	</g>
	<polygon class="st11" points="56.48,17.14 52.64,17.14 50.95,95.45 58.17,95.45 	"/>
	<polygon class="st12" points="53.33,17.14 52.26,95.45 53.87,95.45 54.19,17.14 	"/>
	<path class="st12" d="M56.48,17.68h-3.84c-0.3,0-0.54-0.24-0.54-0.54c0-0.29,0.24-0.54,0.54-0.54h3.84c0.3,0,0.53,0.24,0.53,0.54
		C57.01,17.44,56.77,17.68,56.48,17.68z"/>
	<path class="st12" d="M56.67,26.7h-4.23c-0.29,0-0.53-0.24-0.53-0.54c0-0.29,0.24-0.53,0.53-0.53h4.23c0.3,0,0.54,0.24,0.54,0.53
		C57.21,26.46,56.97,26.7,56.67,26.7z"/>
	<path class="st12" d="M56.87,35.73h-4.62c-0.3,0-0.53-0.24-0.53-0.54c0-0.3,0.24-0.53,0.53-0.53h4.62c0.3,0,0.53,0.24,0.53,0.53
		C57.4,35.49,57.16,35.73,56.87,35.73z"/>
	<path class="st12" d="M57.06,44.75h-5.01c-0.29,0-0.53-0.24-0.53-0.53c0-0.29,0.24-0.53,0.53-0.53h5.01c0.29,0,0.54,0.24,0.54,0.53
		C57.6,44.51,57.36,44.75,57.06,44.75z"/>
	<path class="st12" d="M57.26,53.78h-5.4c-0.3,0-0.54-0.24-0.54-0.53c0-0.3,0.24-0.54,0.54-0.54h5.4c0.29,0,0.53,0.24,0.53,0.54
		C57.79,53.54,57.55,53.78,57.26,53.78z"/>
	<path class="st12" d="M57.45,62.8h-5.78c-0.3,0-0.53-0.24-0.53-0.53c0-0.3,0.24-0.54,0.53-0.54h5.78c0.3,0,0.54,0.24,0.54,0.54
		C57.99,62.56,57.75,62.8,57.45,62.8z"/>
	<path class="st12" d="M57.65,71.83h-6.18c-0.3,0-0.53-0.24-0.53-0.54s0.24-0.54,0.53-0.54h6.18c0.3,0,0.53,0.24,0.53,0.54
		S57.94,71.83,57.65,71.83z"/>
	<path class="st12" d="M57.83,80.85h-6.55c-0.29,0-0.53-0.24-0.53-0.53c0-0.3,0.24-0.54,0.53-0.54h6.55c0.3,0,0.54,0.24,0.54,0.54
		C58.37,80.61,58.13,80.85,57.83,80.85z"/>
	<path class="st12" d="M54.23,17.68h-1.09c-0.09,0-0.15-0.24-0.15-0.54c0-0.29,0.07-0.54,0.15-0.54h1.09c0.08,0,0.15,0.24,0.15,0.54
		C54.38,17.44,54.31,17.68,54.23,17.68z"/>
	<path class="st12" d="M54.29,26.7h-1.32c-0.09,0-0.17-0.24-0.17-0.54c0-0.29,0.07-0.53,0.17-0.53h1.32c0.09,0,0.17,0.24,0.17,0.53
		C54.46,26.46,54.39,26.7,54.29,26.7z"/>
	<path class="st12" d="M54.36,35.73h-1.58c-0.1,0-0.18-0.24-0.18-0.54c0-0.3,0.08-0.53,0.18-0.53h1.58c0.1,0,0.18,0.24,0.18,0.53
		C54.54,35.49,54.46,35.73,54.36,35.73z"/>
	<path class="st12" d="M54.43,44.75h-1.78c-0.1,0-0.19-0.24-0.19-0.53c0-0.29,0.09-0.53,0.19-0.53h1.78c0.11,0,0.19,0.24,0.19,0.53
		C54.62,44.51,54.54,44.75,54.43,44.75z"/>
	<path class="st12" d="M54.51,53.78h-1.96c-0.11,0-0.19-0.24-0.19-0.53c0-0.3,0.08-0.54,0.19-0.54h1.96c0.1,0,0.19,0.24,0.19,0.54
		C54.7,53.54,54.61,53.78,54.51,53.78z"/>
	<path class="st12" d="M54.37,62.8h-1.99c-0.1,0-0.18-0.24-0.18-0.53c0-0.3,0.08-0.54,0.18-0.54h1.99c0.1,0,0.18,0.24,0.18,0.54
		C54.56,62.56,54.47,62.8,54.37,62.8z"/>
	<path class="st12" d="M54.38,71.83h-2.01c-0.1,0-0.17-0.24-0.17-0.54s0.08-0.54,0.17-0.54h2.01c0.1,0,0.18,0.24,0.18,0.54
		S54.48,71.83,54.38,71.83z"/>
	<path class="st12" d="M54.23,80.85H52c-0.1,0-0.18-0.24-0.18-0.53c0-0.3,0.08-0.54,0.18-0.54h2.23c0.1,0,0.18,0.24,0.18,0.54
		C54.41,80.61,54.33,80.85,54.23,80.85z"/>
	<polygon class="st11" points="67.44,17.14 63.6,17.14 61.91,95.45 69.13,95.45 	"/>
	<polygon class="st12" points="64.29,17.14 63.21,95.45 64.83,95.45 65.15,17.14 	"/>
	<path class="st12" d="M67.44,17.68H63.6c-0.29,0-0.53-0.24-0.53-0.54c0-0.29,0.24-0.54,0.53-0.54h3.84c0.3,0,0.54,0.24,0.54,0.54
		C67.97,17.44,67.73,17.68,67.44,17.68z"/>
	<path class="st12" d="M67.63,26.7H63.4c-0.3,0-0.53-0.24-0.53-0.54c0-0.29,0.24-0.53,0.53-0.53h4.23c0.3,0,0.54,0.24,0.54,0.53
		C68.17,26.46,67.93,26.7,67.63,26.7z"/>
	<path class="st12" d="M67.82,35.73h-4.62c-0.3,0-0.53-0.24-0.53-0.54c0-0.3,0.24-0.53,0.53-0.53h4.62c0.3,0,0.54,0.24,0.54,0.53
		C68.36,35.49,68.12,35.73,67.82,35.73z"/>
	<path class="st12" d="M68.02,44.75h-5.01c-0.29,0-0.53-0.24-0.53-0.53c0-0.29,0.24-0.53,0.53-0.53h5.01c0.3,0,0.54,0.24,0.54,0.53
		C68.56,44.51,68.32,44.75,68.02,44.75z"/>
	<path class="st12" d="M68.22,53.78h-5.4c-0.29,0-0.53-0.24-0.53-0.53c0-0.3,0.24-0.54,0.53-0.54h5.4c0.3,0,0.54,0.24,0.54,0.54
		C68.75,53.54,68.51,53.78,68.22,53.78z"/>
	<path class="st12" d="M68.41,62.8h-5.79c-0.3,0-0.53-0.24-0.53-0.53c0-0.3,0.24-0.54,0.53-0.54h5.79c0.29,0,0.53,0.24,0.53,0.54
		C68.94,62.56,68.7,62.8,68.41,62.8z"/>
	<path class="st12" d="M68.6,71.83h-6.17c-0.3,0-0.54-0.24-0.54-0.54s0.24-0.54,0.54-0.54h6.17c0.3,0,0.54,0.24,0.54,0.54
		S68.9,71.83,68.6,71.83z"/>
	<path class="st12" d="M68.79,80.85h-6.55c-0.3,0-0.54-0.24-0.54-0.53c0-0.3,0.24-0.54,0.54-0.54h6.55c0.3,0,0.54,0.24,0.54,0.54
		C69.33,80.61,69.09,80.85,68.79,80.85z"/>
	<path class="st12" d="M65.19,17.68H64.1c-0.08,0-0.15-0.24-0.15-0.54c0-0.29,0.07-0.54,0.15-0.54h1.09c0.08,0,0.15,0.24,0.15,0.54
		C65.34,17.44,65.27,17.68,65.19,17.68z"/>
	<path class="st12" d="M65.25,26.7h-1.32c-0.09,0-0.17-0.24-0.17-0.54c0-0.29,0.07-0.53,0.17-0.53h1.32c0.09,0,0.17,0.24,0.17,0.53
		C65.42,26.46,65.35,26.7,65.25,26.7z"/>
	<path class="st12" d="M65.32,35.73h-1.58c-0.1,0-0.18-0.24-0.18-0.54c0-0.3,0.08-0.53,0.18-0.53h1.58c0.1,0,0.18,0.24,0.18,0.53
		C65.5,35.49,65.42,35.73,65.32,35.73z"/>
	<path class="st12" d="M65.39,44.75h-1.78c-0.1,0-0.19-0.24-0.19-0.53c0-0.29,0.09-0.53,0.19-0.53h1.78c0.11,0,0.19,0.24,0.19,0.53
		C65.58,44.51,65.5,44.75,65.39,44.75z"/>
	<path class="st12" d="M65.47,53.78h-1.96c-0.11,0-0.19-0.24-0.19-0.53c0-0.3,0.09-0.54,0.19-0.54h1.96c0.11,0,0.19,0.24,0.19,0.54
		C65.66,53.54,65.57,53.78,65.47,53.78z"/>
	<path class="st12" d="M65.33,62.8h-1.99c-0.1,0-0.18-0.24-0.18-0.53c0-0.3,0.08-0.54,0.18-0.54h1.99c0.1,0,0.19,0.24,0.19,0.54
		C65.52,62.56,65.44,62.8,65.33,62.8z"/>
	<path class="st12" d="M65.34,71.83h-2.01c-0.1,0-0.17-0.24-0.17-0.54s0.08-0.54,0.17-0.54h2.01c0.1,0,0.18,0.24,0.18,0.54
		S65.44,71.83,65.34,71.83z"/>
	<path class="st12" d="M65.19,80.85h-2.23c-0.1,0-0.18-0.24-0.18-0.53c0-0.3,0.08-0.54,0.18-0.54h2.23c0.1,0,0.18,0.24,0.18,0.54
		C65.37,80.61,65.29,80.85,65.19,80.85z"/>
	<rect x="77.9" y="63.26" class="st11" width="19.87" height="32.19"/>
	<rect x="77.4" y="63.26" class="st11" width="0.5" height="32.19"/>
	<rect x="76.39" y="61.32" class="st11" width="22.26" height="2.09"/>
	<rect x="81.32" y="67.1" class="st12" width="3.66" height="2.02"/>
	<rect x="81.32" y="66.72" class="st13" width="3.66" height="0.38"/>
	<rect x="81.32" y="68.73" class="st13" width="3.66" height="0.38"/>
	<rect x="81.32" y="67.1" class="st12" width="3.66" height="0.32"/>
	<rect x="81.32" y="71.24" class="st12" width="3.66" height="2.88"/>
	<rect x="81.32" y="70.86" class="st13" width="3.66" height="0.38"/>
	<rect x="81.32" y="73.74" class="st13" width="3.66" height="0.38"/>
	<rect x="81.32" y="71.24" class="st12" width="3.66" height="0.31"/>
	<rect x="81.32" y="75.82" class="st12" width="3.66" height="2.88"/>
	<rect x="81.32" y="75.45" class="st13" width="3.66" height="0.38"/>
	<rect x="81.32" y="78.33" class="st13" width="3.66" height="0.38"/>
	<rect x="81.32" y="75.82" class="st12" width="3.66" height="0.32"/>
	<rect x="81.32" y="80.41" class="st12" width="3.66" height="2.88"/>
	<rect x="81.32" y="80.04" class="st13" width="3.66" height="0.38"/>
	<rect x="81.32" y="82.92" class="st13" width="3.66" height="0.38"/>
	<rect x="81.32" y="80.41" class="st12" width="3.66" height="0.32"/>
	<rect x="81.32" y="85.01" class="st12" width="3.66" height="2.88"/>
	<rect x="81.32" y="84.63" class="st13" width="3.66" height="0.38"/>
	<rect x="81.32" y="87.51" class="st13" width="3.66" height="0.38"/>
	<rect x="81.32" y="85.01" class="st12" width="3.66" height="0.32"/>
	<rect x="77.4" y="84.63" class="st17" width="4.84" height="10.82"/>
	<rect x="33.84" y="85.93" class="st11" width="46.15" height="9.52"/>
	<rect x="33.84" y="85.93" class="st18" width="46.15" height="0.96"/>
	<rect x="32.88" y="85.01" class="st13" width="47.11" height="0.92"/>
	<rect x="41.96" y="89.45" class="st12" width="35.94" height="5.92"/>
	<rect x="41.96" y="89.46" class="st13" width="35.94" height="0.6"/>
	<path class="st13" d="M22.91,65.94c0,0.01,0,0.02,0,0.03l0,0v19.57c0,1.34,1.93,2.42,4.31,2.42c2.38,0,4.31-1.08,4.31-2.42V65.97h0
		c0-0.01,0-0.02,0-0.03c0-1.33-1.93-2.41-4.31-2.41C24.84,63.53,22.91,64.61,22.91,65.94z"/>
	<path class="st13" d="M27.15,63.53c-1.6,0.03-2.88,1.1-2.88,2.41c0,0.01,0,0.02,0,0.03l0,0v19.57c0,1.31,1.28,2.38,2.88,2.42
		c-2.35-0.03-4.24-1.09-4.24-2.42V65.97l0,0c0-0.01,0-0.02,0-0.03C22.91,64.62,24.8,63.55,27.15,63.53z"/>
	<path class="st13" d="M26.02,65.65v20.29c0,0.49-0.4,0.89-0.89,0.89H25.1c-0.49,0-0.89-0.4-0.89-0.89V65.65
		c0-0.49,0.4-0.9,0.89-0.9h0.02C25.61,64.75,26.02,65.15,26.02,65.65z"/>
	<rect x="22.74" y="88.56" class="st13" width="8.81" height="6.83"/>
	<rect x="29.83" y="88.56" class="st26" width="1.72" height="6.83"/>
	<g>
		<rect x="25.32" y="67.41" class="st12" width="2.16" height="0.52"/>
	</g>
	<g>
		<rect x="25.32" y="70.71" class="st12" width="2.16" height="0.53"/>
	</g>
	<g>
		<rect x="25.32" y="74.01" class="st12" width="2.16" height="0.53"/>
	</g>
	<g>
		<rect x="25.32" y="77.32" class="st12" width="2.16" height="0.52"/>
	</g>
	<g>
		<rect x="25.32" y="80.62" class="st12" width="2.16" height="0.52"/>
	</g>
	<g>
		<rect x="25.32" y="83.92" class="st12" width="2.16" height="0.52"/>
	</g>
	<g>
		<rect x="25.32" y="87.22" class="st12" width="2.16" height="0.53"/>
	</g>
	<g>
		<rect x="25.32" y="90.53" class="st12" width="2.16" height="0.53"/>
	</g>
	<g>
		<rect x="25.32" y="93.83" class="st12" width="2.16" height="0.52"/>
	</g>
	<g>
		<g>
			<path class="st11" d="M31.55,69.02h-8.41c-0.29,0-0.52-0.24-0.52-0.53c0-0.29,0.23-0.52,0.52-0.52h8.41
				c0.29,0,0.52,0.23,0.52,0.52C32.08,68.78,31.84,69.02,31.55,69.02z"/>
		</g>
	</g>
	<g>
		<g>
			<path class="st11" d="M31.55,76.12h-8.41c-0.29,0-0.52-0.23-0.52-0.52c0-0.29,0.23-0.52,0.52-0.52h8.41
				c0.29,0,0.52,0.23,0.52,0.52C32.08,75.89,31.84,76.12,31.55,76.12z"/>
		</g>
	</g>
	<g>
		<g>
			<path class="st11" d="M31.55,83.23h-8.41c-0.29,0-0.52-0.23-0.52-0.52c0-0.29,0.23-0.53,0.52-0.53h8.41
				c0.29,0,0.52,0.24,0.52,0.53C32.08,83,31.84,83.23,31.55,83.23z"/>
		</g>
	</g>
	<g>
		<path class="st12" d="M27.74,95.39h-0.52V65.57h-1.64v29.82h-0.53V65.3c0-0.14,0.12-0.26,0.26-0.26h2.16
			c0.15,0,0.26,0.12,0.26,0.26V95.39z"/>
	</g>
	<path class="st13" d="M50.61,83.14c0,0.01,0,0.02,0,0.03c0,0.01,0,0.02,0,0.03c0,0.02,0,0.04,0,0.06c0,0.02,0,0.03,0,0.05
		c0,0.01,0,0.02,0,0.03c0,0.02,0,0.03-0.01,0.05c0,0.02,0,0.04-0.01,0.06v0c0,0.02-0.01,0.04-0.01,0.05c0,0,0,0,0,0.01
		c0,0.01-0.01,0.02-0.01,0.04c-0.02,0.1-0.05,0.19-0.08,0.27c0,0.01-0.01,0.03-0.02,0.04c-0.03,0.08-0.07,0.16-0.11,0.22
		c-0.01,0.01-0.02,0.02-0.03,0.04c-0.05,0.06-0.09,0.11-0.14,0.15c-0.01,0.01-0.02,0.02-0.03,0.02c-0.02,0.01-0.04,0.03-0.06,0.03
		c-0.02,0.01-0.04,0.02-0.06,0.03c-0.03,0.01-0.07,0.01-0.1,0.01c0,0-0.01,0-0.01,0l0,0h-5.55c-0.03,0-0.07,0-0.1-0.01
		c-0.02-0.01-0.04-0.01-0.07-0.03c-0.02-0.01-0.04-0.02-0.06-0.03c-0.01,0-0.02-0.01-0.03-0.02c-0.05-0.04-0.1-0.09-0.14-0.15
		c-0.01-0.01-0.02-0.02-0.03-0.04c-0.04-0.06-0.08-0.14-0.11-0.22c-0.01-0.01-0.01-0.02-0.01-0.04c-0.03-0.08-0.06-0.17-0.08-0.27
		c0-0.01,0-0.03-0.01-0.04c0,0,0-0.01,0-0.01c0-0.02,0-0.03-0.01-0.05v0c0-0.02-0.01-0.04-0.01-0.06c0-0.01,0-0.03,0-0.05
		c0-0.01,0-0.01,0-0.03c0-0.01,0-0.03,0-0.05c0-0.02,0-0.04,0-0.06c0-0.01,0-0.02,0-0.03c0-0.01,0-0.02,0-0.03c0-0.01,0-0.02,0-0.03
		s0-0.02,0-0.03c0-0.02,0-0.04,0-0.06c0-0.02,0-0.03,0-0.04c0-0.01,0-0.02,0-0.03c0-0.02,0-0.03,0-0.05c0-0.02,0-0.04,0.01-0.05
		c0,0,0,0,0-0.01c0-0.02,0-0.03,0.01-0.05c0,0,0-0.01,0-0.01c0-0.01,0.01-0.03,0.01-0.04c0.01-0.02,0.01-0.05,0.01-0.07
		c0-0.01,0.01-0.03,0.01-0.04c0.01-0.03,0.02-0.07,0.03-0.1c0-0.01,0.01-0.02,0.01-0.03c0.03-0.08,0.06-0.16,0.1-0.23
		c0.01-0.01,0.01-0.03,0.02-0.04c0.02-0.03,0.03-0.05,0.05-0.07c0.01-0.02,0.02-0.03,0.03-0.04c0.02-0.02,0.04-0.04,0.06-0.06
		c0.01-0.01,0.02-0.02,0.03-0.03c0.03-0.02,0.06-0.05,0.09-0.06c0.01,0,0.02-0.01,0.03-0.02c0.01,0,0.02-0.01,0.04-0.01
		c0.04-0.02,0.09-0.02,0.13-0.02h5.55v0c0,0,0.01,0,0.01,0c0.04,0,0.09,0.01,0.13,0.02c0.01,0.01,0.02,0.01,0.03,0.01
		c0.01,0.01,0.02,0.01,0.03,0.02c0.03,0.02,0.06,0.04,0.09,0.06c0.01,0.01,0.02,0.02,0.03,0.03c0.02,0.02,0.04,0.04,0.06,0.06
		c0.01,0.01,0.02,0.02,0.03,0.04c0.02,0.02,0.03,0.04,0.05,0.07c0.01,0.01,0.02,0.02,0.02,0.04c0.04,0.07,0.07,0.14,0.1,0.23
		c0,0.01,0,0.02,0.01,0.03c0.01,0.03,0.02,0.06,0.03,0.1c0,0.01,0.01,0.02,0.01,0.04c0.01,0.02,0.01,0.05,0.01,0.07
		c0,0.01,0,0.03,0.01,0.04c0,0,0,0,0,0.01c0,0.02,0.01,0.03,0.01,0.05c0,0,0,0,0,0.01c0,0.02,0,0.04,0.01,0.05
		c0,0.01,0,0.03,0.01,0.05c0,0.01,0,0.02,0,0.03c0,0.01,0,0.03,0,0.04c0,0.02,0,0.04,0,0.06c0,0.01,0,0.02,0,0.03
		S50.61,83.13,50.61,83.14z"/>
	<path class="st12" d="M50.61,83.12c-0.01-0.45-0.31-0.81-0.67-0.81c0,0-0.01,0-0.01,0l0,0h-5.55c-0.37,0-0.67,0.36-0.67,0.81
		c0.01-0.66,0.31-1.19,0.67-1.19h5.55v0c0,0,0.01,0,0.01,0C50.3,81.93,50.6,82.46,50.61,83.12z"/>
	<path class="st18" d="M50.61,83.17c0,0.01,0,0.02,0,0.03c0,0.02,0,0.04,0,0.06c0,0.02,0,0.03,0,0.05c0,0.01,0,0.02,0,0.03
		c0,0.02,0,0.03-0.01,0.05c0,0.02,0,0.04-0.01,0.06v0c0,0.02-0.01,0.04-0.01,0.05c0,0,0,0,0,0.01c0,0.01-0.01,0.02-0.01,0.04
		c-0.02,0.1-0.05,0.19-0.08,0.27c0,0.01-0.01,0.03-0.02,0.04c-0.03,0.08-0.07,0.16-0.11,0.22c-0.01,0.01-0.02,0.02-0.03,0.04
		c-0.05,0.06-0.09,0.11-0.14,0.15c-0.01,0.01-0.02,0.02-0.03,0.02c-0.02,0.01-0.04,0.03-0.06,0.03c-0.02,0.01-0.04,0.02-0.06,0.03
		c-0.03,0.01-0.07,0.01-0.1,0.01c0,0-0.01,0-0.01,0l0,0h-5.55c-0.03,0-0.07,0-0.1-0.01c-0.02-0.01-0.04-0.01-0.07-0.03
		c-0.02-0.01-0.04-0.02-0.06-0.03c-0.01,0-0.02-0.01-0.03-0.02c-0.05-0.04-0.1-0.09-0.14-0.15c-0.01-0.01-0.02-0.02-0.03-0.04
		c-0.04-0.06-0.08-0.14-0.11-0.22c-0.01-0.01-0.01-0.02-0.01-0.04c-0.03-0.08-0.06-0.17-0.08-0.27c0-0.01,0-0.03-0.01-0.04
		c0,0,0-0.01,0-0.01c0-0.02,0-0.03-0.01-0.05v0c0-0.02-0.01-0.04-0.01-0.06c0-0.01,0-0.03,0-0.05c0-0.01,0-0.01,0-0.03
		c0-0.01,0-0.03,0-0.05c0-0.02,0-0.04,0-0.06c0-0.01,0-0.02,0-0.03c0.02,0.44,0.31,0.8,0.67,0.8h5.55l0,0c0,0,0.01,0,0.01,0
		C50.3,83.97,50.6,83.61,50.61,83.17z"/>
	<path class="st12" d="M50.02,82.8h-5.75c-0.14,0-0.25-0.11-0.25-0.25v-0.01c0-0.14,0.11-0.25,0.25-0.25h5.75
		c0.14,0,0.25,0.11,0.25,0.25v0.01C50.27,82.69,50.15,82.8,50.02,82.8z"/>
	<polygon class="st18" points="46,84.35 45.03,84.35 45.11,83.97 45.2,83.51 45.83,83.51 45.92,83.97 	"/>
	<rect x="45.2" y="83.51" class="st13" width="0.63" height="1.49"/>
	<polygon class="st18" points="49.21,84.35 48.24,84.35 48.32,83.97 48.41,83.51 49.04,83.51 49.13,83.97 	"/>
	<rect x="48.41" y="83.51" class="st13" width="0.63" height="1.49"/>
	<path class="st13" d="M42.1,83.14c0,0.01,0,0.02,0,0.03c0,0.01,0,0.02,0,0.03c0,0.02,0,0.04,0,0.06c0,0.02,0,0.03,0,0.05
		c0,0.01,0,0.02,0,0.03c0,0.02,0,0.03,0,0.05c0,0.02-0.01,0.04-0.01,0.06c0,0,0,0,0,0c0,0.02,0,0.04-0.01,0.05c0,0,0,0,0,0.01
		c0,0.01-0.01,0.02-0.01,0.04c-0.02,0.1-0.05,0.19-0.08,0.27c0,0.01-0.01,0.03-0.01,0.04c-0.03,0.08-0.07,0.16-0.11,0.22
		c-0.01,0.01-0.02,0.02-0.03,0.04c-0.04,0.06-0.09,0.11-0.15,0.15c-0.01,0.01-0.02,0.02-0.03,0.02c-0.02,0.01-0.04,0.03-0.06,0.03
		c-0.02,0.01-0.04,0.02-0.07,0.03c-0.03,0.01-0.07,0.01-0.1,0.01c0,0-0.01,0-0.01,0l0,0h-5.54c-0.03,0-0.07,0-0.1-0.01
		c-0.02-0.01-0.05-0.01-0.07-0.03c-0.02-0.01-0.04-0.02-0.06-0.03c-0.01,0-0.02-0.01-0.03-0.02c-0.05-0.04-0.1-0.09-0.14-0.15
		c-0.01-0.01-0.02-0.02-0.02-0.04c-0.04-0.06-0.08-0.14-0.11-0.22c-0.01-0.01-0.01-0.02-0.02-0.04c-0.03-0.08-0.06-0.17-0.08-0.27
		c0-0.01-0.01-0.03-0.01-0.04c0,0,0-0.01,0-0.01c0-0.02-0.01-0.03-0.01-0.05v0c0-0.02-0.01-0.04-0.01-0.06c0-0.01,0-0.03-0.01-0.05
		c0-0.01,0-0.01,0-0.03c0-0.01,0-0.03,0-0.05c0-0.02,0-0.04,0-0.06c0-0.01,0-0.02,0-0.03c0-0.01,0-0.02,0-0.03c0-0.01,0-0.02,0-0.03
		s0-0.02,0-0.03c0-0.02,0-0.04,0-0.06c0-0.02,0-0.03,0-0.04c0-0.01,0-0.02,0-0.03c0-0.02,0-0.03,0.01-0.05c0-0.02,0-0.04,0.01-0.05
		c0,0,0,0,0-0.01c0-0.02,0-0.03,0.01-0.05c0,0,0-0.01,0-0.01c0-0.01,0.01-0.03,0.01-0.04c0-0.02,0.01-0.05,0.01-0.07
		c0-0.01,0.01-0.03,0.01-0.04c0.01-0.03,0.02-0.07,0.03-0.1c0-0.01,0.01-0.02,0.01-0.03c0.03-0.08,0.06-0.16,0.1-0.23
		c0.01-0.01,0.01-0.03,0.02-0.04c0.02-0.03,0.03-0.05,0.05-0.07c0.01-0.02,0.02-0.03,0.03-0.04c0.02-0.02,0.04-0.04,0.06-0.06
		c0.01-0.01,0.02-0.02,0.03-0.03c0.03-0.02,0.06-0.05,0.09-0.06c0.01,0,0.02-0.01,0.03-0.02c0.01,0,0.02-0.01,0.03-0.01
		c0.04-0.02,0.09-0.02,0.13-0.02h5.54v0c0,0,0,0,0.01,0c0.05,0,0.09,0.01,0.13,0.02c0.01,0.01,0.02,0.01,0.03,0.01
		c0.01,0.01,0.02,0.01,0.03,0.02c0.03,0.02,0.06,0.04,0.09,0.06c0.01,0.01,0.02,0.02,0.03,0.03c0.02,0.02,0.04,0.04,0.06,0.06
		c0.01,0.01,0.02,0.02,0.03,0.04c0.02,0.02,0.03,0.04,0.05,0.07c0.01,0.01,0.01,0.02,0.02,0.04c0.04,0.07,0.07,0.14,0.1,0.23
		c0,0.01,0.01,0.02,0.01,0.03c0.01,0.03,0.02,0.06,0.03,0.1c0,0.01,0.01,0.02,0.01,0.04c0,0.02,0.01,0.05,0.01,0.07
		c0,0.01,0,0.03,0.01,0.04c0,0,0,0,0,0.01c0,0.02,0,0.03,0.01,0.05c0,0,0,0,0,0.01c0,0.02,0,0.04,0.01,0.05c0,0.01,0,0.03,0,0.05
		c0,0.01,0,0.02,0,0.03c0,0.01,0,0.03,0,0.04c0,0.02,0,0.04,0,0.06c0,0.01,0,0.02,0,0.03S42.1,83.13,42.1,83.14z"/>
	<path class="st12" d="M42.1,83.12c-0.01-0.45-0.31-0.81-0.68-0.81c0,0-0.01,0-0.01,0l0,0h-5.54c-0.37,0-0.67,0.36-0.67,0.81
		c0-0.66,0.3-1.19,0.67-1.19h5.54v0c0,0,0,0,0.01,0C41.79,81.93,42.1,82.46,42.1,83.12z"/>
	<path class="st18" d="M42.1,83.17c0,0.01,0,0.02,0,0.03c0,0.02,0,0.04,0,0.06c0,0.02,0,0.03,0,0.05c0,0.01,0,0.02,0,0.03
		c0,0.02,0,0.03,0,0.05c0,0.02-0.01,0.04-0.01,0.06c0,0,0,0,0,0c0,0.02,0,0.04-0.01,0.05c0,0,0,0,0,0.01c0,0.01-0.01,0.02-0.01,0.04
		c-0.02,0.1-0.05,0.19-0.08,0.27c0,0.01-0.01,0.03-0.01,0.04c-0.03,0.08-0.07,0.16-0.11,0.22c-0.01,0.01-0.02,0.02-0.03,0.04
		c-0.04,0.06-0.09,0.11-0.15,0.15c-0.01,0.01-0.02,0.02-0.03,0.02c-0.02,0.01-0.04,0.03-0.06,0.03c-0.02,0.01-0.04,0.02-0.07,0.03
		c-0.03,0.01-0.07,0.01-0.1,0.01c0,0-0.01,0-0.01,0l0,0h-5.54c-0.03,0-0.07,0-0.1-0.01c-0.02-0.01-0.05-0.01-0.07-0.03
		c-0.02-0.01-0.04-0.02-0.06-0.03c-0.01,0-0.02-0.01-0.03-0.02c-0.05-0.04-0.1-0.09-0.14-0.15c-0.01-0.01-0.02-0.02-0.02-0.04
		c-0.04-0.06-0.08-0.14-0.11-0.22c-0.01-0.01-0.01-0.02-0.02-0.04c-0.03-0.08-0.06-0.17-0.08-0.27c0-0.01-0.01-0.03-0.01-0.04
		c0,0,0-0.01,0-0.01c0-0.02-0.01-0.03-0.01-0.05v0c0-0.02-0.01-0.04-0.01-0.06c0-0.01,0-0.03-0.01-0.05c0-0.01,0-0.01,0-0.03
		c0-0.01,0-0.03,0-0.05c0-0.02,0-0.04,0-0.06c0-0.01,0-0.02,0-0.03c0.01,0.44,0.31,0.8,0.67,0.8h5.54l0,0c0,0,0,0,0.01,0
		C41.79,83.97,42.09,83.61,42.1,83.17z"/>
	<path class="st12" d="M41.51,82.8h-5.75c-0.14,0-0.25-0.11-0.25-0.25v-0.01c0-0.14,0.11-0.25,0.25-0.25h5.75
		c0.14,0,0.25,0.11,0.25,0.25v0.01C41.76,82.69,41.65,82.8,41.51,82.8z"/>
	<polygon class="st18" points="37.49,84.35 36.53,84.35 36.6,83.97 36.7,83.51 37.32,83.51 37.42,83.97 	"/>
	<rect x="36.7" y="83.51" class="st13" width="0.63" height="1.49"/>
	<polygon class="st18" points="40.7,84.35 39.74,84.35 39.81,83.97 39.91,83.51 40.54,83.51 40.63,83.97 	"/>
	<rect x="39.91" y="83.51" class="st13" width="0.63" height="1.49"/>
	<polygon class="st12" points="87.9,16.39 80.63,16.39 80.64,15.84 80.74,10.63 87.79,10.63 87.89,15.84 	"/>
	<polygon class="st12" points="88.14,29.57 80.39,29.57 80.49,23.82 88.04,23.82 	"/>
	<polygon class="st12" points="88.39,42.76 80.14,42.76 80.25,37 88.28,37 	"/>
	<polygon class="st12" points="88.63,55.94 79.9,55.94 80,50.18 88.53,50.18 	"/>
</g>
</svg>
