<?xml version="1.0" encoding="utf-8"?>
<!-- Generator: Adobe Illustrator 25.0.0, SVG Export Plug-In . SVG Version: 6.00 Build 0)  -->
<svg version="1.1" id="Layer_1" xmlns="http://www.w3.org/2000/svg" xmlns:xlink="http://www.w3.org/1999/xlink" x="0px" y="0px"
	 viewBox="0 0 100 100" style="enable-background:new 0 0 100 100;" xml:space="preserve">
<style type="text/css">
	.st0{fill-rule:evenodd;clip-rule:evenodd;fill:#40875E;}
	.st1{fill-rule:evenodd;clip-rule:evenodd;fill:#A8A240;}
	.st2{fill:none;}
	.st3{fill:#F0AB00;}
	.st4{fill:#A8A240;}
	.st5{fill:#40875E;}
	.st6{fill-rule:evenodd;clip-rule:evenodd;fill:#F0AB00;}
	.st7{fill-rule:evenodd;clip-rule:evenodd;fill:#0B4A99;}
	.st8{fill:none;stroke:#F0AB00;stroke-miterlimit:10;}
	.st9{fill:#A8A240;stroke:#F0AB00;stroke-width:2;stroke-miterlimit:10;}
	.st10{fill:#F0AB00;stroke:#A8A240;stroke-width:3;stroke-miterlimit:10;}
	.st11{fill:#3E865F;}
	.st12{fill:#EFAA03;}
	.st13{fill:#A6A13E;}
	.st14{fill:#0B4A99;}
	.st15{fill:#F5B026;}
	.st16{fill:#FFCD2E;}
	.st17{fill:#D4D2D2;}
	.st18{fill:#E3E4E3;}
	.st19{fill:#FBD97C;}
	.st20{fill:#57BEC5;}
	.st21{fill:#469BA3;}
	.st22{fill:#CB151A;}
	.st23{fill:url(#SVGID_1_);}
	.st24{fill:url(#SVGID_2_);}
	.st25{fill:url(#SVGID_3_);}
	.st26{fill:#CFCFCE;}
	.st27{fill:#D4D3D3;}
	.st28{fill:#E4E5E3;}
	.st29{fill:#A2BAD0;}
	.st30{fill:#4B708F;}
	.st31{fill:#8AA4BE;}
	.st32{fill:#CCCACA;}
	.st33{opacity:0.59;fill:#3E865F;}
	.st34{opacity:0.6;}
	.st35{fill:#3F5B7A;}
	.st36{opacity:0.2;}
	.st37{fill:#516D8C;}
	.st38{fill-rule:evenodd;clip-rule:evenodd;fill:#CC8E05;}
	.st39{fill:url(#SVGID_4_);}
	.st40{fill:none;stroke:#40875E;stroke-width:2;stroke-miterlimit:10;}
	.st41{fill:url(#SVGID_5_);}
	.st42{fill:url(#SVGID_6_);}
	.st43{fill:url(#SVGID_7_);}
	.st44{opacity:0.44;fill:#40875E;}
</style>
<polygon class="st1" points="88.62,53.98 99.59,57.88 57.68,82.8 0.02,65.36 9.45,60.64 9.39,61.75 2.83,64.89 57.68,81.33 
	97.02,58.35 88.97,55.56 "/>
<path class="st0" d="M8.98,64.5c0,0-0.85-19.09,15.19-21.11c0,0,35.69-4.06,50.8-3.75c0,0,12.54,2.27,15.35,21.35l-32.8,16.6
	L8.98,64.5z M42.81,59.18l-23.26-5.26v12.56l23.26,6.54V59.18z"/>
<path class="st6" d="M18.24,24.39c0,0,1.05-2.54,5.43-2.39l17.05,2.87c0,0,2.05-0.69,4.47-2.24l13.73-8.38l2.71,1.64l-6.49,11.13
	l17.9,3.35c0,0-4.2,2.43-12.03,3.75l-38.68-6.55C22.34,27.57,18.96,26.96,18.24,24.39z"/>
<polygon class="st6" points="74.98,22.79 67.41,28.13 73.12,29.36 76.76,23.89 "/>
<path class="st1" d="M19.63,75.79l2.99,1.77v4.1h4.32v-4.21l2.77-1.77L35.03,79l-7.75-11.4V35.81l-1.99-3.43
	c0,0-0.77-1.77-1.99,0.11l-1.89,3.32v31.79l-7.86,11.74L19.63,75.79z"/>
</svg>
