<?xml version="1.0" encoding="utf-8"?>
<!-- Generator: Adobe Illustrator 25.0.0, SVG Export Plug-In . SVG Version: 6.00 Build 0)  -->
<svg version="1.1" id="Layer_1" xmlns="http://www.w3.org/2000/svg" xmlns:xlink="http://www.w3.org/1999/xlink" x="0px" y="0px"
	 viewBox="0 0 100 100" style="enable-background:new 0 0 100 100;" xml:space="preserve">
<style type="text/css">
	.st0{fill-rule:evenodd;clip-rule:evenodd;fill:#40875E;}
	.st1{fill-rule:evenodd;clip-rule:evenodd;fill:#A8A240;}
	.st2{fill:none;}
	.st3{fill:#F0AB00;}
	.st4{fill:#A8A240;}
	.st5{fill:#40875E;}
	.st6{fill-rule:evenodd;clip-rule:evenodd;fill:#F0AB00;}
	.st7{fill-rule:evenodd;clip-rule:evenodd;fill:#0B4A99;}
	.st8{fill:none;stroke:#F0AB00;stroke-miterlimit:10;}
	.st9{fill:#A8A240;stroke:#F0AB00;stroke-width:2;stroke-miterlimit:10;}
	.st10{fill:#F0AB00;stroke:#A8A240;stroke-width:3;stroke-miterlimit:10;}
	.st11{fill:#3E865F;}
	.st12{fill:#EFAA03;}
	.st13{fill:#A6A13E;}
	.st14{fill:#0B4A99;}
	.st15{fill:#F5B026;}
	.st16{fill:#FFCD2E;}
	.st17{fill:#D4D2D2;}
	.st18{fill:#E3E4E3;}
	.st19{fill:#FBD97C;}
	.st20{fill:#57BEC5;}
	.st21{fill:#469BA3;}
	.st22{fill:#CB151A;}
	.st23{fill:url(#SVGID_1_);}
	.st24{fill:url(#SVGID_2_);}
	.st25{fill:url(#SVGID_3_);}
	.st26{fill:#CFCFCE;}
	.st27{fill:#D4D3D3;}
	.st28{fill:#E4E5E3;}
	.st29{fill:#A2BAD0;}
	.st30{fill:#4B708F;}
	.st31{fill:#8AA4BE;}
	.st32{fill:#CCCACA;}
	.st33{opacity:0.59;fill:#3E865F;}
	.st34{opacity:0.6;}
	.st35{fill:#3F5B7A;}
	.st36{opacity:0.2;}
	.st37{fill:#516D8C;}
	.st38{fill-rule:evenodd;clip-rule:evenodd;fill:#CC8E05;}
	.st39{fill:url(#SVGID_4_);}
	.st40{fill:none;stroke:#40875E;stroke-width:2;stroke-miterlimit:10;}
	.st41{fill:url(#SVGID_5_);}
	.st42{fill:url(#SVGID_6_);}
	.st43{fill:url(#SVGID_7_);}
	.st44{opacity:0.44;fill:#40875E;}
</style>
<polygon class="st2" points="74.94,28.75 73.16,32.36 76.9,31.87 "/>
<polygon class="st2" points="77.23,24.09 75.34,27.94 78.71,27.63 "/>
<polygon class="st2" points="79.63,19.21 77.55,23.43 81.04,22.35 "/>
<polygon class="st2" points="80.69,17.05 79.97,18.51 82.03,17.61 "/>
<polygon class="st2" points="72.84,33.03 71,36.76 74.71,36.61 "/>
<polygon class="st2" points="68.32,42.22 66.51,45.9 70.62,45.55 "/>
<polygon class="st2" points="70.75,46.31 66.4,46.68 69.11,50.07 "/>
<polygon class="st2" points="70.54,37.7 68.84,41.17 72.72,41.02 "/>
<polygon class="st2" points="75.24,35.96 76.67,32.68 73.72,33.06 "/>
<polygon class="st2" points="71.26,45.13 72.71,41.79 69.05,41.92 "/>
<polygon class="st2" points="81.51,21.52 83.03,18.01 80.44,19.14 "/>
<polygon class="st2" points="67.2,54.5 68.68,51.07 64.36,51.22 "/>
<polygon class="st2" points="79.21,26.83 80.76,23.24 78.05,24.08 "/>
<polygon class="st2" points="77.33,31.13 78.52,28.41 75.8,28.67 "/>
<polygon class="st2" points="73.28,40.48 74.62,37.38 71.33,37.51 "/>
<polygon class="st2" points="36.61,47.71 31.07,44.16 27.88,54.31 36.61,48.45 "/>
<polygon class="st2" points="36.61,49.37 27.56,55.44 36.61,60.78 "/>
<polygon class="st2" points="36.61,33.42 34.46,33.42 31.84,41.71 36.61,38.58 "/>
<polygon class="st2" points="36.61,39.49 31.48,42.87 31.31,43.4 36.61,46.8 "/>
<polygon class="st2" points="36.61,61.67 27.29,56.18 24.43,65.24 36.61,65.24 "/>
<polygon class="st2" points="65.86,47.23 64.27,50.46 68.33,50.32 "/>
<polygon class="st2" points="47.4,55.34 38.15,61.85 38.15,65.24 50.52,65.24 "/>
<polygon class="st2" points="46.76,53.31 43.97,44.44 38.58,48.06 "/>
<polygon class="st2" points="66.86,55.28 63.7,51.62 61.67,55.75 66.65,55.75 "/>
<polygon class="st2" points="40.5,33.42 38.15,33.42 38.15,38.68 43.16,41.86 "/>
<polygon class="st2" points="43.51,42.99 38.15,39.59 38.15,47.42 43.73,43.68 "/>
<polygon class="st2" points="47.12,54.45 38.15,48.69 38.15,60.92 47.16,54.57 "/>
<path class="st3" d="M84.39,7.2c1.05-1.85,0.95-4.52-1.18-6.73c0,0,1.45,2.71-0.03,4.54c-1.48,1.84-1.31,5.66,0.1,6.91
	C83.28,11.92,83.34,9.05,84.39,7.2z"/>
<path class="st3" d="M82.58,16.39c1.84-0.4,3.86-3.65,3.47-5.98c-0.39-2.32,2.2-3.98,2.2-3.98c-2.94,0.89-4.33,3.17-4.32,5.3
	C83.93,13.85,82.58,16.39,82.58,16.39z"/>
<path class="st4" d="M73.71,89.33c-10.68-0.06-11.84,4.8-23.71,5.09c-11.87-0.29-13.03-5.16-23.71-5.09
	c-10.92,0.06-8.69,7.28-19.93,4.09c0,0,0.3,3.84,6.65,4.34c4.85,0.38,8.95-3.55,13.93-3.32c3.26,0.15,6.59,1.53,11.14,2.83
	c1.63,0.46,6.76,2.12,12.37,2.03c5.28-0.09,11.05-1.89,12.7-2.39c3.94-1.18,6.96-2.33,9.92-2.47c4.98-0.22,9.07,3.71,13.93,3.32
	c6.35-0.5,6.65-4.34,6.65-4.34C82.39,96.61,84.63,89.39,73.71,89.33z"/>
<path class="st5" d="M20.55,89.01c1.79-0.51,3.68-0.79,5.62-0.79c1.8,0,3.56,0.24,5.24,0.67v-11h35.78v11.18
	c1.86-0.55,3.82-0.85,5.84-0.85c1.86,0,3.67,0.25,5.4,0.72V77.89h2.94V65.24h-9.2v-9.49H70l14.34-38.24l-1.05-0.1l-0.14,0.31l0-0.47
	l-2.49-1.05l-0.49,0.18L60.81,55.75h-2.16v9.49h-6.53L42.11,33.42h1.98v-3.45h-2.11v-2.75H41.4v-0.38h-8.24v0.38h-0.38v2.75h-2.68
	v3.07v0.38h2.75L22.83,65.24H18.5v12.65h2.04V89.01z M67.2,54.5l-2.84-3.28l4.33-0.15L67.2,54.5z M71.26,45.13l-2.21-3.21l3.67-0.14
	L71.26,45.13z M73.28,40.48l-1.95-2.96l3.29-0.13L73.28,40.48z M75.24,35.96l-1.52-2.9l2.94-0.38L75.24,35.96z M77.33,31.13
	l-1.54-2.47l2.72-0.25L77.33,31.13z M79.21,26.83l-1.15-2.75l2.71-0.84L79.21,26.83z M81.51,21.52l-1.06-2.38l2.59-1.13L81.51,21.52
	z M80.69,17.05l1.34,0.57l-2.06,0.9L80.69,17.05z M79.63,19.21l1.41,3.14l-3.48,1.08L79.63,19.21z M77.23,24.09l1.48,3.53
	l-3.37,0.31L77.23,24.09z M74.94,28.75l1.95,3.13l-3.73,0.49L74.94,28.75z M72.84,33.03l1.87,3.58L71,36.76L72.84,33.03z
	 M70.54,37.7l2.19,3.31l-3.89,0.15L70.54,37.7z M68.32,42.22l2.3,3.34l-4.11,0.35L68.32,42.22z M70.75,46.31l-1.63,3.76l-2.71-3.4
	L70.75,46.31z M65.86,47.23l2.47,3.09l-4.06,0.14L65.86,47.23z M63.7,51.62l3.16,3.66l-0.2,0.47h-4.99L63.7,51.62z M46.76,53.31
	l-8.18-5.25l5.39-3.61L46.76,53.31z M38.15,33.42h2.35l2.66,8.44l-5.01-3.18V33.42z M38.15,39.59l5.37,3.4l0.22,0.69l-5.58,3.74
	V39.59z M38.15,48.69l8.97,5.75l0.04,0.13l-9.01,6.34V48.69z M38.15,61.85l9.25-6.51l3.12,9.9H38.15V61.85z M34.46,33.42h2.16v5.16
	l-4.77,3.14L34.46,33.42z M31.48,42.87l5.14-3.38v7.3l-5.3-3.4L31.48,42.87z M31.07,44.16l5.54,3.55v0.74l-8.74,5.85L31.07,44.16z
	 M36.61,49.37v11.41l-9.05-5.34L36.61,49.37z M27.29,56.18l9.32,5.49v3.57H24.43L27.29,56.18z"/>
</svg>
