<?xml version="1.0" encoding="utf-8"?>
<!-- Generator: Adobe Illustrator 22.0.1, SVG Export Plug-In . SVG Version: 6.00 Build 0)  -->
<svg version="1.1" id="Layer_1" xmlns="http://www.w3.org/2000/svg" xmlns:xlink="http://www.w3.org/1999/xlink" x="0px" y="0px"
	 viewBox="0 0 20 20" style="enable-background:new 0 0 20 20;" xml:space="preserve">
<style type="text/css">
	.st0{fill:#F5AC3A;}
	.st1{fill:#ABA34A;}
	.st2{fill:#FFFFFF;}
	.st3{fill:#0B4A99;}
	.st4{fill:#58AE86;}
	.st5{fill:#F5AC3A;stroke:#ABA34A;stroke-width:0.5;}
</style>
<g>
	<path class="st2" d="M8.2,9.6V9.2c1-0.2,1.8-0.5,2.5-0.9L11,8.5c-0.1,0.5-0.1,1-0.1,1.4c0,0.6,0,1.6,0,2.9c0,0.5,0,0.9,0.1,1
		c0,0.1,0.1,0.2,0.2,0.2c0.1,0,0.3,0.1,0.8,0.2v0.4c-0.6,0-1.1-0.1-1.6-0.1c-0.5,0-1.2,0-2.1,0.1v-0.4l0.2,0C8.7,14.1,8.9,14,9,14
		c0.1-0.1,0.1-0.2,0.1-0.3c0-0.4,0.1-1.2,0.1-2.5c0-0.7,0-1.2-0.1-1.3C9.1,9.7,8.9,9.6,8.8,9.6C8.6,9.6,8.4,9.6,8.2,9.6z M10.1,5.3
		c0.3,0,0.5,0.1,0.7,0.3c0.2,0.2,0.3,0.4,0.3,0.7c0,0.3-0.1,0.5-0.3,0.7c-0.2,0.2-0.4,0.3-0.7,0.3c-0.3,0-0.5-0.1-0.7-0.3
		C9.1,6.9,9,6.7,9,6.4c0-0.3,0.1-0.5,0.3-0.7C9.5,5.4,9.8,5.3,10.1,5.3z"/>
</g>
<g>
	<path class="st2" d="M10,19.9c-5.5,0-9.9-4.5-9.9-9.9S4.5,0.1,10,0.1s9.9,4.5,9.9,9.9S15.5,19.9,10,19.9z M10,1.1
		c-4.9,0-8.9,4-8.9,8.9s4,8.9,8.9,8.9s8.9-4,8.9-8.9S14.9,1.1,10,1.1z"/>
</g>
</svg>
