<?xml version="1.0" encoding="utf-8"?>
<!-- Generator: Adobe Illustrator 22.0.1, SVG Export Plug-In . SVG Version: 6.00 Build 0)  -->
<svg version="1.1" id="Layer_1" xmlns="http://www.w3.org/2000/svg" xmlns:xlink="http://www.w3.org/1999/xlink" x="0px" y="0px"
	 viewBox="0 0 30 30" style="enable-background:new 0 0 30 30;" xml:space="preserve">
<style type="text/css">
	.st0{fill:#007DC6;}
</style>
<g>
	<path class="st0" d="M18.3,20.9c-0.2,0-0.4,0-0.5,0c0-0.7-0.1-1.3-0.1-1.7V16c0-0.8,0-1.8,0.1-3l0-0.6l-1.1-0.7l-0.4,0.1
		c-1.2,0.4-2.5,0.7-3.7,0.8l-0.4,0l-0.6,0.6v1.3l0.6,0.6l0.4,0c0.2,0,0.4,0,0.5,0c0,0.3,0,0.8,0,1.6v1.4c0,0.9,0,1.7-0.1,2.5
		c-0.1,0-0.3,0-0.5,0l-0.4,0l-0.6,0.6V23l0.7,0.7l0.4,0c0.6,0,1.5-0.1,2.7-0.1s2.1,0,2.7,0.1l0.4,0l0.7-0.7v-1.4l-0.7-0.6L18.3,20.9
		z"/>
	<path class="st0" d="M15.5,11.3c0.7,0,1.3-0.3,1.7-0.7c0.5-0.5,0.7-1.1,0.7-1.8c0-0.7-0.3-1.3-0.7-1.8c-1-0.9-2.5-0.9-3.5,0
		C13.3,7.5,13,8.1,13,8.8c0,0.7,0.2,1.3,0.7,1.8C14.2,11.1,14.8,11.3,15.5,11.3z"/>
	<path class="st0" d="M15,0C6.7,0,0,6.7,0,15s6.7,15,15,15s15-6.7,15-15S23.3,0,15,0z M15,25.8C9.1,25.8,4.2,20.9,4.2,15
		S9.1,4.2,15,4.2S25.8,9.1,25.8,15S20.9,25.8,15,25.8z"/>
</g>
</svg>
