<?xml version="1.0" encoding="utf-8"?>
<!-- Generator: Adobe Illustrator 22.0.1, SVG Export Plug-In . SVG Version: 6.00 Build 0)  -->
<svg version="1.1" id="Layer_1" xmlns="http://www.w3.org/2000/svg" xmlns:xlink="http://www.w3.org/1999/xlink" x="0px" y="0px"
	 viewBox="0 0 20 20" style="enable-background:new 0 0 20 20;" xml:space="preserve">
<style type="text/css">
	.st0{fill:#F5AC3A;}
	.st1{fill:#ABA34A;}
	.st2{fill:#FFFFFF;}
	.st3{fill:#0B4A99;}
	.st4{fill:#40875E;}
	.st5{fill:#F5AC3A;stroke:#ABA34A;stroke-width:0.5;}
</style>
<g>
	<path class="st0" d="M10.1,7.6c0.4,0,0.7-0.1,1-0.4c0.3-0.3,0.4-0.6,0.4-1s-0.1-0.7-0.4-1c-0.6-0.6-1.5-0.5-2,0
		c-0.3,0.3-0.4,0.6-0.4,1c0,0.4,0.1,0.7,0.4,1C9.3,7.5,9.7,7.6,10.1,7.6z"/>
	<path class="st1" d="M11.3,13.8L11.3,13.8c0-0.1,0-0.3,0-1c0-1.3,0-2.2,0-2.8c0-0.4,0.1-0.9,0.1-1.4l0-0.3L10.7,8l-0.2,0.1
		C9.8,8.5,9,8.8,8.1,8.9L7.8,9v1.2l0.4-0.1c0.2,0,0.4,0,0.5-0.1c0,0,0,0.2,0,1.2c0,1.3,0,2.1-0.1,2.5c0,0,0,0.1,0,0.1
		c-0.1,0-0.2,0.1-0.5,0.1l-0.5,0.1v1.1l0.4,0c0.9,0,1.6-0.1,2-0.1c0.5,0,1,0,1.6,0.1l0.4,0v-1.1L11.9,14
		C11.5,13.9,11.3,13.8,11.3,13.8z"/>
</g>
<g>
	<path class="st4" d="M10,20C4.5,20,0,15.5,0,10C0,4.5,4.5,0,10,0s10,4.5,10,10C20,15.5,15.5,20,10,20z M10,1.5
		c-4.7,0-8.5,3.8-8.5,8.5c0,4.7,3.8,8.5,8.5,8.5s8.5-3.8,8.5-8.5C18.5,5.3,14.7,1.5,10,1.5z"/>
</g>
</svg>
