<?xml version="1.0" encoding="utf-8"?>
<!-- Generator: Adobe Illustrator 25.0.0, SVG Export Plug-In . SVG Version: 6.00 Build 0)  -->
<svg version="1.1" id="Layer_1" xmlns="http://www.w3.org/2000/svg" xmlns:xlink="http://www.w3.org/1999/xlink" x="0px" y="0px"
	 viewBox="0 0 16 16" style="enable-background:new 0 0 16 16;" xml:space="preserve">
<style type="text/css">
	.st0{fill:#FFFFFF;}
</style>
<g>
	<path class="st0" d="M12.2,2.9c-0.5,0-0.9,0.4-0.9,0.9s0.4,0.9,0.9,0.9c0.5,0,0.9-0.4,0.9-0.9C13.2,3.3,12.8,2.9,12.2,2.9z"/>
	<path class="st0" d="M8.1,4.1C5.9,4.1,4.1,5.8,4.1,8s1.8,3.9,3.9,3.9S12,10.2,12,8S10.2,4.1,8.1,4.1z M8.1,10.5
		c-1.4,0-2.5-1.1-2.5-2.5s1.1-2.5,2.5-2.5s2.5,1.1,2.5,2.5S9.5,10.5,8.1,10.5z"/>
	<path class="st0" d="M11.2,16H4.8C2.2,16,0,13.8,0,11.2V4.8C0,2.2,2.2,0,4.8,0h6.4C13.8,0,16,2.2,16,4.8v6.4
		C16,13.8,13.8,16,11.2,16z M4.8,1.5C3,1.5,1.5,3,1.5,4.8v6.4c0,1.8,1.5,3.3,3.3,3.3h6.4c1.8,0,3.3-1.5,3.3-3.3V4.8
		c0-1.8-1.5-3.3-3.3-3.3H4.8z"/>
</g>
</svg>
