<?xml version="1.0" encoding="iso-8859-1"?>
<!-- Generator: Adobe Illustrator 12.0.0, SVG Export Plug-In . SVG Version: 6.00 Build 51448)  -->
<!DOCTYPE svg PUBLIC "-//W3C//DTD SVG 1.1//EN" "http://www.w3.org/Graphics/SVG/1.1/DTD/svg11.dtd" [
	<!ENTITY ns_svg "http://www.w3.org/2000/svg">
	<!ENTITY ns_xlink "http://www.w3.org/1999/xlink">
]>
<svg  version="1.1" id="Layer_1" xmlns="&ns_svg;" xmlns:xlink="&ns_xlink;" width="60.095" height="60.095"
	 viewBox="0 0 60.095 60.095" style="overflow:visible;enable-background:new 0 0 60.095 60.095;" xml:space="preserve">
<g>
	<path style="fill:#008FD3;" d="M60.095,52.176c0,4.37-3.771,7.919-8.43,7.919H8.437C3.778,60.095,0,56.546,0,52.176V7.923
		C0,3.55,3.778,0,8.437,0h43.229c4.658,0,8.43,3.55,8.43,7.923V52.176z M57.167,10.079c0-3.947-3.404-7.151-7.608-7.151H10.542
		c-4.204,0-7.614,3.204-7.614,7.151V50.02c0,3.944,3.41,7.147,7.614,7.147h39.017c4.204,0,7.608-3.203,7.608-7.147V10.079z"/>
	<g>
		<path style="fill:#008FD3;" d="M20.161,42.286h-6.234c0,0-9.228-1.995-8.563-10.558c0,0,0.25-6.734,6.235-9.228v-2.078
			c0,0,0.499-6.068,7.15-7.066c0,0,3.408-0.582,5.569,2.245c0,0,3.741-7.565,11.805-7.481c0,0,12.885,0.582,11.721,14.132
			c0,0,7.398,2.244,6.9,10.557c0,0,0.083,4.24-3.824,7.565v-2.992c0,0,0.142-5.228-6.154-6.892c0,0-5.65-1.006-7.645,3.151h-0.458
			c0,0-4.198-4.822-10.807-2.017C25.854,31.624,19.267,34.492,20.161,42.286z"/>
		<g>
			<rect x="28.869" y="45.216" style="fill:#008FD3;" width="2.785" height="2.993"/>
			<rect x="27.933" y="33.245" style="fill:#008FD3;" width="2.785" height="2.993"/>
			<g>
				
					<rect x="31.487" y="34.181" transform="matrix(0.868 0.4966 -0.4966 0.868 22.0576 -11.6174)" style="fill:#008FD3;" width="2.785" height="2.991"/>
				
					<rect x="33.918" y="36.862" transform="matrix(0.258 0.9661 -0.9661 0.258 63.26 -5.654)" style="fill:#008FD3;" width="2.786" height="2.993"/>
				
					<rect x="34.168" y="40.477" transform="matrix(-0.3342 0.9425 -0.9425 -0.3342 87.0043 22.4831)" style="fill:#008FD3;" width="2.785" height="2.993"/>
				
					<rect x="32.359" y="43.594" transform="matrix(-0.7458 0.6662 -0.6662 -0.7458 88.9626 56.2335)" style="fill:#008FD3;" width="2.785" height="2.993"/>
			</g>
			
				<rect x="24.491" y="34.741" transform="matrix(-0.7391 0.6735 -0.6735 -0.7391 69.4222 45.5894)" style="fill:#008FD3;" width="2.784" height="2.994"/>
			
				<rect x="22.558" y="37.734" transform="matrix(-0.2579 0.9662 -0.9662 -0.2579 68.0308 26.2096)" style="fill:#008FD3;" width="2.785" height="2.993"/>
			
				<rect x="22.745" y="41.413" transform="matrix(0.3342 0.9425 -0.9425 0.3342 56.5142 5.821)" style="fill:#008FD3;" width="2.785" height="2.993"/>
			
				<rect x="25.239" y="44.405" transform="matrix(0.8696 0.4938 -0.4938 0.8696 26.1391 -7.1637)" style="fill:#008FD3;" width="2.785" height="2.993"/>
			<path style="fill:#008FD3;" d="M35.414,40.561c0,3.1-2.512,5.611-5.61,5.611s-5.611-2.512-5.611-5.611
				c0-3.099,2.513-5.611,5.611-5.611S35.414,37.462,35.414,40.561z M29.804,38.628c-1.067,0-1.933,0.866-1.933,1.933
				c0,1.067,0.865,1.934,1.933,1.934c1.067,0,1.932-0.866,1.932-1.934C31.735,39.494,30.871,38.628,29.804,38.628z"/>
		</g>
		<g>
			<rect x="39.66" y="50.419" style="fill:#008FD3;" width="1.449" height="1.558"/>
			<rect x="39.174" y="44.191" style="fill:#008FD3;" width="1.449" height="1.558"/>
			<g>
				
					<rect x="41.022" y="44.678" transform="matrix(0.868 0.4966 -0.4966 0.868 28.0884 -14.7311)" style="fill:#008FD3;" width="1.449" height="1.557"/>
				
					<rect x="42.288" y="46.072" transform="matrix(0.258 0.9661 -0.9661 0.258 77.1781 -6.7944)" style="fill:#008FD3;" width="1.449" height="1.557"/>
				
					<rect x="42.417" y="47.954" transform="matrix(-0.3342 0.9425 -0.9425 -0.3342 103.49 24.3553)" style="fill:#008FD3;" width="1.45" height="1.558"/>
				
					<rect x="41.477" y="49.575" transform="matrix(-0.7454 0.6666 -0.6666 -0.7454 107.2255 59.7598)" style="fill:#008FD3;" width="1.449" height="1.559"/>
			</g>
			
				<rect x="37.383" y="44.969" transform="matrix(-0.7391 0.6736 -0.6736 -0.7391 97.088 53.8878)" style="fill:#008FD3;" width="1.448" height="1.558"/>
			
				<rect x="36.377" y="46.526" transform="matrix(-0.2588 0.9659 -0.9659 -0.2588 92.3968 23.7122)" style="fill:#008FD3;" width="1.449" height="1.558"/>
			
				<rect x="36.474" y="48.44" transform="matrix(0.3344 0.9424 -0.9424 0.3344 71.1463 -2.2962)" style="fill:#008FD3;" width="1.449" height="1.557"/>
			
				<rect x="37.772" y="49.998" transform="matrix(0.8694 0.494 -0.494 0.8694 30.1112 -12.3894)" style="fill:#008FD3;" width="1.449" height="1.557"/>
			<path style="fill:#008FD3;" d="M43.066,47.997c0,1.612-1.308,2.92-2.919,2.92c-1.612,0-2.92-1.308-2.92-2.92
				c0-1.611,1.308-2.919,2.92-2.919C41.759,45.078,43.066,46.386,43.066,47.997z M40.147,46.992c-0.556,0-1.007,0.45-1.007,1.005
				c0,0.556,0.451,1.006,1.007,1.006c0.554,0,1.005-0.45,1.005-1.006C41.152,47.442,40.701,46.992,40.147,46.992z"/>
		</g>
		<g>
			<rect x="42.984" y="41.256" style="fill:#008FD3;" width="1.952" height="2.098"/>
			<rect x="42.328" y="32.865" style="fill:#008FD3;" width="1.952" height="2.099"/>
			<g>
				
					<rect x="44.82" y="33.521" transform="matrix(0.8679 0.4967 -0.4967 0.8679 23.2214 -18.1817)" style="fill:#008FD3;" width="1.952" height="2.097"/>
				
					<rect x="46.524" y="35.4" transform="matrix(0.2576 0.9663 -0.9663 0.2576 70.4839 -18.837)" style="fill:#008FD3;" width="1.953" height="2.097"/>
				
					<rect x="46.699" y="37.934" transform="matrix(-0.3342 0.9425 -0.9425 -0.3342 100.3497 7.0765)" style="fill:#008FD3;" width="1.952" height="2.098"/>
				
					<rect x="45.433" y="40.119" transform="matrix(-0.7458 0.6662 -0.6662 -0.7458 108.4446 40.9541)" style="fill:#008FD3;" width="1.951" height="2.098"/>
			</g>
			
				<rect x="39.915" y="33.914" transform="matrix(-0.7389 0.6738 -0.6738 -0.7389 94.664 33.2419)" style="fill:#008FD3;" width="1.952" height="2.098"/>
			
				<rect x="38.56" y="36.011" transform="matrix(-0.258 0.9661 -0.9661 -0.258 85.5434 8.4263)" style="fill:#008FD3;" width="1.953" height="2.098"/>
			
				<rect x="38.691" y="38.59" transform="matrix(0.3342 0.9425 -0.9425 0.3342 63.7712 -10.9948)" style="fill:#008FD3;" width="1.952" height="2.098"/>
			
				<rect x="40.439" y="40.687" transform="matrix(0.8693 0.4942 -0.4942 0.8693 26.037 -15.0146)" style="fill:#008FD3;" width="1.952" height="2.099"/>
			<path style="fill:#008FD3;" d="M47.574,37.993c0,2.172-1.762,3.934-3.936,3.934c-2.172,0-3.933-1.762-3.933-3.934
				s1.761-3.934,3.933-3.934C45.813,34.06,47.574,35.821,47.574,37.993z M43.639,36.639c-0.748,0-1.354,0.606-1.354,1.354
				s0.606,1.355,1.354,1.355c0.749,0,1.356-0.607,1.356-1.355S44.388,36.639,43.639,36.639z"/>
		</g>
	</g>
</g>
</svg>
