<?xml version="1.0" encoding="iso-8859-1"?>
<!-- Generator: Adobe Illustrator 12.0.0, SVG Export Plug-In . SVG Version: 6.00 Build 51448)  -->
<!DOCTYPE svg PUBLIC "-//W3C//DTD SVG 1.1//EN" "http://www.w3.org/Graphics/SVG/1.1/DTD/svg11.dtd" [
	<!ENTITY ns_svg "http://www.w3.org/2000/svg">
	<!ENTITY ns_xlink "http://www.w3.org/1999/xlink">
]>
<svg  version="1.1" id="Layer_1" xmlns="&ns_svg;" xmlns:xlink="&ns_xlink;" width="22.11" height="22.11"
	 viewBox="0 0 22.11 22.11" style="overflow:visible;enable-background:new 0 0 22.11 22.11;" xml:space="preserve">
<g>
	<g>
		
			<radialGradient id="XMLID_4_" cx="10.0674" cy="17.5581" r="45.4881" fx="8.0804" fy="16.6125" gradientTransform="matrix(0.221 0 0 0.221 8.6122 8.6122)" gradientUnits="userSpaceOnUse">
			<stop  offset="0" style="stop-color:#89EAFE"/>
			<stop  offset="0.2624" style="stop-color:#86E8FD"/>
			<stop  offset="0.4357" style="stop-color:#7DDFF9"/>
			<stop  offset="0.5832" style="stop-color:#6ED2F2"/>
			<stop  offset="0.7163" style="stop-color:#59BEE9"/>
			<stop  offset="0.8397" style="stop-color:#3EA5DD"/>
			<stop  offset="0.9544" style="stop-color:#1C87CF"/>
			<stop  offset="1" style="stop-color:#0D79C8"/>
		</radialGradient>
		<path style="fill:url(#XMLID_4_);" d="M7.927,10.15c0.25-2.238,2.017-4.035,4.217-4.035c2.469,0,4.169,1.729,4.322,4.035H7.927z
			 M16.015,14.876c-0.624,1.287-1.921,2.123-3.881,2.171c-2.718,0.067-4.149-2.248-4.217-4.236h8.068h0.472h5.466
			C21.971,12.408,22,12.004,22,11.582c0-5.418-4.391-9.808-9.809-9.808c-5.417,0-9.808,4.39-9.808,9.808s4.39,9.808,9.808,9.808
			c4.266,0,7.887-2.719,9.241-6.513H16.015z"/>
		<g>
			<path style="fill:#2064A9;" d="M7.879,10.145l-0.006,0.053h8.645l-0.003-0.051c-0.16-2.402-1.958-4.08-4.371-4.08
				C9.972,6.067,8.139,7.82,7.879,10.145z M12.144,6.164c2.343,0,4.09,1.618,4.27,3.938c-0.105,0-8.32,0-8.431,0
				C8.259,7.854,10.038,6.164,12.144,6.164z"/>
			<path style="fill:#2064A9;" d="M2.336,11.582c0,5.435,4.421,9.855,9.855,9.855c4.157,0,7.89-2.63,9.286-6.544l0.023-0.064h-5.517
				l-0.013,0.027c-0.658,1.356-1.985,2.098-3.839,2.144c-2.592,0.064-4.072-2.076-4.164-4.141c0.102,0,13.996,0,13.996,0
				l0.005-0.042c0.053-0.437,0.078-0.84,0.078-1.235c0-5.435-4.422-9.856-9.856-9.856C6.758,1.726,2.336,6.147,2.336,11.582z
				 M2.433,11.582c0-5.381,4.378-9.76,9.759-9.76c5.382,0,9.76,4.378,9.76,9.76c0,0.378-0.024,0.766-0.072,1.182
				c-0.086,0-14.012,0-14.012,0l0.002,0.05c0.072,2.125,1.591,4.349,4.267,4.282c1.851-0.046,3.235-0.816,3.906-2.171
				c0.054,0,5.182,0,5.32,0c-1.402,3.84-5.077,6.417-9.171,6.417C6.811,21.341,2.433,16.963,2.433,11.582z"/>
		</g>
		<g id="halo_1_">
			
				<linearGradient id="XMLID_5_" gradientUnits="userSpaceOnUse" x1="21.1128" y1="16.9302" x2="20.7941" y2="15.449" gradientTransform="matrix(1 0 0 -1 0 21.9375)">
				<stop  offset="0" style="stop-color:#FFB700"/>
				<stop  offset="0.8599" style="stop-color:#FFB700"/>
			</linearGradient>
			<path style="fill:url(#XMLID_5_);fill-opacity:0.95;" d="M20.895,4.954c-0.076,0.297-0.153,0.557-0.201,0.778
				c-0.039,0.173-0.059,0.682-0.059,0.682S21,6.183,21.087,6.067c0.077-0.105,0.183-0.557,0.278-1.008L20.895,4.954z"/>
			<path style="fill:#FFB700;fill-opacity:0.95;" d="M21.385,5.078c0.067-0.298,0.125-0.605,0.153-0.816
				c0.125-0.778,0.385-4.928-5.158-3.746C8.945,2.091,4.834,7.922,4.181,8.729c-1.239,1.537-4.928,7.473-3.958,11.124
				c0.567,2.133,2.833,2.123,4.486,1.787l-0.115-0.586c-2.805,0.451-3.228-1.682-2.843-3.343c0.471-2.075,1.998-5.485,6.936-10.288
				c4.38-4.265,9.029-6.647,11.45-5.466c1.287,0.625,1.038,1.979,0.759,3.017L21.385,5.078z"/>
			<g>
				<path style="fill:#FFFFA6;" d="M16.38,0.516C8.945,2.091,4.834,7.922,4.181,8.729c-0.778,0.96-2.507,3.65-3.458,6.417
					c-0.058,0.222-0.125,0.442-0.202,0.635l0,0C3.576,7.951,11.165,2.408,16.678,0.458C16.583,0.477,16.477,0.496,16.38,0.516z"/>
			</g>
			
				<linearGradient id="XMLID_6_" gradientUnits="userSpaceOnUse" x1="4.6499" y1="0.5273" x2="6.7155" y2="1.3562" gradientTransform="matrix(1 0 0 -1 0 21.9375)">
				<stop  offset="0" style="stop-color:#FFB700"/>
				<stop  offset="1" style="stop-color:#FFB700"/>
			</linearGradient>
			<path style="fill:url(#XMLID_6_);fill-opacity:0.95;" d="M4.709,21.629c0.903-0.192,1.643-0.48,1.806-0.567
				c0.154-0.086,0.682-0.374,1.162-0.662l-0.422-0.24c-0.231,0.086-0.5,0.192-0.797,0.317c-0.701,0.288-1.335,0.471-1.864,0.547
				L4.709,21.629z"/>
		</g>
	</g>
	<rect style="fill:none;" width="22.11" height="22.11"/>
</g>
</svg>
