<?xml version="1.0" encoding="utf-8"?>
<!-- Generator: Adobe Illustrator 25.0.0, SVG Export Plug-In . SVG Version: 6.00 Build 0)  -->
<svg version="1.1" id="Layer_1" xmlns="http://www.w3.org/2000/svg" xmlns:xlink="http://www.w3.org/1999/xlink" x="0px" y="0px"
	 viewBox="0 0 100 100" style="enable-background:new 0 0 100 100;" xml:space="preserve">
<style type="text/css">
	.st0{fill:#0B4A99;}
	.st1{fill:#CB1618;}
	.st2{fill:none;}
	.st3{fill:#40875E;}
	.st4{fill:#A8A240;}
	.st5{fill:#F0AB00;}
	.st6{fill:none;stroke:#000000;stroke-width:3;stroke-miterlimit:10;}
</style>
<g>
	<path class="st3" d="M49.94,56.17l1.9-1.9v10.14c0,1.21-1,2.21-2.21,2.21H16.06c-1.23,0-2.22-1-2.22-2.21V20.06
		c0-1.23,0.99-2.22,2.22-2.22h7.1l-0.25,1.16c-0.03,0.1-0.04,0.18-0.04,0.26v5.07c0,0.7,0.57,1.27,1.27,1.27h17.42
		c0.69,0,1.27-0.57,1.27-1.27v-5.07c0-0.08-0.01-0.17-0.03-0.26l-0.26-1.16h7.1c1.22,0,2.21,1,2.21,2.22v15.06l-1.9,1.9V20.06
		c0-0.18-0.14-0.32-0.32-0.32h-4.91v4.59c0,1.74-1.42,3.17-3.17,3.17H24.13c-1.75,0-3.17-1.42-3.17-3.17v-4.59h-4.91
		c-0.18,0-0.32,0.14-0.32,0.32v44.36c0,0.17,0.14,0.31,0.32,0.31h33.57c0.17,0,0.32-0.14,0.32-0.31V56.17z"/>
	<path class="st4" d="M25.18,24.4H40.5c0.62,0,1.11-0.49,1.11-1.11v-4.46c0-0.62-0.5-1.12-1.11-1.12h-4.18
		c0-1.85-1.57-3.35-3.5-3.35c-1.94,0-3.51,1.5-3.51,3.35h-4.14c-0.62,0-1.12,0.5-1.12,1.12v4.46C24.06,23.9,24.56,24.4,25.18,24.4
		L25.18,24.4z"/>
	<path class="st2" d="M49.98,41.18L37.69,53.49c-0.24,0.23-0.24,0.61,0,0.84c0.23,0.24,0.61,0.24,0.84,0l12.3-12.3
		c0.24-0.23,0.24-0.61,0-0.85C50.59,40.95,50.21,40.95,49.98,41.18z"/>
	<polygon class="st2" points="34.72,59.8 36.46,61.53 39.88,60.44 35.82,56.37 	"/>
	<path class="st5" d="M35.31,54.33c-0.08,0.07-0.27,0.28-0.35,0.56c-0.01,0.04-0.03,0.07-0.04,0.1l-2.62,8.24
		c-0.08,0.23-0.03,0.46,0.11,0.61c0.16,0.16,0.39,0.2,0.62,0.13l8.23-2.63c0.03-0.01,0.07-0.03,0.1-0.04
		c0.28-0.07,0.48-0.27,0.55-0.34l15.77-15.78l-6.62-6.62L35.31,54.33z M36.46,61.53l-1.73-1.74l1.09-3.43l4.07,4.07L36.46,61.53z
		 M50.83,42.03l-12.3,12.3c-0.23,0.24-0.61,0.24-0.84,0c-0.24-0.23-0.24-0.61,0-0.84l12.29-12.31c0.23-0.23,0.61-0.23,0.84,0
		C51.07,41.42,51.07,41.8,50.83,42.03z"/>
	<path class="st4" d="M61.38,39.18l-4.31-4.31c-0.63-0.63-1.76-0.55-2.51,0.21l-2.38,2.37l6.62,6.62l2.38-2.38
		C61.93,40.94,62.02,39.82,61.38,39.18z"/>
	<path class="st5" d="M42.55,44.66c0,0.62-0.44,1.13-0.99,1.13h-20.8c-0.54,0-0.99-0.5-0.99-1.13l0,0c0-0.62,0.44-1.13,0.99-1.13
		h20.8C42.11,43.53,42.55,44.04,42.55,44.66L42.55,44.66z"/>
	<path class="st2" d="M80.45,81.44h-5.12c-0.66,0-1.19,0.54-1.19,1.19v0.03c0,0.66,0.54,1.19,1.19,1.19h5.12
		c0.66,0,1.19-0.54,1.19-1.19v-0.03C81.64,81.97,81.1,81.44,80.45,81.44z"/>
	<line class="st6" x1="71.62" y1="25.25" x2="53.71" y2="25.25"/>
	<path class="st6" d="M12.09,25.25H7.2c-1.08,0-1.96,0.88-1.96,1.96v45.88c0,1.08,0.88,1.96,1.96,1.96h74.69
		c1.08,0,1.96-0.88,1.96-1.96v-7.94"/>
	<path class="st3" d="M86.7,78.52H53.81c-0.35,0-0.64,0.29-0.64,0.64v0.03c0,1.32-1.07,0.99-2.39,0.99H38.32
		c-1.32,0-2.39,0.33-2.39-0.99v-0.03c0-0.35-0.29-0.64-0.64-0.64H2.39C1.07,78.52,0,79.59,0,80.91v2.33c0,1.32,1.07,2.39,2.39,2.39
		H86.7c1.32,0,2.39-1.07,2.39-2.39v-2.33C89.1,79.59,88.02,78.52,86.7,78.52z M81.64,82.66c0,0.65-0.53,1.19-1.19,1.19h-5.12
		c-0.65,0-1.19-0.53-1.19-1.19v-0.03c0-0.65,0.53-1.19,1.19-1.19h5.12c0.65,0,1.19,0.53,1.19,1.19V82.66z"/>
	<path class="st5" d="M29.71,31.83c0-0.39,0-2.02,0-2.02l3.05-1.22l1.84,1.04l-3.07,2.49l-0.38,1.11c0,0-1.32-0.19-1.32-0.44
		C29.84,32.54,29.71,31.83,29.71,31.83z"/>
	<path class="st5" d="M26.48,37.52c0-0.39,0-2.02,0-2.02l3.05-1.22l1.84,1.04l-3.07,2.49l-0.38,1.11c0,0-1.32-0.19-1.32-0.44
		S26.48,37.52,26.48,37.52z"/>
	<path class="st5" d="M33.03,37.77c0-0.39,0-2.02,0-2.02l3.05-1.22l1.84,1.04l-3.07,2.49l-0.38,1.11c0,0-1.32-0.19-1.32-0.44
		C33.15,38.48,33.03,37.77,33.03,37.77z"/>
	<polygon class="st3" points="28.78,34.01 25.45,35.92 26.93,36.67 26.93,36.65 29.75,34.96 30.55,35.43 27.66,37.04 28.84,37.63 
		28.84,37.63 27.66,37.04 27.62,37.06 27.58,38.14 26.93,37.83 26.93,36.67 25.45,35.92 25.45,40.15 28.84,42.14 32.12,40.28 
		32.12,35.91 	"/>
	<polygon class="st3" points="35.46,34.14 32.12,35.92 33.61,36.67 33.61,36.65 36.54,35.02 37.3,35.39 34.33,37.04 35.51,37.63 
		35.51,37.63 34.33,37.04 34.3,37.06 34.25,38.14 33.61,37.83 33.61,36.67 32.12,35.92 32.12,40.15 35.51,42.14 38.79,40.28 
		38.82,35.79 	"/>
	<polygon class="st3" points="32.03,28.24 28.78,29.79 30.27,30.53 30.27,30.51 33.1,28.92 33.87,29.29 31,30.9 32.18,31.49 
		32.18,31.5 30.99,30.9 30.96,30.92 30.91,32 30.27,31.69 30.27,30.54 28.78,29.79 28.78,34.01 32.18,36 35.46,34.14 35.46,29.89 	
		"/>
	<g>
		<g>
			<path class="st4" d="M30.19,57.56c0,0.82-0.67,1.48-1.49,1.48h-6.61c-0.83,0-1.49-0.67-1.49-1.48v-6.61
				c0-0.83,0.66-1.49,1.49-1.49h6.61c0.82,0,1.49,0.67,1.49,1.49V57.56z M31.02,50.38c0-0.97-0.78-1.75-1.75-1.75h-7.75
				c-0.96,0-1.75,0.77-1.75,1.75v7.75c0,0.96,0.79,1.75,1.75,1.75h7.75c0.97,0,1.75-0.79,1.75-1.75V50.38z"/>
		</g>
	</g>
	<g>
		<g>
			<path class="st3" d="M31.48,47.76c-0.25,0-0.57,0.03-0.95,0.09c-0.39,0.06-0.66,0.14-0.83,0.22c-0.16,0.09-0.41,0.31-0.75,0.67
				c-0.33,0.35-0.76,0.9-1.27,1.63c-0.51,0.73-0.95,1.44-1.33,2.11c-0.34,0.6-0.68,1.26-1.02,1.96c-0.24-0.3-0.49-0.55-0.75-0.73
				c-0.33-0.23-0.65-0.34-0.94-0.34c-0.3,0-0.63,0.13-0.97,0.39c-0.36,0.27-0.54,0.57-0.54,0.91c0,0.25,0.16,0.54,0.48,0.9
				c0.47,0.51,0.84,0.99,1.12,1.41c0.2,0.32,0.35,0.52,0.43,0.61c0.1,0.11,0.22,0.19,0.36,0.24c0.14,0.05,0.37,0.07,0.71,0.07
				c0.46,0,0.77-0.05,0.96-0.15c0.19-0.1,0.33-0.25,0.43-0.43c0.09-0.16,0.24-0.49,0.45-1.01c0.51-1.28,1.21-2.62,2.08-3.99
				c0.86-1.36,1.71-2.43,2.51-3.17c0.2-0.18,0.32-0.31,0.38-0.4c0.07-0.11,0.1-0.23,0.1-0.37c0-0.17-0.06-0.33-0.18-0.45
				C31.83,47.82,31.67,47.76,31.48,47.76z"/>
		</g>
	</g>
	<path class="st3" d="M63.55,65.83l1.49-1.49c0.18-0.18,0.45-0.21,0.66-0.08c0.7,0.39,1.43,0.69,2.18,0.9
		c0.24,0.07,0.41,0.28,0.41,0.53l0,2.1c0,0.3,0.25,0.55,0.55,0.55l3.64,0c0.3,0,0.55-0.25,0.55-0.55l0-2.1
		c0-0.25,0.17-0.46,0.41-0.53c0.75-0.21,1.48-0.51,2.18-0.9c0.22-0.12,0.49-0.09,0.66,0.09l1.49,1.49c0.21,0.21,0.56,0.21,0.78,0
		l2.57-2.57c0.21-0.21,0.21-0.56,0-0.78l-1.49-1.49c-0.18-0.18-0.21-0.45-0.09-0.66c0.39-0.69,0.69-1.43,0.9-2.18
		c0.07-0.24,0.28-0.41,0.53-0.41l2.1,0c0.3,0,0.55-0.25,0.55-0.55l0-3.64c0-0.3-0.25-0.55-0.55-0.55h-2.11
		c-0.25,0-0.46-0.17-0.53-0.41c-0.21-0.75-0.51-1.48-0.9-2.17c-0.12-0.22-0.09-0.49,0.08-0.66l1.49-1.49c0.21-0.21,0.21-0.56,0-0.77
		l-2.58-2.58c-0.21-0.21-0.56-0.21-0.78,0l-1.49,1.49c-0.18,0.18-0.45,0.21-0.66,0.08c-0.69-0.39-1.42-0.69-2.17-0.9
		c-0.24-0.07-0.41-0.28-0.41-0.53l0-2.1c0-0.3-0.25-0.55-0.55-0.55h-3.64c-0.3,0-0.55,0.25-0.55,0.55l0,2.1
		c0,0.25-0.17,0.46-0.41,0.53c-0.75,0.21-1.48,0.51-2.18,0.9c-0.22,0.12-0.49,0.09-0.66-0.09l-1.49-1.49
		c-0.21-0.21-0.56-0.21-0.78,0l-2.57,2.57c-0.21,0.21-0.21,0.56,0,0.78l1.49,1.49c0.18,0.18,0.21,0.45,0.08,0.66
		c-0.39,0.7-0.69,1.43-0.9,2.18c-0.07,0.24-0.28,0.41-0.53,0.41l-2.1,0c-0.3,0-0.55,0.25-0.55,0.55l0,3.64
		c0,0.3,0.25,0.55,0.55,0.55l2.1,0c0.25,0,0.46,0.17,0.53,0.41c0.21,0.75,0.51,1.48,0.9,2.17c0.12,0.22,0.09,0.49-0.08,0.66
		l-1.49,1.49c-0.21,0.21-0.21,0.56,0,0.78l2.58,2.58C62.99,66.05,63.34,66.05,63.55,65.83 M66.91,51.62c2.07-2.07,5.43-2.07,7.5,0
		c2.07,2.07,2.07,5.43,0,7.5c-2.07,2.07-5.43,2.07-7.5,0C64.83,57.05,64.83,53.7,66.91,51.62"/>
	<path class="st5" d="M88.09,56.46l0.88-0.88c0.1-0.1,0.26-0.12,0.39-0.05c0.41,0.23,0.85,0.41,1.29,0.53
		c0.14,0.04,0.24,0.17,0.24,0.31l0,1.25c0,0.18,0.15,0.33,0.33,0.33l2.16,0c0.18,0,0.32-0.15,0.33-0.33l0-1.25
		c0-0.15,0.1-0.27,0.24-0.31c0.45-0.13,0.88-0.3,1.29-0.53c0.13-0.07,0.29-0.05,0.39,0.05l0.88,0.88c0.13,0.13,0.33,0.13,0.46,0
		l1.53-1.53c0.13-0.13,0.13-0.33,0-0.46l-0.88-0.88c-0.1-0.1-0.12-0.26-0.05-0.39c0.23-0.41,0.41-0.85,0.53-1.29
		c0.04-0.14,0.17-0.24,0.31-0.24l1.25,0c0.18,0,0.33-0.15,0.33-0.33l0-2.16c0-0.18-0.15-0.33-0.32-0.33l-1.25,0
		c-0.15,0-0.27-0.1-0.31-0.24c-0.13-0.45-0.3-0.88-0.53-1.29c-0.07-0.13-0.05-0.29,0.05-0.39l0.88-0.88c0.13-0.13,0.13-0.33,0-0.46
		l-1.53-1.53c-0.13-0.13-0.33-0.13-0.46,0l-0.88,0.88c-0.1,0.1-0.26,0.12-0.39,0.05c-0.41-0.23-0.84-0.41-1.29-0.53
		c-0.14-0.04-0.24-0.17-0.24-0.31l0-1.25c0-0.18-0.15-0.32-0.32-0.32l-2.16,0c-0.18,0-0.33,0.15-0.33,0.33l0,1.25
		c0,0.15-0.1,0.27-0.24,0.31c-0.45,0.13-0.88,0.3-1.29,0.53c-0.13,0.07-0.29,0.05-0.39-0.05l-0.88-0.88c-0.13-0.13-0.33-0.13-0.46,0
		l-1.53,1.53c-0.13,0.13-0.13,0.33,0,0.46l0.88,0.88c0.1,0.1,0.12,0.26,0.05,0.39c-0.23,0.41-0.41,0.85-0.53,1.29
		c-0.04,0.14-0.17,0.24-0.31,0.24l-1.25,0c-0.18,0-0.33,0.15-0.33,0.33l0,2.16c0,0.18,0.15,0.33,0.32,0.32l1.25,0
		c0.15,0,0.27,0.1,0.31,0.24c0.13,0.45,0.3,0.88,0.53,1.29c0.07,0.13,0.05,0.29-0.05,0.39l-0.88,0.88c-0.13,0.13-0.13,0.33,0,0.46
		l1.53,1.53C87.76,56.58,87.96,56.58,88.09,56.46 M90.08,48.03c1.23-1.23,3.22-1.23,4.45,0c1.23,1.23,1.23,3.22,0,4.45
		c-1.23,1.23-3.22,1.23-4.45,0C88.85,51.25,88.85,49.26,90.08,48.03"/>
	<path class="st4" d="M77.04,42.88l1.13-1.13c0.13-0.13,0.34-0.16,0.5-0.06c0.53,0.29,1.08,0.52,1.66,0.68
		c0.18,0.05,0.31,0.21,0.31,0.4l0,1.6c0,0.23,0.19,0.42,0.42,0.42l2.77,0c0.23,0,0.42-0.19,0.42-0.42l0-1.6
		c0-0.19,0.13-0.35,0.31-0.4c0.57-0.16,1.13-0.39,1.65-0.69c0.16-0.09,0.37-0.07,0.5,0.07l1.13,1.13c0.16,0.16,0.43,0.16,0.59,0
		l1.96-1.96c0.16-0.16,0.16-0.43,0-0.59l-1.13-1.13c-0.13-0.13-0.16-0.34-0.06-0.5c0.3-0.53,0.52-1.08,0.68-1.65
		c0.05-0.18,0.21-0.31,0.4-0.31l1.6,0c0.23,0,0.42-0.19,0.42-0.42l0-2.77c0-0.23-0.19-0.42-0.42-0.42l-1.6,0
		c-0.19,0-0.35-0.13-0.4-0.31c-0.16-0.57-0.39-1.12-0.68-1.65c-0.09-0.16-0.07-0.37,0.06-0.5l1.13-1.13c0.16-0.16,0.16-0.43,0-0.59
		l-1.96-1.96c-0.16-0.16-0.43-0.16-0.59,0l-1.13,1.13c-0.13,0.13-0.34,0.16-0.5,0.06c-0.53-0.29-1.08-0.52-1.65-0.68
		c-0.18-0.05-0.31-0.21-0.31-0.4l0-1.6c0-0.23-0.19-0.42-0.42-0.42l-2.77,0c-0.23,0-0.42,0.19-0.42,0.42l0,1.6
		c0,0.19-0.13,0.35-0.31,0.4c-0.57,0.16-1.13,0.39-1.65,0.68c-0.17,0.09-0.37,0.07-0.5-0.06l-1.13-1.13c-0.16-0.16-0.43-0.16-0.59,0
		l-1.96,1.96c-0.16,0.16-0.16,0.43,0,0.59l1.13,1.13c0.13,0.13,0.16,0.34,0.06,0.5c-0.3,0.53-0.52,1.08-0.68,1.65
		c-0.05,0.18-0.21,0.31-0.4,0.31l-1.6,0c-0.23,0-0.42,0.19-0.42,0.42l0,2.77c0,0.23,0.19,0.42,0.42,0.42l1.6,0
		c0.19,0,0.35,0.13,0.4,0.31c0.16,0.57,0.39,1.12,0.68,1.65c0.09,0.16,0.07,0.37-0.06,0.5l-1.13,1.13c-0.16,0.16-0.16,0.43,0,0.59
		l1.96,1.96C76.61,43.04,76.87,43.04,77.04,42.88 M79.58,32.08c1.57-1.57,4.13-1.58,5.7,0c1.57,1.57,1.57,4.13,0,5.7
		c-1.57,1.57-4.13,1.57-5.7,0C78.01,36.21,78.01,33.65,79.58,32.08"/>
</g>
</svg>
