<?xml version="1.0" encoding="utf-8"?>
<!-- Generator: Adobe Illustrator 22.0.1, SVG Export Plug-In . SVG Version: 6.00 Build 0)  -->
<svg version="1.1" id="Layer_1" xmlns="http://www.w3.org/2000/svg" xmlns:xlink="http://www.w3.org/1999/xlink" x="0px" y="0px"
	 viewBox="0 0 100 100" style="enable-background:new 0 0 100 100;" xml:space="preserve">
<style type="text/css">
	.st0{fill:none;stroke:#000000;stroke-miterlimit:10;}
	.st1{fill:#F0AB00;}
	.st2{fill:#918831;}
	.st3{fill:#40875E;}
	.st4{fill:none;}
	.st5{fill:#A8A240;}
	.st6{fill-rule:evenodd;clip-rule:evenodd;fill:#40875E;}
	.st7{fill:#609A7F;}
	.st8{fill:#008FD3;}
	.st9{fill:#DB9821;}
	.st10{fill:#231F20;}
	.st11{fill:none;stroke:#000000;stroke-width:3;stroke-miterlimit:10;}
	.st12{fill:#EFAA1E;}
	.st13{fill:#FFFFFF;}
	.st14{fill-rule:evenodd;clip-rule:evenodd;fill:#A8A240;}
	.st15{fill-rule:evenodd;clip-rule:evenodd;fill:#F0AB00;}
	.st16{fill:#A69F3D;}
	.st17{fill:none;stroke:#000000;}
	.st18{fill:none;stroke:#FFFFFF;stroke-width:2;stroke-miterlimit:10;}
	.st19{fill:none;stroke:#F0AB00;stroke-width:4;stroke-miterlimit:10;}
	.st20{fill:none;stroke:#918831;stroke-width:4;stroke-miterlimit:10;}
	.st21{fill:#348761;}
	.st22{fill:none;stroke:#40875E;stroke-width:13;stroke-miterlimit:10;}
	.st23{fill:none;stroke:#40875E;stroke-width:6;stroke-miterlimit:10;}
	.st24{fill:none;stroke:#918831;stroke-width:19;stroke-miterlimit:10;}
	.st25{fill:none;stroke:#000000;stroke-width:4;stroke-miterlimit:10;}
	.st26{fill:none;stroke:#F0AB00;stroke-width:11;stroke-miterlimit:10;}
	.st27{fill:#0DB7AD;}
	.st28{fill:#0771BB;}
	.st29{fill:#ED580C;}
	.st30{fill:#0F5869;}
	.st31{fill:#08373E;}
	.st32{fill:#00BCBF;}
	.st33{fill:#FAB300;}
	.st34{fill:#0AB7BB;}
	.st35{fill:#FB6863;}
	.st36{fill:#037CAB;}
	.st37{fill:#56CFF6;}
	.st38{fill:#E13200;}
	.st39{fill:#FAAF00;}
	.st40{fill:#F19104;}
	.st41{fill:#E33B05;}
	.st42{fill:#05395F;}
	.st43{fill:#0DB1AB;}
	.st44{fill:#08373E;stroke:#000000;stroke-width:3;stroke-miterlimit:10;}
</style>
<g>
	<path class="st5" d="M47,84.9c-2.5,0-4.6-0.7-5.2-1.7c-0.1,0.2-0.2,0.4-0.2,0.5v1.6c0,1.3,2.4,2.3,5.4,2.3c3,0,5.4-1,5.4-2.3v-1.6
		c0-0.2-0.1-0.4-0.2-0.5C51.6,84.1,49.5,84.9,47,84.9L47,84.9z M47,84.9"/>
	<path class="st1" d="M47,88.3c-2.5,0-4.6-0.7-5.2-1.7c-0.1,0.2-0.2,0.4-0.2,0.5v1.6C41.6,90,44,91,47,91c3,0,5.4-1,5.4-2.3v-1.6
		c0-0.2-0.1-0.4-0.2-0.5C51.6,87.5,49.5,88.3,47,88.3L47,88.3z M47,88.3"/>
	<path class="st3" d="M52.2,79.9c-0.1,0.9-2.4,1.7-5.2,1.7c-2.8,0-5.1-0.7-5.2-1.7c-0.1,0.2-0.1,0.3-0.1,0.5V82
		c0,1.3,2.4,2.3,5.4,2.3c3,0,5.4-1,5.4-2.3v-1.6C52.3,80.2,52.3,80,52.2,79.9L52.2,79.9z M52.2,79.9"/>
	<path class="st3" d="M47,81c2.9,0,5.2-0.8,5.2-1.7c0-1-2.3-1.7-5.2-1.7c-2.9,0-5.2,0.8-5.2,1.7C41.7,80.2,44.1,81,47,81L47,81z
		 M47,81"/>
	<g>
		<path d="M54.2,94c0,0.1-0.1,0.2-0.2,0.2H39.9c-0.1,0-0.2-0.1-0.2-0.2l0,0c0-0.1,0.1-0.2,0.2-0.2H54C54.1,93.8,54.2,93.9,54.2,94
			L54.2,94z"/>
		<path d="M47,91.4c0.1,0,0.2,0.1,0.2,0.2v2.2c0,0.1-0.1,0.2-0.2,0.2l0,0c-0.1,0-0.2-0.1-0.2-0.2v-2.2C46.7,91.5,46.8,91.4,47,91.4
			L47,91.4z"/>
		<path d="M48.5,94.6c0,0.2-0.1,0.3-0.3,0.3h-2.5c-0.2,0-0.3-0.1-0.3-0.3v-1.2c0-0.2,0.1-0.3,0.3-0.3h2.5c0.2,0,0.3,0.1,0.3,0.3
			V94.6z"/>
	</g>
	<path class="st10" d="M60.6,97.5H35.9c-4.1,0-7.4-3.3-7.4-7.4c0-3.1,2-5.9,5-7l0-0.3c0-6.4,5.2-11.5,11.6-11.5
		c3.7,0,7.2,1.8,9.3,4.8c0.6-0.2,1.2-0.2,1.7-0.2c3.7,0,6.7,3,6.7,6.7c0,0.1,0,0.3,0,0.4c3.2,0.9,5.4,3.8,5.4,7.1
		C68.1,94.2,64.7,97.5,60.6,97.5z M33.9,82.8l0,0.6l-0.2,0.1c-2.9,0.9-4.8,3.6-4.8,6.6c0,3.8,3.1,7,7,7h24.8c3.8,0,7-3.1,7-7
		c0-3.2-2.2-6-5.2-6.7l-0.2,0l0-0.2c0-0.2,0-0.4,0-0.5c0-3.4-2.8-6.2-6.2-6.2c-0.5,0-1.1,0.1-1.7,0.3l-0.2,0L54,76.5
		c-2.1-3-5.5-4.7-9.1-4.7C38.8,71.8,33.9,76.7,33.9,82.8z"/>
	<g>
		<path class="st10" d="M25,56.1H7.4c-1.4,0-2.6-1.2-2.6-2.6v-6.6h0.5v6.6c0,1.2,1,2.1,2.1,2.1H25c1.2,0,2.1-1,2.1-2.1v-2.2h0.5v2.2
			C27.6,54.9,26.5,56.1,25,56.1z"/>
		<path class="st10" d="M5.3,37.8H4.8V25c0-1.4,1.2-2.6,2.6-2.6H25c1.4,0,2.6,1.2,2.6,2.6v6.1h-0.5V25c0-1.2-1-2.1-2.1-2.1H7.4
			c-1.2,0-2.1,1-2.1,2.1V37.8z"/>
	</g>
	<g>
		<path class="st1" d="M9.1,41.3c0,0.3-0.2,0.5-0.5,0.5H3.9c-0.3,0-0.5-0.2-0.5-0.5l0,0c0-0.3,0.2-0.5,0.5-0.5h4.6
			C8.8,40.8,9.1,41.1,9.1,41.3L9.1,41.3z"/>
		<path class="st1" d="M13.2,43.6c0,0.3-0.2,0.5-0.5,0.5H3.9c-0.3,0-0.5-0.2-0.5-0.5l0,0c0-0.3,0.2-0.5,0.5-0.5h8.7
			C12.9,43,13.2,43.3,13.2,43.6L13.2,43.6z"/>
		<path class="st5" d="M30,36.9c0,0.7-0.6,1.3-1.3,1.3h-1.4c-0.7,0-1.3-0.6-1.3-1.3v-1.4c0-0.7,0.6-1.3,1.3-1.3h1.4
			c0.7,0,1.3,0.6,1.3,1.3V36.9z M28.9,35.4h-1.6V37h1.6V35.4z"/>
		<path class="st5" d="M30,42c0,0.7-0.6,1.3-1.3,1.3h-1.4c-0.7,0-1.3-0.6-1.3-1.3v-1.4c0-0.7,0.6-1.3,1.3-1.3h1.4
			c0.7,0,1.3,0.6,1.3,1.3V42z M28.9,40.5h-1.6v1.7h1.6V40.5z"/>
		<path class="st5" d="M30,47.2c0,0.7-0.6,1.3-1.3,1.3h-1.4c-0.7,0-1.3-0.6-1.3-1.3v-1.4c0-0.7,0.6-1.3,1.3-1.3h1.4
			c0.7,0,1.3,0.6,1.3,1.3V47.2z M28.9,45.7h-1.6v1.7h1.6V45.7z"/>
		<path class="st1" d="M23.7,27.1c0,0.3-0.3,0.6-0.6,0.6H8.9c-0.3,0-0.6-0.3-0.6-0.6l0,0c0-0.3,0.3-0.6,0.6-0.6h14.2
			C23.4,26.5,23.7,26.8,23.7,27.1L23.7,27.1z"/>
		<path class="st1" d="M23.7,31.1c0,0.3-0.3,0.6-0.6,0.6H8.9c-0.3,0-0.6-0.3-0.6-0.6l0,0c0-0.3,0.3-0.6,0.6-0.6h14.2
			C23.4,30.5,23.7,30.8,23.7,31.1L23.7,31.1z"/>
		<path class="st1" d="M18.3,35c0,0.3-0.3,0.6-0.6,0.6H8.9c-0.3,0-0.6-0.3-0.6-0.6l0,0c0-0.3,0.3-0.6,0.6-0.6h8.8
			C18.1,34.4,18.3,34.7,18.3,35L18.3,35z"/>
		<path class="st1" d="M18.3,50.7c0,0.3-0.3,0.6-0.6,0.6H8.9c-0.3,0-0.6-0.3-0.6-0.6l0,0c0-0.3,0.3-0.6,0.6-0.6h8.8
			C18.1,50.1,18.3,50.4,18.3,50.7L18.3,50.7z"/>
		<path class="st3" d="M19.2,47.3v2.9h13.5V32.5H19.2v5.1l-2.2,0v-5c0-1.2,1-2.2,2.2-2.2h13.4c1.2,0,2.2,1,2.2,2.2v17.5
			c0,1.2-1,2.2-2.2,2.2H19.2c-1.2,0-2.2-1-2.2-2.2v-2.7L19.2,47.3z"/>
		<path class="st5" d="M21.8,45.4c0,1.2-1,2.2-2.2,2.2H2.2c-1.2,0-2.2-1-2.2-2.2v-5.7c0-1.2,1-2.2,2.2-2.2h17.4c1.2,0,2.2,1,2.2,2.2
			V45.4z M19.8,39.6H2.3v5.8h17.5V39.6z"/>
	</g>
	<g>
		<rect x="69.6" y="46.2" class="st1" width="8.7" height="2.6"/>
		<rect x="69.6" y="39.4" class="st1" width="8.7" height="2.6"/>
		<path class="st10" d="M78.5,53.3H66v-31h22.3v15.2h-9.7v0.8H68.5v4.9h10.1v1.9H68.5V50h10.1V53.3z M66.5,52.9h11.6v-2.4H68v-5.8
			h10.1v-1H68v-5.8h10.1V37h9.7V22.8H66.5V52.9z"/>
		<path class="st3" d="M83,24.8c-1.2,0-2.2,1-2.2,2.2c0,1.2,1,2.2,2.2,2.2c1.2,0,2.2-1,2.2-2.2c0,0,0,0,0,0
			C85.2,25.8,84.2,24.8,83,24.8z M83,27.8c-0.5,0-0.8-0.4-0.8-0.8s0.4-0.8,0.8-0.8s0.8,0.4,0.8,0.8C83.8,27.5,83.4,27.8,83,27.8
			L83,27.8z M77.5,24.8c-1.2,0-2.2,1-2.2,2.2c0,1.2,1,2.2,2.2,2.2c1.2,0,2.2-1,2.2-2.2c0,0,0,0,0,0C79.8,25.8,78.8,24.8,77.5,24.8z
			 M77.5,27.8c-0.5,0-0.8-0.4-0.8-0.8s0.4-0.8,0.8-0.8s0.8,0.4,0.8,0.8C78.4,27.5,78,27.8,77.5,27.8L77.5,27.8z"/>
		<path class="st5" d="M68.3,36.5h18v-5.3h-18V36.5z M69.6,32.5h15.2v2.6H69.6L69.6,32.5z M81.7,34.1h2.1v-0.7h-2.1V34.1z"/>
		<path class="st1" d="M87.3,51.9c-0.2,0.9-0.4,1.8-0.7,2.7h6.1c-0.2-0.9-0.4-1.8-0.7-2.7H87.3z"/>
		<path class="st1" d="M89.6,54.5h3.1c-0.2-0.9-0.4-1.8-0.7-2.7h-2.4V54.5z"/>
		<path class="st1" d="M93.1,54.5h-6.9c-0.2,0-0.3,0.2-0.3,0.4V55h7.5v-0.1C93.4,54.7,93.3,54.5,93.1,54.5"/>
		<path class="st1" d="M79.4,50.8v1.5c0,0.3,0.2,0.5,0.5,0.5h19.6c0.3,0,0.5-0.2,0.5-0.5v-1.5H79.4z"/>
		<path class="st5" d="M99.5,38.3H79.9c-0.3,0-0.5,0.2-0.5,0.5v11.9H100V38.8C100,38.5,99.8,38.3,99.5,38.3z M99.1,49.8H80.2V39.1
			h18.9V49.8z"/>
		<g>
			<g>
				<path class="st3" d="M94.2,31.5h-1.6V30l-3.9,2.3l3.9,2.3v-1.4h1.6c1.8,0,3.3,1.8,3.3,3.9v0.3h1.6V37
					C99.1,34,96.9,31.5,94.2,31.5z"/>
				<path class="st3" d="M79.9,58h-1.6c-1.8,0-3.3-1.8-3.3-3.9v-0.3h-1.6v0.3c0,3.1,2.2,5.6,4.9,5.6h1.6v1.4l3.9-2.3l-3.9-2.3V58z"
					/>
			</g>
		</g>
	</g>
	<g>
		<g>
			<path class="st10" d="M28.3,84.1C19.6,79,12.8,71,9.3,61.6l0.4-0.2c3.5,9.4,10.2,17.3,18.9,22.3L28.3,84.1z"/>
			<path class="st10" d="M28.4,84.4l-0.2-0.1c-8.8-5.1-15.6-13.1-19.2-22.6L9,61.5l0.8-0.3l0.1,0.2c3.5,9.3,10.2,17.2,18.8,22.2
				l0.2,0.1L28.4,84.4z M9.5,61.7C13,71,19.7,78.8,28.3,83.8l0-0.1C19.7,78.8,13.1,70.9,9.5,61.7L9.5,61.7z"/>
		</g>
	</g>
	<g>
		<g>
			<path class="st10" d="M71,84.6l-0.2-0.4c9.7-5.3,16.9-14,20.3-24.4l0.4,0.1C88.1,70.5,80.8,79.2,71,84.6z"/>
			<path class="st10" d="M71,84.9l-0.4-0.7l0.2-0.1c9.6-5.3,16.8-13.9,20.2-24.3l0.1-0.2l0.8,0.3L91.8,60
				c-3.5,10.6-10.8,19.4-20.6,24.8L71,84.9z M71.1,84.3L71.1,84.3c9.6-5.2,16.8-13.8,20.3-24.2l-0.1,0C87.8,70.4,80.6,79,71.1,84.3z
				"/>
		</g>
	</g>
	<g>
		<g>
			<path class="st10" d="M84.4,20.1C76.2,9.3,63.7,3.2,50.1,3.2C36.7,3.2,24.2,9.3,16,19.9l-0.4-0.3c8.3-10.8,20.9-17,34.5-17
				c6.9,0,13.5,1.6,19.6,4.7c5.8,2.9,11,7.3,15,12.5L84.4,20.1z"/>
			<path class="st10" d="M84.4,20.4l-0.1-0.2C76,9.5,63.6,3.4,50.1,3.4c-13.4,0-25.8,6.1-34,16.7L16,20.2l-0.7-0.5l0.1-0.2
				c8.4-10.8,21-17,34.7-17c6.9,0,13.6,1.6,19.7,4.7c5.9,3,11.1,7.3,15.1,12.5l0.1,0.2L84.4,20.4z M50.1,3c13.5,0,26,6.1,34.3,16.9
				l0.1-0.1c-4-5.1-9.1-9.4-14.8-12.3C63.6,4.5,57,2.9,50.1,3c-13.5-0.1-26,6-34.3,16.6l0.1,0.1C24.2,9.1,36.7,3,50.1,3z"/>
		</g>
	</g>
</g>
</svg>
