<?xml version="1.0" encoding="utf-8"?>
<!-- Generator: Adobe Illustrator 22.0.1, SVG Export Plug-In . SVG Version: 6.00 Build 0)  -->
<svg version="1.1" id="Layer_1" xmlns="http://www.w3.org/2000/svg" xmlns:xlink="http://www.w3.org/1999/xlink" x="0px" y="0px"
	 viewBox="0 0 100 100" style="enable-background:new 0 0 100 100;" xml:space="preserve">
<style type="text/css">
	.st0{fill:none;stroke:#000000;stroke-miterlimit:10;}
	.st1{fill:#F0AB00;}
	.st2{fill:#918831;}
	.st3{fill:#40875E;}
	.st4{fill:none;}
	.st5{fill:#A8A240;}
	.st6{fill-rule:evenodd;clip-rule:evenodd;fill:#40875E;}
	.st7{fill:#609A7F;}
	.st8{fill:#008FD3;}
	.st9{fill:#DB9821;}
	.st10{fill:#231F20;}
	.st11{fill:none;stroke:#000000;stroke-width:3;stroke-miterlimit:10;}
	.st12{fill:#EFAA1E;}
	.st13{fill:#FFFFFF;}
	.st14{fill-rule:evenodd;clip-rule:evenodd;fill:#A8A240;}
	.st15{fill-rule:evenodd;clip-rule:evenodd;fill:#F0AB00;}
	.st16{fill:#A69F3D;}
	.st17{fill:none;stroke:#000000;}
	.st18{fill:none;stroke:#FFFFFF;stroke-width:2;stroke-miterlimit:10;}
	.st19{fill:none;stroke:#F0AB00;stroke-width:4;stroke-miterlimit:10;}
	.st20{fill:none;stroke:#918831;stroke-width:4;stroke-miterlimit:10;}
	.st21{fill:#348761;}
	.st22{fill:none;stroke:#40875E;stroke-width:13;stroke-miterlimit:10;}
	.st23{fill:none;stroke:#40875E;stroke-width:6;stroke-miterlimit:10;}
	.st24{fill:none;stroke:#918831;stroke-width:19;stroke-miterlimit:10;}
	.st25{fill:none;stroke:#000000;stroke-width:4;stroke-miterlimit:10;}
	.st26{fill:none;stroke:#F0AB00;stroke-width:11;stroke-miterlimit:10;}
	.st27{fill:#0DB7AD;}
	.st28{fill:#0771BB;}
	.st29{fill:#ED580C;}
	.st30{fill:#0F5869;}
	.st31{fill:#08373E;}
	.st32{fill:#00BCBF;}
	.st33{fill:#FAB300;}
	.st34{fill:#0AB7BB;}
	.st35{fill:#FB6863;}
	.st36{fill:#037CAB;}
	.st37{fill:#56CFF6;}
	.st38{fill:#E13200;}
	.st39{fill:#FAAF00;}
	.st40{fill:#F19104;}
	.st41{fill:#E33B05;}
	.st42{fill:#05395F;}
	.st43{fill:#0DB1AB;}
	.st44{fill:#08373E;stroke:#000000;stroke-width:3;stroke-miterlimit:10;}
</style>
<g>
	<path class="st10" d="M81,83.2H19c-10.5,0-19-8.5-19-19c0-7.9,5-15,12.4-17.7l0-0.4c0-16.2,13.1-29.3,29.3-29.3
		c9.3,0,18,4.5,23.6,12c1.5-0.4,2.8-0.6,4.1-0.6c9.4,0,17.1,7.7,17.1,17.1c0,0.2,0,0.5,0,0.7c8,2.4,13.5,9.8,13.5,18.1
		C100,74.7,91.5,83.2,81,83.2z M41.7,17.5c-15.8,0-28.6,12.8-28.6,28.6l0,0.9l-0.3,0.1C5.6,49.7,0.7,56.5,0.7,64.2
		c0,10.1,8.2,18.2,18.2,18.2H81c10.1,0,18.2-8.2,18.2-18.2c0-8.1-5.5-15.3-13.3-17.5l-0.3-0.1l0-0.3c0-0.3,0-0.6,0-0.9
		c0-9-7.4-16.4-16.4-16.4c-1.3,0-2.6,0.2-4.1,0.6L65,29.7l-0.1-0.2C59.5,22,50.8,17.5,41.7,17.5z"/>
	<rect x="44.8" y="45.5" class="st3" width="7" height="2.9"/>
	<rect x="44.8" y="52.1" class="st3" width="7" height="2.9"/>
	<polygon class="st5" points="59.2,55 52.2,55 52.2,52.1 59.2,52.1 59.2,55 	"/>
	<path class="st1" d="M65.2,42c0-0.2-0.1-0.4-0.2-0.6l-8.8-10c0,0,0,0,0,0c0-0.1-0.1-0.1-0.2-0.1c0,0,0,0-0.1,0
		c-0.1,0-0.1-0.1-0.2-0.1c0,0,0,0-0.1,0c-0.1,0-0.1,0-0.2,0H34c-1,0-1.8,0.8-1.8,1.8v41.9c0,1,0.8,1.8,1.8,1.8h29.5
		c1,0,1.8-0.8,1.8-1.8L65.2,42C65.2,42.1,65.2,42,65.2,42L65.2,42z M39.7,73.3l-0.8-1.6c-0.3-0.6-0.5-1-0.8-1.5h0
		c-0.2,0.5-0.4,0.9-0.7,1.5l-0.7,1.6h-2.2l2.5-4.3l-2.4-4.2h2.2l0.8,1.6c0.3,0.5,0.4,0.9,0.6,1.4h0c0.2-0.5,0.4-0.9,0.6-1.4l0.7-1.6
		h2.2l-2.4,4.2l2.5,4.4H39.7z M48.3,73.3H43v-8.6h1.9v6.9h3.4V73.3z M51.6,73.4c-1,0-1.9-0.3-2.4-0.5l0.4-1.6
		c0.5,0.3,1.3,0.5,2.2,0.5c0.9,0,1.4-0.4,1.4-0.9c0-0.5-0.4-0.8-1.4-1.2c-1.4-0.5-2.4-1.3-2.4-2.5c0-1.5,1.2-2.6,3.2-2.6
		c1,0,1.7,0.2,2.2,0.4l-0.4,1.6c-0.3-0.2-1-0.4-1.8-0.4c-0.8,0-1.2,0.4-1.2,0.8c0,0.6,0.5,0.8,1.6,1.2c1.5,0.6,2.2,1.3,2.2,2.6
		C55,72.2,53.9,73.4,51.6,73.4L51.6,73.4z M60.9,73.3l-0.8-1.6c-0.3-0.6-0.5-1-0.8-1.5h0c-0.2,0.5-0.4,0.9-0.7,1.5l-0.7,1.6h-2.2
		l2.5-4.3l-2.4-4.2H58l0.7,1.6c0.3,0.5,0.4,0.9,0.7,1.4h0c0.2-0.5,0.4-0.9,0.6-1.4l0.7-1.6H63l-2.4,4.2l2.5,4.4H60.9z M34,61.4V32.9
		h20.7V42c0,0.5,0.4,0.9,0.9,0.9h7.9v18.5H34z"/>
	<polygon class="st17" points="51.8,45 37,45 37,58.8 59.6,58.8 59.6,45 	"/>
	<rect x="44.8" y="48.8" class="st17" width="7" height="2.9"/>
	<rect x="37.4" y="45.5" class="st17" width="7" height="2.9"/>
	<rect x="37.4" y="48.8" class="st17" width="7" height="2.9"/>
	<rect x="37.4" y="52.1" class="st17" width="7" height="2.9"/>
	<rect x="37.4" y="55.5" class="st17" width="7" height="2.9"/>
	<rect x="44.8" y="55.5" class="st17" width="7" height="2.9"/>
	<polygon class="st17" points="59.2,58.4 52.2,58.4 52.2,55.5 59.2,55.5 59.2,58.4 	"/>
	<polygon class="st17" points="59.2,51.7 52.2,51.7 52.2,48.8 59.2,48.8 59.2,51.7 	"/>
	<rect x="52.2" y="45.5" class="st17" width="6.9" height="2.9"/>
</g>
</svg>
