<?xml version="1.0" encoding="utf-8"?>
<!-- Generator: Adobe Illustrator 22.0.1, SVG Export Plug-In . SVG Version: 6.00 Build 0)  -->
<svg version="1.1" id="Layer_1" xmlns="http://www.w3.org/2000/svg" xmlns:xlink="http://www.w3.org/1999/xlink" x="0px" y="0px"
	 viewBox="0 0 100 100" style="enable-background:new 0 0 100 100;" xml:space="preserve">
<style type="text/css">
	.st0{fill:#A8A240;}
	.st1{fill:none;stroke:#A8A240;stroke-width:2;stroke-miterlimit:10;}
	.st2{fill:none;}
	.st3{fill:#231F20;}
	.st4{fill:#40875E;}
	.st5{fill:#F0AB00;}
	.st6{stroke:#231F20;stroke-width:0.5;stroke-miterlimit:10;}
	.st7{fill:none;stroke:#000000;stroke-miterlimit:10;}
</style>
<g>
	<path class="st7" d="M26.4,59.6c-0.3,7.6,5.6,14.1,13.2,14.4c0.2,0,0.5,0,0.7,0v-4.2c-5.2,0.1-9.5-4-9.8-9.2
		c-0.2-5.3,3.8-9.9,9.2-10.1c0.2,0,0.4,0,0.6,0v-4.2C32.9,46.2,26.7,52.1,26.4,59.6z"/>
	<path class="st7" d="M17.9,57.6l2,1.1c0.5,0.3,0.8,0.9,0.8,1.4c0,0,0,0.3,0,0.9c0,0.2,0,0.2,0,0.2c0,0.2-0.3,0.6-0.8,0.9l-2,1.1
		c-0.5,0.3-0.7,0.9-0.6,1.4l1,3.6c0.2,0.5,0.8,0.9,1.3,0.9l2.3-0.1c0.5,0,1.1,0.3,1.4,0.7c0.2,0.4,0.7,1.8,0.4,2.3l-1.1,2
		c-0.3,0.5-0.2,1.2,0.2,1.6l2.6,2.6c0.4,0.3,1.1,0.4,1.5,0.1l1.9-1.2c0.4-0.3,1.1-0.3,1.5-0.1c0.4,0.2,1.5,1.2,1.5,1.8l0,2.3
		c0,0.5,0.4,1.1,0.9,1.3l3.6,0.9c0.5,0.1,1.2-0.2,1.4-0.7l1.1-2c0.3-0.5,0.9-0.8,1.4-0.8c0,0,0,0,0.1,0v-3.8c-0.3,0-0.5,0-0.8,0
		c-8.6-0.3-15.4-7.7-15-16.4c0.3-8.5,7.4-15.2,15.8-15.1v-3.8c-0.1,0-0.1,0-0.2,0c0,0-0.3,0-0.9,0c-0.2,0-0.2,0-0.2,0
		c-0.2,0-0.6-0.3-0.9-0.8l-1.1-2c-0.3-0.5-0.9-0.7-1.4-0.6l-3.5,1c-0.5,0.2-0.9,0.8-0.9,1.3l0.1,2.3c0,0.5-0.3,1.2-0.7,1.4
		c-0.4,0.2-1.8,0.7-2.2,0.4l-2-1.1c-0.5-0.3-1.2-0.2-1.5,0.2l-2.6,2.7c-0.3,0.4-0.4,1.1-0.1,1.6l1.2,1.9c0.3,0.5,0.3,1.1,0.1,1.5
		c-0.2,0.4-1.2,1.5-1.8,1.5l-2.3,0c-0.5,0-1.1,0.4-1.3,0.9l-0.9,3.6C17.1,56.8,17.4,57.4,17.9,57.6z"/>
	<rect x="43.9" y="40.2" class="st5" width="3.3" height="3.3"/>
	<rect x="44.9" y="47.8" class="st5" width="3.3" height="3.3"/>
	<rect x="51.6" y="46.7" class="st5" width="3.3" height="3.3"/>
	<rect x="50.8" y="55.5" class="st5" width="3.3" height="3.3"/>
	<rect x="58.4" y="51.9" class="st5" width="3.3" height="3.3"/>
	<rect x="74.1" y="53.2" class="st5" width="3.3" height="3.3"/>
	<rect x="68.5" y="40.2" class="st5" width="3.3" height="3.3"/>
	<rect x="57.5" y="41.9" class="st5" width="3.3" height="3.3"/>
	<rect x="76.3" y="59.6" class="st5" width="3.3" height="3.3"/>
	<rect x="66.3" y="56.2" class="st5" width="3.3" height="3.3"/>
	<rect x="58.8" y="59.6" class="st5" width="3.3" height="3.3"/>
	<rect x="68.7" y="62.9" class="st5" width="3.3" height="3.3"/>
	<rect x="67.6" y="47.7" class="st5" width="3.3" height="3.3"/>
	<rect x="56.6" y="66.4" class="st5" width="3.3" height="3.3"/>
	<rect x="61.6" y="68.3" class="st5" width="3.3" height="3.3"/>
	<rect x="49.5" y="63.6" class="st5" width="3.3" height="3.3"/>
	<rect x="42.3" y="57.5" class="st5" width="3.3" height="3.3"/>
	<rect x="42.3" y="67.7" class="st5" width="3.3" height="3.3"/>
	<rect x="43.9" y="76.3" class="st5" width="3.3" height="3.3"/>
	<rect x="50.4" y="73.5" class="st5" width="3.3" height="3.3"/>
	<path class="st2" d="M21.8,71.8C21.8,71.8,21.7,71.8,21.8,71.8l-2.4,0.1c0,0-0.1,0-0.1,0c0,0,0,0-0.1,0c0.8,0.5,1.6,0.9,2.6,1.4
		l0.3-0.5C22,72.5,21.9,72,21.8,71.8z"/>
	<path class="st2" d="M73.7,17.6c0-5.8-11.9-10.5-26.6-10.5c-14.7,0-26.6,4.7-26.6,10.5c0,5.8,11.9,10.5,26.6,10.5
		C61.8,28.1,73.7,23.4,73.7,17.6z"/>
	<path class="st0" d="M68.2,74.8c-4,1.2-8,2-11.9,2.4v2.6h-6.6v-2.1c-0.1,0-0.1,0-0.2,0v5H43v-5.1c-0.2,0-0.4,0-0.7,0v5.2l-1.5,0
		l-0.2,0c0,0-0.1,0-0.1,0.1l-1.1,2.1c-0.5,0.9-1.6,1.5-2.6,1.5c-0.2,0-0.3,0-0.5,0l-0.1,0l-3.8-1c-1.2-0.4-2-1.6-2-2.8l0-2.1
		c-0.2-0.2-0.5-0.5-0.7-0.7c0,0-0.1,0-0.1,0l-2,1.2c-1,0.6-2.5,0.5-3.4-0.3l-0.1-0.1L21.4,78c-0.8-0.9-1-2.4-0.4-3.4l0.8-1.4
		c-0.9-0.4-1.8-0.9-2.6-1.4c-1.2,0-2.3-0.8-2.7-2l0-0.1c-1.4-1.3-2.3-2.7-2.6-4.2c-0.1,0.3-0.1,0.6-0.1,0.9v19.3
		c0,7.3,14.9,13.2,33.3,13.2c18.4,0,33.3-5.9,33.3-13.2V66.5c0-0.3,0-0.6-0.1-0.9C79.7,69.3,75.1,72.6,68.2,74.8z"/>
	<path class="st5" d="M19.2,71.8c-1-0.6-1.9-1.3-2.7-2l0,0.1C16.9,71,18.1,71.8,19.2,71.8z"/>
	<path class="st4" d="M50.9,45.4h6.2v-5h6.6v3.9c1.7-0.4,3.3-0.8,4.8-1.3v-4.4H75v1.4c3.4-2.1,5.4-4.5,5.4-7.2V13.6
		c0-7.3-14.9-13.2-33.3-13.2c-18.4,0-33.3,5.9-33.3,13.2v19.3c0,3.5,3.6,6.8,9.3,9.1l0.5-0.5c0.9-0.8,2.4-1,3.4-0.4l1.8,1.1
		c0.3,0,0.7-0.2,0.9-0.3c0,0,0-0.1,0-0.1l-0.1-2.4c0-1.2,0.8-2.4,1.9-2.9l0.1,0l3.8-1.1c1.2-0.3,2.6,0.3,3.2,1.4l1.2,2.1
		c0,0,0,0,0,0c0.5,0,0.8,0,0.8,0l1.7-0.2l0.6-0.1h6.6v6.6L50.9,45.4z M20.5,17.6c0-5.8,11.9-10.5,26.6-10.5
		c14.7,0,26.6,4.7,26.6,10.5c0,5.8-11.9,10.5-26.6,10.5C32.4,28.1,20.5,23.4,20.5,17.6z"/>
</g>
</svg>
