<?xml version="1.0" encoding="utf-8"?>
<!-- Generator: Adobe Illustrator 22.0.1, SVG Export Plug-In . SVG Version: 6.00 Build 0)  -->
<svg version="1.1" id="Layer_1" xmlns="http://www.w3.org/2000/svg" xmlns:xlink="http://www.w3.org/1999/xlink" x="0px" y="0px"
	 viewBox="0 0 100 100" style="enable-background:new 0 0 100 100;" xml:space="preserve">
<style type="text/css">
	.st0{fill:none;stroke:#000000;stroke-miterlimit:10;}
	.st1{fill:#F0AB00;}
	.st2{fill:#918831;}
	.st3{fill:#40875E;}
	.st4{fill:none;}
	.st5{fill:#A8A240;}
	.st6{fill-rule:evenodd;clip-rule:evenodd;fill:#40875E;}
	.st7{fill:#609A7F;}
	.st8{fill:#008FD3;}
	.st9{fill:#DB9821;}
	.st10{fill:#231F20;}
	.st11{fill:none;stroke:#000000;stroke-width:3;stroke-miterlimit:10;}
	.st12{fill:#EFAA1E;}
	.st13{fill:#FFFFFF;}
	.st14{fill-rule:evenodd;clip-rule:evenodd;fill:#A8A240;}
	.st15{fill-rule:evenodd;clip-rule:evenodd;fill:#F0AB00;}
	.st16{fill:#A69F3D;}
	.st17{fill:none;stroke:#000000;}
	.st18{fill:none;stroke:#FFFFFF;stroke-width:2;stroke-miterlimit:10;}
	.st19{fill:none;stroke:#F0AB00;stroke-width:4;stroke-miterlimit:10;}
	.st20{fill:none;stroke:#918831;stroke-width:4;stroke-miterlimit:10;}
	.st21{fill:#348761;}
	.st22{fill:none;stroke:#40875E;stroke-width:13;stroke-miterlimit:10;}
	.st23{fill:none;stroke:#40875E;stroke-width:6;stroke-miterlimit:10;}
	.st24{fill:none;stroke:#918831;stroke-width:19;stroke-miterlimit:10;}
	.st25{fill:none;stroke:#000000;stroke-width:4;stroke-miterlimit:10;}
	.st26{fill:none;stroke:#F0AB00;stroke-width:11;stroke-miterlimit:10;}
	.st27{fill:#0DB7AD;}
	.st28{fill:#0771BB;}
	.st29{fill:#ED580C;}
	.st30{fill:#0F5869;}
	.st31{fill:#08373E;}
	.st32{fill:#00BCBF;}
	.st33{fill:#FAB300;}
	.st34{fill:#0AB7BB;}
	.st35{fill:#FB6863;}
	.st36{fill:#037CAB;}
	.st37{fill:#56CFF6;}
	.st38{fill:#E13200;}
	.st39{fill:#FAAF00;}
	.st40{fill:#F19104;}
	.st41{fill:#E33B05;}
	.st42{fill:#05395F;}
	.st43{fill:#0DB1AB;}
	.st44{fill:#08373E;stroke:#000000;stroke-width:3;stroke-miterlimit:10;}
</style>
<g>
	<g>
		<path class="st10" d="M72,98.4H21.2c-4.1,0-7.4-3.3-7.4-7.4V71.9h1.3V91c0,3.4,2.7,6.1,6.1,6.1H72c3.4,0,6.1-2.7,6.1-6.1v-6.3h1.3
			V91C79.4,95.1,76.1,98.4,72,98.4z"/>
		<path class="st10" d="M15.1,46.1h-1.3V9c0-4.1,3.3-7.4,7.4-7.4H72c4.1,0,7.4,3.3,7.4,7.4v17.6H78V9c0-3.4-2.7-6.1-6.1-6.1H21.2
			c-3.4,0-6.1,2.7-6.1,6.1V46.1z"/>
	</g>
	<g>
		<path class="st1" d="M26.1,56.1c0,0.8-0.7,1.5-1.5,1.5H11.2c-0.8,0-1.5-0.7-1.5-1.5l0,0c0-0.8,0.7-1.5,1.5-1.5h13.3
			C25.4,54.6,26.1,55.3,26.1,56.1L26.1,56.1z"/>
		<path class="st1" d="M37.9,62.5c0,0.8-0.7,1.5-1.5,1.5H11.2c-0.8,0-1.5-0.7-1.5-1.5l0,0c0-0.8,0.7-1.5,1.5-1.5h25.1
			C37.2,61,37.9,61.7,37.9,62.5L37.9,62.5z"/>
		<path class="st5" d="M86.3,43.2c0,2-1.6,3.6-3.6,3.6h-4.1c-2,0-3.6-1.6-3.6-3.6v-4c0-2,1.6-3.6,3.6-3.6h4.1c2,0,3.6,1.6,3.6,3.6
			V43.2z M83.1,38.9h-4.7v4.8h4.7V38.9z"/>
		<path class="st5" d="M86.3,58c0,2-1.6,3.6-3.6,3.6h-4.1c-2,0-3.6-1.6-3.6-3.6v-4c0-2,1.6-3.6,3.6-3.6h4.1c2,0,3.6,1.6,3.6,3.6V58z
			 M83.1,53.7h-4.7v4.8h4.7V53.7z"/>
		<path class="st5" d="M86.3,73c0,2-1.6,3.6-3.6,3.6h-4.1c-2,0-3.6-1.6-3.6-3.6v-4c0-2,1.6-3.6,3.6-3.6h4.1c2,0,3.6,1.6,3.6,3.6V73z
			 M83.1,68.7h-4.7v4.8h4.7V68.7z"/>
		<path class="st1" d="M68.1,15.3c0,0.9-0.8,1.7-1.7,1.7H25.6c-0.9,0-1.7-0.8-1.7-1.7l0,0c0-0.9,0.8-1.7,1.7-1.7h40.8
			C67.3,13.6,68.1,14.3,68.1,15.3L68.1,15.3z"/>
		<path class="st1" d="M68.1,26.6c0,0.9-0.8,1.7-1.7,1.7H25.6c-0.9,0-1.7-0.8-1.7-1.7l0,0c0-0.9,0.8-1.7,1.7-1.7h40.8
			C67.3,24.9,68.1,25.7,68.1,26.6L68.1,26.6z"/>
		<path class="st1" d="M52.7,38c0,0.9-0.8,1.7-1.7,1.7H25.6c-0.9,0-1.7-0.8-1.7-1.7l0,0c0-0.9,0.8-1.7,1.7-1.7h25.4
			C51.9,36.3,52.7,37.1,52.7,38L52.7,38z"/>
		<path class="st1" d="M52.7,83c0,0.9-0.8,1.7-1.7,1.7H25.6c-0.9,0-1.7-0.8-1.7-1.7l0,0c0-0.9,0.8-1.7,1.7-1.7h25.4
			C51.9,81.3,52.7,82,52.7,83L52.7,83z"/>
		<path class="st3" d="M55,73.3v8.3h38.8V30.7H55v14.8l-6.2-0.1V31c0-3.5,2.8-6.4,6.4-6.4h38.5c3.5,0,6.4,2.8,6.4,6.4v50.3
			c0,3.5-2.8,6.4-6.4,6.4H55.2c-3.5,0-6.4-2.8-6.4-6.4v-7.7L55,73.3z"/>
		<path class="st5" d="M62.7,67.6c0,3.5-2.8,6.4-6.4,6.4h-50C2.9,74,0,71.2,0,67.6V51.1c0-3.5,2.8-6.4,6.4-6.4h50
			c3.5,0,6.4,2.8,6.4,6.4V67.6z M56.8,51.1H6.5v16.7h50.3V51.1z"/>
	</g>
</g>
</svg>
