<?xml version="1.0" encoding="utf-8"?>
<!-- Generator: Adobe Illustrator 22.0.1, SVG Export Plug-In . SVG Version: 6.00 Build 0)  -->
<svg version="1.1" id="Layer_1" xmlns="http://www.w3.org/2000/svg" xmlns:xlink="http://www.w3.org/1999/xlink" x="0px" y="0px"
	 viewBox="0 0 100 100" style="enable-background:new 0 0 100 100;" xml:space="preserve">
<style type="text/css">
	.st0{fill:none;stroke:#000000;stroke-miterlimit:10;}
	.st1{fill:#F0AB00;}
	.st2{fill:#918831;}
	.st3{fill:#40875E;}
	.st4{fill:none;}
	.st5{fill:#A8A240;}
	.st6{fill-rule:evenodd;clip-rule:evenodd;fill:#40875E;}
	.st7{fill:#609A7F;}
	.st8{fill:#008FD3;}
	.st9{fill:#DB9821;}
	.st10{fill:#231F20;stroke-width: 1;stroke: #000;}
	.st11{fill:none;stroke:#000000;stroke-width:3;stroke-miterlimit:10;}
	.st12{fill:#EFAA1E;}
	.st13{fill:#FFFFFF;}
	.st14{fill-rule:evenodd;clip-rule:evenodd;fill:#A8A240;}
	.st15{fill-rule:evenodd;clip-rule:evenodd;fill:#F0AB00;}
	.st16{fill:#A69F3D;}
	.st17{fill:none;stroke:#000000;}
	.st18{fill:none;stroke:#FFFFFF;stroke-width:2;stroke-miterlimit:10;}
	.st19{fill:none;stroke:#F0AB00;stroke-width:4;stroke-miterlimit:10;}
	.st20{fill:none;stroke:#918831;stroke-width:4;stroke-miterlimit:10;}
	.st21{fill:#348761;}
	.st22{fill:none;stroke:#40875E;stroke-width:13;stroke-miterlimit:10;}
	.st23{fill:none;stroke:#40875E;stroke-width:6;stroke-miterlimit:10;}
	.st24{fill:none;stroke:#918831;stroke-width:19;stroke-miterlimit:10;}
	.st25{fill:none;stroke:#000000;stroke-width:4;stroke-miterlimit:10;}
	.st26{fill:none;stroke:#F0AB00;stroke-width:11;stroke-miterlimit:10;}
	.st27{fill:#0DB7AD;}
	.st28{fill:#0771BB;}
	.st29{fill:#ED580C;}
	.st30{fill:#0F5869;}
	.st31{fill:#08373E;}
	.st32{fill:#00BCBF;}
	.st33{fill:#FAB300;}
	.st34{fill:#0AB7BB;}
	.st35{fill:#FB6863;}
	.st36{fill:#037CAB;}
	.st37{fill:#56CFF6;}
	.st38{fill:#E13200;}
	.st39{fill:#FAAF00;}
	.st40{fill:#F19104;}
	.st41{fill:#E33B05;}
	.st42{fill:#05395F;}
	.st43{fill:#0DB1AB;}
	.st44{fill:#08373E;stroke:#000000;stroke-width:3;stroke-miterlimit:10;}
</style>
<g>
	<path class="st10" d="M81,83.2H19c-10.5,0-19-8.5-19-19c0-7.9,5-15,12.4-17.7l0-0.4c0-16.2,13.1-29.3,29.3-29.3
		c9.3,0,18,4.5,23.6,12c1.5-0.4,2.8-0.6,4.1-0.6c9.4,0,17.1,7.7,17.1,17.1c0,0.2,0,0.5,0,0.7c8,2.4,13.5,9.8,13.5,18.1
		C100,74.7,91.5,83.2,81,83.2z M41.7,17.5c-15.8,0-28.6,12.8-28.6,28.6l0,0.9l-0.3,0.1C5.6,49.7,0.7,56.5,0.7,64.2
		c0,10.1,8.2,18.2,18.2,18.2H81c10.1,0,18.2-8.2,18.2-18.2c0-8.1-5.5-15.3-13.3-17.5l-0.3-0.1l0-0.3c0-0.3,0-0.6,0-0.9
		c0-9-7.4-16.4-16.4-16.4c-1.3,0-2.6,0.2-4.1,0.6L65,29.7l-0.1-0.2C59.5,22,50.8,17.5,41.7,17.5z"/>
	<path class="st6" d="M19.2,50c-2,0-3.7,1.6-3.7,4.1c0,2.2,1.7,4.1,3.7,4.1c2,0,3.7-1.9,3.7-4.1C22.9,51.6,21.2,50,19.2,50 M19.2,56
		c-0.3,0.3-0.9,0.3-1.1,0c-2-2.2-2-2.2-2-2.2c1.1,0,1.1,0,1.1,0c1.4,1.6,1.4,1.6,1.4,1.6c2.3-2.5,2.3-2.5,2.3-2.5c1.1,0,1.1,0,1.1,0
		L19.2,56L19.2,56z"/>
	<path class="st15" d="M21.2,59.8L21.2,59.8c-0.3-0.3-0.3-0.3-0.3-0.3v-0.3c0.6-0.3,1.2-0.6,1.5-0.9l0,0c1.1-0.9,2-2.5,2-4
		c0-3.1-2.3-5.5-5.2-5.5c-2.9,0-5.2,2.5-5.2,5.5c0,2.8,2.3,5.2,5.2,5.2c0.3,0,0.3,0,0.6,0c0.9,2.8,0.9,2.8,0.9,2.8
		c3.5,1.2,3.5,1.2,3.5,1.2c-1.4-4.6-1.4-4.6-1.4-4.6C22.1,59.2,21.8,59.5,21.2,59.8 M19.2,58.6c-2.3,0-4-2.1-4-4.3
		c0-2.5,1.7-4.3,4-4.3c2.3,0,4.1,1.8,4.1,4.3C23.2,56.5,21.5,58.6,19.2,58.6"/>
	<path class="st6" d="M15.7,58.9c-1.5,4.6-1.5,4.6-1.5,4.6c3.5-1.2,3.5-1.2,3.5-1.2c0.6-2.1,0.6-2.1,0.6-2.1c-0.6,0-1.2-0.3-1.8-0.6
		C16.3,59.2,16,59.2,15.7,58.9"/>
	<path class="st6" d="M33.3,50c-2,0-3.6,1.6-3.6,4.1c0,2.2,1.7,4.1,3.6,4.1c2,0,3.6-1.9,3.6-4.1C36.9,51.6,35.3,50,33.3,50 M33.3,56
		c-0.3,0.3-0.8,0.3-1.1,0c-2-2.2-2-2.2-2-2.2c1.4,0,1.4,0,1.4,0c1.1,1.6,1.1,1.6,1.1,1.6c2.2-2.5,2.2-2.5,2.2-2.5c1.1,0,1.1,0,1.1,0
		L33.3,56L33.3,56z"/>
	<path class="st15" d="M35.4,59.8L35.4,59.8c-0.3-0.3-0.3-0.3-0.3-0.3v-0.3c0.6-0.3,1.2-0.6,1.5-0.9l0,0c1.2-0.9,2.1-2.5,2.1-4
		c0-3.1-2.4-5.5-5.3-5.5c-2.9,0-5.3,2.5-5.3,5.5c0,2.8,2.4,5.2,5.3,5.2c0.3,0,0.3,0,0.6,0c0.9,2.8,0.9,2.8,0.9,2.8
		c3.6,1.2,3.6,1.2,3.6,1.2c-1.5-4.6-1.5-4.6-1.5-4.6C36.6,59.2,36,59.5,35.4,59.8 M33.3,58.6c-2.4,0-4.1-2.1-4.1-4.3
		c0-2.5,1.8-4.3,4.1-4.3c2.4,0,4.1,1.8,4.1,4.3C37.5,56.5,35.7,58.6,33.3,58.6"/>
	<path class="st6" d="M29.7,58.9c-1.5,4.6-1.5,4.6-1.5,4.6c3.5-1.2,3.5-1.2,3.5-1.2c0.6-2.1,0.6-2.1,0.6-2.1c-0.6,0-1.2-0.3-1.8-0.6
		C30.3,59.2,30,59.2,29.7,58.9"/>
	<path class="st6" d="M47.6,50c-2.1,0-3.9,1.6-3.9,4.1c0,2.2,1.8,4.1,3.9,4.1c2.1,0,3.9-1.9,3.9-4.1C51.5,51.6,49.7,50,47.6,50
		 M47.6,56c-0.3,0.3-0.9,0.3-1.2,0c-2.1-2.2-2.1-2.2-2.1-2.2c1.5,0,1.5,0,1.5,0c1.2,1.6,1.2,1.6,1.2,1.6c2.4-2.5,2.4-2.5,2.4-2.5
		c1.2,0,1.2,0,1.2,0L47.6,56L47.6,56z"/>
	<path class="st15" d="M49.7,59.8L49.7,59.8c-0.3-0.3-0.3-0.3-0.3-0.3v-0.3c0.6-0.3,1.2-0.6,1.8-0.9l0,0c0.9-0.9,1.8-2.5,1.8-4
		c0-3.1-2.4-5.5-5.3-5.5c-2.9,0-5.3,2.5-5.3,5.5c0,2.8,2.4,5.2,5.3,5.2c0.3,0,0.3,0,0.6,0c0.9,2.8,0.9,2.8,0.9,2.8
		c3.6,1.2,3.6,1.2,3.6,1.2c-1.5-4.6-1.5-4.6-1.5-4.6C50.9,59.2,50.2,59.5,49.7,59.8 M47.6,58.6c-2.4,0-4.1-2.1-4.1-4.3
		c0-2.5,1.8-4.3,4.1-4.3c2.4,0,4.1,1.8,4.1,4.3C51.7,56.5,50,58.6,47.6,58.6"/>
	<path class="st6" d="M44.1,58.9c-1.4,4.6-1.4,4.6-1.4,4.6c3.3-1.2,3.3-1.2,3.3-1.2c0.5-2.1,0.5-2.1,0.5-2.1c-0.5,0-1.1-0.3-1.6-0.6
		C44.7,59.2,44.4,59.2,44.1,58.9"/>
	<path class="st6" d="M19.2,66.7c-2,0-3.7,1.6-3.7,4.1c0,2.2,1.7,4.1,3.7,4.1c2,0,3.7-1.9,3.7-4.1C22.9,68.3,21.2,66.7,19.2,66.7
		 M19.2,72.7c-0.3,0.3-0.9,0.3-1.1,0c-2-2.2-2-2.2-2-2.2c1.1,0,1.1,0,1.1,0c1.4,1.6,1.4,1.6,1.4,1.6c2.3-2.5,2.3-2.5,2.3-2.5
		c1.1,0,1.1,0,1.1,0L19.2,72.7L19.2,72.7z"/>
	<path class="st15" d="M21.2,76.6L21.2,76.6c-0.3-0.3-0.3-0.3-0.3-0.3V76c0.6-0.3,1.2-0.6,1.5-0.9l0,0c1.1-0.9,2-2.5,2-4
		c0-3.1-2.3-5.5-5.2-5.5C16.3,65.5,14,68,14,71c0,2.8,2.3,5.2,5.2,5.2c0.3,0,0.3,0,0.6,0c0.9,2.8,0.9,2.8,0.9,2.8
		c3.5,1.2,3.5,1.2,3.5,1.2c-1.4-4.6-1.4-4.6-1.4-4.6C22.1,76,21.8,76.3,21.2,76.6 M19.2,75.3c-2.3,0-4-2.1-4-4.3
		c0-2.5,1.7-4.3,4-4.3c2.3,0,4.1,1.8,4.1,4.3C23.2,73.2,21.5,75.3,19.2,75.3"/>
	<path class="st14" d="M15.7,75.7c-1.5,4.6-1.5,4.6-1.5,4.6c3.5-1.2,3.5-1.2,3.5-1.2c0.6-2.1,0.6-2.1,0.6-2.1
		c-0.6,0-1.2-0.3-1.8-0.6C16.3,76,16,76,15.7,75.7"/>
	<path class="st6" d="M33.3,66.7c-2,0-3.6,1.6-3.6,4.1c0,2.2,1.7,4.1,3.6,4.1c2,0,3.6-1.9,3.6-4.1C36.9,68.3,35.3,66.7,33.3,66.7
		 M33.3,72.7c-0.3,0.3-0.8,0.3-1.1,0c-2-2.2-2-2.2-2-2.2c1.4,0,1.4,0,1.4,0c1.1,1.6,1.1,1.6,1.1,1.6c2.2-2.5,2.2-2.5,2.2-2.5
		c1.1,0,1.1,0,1.1,0L33.3,72.7L33.3,72.7z"/>
	<path class="st15" d="M35.4,76.6L35.4,76.6c-0.3-0.3-0.3-0.3-0.3-0.3V76c0.6-0.3,1.2-0.6,1.5-0.9l0,0c1.2-0.9,2.1-2.5,2.1-4
		c0-3.1-2.4-5.5-5.3-5.5C30.4,65.5,28,68,28,71c0,2.8,2.4,5.2,5.3,5.2c0.3,0,0.3,0,0.6,0c0.9,2.8,0.9,2.8,0.9,2.8
		c3.6,1.2,3.6,1.2,3.6,1.2c-1.5-4.6-1.5-4.6-1.5-4.6C36.6,76,36,76.3,35.4,76.6 M33.3,75.3c-2.4,0-4.1-2.1-4.1-4.3
		c0-2.5,1.8-4.3,4.1-4.3c2.4,0,4.1,1.8,4.1,4.3C37.5,73.2,35.7,75.3,33.3,75.3"/>
	<path class="st14" d="M29.7,75.7c-1.5,4.6-1.5,4.6-1.5,4.6c3.5-1.2,3.5-1.2,3.5-1.2c0.6-2.1,0.6-2.1,0.6-2.1
		c-0.6,0-1.2-0.3-1.8-0.6C30.3,76,30,76,29.7,75.7"/>
	<path class="st6" d="M47.6,66.7c-2.1,0-3.9,1.6-3.9,4.1c0,2.2,1.8,4.1,3.9,4.1c2.1,0,3.9-1.9,3.9-4.1
		C51.5,68.3,49.7,66.7,47.6,66.7 M47.6,72.7c-0.3,0.3-0.9,0.3-1.2,0c-2.1-2.2-2.1-2.2-2.1-2.2c1.5,0,1.5,0,1.5,0
		c1.2,1.6,1.2,1.6,1.2,1.6c2.4-2.5,2.4-2.5,2.4-2.5c1.2,0,1.2,0,1.2,0L47.6,72.7L47.6,72.7z"/>
	<path class="st15" d="M49.7,76.6L49.7,76.6c-0.3-0.3-0.3-0.3-0.3-0.3V76c0.6-0.3,1.2-0.6,1.8-0.9l0,0c0.9-0.9,1.8-2.5,1.8-4
		c0-3.1-2.4-5.5-5.3-5.5c-2.9,0-5.3,2.5-5.3,5.5c0,2.8,2.4,5.2,5.3,5.2c0.3,0,0.3,0,0.6,0c0.9,2.8,0.9,2.8,0.9,2.8
		c3.6,1.2,3.6,1.2,3.6,1.2c-1.5-4.6-1.5-4.6-1.5-4.6C50.9,76,50.2,76.3,49.7,76.6 M47.6,75.3c-2.4,0-4.1-2.1-4.1-4.3
		c0-2.5,1.8-4.3,4.1-4.3c2.4,0,4.1,1.8,4.1,4.3C51.7,73.2,50,75.3,47.6,75.3"/>
	<path class="st14" d="M44.1,75.7c-1.4,4.6-1.4,4.6-1.4,4.6c3.3-1.2,3.3-1.2,3.3-1.2c0.5-2.1,0.5-2.1,0.5-2.1
		c-0.5,0-1.1-0.3-1.6-0.6C44.7,76,44.4,76,44.1,75.7"/>
	<path class="st14" d="M69.2,60.2H57.9v-8h11.3V60.2L69.2,60.2z M70.3,51.2H56.8v10.2h13.5V51.2L70.3,51.2z"/>
	<polygon class="st6" points="59.4,53.8 59.4,54.3 67.4,54.3 67.4,53.8 59.4,53.8 	"/>
	<polygon class="st6" points="59.4,55.8 59.4,56.5 63.8,56.5 63.8,55.8 59.4,55.8 	"/>
	<polygon class="st6" points="59.4,58 59.4,58.7 63.8,58.7 63.8,58 59.4,58 	"/>
	<path class="st15" d="M67.9,56.6c0-0.7-0.6-1.3-1.4-1.3c-0.9,0-1.5,0.6-1.5,1.3c0,0.5,0.3,0.8,0.5,1.2c-0.4,1.6-0.4,1.6-0.4,1.6
		C66,59,66,59,66,59c0.4-1,0.4-1,0.4-1c0.1,0,0.1,0,0.1,0l0,0c0.4,1,0.4,1,0.4,1c1,0.4,1,0.4,1,0.4c-0.5-1.6-0.5-1.6-0.5-1.6
		C67.8,57.5,67.9,57.1,67.9,56.6"/>
	<path class="st14" d="M85.9,60.2H74.6v-8h11.3V60.2L85.9,60.2z M87,51.2H73.5v10.2H87V51.2L87,51.2z"/>
	<polygon class="st6" points="76.1,53.8 76.1,54.3 84.1,54.3 84.1,53.8 76.1,53.8 	"/>
	<polygon class="st6" points="76.1,55.8 76.1,56.5 80.5,56.5 80.5,55.8 76.1,55.8 	"/>
	<polygon class="st6" points="76.1,58 76.1,58.7 80.5,58.7 80.5,58 76.1,58 	"/>
	<path class="st15" d="M84.6,56.6c0-0.7-0.6-1.3-1.4-1.3c-0.9,0-1.5,0.6-1.5,1.3c0,0.5,0.3,0.8,0.5,1.2c-0.4,1.6-0.4,1.6-0.4,1.6
		c0.9-0.4,0.9-0.4,0.9-0.4c0.4-1,0.4-1,0.4-1c0.1,0,0.1,0,0.1,0l0,0c0.4,1,0.4,1,0.4,1c1,0.4,1,0.4,1,0.4c-0.5-1.6-0.5-1.6-0.5-1.6
		C84.5,57.5,84.6,57.1,84.6,56.6"/>
	<path class="st14" d="M69.2,76.9H57.9v-8h11.3V76.9L69.2,76.9z M70.3,67.9H56.8V78h13.5V67.9L70.3,67.9z"/>
	<polygon class="st6" points="59.4,70.5 59.4,71 67.4,71 67.4,70.5 59.4,70.5 	"/>
	<polygon class="st6" points="59.4,72.5 59.4,73.2 63.8,73.2 63.8,72.5 59.4,72.5 	"/>
	<polygon class="st6" points="59.4,74.6 59.4,75.4 63.8,75.4 63.8,74.6 59.4,74.6 	"/>
	<path class="st15" d="M67.9,73.3c0-0.7-0.6-1.3-1.4-1.3c-0.9,0-1.5,0.6-1.5,1.3c0,0.5,0.3,0.8,0.5,1.2c-0.4,1.6-0.4,1.6-0.4,1.6
		c0.9-0.4,0.9-0.4,0.9-0.4c0.4-1,0.4-1,0.4-1c0.1,0,0.1,0,0.1,0l0,0c0.4,1,0.4,1,0.4,1c1,0.4,1,0.4,1,0.4c-0.5-1.6-0.5-1.6-0.5-1.6
		C67.8,74.2,67.9,73.8,67.9,73.3"/>
	<path class="st14" d="M85.9,76.9H74.6v-8h11.3V76.9L85.9,76.9z M87,67.9H73.5V78H87V67.9L87,67.9z"/>
	<polygon class="st6" points="76.1,70.5 76.1,71 84.1,71 84.1,70.5 76.1,70.5 	"/>
	<polygon class="st6" points="76.1,72.5 76.1,73.2 80.5,73.2 80.5,72.5 76.1,72.5 	"/>
	<polygon class="st6" points="76.1,74.6 76.1,75.4 80.5,75.4 80.5,74.6 76.1,74.6 	"/>
	<path class="st15" d="M84.6,73.3c0-0.7-0.6-1.3-1.4-1.3c-0.9,0-1.5,0.6-1.5,1.3c0,0.5,0.3,0.8,0.5,1.2c-0.4,1.6-0.4,1.6-0.4,1.6
		c0.9-0.4,0.9-0.4,0.9-0.4c0.4-1,0.4-1,0.4-1c0.1,0,0.1,0,0.1,0l0,0c0.4,1,0.4,1,0.4,1c1,0.4,1,0.4,1,0.4c-0.5-1.6-0.5-1.6-0.5-1.6
		C84.5,74.2,84.6,73.8,84.6,73.3"/>
</g>
</svg>
