<?xml version="1.0" encoding="utf-8"?>
<!-- Generator: Adobe Illustrator 22.0.1, SVG Export Plug-In . SVG Version: 6.00 Build 0)  -->
<svg version="1.1" id="Layer_1" xmlns="http://www.w3.org/2000/svg" xmlns:xlink="http://www.w3.org/1999/xlink" x="0px" y="0px"
	 viewBox="0 0 100 100" style="enable-background:new 0 0 100 100;" xml:space="preserve">
<style type="text/css">
	.st0{fill:#A8A240;}
	.st1{fill:none;stroke:#A8A240;stroke-width:2;stroke-miterlimit:10;}
	.st2{fill:none;}
	.st3{fill:#231F20;stroke-width: 1;stroke: #000;}
	.st4{fill:#40875E;}
	.st5{font-family:'Optima-Bold';}
	.st6{font-size:11.8661px;}
	.st7{fill:#F0AB00;}
	.st8{stroke:#231F20;stroke-width:0.5;stroke-miterlimit:10;}
	.st9{fill:none;stroke:#000000;stroke-miterlimit:10;}
</style>
<g>
	<path class="st3" d="M80.7,82.8H19.3C9,82.8,0.6,74.4,0.6,64.1c0-7.8,4.9-14.8,12.3-17.5l0-0.4c0-16,13-29,29-29
		c9.2,0,17.8,4.4,23.3,11.9c1.4-0.4,2.8-0.6,4-0.6c9.3,0,16.9,7.6,16.9,16.9c0,0.2,0,0.5,0,0.7c7.9,2.3,13.4,9.7,13.4,17.9
		C99.4,74.4,91,82.8,80.7,82.8z M41.8,17.9c-15.6,0-28.3,12.7-28.3,28.3l0,0.9l-0.3,0.1C6.1,49.7,1.3,56.5,1.3,64.1
		c0,9.9,8.1,18,18,18h61.4c9.9,0,18-8.1,18-18c0-8-5.4-15.2-13.1-17.3l-0.3-0.1l0-0.3c0-0.3,0-0.6,0-0.9c0-8.9-7.3-16.2-16.2-16.2
		c-1.3,0-2.6,0.2-4.1,0.6l-0.2,0.1l-0.1-0.2C59.4,22.3,50.8,17.9,41.8,17.9z"/>
	<path class="st4" d="M23.3,47.2c-0.6,0.6-1.3,0.9-2,1c-1.4,0.2-2.9-0.5-3.6-1.8c-0.8-1.5-0.5-3.2,0.8-4.3c1.1-0.9,2.3-1,3.6-0.6
		c1.5,0.5,2.5,2.4,2.1,4c0,0.1,0,0.2,0.1,0.3c0.9,0.5,1.7,1,2.6,1.5c0.1,0.1,0.3,0.1,0.4,0c1.5-0.9,3-1.7,4.5-2.6
		c0.8-0.5,1.6-0.9,2.4-1.4c1.2-0.7,2.5-1.4,3.7-2.1c0.1-0.1,0.2-0.1,0.2-0.3c0-1,0-2,0-3.1c0-0.1-0.1-0.2-0.2-0.2
		c-1-0.3-1.6-0.9-2.1-1.8c-0.7-1.3-0.4-2.9,0.6-3.9c0.7-0.7,1.6-1.1,2.6-1.1c1.6,0,2.9,1.1,3.3,2.7c0.4,1.5-0.5,3.3-1.9,4
		c-0.2,0.1-0.3,0.1-0.5,0.2c-0.1,0-0.2,0.1-0.2,0.2c0,1,0,2.1,0,3.1c0,0.1,0.1,0.2,0.1,0.2c2.2,1.3,4.5,2.6,6.7,3.9
		c1.3,0.7,2.6,1.5,3.9,2.2c0.1,0.1,0.2,0.1,0.4,0c0.9-0.5,1.7-1,2.6-1.5c0.2-0.1,0.2-0.2,0.2-0.4c-0.5-2.3,1.4-4.4,3.8-4.2
		c2.6,0.3,3.9,3.1,2.6,5.3c-1.1,1.9-3.4,2-4.8,1.2c-0.2-0.1-0.4-0.3-0.5-0.4c-0.1-0.1-0.2-0.1-0.3,0c-0.8,0.5-1.7,1-2.5,1.5
		c-0.2,0.1-0.2,0.2-0.2,0.4c0,3.5,0,6.9,0,10.4c0,0.6,0,1.2,0,1.8c0,0.1,0,0.2,0.2,0.3c0.9,0.5,1.8,1.1,2.8,1.6
		c0.1-0.1,0.2-0.2,0.3-0.3c1.1-0.9,2.7-1.1,3.8-0.4c1.3,0.7,1.9,1.9,1.8,3.4c-0.1,2.2-2.2,3.7-4.5,3.1c-1.6-0.4-2.7-2.2-2.5-3.7
		c0-0.2,0.1-0.4,0-0.6c-0.1-0.1-0.3-0.2-0.5-0.3c-0.7-0.4-1.4-0.8-2.2-1.2c-0.1,0-0.2,0-0.3,0c-1.2,0.7-2.4,1.3-3.6,2
		c-1,0.6-2.1,1.2-3.1,1.8c-1.4,0.8-2.7,1.6-4.1,2.4c-0.1,0-0.1,0.1-0.1,0.2c0,1,0,2,0,3.1c0,0.2,0.1,0.2,0.2,0.3
		c1.6,0.5,2.7,2.2,2.4,3.9c-0.3,1.7-1.9,3-3.6,3c-1.5-0.1-2.8-1.2-3.2-2.7c-0.5-1.6,0.7-3.7,2.3-4.2c0.2,0,0.2-0.1,0.2-0.3
		c0-1,0-2,0-3c0-0.1,0-0.2-0.2-0.3c-2.1-1.2-4.2-2.4-6.4-3.7c-0.9-0.5-1.9-1.1-2.9-1.6c-0.5-0.3-1-0.6-1.5-0.8c-0.1,0-0.2,0-0.2,0
		c-0.9,0.5-1.7,1-2.6,1.5c-0.1,0.1-0.2,0.2-0.1,0.3c0.3,1.5-0.2,2.7-1.4,3.6c-1.1,0.8-2.8,0.9-4,0.1c-1.3-0.9-1.9-2.4-1.4-3.8
		c0.9-2.9,4-3.2,5.7-1.7c0.1,0.1,0.2,0.1,0.4,0c0.8-0.5,1.6-1,2.4-1.4c0.1-0.1,0.2-0.2,0.2-0.4c0-3.3,0-6.6,0-9.9c0-0.8,0-1.6,0-2.4
		c0-0.1-0.1-0.2-0.1-0.2C25.2,48.3,24.2,47.7,23.3,47.2z M49.9,55.2C49.9,55.2,49.9,55.2,49.9,55.2c0-2,0-4.1,0-6.1
		c0-0.2,0-0.2-0.2-0.3c-0.8-0.4-1.5-0.9-2.2-1.3c-1.2-0.7-2.4-1.4-3.6-2c-1.6-0.9-3.2-1.8-4.8-2.8c-0.1-0.1-0.3-0.1-0.4,0
		c-0.5,0.3-1.1,0.6-1.6,0.9c-1.6,0.9-3.3,1.9-4.9,2.8c-1.3,0.8-2.6,1.5-3.9,2.3c-0.2,0.1-0.3,0.2-0.3,0.5c0,0.2,0,0.4,0,0.6
		c0,3.8,0,7.6,0,11.4c0,0.2,0.1,0.3,0.3,0.4c2,1.1,3.9,2.3,5.9,3.4c1.5,0.9,3.1,1.8,4.6,2.7c0.1,0.1,0.2,0.1,0.4,0
		c1.3-0.8,2.6-1.5,3.9-2.2c1.1-0.6,2.2-1.3,3.3-1.9c1.1-0.7,2.3-1.3,3.4-2c0.1-0.1,0.2-0.2,0.2-0.3C49.9,59.2,49.9,57.2,49.9,55.2z
		 M40.7,76c0-1-0.7-1.7-1.7-1.7c-1.1,0-1.9,0.8-1.9,1.7c0,1,0.8,1.8,1.8,1.8C40,77.8,40.7,77.1,40.7,76z M20.8,67.4
		c1,0,1.8-0.8,1.8-1.7c0-1-0.9-1.9-1.8-1.9c-0.9,0-1.7,0.8-1.7,1.7C19.1,66.6,19.9,67.4,20.8,67.4z M37.1,34.2c0,1,0.7,1.7,1.8,1.7
		c1,0,1.9-0.8,1.9-1.7c0-1-0.8-1.8-1.9-1.8C37.8,32.5,37.1,33.2,37.1,34.2z M57,46.4c0.9,0,1.7-0.8,1.7-1.7c0-1-0.8-1.9-1.8-1.9
		c-0.9,0-1.8,0.8-1.8,1.7C55.2,45.6,56.1,46.4,57,46.4z M55.3,65.6c0,1,0.8,1.7,1.7,1.7c1,0,1.8-0.9,1.8-1.9c0-0.9-0.8-1.7-1.8-1.7
		C56.1,63.7,55.3,64.6,55.3,65.6z M22.5,44.7c0-1-0.8-1.7-1.7-1.7c-1,0-1.8,0.9-1.8,1.9c0,0.9,0.9,1.7,1.8,1.7
		C21.7,46.6,22.5,45.7,22.5,44.7z"/>
	<text transform="matrix(1 0 0 1 65.9744 66.9745)" class="st5 st6">PPH</text>
	<g>
		<path class="st7" d="M35.1,60.9c0,0.4-0.3,0.7-0.7,0.7h-2.5c-0.4,0-0.7-0.3-0.7-0.7v-2.2c0-0.4,0.3-0.7,0.7-0.7h2.5
			c0.4,0,0.7,0.3,0.7,0.7V60.9z"/>
	</g>
	<g>
		<path class="st7" d="M40.7,60.9c0,0.4-0.3,0.7-0.7,0.7h-2.5c-0.4,0-0.7-0.3-0.7-0.7v-2.2c0-0.4,0.3-0.7,0.7-0.7h2.5
			c0.4,0,0.7,0.3,0.7,0.7V60.9z"/>
	</g>
	<g>
		<path class="st7" d="M46.1,60.9c0,0.4-0.3,0.7-0.7,0.7h-2.5c-0.4,0-0.7-0.3-0.7-0.7v-2.2c0-0.4,0.3-0.7,0.7-0.7h2.5
			c0.4,0,0.7,0.3,0.7,0.7V60.9z"/>
	</g>
	<g>
		<polygon class="st8" points="34.1,56.5 34.1,56.5 36.4,53.9 41.1,53.9 41.1,53.9 43.3,56.5 43.2,56.5 41.1,54 36.4,54 		"/>
	</g>
	<g>
		<rect x="38.6" y="53.9" class="st8" width="0.1" height="3"/>
	</g>
	<g>
		<rect x="35.9" y="47.9" class="st2" width="5.4" height="0.9"/>
	</g>
	<g>
		<rect x="35.9" y="49.8" class="st2" width="5.4" height="0.9"/>
	</g>
	<g>
		<g>
			<path class="st0" d="M43.1,47.9c0-0.7-0.5-1.2-1.2-1.2h-6.4c-0.7,0-1.2,0.5-1.2,1.2v1.5h8.8V47.9z M41.3,48.9h-5.4v-0.9h5.4V48.9
				z"/>
		</g>
	</g>
	<g>
		<g>
			<path class="st0" d="M34.3,49.5V51c0,0.7,0.5,1.2,1.2,1.2h6.4c0.7,0,1.2-0.5,1.2-1.2v-1.5H34.3z M41.3,50.8h-5.4v-0.9h5.4V50.8z"
				/>
		</g>
	</g>
</g>
</svg>
