<?xml version="1.0" encoding="utf-8"?>
<!-- Generator: Adobe Illustrator 22.0.1, SVG Export Plug-In . SVG Version: 6.00 Build 0)  -->
<svg version="1.1" id="Layer_1" xmlns="http://www.w3.org/2000/svg" xmlns:xlink="http://www.w3.org/1999/xlink" x="0px" y="0px"
	 viewBox="0 0 100 100" style="enable-background:new 0 0 100 100;" xml:space="preserve">
<style type="text/css">
	.st0{fill:none;stroke:#000000;stroke-miterlimit:10;}
	.st1{fill:#F0AB00;}
	.st2{fill:#918831;}
	.st3{fill:#40875E;}
	.st4{fill:none;}
	.st5{fill:#A8A240;}
	.st6{fill-rule:evenodd;clip-rule:evenodd;fill:#40875E;}
	.st7{fill:#609A7F;}
	.st8{fill:#008FD3;}
	.st9{fill:#DB9821;}
	.st10{fill:#231F20;stroke-width: 1;stroke: #000;}
	.st11{fill:none;stroke:#000000;stroke-width:3;stroke-miterlimit:10;}
	.st12{fill:#EFAA1E;}
	.st13{fill:#FFFFFF;}
	.st14{fill-rule:evenodd;clip-rule:evenodd;fill:#A8A240;}
	.st15{fill-rule:evenodd;clip-rule:evenodd;fill:#F0AB00;}
	.st16{fill:#A69F3D;}
	.st17{fill:none;stroke:#000000;}
	.st18{fill:none;stroke:#FFFFFF;stroke-width:2;stroke-miterlimit:10;}
	.st19{fill:none;stroke:#F0AB00;stroke-width:4;stroke-miterlimit:10;}
	.st20{fill:none;stroke:#918831;stroke-width:4;stroke-miterlimit:10;}
	.st21{fill:#348761;}
	.st22{fill:none;stroke:#40875E;stroke-width:13;stroke-miterlimit:10;}
	.st23{fill:none;stroke:#40875E;stroke-width:6;stroke-miterlimit:10;}
	.st24{fill:none;stroke:#918831;stroke-width:19;stroke-miterlimit:10;}
	.st25{fill:none;stroke:#000000;stroke-width:4;stroke-miterlimit:10;}
	.st26{fill:none;stroke:#F0AB00;stroke-width:11;stroke-miterlimit:10;}
	.st27{fill:#0DB7AD;}
	.st28{fill:#0771BB;}
	.st29{fill:#ED580C;}
	.st30{fill:#0F5869;}
	.st31{fill:#08373E;}
	.st32{fill:#00BCBF;}
	.st33{fill:#FAB300;}
	.st34{fill:#0AB7BB;}
	.st35{fill:#FB6863;}
	.st36{fill:#037CAB;}
	.st37{fill:#56CFF6;}
	.st38{fill:#E13200;}
	.st39{fill:#FAAF00;}
	.st40{fill:#F19104;}
	.st41{fill:#E33B05;}
	.st42{fill:#05395F;}
	.st43{fill:#0DB1AB;}
	.st44{fill:#08373E;stroke:#000000;stroke-width:3;stroke-miterlimit:10;}
</style>
<g>
	<path class="st10" d="M81,83.2H19c-10.5,0-19-8.5-19-19c0-7.9,5-15,12.4-17.7l0-0.4c0-16.2,13.1-29.3,29.3-29.3
		c9.3,0,18,4.5,23.6,12c1.5-0.4,2.8-0.6,4.1-0.6c9.4,0,17.1,7.7,17.1,17.1c0,0.2,0,0.5,0,0.7c8,2.4,13.5,9.8,13.5,18.1
		C100,74.7,91.5,83.2,81,83.2z M41.7,17.5c-15.8,0-28.6,12.8-28.6,28.6l0,0.9l-0.3,0.1C5.6,49.7,0.7,56.5,0.7,64.2
		c0,10.1,8.2,18.2,18.2,18.2H81c10.1,0,18.2-8.2,18.2-18.2c0-8.1-5.5-15.3-13.3-17.5l-0.3-0.1l0-0.3c0-0.3,0-0.6,0-0.9
		c0-9-7.4-16.4-16.4-16.4c-1.3,0-2.6,0.2-4.1,0.6L65,29.7l-0.1-0.2C59.5,22,50.8,17.5,41.7,17.5z"/>
	<path class="st5" d="M37.6,41.3h20.1v6.6c0,0,1.5,2.6,1.5,2.6v-9.2c0-1-0.8-1.8-1.7-1.8H37.8c-1,0-1.7,0.8-1.7,1.8v1.9h1.5
		L37.6,41.3L37.6,41.3z"/>
	<path class="st3" d="M37.6,36.6h20.1V39c0,0,1.5,0.1,1.5,0.1v-2.5c0-1-0.8-1.8-1.7-1.8H37.8c-1,0-1.7,0.8-1.7,1.8v2.2h1.5
		L37.6,36.6L37.6,36.6z"/>
	<path class="st5" d="M37.6,32h20.1v2.4c0,0,1.5,0,1.5,0V32c0-1-0.8-1.8-1.7-1.8H37.8c-1,0-1.7,0.8-1.7,1.8v2.2h1.5L37.6,32L37.6,32
		z"/>
	<path class="st1" d="M38.7,46.2h11.4l0,4.5c0,0.5,0.2,1,0.5,1.3c0.4,0.4,0.8,0.5,1.3,0.5h4.6v10.9h2.7V52.8c0-1.2-0.5-2.3-1.3-3.2
		l-4.9-4.9c-0.8-0.9-2-1.3-3.2-1.3h-12c-1.1,0-1.9,0.9-1.9,1.9v18.1h2.7V46.2z M52.8,48.2l1.7,1.7l-1.7,0V48.2z M52.8,48.2"/>
	<path class="st3" d="M61,57.1v5.1l0.9,1.4c0.2,0.3,0.2,0.7,0,1c-0.2,0.3-0.5,0.5-0.9,0.5H34.5c-0.3,0-0.7-0.2-0.9-0.5
		c-0.2-0.3-0.2-0.7,0-1l0.7-1.1v-5.1l-4,6.4c-0.5,0.9-0.8,1.9-0.8,2.9v9.8c0,1.9,1.6,3.5,3.5,3.5h29.5c1.9,0,3.5-1.6,3.5-3.5v-9.8
		c0-1-0.3-2.1-0.8-2.9L61,57.1z M61,57.1"/>
	<path d="M54.8,56.7H40.5c-0.1,0-0.2-0.1-0.2-0.2c0-0.1,0.1-0.2,0.2-0.2h14.3c0.1,0,0.2,0.1,0.2,0.2C55,56.6,54.9,56.7,54.8,56.7z"
		/>
	<path d="M54.8,60.8H40.5c-0.1,0-0.2-0.1-0.2-0.2c0-0.1,0.1-0.2,0.2-0.2h14.3c0.1,0,0.2,0.1,0.2,0.2C55,60.7,54.9,60.8,54.8,60.8z"
		/>
	<path d="M45,53.5h-3.4c-0.7,0-1.2-0.5-1.2-1.2v-3.1c0-0.7,0.5-1.2,1.2-1.2H45c0.7,0,1.2,0.5,1.2,1.2h-0.4c0-0.4-0.4-0.8-0.8-0.8
		h-3.4c-0.4,0-0.8,0.4-0.8,0.8v3.1c0,0.4,0.4,0.8,0.8,0.8H45c0.4,0,0.8-0.4,0.8-0.8h0.4C46.2,52.9,45.6,53.5,45,53.5z"/>
	<polygon points="43.4,52.1 42,50.4 42.3,50.1 43.5,51.5 48,48.9 48.2,49.2 	"/>
</g>
</svg>
