<?xml version="1.0" encoding="utf-8"?>
<!-- Generator: Adobe Illustrator 25.0.0, SVG Export Plug-In . SVG Version: 6.00 Build 0)  -->
<svg version="1.1" id="Layer_1" xmlns="http://www.w3.org/2000/svg" xmlns:xlink="http://www.w3.org/1999/xlink" x="0px" y="0px"
	 viewBox="0 0 100 100" style="enable-background:new 0 0 100 100;" xml:space="preserve">
<style type="text/css">
	.st0{fill:#F0AB00;}
	.st1{fill:#008FD3;}
	.st2{fill:#609A7F;}
	.st3{fill:#A8A240;}
	.st4{fill-rule:evenodd;clip-rule:evenodd;fill:#008FD3;}
	.st5{fill-rule:evenodd;clip-rule:evenodd;fill:#F0AB00;}
	.st6{fill-rule:evenodd;clip-rule:evenodd;fill:#609A7F;}
	.st7{fill-rule:evenodd;clip-rule:evenodd;fill:#A8A240;}
	.st8{fill:none;stroke:#000000;}
	.st9{fill:none;}
	.st10{fill:#FFFFFF;}
	.st11{fill:#40875E;}
	.st12{fill:#231F20;}
	.st13{fill-rule:evenodd;clip-rule:evenodd;fill:#40875E;}
	.st14{stroke:#231F20;stroke-width:0.5;stroke-miterlimit:10;}
	.st15{fill-rule:evenodd;clip-rule:evenodd;}
</style>
<g>
	<path d="M42.03,50.11c2.72,0,5.29,0,7.99,0c0-0.44,0-0.84,0-1.24c0-13.01,0-26.02,0-39.04c0-1.98,0.56-2.55,2.51-2.55
		c5.32,0,10.65,0,15.97,0c1.41,0,2.3,0.82,2.21,1.99c-0.08,1.05-0.88,1.72-2.09,1.72c-4.57,0.01-9.14,0-13.7,0c-0.34,0-0.68,0-1.1,0
		c0,13.06,0,26.04,0,39.15c0.39,0,0.76,0,1.13,0c4.69,0,9.39-0.01,14.08,0c1.63,0,2.58,1.4,1.87,2.72c-0.45,0.83-1.22,1-2.09,1
		c-4.6-0.01-9.2-0.01-13.8-0.01c-0.37,0-0.75,0-1.19,0c0,11.71,0,23.34,0,35.07c0.37,0,0.71,0,1.05,0c4.57,0,9.14,0,13.7,0
		c1.15,0,1.85,0.49,2.08,1.41c0.32,1.27-0.56,2.3-2,2.31c-4.22,0.01-8.44,0-12.66,0c-1.23,0-2.46,0-3.69,0
		c-1.63,0-2.27-0.65-2.27-2.3c0-11.72,0-23.44,0-35.16c0-0.4,0-0.8,0-1.27c-2.69,0-5.28,0-7.99,0c0,0.37,0,0.71,0,1.05
		c0,4.41,0,8.82,0,13.23c-0.01,4.09-2.66,6.74-6.74,6.74c-8.54,0-17.07,0-25.61,0c-4.19,0-6.8-2.58-6.8-6.75
		c-0.01-12.19-0.01-24.39,0-36.58c0-3.92,2.66-6.62,6.56-6.62c8.66-0.01,17.33-0.01,25.99,0c3.9,0.01,6.59,2.71,6.6,6.6
		c0.01,5.77,0,11.53,0,17.3C42.03,49.28,42.03,49.65,42.03,50.11z M38.31,49.99c0-6.05,0-12.09,0-18.14c0-2.14-0.97-3.11-3.11-3.11
		c-8.47,0-16.94,0-25.42,0c-2.25,0-3.22,0.96-3.22,3.21c0,12,0,24,0,36c0,2.38,0.95,3.33,3.32,3.33c8.41,0,16.82,0,25.23,0
		c2.24,0,3.2-0.98,3.2-3.24C38.31,62.02,38.31,56,38.31,49.99z"/>
	<path class="st0" d="M85.38,60.77c-3.18,0-6.36,0-9.54,0c-1.5,0-2.13-0.63-2.13-2.12c-0.01-4.44-0.01-8.88,0-13.32
		c0-1.42,0.68-2.11,2.08-2.11c6.42-0.01,12.84-0.01,19.26,0c1.42,0,2.07,0.66,2.07,2.1c0.01,4.44,0.01,8.88,0,13.32
		c0,1.55-0.62,2.13-2.2,2.14C91.74,60.78,88.56,60.77,85.38,60.77z"/>
	<path class="st3" d="M85.44,17.94c-3.15,0-6.29,0-9.44,0c-1.66,0-2.29-0.62-2.29-2.27c-0.01-4.38-0.01-8.75,0-13.13
		c0-1.5,0.64-2.15,2.11-2.15c6.39-0.01,12.78-0.01,19.17,0c1.51,0,2.13,0.62,2.14,2.12c0.01,4.44,0.01,8.88,0,13.31
		c0,1.48-0.64,2.11-2.14,2.12C91.8,17.95,88.62,17.94,85.44,17.94z"/>
	<path class="st3" d="M85.46,82.04c3.15,0,6.3-0.01,9.44,0c1.62,0,2.22,0.6,2.22,2.23c0.01,4.38,0.01,8.75,0,13.13
		c0,1.59-0.63,2.22-2.25,2.22c-6.3,0.01-12.59,0.01-18.89,0c-1.64,0-2.28-0.65-2.28-2.3c-0.01-4.34,0-8.69,0-13.03
		c0-1.61,0.62-2.24,2.22-2.24C79.1,82.03,82.28,82.04,85.46,82.04z"/>
	<path class="st11" d="M38.14,74.93H7.92c-2.79,0-5.05-2.26-5.05-5.05V29.73c0-2.79,2.26-5.05,5.05-5.05h30.23
		c2.79,0,5.05,2.26,5.05,5.05v40.16C43.19,72.67,40.93,74.93,38.14,74.93z"/>
</g>
</svg>
