<?xml version="1.0" encoding="utf-8"?>
<!-- Generator: Adobe Illustrator 26.5.0, SVG Export Plug-In . SVG Version: 6.00 Build 0)  -->
<svg version="1.1" id="Layer_1" xmlns="http://www.w3.org/2000/svg" xmlns:xlink="http://www.w3.org/1999/xlink" x="0px" y="0px"
	 viewBox="0 0 36 36" style="enable-background:new 0 0 36 36;" xml:space="preserve">
<style type="text/css">
	.st0{fill:#3A80E8;}
	.st1{fill:#E80A0A;}
	.st2{fill:#4CC058;}
	.st3{fill:none;stroke:#E80A0A;stroke-width:1.4;stroke-miterlimit:10;}
	.st4{fill:none;stroke:#E80A0A;stroke-width:1.5;stroke-linecap:round;stroke-miterlimit:10;}
	.st5{fill:#FFFFFF;}
	.st6{fill:#044FB9;}
	.st7{fill:none;stroke:#3A80E8;stroke-width:1.5;stroke-miterlimit:10;}
	.st8{fill:none;stroke:#044FB9;stroke-width:1.5;stroke-miterlimit:10;}
	.st9{fill:#063E82;}
	.st10{fill:#A0C8F9;}
</style>
<g>
	<g>
		<path class="st9" d="M4.4,16.2H0V0h13.2v5.6c0,0.3-0.2,0.5-0.5,0.5s-0.5-0.2-0.5-0.5V1H1.1v14.1h3.3c0.3,0,0.5,0.2,0.5,0.5
			C4.9,15.9,4.7,16.2,4.4,16.2z"/>
	</g>
	<g>
		<path class="st9" d="M28.7,30.2c-1.8,0-3.5-0.2-4.8-0.6c-0.3-0.1-0.4-0.4-0.4-0.6c0.1-0.3,0.4-0.4,0.6-0.4
			c1.2,0.4,2.8,0.6,4.5,0.6c4.1,0,6.3-1.1,6.3-1.6c0-0.5-2-1.5-5.7-1.6c-0.3,0-0.5-0.2-0.5-0.5c0-0.3,0.3-0.5,0.5-0.5
			c3.3,0.1,6.7,1,6.7,2.7C36,29.3,32.3,30.2,28.7,30.2z"/>
	</g>
	<g>
		<path class="st9" d="M28.7,36c-3.6,0-7.3-0.9-7.3-2.7c0-0.4,0.2-1,1.1-1.5c0.2-0.1,0.6-0.1,0.7,0.2c0.1,0.2,0.1,0.6-0.2,0.7
			c-0.4,0.2-0.6,0.5-0.6,0.6c0,0.6,2.2,1.6,6.3,1.6s6.3-1.1,6.3-1.6v-5.8c0-0.3,0.2-0.5,0.5-0.5c0.3,0,0.5,0.2,0.5,0.5v5.8
			C36,35.1,32.3,36,28.7,36z"/>
	</g>
	<g>
		<path class="st9" d="M9.9,6.7H3.4c-0.3,0-0.5-0.2-0.5-0.5s0.2-0.5,0.5-0.5h6.4c0.3,0,0.5,0.2,0.5,0.5S10.1,6.7,9.9,6.7z"/>
	</g>
	<g>
		<path class="st9" d="M6.9,10.7H3.4c-0.3,0-0.5-0.2-0.5-0.5s0.2-0.5,0.5-0.5h3.5c0.3,0,0.5,0.2,0.5,0.5S7.2,10.7,6.9,10.7z"/>
	</g>
	<g>
		<path class="st9" d="M18,31c-0.5,0-0.9-0.3-1-0.8l-0.4-1.8c-0.7,0-1.5-0.2-2.2-0.4l-1,1.6c-0.3,0.5-0.9,0.6-1.4,0.3L9.4,28
			c-0.2-0.1-0.4-0.4-0.4-0.6c-0.1-0.3,0-0.5,0.2-0.8l1-1.6c-0.5-0.5-0.9-1.2-1.2-1.8l-1.8,0.4c-0.3,0.1-0.5,0-0.8-0.2
			c-0.2-0.2-0.4-0.4-0.4-0.6l-0.6-3.2c-0.1-0.3,0-0.5,0.2-0.8c0.2-0.2,0.4-0.4,0.6-0.4L7.9,18c0-0.7,0.2-1.5,0.4-2.2l-1.6-1
			c-0.5-0.3-0.6-0.9-0.3-1.4l1.8-2.7c0.3-0.5,0.9-0.6,1.4-0.3l1.6,1c0.5-0.5,1.2-0.9,1.8-1.2l-0.4-1.8c-0.1-0.3,0-0.5,0.2-0.8
			c0.2-0.2,0.4-0.4,0.6-0.4l3.2-0.6c0.3-0.1,0.5,0,0.8,0.2c0.2,0.2,0.4,0.4,0.4,0.6l0.4,1.8c0.7,0,1.5,0.2,2.2,0.4l1-1.6
			c0.2-0.2,0.4-0.4,0.6-0.4c0.3-0.1,0.5,0,0.8,0.2l2.7,1.8c0.5,0.3,0.6,0.9,0.3,1.4l-1,1.6c0.5,0.5,0.9,1.2,1.2,1.8l1.8-0.4
			c0.5-0.1,1.1,0.2,1.2,0.8l0.6,3.2c0.1,0.3,0,0.5-0.2,0.8c-0.2,0.2-0.4,0.4-0.6,0.4l-1.8,0.4c0,0.7-0.2,1.5-0.4,2.2l1.6,1
			c0.5,0.3,0.6,0.9,0.3,1.4l-1.8,2.7c-0.1,0.2-0.4,0.4-0.6,0.4c-0.3,0.1-0.5,0-0.8-0.2l-1.6-1c-0.5,0.5-1.2,0.9-1.8,1.2l0.4,1.8
			c0.1,0.3,0,0.5-0.2,0.8c-0.2,0.2-0.4,0.4-0.6,0.4L18.2,31C18.2,31,18.1,31,18,31z M14.5,26.9c0.1,0,0.2,0,0.3,0
			c0.6,0.2,1.3,0.3,2,0.4c0.5,0,0.8,0.4,0.9,0.8l0.4,1.8l3.2-0.7l-0.4-1.8c-0.1-0.4,0.1-0.9,0.5-1.1c0.6-0.3,1.2-0.7,1.7-1.1
			c0.3-0.3,0.9-0.3,1.2-0.1l1.6,1l1.8-2.7l-1.6-1c-0.4-0.2-0.5-0.7-0.4-1.2c0.2-0.6,0.3-1.3,0.4-1.9c0-0.5,0.4-0.8,0.8-0.9l1.8-0.4
			l-0.7-3.1l-1.8,0.4c-0.4,0.1-0.9-0.1-1.1-0.5c-0.3-0.6-0.7-1.1-1.1-1.7c-0.3-0.3-0.3-0.8-0.1-1.2l1-1.6l-2.7-1.8l-1,1.6
			c-0.3,0.4-0.7,0.5-1.2,0.4c-0.6-0.2-1.3-0.3-2-0.4c-0.5,0-0.8-0.4-0.9-0.8l-0.4-1.8l-3.2,0.7l0.4,1.8c0.1,0.4-0.1,0.9-0.5,1.1
			c-0.6,0.3-1.1,0.7-1.7,1.1c-0.3,0.3-0.9,0.3-1.2,0.1l-1.6-1L7.3,14l1.6,1c0.4,0.2,0.5,0.7,0.4,1.2c-0.2,0.6-0.3,1.3-0.4,1.9
			c0,0.5-0.4,0.8-0.8,0.9l-1.9,0.4l0.7,3.2l1.8-0.4c0.4-0.1,0.9,0.1,1.1,0.5c0.3,0.6,0.7,1.1,1.1,1.7c0.3,0.3,0.3,0.9,0.1,1.2
			l-1,1.6l2.7,1.8l1-1.6C13.9,27.1,14.2,26.9,14.5,26.9z M28,14.5L28,14.5L28,14.5z M17.5,24.1c-2.5,0-4.7-1.7-5.2-4.3
			c-0.6-2.9,1.3-5.6,4.1-6.2c2.9-0.6,5.6,1.3,6.2,4.1c0.3,1.4,0,2.8-0.8,4s-2,2-3.4,2.2h0C18.2,24,17.8,24.1,17.5,24.1z M18.4,23.5
			L18.4,23.5L18.4,23.5z M17.5,14.6c-0.3,0-0.5,0-0.8,0.1c-2.3,0.5-3.8,2.7-3.3,5c0.5,2.3,2.7,3.8,5,3.3c1.1-0.2,2.1-0.9,2.7-1.8
			c0.6-0.9,0.9-2.1,0.6-3.2C21.2,16,19.5,14.6,17.5,14.6z"/>
	</g>
</g>
</svg>
