<svg id="Layer_1" data-name="Layer 1" xmlns="http://www.w3.org/2000/svg" viewBox="0 0 32 32"><defs><style>.cls-1{fill:#1554af;}.cls-2{fill:#41a5ee;}.cls-3{fill:#0d3d82;}.cls-4{fill:#103f91;}.cls-5{fill:#2b7cd3;}.cls-6{fill:#185abd;}.cls-7{opacity:0.5;isolation:isolate;}.cls-8{fill:#fff;}</style></defs><ellipse class="cls-1" cx="21.31" cy="12.84" rx="10.68" ry="3.71"/><ellipse class="cls-2" cx="21.31" cy="5.3" rx="10.68" ry="4.09"/><ellipse class="cls-3" cx="21.31" cy="21.49" rx="10.68" ry="3.86"/><path class="cls-4" d="M28.09,24.25a26,26,0,0,1-13.58,0c-2.18-.72-3.63-1.77-3.85-2.95a1.45,1.45,0,0,0,0,.3v6.19c0,2.33,4.79,4.22,10.7,4.22S32,30.11,32,27.78V21.59a1,1,0,0,0,0-.3C31.75,22.48,30.29,23.54,28.09,24.25Z"/><path class="cls-5" d="M21.32,0c-5.91,0-10.7,1.89-10.7,4.23v6.19c0,2.33,4.79,4.23,10.7,4.23S32,12.75,32,10.42V4.23C32,1.89,27.22,0,21.32,0Zm0,8.9c-4.72,0-8.55-1.51-8.55-3.38s3.83-3.38,8.55-3.38,8.54,1.51,8.54,3.38S26,8.9,21.32,8.9Z"/><path class="cls-6" d="M21.32,16.47c-5.65,0-10.26-1.74-10.66-3.93a1.54,1.54,0,0,0,0,.3V19c0,1.33,1.55,2.51,4,3.29a25.32,25.32,0,0,0,14.11-.24h0c2-.77,3.29-1.85,3.29-3.05v-6.2a1.05,1.05,0,0,0,0-.3C31.58,14.74,27,16.47,21.32,16.47Z"/><path class="cls-7" d="M19.16,10.74l-8.55-.05,0,17.38a2,2,0,0,0,.34.82l8.17.05a1.43,1.43,0,0,0,1.43-1.43V12.17A1.43,1.43,0,0,0,19.16,10.74Z"/><rect class="cls-6" x="-0.11" y="9.88" width="18.54" height="18.19" rx="1.09"/><path class="cls-8" d="M3.26,19.78a3.64,3.64,0,0,0,3.38,3.71h.19V22.43a2.45,2.45,0,0,1-.19-4.9h.13V16.47A3.41,3.41,0,0,0,3.26,19.78Z"/><path class="cls-8" d="M1.08,19.32l.53.26a.38.38,0,0,1,.2.33v.27c0,.07-.07.13-.2.2l-.53.26A.24.24,0,0,0,.94,21l.27.93a.38.38,0,0,0,.33.2h.6a.36.36,0,0,1,.33.2c.06.13.2.46.13.59l-.27.53c-.06.13-.06.33.07.4l.66.66c.13.07.27.13.4,0l.46-.33a.41.41,0,0,1,.4,0c.13.07.4.33.4.46v.6c0,.13.13.26.2.33l.92.2c.13,0,.33-.07.33-.2L6.44,25a.36.36,0,0,1,.33-.2h0v-1h-.2a4.06,4.06,0,0,1-3.84-4.17,4,4,0,0,1,4-3.84v-1H6.44c-.07,0-.14-.07-.2-.2L6,14.29a.24.24,0,0,0-.33-.13l-.92.26a.36.36,0,0,0-.2.33v.6c0,.13-.07.33-.2.33s-.46.2-.53.13l-.53-.26c-.13-.07-.33-.07-.4.06l-.66.67c-.06.13-.13.26,0,.39l.33.47a.39.39,0,0,1,0,.39c-.06.13-.33.4-.46.4h-.6c-.13,0-.26.13-.33.2l-.2.92C.88,19.12.94,19.25,1.08,19.32Z"/><rect class="cls-8" x="8.09" y="14.69" width="0.86" height="0.86"/><rect class="cls-8" x="8.36" y="16.67" width="0.86" height="0.86"/><rect class="cls-8" x="10.01" y="16.34" width="0.86" height="0.86"/><rect class="cls-8" x="9.81" y="18.59" width="0.86" height="0.86"/><rect class="cls-8" x="11.8" y="17.66" width="0.86" height="0.86"/><rect class="cls-8" x="15.77" y="18" width="0.86" height="0.86"/><rect class="cls-8" x="14.38" y="14.69" width="0.86" height="0.86"/><rect class="cls-8" x="11.53" y="15.15" width="0.86" height="0.86"/><rect class="cls-8" x="16.36" y="19.65" width="0.86" height="0.86"/><rect class="cls-8" x="13.45" y="18.92" width="0.86" height="0.86"/><rect class="cls-8" x="11.53" y="19.78" width="0.86" height="0.86"/><rect class="cls-8" x="14.38" y="20.51" width="0.86" height="0.86"/><rect class="cls-8" x="14.11" y="16.61" width="0.86" height="0.86"/><rect class="cls-8" x="11.33" y="21.37" width="0.86" height="0.86"/><rect class="cls-8" x="12.59" y="21.9" width="0.86" height="0.86"/><rect class="cls-8" x="9.48" y="20.71" width="0.86" height="0.86"/><rect class="cls-8" x="7.69" y="19.12" width="0.86" height="0.86"/><rect class="cls-8" x="7.69" y="21.7" width="0.86" height="0.86"/><rect class="cls-8" x="8.09" y="23.89" width="0.86" height="0.86"/><rect class="cls-8" x="9.75" y="23.22" width="0.86" height="0.86"/></svg>