<?xml version="1.0" encoding="utf-8"?>
<!-- Generator: Adobe Illustrator 22.0.1, SVG Export Plug-In . SVG Version: 6.00 Build 0)  -->
<svg version="1.1" id="Layer_1" xmlns="http://www.w3.org/2000/svg" xmlns:xlink="http://www.w3.org/1999/xlink" x="0px" y="0px"
	 viewBox="0 0 30 30" style="enable-background:new 0 0 30 30;" xml:space="preserve">
<style type="text/css">
	.st0{fill:#40875E;}
	.st1{fill:#F0AB00;}
	.st2{fill:#A8A240;}
	.st3{fill:none;stroke:#000000;stroke-miterlimit:10;}
</style>
<g>
	<g>
		<g>
			<path class="st0" d="M15.3,9.9c-0.6,0-1,0.2-1.3,0.6c-0.3,0.4-0.5,1.1-0.5,2c0,0.6,0.1,1.1,0.4,1.5c0.3,0.5,0.7,0.7,1.3,0.7
				c0.6,0,1-0.3,1.3-0.8c0.3-0.5,0.4-1.1,0.4-1.8c0-0.6-0.1-1.1-0.4-1.5C16.3,10.2,15.8,9.9,15.3,9.9z"/>
			<path class="st0" d="M25.4,0H4.6C4,0,3.4,0.6,3.4,1.2v27.6C3.4,29.4,4,30,4.6,30l15.9,0l6.1-6.5V1.2C26.6,0.6,26,0,25.4,0z
				 M6.1,13.7v0.2c0,0.3,0,0.6,0,0.8c0,0.3-0.1,0.5-0.2,0.7c-0.2,0.3-0.4,0.5-0.6,0.6c-0.2,0.1-0.5,0.2-0.9,0.3l-0.1-0.4
				c0.3-0.1,0.5-0.3,0.6-0.6c0.1-0.2,0.1-0.6,0.1-1.1v-0.4V9.6c0.1,0,0.2,0,0.4,0c0.1,0,0.2,0,0.2,0c0.1,0,0.2,0,0.2,0
				c0.2,0,0.4,0,0.4,0V13.7z M10.5,14.7c-0.4,0.3-0.9,0.5-1.5,0.5c-0.2,0-0.5,0-0.7-0.1C8,15,7.8,14.9,7.6,14.8
				c0.1-0.2,0.1-0.4,0.1-0.5c0-0.1,0.1-0.3,0.1-0.5H8c0.1,0.3,0.2,0.5,0.4,0.6c0.2,0.2,0.4,0.2,0.7,0.2c0.3,0,0.5-0.1,0.7-0.2
				c0.2-0.1,0.3-0.3,0.3-0.6c0-0.3-0.2-0.6-0.6-0.8c-0.4-0.2-0.8-0.4-1.1-0.6c-0.4-0.3-0.6-0.7-0.6-1.3c0-0.5,0.2-0.9,0.5-1.2
				c0.3-0.3,0.8-0.5,1.4-0.5c0.3,0,0.5,0,0.8,0.1c0.2,0.1,0.4,0.2,0.5,0.3c-0.1,0.2-0.1,0.3-0.1,0.4c-0.1,0.2-0.1,0.3-0.1,0.4h-0.1
				c-0.1-0.2-0.2-0.4-0.4-0.5C9.9,10,9.7,9.9,9.5,9.9C9.2,9.9,9,10,8.8,10.1c-0.1,0.1-0.2,0.3-0.2,0.6c0,0.3,0.2,0.5,0.6,0.8
				c0.8,0.4,1.1,0.6,1.2,0.7c0.4,0.3,0.6,0.8,0.6,1.3C11,13.9,10.8,14.3,10.5,14.7z M17.4,14.3c-0.6,0.6-1.4,0.9-2.3,0.9
				c-0.9,0-1.6-0.2-2.2-0.7c-0.5-0.5-0.8-1.2-0.8-2.1c0-0.8,0.3-1.5,0.8-2c0.6-0.6,1.3-0.8,2.3-0.8c1,0,1.8,0.3,2.3,1
				c0.4,0.5,0.6,1.1,0.6,1.9C18.3,13.1,18,13.8,17.4,14.3z M24.7,15.1L24,15c-0.5-0.5-0.9-1-1.3-1.5c-0.5-0.5-0.9-1-1.3-1.5
				l-0.9-0.9v3.9l-0.3,0l-0.3,0V9.6h0.8c0.4,0.4,0.7,0.8,1.1,1.2c0.2,0.2,0.6,0.7,1.2,1.3c0.6,0.6,0.9,1,1.1,1.3V9.6l0.3,0l0.3,0
				V15.1z"/>
		</g>
	</g>
	<g>
		<path class="st1" d="M15.3,9.9c-0.6,0-1,0.2-1.3,0.6c-0.3,0.4-0.5,1.1-0.5,2c0,0.6,0.1,1.1,0.4,1.5c0.3,0.5,0.7,0.7,1.3,0.7
			c0.6,0,1-0.3,1.3-0.8c0.3-0.5,0.4-1.1,0.4-1.8c0-0.6-0.1-1.1-0.4-1.5C16.3,10.2,15.8,9.9,15.3,9.9z"/>
		<path class="st1" d="M27.7,6.3H2.3c-0.7,0-1.2,0.5-1.2,1.2v9.6c0,0.7,0.5,1.2,1.2,1.2h25.3c0.7,0,1.2-0.5,1.2-1.2V7.5
			C28.9,6.8,28.3,6.3,27.7,6.3z M6.1,13.7v0.2c0,0.3,0,0.6,0,0.8c0,0.3-0.1,0.5-0.2,0.7c-0.2,0.3-0.4,0.5-0.6,0.6
			c-0.2,0.1-0.5,0.2-0.9,0.3l-0.1-0.4c0.3-0.1,0.5-0.3,0.6-0.6c0.1-0.2,0.1-0.6,0.1-1.1v-0.4V9.6c0.1,0,0.2,0,0.4,0
			c0.1,0,0.2,0,0.2,0c0.1,0,0.2,0,0.2,0c0.2,0,0.4,0,0.4,0V13.7z M10.5,14.7c-0.4,0.3-0.9,0.5-1.5,0.5c-0.2,0-0.5,0-0.7-0.1
			C8,15,7.8,14.9,7.6,14.8c0.1-0.2,0.1-0.4,0.1-0.5c0-0.1,0.1-0.3,0.1-0.5H8c0.1,0.3,0.2,0.5,0.4,0.6c0.2,0.2,0.4,0.2,0.7,0.2
			c0.3,0,0.5-0.1,0.7-0.2c0.2-0.1,0.3-0.3,0.3-0.6c0-0.3-0.2-0.6-0.6-0.8c-0.4-0.2-0.8-0.4-1.1-0.6c-0.4-0.3-0.6-0.7-0.6-1.3
			c0-0.5,0.2-0.9,0.5-1.2c0.3-0.3,0.8-0.5,1.4-0.5c0.3,0,0.5,0,0.8,0.1c0.2,0.1,0.4,0.2,0.5,0.3c-0.1,0.2-0.1,0.3-0.1,0.4
			c-0.1,0.2-0.1,0.3-0.1,0.4h-0.1c-0.1-0.2-0.2-0.4-0.4-0.5C9.9,10,9.7,9.9,9.5,9.9C9.2,9.9,9,10,8.8,10.1c-0.1,0.1-0.2,0.3-0.2,0.6
			c0,0.3,0.2,0.5,0.6,0.8c0.8,0.4,1.1,0.6,1.2,0.7c0.4,0.3,0.6,0.8,0.6,1.3C11,13.9,10.8,14.3,10.5,14.7z M17.4,14.3
			c-0.6,0.6-1.4,0.9-2.3,0.9c-0.9,0-1.6-0.2-2.2-0.7c-0.5-0.5-0.8-1.2-0.8-2.1c0-0.8,0.3-1.5,0.8-2c0.6-0.6,1.3-0.8,2.3-0.8
			c1,0,1.8,0.3,2.3,1c0.4,0.5,0.6,1.1,0.6,1.9C18.3,13.1,18,13.8,17.4,14.3z M24.7,15.1L24,15c-0.5-0.5-0.9-1-1.3-1.5
			c-0.5-0.5-0.9-1-1.3-1.5l-0.9-0.9v3.9l-0.3,0l-0.3,0V9.6h0.8c0.4,0.4,0.7,0.8,1.1,1.2c0.2,0.2,0.6,0.7,1.2,1.3
			c0.6,0.6,0.9,1,1.1,1.3V9.6l0.3,0l0.3,0V15.1z"/>
	</g>
	<polygon class="st2" points="20.5,29.9 20.5,23.2 26.6,23.4 	"/>
</g>
</svg>
