<?xml version="1.0" encoding="utf-8"?>
<!-- Generator: Adobe Illustrator 25.0.0, SVG Export Plug-In . SVG Version: 6.00 Build 0)  -->
<svg version="1.1" id="Layer_1" xmlns="http://www.w3.org/2000/svg" xmlns:xlink="http://www.w3.org/1999/xlink" x="0px" y="0px"
	 viewBox="0 0 36 36" style="enable-background:new 0 0 36 36;" xml:space="preserve">
<style type="text/css">
	.st0{fill:#CB1618;}
	.st1{fill:#185ABD;}
	.st2{fill:#D83039;}
	.st3{fill:#103F91;}
	.st4{fill:#185C37;}
	.st5{fill:#33C481;}
	.st6{fill:#107C41;}
	.st7{fill:#21A366;}
	.st8{fill:#0B4A99;}
	.st9{fill:none;}
	.st10{fill:#FFFFFF;}
	.st11{fill:#41A5EE;}
	.st12{fill:#2B7CD3;}
	.st13{opacity:0.5;enable-background:new    ;}
	.st14{fill:url(#SVGID_1_);}
	.st15{fill:url(#SVGID_2_);}
	.st16{fill:url(#SVGID_3_);}
	.st17{fill:url(#SVGID_4_);}
	.st18{fill:#E24951;}
	.st19{fill-rule:evenodd;clip-rule:evenodd;}
	.st20{fill:#262625;}
	.st21{fill:none;stroke:#000000;stroke-width:0.75;stroke-miterlimit:10;}
	.st22{fill:none;stroke:#000000;stroke-width:1.2;stroke-miterlimit:10;}
	.st23{fill-rule:evenodd;clip-rule:evenodd;fill:#0B4A99;}
	.st24{fill:none;stroke:#0071C5;stroke-width:1.3;stroke-linecap:round;stroke-miterlimit:10;}
	.st25{fill:none;stroke:#F0AB00;stroke-width:1.3;stroke-miterlimit:10;}
	.st26{fill:#1C55A6;}
	.st27{fill:none;stroke:#1C55A6;stroke-width:1.3;stroke-linecap:round;}
	.st28{fill-rule:evenodd;clip-rule:evenodd;fill:none;stroke:#1C55A6;stroke-width:1.3;stroke-linecap:round;}
	.st29{fill:none;stroke:#1C55A6;stroke-width:1.3;stroke-linecap:round;stroke-miterlimit:10;}
	.st30{fill:none;stroke:#231F20;}
	.st31{fill:none;stroke:#0B4A99;stroke-width:1.3;stroke-miterlimit:10;}
	.st32{fill:none;stroke:#0B4A99;stroke-miterlimit:10;}
</style>
<g>
	<path class="st32" d="M17.7,15.5l-6.2-3.7V4.7c0,0,0,0,0,0l6.3,3.7L17.7,15.5C17.7,15.5,17.7,15.5,17.7,15.5z"/>
	<path class="st32" d="M24.5,11.4l-6.7,4.1c0,0-0.1,0-0.1,0l0-7.1l6.7-4.1c0,0,0,0,0,0V11.4z"/>
	<path class="st32" d="M17.7,8.4l-6.3-3.7c0,0,0,0,0,0l6.3-4.1l6.7,3.8c0,0,0,0,0,0L17.7,8.4z"/>
	<path class="st32" d="M8.9,32.9l-6.2-3.7v-7.1c0,0,0,0,0,0L9,25.8L8.9,32.9C9,32.9,9,33,8.9,32.9z"/>
	<path class="st32" d="M15.8,28.9l-6.7,4.1c0,0-0.1,0-0.1,0l0-7.1l6.7-4.1c0,0,0,0,0,0V28.9z"/>
	<path class="st32" d="M9,25.8l-6.3-3.7c0,0,0,0,0,0L9,18l6.7,3.8c0,0,0,0,0,0L9,25.8z"/>
	<path class="st32" d="M26.5,32.9l-6.2-3.7v-7.1c0,0,0,0,0,0l6.3,3.7L26.5,32.9C26.6,32.9,26.5,33,26.5,32.9z"/>
	<path class="st32" d="M33.3,28.9l-6.7,4.1c0,0-0.1,0-0.1,0l0-7.1l6.7-4.1c0,0,0,0,0,0V28.9z"/>
	<path class="st32" d="M26.6,25.8l-6.3-3.7c0,0,0,0,0,0l6.3-4.1l6.7,3.8c0,0,0,0,0,0L26.6,25.8z"/>
	<path class="st32" d="M11.4,8.9l-6.2,3.6c-0.7,0.4-1.1,1.1-1.1,1.9v6.9"/>
	<path class="st32" d="M24.8,8.9l6.2,3.6c0.7,0.4,1.1,1.1,1.1,1.9v6.9"/>
	<path class="st32" d="M11.4,31.5l5.2,3.8c0.4,0.3,0.8,0.3,1.2,0l5.7-3.8"/>
</g>
</svg>
