<?xml version="1.0" encoding="utf-8"?>
<!-- Generator: Adobe Illustrator 25.0.0, SVG Export Plug-In . SVG Version: 6.00 Build 0)  -->
<svg version="1.1" id="Layer_1" xmlns="http://www.w3.org/2000/svg" xmlns:xlink="http://www.w3.org/1999/xlink" x="0px" y="0px"
	 viewBox="0 0 16 16" style="enable-background:new 0 0 16 16;" xml:space="preserve">
<style type="text/css">
	.st0{fill:#40875E;}
	.st1{fill:#F0AB00;}
	.st2{fill:#A8A240;}
</style>
<path class="st0" d="M11.41,9.31h-0.02c-0.07,0.29-0.14,0.59-0.24,0.89l-0.48,1.42h1.48l-0.49-1.42C11.56,9.89,11.48,9.6,11.41,9.31
	z"/>
<path class="st0" d="M15.24,6.54H7.6c-0.42,0-0.76,0.34-0.76,0.76v7.82c0,0.42,0.34,0.76,0.76,0.76h7.64c0.42,0,0.76-0.34,0.76-0.76
	V7.3C16,6.88,15.66,6.54,15.24,6.54z M12.8,13.67l-0.53-1.55h-1.74l-0.51,1.55H9.37l1.67-4.92h0.77l1.68,4.92H12.8z"/>
<path class="st0" d="M9.15,5.73V0.84c0-0.4-0.32-0.72-0.72-0.72H0.72C0.32,0.12,0,0.44,0,0.84v7.9c0,0.4,0.32,0.72,0.72,0.72h5.33
	V7.13c0-0.77,0.62-1.39,1.39-1.39H9.15z M3.26,1.59c0.38,0.42,1.39,0.14,1.39,0.14C4.7,2.3,4.16,2.28,4.16,2.28
	C3.15,2.27,3.26,1.59,3.26,1.59z M5.13,5.86c0,0-1.35-0.97-1.23-1.48C3.1,5.23,2.12,6.14,1.32,6.43c0,0-0.59,0.1,0.18-0.36
	c0,0,2.4-1.69,3.12-3.02l-1.5,0.12c0,0-0.85,0.55-0.87-0.22c0,0,2.79-0.21,3.17-0.37c0,0-0.65,0.86-1.5,1.78l1.48,1.31
	C5.39,5.68,5.58,6.1,5.13,5.86z"/>
<path class="st1" d="M3.9,4.36c0,0,0,0.01,0,0.02C3.9,4.37,3.91,4.37,3.9,4.36L3.9,4.36z"/>
<polygon class="st1" points="2.03,12.09 2.59,12.09 1.66,10.47 0.72,12.09 1.28,12.09 1.28,14.4 5.62,14.4 5.62,13.65 2.03,13.65 
	"/>
<polygon class="st2" points="13.86,4.31 13.86,2.4 10.24,2.4 10.24,3.15 13.11,3.15 13.11,4.31 12.55,4.31 13.48,5.93 14.42,4.31 
	"/>
</svg>
