<?xml version="1.0" encoding="utf-8"?>
<!-- Generator: Adobe Illustrator 22.0.1, SVG Export Plug-In . SVG Version: 6.00 Build 0)  -->
<svg version="1.1" id="Layer_1" xmlns="http://www.w3.org/2000/svg" xmlns:xlink="http://www.w3.org/1999/xlink" x="0px" y="0px"
	 viewBox="0 0 30 30" style="enable-background:new 0 0 30 30;" xml:space="preserve">
<style type="text/css">
	.st0{fill:#008520;}
	.st1{opacity:0.5;fill:none;stroke:#000000;stroke-width:5.000000e-02;stroke-miterlimit:10;}
	.st2{fill:#0C4B96;}
	.st3{fill:#C63621;}
	.st4{fill:#F85544;}
	.st5{fill:#EFC150;}
	.st6{fill:#27314E;}
	.st7{fill:#063ABC;}
	.st8{fill:#C74E41;}
	.st9{fill:#C67E42;}
	.st10{fill:#2CBCBB;}
	.st11{fill:#134658;}
	.st12{fill:none;stroke:#134658;stroke-miterlimit:10;}
	.st13{fill:#2BBBBA;}
	.st14{fill:#8C7053;}
	.st15{fill:#A93B33;}
	.st16{fill:#2F99A5;}
	.st17{fill:#654538;}
	.st18{fill:#BE5141;}
	.st19{fill:none;stroke:#134658;stroke-width:0.75;stroke-miterlimit:10;}
	.st20{fill:none;}
	.st21{opacity:0.5;}
	.st22{font-family:'MyriadPro-Regular';}
	.st23{font-size:0.93px;}
	.st24{fill:#FF040F;}
	.st25{fill:#00A4F5;}
	.st26{fill:#70B74F;}
	.st27{fill:#F45DF4;}
	.st28{fill:#213763;}
	.st29{fill:#E8C67C;}
	.st30{fill:#135D7A;}
	.st31{fill:#A07C2B;}
	.st32{fill:none;stroke:#FF040F;stroke-width:0.25;stroke-miterlimit:10;}
	.st33{fill:#00457F;}
	.st34{fill:#48A030;}
	.st35{fill:#FFD445;}
	.st36{fill:#FF431D;}
	.st37{fill:#39B0C7;}
	.st38{fill:#5379A9;}
	.st39{fill:#E84049;}
	.st40{fill:#F57C45;}
	.st41{fill:#F1602D;}
	.st42{fill:#945965;}
	.st43{fill:#5C55A8;}
	.st44{fill:#4673C5;}
	.st45{fill:#E68549;}
	.st46{fill:none;stroke:#000000;stroke-width:0.15;stroke-miterlimit:10;}
	.st47{fill:none;stroke:#000000;stroke-width:0.1;stroke-miterlimit:10;}
	.st48{fill:#278EAA;}
	.st49{fill:#39BCA9;}
	.st50{fill:#EFCC3C;}
	.st51{fill:#E04444;}
</style>
<path class="st7" d="M2.6,22.2L2.3,22l0.9-2.6l1,0.4l0.9-0.6l0.8,0.3L7,17.3l0.9,3.3l0.8-1.1l0.9,0.3c0.5-0.4,0.7-0.5,0.8-0.5
	c0.1-0.3,0.5-1.9,0.9-3.3l0.1-0.4l1,1.2l1.1-2.9l0.7,4.5c0.7-5.7,0.8-5.7,1-5.7c0.2,0,0.2,0,0.8,2.3l0.9-6l0.9,1.9l0.9-4.2l1.1,0.9
	C20.4,7,20.5,7,20.5,7c0.1,0,0.2,0,1,1.7l1.1,1l0.7,5.5c0.5-1.2,0.7-1.2,0.7-1.3l0.1,0l0.1,0.1c0.1,0.1,0.3,0.6,0.7,1.4l0.9-4.2
	l1.2,1.7L26.8,13L26,12l-1,4.5L24.8,16c-0.3-0.6-0.6-1.3-0.7-1.6c-0.2,0.3-0.5,0.9-0.7,1.5l-0.3,0.6l-0.9-6.6l-1-1
	c-0.3-0.6-0.6-1.2-0.7-1.5C20.3,7.5,20,7.7,19.8,8l-0.1,0.1l-0.8-0.7l-1,4.6L17,10.2l-1,6.7L15.8,16c-0.2-0.9-0.5-1.8-0.6-2.4
	c-0.2,1.2-0.6,4.1-0.8,6.2L14.2,21l-0.9-5.7l-0.9,2.2l-0.9-1.1c-0.8,3.2-0.8,3.2-1,3.2c-0.1,0-0.5,0.3-0.8,0.6l-0.1,0.1l-0.8-0.3
	l-1.1,1.5l-0.9-3.1L6.1,20l-0.9-0.4l-0.9,0.6l-0.8-0.3L2.6,22.2z"/>
<path class="st8" d="M2.4,25.9l-0.1-0.3c0.1,0,2.1-0.8,3-0.1c0.3,0,1.3,0,2-0.1L8,24.8l0.1,0C8.4,25,8.9,25.1,9,25.1
	c0,0,0.3-0.1,0.4-0.1c0.5-0.1,0.6-0.2,0.7-0.2c0.1,0,0.2,0.1,0.5,0.2c0.1,0,0.1,0.1,0.2,0.1c0.1-0.1,0.4-0.4,0.6-0.7l0.1-0.1l0.1,0
	c0.2,0.1,0.5,0.2,0.6,0.2c0.1,0,0.3-0.2,0.5-0.4l0.1-0.1l0.1,0.1c0.3,0.2,0.7,0.5,0.8,0.7c0.1,0,0.2-0.1,0.2-0.1
	c0.1-0.1,0.2-0.1,0.3-0.1c0.1,0,0.1,0,0.6,0.4l0.6-1.1l0.1,0.1c0.2,0.1,0.5,0.2,0.6,0.3c0.1-0.1,0.2-0.2,0.3-0.3
	c0.3-0.4,0.4-0.5,0.5-0.5c0,0,0.1,0,0.6,0.3l0.7-1.9l0.7,0.6l0.7-3.2l0.2,0.5c0.2,0.5,0.5,1,0.6,1.3c0.1-0.1,0.4-0.4,0.6-0.6
	l0.2-0.2l0.1,0.3c0.2,0.9,0.5,1.9,0.6,2.3c0.1-0.1,0.3-0.3,0.5-0.4l0.1-0.1l0.6,0.4c0.2-0.2,0.6-0.5,1.1-0.5c0.1,0,0.3,0.1,0.4,0.1
	l0.7-3.5l0.7,0.4l0.7-2.6l0.3,0.1l-0.8,3l-0.7-0.4l-0.7,3.9l-0.2-0.4c-0.1-0.2-0.2-0.3-0.4-0.3c-0.3,0-0.7,0.4-0.9,0.5L23.3,23
	l-0.6-0.4C22.2,23,22.1,23,22,23c-0.2,0-0.3,0-0.8-2.3c-0.5,0.5-0.6,0.5-0.7,0.5c-0.1,0-0.2,0-0.6-1L19.3,23l-0.8-0.7l-0.7,1.8
	L17.7,24c-0.2-0.1-0.5-0.3-0.6-0.3c-0.1,0.1-0.2,0.2-0.3,0.3c-0.3,0.4-0.4,0.5-0.5,0.5c0,0-0.1,0-0.6-0.2L15,25.5l-0.2-0.1
	c-0.2-0.2-0.4-0.3-0.5-0.4c0,0,0,0-0.1,0c-0.2,0.1-0.4,0.2-0.6,0.2c-0.1,0-0.1-0.1-0.2-0.1c0-0.1-0.3-0.3-0.6-0.5
	c-0.2,0.2-0.5,0.4-0.7,0.4c-0.2,0-0.5-0.1-0.6-0.1c-0.7,0.8-0.8,0.8-0.9,0.7c-0.1,0-0.1-0.1-0.3-0.1c-0.1-0.1-0.3-0.2-0.3-0.2
	c0,0-0.3,0.1-0.5,0.2C9.1,25.5,9,25.5,9,25.5c0,0-0.1,0-0.9-0.3l-0.7,0.5l-0.1,0c-0.1,0-1.9,0.1-2.1,0.1H5.2l0,0
	C4.5,25.2,2.9,25.7,2.4,25.9z M10.8,25.2C10.8,25.2,10.8,25.2,10.8,25.2C10.8,25.2,10.8,25.2,10.8,25.2z"/>
<polygon points="29.8,26 2.3,26 2.3,3 2.5,3 2.5,25.8 29.8,25.8 "/>
<rect x="2.4" y="3" class="st21" width="24.9" height="0.1"/>
<rect x="2.4" y="6.8" class="st21" width="24.9" height="0.1"/>
<rect x="2.4" y="10.5" class="st21" width="24.9" height="0.1"/>
<rect x="2.4" y="22" class="st21" width="24.9" height="0.1"/>
<rect x="1.9" y="3" width="0.6" height="0.1"/>
<rect x="1.9" y="6.8" width="0.6" height="0.1"/>
<rect x="1.9" y="10.5" width="0.6" height="0.1"/>
<rect x="1.8" y="14.4" width="0.6" height="0.1"/>
<rect x="1.9" y="18.2" width="0.6" height="0.1"/>
<rect x="1.9" y="22" width="0.5" height="0.1"/>
<text transform="matrix(1 0 0 1 0.2495 3.3411)" class="st22 st23">300</text>
<text transform="matrix(1 0 0 1 0.2495 7.1878)" class="st22 st23">250</text>
<text transform="matrix(1 0 0 1 0.2495 10.9681)" class="st22 st23">200</text>
<text transform="matrix(1 0 0 1 0.2495 14.7249)" class="st22 st23">150</text>
<text transform="matrix(1 0 0 1 0.2495 18.5042)" class="st22 st23">100</text>
<text transform="matrix(1 0 0 1 0.7642 22.3958)" class="st22 st23">50</text>
<text transform="matrix(1 0 0 1 5.1919 27.2044)" class="st22 st23">40</text>
<text transform="matrix(1 0 0 1 8.3237 27.2044)" class="st22 st23">42</text>
<text transform="matrix(1 0 0 1 11.4546 27.2044)" class="st22 st23">44</text>
<text transform="matrix(1 0 0 1 14.5854 27.2044)" class="st22 st23">46</text>
<text transform="matrix(1 0 0 1 17.8061 27.2044)" class="st22 st23">48</text>
<text transform="matrix(1 0 0 1 20.9595 27.2044)" class="st22 st23">50</text>
<text transform="matrix(1 0 0 1 24.0688 27.2044)" class="st22 st23">52</text>
<text transform="matrix(1 0 0 1 27.312 27.182)" class="st22 st23">54</text>
<text transform="matrix(1 0 0 1 1.2114 26.1761)" class="st22 st23">0</text>
</svg>
