<?xml version="1.0" encoding="utf-8"?>
<!-- Generator: Adobe Illustrator 25.0.0, SVG Export Plug-In . SVG Version: 6.00 Build 0)  -->
<svg version="1.1" id="Layer_1" xmlns="http://www.w3.org/2000/svg" xmlns:xlink="http://www.w3.org/1999/xlink" x="0px" y="0px"
	 viewBox="0 0 36 36" style="enable-background:new 0 0 36 36;" xml:space="preserve">
<style type="text/css">
	.st0{fill:#7AB5F4;}
	.st1{fill:#FFFFFF;}
	.st2{fill:#0B4A99;}
	.st3{fill:#CB1618;}
	.st4{fill:none;}
	.st5{opacity:0.25;}
	.st6{fill:none;stroke:#0B4A99;stroke-width:3.000000e-02;stroke-miterlimit:10;}
</style>
<polygon class="st2" points="36,36 0,36 0,0.7 1.2,0.7 1.2,34.8 36,34.8 "/>
<g>
	<polygon class="st2" points="25.1,24.9 12.1,11.9 7.5,17.6 3.5,17.6 3.5,16.4 6.9,16.4 12,10.1 24.3,22.4 26.3,9.2 32.9,3.1 
		33.7,4 27.5,9.8 	"/>
</g>
<g>
	<polygon class="st2" points="16.7,28.5 10,19.7 4.7,24.4 3.9,23.6 10.1,18 16.4,26.1 22.6,11.5 29.7,24.5 35,22.8 35.4,23.9 
		29.1,26 22.8,14.3 	"/>
</g>
</svg>
