<?xml version="1.0" encoding="utf-8"?>
<!-- Generator: Adobe Illustrator 25.0.0, SVG Export Plug-In . SVG Version: 6.00 Build 0)  -->
<svg version="1.1" id="Layer_1" xmlns="http://www.w3.org/2000/svg" xmlns:xlink="http://www.w3.org/1999/xlink" x="0px" y="0px"
	 viewBox="0 0 36 36" style="enable-background:new 0 0 36 36;" xml:space="preserve">
<style type="text/css">
	.st0{fill:#C2CCD3;stroke:#0B4A99;stroke-width:0.25;stroke-miterlimit:10;}
	.st1{fill:#0B4A99;}
	.st2{fill:#CB1618;}
	.st3{fill:none;}
	.st4{fill:none;stroke:#0B4A99;stroke-width:0.5;stroke-miterlimit:10;}
	.st5{opacity:0.25;}
	.st6{fill:none;stroke:#0B4A99;stroke-width:3.000000e-02;stroke-miterlimit:10;}
	.st7{fill:#7AB5F4;}
	.st8{fill:#C2CCD3;stroke:#0B4A99;stroke-width:0.5;stroke-miterlimit:10;}
	.st9{fill:#C2CCD3;stroke:#0B4A99;stroke-width:0.1;stroke-miterlimit:10;}
</style>
<g>
	<polygon class="st1" points="36,36 0,36 0,0.7 0.5,0.7 0.5,35.5 36,35.5 	"/>
</g>
<g>
	<g>
		<polygon class="st1" points="24.6,22.8 12.2,10.4 7.3,16.5 3.7,16.5 3.7,16 7,16 12.2,9.7 24.2,21.7 26.2,9 32.8,2.9 33.1,3.3 
			26.6,9.2 		"/>
	</g>
</g>
<g>
	<g>
		<polygon class="st1" points="16.6,26.4 10.3,18.2 4.2,23.6 3.9,23.2 10.3,17.5 16.5,25.4 22.7,10.9 29.9,24.1 35.2,22.3 
			35.3,22.7 35,22.7 35.1,22.9 29.6,24.7 22.7,12 		"/>
	</g>
</g>
</svg>
