<?xml version="1.0" encoding="utf-8"?>
<!-- Generator: Adobe Illustrator 25.0.0, SVG Export Plug-In . SVG Version: 6.00 Build 0)  -->
<svg version="1.1" id="Layer_1" xmlns="http://www.w3.org/2000/svg" xmlns:xlink="http://www.w3.org/1999/xlink" x="0px" y="0px"
	 viewBox="0 0 16 16" style="enable-background:new 0 0 16 16;" xml:space="preserve">
<style type="text/css">
	.st0{fill:#FFFFFF;}
</style>
<g>
	<path class="st0" d="M5.7,5.3h3.2v1.5h0c0.4-0.8,1.5-1.7,3.1-1.7c3.4,0,4,2.2,4,5.1V16h-3.3v-5.2c0-1.2,0-2.8-1.7-2.8
		c-1.7,0-2,1.4-2,2.7V16H5.7V5.3z"/>
	<path class="st0" d="M0.3,5.3h3.3V16H0.3V5.3z M1.9,0C3,0,3.8,0.9,3.8,1.9S3,3.9,1.9,3.9S0,3,0,1.9S0.9,0,1.9,0"/>
</g>
</svg>
