<?xml version="1.0" encoding="utf-8"?>
<!-- Generator: Adobe Illustrator 25.0.0, SVG Export Plug-In . SVG Version: 6.00 Build 0)  -->
<svg version="1.1" id="Layer_1" xmlns="http://www.w3.org/2000/svg" xmlns:xlink="http://www.w3.org/1999/xlink" x="0px" y="0px"
	 viewBox="0 0 100 100" style="enable-background:new 0 0 100 100;" xml:space="preserve">
<style type="text/css">
	.st0{fill:#40875E;}
	.st1{fill:url(#SVGID_1_);}
</style>
<g>
	<path class="st0" d="M49.85,99.99c-9.49,0-18.98,0.02-28.47-0.01c-5.59-0.02-7.85-2.26-7.87-7.89
		c-0.04-13.57-0.06-27.15,0.01-40.72c0.03-6.58,2.68-8.61,8.96-7.13c18.44,4.33,36.88,4.31,55.31-0.06
		c5.84-1.38,8.57,0.64,8.68,6.76c0.13,7.09,0.03,14.17,0.04,21.26c0,6.25,0.01,12.49,0,18.74c-0.01,7.12-1.91,9.05-8.89,9.06
		C68.35,100,59.1,99.99,49.85,99.99z M49.9,86.64c1.32,0,2.65-0.1,3.96,0.02c3.12,0.29,4.23-0.85,3.25-3.97
		c-0.79-2.51-1.26-5.12-2.09-7.62c-0.7-2.1-0.6-3.61,1.09-5.42c2.9-3.1,2.38-7.82-0.65-10.69c-3.02-2.85-7.71-2.91-10.79-0.12
		c-3.2,2.9-3.72,7.74-0.67,10.94c1.65,1.73,1.69,3.16,1.01,5.1c-0.47,1.35-0.7,2.78-1.08,4.17C41.64,87.49,41.34,86.61,49.9,86.64z"
		/>
	<linearGradient id="SVGID_1_" gradientUnits="userSpaceOnUse" x1="23.3226" y1="20.3433" x2="76.6774" y2="20.3433">
		<stop  offset="0" style="stop-color:#F0AB00"/>
		<stop  offset="0.3077" style="stop-color:#D6A817"/>
		<stop  offset="0.755" style="stop-color:#B5A435"/>
		<stop  offset="1" style="stop-color:#A8A240"/>
	</linearGradient>
	<path class="st1" d="M65.37,40.69c0-4.85,0.14-9.4-0.03-13.93c-0.28-7.08-4.52-12.65-10.86-14.62c-6.1-1.89-13.18,0.07-16.63,5.49
		c-1.83,2.88-2.76,6.59-3.2,10.04c-0.53,4.23-0.13,8.58-0.13,12.73c-0.53,0.17-0.64,0.23-0.75,0.23
		c-9.85-0.14-10.07-0.65-10.42-10.34C23,20.56,25.43,12.16,33.3,6.01c8.4-6.57,17.77-7.78,27.46-3.49
		c9.56,4.23,14.88,11.88,15.7,22.38c0.29,3.71,0.28,7.46,0.04,11.16c-0.06,1.01-1.27,2.5-2.26,2.8
		C71.53,39.71,68.66,40.05,65.37,40.69z"/>
</g>
</svg>
