<?xml version="1.0" encoding="utf-8"?>
<!-- Generator: Adobe Illustrator 25.0.0, SVG Export Plug-In . SVG Version: 6.00 Build 0)  -->
<svg version="1.1" id="Layer_1" xmlns="http://www.w3.org/2000/svg" xmlns:xlink="http://www.w3.org/1999/xlink" x="0px" y="0px"
	 viewBox="0 0 36 36" style="enable-background:new 0 0 36 36;" xml:space="preserve">
<style type="text/css">
	.st0{fill:#CB1618;}
	.st1{fill:#185ABD;}
	.st2{fill:#D83039;}
	.st3{fill:#103F91;}
	.st4{fill:#185C37;}
	.st5{fill:#33C481;}
	.st6{fill:#107C41;}
	.st7{fill:#21A366;}
	.st8{fill:#0B4A99;}
	.st9{fill:none;}
	.st10{fill:#FFFFFF;}
	.st11{fill:#41A5EE;}
	.st12{fill:#2B7CD3;}
	.st13{opacity:0.5;enable-background:new    ;}
	.st14{fill:url(#SVGID_1_);}
	.st15{fill:url(#SVGID_2_);}
	.st16{fill:url(#SVGID_3_);}
	.st17{fill:url(#SVGID_4_);}
	.st18{fill:#E24951;}
	.st19{fill-rule:evenodd;clip-rule:evenodd;}
	.st20{fill:#262625;}
	.st21{fill:none;stroke:#000000;stroke-width:0.75;stroke-miterlimit:10;}
	.st22{fill:none;stroke:#000000;stroke-width:1.2;stroke-miterlimit:10;}
	.st23{fill-rule:evenodd;clip-rule:evenodd;fill:#0B4A99;}
</style>
<g>
	<g>
		<polygon class="st8" points="32.2,36 3.8,36 3.8,28.5 5.1,28.5 5.1,34.7 30.9,34.7 30.9,28.5 32.2,28.5 		"/>
	</g>
	<g>
		<polygon class="st8" points="32.2,10.7 30.9,10.7 30.9,7.8 25.2,1.3 5.1,1.3 5.1,10.7 3.8,10.7 3.8,0 25.8,0 32.2,7.3 		"/>
	</g>
	<g>
		<path class="st8" d="M32.4,26H3.6c-1.2,0-2.3-1-2.3-2.3v-9c0-1.2,1-2.3,2.3-2.3h28.7c1.2,0,2.3,1,2.3,2.3v9
			C34.6,25,33.6,26,32.4,26z M3.6,13.8c-0.5,0-0.9,0.4-0.9,0.9v9c0,0.5,0.4,0.9,0.9,0.9h28.7c0.5,0,0.9-0.4,0.9-0.9v-9
			c0-0.5-0.4-0.9-0.9-0.9H3.6z"/>
	</g>
	<g>
		<path class="st8" d="M8.7,16.1h1.1v5.6h2.9v1h-4V16.1z"/>
		<path class="st8" d="M17.3,16.1c0.7,0,1.2,0.1,1.8,0.4c0.5,0.3,1,0.7,1.3,1.2c0.3,0.5,0.5,1.1,0.5,1.7c0,0.6-0.2,1.2-0.5,1.7
			c-0.3,0.5-0.7,0.9-1.3,1.2c-0.5,0.3-1.1,0.5-1.8,0.5c-0.7,0-1.2-0.2-1.8-0.5c-0.5-0.3-1-0.7-1.3-1.2c-0.3-0.5-0.5-1.1-0.5-1.7
			c0-0.6,0.2-1.2,0.5-1.7c0.3-0.5,0.7-0.9,1.3-1.2C16.1,16.2,16.6,16.1,17.3,16.1z M17.3,17.1c-0.4,0-0.8,0.1-1.2,0.3
			s-0.7,0.5-0.9,0.9c-0.2,0.4-0.3,0.8-0.3,1.2c0,0.4,0.1,0.8,0.3,1.2c0.2,0.4,0.5,0.7,0.9,0.9c0.4,0.2,0.8,0.3,1.2,0.3
			c0.4,0,0.8-0.1,1.2-0.3c0.4-0.2,0.6-0.5,0.9-0.9c0.2-0.4,0.3-0.8,0.3-1.2c0-0.4-0.1-0.8-0.3-1.2c-0.2-0.4-0.5-0.6-0.9-0.9
			C18.1,17.2,17.7,17.1,17.3,17.1z"/>
		<path class="st8" d="M25.2,20v-1h2.6l0,3c-0.3,0.3-0.7,0.5-1.2,0.6c-0.5,0.2-0.9,0.2-1.4,0.2c-1,0-1.8-0.3-2.5-1
			c-0.7-0.7-1-1.5-1-2.4s0.3-1.7,1-2.4c0.7-0.6,1.5-1,2.5-1c0.5,0,0.9,0.1,1.4,0.3c0.5,0.2,0.8,0.4,1.2,0.7l-0.6,0.8
			c-0.5-0.5-1.2-0.8-1.9-0.8c-0.7,0-1.3,0.2-1.7,0.7c-0.5,0.5-0.7,1-0.7,1.7c0,0.7,0.2,1.2,0.7,1.7s1,0.7,1.7,0.7
			c0.5,0,1-0.2,1.5-0.5l0-1.4H25.2z"/>
	</g>
</g>
</svg>
