<?xml version="1.0" encoding="utf-8"?>
<!-- Generator: Adobe Illustrator 25.0.0, SVG Export Plug-In . SVG Version: 6.00 Build 0)  -->
<svg version="1.1" id="Layer_1" xmlns="http://www.w3.org/2000/svg" xmlns:xlink="http://www.w3.org/1999/xlink" x="0px" y="0px"
	 viewBox="0 0 16 16" style="enable-background:new 0 0 16 16;" xml:space="preserve">
<style type="text/css">
	.st0{fill:#A8A240;}
	.st1{fill:#F0AB00;}
	.st2{fill:#40875E;}
	.st3{fill-rule:evenodd;clip-rule:evenodd;fill:#40875E;}
	.st4{fill-rule:evenodd;clip-rule:evenodd;fill:url(#SVGID_1_);}
</style>
<g>
	<path class="st0" d="M6.42,8.79c1.88-0.09,2.8-2.57,2.8-2.57C10.18,5.04,9.5,4.2,9.5,4.2c0.02-2.45-1.44-2.97-1.44-2.97
		c-0.35-0.4-1.74-0.45-1.74-0.45h0.16c0,0-1.39,0.05-1.74,0.45c0,0-1.46,0.52-1.44,2.97c0,0-0.68,0.85,0.28,2.02
		c0,0,0.92,2.47,2.8,2.57H6.42z"/>
	<path class="st1" d="M16,11.72v0.54c0,0.21-0.17,0.38-0.38,0.38h-0.37c-0.06,0.23-0.15,0.45-0.27,0.65l0.26,0.26
		c0.15,0.15,0.15,0.39,0,0.53l-0.38,0.38c-0.15,0.15-0.39,0.15-0.53,0l-0.26-0.26c-0.2,0.12-0.42,0.21-0.65,0.27v0.37
		c0,0.21-0.17,0.38-0.38,0.38H12.5c-0.21,0-0.38-0.17-0.38-0.38v-0.37c-0.23-0.06-0.45-0.15-0.65-0.27l-0.26,0.26
		c-0.15,0.15-0.39,0.15-0.53,0l-0.38-0.38c-0.15-0.15-0.15-0.39,0-0.53l0.26-0.26c-0.12-0.2-0.21-0.42-0.27-0.65H9.92
		c-0.21,0-0.38-0.17-0.38-0.38v-0.54c0-0.21,0.17-0.38,0.38-0.38h0.37c0.06-0.23,0.15-0.45,0.27-0.65l-0.26-0.26
		c-0.15-0.15-0.15-0.39,0-0.53l0.38-0.38c0.15-0.15,0.39-0.15,0.53,0l0.26,0.26c0.2-0.12,0.42-0.21,0.65-0.27V9.14
		c0-0.21,0.17-0.38,0.38-0.38h0.54c0.21,0,0.38,0.17,0.38,0.38v0.37c0.23,0.06,0.45,0.15,0.65,0.27l0.26-0.26
		c0.15-0.15,0.39-0.15,0.53,0l0.38,0.38c0.15,0.15,0.15,0.39,0,0.53l-0.26,0.26c0.12,0.2,0.21,0.42,0.27,0.65h0.37
		C15.83,11.34,16,11.51,16,11.72z M12.77,10.72c-0.7,0-1.27,0.57-1.27,1.27c0,0.7,0.57,1.27,1.27,1.27s1.27-0.57,1.27-1.27
		C14.04,11.29,13.48,10.72,12.77,10.72z"/>
	<path class="st2" d="M9.82,13.16c-0.42,0-0.75-0.34-0.75-0.75v-0.82c0-0.42,0.34-0.75,0.75-0.75h0.1l0-0.05
		c-0.47-0.56-0.05-1.11-0.05-1.11L8.46,8.9c0,0-1.98,1.72-4.17,0c0,0-0.8,0.54-1.44,0.8c0,0-2.12,0.19-2.45,1.03
		c0,0-1.27,2.9,0.68,3.6c0,0,3.72,1.6,9.25,0.45c0,0-1.13-0.72-0.42-1.51L9.82,13.16z"/>
</g>
</svg>
