<?xml version="1.0" encoding="utf-8"?>
<!-- Generator: Adobe Illustrator 25.0.0, SVG Export Plug-In . SVG Version: 6.00 Build 0)  -->
<svg version="1.1" id="Layer_1" xmlns="http://www.w3.org/2000/svg" xmlns:xlink="http://www.w3.org/1999/xlink" x="0px" y="0px"
	 viewBox="0 0 30 30" style="enable-background:new 0 0 30 30;" xml:space="preserve">
<style type="text/css">
	.st0{fill-rule:evenodd;clip-rule:evenodd;fill:url(#SVGID_1_);}
	.st1{fill-rule:evenodd;clip-rule:evenodd;fill:url(#SVGID_2_);}
</style>
<linearGradient id="SVGID_1_" gradientUnits="userSpaceOnUse" x1="0.37" y1="6.2653" x2="29.9115" y2="6.2653">
	<stop  offset="0" style="stop-color:#F0AB00"/>
	<stop  offset="9.898704e-02" style="stop-color:#CFA412"/>
	<stop  offset="0.2463" style="stop-color:#A39B29"/>
	<stop  offset="0.3958" style="stop-color:#7F943C"/>
	<stop  offset="0.5457" style="stop-color:#648E4B"/>
	<stop  offset="0.6959" style="stop-color:#508A56"/>
	<stop  offset="0.8469" style="stop-color:#44885C"/>
	<stop  offset="1" style="stop-color:#40875E"/>
</linearGradient>
<path class="st0" d="M29.5,1.7c-0.2-0.2-0.5-0.4-0.8-0.4c-0.3,0-0.7,0.1-0.9,0.4l-2.5,2.5c-1.4-1.3-3-2.4-4.8-3.1
	C18.8,0.4,16.9,0,15,0.1C11.6,0,8.3,1.1,5.7,3.3C3,5.4,1.1,8.4,0.4,11.8v0.1c0,0.2,0.1,0.4,0.3,0.4c0.1,0.1,0.2,0.2,0.4,0.2h3.9
	c0.4,0,0.5-0.1,0.6-0.4c0.5-1.3,0.9-2,1-2.2c0.9-1.5,2.2-2.7,3.7-3.5C11.7,5.4,13.3,5,15,5c2.5,0,4.9,1,6.8,2.7L19,10.4
	c-0.2,0.2-0.4,0.5-0.4,0.8c0,0.7,0.5,1.2,1.2,1.3c0,0,0.1,0,0.1,0h8.7c0.3,0,0.6-0.1,0.8-0.4c0.2-0.2,0.4-0.6,0.4-0.9V2.6
	C29.9,2.2,29.8,1.9,29.5,1.7z"/>
<linearGradient id="SVGID_2_" gradientUnits="userSpaceOnUse" x1="9.851710e-02" y1="23.7253" x2="29.5" y2="23.7253">
	<stop  offset="0" style="stop-color:#40875E"/>
	<stop  offset="2.507883e-02" style="stop-color:#45885C"/>
	<stop  offset="0.2171" style="stop-color:#699252"/>
	<stop  offset="0.4111" style="stop-color:#84994A"/>
	<stop  offset="0.6057" style="stop-color:#989E45"/>
	<stop  offset="0.8015" style="stop-color:#A4A141"/>
	<stop  offset="1" style="stop-color:#A8A240"/>
</linearGradient>
<path class="st1" d="M28.8,17.5h-3.7c-0.4,0-0.5,0.1-0.6,0.5c-0.5,1.3-0.9,2-1,2.2c-0.9,1.4-2.1,2.6-3.6,3.5
	C18.4,24.6,16.7,25,15,25c-1.3,0-2.5-0.3-3.7-0.7c-1.2-0.5-2.2-1.2-3.1-2l2.7-2.7c0.2-0.2,0.4-0.6,0.4-0.9c0-0.3-0.1-0.6-0.4-0.8
	c-0.2-0.2-0.6-0.4-0.9-0.4H1.3c-0.3,0-0.6,0.1-0.8,0.4c-0.2,0.2-0.4,0.5-0.4,0.8v8.7c0,0.3,0.1,0.7,0.4,0.9c0.2,0.2,0.5,0.4,0.8,0.4
	c0.3,0,0.7-0.1,0.9-0.4l2.5-2.5c1.4,1.3,3,2.4,4.8,3.1c1.8,0.7,3.6,1.1,5.5,1.1c3.4,0.1,6.7-1.1,9.3-3.2c2.6-2.2,4.5-5.1,5.2-8.5
	v-0.1c0-0.2-0.1-0.3-0.2-0.5C29.2,17.5,29,17.5,28.8,17.5L28.8,17.5z"/>
</svg>
