<?xml version="1.0" encoding="utf-8"?>
<!-- Generator: Adobe Illustrator 25.0.0, SVG Export Plug-In . SVG Version: 6.00 Build 0)  -->
<svg version="1.1" id="Layer_1" xmlns="http://www.w3.org/2000/svg" xmlns:xlink="http://www.w3.org/1999/xlink" x="0px" y="0px"
	 viewBox="0 0 16 16" style="enable-background:new 0 0 16 16;" xml:space="preserve">
<style type="text/css">
	.st0{fill:#40875E;}
	.st1{fill:#A8A240;}
	.st2{fill:#F0AB00;}
</style>
<path class="st0" d="M5.41,9.24c0.06,0.26,0.12,0.52,0.17,0.79c0.23,1.11,0.56,2.19,1.08,3.2c0.31,0.59,0.67,1.15,1.09,1.68
	c0.21,0.26,0.28,0.26,0.49,0c0.89-1.12,1.53-2.37,1.9-3.75c0.16-0.61,0.29-1.22,0.43-1.84c0.01-0.02,0.01-0.05,0.02-0.08
	c0.02,0.01,0.04,0.01,0.05,0.02c0.63,0.27,1.27,0.55,1.9,0.82c0.56,0.24,1.11,0.5,1.59,0.89c0.31,0.25,0.53,0.57,0.75,0.89
	c0.38,0.59,0.64,1.23,0.72,1.93c0.03,0.27,0.03,0.55,0.03,0.82c0,0.19-0.11,0.33-0.26,0.43c-0.27,0.18-0.58,0.25-0.9,0.3
	c-0.84,0.13-1.68,0.27-2.52,0.38c-0.47,0.07-0.95,0.1-1.43,0.15c-1.05,0.11-2.11,0.14-3.16,0.11c-1.06-0.03-2.12-0.1-3.17-0.25
	c-0.77-0.11-1.53-0.22-2.29-0.34c-0.31-0.05-0.62-0.12-0.93-0.2c-0.13-0.04-0.26-0.12-0.38-0.2c-0.15-0.1-0.21-0.26-0.22-0.44
	c-0.05-1.06,0.27-2,0.85-2.87c0.43-0.65,1.02-1.09,1.72-1.4c0.58-0.26,1.17-0.5,1.75-0.74C4.94,9.46,5.17,9.35,5.41,9.24z"/>
<path class="st1" d="M11.24,4.36c0.18,0.01,0.25,0.12,0.28,0.27c0.1,0.5,0.03,0.99-0.16,1.46c-0.16,0.39-0.38,0.74-0.67,1.05
	c-0.03,0.04-0.06,0.09-0.07,0.14c-0.21,0.67-0.55,1.26-1.11,1.7C9.1,9.32,8.61,9.53,8.07,9.55c-0.35,0.01-0.68-0.07-1-0.22
	C6.5,9.08,6.08,8.66,5.76,8.14C5.59,7.87,5.47,7.57,5.38,7.27C5.37,7.22,5.34,7.17,5.3,7.13C4.84,6.62,4.52,6.04,4.46,5.36
	c-0.02-0.24,0-0.48,0.03-0.71c0.02-0.15,0.1-0.27,0.29-0.28c0-0.14,0-0.27,0-0.4c0.01-0.41,0-0.82,0.03-1.23
	c0.09-1.18,0.74-2.16,1.9-2.52c0.89-0.27,1.78-0.28,2.67,0.02c0.99,0.34,1.56,1.07,1.78,2.07c0.06,0.25,0.06,0.52,0.07,0.78
	c0.01,0.4,0.01,0.79,0.02,1.19C11.23,4.3,11.24,4.32,11.24,4.36z"/>
<path class="st2" d="M7.97,14.52c-0.25-0.48-0.5-0.95-0.74-1.43c-0.02-0.03-0.01-0.08-0.01-0.11c0.07-0.31,0.14-0.62,0.21-0.93
	c0.03-0.13,0.06-0.16,0.19-0.16c0.25,0,0.5,0,0.76,0c0.12,0,0.16,0.03,0.18,0.15c0.07,0.32,0.14,0.63,0.21,0.95
	c0.01,0.04,0.01,0.08-0.01,0.11c-0.25,0.46-0.5,0.93-0.75,1.39c0,0.01-0.01,0.02-0.01,0.03C8,14.52,7.99,14.52,7.97,14.52z"/>
<path class="st2" d="M8,10.39c0.21,0,0.41,0,0.62,0c0.12,0,0.17,0.06,0.15,0.18c-0.06,0.32-0.12,0.64-0.19,0.96
	c-0.02,0.08-0.07,0.11-0.15,0.11c-0.29,0-0.58,0-0.86,0c-0.09,0-0.14-0.04-0.15-0.12c-0.06-0.32-0.13-0.64-0.19-0.95
	c-0.02-0.11,0.04-0.18,0.15-0.18C7.59,10.39,7.8,10.39,8,10.39C8,10.39,8,10.39,8,10.39z"/>
</svg>
