<?xml version="1.0" encoding="iso-8859-1"?>
<!-- Generator: Adobe Illustrator 12.0.0, SVG Export Plug-In . SVG Version: 6.00 Build 51448)  -->
<!DOCTYPE svg PUBLIC "-//W3C//DTD SVG 1.1//EN" "http://www.w3.org/Graphics/SVG/1.1/DTD/svg11.dtd" [
	<!ENTITY ns_svg "http://www.w3.org/2000/svg">
	<!ENTITY ns_xlink "http://www.w3.org/1999/xlink">
]>
<svg  version="1.1" id="Layer_1" xmlns="&ns_svg;" xmlns:xlink="&ns_xlink;" width="60.095" height="60.095"
	 viewBox="0 0 60.095 60.095" style="overflow:visible;enable-background:new 0 0 60.095 60.095;" xml:space="preserve">
<path style="fill:#008FD3;" d="M60.095,52.176c0,4.37-3.771,7.919-8.43,7.919H8.437C3.778,60.095,0,56.546,0,52.176V7.923
	C0,3.55,3.778,0,8.437,0h43.229c4.658,0,8.43,3.55,8.43,7.923V52.176z M57.167,10.079c0-3.947-3.404-7.151-7.608-7.151H10.542
	c-4.204,0-7.614,3.204-7.614,7.151V50.02c0,3.944,3.41,7.147,7.614,7.147h39.017c4.204,0,7.608-3.203,7.608-7.147V10.079z"/>
<g>
	<path style="fill:#008FD3;" d="M2.22,14.456v-5.24c0-4.051,3.5-7.338,7.813-7.338h40.034c4.314,0,7.808,3.287,7.808,7.338v5.24
		H2.22z M35.559,6.702c-1.104,0-1.998,0.895-1.998,1.998c0,1.104,0.894,1.999,1.998,1.999s1.999-0.895,1.999-1.999
		C37.558,7.596,36.663,6.702,35.559,6.702z M36.583,8.504h-2.048v0.392h2.048V8.504z M49.668,6.702
		c-1.104,0-1.999,0.895-1.999,1.998c0,1.104,0.895,1.999,1.999,1.999c1.103,0,1.998-0.895,1.998-1.999
		C51.666,7.596,50.771,6.702,49.668,6.702z M48.976,9.665l0.585-0.669c0.021-0.026,0.059-0.071,0.109-0.138
		c0.031,0.04,0.063,0.079,0.098,0.119l0.583,0.688h0.377l-0.866-1.011l0.802-0.917h-0.336l-0.46,0.512
		c-0.072,0.077-0.131,0.149-0.184,0.219c-0.036-0.056-0.098-0.134-0.185-0.237l-0.425-0.494h-0.362l0.789,0.928l-0.895,1H48.976z
		 M42.612,6.702c-1.103,0-1.996,0.895-1.996,1.998c0,1.104,0.894,1.999,1.996,1.999c1.104,0,2-0.895,2-1.999
		C44.612,7.596,43.717,6.702,42.612,6.702z M43.798,7.727h-1.587v1.429h1.587V7.727z M43.614,8.991h-1.221V7.89h1.221V8.991z
		 M43.017,8.246H41.43v1.429h1.587V8.246z M42.833,9.51h-1.22v-1.1h1.22V9.51z"/>
	<g>
		<path style="fill:#008FD3;" d="M8.241,17.623H8.227l-0.874,0.416l-0.176-0.804l1.218-0.563h0.881v4.581H8.241V17.623z"/>
		<path style="fill:#008FD3;" d="M12.435,21.33c-1.184,0-1.706-1.065-1.712-2.361c0-1.332,0.557-2.375,1.741-2.375
			c1.219,0,1.706,1.091,1.706,2.346c0,1.41-0.571,2.39-1.727,2.39H12.435z M12.449,20.52c0.416,0,0.641-0.521,0.641-1.564
			c0-1.015-0.218-1.55-0.648-1.55c-0.401,0-0.655,0.514-0.655,1.55c-0.007,1.057,0.246,1.564,0.655,1.564H12.449z"/>
		<path style="fill:#008FD3;" d="M16.064,17.623H16.05l-0.874,0.416L15,17.235l1.219-0.563H17.1v4.581h-1.036V17.623z"/>
		<path style="fill:#008FD3;" d="M20.258,21.33c-1.184,0-1.706-1.065-1.712-2.361c0-1.332,0.557-2.375,1.741-2.375
			c1.219,0,1.706,1.091,1.706,2.346c0,1.41-0.571,2.39-1.727,2.39H20.258z M20.272,20.52c0.416,0,0.641-0.521,0.641-1.564
			c0-1.015-0.218-1.55-0.648-1.55c-0.401,0-0.655,0.514-0.655,1.55c-0.007,1.057,0.247,1.564,0.655,1.564H20.272z"/>
		<path style="fill:#008FD3;" d="M23.887,17.623h-0.014L23,18.039l-0.177-0.804l1.219-0.563h0.881v4.581h-1.036V17.623z"/>
		<path style="fill:#008FD3;" d="M27.799,17.623h-0.014l-0.874,0.416l-0.177-0.804l1.22-0.563h0.88v4.581h-1.036V17.623z"/>
		<path style="fill:#008FD3;" d="M31.993,21.33c-1.185,0-1.706-1.065-1.713-2.361c0-1.332,0.556-2.375,1.74-2.375
			c1.22,0,1.706,1.091,1.706,2.346c0,1.41-0.57,2.39-1.727,2.39H31.993z M32.007,20.52c0.416,0,0.641-0.521,0.641-1.564
			c0-1.015-0.218-1.55-0.647-1.55c-0.4,0-0.656,0.514-0.656,1.55C31.337,20.012,31.591,20.52,32,20.52H32.007z"/>
		<path style="fill:#008FD3;" d="M35.622,17.623h-0.013l-0.875,0.416l-0.176-0.804l1.219-0.563h0.881v4.581h-1.036V17.623z"/>
		<path style="fill:#008FD3;" d="M39.815,21.33c-1.184,0-1.705-1.065-1.712-2.361c0-1.332,0.558-2.375,1.741-2.375
			c1.219,0,1.706,1.091,1.706,2.346c0,1.41-0.571,2.39-1.728,2.39H39.815z M39.831,20.52c0.415,0,0.64-0.521,0.64-1.564
			c0-1.015-0.218-1.55-0.647-1.55c-0.401,0-0.655,0.514-0.655,1.55c-0.007,1.057,0.247,1.564,0.655,1.564H39.831z"/>
		<path style="fill:#008FD3;" d="M43.446,17.623h-0.014l-0.875,0.416l-0.176-0.804l1.219-0.563h0.881v4.581h-1.035V17.623z"/>
		<path style="fill:#008FD3;" d="M47.64,21.33c-1.185,0-1.706-1.065-1.713-2.361c0-1.332,0.558-2.375,1.74-2.375
			c1.22,0,1.706,1.091,1.706,2.346c0,1.41-0.571,2.39-1.727,2.39H47.64z M47.653,20.52c0.416,0,0.641-0.521,0.641-1.564
			c0-1.015-0.218-1.55-0.647-1.55c-0.401,0-0.657,0.514-0.657,1.55c-0.005,1.057,0.249,1.564,0.657,1.564H47.653z"/>
		<path style="fill:#008FD3;" d="M51.551,21.33c-1.184,0-1.705-1.065-1.712-2.361c0-1.332,0.556-2.375,1.741-2.375
			c1.219,0,1.705,1.091,1.705,2.346c0,1.41-0.572,2.39-1.729,2.39H51.551z M51.564,20.52c0.416,0,0.643-0.521,0.643-1.564
			c0-1.015-0.219-1.55-0.65-1.55c-0.4,0-0.654,0.514-0.654,1.55c-0.007,1.057,0.247,1.564,0.654,1.564H51.564z"/>
	</g>
	<g>
		<path style="fill:#008FD3;" d="M31.762,25.051h-0.015l-0.873,0.416l-0.176-0.805l1.22-0.563h0.88v4.581h-1.036V25.051z"/>
		<path style="fill:#008FD3;" d="M35.956,28.758c-1.184,0-1.705-1.064-1.713-2.361c0-1.332,0.557-2.375,1.74-2.375
			c1.22,0,1.706,1.092,1.706,2.347c0,1.41-0.571,2.39-1.726,2.39H35.956z M35.969,27.947c0.417,0,0.644-0.521,0.644-1.564
			c0-1.015-0.22-1.551-0.648-1.551c-0.404,0-0.656,0.514-0.656,1.551c-0.008,1.057,0.245,1.564,0.656,1.564H35.969z"/>
		<path style="fill:#008FD3;" d="M39.585,25.051H39.57l-0.874,0.416l-0.175-0.805l1.22-0.563h0.881v4.581h-1.037V25.051z"/>
		<path style="fill:#008FD3;" d="M43.497,25.051h-0.015l-0.873,0.416l-0.178-0.805l1.22-0.563h0.882v4.581h-1.036V25.051z"/>
		<path style="fill:#008FD3;" d="M47.69,28.758c-1.184,0-1.706-1.064-1.714-2.361c0-1.332,0.558-2.375,1.741-2.375
			c1.221,0,1.706,1.092,1.706,2.347c0,1.41-0.571,2.39-1.726,2.39H47.69z M47.705,27.947c0.416,0,0.642-0.521,0.642-1.564
			c0-1.015-0.218-1.551-0.648-1.551c-0.402,0-0.656,0.514-0.656,1.551c-0.006,1.057,0.246,1.564,0.656,1.564H47.705z"/>
		<path style="fill:#008FD3;" d="M51.32,25.051h-0.015l-0.873,0.416l-0.177-0.805l1.219-0.563h0.882v4.581H51.32V25.051z"/>
	</g>
	<g>
		<path style="fill:#008FD3;" d="M8.241,50.635H8.227l-0.874,0.416l-0.175-0.805l1.218-0.563h0.882v4.582H8.241V50.635z"/>
		<path style="fill:#008FD3;" d="M12.434,54.341c-1.184,0-1.706-1.063-1.712-2.36c0-1.333,0.556-2.375,1.741-2.375
			c1.219,0,1.706,1.093,1.706,2.347c0,1.409-0.571,2.389-1.727,2.389H12.434z M12.448,53.531c0.416,0,0.642-0.521,0.642-1.565
			c0-1.015-0.218-1.55-0.648-1.55c-0.401,0-0.656,0.515-0.656,1.55c-0.007,1.058,0.247,1.565,0.656,1.565H12.448z"/>
		<path style="fill:#008FD3;" d="M16.064,50.635H16.05l-0.874,0.416L15,50.246l1.219-0.563h0.882v4.582h-1.036V50.635z"/>
		<path style="fill:#008FD3;" d="M20.257,54.341c-1.184,0-1.705-1.063-1.712-2.36c0-1.333,0.557-2.375,1.741-2.375
			c1.219,0,1.706,1.093,1.706,2.347c0,1.409-0.57,2.389-1.727,2.389H20.257z M20.272,53.531c0.416,0,0.641-0.521,0.641-1.565
			c0-1.015-0.218-1.55-0.648-1.55c-0.402,0-0.656,0.515-0.656,1.55c-0.006,1.058,0.247,1.565,0.656,1.565H20.272z"/>
		<path style="fill:#008FD3;" d="M23.887,50.635h-0.014L23,51.051l-0.176-0.805l1.219-0.563h0.881v4.582h-1.036V50.635z"/>
		<path style="fill:#008FD3;" d="M27.799,50.635h-0.014l-0.874,0.416l-0.176-0.805l1.22-0.563h0.88v4.582h-1.036V50.635z"/>
		<path style="fill:#008FD3;" d="M31.992,54.341c-1.184,0-1.705-1.063-1.712-2.36c0-1.333,0.556-2.375,1.741-2.375
			c1.219,0,1.706,1.093,1.706,2.347c0,1.409-0.571,2.389-1.727,2.389H31.992z M32.007,53.531c0.415,0,0.641-0.521,0.641-1.565
			c0-1.015-0.219-1.55-0.647-1.55c-0.401,0-0.656,0.515-0.656,1.55c-0.007,1.058,0.247,1.565,0.656,1.565H32.007z"/>
		<path style="fill:#008FD3;" d="M35.622,50.635h-0.013l-0.875,0.416l-0.176-0.805l1.219-0.563h0.881v4.582h-1.036V50.635z"/>
		<path style="fill:#008FD3;" d="M39.815,54.341c-1.184,0-1.705-1.063-1.712-2.36c0-1.333,0.557-2.375,1.74-2.375
			c1.219,0,1.706,1.093,1.706,2.347c0,1.409-0.571,2.389-1.728,2.389H39.815z M39.829,53.531c0.416,0,0.642-0.521,0.642-1.565
			c0-1.015-0.219-1.55-0.648-1.55c-0.401,0-0.655,0.515-0.655,1.55c-0.007,1.058,0.247,1.565,0.655,1.565H39.829z"/>
		<path style="fill:#008FD3;" d="M43.445,50.635h-0.014l-0.875,0.416l-0.175-0.805l1.219-0.563h0.881v4.582h-1.036V50.635z"/>
		<path style="fill:#008FD3;" d="M47.64,54.341c-1.185,0-1.706-1.063-1.713-2.36c0-1.333,0.558-2.375,1.74-2.375
			c1.219,0,1.706,1.093,1.706,2.347c0,1.409-0.571,2.389-1.727,2.389H47.64z M47.653,53.531c0.415,0,0.641-0.521,0.641-1.565
			c0-1.015-0.218-1.55-0.647-1.55c-0.402,0-0.657,0.515-0.657,1.55c-0.005,1.058,0.249,1.565,0.657,1.565H47.653z"/>
		<path style="fill:#008FD3;" d="M51.551,54.341c-1.184,0-1.706-1.063-1.713-2.36c0-1.333,0.557-2.375,1.742-2.375
			c1.219,0,1.705,1.093,1.705,2.347c0,1.409-0.572,2.389-1.729,2.389H51.551z M51.564,53.531c0.416,0,0.643-0.521,0.643-1.565
			c0-1.015-0.219-1.55-0.65-1.55c-0.4,0-0.654,0.515-0.654,1.55c-0.007,1.058,0.247,1.565,0.654,1.565H51.564z"/>
	</g>
	<g>
		<path style="fill:#008FD3;" d="M39.504,44.03h0.792v0.377l1.208-0.334v-0.396h0.626l0.501,0.396h1.168l1.001-1.961l-1.252-1.854
			h-4.212v-1.795c0-0.829,0.672-1.5,1.502-1.5h11.176c0.83,0,1.501,0.671,1.501,1.5v7.34c0,0.83-0.671,1.502-1.501,1.502H40.838
			c-0.83,0-1.502-0.672-1.502-1.502v-1.5L39.504,44.03z M45.279,44.698h2.564l-0.41-2.397c0.384-0.271,0.633-0.719,0.633-1.223
			c0-0.83-0.674-1.503-1.501-1.503c-0.83,0-1.502,0.673-1.502,1.503c0,0.472,0.219,0.895,0.561,1.17L45.279,44.698z"/>
		<path style="fill:#008FD3;" d="M37.626,43.525h-1.387c-0.505,1.063-1.59,1.799-2.847,1.799c-1.739,0-3.148-1.411-3.148-3.148
			c0-1.74,1.409-3.149,3.148-3.149c1.228,0,2.289,0.701,2.81,1.724h6.991l1.105,1.403l-1.063,1.482L42.4,43.385v-0.396h-0.896
			L40.9,43.636l-0.751-0.605h-0.584l-0.563,0.627h-0.646v-0.461L37.626,43.525z M31.726,41.299c-0.483,0-0.876,0.394-0.876,0.877
			s0.393,0.875,0.876,0.875c0.482,0,0.876-0.392,0.876-0.875S32.208,41.299,31.726,41.299z"/>
		<path style="fill:#008FD3;" d="M50.064,36.183v-1.518c0-1.341-1.088-2.429-2.43-2.429h-2.361c-1.342,0-2.43,1.088-2.43,2.429
			v1.518h-2.34v-2.501c0-2.211,1.793-4.004,4.003-4.004h3.893c2.213,0,4.003,1.793,4.003,4.004v2.501H50.064z"/>
	</g>
	<g>
		<path style="fill:#008FD3;" d="M30.771,39.105c0-1.419,1.199-2.567,2.68-2.567s2.68,1.148,2.68,2.567l0.592,0.071
			c0-1.731-1.465-3.134-3.271-3.134s-3.271,1.402-3.271,3.134L30.771,39.105z"/>
		<path style="fill:#008FD3;" d="M29.776,38.838c0-1.945,1.646-3.521,3.674-3.521s3.675,1.576,3.675,3.521l0.81,0.097
			c0-2.374-2.007-4.299-4.484-4.299s-4.485,1.925-4.485,4.299L29.776,38.838z"/>
	</g>
	<path style="fill:#008FD3;" d="M28.367,44.389c0,1.642-1.33,2.972-2.971,2.972H9.55c-1.64,0-2.971-1.33-2.971-2.972v-16.34
		c0-1.641,1.331-2.971,2.971-2.971h15.846c1.641,0,2.971,1.33,2.971,2.971V44.389z M26.139,36.161c0-0.311-0.283-0.562-0.632-0.562
		H9.233c-0.349,0-0.632,0.251-0.632,0.562v2.386c0,0.31,0.283,0.56,0.632,0.56h16.273c0.349,0,0.632-0.25,0.632-0.56V36.161z
		 M26.139,41.938c0-0.31-0.283-0.56-0.632-0.56H9.233c-0.349,0-0.632,0.25-0.632,0.56v2.386c0,0.311,0.283,0.561,0.632,0.561h16.273
		c0.349,0,0.632-0.25,0.632-0.561V41.938z M13.885,31.061h2.08v-0.633h-1.327v-2.704h-0.753V31.061z M17.461,31.115
		c0.643,0,1.272-0.406,1.272-1.287c0-0.732-0.496-1.243-1.233-1.243c-0.783,0-1.297,0.5-1.297,1.282s0.545,1.248,1.253,1.248H17.461
		z M17.465,30.576c-0.317,0-0.49-0.313-0.49-0.723c0-0.362,0.139-0.729,0.495-0.729c0.342,0,0.481,0.366,0.481,0.723
		c0,0.436-0.184,0.729-0.481,0.729H17.465z M21.505,29.363c0-0.362,0.01-0.565,0.021-0.725h-0.654l-0.025,0.288h-0.01
		c-0.124-0.198-0.332-0.342-0.663-0.342c-0.599,0-1.1,0.495-1.1,1.278c0,0.692,0.426,1.179,1.025,1.179
		c0.277,0,0.51-0.114,0.653-0.313h0.01v0.153c0,0.45-0.273,0.639-0.629,0.639c-0.287,0-0.549-0.095-0.703-0.184l-0.148,0.576
		c0.218,0.118,0.55,0.183,0.871,0.183c0.356,0,0.718-0.07,0.98-0.297c0.278-0.244,0.372-0.625,0.372-1.091V29.363z M20.753,29.982
		c0,0.063-0.005,0.143-0.025,0.203c-0.049,0.172-0.203,0.3-0.401,0.3c-0.312,0-0.49-0.281-0.49-0.643
		c0-0.44,0.217-0.688,0.495-0.688c0.208,0,0.351,0.135,0.405,0.332c0.01,0.045,0.015,0.094,0.015,0.139V29.982z M22.486,28.322
		c0.263,0,0.426-0.178,0.426-0.4c-0.005-0.228-0.163-0.401-0.42-0.401c-0.258,0-0.426,0.174-0.426,0.401
		c0,0.223,0.163,0.4,0.416,0.4H22.486z M22.863,31.061v-2.422H22.11v2.422H22.863z M23.467,31.061h0.752v-1.396
		c0-0.068,0.005-0.139,0.025-0.188c0.054-0.139,0.177-0.282,0.386-0.282c0.272,0,0.381,0.213,0.381,0.524v1.342h0.753v-1.432
		c0-0.713-0.371-1.044-0.866-1.044c-0.407,0-0.649,0.233-0.748,0.391h-0.015L24.1,28.639h-0.653c0.01,0.219,0.02,0.471,0.02,0.772
		V31.061z M11.077,27.428c-0.732,0-1.329,0.594-1.329,1.327c0,0.734,0.597,1.328,1.329,1.328c0.733,0,1.329-0.594,1.329-1.328
		C12.405,28.021,11.81,27.428,11.077,27.428z M13.753,33.523c0-1.813-1.199-3.039-2.676-3.039s-2.676,1.227-2.676,3.039H13.753z"/>
</g>
</svg>
