<?xml version="1.0" encoding="utf-8"?>
<!-- Generator: Adobe Illustrator 25.0.0, SVG Export Plug-In . SVG Version: 6.00 Build 0)  -->
<svg version="1.1" id="Layer_1" xmlns="http://www.w3.org/2000/svg" xmlns:xlink="http://www.w3.org/1999/xlink" x="0px" y="0px"
	 viewBox="0 0 16 16" style="enable-background:new 0 0 16 16;" xml:space="preserve">
<style type="text/css">
	.st0{fill:#A8A240;}
	.st1{fill:#F0AB00;}
	.st2{fill:#40875E;}
	.st3{fill-rule:evenodd;clip-rule:evenodd;fill:#40875E;}
	.st4{fill-rule:evenodd;clip-rule:evenodd;fill:url(#SVGID_1_);}
</style>
<g>
	<path class="st3" d="M8.02,13.47c-0.41,0.41-0.41,1.07,0,1.48c0.41,0.41,1.08,0.41,1.49,0l6.19-6.15C15.91,8.57,16.01,8.28,16,8
		c0.01-0.29-0.08-0.57-0.3-0.79L9.51,1.06c-0.41-0.41-1.08-0.41-1.49,0c-0.41,0.41-0.41,1.07,0,1.48L13.52,8L8.02,13.47z"/>
	<linearGradient id="SVGID_1_" gradientUnits="userSpaceOnUse" x1="4.1422" y1="15.2494" x2="4.1422" y2="0.7506">
		<stop  offset="0" style="stop-color:#A8A240"/>
		<stop  offset="1" style="stop-color:#F0AB00"/>
	</linearGradient>
	<path class="st4" d="M0.31,13.47c-0.41,0.41-0.41,1.07,0,1.48c0.41,0.41,1.08,0.41,1.49,0l6.19-6.15C8.2,8.57,8.3,8.28,8.28,8
		C8.3,7.72,8.2,7.43,7.98,7.21L1.8,1.06c-0.41-0.41-1.08-0.41-1.49,0c-0.41,0.41-0.41,1.07,0,1.48L5.8,8L0.31,13.47z"/>
</g>
</svg>
