<?xml version="1.0" encoding="utf-8"?>
<!-- Generator: Adobe Illustrator 25.0.0, SVG Export Plug-In . SVG Version: 6.00 Build 0)  -->
<svg version="1.1" id="Layer_1" xmlns="http://www.w3.org/2000/svg" xmlns:xlink="http://www.w3.org/1999/xlink" x="0px" y="0px"
	 viewBox="0 0 16 16" style="enable-background:new 0 0 16 16;" xml:space="preserve">
<style type="text/css">
	.st0{fill:#A8A240;}
	.st1{fill:#F0AB00;}
	.st2{fill:#40875E;}
	.st3{fill-rule:evenodd;clip-rule:evenodd;fill:#40875E;}
	.st4{fill-rule:evenodd;clip-rule:evenodd;fill:url(#SVGID_1_);}
</style>
<path class="st1" d="M5.75,10.32v2.12c0,0.25-0.16,0.41-0.41,0.41c-0.24,0-0.41-0.17-0.41-0.41v-2.12
	c-0.49-0.17-0.82-0.66-0.82-1.15c0-0.66,0.58-1.23,1.23-1.23c0.66,0,1.23,0.57,1.23,1.23C6.57,9.74,6.24,10.15,5.75,10.32
	L5.75,10.32z"/>
<path class="st2" d="M8.22,14.07H2.05c-0.3,0-0.54-0.24-0.54-0.54V7.58c0-0.3,0.24-0.54,0.54-0.54h8.15c0.3,0,0.54,0.24,0.54,0.54
	v0.89l1.01,0.02V7.44c0-0.85-0.69-1.59-1.6-1.59l0,0V3.98C10.15,1.81,8.35,0,6.17,0C3.99,0,2.18,1.81,2.18,3.98v1.86
	c-0.9,0-1.59,0.69-1.59,1.59v5.98c0,0.9,0.69,1.59,1.59,1.59h6.96L8.22,14.07z M9.09,5.85H3.25V4.04c0-1.62,1.29-2.92,2.92-2.92
	c1.62,0,2.92,1.3,2.92,2.92V5.85z"/>
<path class="st1" d="M11.66,14.59c-0.1,0.09-0.21,0.13-0.34,0.13c-0.13,0-0.25-0.04-0.35-0.13c-0.1-0.09-0.15-0.21-0.15-0.36
	c0-0.14,0.05-0.25,0.15-0.35c0.1-0.09,0.21-0.14,0.35-0.14c0.14,0,0.26,0.05,0.35,0.14c0.09,0.09,0.14,0.21,0.14,0.35
	C11.8,14.38,11.76,14.5,11.66,14.59L11.66,14.59z"/>
<path class="st1" d="M12.89,11.54c-0.08,0.14-0.17,0.26-0.27,0.36c-0.1,0.1-0.29,0.28-0.56,0.52c-0.08,0.07-0.14,0.13-0.18,0.18
	c-0.04,0.05-0.08,0.1-0.1,0.14c-0.02,0.04-0.04,0.08-0.05,0.13c-0.01,0.04-0.03,0.12-0.05,0.23c-0.04,0.23-0.17,0.34-0.39,0.34
	c-0.11,0-0.21-0.04-0.29-0.11c-0.08-0.07-0.12-0.19-0.12-0.33c0-0.19,0.03-0.34,0.09-0.48c0.06-0.14,0.13-0.25,0.23-0.36
	c0.09-0.1,0.22-0.22,0.38-0.36c0.14-0.12,0.24-0.22,0.3-0.28c0.06-0.06,0.12-0.13,0.16-0.21c0.04-0.07,0.07-0.16,0.07-0.25
	c0-0.18-0.07-0.33-0.2-0.45c-0.13-0.12-0.3-0.18-0.51-0.18c-0.24,0-0.42,0.06-0.53,0.18c-0.11,0.12-0.21,0.3-0.29,0.54
	c-0.08,0.25-0.22,0.37-0.43,0.37c-0.12,0-0.23-0.04-0.31-0.13c-0.08-0.09-0.13-0.18-0.13-0.28c0-0.21,0.07-0.42,0.2-0.63
	c0.13-0.22,0.33-0.39,0.59-0.53c0.26-0.14,0.56-0.21,0.9-0.21c0.32,0,0.6,0.06,0.84,0.18c0.24,0.12,0.43,0.28,0.57,0.48
	c0.13,0.2,0.2,0.42,0.2,0.66C13,11.23,12.96,11.4,12.89,11.54L12.89,11.54z"/>
<path class="st0" d="M15.41,11.92c0,2.25-1.83,4.08-4.08,4.08c-2.25,0-4.08-1.83-4.08-4.08c0-2.25,1.83-4.08,4.08-4.08
	C13.58,7.84,15.41,9.67,15.41,11.92z M11.33,8.54c-1.87,0-3.38,1.51-3.38,3.38c0,1.87,1.51,3.38,3.38,3.38
	c1.87,0,3.38-1.51,3.38-3.38C14.71,10.05,13.2,8.54,11.33,8.54z"/>
</svg>
