<?xml version="1.0" encoding="utf-8"?>
<!-- Generator: Adobe Illustrator 25.0.0, SVG Export Plug-In . SVG Version: 6.00 Build 0)  -->
<svg version="1.1" id="Layer_1" xmlns="http://www.w3.org/2000/svg" xmlns:xlink="http://www.w3.org/1999/xlink" x="0px" y="0px"
	 viewBox="0 0 36 36" style="enable-background:new 0 0 36 36;" xml:space="preserve">
<style type="text/css">
	.st0{fill:#0B4A99;}
</style>
<g>
	<g>
		<path class="st0" d="M18.12,36l-0.09,0c-0.04,0-0.08,0-0.11,0c-4.26,0-8.4-1.79-11.4-4.93c-3.01-3.15-4.54-7.32-4.3-11.74
			C2.5,13.87,5.08,9.58,9.89,6.58c0.19-0.12,0.36-0.21,0.53-0.27c0.33-0.12,0.69,0.04,0.81,0.37c0.12,0.32-0.04,0.69-0.37,0.81
			c-0.09,0.03-0.18,0.08-0.3,0.16c-4.44,2.77-6.83,6.72-7.1,11.75c-0.22,4.07,1.19,7.91,3.96,10.8c2.76,2.89,6.58,4.55,10.47,4.55
			c0.04,0,0.07,0,0.11,0l0.1,0c6.48-0.11,12.18-4.45,13.9-10.57c0.87-3.16,0.48-5.77,0.44-6.06c-0.58-3.6-2.23-6.61-4.92-8.95
			c-0.74-0.64-1.59-1.17-2.4-1.66c-0.3-0.18-0.39-0.57-0.21-0.86c0.18-0.3,0.56-0.39,0.86-0.21c0.86,0.52,1.76,1.08,2.57,1.79
			c2.92,2.54,4.71,5.8,5.34,9.7c0.08,0.52,0.45,3.25-0.47,6.6C31.34,31.16,25.15,35.88,18.14,36H18.12z"/>
	</g>
	<g>
		<path class="st0" d="M17.91,18.55c-0.35,0-0.63-0.28-0.63-0.63V0.63c0-0.35,0.28-0.63,0.63-0.63c0.35,0,0.63,0.28,0.63,0.63v17.3
			C18.54,18.27,18.26,18.55,17.91,18.55z"/>
	</g>
</g>
</svg>
