<?xml version="1.0" encoding="utf-8"?>
<!-- Generator: Adobe Illustrator 25.0.0, SVG Export Plug-In . SVG Version: 6.00 Build 0)  -->
<svg version="1.1" id="Layer_1" xmlns="http://www.w3.org/2000/svg" xmlns:xlink="http://www.w3.org/1999/xlink" x="0px" y="0px"
	 viewBox="0 0 16 16" style="enable-background:new 0 0 16 16;" xml:space="preserve">
<style type="text/css">
	.st0{fill:#40875E;}
	.st1{fill:#A8A240;}
	.st2{fill:#F0AB00;}
</style>
<path class="st0" d="M8.26,0c0.1,0.06,0.21,0.1,0.3,0.17c0.26,0.2,0.43,0.43,0.43,0.79C8.98,2.65,8.99,4.33,8.98,6.02
	c0,0.54-0.42,0.96-0.97,0.97C7.45,6.99,7.02,6.57,7.02,6.01c0-1.58,0.01-3.16-0.02-4.74C6.99,0.68,7.17,0.25,7.73,0
	C7.91,0,8.08,0,8.26,0z"/>
<path class="st1" d="M7.14,13.93c-3.21-0.57-5.02-4-3.69-6.97c0.3-0.66,0.76-1.19,1.24-1.71c0.12-0.13,0.27-0.31,0.28-0.47
	C5,4.22,4.99,3.66,4.97,3.1C4.97,2.89,4.82,2.81,4.62,2.89c-0.07,0.02-0.13,0.06-0.19,0.1c-2.09,1.3-3.27,3.19-3.4,5.64
	C0.79,12.92,4.29,16.03,8,16v-2.01C7.72,13.99,7.43,13.98,7.14,13.93z"/>
<path class="st2" d="M14.94,8.01c-0.27-1.71-1.05-3.15-2.36-4.29c-0.35-0.3-0.75-0.56-1.14-0.8c-0.24-0.15-0.4-0.04-0.41,0.24
	C11.01,3.42,11.04,3.68,11,3.94c-0.09,0.69,0.16,1.2,0.64,1.69c1.14,1.17,1.54,2.62,1.28,4.22c-0.39,2.42-2.54,4.13-4.92,4.14V16
	c0.02,0,0.04,0,0.06,0c3.09-0.05,5.83-2.1,6.66-5.08C15.16,9.36,14.95,8.08,14.94,8.01z"/>
</svg>
