<?xml version="1.0" encoding="utf-8"?>
<!-- Generator: Adobe Illustrator 25.0.0, SVG Export Plug-In . SVG Version: 6.00 Build 0)  -->
<svg version="1.1" id="Layer_1" xmlns="http://www.w3.org/2000/svg" xmlns:xlink="http://www.w3.org/1999/xlink" x="0px" y="0px"
	 viewBox="0 0 36 36" style="enable-background:new 0 0 36 36;" xml:space="preserve">
<style type="text/css">
	.st0{fill:#A8A240;}
	.st1{fill:#40875E;}
	.st2{fill:#F0AB00;}
	.st3{fill:url(#SVGID_1_);}
	.st4{fill:none;}
	.st5{fill:#0B4A99;}
</style>
<g>
	<path class="st5" d="M36,8.2H11.4V2.9c0-0.6,0.5-1,1.1-1H35c0.5,0,1,0.4,1,1V8.2z M12.2,7.4h23.1V2.9c0-0.1-0.1-0.3-0.3-0.3H12.5
		c-0.1,0-0.3,0.1-0.3,0.3V7.4z"/>
	<path class="st5" d="M35,26.5H12.3c-0.5,0-1-0.5-1-1V8.1h0.8v17.4c0,0.1,0.1,0.1,0.1,0.1H35c0.1,0,0.2-0.1,0.2-0.2V8.1H36v17.6
		C35.9,26.1,35.5,26.5,35,26.5z"/>
	<rect x="19.3" y="7.5" class="st5" width="0.8" height="18.3"/>
	<rect x="27.2" y="7.5" class="st5" width="0.8" height="18.3"/>
	<rect x="11.7" y="13.2" class="st5" width="23.6" height="0.8"/>
	<rect x="11.7" y="19.8" class="st5" width="23.6" height="0.8"/>
	<path class="st5" d="M23.6,34.2H1c-0.5,0-1-0.5-1-1V15.8h0.8v17.4c0,0.1,0.1,0.1,0.1,0.1h22.7c0.1,0,0.2-0.1,0.2-0.2V26h0.8v7.3
		C24.5,33.8,24.1,34.2,23.6,34.2z"/>
	<rect x="7.9" y="15.2" class="st5" width="0.8" height="18.3"/>
	<rect x="15.9" y="26.1" class="st5" width="0.8" height="7.5"/>
	<rect x="0.3" y="20.9" class="st5" width="11.4" height="0.8"/>
	<rect x="0.3" y="27.4" class="st5" width="23.6" height="0.8"/>
	<path class="st4" d="M0.8,10.5v4.5h11v-4.8H1.1C1,10.3,0.8,10.3,0.8,10.5z"/>
	<path class="st5" d="M0.8,15.1v-4.5c0-0.2,0.1-0.3,0.3-0.3h10.7V9.5H1.1c-0.6,0-1.1,0.4-1.1,1v5.3h11.8v-0.8H0.8z"/>
</g>
</svg>
