<?xml version="1.0" encoding="utf-8"?>
<!-- Generator: Adobe Illustrator 25.0.0, SVG Export Plug-In . SVG Version: 6.00 Build 0)  -->
<svg version="1.1" id="Layer_1" xmlns="http://www.w3.org/2000/svg" xmlns:xlink="http://www.w3.org/1999/xlink" x="0px" y="0px"
	 viewBox="0 0 36 36" style="enable-background:new 0 0 36 36;" xml:space="preserve">
<style type="text/css">
	.st0{fill:#7AB5F4;}
	.st1{fill:#FFFFFF;}
	.st2{fill:#0B4A99;}
	.st3{fill:#CB1618;}
	.st4{fill:none;}
	.st5{opacity:0.25;}
	.st6{fill:none;stroke:#0B4A99;stroke-width:3.000000e-02;stroke-miterlimit:10;}
</style>
<path class="st0" d="M28.1,2.2c0,0-7.4,0.3-5.9,7.1c0,0,3.8,7.6,5.9,9.9C28.1,19.2,41.5,4.4,28.1,2.2z M27.8,9.5
	c-1.3,0-2.3-1-2.3-2.3s1-2.3,2.3-2.3c1.3,0,2.3,1,2.3,2.3S29.1,9.5,27.8,9.5z"/>
<g>
	<g>
		<path class="st2" d="M28,20.2l-0.5-0.6c-0.3-0.3-6.2-7.6-6.2-11.5c0-3.7,3-6.7,6.7-6.7s6.7,3,6.7,6.7c0,3.8-6,11.2-6.2,11.5
			L28,20.2z M28,2.7c-3,0-5.4,2.4-5.4,5.4c0,2.6,3.6,7.7,5.4,10.1c1.9-2.4,5.5-7.6,5.5-10.1C33.5,5.1,31,2.7,28,2.7z M27.9,10
			c-1.5,0-2.7-1.2-2.7-2.7s1.2-2.7,2.7-2.7s2.7,1.2,2.7,2.7S29.4,10,27.9,10z M27.9,5.8c-0.8,0-1.5,0.7-1.5,1.5s0.7,1.5,1.5,1.5
			c0.8,0,1.5-0.7,1.5-1.5S28.7,5.8,27.9,5.8z"/>
	</g>
	<g>
		<path class="st2" d="M0.5,36V6.1L11,1.3V0H15v1.4l5.7,2.2l-0.4,0.6c-0.4,0.7-0.7,1.5-0.8,2.3l-0.1,0.8l-5.7-2v20.9l8.6,4.5V16
			l5.9,6.9l7.3-9.6v16.7L23.2,36l-11.5-5.5L0.5,36z M11.7,29.1l11.5,5.5l11-5.3V17.1l-6,7.8l-4.7-5.5v13.2l-11.1-5.8V3.4l6,2.1
			c0.1-0.5,0.3-0.9,0.5-1.3l-5.1-1.9v-1h-1.6v0.8L1.7,6.9V34L11.7,29.1z"/>
	</g>
</g>
</svg>
