<svg id="Layer_1" data-name="Layer 1" xmlns="http://www.w3.org/2000/svg" viewBox="0 0 30 30"><defs><style>.cls-1{fill:#0071c5;}.cls-2{fill:none;}.cls-3{fill:#cc1618;}</style></defs><title>Map Icon</title><rect class="cls-1" x="21.89" y="2.67" width="7.62" height="2.86"/><rect class="cls-1" x="22.38" y="8.36" width="6.73" height="0.85"/><rect class="cls-1" x="22.34" y="12.19" width="6.73" height="0.85"/><rect class="cls-1" x="22.34" y="16.02" width="6.73" height="0.85"/><rect class="cls-1" x="22.34" y="19.85" width="6.73" height="0.85"/><rect class="cls-2" x="22.38" y="21.8" width="0.41" height="0.94"/><polygon class="cls-2" points="23.76 8.23 22.38 8.23 22.38 13.09 23.76 13.09 23.76 15.97 22.38 15.97 22.38 20.83 23.76 20.83 23.76 23.7 22.38 23.7 22.38 24.17 29.03 24.17 29.03 2.96 22.38 2.96 22.38 5.36 23.76 5.36 23.76 8.23"/><rect class="cls-2" x="22.38" y="14.06" width="0.41" height="0.94"/><rect class="cls-2" x="22.38" y="6.32" width="0.41" height="0.94"/><polygon class="cls-1" points="21.41 1.99 21.41 5.36 22.38 5.36 22.38 2.96 29.03 2.96 29.03 24.17 22.38 24.17 22.38 23.7 21.41 23.7 21.41 25.13 30 25.13 30 1.99 21.41 1.99"/><rect class="cls-1" x="0.49" y="5.14" width="7.62" height="2.86"/><rect class="cls-1" x="0.89" y="10.83" width="6.99" height="0.85"/><rect class="cls-1" x="0.93" y="14.66" width="6.73" height="0.85"/><rect class="cls-1" x="0.93" y="18.49" width="6.73" height="0.85"/><rect class="cls-1" x="0.93" y="22.32" width="6.73" height="0.85"/><polygon class="cls-1" points="0 4.46 0 27.6 8.59 27.6 8.59 26.17 7.62 26.17 7.62 26.64 0.97 26.64 0.97 5.43 7.62 5.43 7.62 7.83 8.59 7.83 8.59 4.46 0 4.46"/><rect class="cls-1" x="21.41" y="8.23" width="0.97" height="4.86"/><rect class="cls-1" x="7.63" y="9.3" width="0.97" height="6.8"/><rect class="cls-1" x="7.63" y="17.71" width="0.97" height="6.14"/><rect class="cls-1" x="21.41" y="15.97" width="0.97" height="4.86"/><path class="cls-3" d="M22.38,5.36H20.87V8.23h2.89V5.36Zm.41,1.91h-.94V6.32h.94Z"/><path class="cls-3" d="M22.38,13.09H20.87V16h2.89v-2.9Zm.41,1.9h-.94v-.94h.94Z"/><path class="cls-3" d="M22.38,20.83H20.87V23.7h2.89V20.83Zm.41,1.91h-.94V21.8h.94Z"/><rect class="cls-2" x="7.37" y="8.23" width="0.51" height="0.94"/><path class="cls-3" d="M8.65,7.36H6.19v2.87H9.08V7.36Zm-.54,1.9H7.17V8.32h.94Z"/><rect class="cls-2" x="7.37" y="20.79" width="0.51" height="0.94"/><path class="cls-3" d="M8.65,15.64H6.19v2.87H9.08V15.64Zm-.54,1.91H7.17v-1h.94Z"/><path class="cls-3" d="M8.7,23.52H6.24v2.87H9.13V23.52Zm-.54,1.9H7.22v-.94h.94Z"/><polygon class="cls-3" points="8.79 16.79 21.7 8.09 21.02 7.4 8.11 16.11 8.79 16.79"/><polygon class="cls-3" points="21.28 21.94 21.95 21.23 8.93 9.17 8.26 9.88 21.28 21.94"/><polygon class="cls-3" points="8.57 24.68 21.7 15.83 21.02 15.14 7.88 24 8.57 24.68"/></svg>