<?xml version="1.0" encoding="utf-8"?>
<!-- Generator: Adobe Illustrator 22.0.1, SVG Export Plug-In . SVG Version: 6.00 Build 0)  -->
<svg version="1.1" id="Layer_1" xmlns="http://www.w3.org/2000/svg" xmlns:xlink="http://www.w3.org/1999/xlink" x="0px" y="0px"
	 viewBox="0 0 100 100" style="enable-background:new 0 0 100 100;" xml:space="preserve">
<style type="text/css">
	.st0{fill:none;stroke:#ffffff;stroke-width:7;}
	.st1{fill:none;stroke:#ffffff;stroke-width:7;}
	.st2{fill:#ffffff;}
	.st3{fill:none;stroke:#ffffff;stroke-width:3;}
	.st4{fill:none;stroke:#ffffff;stroke-width:7;stroke-linecap:round;}
	.st5{fill:none;stroke:#ffffff;}
	.st6{fill:none;stroke:#ffffff;stroke-width:8;}
	.st7{fill:none;}
	.st8{fill:#ffffff;}
	.st9{fill:#ffffff;}
	.st10{fill:#ffffff;}
	.st11{font-family:'Optima-Bold';}
	.st12{font-size:7.0045px;}
	.st13{fill:#ffffff;}
	.st14{fill:#ffffff;}
</style>
<path class="st8" d="M1.2,79.4L0.8,91c0,0.3,0.3,0.6,0.6,0.6c0,0,0,0,0,0c0-3,2.5-5.5,5.5-5.5c3,0,5.5,2.5,5.5,5.5
	c0,0.4-0.1,0.9-0.1,1.3H27c-0.3-0.6-0.4-1.4-0.4-2.1c0-0.6,0.1-1.1,0.2-1.6c0.1-0.3,0.2-0.7,0.4-1c0.8-1.5,2.3-2.6,4-2.8
	c0.2,0,0.4,0,0.5-0.1c0.1,0,0.2,0,0.2,0c0.6,0,1.2,0.1,1.8,0.3v-1.3c0-0.4-0.3-0.7-0.7-0.7h-1.7l-4.3-14.3c0.1,0,0.1-0.1,0.1-0.2
	v-0.5c0.1,0,0.1,0,0.1,0v-0.2c0.2,0.1,0.4,0.2,0.6,0.2c0.4-0.1,0.2-0.6,0-1.2c-0.2-0.6-0.2-1.1-0.6-1c-0.4,0.1-0.6,0.7-0.4,1.3
	c0,0,0,0,0,0.1c0,0,0,0.1,0,0.1v0.5c0,0,0,0,0,0l-1.1-3.7c0-0.1-0.1-0.3-0.1-0.4v-0.1c0-0.3-0.3-0.6-0.6-0.6H11.7
	c-0.3,0-0.6,0.3-0.6,0.6v0.6c0,0.2,0.1,0.5,0.4,0.6l-1.2,13.3c0,0,0,0,0,0.1l-0.9,0c-0.1,0-0.2,0-0.3,0.1c0.1,0.1,0.2,0.3,0.2,0.5
	l8.9,4h5.7v-3.6c0-0.4-0.3-0.8-0.6-0.8l-0.2,0c0-0.6-1.5-1.2-3.2-1.2c-0.8,0-1.6,0-2.2,0c0.2-0.6,0.2-1.4,0.1-2.3
	c-0.2-1.8-1.1-3.2-1.7-3.1c-0.6,0.1-0.5,1.6-0.2,3.4c0.1,1,0.3,1.9,0.5,2.4l0,0c0,0.1,0,0.2,0.1,0.3c0.1,0.2,0.3,0.4,0.4,0.4
	c0,0,0,0,0.1,0l-1.9,0l0.7-13.4H25c0.1,0,0.2,0,0.2,0L29.9,81L29,79.6c-0.1-0.2-0.4-0.4-0.6-0.4l-1.2-2c-0.1-0.2-0.4-0.3-0.7-0.3
	l-1-1.6c0,0,0,0,0,0c0.6-0.5,0.9-0.9,0.8-1.1c-0.1-0.2-0.9,0.1-1.7,0.6c-0.8,0.5-1.3,1.1-1.1,1.3c0.1,0.2,0.7,0,1.4-0.4v0l1,1.6
	c-0.2,0.2-0.2,0.5-0.1,0.7l1.2,2c-0.1,0.2-0.1,0.5,0.1,0.7l1.8,2.9h-2.5l-1.4-5c0.1-0.1,0.2-0.2,0.2-0.3c0-0.2-0.2-0.4-0.4-0.4
	c-0.2,0-0.4,0.2-0.4,0.4c0,0.2,0.2,0.4,0.4,0.4c0,0,0,0,0,0l1.4,4.9h-8.4l-9-4.2c0-0.3-0.3-0.6-0.6-0.6H1.8
	C1.5,78.8,1.2,79.1,1.2,79.4 M25.2,75c0,0.1-0.1,0.1-0.2,0.2c-0.1,0-0.1,0.1-0.2,0.1c-0.1,0.1-0.2,0.1-0.2,0c0,0,0.1-0.2,0.3-0.3
	c0.2-0.1,0.3-0.2,0.4-0.1C25.2,74.9,25.2,75,25.2,75z M14.9,65.5l-0.7,13.4l-2.8,0l1.2-13.3H14.9z"/>
<path class="st8" d="M33.9,85.6c2.1,0.8,3.6,2.8,3.6,5.2c0,1.2-0.4,2.3-1.1,3.2h1.1c0.3,0,0.6-0.3,0.6-0.6v-0.7H39v0.9
	c0,0.2,0.1,0.4,0.2,0.4h1.1c0.1,0,0.2-0.2,0.2-0.4V93h4.5c0.2,0,0.4,0,0.4-0.1v0c0-0.1-0.2-0.1-0.4-0.1l-4.5-0.5v-0.8h2
	c0.2,0,0.3,0,0.3-0.1v0c0-0.1-0.1-0.1-0.3-0.1l-2-0.5V74.5c0-0.2-0.1-0.4-0.2-0.4h-1.1c-0.1,0-0.2,0.2-0.2,0.4v0.4h-0.9V58.4
	c0-0.1-0.2-0.1-0.4-0.1c0,0-0.1,0-0.1,0h-4.7c-0.4,0-0.8,0.1-0.8,0.2v7.1c0,0.1,0.4,0.2,0.8,0.2h1V85.6 M33.9,59
	C33.9,59,33.9,59,33.9,59l0,5.9c0,0,0,0.1,0,0.1c0,0-0.1,0.1-0.1,0.1h-0.7c-0.1,0-0.1-0.1-0.1-0.1v-5.8c0-0.1,0.1-0.1,0.1-0.1h0.7
	C33.8,58.9,33.8,58.9,33.9,59z M38.1,82.6v-3.1H39v3.1H38.1z"/>
<path class="st9" d="M27.2,90.2c0,0.1,0,0.1,0,0.1s0.1,0.1,0.2,0.1c0,0.1,0,0.2,0,0.3c0,0.1,0,0.2,0,0.3c-0.1,0.1-0.2,0.1-0.2,0.1
	s0,0.1,0,0.1c0,0.1,0,0.2,0,0.3c0,0.1,0,0.2,0.1,0.3c0,0.1,0,0.1,0,0.1s0.1,0,0.2,0.1c0.1,0.2,0.1,0.4,0.2,0.6
	c0,0.1-0.1,0.1-0.1,0.1c0,0,0,0.1,0,0.1s0,0.1,0.1,0.1c0,0.1,0.1,0.2,0.2,0.3c0.1,0.1,0.1,0.2,0.2,0.3c0.1,0.1,0.1,0.1,0.1,0.1
	s0.1,0,0.2,0c0.1,0.2,0.3,0.3,0.4,0.5c0,0.1,0,0.2,0,0.2s0,0,0.1,0.1c0.1,0.1,0.2,0.1,0.2,0.2c0.1,0.1,0.2,0.1,0.2,0.2
	c0.1,0,0.1,0.1,0.1,0.1s0.1,0,0.2-0.1c0.2,0.1,0.4,0.2,0.6,0.3c0,0,0,0.1,0,0.1c0,0.1,0,0.1,0,0.1s0.1,0,0.1,0
	c0.1,0,0.2,0.1,0.3,0.1c0.1,0,0.2,0.1,0.3,0.1c0,0,0.1,0,0.1,0c0,0,0,0,0,0s0.1-0.1,0.1-0.2c0.2,0,0.4,0.1,0.6,0.1
	c0.1,0.1,0.1,0.2,0.1,0.2s0.2,0,0.4,0c0.1,0,0.2,0,0.3,0c0.1,0,0.1,0,0.1,0s0,0,0-0.1c0,0,0-0.1,0-0.1c0.2,0,0.4-0.1,0.6-0.2
	c0.1,0.1,0.2,0.1,0.2,0.1s0.1,0,0.1,0c0.1,0,0.2-0.1,0.3-0.1c0.1,0,0.1,0,0.1-0.1c0,0,0.1-0.1,0.1-0.1c0.1,0,0.1-0.1,0.1-0.1
	s0-0.1,0-0.2c0.2-0.1,0.3-0.2,0.5-0.4c0.1,0,0.2,0.1,0.2,0.1c0,0,0.2-0.1,0.3-0.3c0,0,0,0,0,0c0.2-0.2,0.3-0.3,0.3-0.3
	s0-0.1-0.1-0.2c0.1-0.2,0.2-0.3,0.3-0.5c0,0,0.1,0,0.1,0c0.1,0,0.1,0,0.1,0s0-0.1,0.1-0.1c0-0.1,0.1-0.2,0.1-0.3
	c0-0.1,0.1-0.2,0.1-0.3c0-0.1,0-0.1,0-0.1c0,0-0.1-0.1-0.1-0.2c0.1-0.2,0.1-0.4,0.1-0.6c0,0,0.1,0,0.1,0c0.1,0,0.1-0.1,0.1-0.1
	s0-0.2,0-0.4c0-0.2,0-0.4,0-0.4s0,0-0.1-0.1c0,0-0.1,0-0.1,0c0-0.2-0.1-0.4-0.1-0.6c0.1-0.1,0.1-0.2,0.1-0.2c0,0,0-0.1,0-0.1
	c0-0.1-0.1-0.2-0.1-0.3c0-0.1-0.1-0.2-0.1-0.3c0-0.1-0.1-0.1-0.1-0.1s0,0-0.1,0c0,0-0.1,0-0.1,0c-0.1-0.2-0.2-0.4-0.3-0.5
	c0-0.1,0.1-0.2,0.1-0.2s-0.1-0.2-0.3-0.3c-0.1-0.2-0.3-0.3-0.3-0.3c0,0-0.1,0-0.2,0.1c-0.2-0.1-0.3-0.3-0.5-0.4c0-0.1,0-0.2,0-0.2
	s0,0-0.1-0.1c0,0-0.1,0-0.1-0.1c0,0-0.1,0-0.1-0.1c-0.1,0-0.2-0.1-0.3-0.1c0,0,0,0,0,0c0,0,0,0,0,0c0,0-0.1,0-0.1,0
	s-0.1,0.1-0.2,0.1c-0.2-0.1-0.4-0.1-0.6-0.2c0,0,0-0.1,0-0.1c0-0.1,0-0.1,0-0.1s-0.1,0-0.1,0c-0.1,0-0.2,0-0.3,0c-0.2,0-0.4,0-0.4,0
	S32,86,31.9,86.1c-0.2,0-0.4,0-0.6,0.1c-0.1-0.1-0.1-0.2-0.1-0.2s0,0,0,0c0,0-0.1,0-0.1,0c-0.1,0-0.2,0-0.3,0.1
	c-0.1,0-0.2,0.1-0.3,0.1c-0.1,0-0.1,0-0.1,0s0,0,0,0.1c0,0,0,0.1,0,0.1c-0.2,0.1-0.4,0.2-0.6,0.3c-0.1-0.1-0.2-0.1-0.2-0.1
	s0,0-0.1,0.1c-0.1,0-0.2,0.1-0.2,0.2C29,87,28.9,87,28.9,87.1c-0.1,0.1-0.1,0.1-0.1,0.1s0,0.1,0,0.2c-0.1,0.1-0.3,0.3-0.4,0.5
	c-0.1,0-0.2,0-0.2,0s0,0-0.1,0.1C28,88,28,88.1,27.9,88.2c0,0.1-0.1,0.1-0.1,0.2c0,0,0,0,0,0.1c0,0.1-0.1,0.1-0.1,0.1s0,0.1,0.1,0.2
	c0,0.1-0.1,0.2-0.1,0.3c0,0.1-0.1,0.2-0.1,0.3c-0.1,0-0.2,0.1-0.2,0.1s0,0.1,0,0.1c0,0.1-0.1,0.2-0.1,0.3
	C27.3,90,27.3,90.1,27.2,90.2 M30.4,92.9c-0.6-0.5-1-1.2-1-2.1c0-0.5,0.1-1,0.4-1.4c0.1-0.1,0.1-0.2,0.2-0.2c0.5-0.6,1.2-1,2.1-1
	c0.7,0,1.3,0.2,1.7,0.6c0,0,0.1,0.1,0.1,0.1c0.5,0.5,0.8,1.1,0.8,1.9c0,0.3,0,0.6-0.1,0.8c-0.1,0.4-0.4,0.8-0.7,1
	c-0.1,0.1-0.2,0.2-0.3,0.2c-0.4,0.3-1,0.5-1.6,0.5C31.4,93.4,30.9,93.2,30.4,92.9z"/>
<path class="st10" d="M32,89.2c0.9,0,1.6,0.7,1.6,1.6c0,0.1,0,0.3,0,0.4c-0.2,0.7-0.8,1.2-1.5,1.2c-0.9,0-1.6-0.7-1.6-1.6
	c0-0.4,0.1-0.7,0.3-0.9C31.1,89.4,31.5,89.2,32,89.2"/>
<path class="st9" d="M2.1,90.9c0,0.1,0,0.1,0,0.1s0.1,0.1,0.2,0.1c0,0.1,0,0.2,0,0.3c0,0.1,0,0.1,0,0.2c0,0,0,0.1,0,0.1
	C2.2,91.9,2.1,92,2.1,92s0,0.1,0,0.1c0,0.1,0,0.2,0,0.3c0,0.1,0,0.2,0.1,0.3c0,0.1,0,0.1,0,0.1s0.1,0,0.2,0.1
	c0.1,0.2,0.1,0.4,0.2,0.6c-0.1,0.1-0.1,0.2-0.1,0.2s0,0,0.1,0.1c0,0.1,0.1,0.2,0.2,0.3c0.1,0.1,0.1,0.2,0.2,0.3
	C3,94.4,3,94.4,3,94.4s0.1,0,0.2,0c0.1,0.2,0.3,0.3,0.4,0.5c0,0.1,0,0.2,0,0.2s0,0,0.1,0.1c0.1,0.1,0.1,0.1,0.2,0.2
	c0.1,0.1,0.2,0.1,0.2,0.2c0.1,0,0.1,0.1,0.1,0.1s0.1,0,0.2-0.1c0.2,0.1,0.4,0.2,0.6,0.3c0,0,0,0.1,0,0.1c0,0.1,0,0.1,0,0.1
	s0.1,0,0.1,0c0.1,0,0.2,0.1,0.3,0.1c0.1,0,0.2,0.1,0.3,0.1c0,0,0.1,0,0.1,0c0,0,0,0,0,0s0.1-0.1,0.1-0.2c0.2,0,0.4,0.1,0.6,0.1
	c0.1,0.1,0.1,0.2,0.1,0.2s0.2,0,0.4,0c0.1,0,0.2,0,0.3,0c0.1,0,0.1,0,0.1,0s0,0,0-0.1c0,0,0-0.1,0-0.1c0.2,0,0.4-0.1,0.6-0.2
	C8.6,96,8.6,96,8.6,96s0.1,0,0.1,0c0.1,0,0.2-0.1,0.3-0.1c0.1,0,0.1,0,0.1-0.1c0,0,0.1-0.1,0.1-0.1c0.1,0,0.1-0.1,0.1-0.1
	s0-0.1,0-0.2c0.2-0.1,0.3-0.2,0.5-0.4c0.1,0,0.2,0.1,0.2,0.1s0.2-0.1,0.3-0.3c0.2-0.2,0.3-0.3,0.3-0.3s0-0.1-0.1-0.2
	c0.1-0.2,0.2-0.3,0.3-0.5c0,0,0.1,0,0.1,0c0.1,0,0.1,0,0.1,0s0,0,0.1-0.1c0-0.1,0.1-0.2,0.1-0.3c0-0.1,0.1-0.2,0.1-0.3
	c0-0.1,0-0.1,0-0.1c0,0,0,0-0.1-0.1c0,0-0.1-0.1-0.1-0.1c0.1-0.2,0.1-0.4,0.1-0.6c0,0,0.1,0,0.1,0c0.1,0,0.1-0.1,0.1-0.1
	s0-0.2,0-0.4c0-0.2,0-0.4,0-0.4s0,0-0.1-0.1c0,0-0.1,0-0.1,0c0-0.2-0.1-0.4-0.1-0.6c0.1-0.1,0.1-0.2,0.1-0.2c0,0,0-0.1,0-0.1
	c0-0.1-0.1-0.2-0.1-0.3c0-0.1-0.1-0.2-0.1-0.3c0-0.1-0.1-0.1-0.1-0.1s0,0-0.1,0c0,0-0.1,0-0.1,0c-0.1-0.2-0.2-0.4-0.3-0.5
	c0-0.1,0.1-0.2,0.1-0.2s-0.1-0.2-0.3-0.3c-0.1-0.2-0.3-0.3-0.3-0.3s-0.1,0-0.2,0.1c-0.2-0.1-0.3-0.3-0.5-0.4c0-0.1,0-0.2,0-0.2
	s0,0-0.1-0.1c0,0-0.1,0-0.1-0.1c0,0-0.1,0-0.1-0.1c-0.1,0-0.2-0.1-0.3-0.1c-0.1,0-0.1,0-0.1,0s-0.1,0.1-0.2,0.1
	C8.3,87.1,8.1,87,7.9,87c0,0,0-0.1,0-0.1c0-0.1,0-0.1,0-0.1s-0.1,0-0.1,0c-0.1,0-0.2,0-0.3,0c-0.2,0-0.4,0-0.4,0s-0.1,0.1-0.1,0.2
	c-0.2,0-0.4,0-0.6,0.1C6.1,86.8,6,86.8,6,86.8s0,0,0,0c0,0-0.1,0-0.1,0c-0.1,0-0.2,0-0.3,0.1c-0.1,0-0.2,0.1-0.3,0.1
	c-0.1,0-0.1,0-0.1,0s0,0,0,0.1c0,0,0,0.1,0,0.1c-0.2,0.1-0.4,0.2-0.6,0.3c-0.1-0.1-0.2-0.1-0.2-0.1s0,0-0.1,0.1
	c-0.1,0-0.2,0.1-0.2,0.2c-0.1,0.1-0.2,0.1-0.2,0.2C3.7,87.9,3.6,88,3.6,88s0,0.1,0,0.2c-0.1,0.1-0.3,0.3-0.4,0.5c-0.1,0-0.2,0-0.2,0
	s0,0-0.1,0.1c-0.1,0.1-0.1,0.2-0.2,0.3c-0.1,0.1-0.1,0.2-0.2,0.3c0,0.1-0.1,0.1-0.1,0.1s0,0.1,0.1,0.2c-0.1,0.2-0.2,0.4-0.2,0.6
	c-0.1,0-0.2,0.1-0.2,0.1s0,0.1,0,0.1c0,0.1-0.1,0.2-0.1,0.3C2.1,90.7,2.1,90.9,2.1,90.9 M4.3,91.9c0-0.1,0-0.3,0-0.4
	c0-1.5,1.2-2.6,2.6-2.6c1.5,0,2.6,1.2,2.6,2.6c0,0.4-0.1,0.7-0.2,1c-0.4,1-1.3,1.6-2.4,1.6C5.6,94.2,4.5,93.2,4.3,91.9z"/>
<path class="st10" d="M6.9,90c0.9,0,1.6,0.7,1.6,1.6c0,0.3-0.1,0.6-0.3,0.9c-0.3,0.4-0.8,0.7-1.3,0.7c-0.7,0-1.2-0.4-1.5-1
	c-0.1-0.2-0.1-0.4-0.1-0.6C5.3,90.7,6,90,6.9,90"/>
<g>
	<path class="st2" d="M87.1,77.9c0,1.2,1.3,2.1,2.8,2.1c1.5,0,2.8-1,2.8-2.1c0-1.2-1.3-2.1-2.8-2.1C88.4,75.8,87.1,76.8,87.1,77.9z
		 M87.4,77.9c0-1.1,1.2-1.9,2.6-1.9c1.4,0,2.6,0.9,2.6,1.9c0,1.1-1.2,1.9-2.6,1.9C88.5,79.9,87.4,79,87.4,77.9z"/>
</g>
<g>
	<path class="st9" d="M96.1,56.6H61.3c-1.7,0-3.2,1.4-3.2,3.2v35.2c0,1.7,1.4,3.2,3.2,3.2h34.7c1.7,0,3.2-1.4,3.2-3.2V59.7
		C99.3,58,97.8,56.6,96.1,56.6z M97.8,59.7v35.2c0,1-0.8,1.7-1.7,1.7H61.3c-1,0-1.7-0.8-1.7-1.7V59.7c0-1,0.8-1.7,1.7-1.7h34.7
		C97,58,97.8,58.8,97.8,59.7z"/>
</g>
<path class="st10" d="M67.6,64.8c1.1,0,2-0.9,2-2c0-1.1-0.9-2-2-2c-1.1,0-2,0.9-2,2C65.6,63.9,66.5,64.8,67.6,64.8z M67.6,59.2
	c2,0,3.6,1.6,3.6,3.6c0,0.6-0.1,1.1-0.4,1.6l-3.2,6.6l-3.2-6.6c-0.2-0.5-0.4-1-0.4-1.6C64,60.8,65.6,59.2,67.6,59.2z"/>
<path class="st8" d="M89.9,81.6c-1.2,0-2.3-0.4-3.1-1.1L73.5,92.6c-0.4,1.6-2.2,2.8-4.2,2.8c-2.4,0-4.3-1.6-4.3-3.7
	c0-0.8,0.3-1.6,1-2.3l1.2,1.1c-0.2,0.2-0.5,0.6-0.5,1.2c0,1.1,1.2,2,2.7,2c1.5,0,2.7-0.9,2.7-2c0-0.5-0.3-0.9-0.5-1.2l1.2-1.1
	c0.3,0.3,0.5,0.7,0.7,1.1l12.5-11.3c-0.2-0.4-0.3-0.8-0.3-1.2c0-0.2,0-0.3,0-0.5l-14-6.1c-0.4,1.6-2.2,2.8-4.2,2.8
	c-2.4,0-4.3-1.6-4.3-3.7c0-0.8,0.3-1.6,1-2.3l1.2,1.1c-0.2,0.2-0.5,0.6-0.5,1.2c0,1.1,1.2,2,2.7,2c1.5,0,2.7-0.9,2.7-2
	c0-0.5-0.3-0.9-0.5-1.2l1.2-1.1c0.4,0.4,0.6,0.8,0.8,1.3L86.3,76c0.8-1,2.1-1.7,3.6-1.7c2.4,0,4.3,1.6,4.3,3.7
	C94.3,80,92.3,81.6,89.9,81.6z"/>
<path class="st10" d="M69.4,86c1.1,0,2-0.9,2-2c0-1.1-0.9-2-2-2c-1.1,0-2,0.9-2,2C67.4,85.1,68.3,86,69.4,86z M65.7,84
	c0-2,1.6-3.6,3.6-3.6c2,0,3.6,1.6,3.6,3.6c0,0.6-0.1,1.1-0.4,1.6l-3.2,6.6l-3.2-6.6C65.9,85.1,65.7,84.6,65.7,84z"/>
<path class="st8" d="M97.6,9l-2.7,1.6c-1,0.6-1.5,0.7-2.4-0.1c-0.8-0.6-1.3-1.6-1.4-2.5c-0.2-1,0.3-1.5,1-1.8l3.1-1.5
	c-0.2-0.3-0.4-0.4-0.6-0.5c-1.7-0.3-4.9,0.1-6.3,1.9c-1.4,1.7-1.2,5.1-4.1,7.9l-22.7,22c-1,0.9-2.3,1.8-3.9,2.5
	c1.1-0.1,2.2,0.3,3,1.2c0.8,0.8,1.2,2,1,3.1c0.8-1.5,1.7-2.8,2.7-3.8l22.7-22c1.6-1.6,3.1-2.3,5.3-2.6c-0.1,0-0.2-0.1-0.3-0.1
	c0.6,0.1,1.1,0,1.6-0.1c2-0.6,3.6-2.7,4-4.3C97.8,9.5,97.8,9.3,97.6,9L97.6,9z M60.6,39.7c-1.4-1.5-3.8-1.5-5.3-0.1
	c-1.5,1.4-1.5,3.8-0.1,5.3c1.4,1.5,3.8,1.5,5.3,0.1C62,43.5,62,41.2,60.6,39.7L60.6,39.7z M59.3,44.8L59.3,44.8
	c-0.5-0.3-1.2-0.2-1.5,0.4c-0.2-0.5-1-0.7-1.4-0.4c0.1-0.6-0.5-1.1-1.1-1.1c0.3-0.5,0.2-1.2-0.4-1.5c0.5-0.2,0.7-1,0.4-1.4
	c0.6,0.1,1.1-0.5,1.1-1.1c0.5,0.3,1.2,0.2,1.5-0.4c0.2,0.5,1,0.7,1.5,0.4c-0.1,0.6,0.5,1.1,1,1.1c-0.3,0.5-0.2,1.2,0.4,1.5
	c-0.5,0.2-0.7,1-0.4,1.4C59.8,43.7,59.2,44.3,59.3,44.8L59.3,44.8z M62.9,39.1L62.9,39.1l-1.7-1.7l1.4-1.4l1.7,1.7L62.9,39.1z"/>
<path class="st9" d="M75.4,4.7c-0.2-0.1-0.8-0.3-1.1-0.3c-0.3-0.1-2.5-0.4-4.1-0.4c-1.6,0-2.4,0-3.8,0.3c-1.5,0.4-3.1,1-4.3,2.1
	C61.2,7,59.4,8.9,59,9.4c-0.4,0.5-0.4,1-0.6,1.4c-0.2,0.4-0.5,1.1-0.8,1.4c-0.2,0.3-0.8,0.8-1.1,0.9c-0.2,0.1-0.7,0.2-1,0.4
	c-0.1,0-0.1,0.1-0.2,0.2l3.1,3.2c0.2-0.3,0.5-0.5,0.5-0.6c0.1-0.1,0.2-0.4,0.3-0.6c0.1-0.2,0.3-0.7,0.6-1.1c0.3-0.4,0.6-0.8,1-1.2
	c0.4-0.4,0.8-0.8,1.2-0.7c0.4,0.1,0.7,0.2,1.2,0.6c0.5,0.4,1,0.9,1.3,1.1c0.2,0.2,0.5,0,0.5,0s0.7,0.8,1.2,1.2
	c0.5,0.5,2.2,1.9,2.8,2.5c0.5,0.6,1.6,1.6,2.3,2.3c0.6,0.7,3.7,4.3,4.5,5.2c0,0-0.2,0.2,0,0.4c0.2,0.3,0.8,0.9,1.1,1.3
	c0.4,0.4,2,2.4,2.6,3c0.5,0.6,2.3,2.5,3,3.3c0.8,0.7,4,3.9,4.5,4.4c0.5,0.5,2.4,2.7,3,3.4c0.6,0.7,2.9,3.6,3.2,4.1
	c0.3,0.5,0.5,0.5,0.9,0.4c0.3-0.1,0.7-0.4,1-0.6c0.3-0.3,0.6-0.5,1.3-1.1c0.7-0.6,1.1-1.1,1.4-1.4c0.2-0.3,0.3-0.6,0.3-0.7
	c0-0.2-0.1-0.4-0.3-0.5c-0.2-0.2-3.4-3-3.9-3.5c-0.5-0.5-2.4-2.3-3.3-3.2c-0.9-1-3.4-3.9-4.1-4.8c-0.6-0.8-2.2-2.5-3-3.3
	c-0.8-0.8-2.6-2.4-3-2.9c-0.5-0.5-0.9-0.8-1.2-1.1c-0.2-0.3-0.4-0.1-0.4-0.1s-4.3-4.2-4.8-4.8c-0.5-0.6-1.7-1.8-2.2-2.5
	c-0.6-0.7-1.7-2.3-2.1-2.8c-0.4-0.5-1-1.2-1.3-1.5c0,0,0.3-0.2,0-0.6c-0.2-0.3-1-1.3-1.4-1.8c-0.3-0.5-0.6-1.3,0-1.9
	c0.4-0.4,1.4-0.7,2-0.9c0.5-0.2,1.2-0.3,2.3-0.5c1.3-0.2,2.9-0.2,3.2-0.2c0.4,0,0.8-0.2,1-0.3C75.6,5,75.7,4.8,75.4,4.7L75.4,4.7z
	 M54.8,14.2c-0.3,0.3-0.6,0.6-0.7,0.8c-0.3,0.3,0.1,0.8,0.3,1c0.2,0.3,0.6,0.7,1,1.1c0.4,0.4,1.2,0.8,1.4,0.9
	c0.2,0.1,0.5,0.1,0.7-0.1c0.1-0.1,0.2-0.2,0.4-0.5L54.8,14.2z M93.6,44.2l-7.5-8l2.5-2.4l7.5,8L93.6,44.2z"/>
<g>
	<path class="st9" d="M38.6,4.2H3.9c-1.7,0-3.2,1.4-3.2,3.2v35.2c0,1.7,1.4,3.2,3.2,3.2h34.7c1.7,0,3.2-1.4,3.2-3.2V7.4
		C41.8,5.7,40.4,4.2,38.6,4.2z M40.4,7.4v35.2c0,1-0.8,1.7-1.7,1.7H3.9c-1,0-1.7-0.8-1.7-1.7V7.4c0-1,0.8-1.7,1.7-1.7h34.7
		C39.6,5.7,40.4,6.4,40.4,7.4z"/>
</g>
<path class="st8" d="M17.7,40.2c-0.4,0-0.7,0.3-0.7,0.7c0,0.4,0.3,0.7,0.7,0.7h14.7c0.4,0,0.7-0.3,0.7-0.7c0-0.4-0.3-0.7-0.7-0.7
	H17.7z"/>
<path class="st8" d="M17.7,28.3c-0.4,0-0.7,0.3-0.7,0.7c0,0.4,0.3,0.7,0.7,0.7h14.7c0.4,0,0.7-0.3,0.7-0.7c0-0.4-0.3-0.7-0.7-0.7
	H17.7z"/>
<path class="st8" d="M22.5,34c-0.4,0-0.7,0.3-0.7,0.7c0,0.4,0.3,0.7,0.7,0.7h14.7c0.4,0,0.7-0.3,0.7-0.7c0-0.4-0.3-0.7-0.7-0.7H22.5
	z"/>
<path class="st10" d="M13.2,37.2c0,1-0.4,1.8-1.1,2.4c-0.5,0.4-1,0.6-1.7,0.8v1.5c0,0.2-0.1,0.3-0.3,0.3H8.4c-0.2,0-0.3-0.1-0.3-0.3
	v-1.5c-1.6-0.4-2.6-1.5-2.8-3.1c0-0.2,0.1-0.3,0.3-0.3h1.6c0.2,0,0.3,0.1,0.3,0.3c0,0,0,0.1,0,0.1C7.7,37.7,8,38,8.3,38.2l0,0
	c0.3,0.2,0.7,0.2,1,0.2c1,0,1.6-0.5,1.6-1.3c0-0.9-1.3-1.5-2.1-1.7l0,0c-1.2-0.4-3.4-1-3.4-3.2c0-1.5,1.2-2.7,2.8-3v-1.4
	c0-0.2,0.1-0.3,0.3-0.3h1.6c0.2,0,0.3,0.1,0.3,0.3v1.6c1.3,0.4,2.2,1.4,2.3,2.7c0,0.2-0.1,0.3-0.3,0.3h-1.6c-0.2,0-0.3-0.1-0.3-0.3
	c0-0.2-0.1-0.4-0.3-0.6c-0.2-0.2-0.5-0.4-0.9-0.4c-0.1,0-0.1,0-0.2,0H9c-0.4,0-0.8,0.1-1,0.4c-0.2,0.1-0.4,0.4-0.4,0.7
	c0,0.6,0.7,0.9,1.9,1.3l0,0C11.9,34.3,13.2,35.5,13.2,37.2z"/>
<path class="st9" d="M4.4,13.2v12h33.8v-12H4.4z M37.6,13.8c0,0.6,0,10.1,0,10.7c-0.6,0-32,0-32.6,0c0-0.6,0-10.1,0-10.7
	C5.5,13.8,37,13.8,37.6,13.8z"/>
<rect x="16.4" y="20.1" class="st10" width="9.7" height="3.2"/>
<rect x="5.8" y="14.6" class="st9" width="10.3" height="3.9"/>
<path class="st10" d="M15.5,15.3c0,0.5,0,2.2,0,2.6c-0.5,0-8.6,0-9.1,0c0-0.5,0-2.2,0-2.6C6.9,15.3,15,15.3,15.5,15.3z"/>
<path class="st8" d="M5.8,19.8v3.9h10.3v-3.9H5.8z M15.5,20.4c0,0.5,0,2.2,0,2.6c-0.5,0-8.6,0-9.1,0c0-0.5,0-2.2,0-2.6
	C6.9,20.4,15,20.4,15.5,20.4z"/>
<rect x="26.8" y="15" class="st10" width="9.7" height="3.2"/>
<path class="st8" d="M26.5,19.8v3.9h10.3v-3.9H26.5z M36.2,20.4c0,0.5,0,2.2,0,2.6c-0.5,0-8.6,0-9.1,0c0-0.5,0-2.2,0-2.6
	C27.6,20.4,35.7,20.4,36.2,20.4z"/>
<g>
	<text transform="matrix(1.2526 0 0 1 12.1206 11.9814)" class="st11 st12">BoM</text>
</g>
</svg>
