<svg id="Layer_1" data-name="Layer 1" xmlns="http://www.w3.org/2000/svg" viewBox="0 0 100 100"><defs><style>.cls-1{fill:#a8a240;}.cls-2{fill:#40875e;}.cls-3{fill:#f0ab00;}</style></defs><title>Masters_Icons</title><path class="cls-1" d="M68.25,71.62l-3.78-.06a.78.78,0,0,1-.71-.62l-.87-5.5a1.18,1.18,0,0,0-.36-.73A1.63,1.63,0,0,0,61.11,64l-4.77.21A1.76,1.76,0,0,0,54.67,66V77.51c0,.6,0,1.61-.07,2.24l-.16,2.75a7.09,7.09,0,0,1-.49,2L52,88.91a1.47,1.47,0,0,0,0,1.28A1.49,1.49,0,0,0,53,91l.19,0a1.54,1.54,0,0,0,.43,0A2.06,2.06,0,0,0,55.47,90l1.8-3.68A12.68,12.68,0,0,0,58.09,84l1-4.27,2.48,3.81a5.13,5.13,0,0,1,.69,1.89l.48,4.24a1.86,1.86,0,0,0,1.81,1.62h.27A1.57,1.57,0,0,0,66,90.8a1.61,1.61,0,0,0,.39-1.23l-.51-5.14a11.3,11.3,0,0,0-.56-2.38L63,75.78l0-1.23,5.46-.21a1.64,1.64,0,0,0,1.18-.52,1.17,1.17,0,0,0,.31-.89,1.56,1.56,0,0,0-1.63-1.31Z"/><path class="cls-1" d="M57.77,63a4.22,4.22,0,0,0,1.36-.23,4.1,4.1,0,0,0,2.7-4.16l1-.11a1.84,1.84,0,0,0,1.43-1.12l.32-.89a1,1,0,0,0-.09-.93.94.94,0,0,0-.81-.4h-.12L60,55.48a4,4,0,0,0-2.2-.65,4.22,4.22,0,0,0-1.36.23A4.07,4.07,0,0,0,57.77,63Z"/><path class="cls-2" d="M74.24,63.8a1.68,1.68,0,0,0-1.66-1.55H65.77a1.51,1.51,0,0,0-1.51,1.62l.35,5a1.68,1.68,0,0,0,1.65,1.55h6.82a1.55,1.55,0,0,0,1.11-.48,1.53,1.53,0,0,0,.39-1.14Z"/><path class="cls-3" d="M90.76,64.32A4.28,4.28,0,1,0,86.48,60a4.29,4.29,0,0,0,4.28,4.28Z"/><path class="cls-3" d="M99.39,70.51l-2.94-4.09a2.81,2.81,0,0,0-2.37-1.07H87a4.89,4.89,0,0,0-1.88.53L82.86,67a2.07,2.07,0,0,1-.89.18,1.78,1.78,0,0,1-.61-.09l-3.65-1.36a1.32,1.32,0,0,0-.51-.1A1.2,1.2,0,0,0,76,66.93v.27a2.18,2.18,0,0,0,1.33,1.92L81,70.49a4,4,0,0,0,2.35,0l2.87-1V89.63a1.9,1.9,0,0,0,1.9,1.9h.44a1.9,1.9,0,0,0,1.9-1.9v-10H91v10a1.9,1.9,0,0,0,1.9,1.9h.45a1.9,1.9,0,0,0,1.9-1.9V77.47a2.7,2.7,0,0,0,1.92-1.12l2.25-3.5a2.22,2.22,0,0,0,0-2.34Z"/><path class="cls-1" d="M19.66,81.2V73.58a1,1,0,0,0-.53-.26s-4.74-.59-4.8-.58H12.18a.8.8,0,0,0-.91.91v6.92Z"/><path class="cls-1" d="M13,71.77a2.66,2.66,0,0,0,2.66-2.66,2.5,2.5,0,0,0-.05-.55h.58a1,1,0,0,0,.87-.56l.2-.41a.6.6,0,0,0,0-.57.58.58,0,0,0-.5-.25H14.26A2.6,2.6,0,0,0,13,66.45a2.66,2.66,0,0,0,0,5.32Z"/><path class="cls-3" d="M4.86,82.34a4.28,4.28,0,1,0,4.28,4.28,4.28,4.28,0,0,0-4.28-4.28Zm0,6.42A2.14,2.14,0,1,1,7,86.62a2.14,2.14,0,0,1-2.14,2.14Zm25.89-4.68H43.24v2.18h-12A5.38,5.38,0,0,0,28.57,82h0l0-.05V55.46h2.18ZM17.3,59.74A3.28,3.28,0,0,0,14.38,58h-7a2.18,2.18,0,0,0-2.18,2.17V71.56H3A2.72,2.72,0,0,0,.25,74.28v9.6a5.37,5.37,0,0,1,10,2.38H20.49A5.37,5.37,0,0,1,28.57,82v0Zm4.12,16.2H9.1a.55.55,0,0,1-.54-.55V61.86a.55.55,0,0,1,.54-.55h5.37a.55.55,0,0,1,.48.3l7,13.53a.55.55,0,0,1-.49.8Zm4.43,6.4a4.28,4.28,0,1,0,4.28,4.28,4.28,4.28,0,0,0-4.28-4.28Zm0,6.42A2.14,2.14,0,1,1,28,86.62a2.14,2.14,0,0,1-2.14,2.14Zm0,0"/><rect class="cls-2" x="32.53" y="72.98" width="8.95" height="8.95"/><rect class="cls-2" x="32.53" y="61.31" width="8.95" height="8.95"/><path class="cls-3" d="M89.44,30.53a3.82,3.82,0,0,1-3.82,3.83h-16a3.82,3.82,0,0,1-3.83-3.83h0a3.83,3.83,0,0,1,3.83-3.83h16a3.83,3.83,0,0,1,3.82,3.83Zm-1.27,0A2.49,2.49,0,0,0,85.67,28H69.59a2.49,2.49,0,0,0-2.5,2.49h0a2.5,2.5,0,0,0,2.5,2.5H85.67a2.5,2.5,0,0,0,2.5-2.5Z"/><path class="cls-2" d="M72.37,30.64a2,2,0,1,1-2-2A2,2,0,0,1,72.37,30.64Z"/><path class="cls-2" d="M77,30.64a2,2,0,1,1-2-2A2,2,0,0,1,77,30.64Z"/><path class="cls-2" d="M81.86,30.64a2,2,0,1,1-2-2A2,2,0,0,1,81.86,30.64Z"/><path class="cls-2" d="M86.63,30.64a2,2,0,1,1-2-2A2,2,0,0,1,86.63,30.64Z"/><path class="cls-3" d="M80.89,10.63v4.53H86v4.56a2.77,2.77,0,0,1,2.76,2.76v1.15A2.76,2.76,0,0,1,86,26.39H67.26l-7.73-7.93a5.32,5.32,0,0,1-2.17-.59L54,22.43,60.33,32c-2.33,1.38-6.19,1.47-6.19,1.47-5.38-.21-5.5-4.07-5.5-4.07-.34-2.65,1.27-5.91,1.27-5.91a2,2,0,0,1-.14-.74,2,2,0,0,1,2-2l4.09-5.31a4,4,0,0,1-.12-1,3.93,3.93,0,0,1,7.79-.75l6,6.06V15.25l5.26-4.62h6ZM59.67,12.31a2.11,2.11,0,1,0,2.11,2.1A2.1,2.1,0,0,0,59.67,12.31Zm-7.9,9.22a1.17,1.17,0,1,0,1.17,1.17A1.17,1.17,0,0,0,51.77,21.53Zm19.94-5.41v3.6h7.34V12.51H75.83Zm12.72.26H81v3.34h3.47Z"/><path class="cls-1" d="M96.28,16.13l.75-.05,0,0v-.56h-.32a2.9,2.9,0,0,0-.09-1,2,2,0,0,0-.42-.69,2.7,2.7,0,0,0-.84-.69s-.08,0-.08,0v.95a.12.12,0,0,1-.12.13h-.12a.13.13,0,0,1-.13-.13V13.05c0-.08,0-.08-.05-.08l-.35,0s-.06,0-.06.07v1.09a.13.13,0,0,1-.12.13h-.1a.13.13,0,0,1-.12-.13V13c0-.07,0-.07-.06-.07l-.35,0s-.06,0-.06.08v1.06a.12.12,0,0,1-.12.13h-.12a.12.12,0,0,1-.12-.13v-.95c0-.08,0-.05-.08,0a2.7,2.7,0,0,0-.84.69,2,2,0,0,0-.43.69,3.11,3.11,0,0,0-.08,1h-.32v.56a0,0,0,0,0,0,0l.75.05Z"/><path class="cls-1" d="M96.77,16.41a2.47,2.47,0,0,1-4.94,0Z"/><path class="cls-1" d="M95,19.48a3.85,3.85,0,0,0-1.62,0c-3.52.41-4.66,4.48-4.34,7.58.14,1.35,2.26,1.36,2.12,0a8,8,0,0,1,.53-4v4.43a.76.76,0,0,0,0,.15s0,0,0,.06c0,3.52,0,7-.15,10.53-.07,1.56,2.35,1.55,2.42,0,.11-2.75.14-5.5.15-8.25a1.93,1.93,0,0,0,.34,0c0,2.75,0,5.5.15,8.25.06,1.55,2.48,1.56,2.41,0-.14-3.51-.15-7-.15-10.53a1.53,1.53,0,0,0,0-.3c0-1.52-.06-3.05,0-4.57a7.62,7.62,0,0,1,.66,4.28c-.14,1.36,2,1.34,2.12,0,.33-3.17-.87-7.34-4.56-7.6Z"/><path class="cls-1" d="M28.74,11.33a3.31,3.31,0,1,1,.14,1.47l-1.51.27s-.51-1.14.9-1.56Z"/><path class="cls-2" d="M22.54,18.73a2.58,2.58,0,0,0-.14,2.45c.91,1.51,4.4,1.69,4.4,1.69V25.8H15.87V15.32h4.54v1.54h1.4V15.32h4.7v2.49S23.28,17.74,22.54,18.73Z"/><path class="cls-1" d="M29.52,19.2l3.74-3.3S35.43,14,37,15.39l4.18,6.89a9.88,9.88,0,0,1,0,5.72A13,13,0,0,0,41,32.84l.62,6.94s0,1.32-1.13,1.57c0,0-1.87.37-2.28-2.05l-.62-5.13-.18-7.71A39.24,39.24,0,0,0,34.8,21.7l-1-1.69s-.47,0-1.76.88a4.72,4.72,0,0,1-2.79.88,26.68,26.68,0,0,1-4.44-.7s-1.36-.18-1.54-1.1c0,0-.37-1.21,1.65-1.24A15,15,0,0,1,29.52,19.2Z"/><path class="cls-1" d="M36.23,26.13l-3.55,3.16s-.88.4-1.25,2.42l-.22,4.11-.11,4.47s-.17.69,1.22.82c0,0,1.42.35,1.9-1.63l.44-6.38s.25-1.91,1.57-2.31Z"/><polygon class="cls-2" points="9.08 12.31 13.78 12.31 13.78 22.72 2.88 22.72 2.88 12.31 7.51 12.31 7.51 15.06 9.08 15.06 9.08 12.31"/><polygon class="cls-2" points="9.08 24.29 13.78 24.29 13.78 34.71 2.88 34.71 2.88 24.29 7.51 24.29 7.51 27.04 9.08 27.04 9.08 24.29"/><path class="cls-3" d="M13.47,41.17H.39V39.74H2.26V37.1H.39V35.71h28V37.1H26.55v2.64h1.87v1.43H13.47Zm-.37-4H5V39.8H13.1Zm11,0H15.9V39.8h8.15Z"/></svg>