<svg id="Layer_1" data-name="Layer 1" xmlns="http://www.w3.org/2000/svg" viewBox="0 0 100 100"><defs><style>.cls-1{fill:#ffffff;}.cls-2,.cls-4{fill:#ffffff;}.cls-3,.cls-5{fill:#ffffff;}.cls-4,.cls-5{fill-rule:evenodd;}</style></defs><title>Masters_Icons</title><polygon class="cls-1" points="20.91 57.89 13.72 65.28 11.81 63.69 17.58 57.89 20.91 57.89"/><path class="cls-1" d="M7.32,66.7a3.34,3.34,0,1,0,3.34-3.34A3.35,3.35,0,0,0,7.32,66.7Zm1.06,0A2.29,2.29,0,1,1,10.66,69,2.28,2.28,0,0,1,8.38,66.7Z"/><polygon class="cls-1" points="15.41 91.59 22.6 84.2 24.51 85.79 18.74 91.59 15.41 91.59"/><path class="cls-1" d="M22.31,82.77a3.35,3.35,0,1,0,3.35-3.34A3.35,3.35,0,0,0,22.31,82.77Zm1.06,0a2.29,2.29,0,1,1,2.29,2.29A2.28,2.28,0,0,1,23.37,82.77Z"/><rect class="cls-2" x="10.25" y="73.52" width="15.9" height="2.28" transform="translate(-47.91 35.48) rotate(-45.65)"/><path class="cls-2" d="M22.67,67A3.34,3.34,0,1,0,26,63.69,3.35,3.35,0,0,0,22.67,67Zm1,0A2.29,2.29,0,1,1,26,69.32,2.29,2.29,0,0,1,23.72,67Z"/><path class="cls-2" d="M7,82.6a3.35,3.35,0,1,0,3.34-3.34A3.35,3.35,0,0,0,7,82.6Zm1.06,0a2.29,2.29,0,1,1,2.28,2.29A2.29,2.29,0,0,1,8.07,82.6Z"/><path class="cls-3" d="M84.45,79A7.28,7.28,0,0,1,81,79a1.47,1.47,0,0,1-.94-1.81c.58-2,1.42-5.12,1.42-5.12l3-.64Z"/><path class="cls-1" d="M80.11,88.11l.46-1.48a2.63,2.63,0,0,1,2.51-1.85h1.43L82.54,72a.6.6,0,0,1,.6-.68h7.25a.81.81,0,0,1,.78.68L93.3,85.56a5.16,5.16,0,0,1-5.13,5.72H82.45a2.45,2.45,0,0,1-2.34-3.17M87,84h0c2,0,1-1.7.78-3.65l-1.65-8.59H85Z"/><rect class="cls-2" x="53.62" y="63.73" width="0.85" height="3.12"/><polygon class="cls-2" points="54.07 67.25 56.43 69.07 56.43 61.55 54.07 63.37 54.07 67.25"/><path class="cls-2" d="M56.06,61.19h6.3v8.3h-6.3Zm0,1.67h6.3v-.8h-6.3Zm0,1.83h6.3v-.8h-6.3Zm0,1.84h6.3v-.8h-6.3Zm0,1.84h6.3v-.8h-6.3Z"/><rect class="cls-3" x="65.87" y="60.71" width="5.58" height="10.04"/><polygon class="cls-2" points="59.67 70 66.77 72.2 66.77 58.31 59.67 60.51 59.67 70"/><path class="cls-1" d="M69,59H91.88A3.15,3.15,0,0,1,95,62.15v7.79a3.15,3.15,0,0,1-3.15,3.15H69Zm5.18,10.58h12a1.33,1.33,0,0,0,1.33-1.33v-2a2.74,2.74,0,0,0-2.74-2.75H75.54A2.75,2.75,0,0,0,72.8,66.3v2a1.34,1.34,0,0,0,1.33,1.33"/><path class="cls-2" d="M45.81,65.82a.64.64,0,0,1,0-1.28h9.53v1.28H45.81M48,65a.39.39,0,0,0-.55,0l-.84.85h1.09l.3-.3A.39.39,0,0,0,48,65m-2,.18a.38.38,0,0,0,.54,0l.61-.61H46l-.06.07a.38.38,0,0,0,0,.54"/><path class="cls-2" d="M64.94,80.29V77.5h0a.49.49,0,0,1-.48-.49v-2.5a.48.48,0,0,1,.48-.48h0v-4h3.44V80.86a3,3,0,0,1-2.51,2.92,1.27,1.27,0,0,1-.28,0H65a1.22,1.22,0,0,1-1.22-1.22V81.5A1.21,1.21,0,0,1,64.94,80.29Z"/><path class="cls-4" d="M.85,18.83,11.79,8a.43.43,0,0,1,.7,0l.93.93a.44.44,0,0,1,0,.7L2.56,20.54a.44.44,0,0,1-.7,0l-1-1a.44.44,0,0,1,0-.7Z"/><path class="cls-5" d="M31.19,34.89a2.31,2.31,0,0,0-3.42,0,2.35,2.35,0,0,0,0,3.34,2.44,2.44,0,0,0,3.42,0,2.35,2.35,0,0,0,0-3.34ZM30.1,41.33a.89.89,0,0,1-1.32,0l-4.11-4.11a.89.89,0,0,1,0-1.32l.78-.78L17.3,27l2.64-2.56L28,32.57l.77-.78a.89.89,0,0,1,1.32,0l4.19,4.11a1.05,1.05,0,0,1,0,1.32Z"/><path class="cls-5" d="M15.13,20.23a1.37,1.37,0,0,0-1.94,1.94,1.37,1.37,0,1,0,1.94-1.94ZM12.26,31,6.05,24.73a.44.44,0,0,1,0-.7L16.91,13.17c.08-.16.23-.16.39-.16a.43.43,0,0,1,.39.16l6.36,6.36Z"/><path class="cls-4" d="M5,23.1a.6.6,0,0,1-.7,0l-.93-1a.44.44,0,0,1,0-.7L14.27,10.45a.6.6,0,0,1,.7,0l1,1a.44.44,0,0,1,0,.7Z"/><polygon class="cls-1" points="93.73 21.41 99.36 24.71 93.82 28.09 93.82 25.66 55.08 25.66 55.08 23.67 93.73 23.67 93.73 21.41"/><path class="cls-1" d="M76.64,16.67H71.31s-1.89,0-5.4,4.42l-2.53,2.66H60.2l1.1-.52,5.33-5.78a6.57,6.57,0,0,1,4.61-2.6H76.7Z"/><path class="cls-1" d="M83.92,32.77H78.59s-1.89,0-5.4-4.42l-2.53-2.67H67.47l1.11.52L73.91,32a6.57,6.57,0,0,0,4.61,2.6H84Z"/><path class="cls-3" d="M56.12,24.62a4.94,4.94,0,1,1-4.94-4.94A4.94,4.94,0,0,1,56.12,24.62Z"/><path class="cls-1" d="M82,15.78a2.86,2.86,0,1,1-2.86-2.86A2.86,2.86,0,0,1,82,15.78Z"/><rect class="cls-1" x="83.33" y="30.6" width="6.07" height="5.89"/><path class="cls-3" d="M2.48,57.38A1.85,1.85,0,0,0,.64,59.23V90.36a1.85,1.85,0,0,0,1.84,1.85H33.7a1.85,1.85,0,0,0,1.85-1.85V59.23a1.85,1.85,0,0,0-1.85-1.85Zm-.79,33V59.23a.79.79,0,0,1,.79-.79H33.7a.79.79,0,0,1,.79.79V90.36a.79.79,0,0,1-.79.79H2.48A.79.79,0,0,1,1.69,90.36Z"/></svg>