<?xml version="1.0" encoding="iso-8859-1"?>
<!-- Generator: Adobe Illustrator 12.0.0, SVG Export Plug-In . SVG Version: 6.00 Build 51448)  -->
<!DOCTYPE svg PUBLIC "-//W3C//DTD SVG 1.1//EN" "http://www.w3.org/Graphics/SVG/1.1/DTD/svg11.dtd" [
	<!ENTITY ns_svg "http://www.w3.org/2000/svg">
	<!ENTITY ns_xlink "http://www.w3.org/1999/xlink">
]>
<svg  version="1.1" id="Layer_1" xmlns="&ns_svg;" xmlns:xlink="&ns_xlink;" width="60.095" height="60.095"
	 viewBox="0 0 60.095 60.095" style="overflow:visible;enable-background:new 0 0 60.095 60.095;" xml:space="preserve">
<g>
	<path style="fill:#008FD3;" d="M60.095,52.176c0,4.37-3.771,7.919-8.43,7.919H8.437C3.778,60.095,0,56.546,0,52.176V7.923
		C0,3.55,3.778,0,8.437,0h43.229c4.658,0,8.43,3.55,8.43,7.923V52.176z M57.167,10.079c0-3.947-3.404-7.151-7.608-7.151H10.542
		c-4.204,0-7.614,3.204-7.614,7.151V50.02c0,3.944,3.41,7.147,7.614,7.147h39.017c4.204,0,7.608-3.203,7.608-7.147V10.079z"/>
	<g>
		<g>
			<path style="fill:#008FD3;" d="M23.909,17.152c0,1.367-1.109,2.476-2.476,2.476H10.291c-1.367,0-2.475-1.109-2.475-2.476V8.073
				c0-1.367,1.108-2.476,2.475-2.476h11.143c1.367,0,2.476,1.109,2.476,2.476V17.152z"/>
			<g>
				<path style="fill:#008FD3;" d="M52.279,8.125c0,0.509-0.185,0.922-0.413,0.922H31.233c-0.228,0-0.413-0.413-0.413-0.922l0,0
					c0-0.509,0.185-0.922,0.413-0.922h20.633C52.095,7.203,52.279,7.616,52.279,8.125L52.279,8.125z"/>
				<path style="fill:#008FD3;" d="M52.279,12.664c0,0.509-0.185,0.922-0.413,0.922H31.233c-0.228,0-0.413-0.413-0.413-0.922l0,0
					c0-0.509,0.185-0.922,0.413-0.922h20.633C52.095,11.742,52.279,12.155,52.279,12.664L52.279,12.664z"/>
				<path style="fill:#008FD3;" d="M52.279,17.307c0,0.509-0.185,0.922-0.413,0.922H31.233c-0.228,0-0.413-0.414-0.413-0.922l0,0
					c0-0.509,0.185-0.922,0.413-0.922h20.633C52.095,16.385,52.279,16.797,52.279,17.307L52.279,17.307z"/>
			</g>
		</g>
		<g>
			<path style="fill:#008FD3;" d="M23.909,34.691c0,1.366-1.109,2.475-2.476,2.475H10.291c-1.367,0-2.475-1.108-2.475-2.475v-9.08
				c0-1.367,1.108-2.475,2.475-2.475h11.143c1.367,0,2.476,1.108,2.476,2.475V34.691z"/>
			<g>
				<path style="fill:#008FD3;" d="M52.279,25.664c0,0.509-0.185,0.922-0.413,0.922H31.233c-0.228,0-0.413-0.413-0.413-0.922l0,0
					c0-0.509,0.185-0.922,0.413-0.922h20.633C52.095,24.742,52.279,25.154,52.279,25.664L52.279,25.664z"/>
				<path style="fill:#008FD3;" d="M52.279,30.203c0,0.509-0.185,0.922-0.413,0.922H31.233c-0.228,0-0.413-0.413-0.413-0.922l0,0
					c0-0.509,0.185-0.922,0.413-0.922h20.633C52.095,29.281,52.279,29.693,52.279,30.203L52.279,30.203z"/>
				<path style="fill:#008FD3;" d="M52.279,34.845c0,0.51-0.185,0.922-0.413,0.922H31.233c-0.228,0-0.413-0.412-0.413-0.922l0,0
					c0-0.508,0.185-0.922,0.413-0.922h20.633C52.095,33.923,52.279,34.337,52.279,34.845L52.279,34.845z"/>
			</g>
		</g>
		<g>
			<path style="fill:#008FD3;" d="M23.909,52.021c0,1.368-1.109,2.476-2.476,2.476H10.291c-1.367,0-2.475-1.107-2.475-2.476v-9.078
				c0-1.367,1.108-2.477,2.475-2.477h11.143c1.367,0,2.476,1.109,2.476,2.477V52.021z"/>
			<g>
				<path style="fill:#008FD3;" d="M52.279,42.995c0,0.509-0.185,0.922-0.413,0.922H31.233c-0.228,0-0.413-0.413-0.413-0.922l0,0
					c0-0.51,0.185-0.922,0.413-0.922h20.633C52.095,42.073,52.279,42.485,52.279,42.995L52.279,42.995z"/>
				<path style="fill:#008FD3;" d="M52.279,47.534c0,0.509-0.185,0.922-0.413,0.922H31.233c-0.228,0-0.413-0.413-0.413-0.922l0,0
					c0-0.509,0.185-0.922,0.413-0.922h20.633C52.095,46.612,52.279,47.025,52.279,47.534L52.279,47.534z"/>
				<path style="fill:#008FD3;" d="M52.279,52.177c0,0.509-0.185,0.922-0.413,0.922H31.233c-0.228,0-0.413-0.413-0.413-0.922l0,0
					c0-0.51,0.185-0.923,0.413-0.923h20.633C52.095,51.254,52.279,51.667,52.279,52.177L52.279,52.177z"/>
			</g>
		</g>
	</g>
</g>
</svg>
