<?xml version="1.0" encoding="utf-8"?>
<!-- Generator: Adobe Illustrator 22.0.1, SVG Export Plug-In . SVG Version: 6.00 Build 0)  -->
<svg version="1.1" id="Layer_1" xmlns="http://www.w3.org/2000/svg" xmlns:xlink="http://www.w3.org/1999/xlink" x="0px" y="0px"
	 viewBox="0 0 100 100" style="enable-background:new 0 0 100 100;" xml:space="preserve">
<style type="text/css">
	.st0{fill:none;stroke:#ffffff;stroke-width:7;}
	.st1{fill:none;stroke:#ffffff;stroke-width:7;}
	.st2{fill:#ffffff;}
	.st3{fill:none;stroke:#ffffff;stroke-width:3;}
	.st4{fill:none;stroke:#ffffff;stroke-width:7;stroke-linecap:round;}
	.st5{fill:none;stroke:#ffffff;}
	.st6{fill:none;stroke:#ffffff;stroke-width:8;}
	.st7{fill:none;}
	.st8{fill:#ffffff;}
	.st9{fill:#ffffff;}
	.st10{fill:#ffffff;}
	.st11{fill:#ffffff;}
	.st12{fill:#ffffff;}
</style>
<g>
	<path class="st9" d="M8.8,12.2c0.6,1.3,1.6,2.1,2.3,2.1c0.7,0,1.7-0.7,2.2-2c0.1-0.3,0.3-0.7,0.3-1.1c0.1-0.3,0.1-0.7,0.1-1.2
		c0-1.4-1.2-2.5-2.7-2.5c-1.5,0-2.7,1.2-2.7,2.5c0,0.4,0,0.7,0.1,0.9C8.5,11.3,8.7,11.8,8.8,12.2z"/>
	<path class="st9" d="M16,16.1c-0.5-0.6-2.1-0.4-2.8-0.8c-0.3,0.6-0.3,1.7-0.9,1.7c0,0,0,0-0.1,0c-0.8-0.1-0.4-2.3-1-2.3
		c-0.6,0-0.2,2.2-1,2.3c0,0-0.1,0-0.1,0c-0.6,0-0.6-1-0.9-1.7c-0.8,0.4-2.3,0.3-2.8,0.8c-0.3,0.3-0.4,2.3-0.4,3.1h10.6
		C16.4,18.4,16.3,16.4,16,16.1z"/>
</g>
<path class="st8" d="M8.3,38.6h19.4c1.3,0,2.4-1.1,2.4-2.4l0,0V9.8h2.4V41H8.3V38.6z M3.5,4.9h24.3v31.3H3.5V4.9z M3.5,2.5
	C2.1,2.5,1,3.6,1,4.9l0,0v31.3c0,1.3,1.1,2.4,2.4,2.4l0,0h2.4V41c0,1.3,1.1,2.4,2.4,2.4l0,0h24.3c1.3,0,2.4-1.1,2.4-2.4l0,0V9.8
	c0-1.3-1.1-2.4-2.4-2.4l0,0h-2.4V4.9c0-1.3-1.1-2.4-2.4-2.4l0,0H3.5z"/>
<path class="st10" d="M18.7,10.6c-0.7,0-1.2,0.5-1.2,1.2l0,0c0,0.7,0.5,1.2,1.2,1.2l0,0h5.4c0.7,0,1.2-0.5,1.2-1.2l0,0
	c0-0.7-0.5-1.2-1.2-1.2l0,0H18.7z"/>
<path class="st10" d="M18.7,16.6c-0.7,0-1.2,0.5-1.2,1.2l0,0c0,0.7,0.5,1.2,1.2,1.2l0,0h5.4c0.7,0,1.2-0.5,1.2-1.2l0,0
	c0-0.7-0.5-1.2-1.2-1.2l0,0H18.7z"/>
<path class="st10" d="M7.1,24.3c-0.7,0-1.2,0.5-1.2,1.2l0,0c0,0.7,0.5,1.2,1.2,1.2l0,0h17c0.7,0,1.2-0.5,1.2-1.2l0,0
	c0-0.7-0.5-1.2-1.2-1.2l0,0H7.1z"/>
<path class="st10" d="M7.1,30.6c-0.7,0-1.2,0.5-1.2,1.2l0,0c0,0.7,0.5,1.2,1.2,1.2l0,0h17c0.7,0,1.2-0.5,1.2-1.2l0,0
	c0-0.7-0.5-1.2-1.2-1.2l0,0H7.1z"/>
<path class="st9" d="M34.4,98.4H1c-0.4,0-0.8-0.4-0.8-0.8V57.8c0-0.5,0.4-0.8,0.8-0.8c0.4,0,0.8,0.4,0.8,0.8v38.9h32.6
	c0.4,0,0.8,0.4,0.8,0.8C35.2,98,34.8,98.4,34.4,98.4"/>
<path class="st9" d="M1.4,81.5l-0.9-1.4l16.7-12c0.4-0.3,0.9-0.3,1.3-0.1l6,3.3l6.6-7.6l1.2,1.1l-6.8,7.8c-0.4,0.4-1,0.6-1.5,0.3
	l-6-3.3L1.4,81.5z"/>
<path class="st9" d="M35.9,60.2l-2.7,7.6c-0.2,0.5-0.8,0.4-0.9,0l-0.8-2.8c-0.1-0.2-0.2-0.3-0.4-0.4L28.4,64c-0.5-0.1-0.5-0.8-0.1-1
	l6.9-3.4C35.6,59.3,36,59.8,35.9,60.2"/>
<polygon class="st10" points="5.3,82.2 5.3,93 9.8,93 9.8,79 "/>
<polygon class="st10" points="12.1,77.3 12.1,93 16.6,93 16.6,74.1 "/>
<polygon class="st8" points="18.9,73.5 18.9,93 23.4,93 23.4,76 "/>
<polygon class="st8" points="25.7,76.2 25.7,93 30.1,93 30.1,71 "/>
<path class="st8" d="M60.7,87.3h4.2c0.8,2.6,1.9,4.8,3.3,6.6l0,0C65.1,92.4,62.5,90.1,60.7,87.3 M67.7,87.3h6.8v8.2
	C71.7,94.7,69.2,91.6,67.7,87.3 M77.3,87.3h6.8c-1.5,4.3-4,7.4-6.8,8.2l0,0V87.3z M87,87.3h4.2c-1.8,2.8-4.4,5.1-7.4,6.6l0,0
	C85.1,92.1,86.2,89.8,87,87.3 M57.9,78.9h5.5c0.1,1.9,0.3,3.8,0.7,5.6l0,0h-4.9C58.5,82.8,58,80.9,57.9,78.9 M66.2,78.9h8.3v5.6
	h-7.6C66.5,82.8,66.3,80.9,66.2,78.9 M77.3,78.9h8.3c-0.1,2-0.3,3.8-0.7,5.6l0,0h-7.6V78.9z M88.4,78.9H94c-0.1,2-0.6,3.8-1.3,5.6
	l0,0h-4.9C88.1,82.7,88.4,80.9,88.4,78.9 M59.2,70.6h4.9c-0.4,1.8-0.6,3.6-0.7,5.6l0,0h-5.5C58,74.2,58.5,72.3,59.2,70.6 M66.9,70.6
	h7.6v5.6h-8.3C66.3,74.2,66.5,72.3,66.9,70.6 M77.3,70.6h7.6c0.4,1.7,0.6,3.6,0.7,5.6l0,0h-8.3V70.6z M87.8,70.6h4.9
	c0.7,1.7,1.2,3.6,1.3,5.6l0,0h-5.5C88.4,74.2,88.1,72.3,87.8,70.6 M68.1,61.2c-1.3,1.8-2.5,4-3.3,6.6l0,0h-4.2
	C62.5,65,65.1,62.7,68.1,61.2 M83.7,61.2c3.1,1.5,5.6,3.8,7.4,6.6l0,0H87C86.2,65.2,85.1,63,83.7,61.2 M74.5,59.6v8.2h-6.8
	C69.2,63.4,71.7,60.4,74.5,59.6 M77.3,59.6c2.9,0.8,5.3,3.8,6.8,8.2l0,0h-6.8V59.6z M75.9,56.6h-1.4v0c-10.4,0.7-18.8,9-19.5,19.5
	l0,0h0v1.4v1.4h0c0.7,10.4,9,18.8,19.5,19.5l0,0v0h1.4h1.4v0c10.4-0.7,18.8-9,19.5-19.5l0,0h0v-1.4v-1.4h0
	c-0.7-10.4-9-18.8-19.5-19.5l0,0v0H75.9z"/>
<g>
	<path class="st9" d="M96.3,37.2H55.1c-1.4,0-2.6-1.2-2.6-2.6V5.1c0-1.4,1.2-2.6,2.6-2.6h41.2c1.4,0,2.6,1.2,2.6,2.6v29.6
		C98.9,36,97.7,37.2,96.3,37.2 M55.1,4.8c-0.1,0-0.2,0.1-0.2,0.2v29.6c0,0.1,0.1,0.2,0.2,0.2h41.2c0.1,0,0.2-0.1,0.2-0.2V5.1
		c0-0.1-0.1-0.2-0.2-0.2H55.1z"/>
	<path class="st9" d="M96.8,36H54.7c-0.5,0-0.9-0.4-0.9-0.9v-2.5c0-0.5,0.4-0.9,0.9-0.9h42.1c0.5,0,0.9,0.4,0.9,0.9v2.5
		C97.7,35.6,97.3,36,96.8,36"/>
	<path class="st9" d="M96.8,36.2H54.7c-0.6,0-1.2-0.5-1.2-1.2v-2.5c0-0.6,0.5-1.2,1.2-1.2h42.1c0.6,0,1.2,0.5,1.2,1.2v2.5
		C97.9,35.7,97.4,36.2,96.8,36.2 M54.7,31.9c-0.4,0-0.7,0.3-0.7,0.7v2.5c0,0.4,0.3,0.7,0.7,0.7h42.1c0.4,0,0.7-0.3,0.7-0.7v-2.5
		c0-0.4-0.3-0.7-0.7-0.7H54.7z"/>
	<rect x="71" y="36" class="st9" width="9.4" height="6.2"/>
	<path class="st9" d="M80.7,42.5h-9.9v-6.7h9.9V42.5z M71.2,42h9v-5.8h-9V42z"/>
	<path class="st9" d="M86.9,43.4H64.5c-0.6,0-1.2-0.5-1.2-1.2c0-0.6,0.5-1.2,1.2-1.2h22.4c0.6,0,1.2,0.5,1.2,1.2
		C88.1,42.9,87.6,43.4,86.9,43.4"/>
</g>
<path class="st10" d="M84.8,11.2H66.6c-0.8,0-1.4,0.6-1.4,1.4v12.7c0,0.8,0.6,1.4,1.4,1.4h18.1c0.8,0,1.4-0.6,1.4-1.4V12.6
	C86.2,11.9,85.6,11.2,84.8,11.2z M85,24.5c0.2,0.2,0.2,0.5,0,0.8c-0.1,0.1-0.3,0.2-0.4,0.2c-0.1,0-0.3,0-0.4-0.1L78,19.7l-1.9,1.7
	c-0.1,0.1-0.2,0.1-0.4,0.1c-0.1,0-0.3,0-0.4-0.1l-1.9-1.7l-6.3,5.7c-0.1,0.1-0.2,0.1-0.4,0.1c-0.1,0-0.3-0.1-0.4-0.2
	c-0.2-0.2-0.2-0.6,0-0.8l6.2-5.6l-6.2-5.6c-0.2-0.2-0.2-0.5,0-0.8c0.2-0.2,0.5-0.2,0.8,0l8.6,7.7l8.6-7.7c0.2-0.2,0.6-0.2,0.8,0
	c0.2,0.2,0.2,0.6,0,0.8L78.8,19L85,24.5z"/>
</svg>
