<svg id="Layer_1" data-name="Layer 1" xmlns="http://www.w3.org/2000/svg" viewBox="0 0 100 100"><defs><style>.cls-1{fill:#a8a240;}.cls-2{fill:#f0ab00;}.cls-3{fill:#40875e;}</style></defs><title>Masters_Icons</title><path class="cls-1" d="M3.85,11.42a7.29,7.29,0,0,0-.46,1.88A7.51,7.51,0,1,0,9.54,6.76l4.52,5.62L12.3,16.23l-3.94.71Z"/><path class="cls-1" d="M12.86,21.64a.55.55,0,0,1,0-.76l4.38-3.74a.55.55,0,0,1,.75.14L34.81,37a.54.54,0,0,1,0,.76l-4.38,3.73a.53.53,0,0,1-.75-.13ZM30.38,35c.19.22.45.29.58.18h0c.14-.12.1-.39-.08-.6l-9-10.38c-.19-.22-.45-.29-.58-.18h0c-.14.12-.1.39.08.6Zm-1.2,1c.19.21.45.29.58.17h0c.14-.11.1-.38-.09-.59l-9-10.38c-.18-.22-.44-.3-.57-.18h0c-.14.12-.1.39.08.6ZM28,37c.18.22.44.3.58.18h0c.14-.12.1-.39-.09-.6l-9-10.38c-.18-.21-.44-.29-.58-.18h0c-.13.12-.09.39.09.6Z"/><polygon class="cls-2" points="34.01 6.51 36.27 8.64 33.08 14.15 30.03 14.42 19.27 24.98 17.64 23.42 28.23 12.82 28.73 9.4 34.01 6.51"/><path class="cls-3" d="M14,25l-.44-.63a1.67,1.67,0,0,1,0-2.35h0a1.66,1.66,0,0,1,2.35,0l4.78,4.73a1.66,1.66,0,0,1,0,2.35h0a1.66,1.66,0,0,1-2.35,0l-.68-.67-1.35,1.4A2.15,2.15,0,0,1,16,33.06L7.63,41.53s-1.44,1.89-3.14-.15l-3-2.89s-1.89-1.69-.34-3.33l8.56-8.47a2.15,2.15,0,0,1,3-.35Zm-3.14,3.81a.4.4,0,0,0-.06-.56h0a.4.4,0,0,0-.55-.05L3.52,34.92a.39.39,0,0,0,0,.55h0a.4.4,0,0,0,.56.05Zm1.76,1.77a.4.4,0,0,0,0-.56h0a.4.4,0,0,0-.56-.05L5.29,36.68a.4.4,0,0,0,0,.56h0a.4.4,0,0,0,.56,0Zm1.8,1.79a.39.39,0,0,0-.06-.55h0a.39.39,0,0,0-.55-.06L7.08,38.48a.4.4,0,0,0,0,.55h0a.4.4,0,0,0,.56,0Z"/><rect class="cls-3" x="60.4" y="8.9" width="26.2" height="1.56"/><path class="cls-1" d="M96.5,39.82H86.64V22.3H96.5ZM93.12,24.55H90.18v3.86h2.94Zm0,6.2H90.18v3.86h2.94Z"/><path class="cls-3" d="M84.78,39.77H62.21V10.41H84.78ZM68.27,13.71H65.33v3.87h2.94Zm6.8,0H72.13v3.87h2.94Zm7.09,0H79.22v3.87h2.94ZM68.27,21H65.33V24.9h2.94Zm6.8,0H72.13V24.9h2.94Zm7.09,0H79.22V24.9h2.94ZM68.27,28.36H65.33v3.86h2.94Zm13.89,0H79.22v3.86h2.94ZM76.63,37V32.94a2.83,2.83,0,0,0-2.83-2.83h0A2.83,2.83,0,0,0,71,32.94V37Z"/><rect class="cls-2" x="59.19" y="38.47" width="40.31" height="1.47"/><path class="cls-1" d="M15.29,57.08S14.78,61,14.66,62a10,10,0,0,0-2.38,1l-4.1-3L3.85,64.37l3,4.07a13,13,0,0,0-1,2.51l-4.95.57v6.32l5,.39a9.17,9.17,0,0,0,1.06,2.68L3.88,84.82l4.24,4.54,3.88-3a16.59,16.59,0,0,0,2.55,1c.16.94.84,5,.84,5h6.3l.49-5.14a14.68,14.68,0,0,0,2.36-.94l4,3.09L33,85l-2.92-4A10.51,10.51,0,0,0,31,78.27L36,77.74v-6.1L31,71.13a9.38,9.38,0,0,0-1.12-2.68l3.06-4-4.29-4.26-4.1,3a14.72,14.72,0,0,0-2.44-1.07c-.1-1-.5-5-.5-5ZM20,58.92c.11,1.14.46,4.68.46,4.68l.69.12A12,12,0,0,1,24.19,65l.52.31,3.8-2.8,2,2-3,3.94.54.57a7.43,7.43,0,0,1,1.29,3.07l.13.67.68.07,3.93.42v2.78l-4.76.51-.06.76a9,9,0,0,1-1.09,3.18l-.32.52.36.49,2.32,3.22L28.4,86.9,24.69,84l-.53.32a14.1,14.1,0,0,1-3.06,1.23l-.62.17s-.35,3.57-.46,4.72H16.94c-.18-1.09-.8-4.76-.8-4.76l-.68-.08a14.28,14.28,0,0,1-3.17-1.21l-.51-.26L8.31,86.87l-2-2.15,3-3.78-.46-.58a7.25,7.25,0,0,1-1.23-3.12l-.1-.74-.74-.06-4-.31v-3l4.58-.53L7.47,72a10.32,10.32,0,0,1,1.22-3.1l.38-.55-.39-.53-2.43-3.3,2.13-2.2,3.82,2.84.54-.36a7.68,7.68,0,0,1,2.88-1.15l.68-.1.1-.7.5-3.94Z"/><path class="cls-3" d="M25.8,74.7a7.36,7.36,0,1,1-7.36-7.4A7.37,7.37,0,0,1,25.8,74.7Zm-7.36-6a6,6,0,1,0,5.93,6A5.94,5.94,0,0,0,18.44,68.74Z"/><path class="cls-2" d="M21.25,63a13.18,13.18,0,0,1,3.32,1.42l3.88-2.86,3.11,3.09-2.94,3.9A8.5,8.5,0,0,1,30.12,72l4.69.49v4.37l-4.76.51a9.4,9.4,0,0,1-1.2,3.53l2.74,3.8-3.28,3.19L24.53,85a15.2,15.2,0,0,1-3.24,1.31l-.47,4.84H16.2l-.8-4.78A15.34,15.34,0,0,1,12,85.09L8.37,87.91,5.29,84.62l3-3.77a8.07,8.07,0,0,1-1.41-3.53L2.08,77V72.37l4.68-.53A10.85,10.85,0,0,1,8.1,68.47L5.26,64.61l3.18-3.3,3.88,2.89a8.6,8.6,0,0,1,3.21-1.28l.6-4.67h4.66Zm-2.81,4.43a7.28,7.28,0,1,0,7.25,7.27A7.25,7.25,0,0,0,18.44,67.42Z"/><path class="cls-2" d="M65.81,67.79l4.25-4.27-5.31-5.34C62,55.38,56.57,57.43,56,58s-2.57,6,.21,8.75l5.31,5.34Z"/><polygon class="cls-1" points="67.27 70.86 68.87 69.26 82.81 83.27 81.21 84.87 67.27 70.86"/><path class="cls-1" d="M63.42,67s-.8-1.69-.43-2.06,2,.45,2,.45l3.85,3.87-1.6,1.61Z"/><path class="cls-3" d="M89,91.12a12.13,12.13,0,0,0,2.35-3.26,9.41,9.41,0,0,0-4-2.68,7.2,7.2,0,0,0-3-.35l-1.55-1.56-.22.22h0l-1.16,1.16h0l-.23.22,1.56,1.57a7.2,7.2,0,0,0,.35,3,10.36,10.36,0,0,0,2.66,4A12.11,12.11,0,0,0,89,91.12Zm-5.32-1.89a5.06,5.06,0,0,1-.08-3.54,5,5,0,0,1,3.51.09,8.05,8.05,0,0,1,3,1.85,11.82,11.82,0,0,1-4.64,4.66A8.2,8.2,0,0,1,83.71,89.23Z"/><polygon class="cls-3" points="59.55 91.57 57.76 89.77 82.98 64.42 84.78 66.22 59.55 91.57"/><path class="cls-2" d="M91,68.09a34.87,34.87,0,0,0-9.91-10,33.27,33.27,0,0,0-6.53-3.44l-.39.69a52.3,52.3,0,0,1,6.5,4c1.48,1.13,2.66,2.19,2.66,2.51a13.64,13.64,0,0,1-.84,2l1.36,1.36,1.36,1.37a13.38,13.38,0,0,1,2-.85c.31,0,1.36,1.19,2.49,2.68a52.41,52.41,0,0,1,4,6.53l.69-.4A33.42,33.42,0,0,0,91,68.09Z"/></svg>