<svg id="Layer_1" data-name="Layer 1" xmlns="http://www.w3.org/2000/svg" viewBox="0 0 100 100"><defs><style>.cls-1,.cls-6{fill:#ffffff;}.cls-2,.cls-4{fill:#ffffff;}.cls-3,.cls-5{fill:#ffffff;}.cls-4,.cls-5,.cls-6{fill-rule:evenodd;}</style></defs><title>Masters_Icons</title><path class="cls-1" d="M75,27.4v2.11l5.81,1.18.12,0,5.93-1.15v-2.2h.79l0,3.61a.39.39,0,0,0,.32.38l-.11,18.05H92l.34-13.57a.45.45,0,0,1,.48-.41.44.44,0,0,1,.43.42l.85,13.56h4.17L99,31.92a.38.38,0,0,0,.32-.34,29.76,29.76,0,0,0-1.58-13.85,7.29,7.29,0,0,0-4.87-2.12l-.17-1.24a3.18,3.18,0,0,0,.54-1l.05-.95h0l0,.95.11,0a.92.92,0,0,0,.76-1.08,309063205120.86,309063205120.86,0,0,1,0-.12,6.51,6.51,0,0,0-.11-2.48,3.51,3.51,0,0,0-.74-2.09A3.71,3.71,0,0,0,90.33,6a.23.23,0,0,0,0-.11.23.23,0,0,0-.24-.23h-.75a.24.24,0,0,0-.25.23.27.27,0,0,0,.1.18c-2.32.39-2.86,2.18-2.77,3.9h0l-1.3,1.5a.16.16,0,0,0,.17.25,5.6,5.6,0,0,1,1.44,0,3.77,3.77,0,0,0,.07,1.05A3.6,3.6,0,0,0,89,15.32a.06.06,0,0,0,0,0v.05s0,.06,0,.1a.11.11,0,0,0,0,.05v.09a.28.28,0,0,1,0,.09c0,.2,0,.33,0,.33a1,1,0,0,0,.08.44l-1.36.35c-.57.1-1.51.69-1.84,3.42l0,.74-.61-.13c0-1.25,0-3-.5-3s-3,1.81-3,1.81a1.23,1.23,0,0,0-1.79,0s-3-1.89-3.23-1.65a5.4,5.4,0,0,0-.41,2.87l-1.38.3V27.4Z"/><path class="cls-2" d="M68.85,8.25a4.5,4.5,0,0,1,4.64,4.34,4.66,4.66,0,0,1-9.29,0,4.51,4.51,0,0,1,4.65-4.34"/><path class="cls-2" d="M78.43,27.16c-.78-.11-.5-.33-1-.7a1.31,1.31,0,0,1-.51-1.1.93.93,0,0,0-1.86,0,3.05,3.05,0,0,0,.06.6c-1.91-.33-3-.76-3.57-1.37s-1.36-4.68-1.46-4.84a4.21,4.21,0,0,0-2.4-2.65,3.87,3.87,0,0,0-1-.32,6.88,6.88,0,0,0-1.06-.09h0c-1.61,0-3.51.88-3.91,2.63l-2.15,9.36a2.92,2.92,0,0,0,.62,2.49l-.46,6.64-3,7.17a2.1,2.1,0,0,0,1.31,2.77,2.45,2.45,0,0,0,.83.14,2.3,2.3,0,0,0,2.14-1.37l3.1-7.47a2.23,2.23,0,0,0,.15-.63l.27-3.87,2.73,4L69.48,46a2.27,2.27,0,0,0,2.22,1.59,2.44,2.44,0,0,0,.59-.07,2.13,2.13,0,0,0,1.63-2.62l-2.21-7.74a2.34,2.34,0,0,0-.28-.6l-3.72-5.48a2.84,2.84,0,0,0,.28-.72l.83-3.63c1.28,1.46,3.43,2.29,7.31,2.79h.24a1.81,1.81,0,0,0,1.6-.91c.48.14,0,.24.49.31Z"/><path class="cls-3" d="M33.92,32.78c.94,0,1.75-.2,2.08-1.25,1.31-4.22,2.64-8.44,3.93-12.66a1.42,1.42,0,0,0-1.39-2c-.33,0-.66,0-1,0-8.93,0-17.86,0-26.8,0a1.24,1.24,0,0,1-1.43-1c-.32-1-.77-2-1.14-3.08a1.65,1.65,0,0,0-1.74-1.21c-1.47,0-2.93,0-4.39,0a1.44,1.44,0,1,0,0,2.88,25.81,25.81,0,0,0,2.64,0c.78-.06,1.13.23,1.41,1q3.52,9.33,7.13,18.63a1.21,1.21,0,0,1-.42,1.72,4.08,4.08,0,0,0-1.22,4.76,4.26,4.26,0,0,0,4.23,2.7,4.09,4.09,0,0,0,3.83-3.07,14.55,14.55,0,0,0,.23-2.49h8.41c0,.53-.08.94-.08,1.37a4.31,4.31,0,0,0,3.12,4.08,4.24,4.24,0,0,0,4.77-1.85,4.08,4.08,0,0,0,.15-4.28,4.2,4.2,0,0,0-4-2.27c-4.69,0-9.37,0-14.06,0-1.88,0-1.88-.14-2.27-2h1.2c5.6,0,11.2-.06,16.8,0M29,19.93h7.58c-.4,1.4-.75,2.56-1.19,3.79a1,1,0,0,1-.76.56c-1.94,0-3.87,0-6,0C28.75,22.82,28.85,21.33,29,19.93Zm-.44,5.88h6.17c-.38,1.2-.73,2.44-1.13,3.62a.82.82,0,0,1-.61.32c-1.53,0-3.06,0-4.76,0C28.31,28.36,28.41,27.21,28.52,25.81ZM31.1,39.08a1.32,1.32,0,0,1,1.3-1.34,1.35,1.35,0,1,1,.1,2.7A1.36,1.36,0,0,1,31.1,39.08Zm-4.38-9.33H21.28c-.11-1.34-.22-2.54-.33-3.94H27C26.92,27.21,26.82,28.41,26.72,29.75Zm.77-9.82c-.09,1.2-.25,3.61-.25,3.61l0,.87H20.87s-.28-3.28-.37-4.48ZM12.25,23.61c-.4-1.2-.89-2.48-1.4-3.68H19c.12,1.4.24,2.81.38,4.48H17.54c-1.39,0-2.77-.06-4.16,0A1,1,0,0,1,12.25,23.61ZM16.92,39a1.4,1.4,0,0,1-1.43,1.4,1.35,1.35,0,1,1,.12-2.69A1.34,1.34,0,0,1,16.92,39Zm-1.84-9.3a.74.74,0,0,1-.56-.37c-.48-1.13-.9-2.15-1.39-3.55h6.34c.1,1.4.21,2.5.33,3.93C18.13,29.74,16.61,29.76,15.08,29.73Z"/><path class="cls-4" d="M5.57,78.94l.77,10.49,1.51-4H9.51V81.58l5.34,2.34V81.54l6.23,3.86v8.93H.77L1.86,78.94Zm12.17,9.92h1.51V86.58H17.74Zm-3.53,0h1.5V86.58h-1.5Zm-4,0h1.51V86.58H10.25Zm7.49,3.81h1.51V90.39H17.74Zm-3.53,0h1.5V90.39h-1.5Zm-4,0h1.51V90.39H10.25Z"/><polygon class="cls-4" points="1.86 78.27 2 76.32 5.43 76.32 5.57 78.27 1.86 78.27"/><path class="cls-5" d="M2.65,74.34a1,1,0,0,1,1.22-.55s.36-1.9,2.59-1a2.14,2.14,0,0,1,1.93-.86,2.07,2.07,0,0,1,1.82,1.73s.1,1.73-2,1.91A2.42,2.42,0,0,1,6.76,75a1.84,1.84,0,0,1-2.35.14s-1.24.94-1.76-.24A.79.79,0,0,1,2.65,74.34Z"/><path class="cls-6" d="M44.58,63.9l1.09,15.39H25.37V70.36l6.22-3.86v2.38l5.34-2.35v3.83h1.66l1.52,4,.76-10.49ZM28.7,71.53H27.2v2.29h1.5Zm3.54,0H30.73v2.29h1.51Zm3.95,0h-1.5v2.29h1.5ZM28.7,75.35H27.2v2.28h1.5Zm3.54,0H30.73v2.28h1.51Zm3.95,0h-1.5v2.28h1.5Z"/><polygon class="cls-6" points="44.59 63.22 44.45 61.27 41.01 61.27 40.87 63.22 44.59 63.22"/><path class="cls-5" d="M43.8,59.3a1,1,0,0,0-1.23-.56s-.36-1.89-2.59-1a2.12,2.12,0,0,0-1.93-.86,2.07,2.07,0,0,0-1.82,1.73,1.91,1.91,0,0,0,2,1.91A2.51,2.51,0,0,0,39.69,60a1.83,1.83,0,0,0,2.34.14s1.24.93,1.77-.24A.79.79,0,0,0,43.8,59.3Z"/><polygon class="cls-3" points="20.69 74.74 20.69 75.97 22.27 75.97 18.25 79.99 18.25 78.41 17.02 78.41 17.02 82.08 20.69 82.08 20.69 80.86 19.11 80.86 23.14 76.83 23.14 78.41 24.36 78.41 24.36 74.74 20.69 74.74"/><path class="cls-6" d="M77.36,76.22c-1.13,1.54-1,5.38.82,6.23,3.2,1.52,9.38-1.4,11.79-3.31,5.43-4.29,10.93-14.44,2.55-18.68a19.09,19.09,0,0,0-11.71-1.07c-8.64,2-16.39,11.76-15.29,21.46,1.2,10.46,12.73,13.11,23,9,1.16-.47,2.41-1.53,3.78-1.16.72,1.82-2.73,2.59-4.17,3.17C77,96.37,61.56,93.67,61.22,79.67c-.24-10,9.57-19.94,20.25-21.9,7.75-1.42,15.93.32,17.47,6.64,1.77,7.28-4.93,15.44-10.26,18.17-3.7,1.91-13.15,4.63-15.91,1.89-3.1-3.08-.68-9.32,1.82-12.68a22.43,22.43,0,0,1,7.07-6c2.07-1.11,8.34-3.54,9.58-.18s-2.4,5.92-4.51,7.15C83.73,74.56,80.1,75.46,77.36,76.22ZM78,74.61c4.52-1.37,8.94-3.8,8.26-8.52C81.27,65.56,79,71.44,78,74.61Z"/></svg>