<?xml version="1.0" encoding="iso-8859-1"?>
<!-- Generator: Adobe Illustrator 12.0.0, SVG Export Plug-In . SVG Version: 6.00 Build 51448)  -->
<!DOCTYPE svg PUBLIC "-//W3C//DTD SVG 1.1//EN" "http://www.w3.org/Graphics/SVG/1.1/DTD/svg11.dtd" [
	<!ENTITY ns_svg "http://www.w3.org/2000/svg">
	<!ENTITY ns_xlink "http://www.w3.org/1999/xlink">
]>
<svg  version="1.1" id="Layer_1" xmlns="&ns_svg;" xmlns:xlink="&ns_xlink;" width="60.095" height="60.095"
	 viewBox="0 0 60.095 60.095" style="overflow:visible;enable-background:new 0 0 60.095 60.095;" xml:space="preserve">
<g>
	<path style="fill:#008FD3;" d="M60.095,52.176c0,4.37-3.771,7.919-8.43,7.919H8.437C3.778,60.095,0,56.546,0,52.176V7.923
		C0,3.55,3.778,0,8.437,0h43.229c4.658,0,8.43,3.55,8.43,7.923V52.176z M57.167,10.079c0-3.947-3.404-7.151-7.608-7.151H10.542
		c-4.204,0-7.614,3.204-7.614,7.151V50.02c0,3.944,3.41,7.147,7.614,7.147h39.017c4.204,0,7.608-3.203,7.608-7.147V10.079z"/>
	<g>
		<g>
			<path style="fill:#008FD3;" d="M21.748,17.75c0,1.304-1.056,2.36-2.359,2.36H8.773c-1.304,0-2.36-1.057-2.36-2.36V9.1
				c0-1.302,1.056-2.358,2.36-2.358h10.616c1.303,0,2.359,1.057,2.359,2.358V17.75z"/>
			<g>
				<path style="fill:#008FD3;" d="M48.779,9.149c0,0.485-0.175,0.879-0.392,0.879h-19.66c-0.217,0-0.394-0.394-0.394-0.879l0,0
					c0-0.484,0.177-0.879,0.394-0.879h19.66C48.604,8.271,48.779,8.665,48.779,9.149L48.779,9.149z"/>
				<path style="fill:#008FD3;" d="M48.779,13.475c0,0.486-0.175,0.88-0.392,0.88h-19.66c-0.217,0-0.394-0.394-0.394-0.88l0,0
					c0-0.484,0.177-0.878,0.394-0.878h19.66C48.604,12.597,48.779,12.99,48.779,13.475L48.779,13.475z"/>
				<path style="fill:#008FD3;" d="M48.779,17.899c0,0.484-0.175,0.877-0.392,0.877h-19.66c-0.217,0-0.394-0.393-0.394-0.877l0,0
					c0-0.486,0.177-0.88,0.394-0.88h19.66C48.604,17.02,48.779,17.413,48.779,17.899L48.779,17.899z"/>
			</g>
		</g>
		<g>
			<path style="fill:#008FD3;" d="M21.748,34.463c0,1.302-1.056,2.359-2.359,2.359H8.773c-1.304,0-2.36-1.058-2.36-2.359v-8.651
				c0-1.303,1.056-2.358,2.36-2.358h10.616c1.303,0,2.359,1.056,2.359,2.358V34.463z"/>
			<g>
				<path style="fill:#008FD3;" d="M48.779,25.861c0,0.485-0.175,0.878-0.392,0.878h-19.66c-0.217,0-0.394-0.393-0.394-0.878l0,0
					c0-0.485,0.177-0.879,0.394-0.879h19.66C48.604,24.982,48.779,25.376,48.779,25.861L48.779,25.861z"/>
				<path style="fill:#008FD3;" d="M44.849,30.186c0,0.485-0.175,0.88-0.394,0.88H28.728c-0.217,0-0.394-0.395-0.394-0.88l0,0
					c0-0.485,0.177-0.878,0.394-0.878h15.727C44.674,29.308,44.849,29.7,44.849,30.186L44.849,30.186z"/>
				<path style="fill:#008FD3;" d="M48.779,34.611c0,0.483-0.175,0.877-0.392,0.877h-19.66c-0.217,0-0.394-0.394-0.394-0.877l0,0
					c0-0.486,0.177-0.881,0.394-0.881h19.66C48.604,33.73,48.779,34.125,48.779,34.611L48.779,34.611z"/>
			</g>
		</g>
		<path style="fill:#008FD3;" d="M21.748,50.976c0,1.305-1.056,2.358-2.359,2.358H8.773c-1.304,0-2.36-1.054-2.36-2.358v-8.65
			c0-1.303,1.056-2.358,2.36-2.358h10.616c1.303,0,2.359,1.056,2.359,2.358V50.976z"/>
		<path style="fill:#008FD3;" d="M48.779,42.374c0,0.487-0.175,0.88-0.392,0.88H30.693c-0.218,0-0.393-0.393-0.393-0.88l0,0
			c0-0.484,0.175-0.878,0.393-0.878h17.694C48.604,41.496,48.779,41.89,48.779,42.374L48.779,42.374z"/>
		<path style="fill:#008FD3;" d="M48.779,51.123c0,0.484-0.175,0.88-0.392,0.88H33.84c-0.219,0-0.394-0.396-0.394-0.88l0,0
			c0-0.484,0.175-0.878,0.394-0.878h14.548C48.604,50.245,48.779,50.639,48.779,51.123L48.779,51.123z"/>
		<path style="fill:#008FD3;" d="M48.779,46.7c0,0.485-0.175,0.878-0.392,0.878H34.232c-0.218,0-0.393-0.393-0.393-0.878l0,0
			c0-0.484,0.175-0.88,0.393-0.88h14.155C48.604,45.82,48.779,46.216,48.779,46.7L48.779,46.7z"/>
		<path style="fill:#008FD3;" d="M52.625,25.063c-1.618-1.82-4.512-1.7-6.47,0.275l-2.1,2.109l-1.276,1.294L28.708,42.913
			l-2.506,6.288l-1.651,4.152l3.98-1.536l6.038-2.309L48.63,35.341l1.287-1.293l2.093-2.111
			C53.973,29.961,54.243,26.887,52.625,25.063L52.625,25.063z M28.004,51.225l-1.262-1.43l2.381-5.999l0.436,0.061l4.11,4.625
			l0.061,0.528L28.004,51.225z M49.425,33.51l-4.893-5.517l1.521-1.526l4.896,5.516L49.425,33.51z M49.425,33.51"/>
	</g>
</g>
</svg>
