<?xml version="1.0" encoding="utf-8"?>
<!-- Generator: Adobe Illustrator 25.0.0, SVG Export Plug-In . SVG Version: 6.00 Build 0)  -->
<svg version="1.1" id="Layer_1" xmlns="http://www.w3.org/2000/svg" xmlns:xlink="http://www.w3.org/1999/xlink" x="0px" y="0px"
	 viewBox="0 0 100 100" style="enable-background:new 0 0 100 100;" xml:space="preserve">
<style type="text/css">
	.st0{fill:#FFFFFF;stroke:#FFFFFF;stroke-width:3;}
	.st1{fill:#FFFFFF;}
	.st2{fill:none;}
</style>
<g>
	<g>
		<path class="st0" d="M68.8,92H25.3c-3.5,0-6.3-2.8-6.3-6.3V69.3h1.1v16.4c0,2.9,2.3,5.2,5.2,5.2h43.5c2.9,0,5.2-2.3,5.2-5.2v-5.4
			h1.1v5.4C75.1,89.2,72.3,92,68.8,92z"/>
		<path class="st0" d="M20.1,47.2H19V15.5c0-3.5,2.8-6.3,6.3-6.3h43.5c3.5,0,6.3,2.8,6.3,6.3v15.1h-1.2V15.5c0-2.9-2.3-5.2-5.2-5.2
			H25.3c-2.9,0-5.2,2.3-5.2,5.2V47.2z"/>
	</g>
	<g>
		<path class="st1" d="M29.5,55.8c0,0.7-0.6,1.3-1.3,1.3H16.7c-0.7,0-1.3-0.6-1.3-1.3l0,0c0-0.7,0.6-1.3,1.3-1.3h11.4
			C28.9,54.5,29.5,55.1,29.5,55.8L29.5,55.8z"/>
		<path class="st1" d="M39.6,61.3c0,0.7-0.6,1.3-1.3,1.3H16.7c-0.7,0-1.3-0.6-1.3-1.3l0,0c0-0.7,0.6-1.3,1.3-1.3h21.5
			C39,60,39.6,60.6,39.6,61.3L39.6,61.3z"/>
		<path class="st1" d="M81,44.8c0,1.7-1.4,3.1-3.1,3.1h-3.5c-1.7,0-3.1-1.4-3.1-3.1v-3.4c0-1.7,1.4-3.1,3.1-3.1H78
			c1.7,0,3.1,1.4,3.1,3.1V44.8z M78.3,41.1h-4v4.1h4V41.1z"/>
		<path class="st1" d="M81,57.4c0,1.7-1.4,3.1-3.1,3.1h-3.5c-1.7,0-3.1-1.4-3.1-3.1V54c0-1.7,1.4-3.1,3.1-3.1H78
			c1.7,0,3.1,1.4,3.1,3.1V57.4z M78.3,53.7h-4v4.1h4V53.7z"/>
		<path class="st1" d="M81,70.3c0,1.7-1.4,3.1-3.1,3.1h-3.5c-1.7,0-3.1-1.4-3.1-3.1v-3.4c0-1.7,1.4-3.1,3.1-3.1H78
			c1.7,0,3.1,1.4,3.1,3.1V70.3z M78.3,66.6h-4v4.1h4V66.6z"/>
		<path class="st1" d="M65.5,20.9c0,0.8-0.7,1.5-1.5,1.5H29.1c-0.8,0-1.5-0.7-1.5-1.5l0,0c0-0.8,0.7-1.5,1.5-1.5H64
			C64.8,19.4,65.5,20,65.5,20.9L65.5,20.9z"/>
		<path class="st1" d="M65.5,30.5c0,0.8-0.7,1.5-1.5,1.5H29.1c-0.8,0-1.5-0.7-1.5-1.5l0,0c0-0.8,0.7-1.5,1.5-1.5H64
			C64.8,29.1,65.5,29.8,65.5,30.5L65.5,30.5z"/>
		<path class="st1" d="M52.3,40.3c0,0.8-0.7,1.5-1.5,1.5H29.1c-0.8,0-1.5-0.7-1.5-1.5l0,0c0-0.8,0.7-1.5,1.5-1.5h21.7
			C51.6,38.8,52.3,39.5,52.3,40.3L52.3,40.3z"/>
		<path class="st1" d="M52.3,78.8c0,0.8-0.7,1.5-1.5,1.5H29.1c-0.8,0-1.5-0.7-1.5-1.5l0,0c0-0.8,0.7-1.5,1.5-1.5h21.7
			C51.6,77.4,52.3,78,52.3,78.8L52.3,78.8z"/>
		<path class="st1" d="M54.2,70.5v7.1h33.2V34.1H54.2v12.7l-5.3-0.1V34.3c0-3,2.4-5.5,5.5-5.5h33c3,0,5.5,2.4,5.5,5.5v43.1
			c0,3-2.4,5.5-5.5,5.5h-33c-3,0-5.5-2.4-5.5-5.5v-6.6L54.2,70.5z"/>
		<path class="st1" d="M60.8,65.6c0,3-2.4,5.5-5.5,5.5H12.5c-2.9,0-5.4-2.4-5.4-5.5V51.5c0-3,2.4-5.5,5.5-5.5h42.8
			c3,0,5.5,2.4,5.5,5.5L60.8,65.6L60.8,65.6z M55.8,51.5H12.7v14.3h43.1V51.5z"/>
	</g>
</g>
</svg>
