<?xml version="1.0" encoding="utf-8"?>
<!-- Generator: Adobe Illustrator 25.0.0, SVG Export Plug-In . SVG Version: 6.00 Build 0)  -->
<svg version="1.1" id="Layer_1" xmlns="http://www.w3.org/2000/svg" xmlns:xlink="http://www.w3.org/1999/xlink" x="0px" y="0px"
	 viewBox="0 0 36 36" style="enable-background:new 0 0 36 36;" xml:space="preserve">
<style type="text/css">
	.st0{fill:#CB1618;}
	.st1{fill:#185ABD;}
	.st2{fill:#D83039;}
	.st3{fill:#103F91;}
	.st4{fill:#185C37;}
	.st5{fill:#33C481;}
	.st6{fill:#107C41;}
	.st7{fill:#21A366;}
	.st8{fill:#0B4A99;}
	.st9{fill:none;}
	.st10{fill:#FFFFFF;}
	.st11{fill:#41A5EE;}
	.st12{fill:#2B7CD3;}
	.st13{opacity:0.5;enable-background:new    ;}
	.st14{fill:url(#SVGID_1_);}
	.st15{fill:url(#SVGID_2_);}
	.st16{fill:url(#SVGID_3_);}
	.st17{fill:url(#SVGID_4_);}
	.st18{fill:#E24951;}
	.st19{fill-rule:evenodd;clip-rule:evenodd;}
	.st20{fill:#262625;}
	.st21{fill:none;stroke:#000000;stroke-width:0.75;stroke-miterlimit:10;}
	.st22{fill:none;stroke:#000000;stroke-width:1.2;stroke-miterlimit:10;}
	.st23{fill-rule:evenodd;clip-rule:evenodd;fill:#0B4A99;}
	.st24{fill:none;stroke:#0071C5;stroke-width:1.3;stroke-linecap:round;stroke-miterlimit:10;}
	.st25{fill:none;stroke:#F0AB00;stroke-width:1.3;stroke-miterlimit:10;}
	.st26{fill:#1C55A6;}
	.st27{fill:none;stroke:#1C55A6;stroke-width:1.3;stroke-linecap:round;}
	.st28{fill-rule:evenodd;clip-rule:evenodd;fill:none;stroke:#1C55A6;stroke-width:1.3;stroke-linecap:round;}
	.st29{fill:none;stroke:#1C55A6;stroke-width:1.3;stroke-linecap:round;stroke-miterlimit:10;}
	.st30{fill:none;stroke:#231F20;}
	.st31{fill:none;stroke:#0B4A99;stroke-width:1.3;stroke-miterlimit:10;}
</style>
<g>
	<g>
		<path class="st8" d="M13.6,19.6c-4.4,0-7.8-4.9-7.8-9.1c0-4.3,3.5-7.8,7.8-7.8s7.8,3.5,7.8,7.8c0,0.1,0,0.3,0,0.4
			c0,0.3-0.3,0.6-0.7,0.6c-0.3,0-0.6-0.3-0.6-0.7c0-0.1,0-0.2,0-0.4c0-3.6-2.9-6.6-6.6-6.6s-6.6,2.9-6.6,6.6c0,3.6,2.9,7.9,6.6,7.9
			c1.9,0,3.9-1.3,5.2-3.4c0.2-0.3,0.6-0.4,0.9-0.2c0.3,0.2,0.4,0.6,0.2,0.9C18.3,18.1,16,19.6,13.6,19.6z"/>
	</g>
	<g>
		<path class="st8" d="M23.7,33.4H4.2c-2.3,0-4.2-1.9-4.2-4.2c0-6,4.8-10.8,10.8-10.8h6.4c6,0,10.8,4.8,10.8,10.8
			C28,31.5,26.1,33.4,23.7,33.4z M10.8,19.6c-5.3,0-9.5,4.3-9.5,9.5c0,1.6,1.3,3,3,3h19.5c1.6,0,3-1.3,3-3c0-5.3-4.3-9.5-9.5-9.5
			H10.8z"/>
	</g>
	<g>
		<path class="st8" d="M30.4,24.3c-0.4,0-0.8-0.1-1.2-0.3h0l-9.8-6.3l-0.8-5.4c-0.1-0.9,0.5-1.8,1.4-1.9l5.4-0.9L35,15
			c0.5,0.3,0.8,0.8,1,1.4c0.1,0.6,0,1.1-0.3,1.6l-3.4,5.2C31.9,23.9,31.2,24.3,30.4,24.3z M30,22.9c0.4,0.3,1,0.2,1.3-0.3l3.4-5.2
			c0.1-0.2,0.2-0.5,0.1-0.7c-0.1-0.2-0.2-0.4-0.4-0.6l-9.1-5.3l-4.9,0.8c-0.2,0-0.4,0.3-0.4,0.5l0.8,4.8L30,22.9z"/>
	</g>
	<g>
		<path class="st8" d="M23.3,15.6c-0.9,0-1.7-0.8-1.7-1.7s0.8-1.7,1.7-1.7c0.9,0,1.7,0.8,1.7,1.7S24.2,15.6,23.3,15.6z M23.3,13.4
			c-0.2,0-0.4,0.2-0.4,0.4s0.2,0.4,0.4,0.4c0.2,0,0.4-0.2,0.4-0.4S23.5,13.4,23.3,13.4z"/>
	</g>
</g>
</svg>
