<?xml version="1.0" encoding="iso-8859-1"?>
<!-- Generator: Adobe Illustrator 12.0.0, SVG Export Plug-In . SVG Version: 6.00 Build 51448)  -->
<!DOCTYPE svg PUBLIC "-//W3C//DTD SVG 1.1//EN" "http://www.w3.org/Graphics/SVG/1.1/DTD/svg11.dtd" [
	<!ENTITY ns_svg "http://www.w3.org/2000/svg">
	<!ENTITY ns_xlink "http://www.w3.org/1999/xlink">
]>
<svg  version="1.1" id="Layer_1" xmlns="&ns_svg;" xmlns:xlink="&ns_xlink;" width="60.095" height="60.095"
	 viewBox="0 0 60.095 60.095" style="overflow:visible;enable-background:new 0 0 60.095 60.095;" xml:space="preserve">
<g>
	<path style="fill:#008FD3;" d="M60.095,52.176c0,4.37-3.771,7.919-8.43,7.919H8.437C3.778,60.095,0,56.546,0,52.176V7.923
		C0,3.55,3.778,0,8.437,0h43.229c4.658,0,8.43,3.55,8.43,7.923V52.176z M57.167,10.079c0-3.947-3.404-7.151-7.608-7.151H10.542
		c-4.204,0-7.614,3.204-7.614,7.151V50.02c0,3.944,3.41,7.147,7.614,7.147h39.017c4.204,0,7.608-3.203,7.608-7.147V10.079z"/>
	<g>
		<path style="fill:#008FD3;" d="M29.481,19.308c0.191,0.179,0.442,0.278,0.705,0.278c0.273,0,0.531-0.107,0.726-0.302l1.26-1.261
			c0.426-0.424,0.426-1.114,0-1.539l-1.26-1.261c-0.194-0.194-0.452-0.302-0.726-0.302c-0.262,0-0.513,0.099-0.705,0.278
			c-0.101,0.095-0.181,0.206-0.237,0.332c-0.058,0.132-0.088,0.272-0.088,0.418v2.607c0,0.146,0.03,0.287,0.088,0.419
			C29.3,19.102,29.38,19.213,29.481,19.308L29.481,19.308z"/>
		<g>
			<g>
				<path style="fill:#008FD3;" d="M30.051,9.301H13.564c-0.886,0-1.607,0.798-1.607,1.777c0,0.981,0.721,1.779,1.607,1.779h16.487
					c0.886,0,1.607-0.798,1.607-1.779C31.658,10.099,30.937,9.301,30.051,9.301L30.051,9.301z M30.051,9.301"/>
				<path style="fill:#008FD3;" d="M8.397,12.856c0.979,0,1.777-0.798,1.777-1.778c0-0.979-0.798-1.777-1.777-1.777
					c-0.98,0-1.778,0.798-1.778,1.777C6.619,12.059,7.417,12.856,8.397,12.856L8.397,12.856z M8.397,12.856"/>
			</g>
			<g>
				<path style="fill:#008FD3;" d="M26.21,15.625H13.223c-0.699,0-1.267,0.797-1.267,1.777c0,0.98,0.568,1.778,1.267,1.778H26.21
					c0.698,0,1.267-0.797,1.267-1.778C27.477,16.422,26.908,15.625,26.21,15.625L26.21,15.625z M26.21,15.625"/>
				<path style="fill:#008FD3;" d="M8.397,19.18c0.979,0,1.777-0.797,1.777-1.778c0-0.98-0.798-1.777-1.777-1.777
					c-0.98,0-1.778,0.797-1.778,1.777C6.619,18.382,7.417,19.18,8.397,19.18L8.397,19.18z M8.397,19.18"/>
			</g>
			<g>
				<path style="fill:#008FD3;" d="M30.052,40.916H13.564c-0.886,0-1.607,0.798-1.607,1.778c0,0.979,0.721,1.777,1.607,1.777h16.488
					c0.886,0,1.606-0.798,1.606-1.777C31.658,41.714,30.938,40.916,30.052,40.916L30.052,40.916z M30.052,40.916"/>
				<path style="fill:#008FD3;" d="M8.397,44.472c0.979,0,1.777-0.798,1.777-1.777c0-0.98-0.798-1.778-1.777-1.778
					c-0.98,0-1.778,0.798-1.778,1.778C6.619,43.674,7.417,44.472,8.397,44.472L8.397,44.472z M8.397,44.472"/>
			</g>
			<g>
				<path style="fill:#008FD3;" d="M30.052,47.239H13.564c-0.886,0-1.607,0.798-1.607,1.777s0.721,1.777,1.607,1.777h16.488
					c0.886,0,1.606-0.798,1.606-1.777S30.938,47.239,30.052,47.239L30.052,47.239z M30.052,47.239"/>
				<path style="fill:#008FD3;" d="M8.397,50.794c0.979,0,1.777-0.798,1.777-1.777s-0.798-1.777-1.777-1.777
					c-0.98,0-1.778,0.798-1.778,1.777S7.417,50.794,8.397,50.794L8.397,50.794z M8.397,50.794"/>
			</g>
			<g>
				<path style="fill:#008FD3;" d="M30.052,28.27H13.564c-0.886,0-1.607,0.797-1.607,1.778c0,0.979,0.721,1.777,1.607,1.777h16.488
					c0.886,0,1.606-0.798,1.606-1.777C31.658,29.067,30.938,28.27,30.052,28.27L30.052,28.27z M30.052,28.27"/>
				<path style="fill:#008FD3;" d="M8.397,31.825c0.979,0,1.777-0.798,1.777-1.777c0-0.98-0.798-1.778-1.777-1.778
					c-0.98,0-1.778,0.797-1.778,1.778C6.619,31.027,7.417,31.825,8.397,31.825L8.397,31.825z M8.397,31.825"/>
			</g>
			<g>
				<path style="fill:#008FD3;" d="M30.052,21.947H13.564c-0.886,0-1.607,0.797-1.607,1.778c0,0.98,0.721,1.777,1.607,1.777h16.488
					c0.886,0,1.606-0.797,1.606-1.777C31.658,22.745,30.938,21.947,30.052,21.947L30.052,21.947z M30.052,21.947"/>
				<path style="fill:#008FD3;" d="M8.397,25.502c0.979,0,1.777-0.797,1.777-1.777c0-0.98-0.798-1.778-1.777-1.778
					c-0.98,0-1.778,0.797-1.778,1.778C6.619,24.705,7.417,25.502,8.397,25.502L8.397,25.502z M8.397,25.502"/>
			</g>
			<g>
				<path style="fill:#008FD3;" d="M30.052,34.593H13.564c-0.886,0-1.607,0.798-1.607,1.778c0,0.979,0.721,1.778,1.607,1.778h16.488
					c0.886,0,1.606-0.799,1.606-1.778C31.658,35.391,30.938,34.593,30.052,34.593L30.052,34.593z M30.052,34.593"/>
				<path style="fill:#008FD3;" d="M8.397,38.149c0.979,0,1.777-0.799,1.777-1.778c0-0.98-0.798-1.778-1.777-1.778
					c-0.98,0-1.778,0.798-1.778,1.778C6.619,37.351,7.417,38.149,8.397,38.149L8.397,38.149z M8.397,38.149"/>
			</g>
		</g>
		<g>
			<path style="fill:#008FD3;" d="M51.867,14.955H35.381c-0.886,0-1.606,0.798-1.606,1.778c0,0.981,0.721,1.779,1.606,1.779h16.486
				c0.887,0,1.608-0.797,1.608-1.779C53.476,15.753,52.754,14.955,51.867,14.955L51.867,14.955z M51.867,14.955"/>
			<path style="fill:#008FD3;" d="M51.868,21.278H35.381c-0.886,0-1.607,0.798-1.607,1.778c0,0.98,0.722,1.778,1.607,1.778h16.487
				c0.886,0,1.607-0.797,1.607-1.778C53.476,22.077,52.754,21.278,51.868,21.278L51.868,21.278z M51.868,21.278"/>
			<path style="fill:#008FD3;" d="M51.868,27.601H35.381c-0.886,0-1.607,0.798-1.607,1.777c0,0.981,0.722,1.779,1.607,1.779h16.487
				c0.886,0,1.607-0.798,1.607-1.779C53.476,28.398,52.754,27.601,51.868,27.601L51.868,27.601z M51.868,27.601"/>
		</g>
	</g>
</g>
</svg>
