<?xml version="1.0" encoding="utf-8"?>
<!-- Generator: Adobe Illustrator 25.0.0, SVG Export Plug-In . SVG Version: 6.00 Build 0)  -->
<svg version="1.1" id="Layer_1" xmlns="http://www.w3.org/2000/svg" xmlns:xlink="http://www.w3.org/1999/xlink" x="0px" y="0px"
	 viewBox="0 0 36 36" style="enable-background:new 0 0 36 36;" xml:space="preserve">
<style type="text/css">
	.st0{fill:#0B4A99;}
	.st1{fill:#40875E;}
	.st2{fill:#A8A240;}
	.st3{fill:#F0AB00;}
</style>
<g>
	<g>
		<path class="st0" d="M0.8,33.4c-0.1,0-0.3,0-0.4-0.1c-0.3-0.2-0.5-0.6-0.3-1l6-14L0.1,3.8c-0.2-0.4,0-0.8,0.3-1
			c0.3-0.2,0.8-0.1,1.1,0.2l12.2,14.4c0.3,0.4,0.3,1,0,1.4L1.5,33.1C1.3,33.3,1.1,33.4,0.8,33.4z M2.6,6.4l4.8,11.4
			c0.1,0.3,0.1,0.6,0,0.8L2.7,29.5L12.5,18L2.6,6.4z M12.6,18.2C12.6,18.2,12.6,18.2,12.6,18.2L12.6,18.2z M6.2,18.1
			C6.2,18.1,6.2,18.1,6.2,18.1L6.2,18.1z"/>
	</g>
	<g>
		<path class="st0" d="M11.9,33.4c-0.1,0-0.3,0-0.4-0.1c-0.3-0.2-0.5-0.6-0.3-1l6-14L11.1,3.8c-0.2-0.4,0-0.8,0.3-1
			c0.3-0.2,0.8-0.1,1.1,0.2l12.2,14.4c0.3,0.4,0.3,1,0,1.4L12.5,33.1C12.4,33.3,12.1,33.4,11.9,33.4z M13.7,6.4l4.8,11.4
			c0.1,0.3,0.1,0.6,0,0.8l-4.7,10.9L23.5,18L13.7,6.4z M17.2,18.1C17.2,18.1,17.2,18.1,17.2,18.1L17.2,18.1z"/>
	</g>
	<g>
		<path class="st0" d="M22.9,33.4c-0.1,0-0.3,0-0.4-0.1c-0.3-0.2-0.5-0.6-0.3-1l6-14L22.2,3.8c-0.2-0.4,0-0.8,0.3-1
			c0.3-0.2,0.8-0.1,1.1,0.2l12.2,14.4c0.3,0.4,0.3,1,0,1.4L23.6,33.1C23.4,33.3,23.2,33.4,22.9,33.4z M23.4,32.8L23.4,32.8
			C23.4,32.8,23.4,32.8,23.4,32.8z M24.7,6.4l4.8,11.4c0.1,0.3,0.1,0.6,0,0.8l-4.7,10.9L34.6,18L24.7,6.4z M28.3,18.1L28.3,18.1
			L28.3,18.1z"/>
	</g>
</g>
</svg>
