<?xml version="1.0" encoding="iso-8859-1"?>
<!-- Generator: Adobe Illustrator 12.0.0, SVG Export Plug-In . SVG Version: 6.00 Build 51448)  -->
<!DOCTYPE svg PUBLIC "-//W3C//DTD SVG 1.1//EN" "http://www.w3.org/Graphics/SVG/1.1/DTD/svg11.dtd" [
	<!ENTITY ns_svg "http://www.w3.org/2000/svg">
	<!ENTITY ns_xlink "http://www.w3.org/1999/xlink">
]>
<svg  version="1.1" id="Layer_1" xmlns="&ns_svg;" xmlns:xlink="&ns_xlink;" width="2064" height="2063.997"
	 viewBox="-136.862 -136.554 2064 2063.997" style="overflow:visible;enable-background:new -136.862 -136.554 2064 2063.997;"
	 xml:space="preserve">
<path style="fill:#0071C5;" d="M1471.138,767.445v128c0,147.332-49.167,275.5-147.5,384.5s-219.833,171.5-364.5,187.5v132h256
	c17.333,0,32.333,6.332,45,19c12.667,12.666,19,27.666,19,45c0,17.332-6.333,32.332-19,45c-12.667,12.666-27.667,19-45,19h-640
	c-17.333,0-32.333-6.334-45-19c-12.667-12.668-19-27.668-19-45c0-17.334,6.333-32.334,19-45c12.667-12.668,27.667-19,45-19h256v-132
	c-144.667-16-266.167-78.5-364.5-187.5s-147.5-237.168-147.5-384.5v-128c0-17.333,6.333-32.333,19-45s27.667-19,45-19
	s32.333,6.333,45,19s19,27.667,19,45v128c0,123.332,43.833,228.832,131.5,316.5c87.667,87.666,193.167,131.5,316.5,131.5
	s228.833-43.834,316.5-131.5c87.667-87.668,131.5-193.168,131.5-316.5v-128c0-17.333,6.333-32.333,19-45s27.667-19,45-19
	s32.333,6.333,45,19S1471.138,750.112,1471.138,767.445z M1215.138,383.445v512c0,88-31.333,163.332-94,226
	c-62.667,62.666-138,94-226,94s-163.333-31.334-226-94c-62.667-62.668-94-138-94-226v-512c0-88,31.333-163.333,94-226s138-94,226-94
	s163.333,31.333,226,94S1215.138,295.445,1215.138,383.445z M895.155-112.353c-556.591,0-1007.798,451.207-1007.798,1007.798
	c0,556.59,451.207,1007.797,1007.798,1007.797c556.556,0,1007.763-451.205,1007.763-1007.797S1451.711-112.353,895.155-112.353z"/>
</svg>
