<?xml version="1.0" encoding="iso-8859-1"?>
<!-- Generator: Adobe Illustrator 12.0.0, SVG Export Plug-In . SVG Version: 6.00 Build 51448)  -->
<!DOCTYPE svg PUBLIC "-//W3C//DTD SVG 1.1//EN" "http://www.w3.org/Graphics/SVG/1.1/DTD/svg11.dtd" [
	<!ENTITY ns_svg "http://www.w3.org/2000/svg">
	<!ENTITY ns_xlink "http://www.w3.org/1999/xlink">
]>
<svg  version="1.1" id="Layer_1" xmlns="&ns_svg;" xmlns:xlink="&ns_xlink;" width="1792" height="1792" viewBox="0 0 1792 1792"
	 style="overflow:visible;enable-background:new 0 0 1792 1792;" xml:space="preserve">
<path style="fill:#0071C5;" d="M1472,704v128c0,147.333-49.167,275.5-147.5,384.5S1104.667,1388,960,1404v132h256
	c17.333,0,32.333,6.333,45,19s19,27.667,19,45s-6.333,32.333-19,45s-27.667,19-45,19H576c-17.333,0-32.333-6.333-45-19
	s-19-27.667-19-45s6.333-32.333,19-45s27.667-19,45-19h256v-132c-144.667-16-266.167-78.5-364.5-187.5S320,979.333,320,832V704
	c0-17.333,6.333-32.333,19-45s27.667-19,45-19s32.333,6.333,45,19s19,27.667,19,45v128c0,123.333,43.833,228.833,131.5,316.5
	S772.667,1280,896,1280s228.833-43.833,316.5-131.5S1344,955.333,1344,832V704c0-17.333,6.333-32.333,19-45s27.667-19,45-19
	s32.333,6.333,45,19S1472,686.667,1472,704z M1216,320v512c0,88-31.333,163.333-94,226s-138,94-226,94s-163.333-31.333-226-94
	s-94-138-94-226V320c0-88,31.333-163.333,94-226S808,0,896,0s163.333,31.333,226,94S1216,232,1216,320z"/>
</svg>
