<?xml version="1.0" encoding="iso-8859-1"?>
<!-- Generator: Adobe Illustrator 12.0.0, SVG Export Plug-In . SVG Version: 6.00 Build 51448)  -->
<!DOCTYPE svg PUBLIC "-//W3C//DTD SVG 1.1//EN" "http://www.w3.org/Graphics/SVG/1.1/DTD/svg11.dtd" [
	<!ENTITY ns_svg "http://www.w3.org/2000/svg">
	<!ENTITY ns_xlink "http://www.w3.org/1999/xlink">
]>
<svg  version="1.1" id="Layer_1" xmlns="&ns_svg;" xmlns:xlink="&ns_xlink;" width="22.11" height="22.11"
	 viewBox="0 0 22.11 22.11" style="overflow:visible;enable-background:new 0 0 22.11 22.11;" xml:space="preserve">
<g>
	<g id="Firefox" transform="matrix(1.0777, 0, 0, 1.08028, -2.52936, -0.759711)">
		<g id="Globe">
			<ellipse id="ellipse10" style="fill:#110070;" cx="12.577" cy="10.902" rx="9.874" ry="9.881"/>
			
				<radialGradient id="ellipse33_1_" cx="-193.5278" cy="314.4426" r="20.8348" gradientTransform="matrix(0.8971 0 0 -0.8993 186.3312 284.9941)" gradientUnits="userSpaceOnUse">
				<stop  offset="0" style="stop-color:#67C5D5"/>
				<stop  offset="0.1604" style="stop-color:#66C2D3"/>
				<stop  offset="0.2795" style="stop-color:#62B9CE"/>
				<stop  offset="0.3852" style="stop-color:#5CA8C6"/>
				<stop  offset="0.4832" style="stop-color:#5392BA"/>
				<stop  offset="0.5759" style="stop-color:#4874AA"/>
				<stop  offset="0.6646" style="stop-color:#3A5097"/>
				<stop  offset="0.7485" style="stop-color:#2A2781"/>
				<stop  offset="0.8146" style="stop-color:#1B006D"/>
				<stop  offset="1" style="stop-color:#596AAD"/>
			</radialGradient>
			<ellipse id="ellipse33" style="fill:url(#ellipse33_1_);" cx="12.577" cy="10.902" rx="9.687" ry="9.694"/>
			
				<radialGradient id="path42_1_" cx="-193.5305" cy="313.1571" r="10.441" gradientTransform="matrix(0.8971 0 0 -0.8993 186.3312 284.9941)" gradientUnits="userSpaceOnUse">
				<stop  offset="0" style="stop-color:#0F80BC"/>
				<stop  offset="0.3376" style="stop-color:#0A5F9E"/>
				<stop  offset="1" style="stop-color:#00145A"/>
			</radialGradient>
			<path id="path42" style="fill:url(#path42_1_);" d="M11.188,15.905c-0.012-0.052-0.143-0.204-0.243-0.239
				c-0.1-0.034-0.198,0.147-0.262-0.154c-0.211,0.121-0.302-0.033-0.302-0.033s-0.227,0.014-0.271,0.292
				c-0.108,0.127-0.385,0.593-0.238,0.109c0.148-0.487-0.157-0.039-0.185,0.206c-0.053,0.108-0.142,0.119-0.086-0.37
				c-0.195-0.067-0.295-0.52-0.188-0.529c-0.124-0.174-0.026-0.438,0.077-0.424c0.103,0.014,0.281-0.226,0.275-0.282
				c-0.005-0.055,0.08-0.015,0.075-0.389c-0.005-0.374,0.141-0.466,0.153-0.154c0.013,0.312,0.199-0.102,0.18-0.26
				c-0.019-0.157,0.019-0.515,0.132-0.304c-0.132-0.523-0.028-0.543,0.051-0.195c0.198,0.015,0.205,0.121,0.205,0.121
				c0.22-0.053,0.325,0.112,0.343,0.204c0.203-0.24,0.409,0.019,0.409,0.019s0.142-0.047,0.074,0.2
				c-0.068,0.246,0.295,0.113,0.208-0.064c0.179-0.09,0.444,0.184,0.527,0.371c0.083,0.187-0.143,0.453,0.034,0.517
				c0.178,0.064,0.1,0.373,0.1,0.373s0.372,0.206,0.114,0.382l-0.088,0.211c0,0,0.168,0.188,0.226,0.076
				c0.057-0.112,0.077,0.114,0.077,0.114c-0.022-0.04,0.041,0.232,0.273,0.289c0.233,0.057,0.38,0.425,0.122,0.429
				c-0.257,0.005-0.277-0.003-0.347,0.147c-0.069,0.149-0.398,0.155-0.568-0.039c-0.181,0.061-0.503-0.017-0.408-0.163
				c-0.156,0.091-0.304-0.154-0.182-0.262c0.122-0.108-0.068-0.25-0.133-0.094c-0.063,0.155-0.4,0.232-0.377-0.032
				c0.007-0.079,0.186-0.125,0.188-0.059C11.188,15.997,11.201,15.916,11.188,15.905z"/>
			<g id="g44">
				
					<radialGradient id="path53_1_" cx="-193.53" cy="313.1562" r="10.4397" gradientTransform="matrix(0.8971 0 0 -0.8993 186.3312 284.9941)" gradientUnits="userSpaceOnUse">
					<stop  offset="0" style="stop-color:#0F80BC"/>
					<stop  offset="0.3376" style="stop-color:#0A5F9E"/>
					<stop  offset="1" style="stop-color:#00145A"/>
				</radialGradient>
				<path id="path53" style="fill:url(#path53_1_);" d="M19.197,8.329c0.052,0.051,0.153,0.04,0.209,0.024
					c0.056-0.016,0.048-0.056,0.097-0.072c0.048-0.016,0.233,0.072,0.184,0.264c-0.111,0.016-0.152,0.152-0.152,0.152
					s-0.112,0.048-0.169,0.024s-0.056-0.016-0.137-0.008c-0.081,0.008-0.273-0.104-0.064-0.104c0.209,0-0.024-0.096-0.112-0.096
					c-0.088,0-0.016-0.088,0.089-0.064C19.07,8.329,19.109,8.241,19.197,8.329z"/>
				
					<radialGradient id="path62_1_" cx="-193.5314" cy="313.1598" r="10.4439" gradientTransform="matrix(0.8971 0 0 -0.8993 186.3312 284.9941)" gradientUnits="userSpaceOnUse">
					<stop  offset="0" style="stop-color:#0F80BC"/>
					<stop  offset="0.3376" style="stop-color:#0A5F9E"/>
					<stop  offset="1" style="stop-color:#00145A"/>
				</radialGradient>
				<path id="path62" style="fill:url(#path62_1_);" d="M18.473,8.763c-0.055,0.056,0.008,0.224,0.081,0.215
					c0.072-0.008,0.185-0.039,0.185-0.039s0.056,0.112,0,0.144c-0.056,0.032-0.22,0.018-0.008,0.096
					c0.217,0.08,0.273,0.056,0.289,0.016s0.088-0.175,0.129-0.168c0.032-0.071-0.112-0.136-0.032-0.184
					c0.079-0.047,0.016-0.223,0.016-0.223s-0.113,0.008-0.161,0.088c-0.048,0.08-0.112-0.008-0.16-0.008
					c-0.008,0.048-0.041,0.088-0.041,0.088l-0.032-0.072C18.739,8.715,18.514,8.707,18.473,8.763z"/>
			</g>
			
				<radialGradient id="path73_1_" cx="-193.3728" cy="312.2413" r="11.4715" gradientTransform="matrix(0.8971 0 0 -0.8993 186.3312 284.9941)" gradientUnits="userSpaceOnUse">
				<stop  offset="0" style="stop-color:#0F80BC"/>
				<stop  offset="0.2643" style="stop-color:#0B629B"/>
				<stop  offset="0.8439" style="stop-color:#031747"/>
				<stop  offset="1" style="stop-color:#00022F"/>
			</radialGradient>
			<path id="path73" style="fill:url(#path73_1_);" d="M16.972,8.895c-0.007-0.02,0.064-0.103,0.045,0.004
				c-0.043,0.076,0.176,0.145,0.237,0.06c0.207-0.282-0.194-0.419-0.369-0.288c-0.176,0.133-0.273-0.151-0.071-0.192
				c0.201-0.041,0.218-0.405-0.004-0.406c0.196-0.097-0.075-0.386-0.299-0.435c-0.036-0.311-0.364-0.509-0.537-0.396
				c-0.174,0.113-0.189,0.093-0.444-0.061c-0.255-0.155-0.377,0.321-0.19,0.528c0.188,0.209,0.052,0.546,0.06,0.489
				c0,0-0.071,0.127-0.066,0.175c-0.216,0.073-0.278-0.23-0.411-0.297c-0.098,0.127-0.255,0.195-0.255,0.195l0.012-0.259
				c0,0-0.669-0.364-0.874-0.262c-0.253,0.078-0.313,0.664-0.083,0.75c0.231,0.087-0.288,0.303,0.232,0.852
				c0.535,0.564,0.741,0.579,0.851,0.488c0.027-0.024,0.073-0.058,0.13-0.097c0.005,0.022,0.014,0.042,0.027,0.062
				c0.134,0.201-0.311,0.36-0.373,0.648c-0.063,0.292-0.005,0.833,0.259,0.852c0.051-0.289,0.544-0.187,0.275,0.075
				c-0.274,0.267-0.082,0.314-0.082,0.314s0.013,0.5,0.431,0.34c-0.013,0.029-0.023,0.066-0.028,0.106
				c-0.117-0.024-0.403-0.06-0.473,0.14c-0.088,0.251-0.461-0.086-0.723,0.027c-0.259,0.113-0.639,0.481-0.511,0.739
				c0.246-0.117,0.433,0.409,0.091,0.301c-0.345-0.108-0.278,0.098-0.278,0.098s-0.358,0.282-0.023,0.583
				c-0.129,0.02-0.358,0.164-0.28,0.478c0,0-0.148,0.005-0.167,0.287c-0.481,0.097-0.451,0.246,0.272,0.082
				c-0.292,0.152,0.204,0.223,0.424,0.202c0.219-0.02,0.797,0.265,0.363,0.268c-0.435,0.003-0.305,0.216,0.215,0.226
				c0.52,0.01,0.466,0.131,0.543,0.126c0.077-0.005,0.413,0.259,0.395,0.407c-0.019,0.147,0.352,0.3,0.594,0.131
				c0.012,0.153,0.646,0.033,0.74-0.242c0.687,0.105,0.671-0.024,0.518-0.105c-0.344-0.052-0.976-0.51-0.291-0.274
				c0.681,0.234,0.025-0.185-0.155-0.346c-0.391-0.076-0.41-0.402-0.41-0.402s0.216-0.123,0.045-0.43
				c0.422-0.079,0.168-0.227,0.215-0.369c0.047-0.142,0.262-0.323,0.336-0.337c0.014-0.02,0.129,0.004,0.022,0.047
				c-0.092,0.001-0.026,0.26,0.083,0.274c0.373,0.045,0.265-0.442,0.045-0.541c-0.22-0.099-0.023-0.366,0.131-0.185
				c0.154,0.18,0.498-0.023,0.369-0.25c0.206,0.142,0.316-0.318,0.228-0.582c0.275-0.238,0.266-0.711,0.053-0.818
				c-0.104-0.052-0.155-0.086-0.18-0.151c0.126-0.06,0.294-0.104,0.359-0.045c0.107,0.096,0.404-0.169,0.385-0.48
				c0.125,0.068,0.323-0.565,0.155-0.787c0.387-0.541,0.283-0.59,0.153-0.499c-0.195,0.27-0.835,0.593-0.339,0.114
				c0.481-0.464-0.128-0.112-0.332-0.037c-0.24,0.3-0.494,0.156-0.494,0.156s0.011-0.246-0.299-0.251
				c0.143-0.395-0.088-0.252-0.169-0.36C16.976,9.225,16.947,8.962,16.972,8.895z"/>
			
				<radialGradient id="path82_1_" cx="-193.5314" cy="313.1562" r="10.4366" gradientTransform="matrix(0.8971 0 0 -0.8993 186.3312 284.9941)" gradientUnits="userSpaceOnUse">
				<stop  offset="0" style="stop-color:#0F80BC"/>
				<stop  offset="0.3376" style="stop-color:#0A5F9E"/>
				<stop  offset="1" style="stop-color:#00145A"/>
			</radialGradient>
			<path id="path82" style="fill:url(#path82_1_);" d="M11.954,4.938c-0.06,0.157,0.196,0.411,0.325,0.329s0.313-0.246,0.313-0.246
				s0.196,0.157,0.117,0.269c-0.08,0.112-0.397,0.238,0.063,0.187c0.471-0.052,0.557-0.149,0.555-0.239
				c-0.003-0.089,0.024-0.411,0.105-0.433c0.002-0.165-0.32-0.149-0.208-0.314c0.112-0.164-0.15-0.433-0.15-0.433
				s-0.204,0.119-0.23,0.314c-0.026,0.194-0.217,0.089-0.308,0.134c0.024,0.097-0.004,0.202-0.004,0.202l-0.118-0.105
				C12.411,4.602,11.983,4.797,11.954,4.938z"/>
			
				<radialGradient id="path91_1_" cx="-193.5309" cy="313.1553" r="10.4402" gradientTransform="matrix(0.8971 0 0 -0.8993 186.3312 284.9941)" gradientUnits="userSpaceOnUse">
				<stop  offset="0" style="stop-color:#0F80BC"/>
				<stop  offset="0.3376" style="stop-color:#0A5F9E"/>
				<stop  offset="1" style="stop-color:#00145A"/>
			</radialGradient>
			<path id="path91" style="fill:url(#path91_1_);" d="M12.72,13.163c-0.056,0.056,0.008,0.223,0.08,0.216
				c0.072-0.009,0.184-0.04,0.184-0.04s0.057,0.111,0,0.144c-0.057,0.032-0.219,0.018-0.008,0.096
				c0.217,0.08,0.274,0.055,0.29,0.015s0.088-0.175,0.128-0.168c0.033-0.071-0.112-0.135-0.032-0.184
				c0.081-0.048,0.017-0.223,0.017-0.223s-0.113,0.008-0.161,0.088c-0.048,0.08-0.113-0.008-0.161-0.008
				c-0.008,0.048-0.04,0.089-0.04,0.089l-0.032-0.072C12.984,13.115,12.76,13.107,12.72,13.163z"/>
			<g id="g93">
				<g>
					<defs>
						<ellipse id="XMLID_1_" cx="12.577" cy="10.902" rx="10.44" ry="10.472"/>
					</defs>
					<clipPath id="XMLID_2_">
						<use xlink:href="#XMLID_1_" />
					</clipPath>
					
						<linearGradient id="path108_1_" gradientUnits="userSpaceOnUse" x1="-193.1363" y1="306.5118" x2="-192.3915" y2="306.4483" gradientTransform="matrix(4.0601 0 0 -4.0698 798.8234 1251.2179)">
						<stop  offset="0" style="stop-color:#0F80BC"/>
						<stop  offset="0.3376" style="stop-color:#0A5F9E"/>
						<stop  offset="1" style="stop-color:#00145A"/>
					</linearGradient>
					<path id="path108" style="clip-path:url(#XMLID_2_);fill:url(#path108_1_);" d="M12.795,1.188
						c-0.152,0.034,0.102,0.583,0.102,0.583S12.887,2.14,12.95,2.158c0.062,0.019,0.475,0.122,0.69,0.39
						c0.217,0.269,0.104,0.41-0.076,0.333c-0.18-0.077-0.133,0.16-0.133,0.16s0.544,0.177,0.134,0.165
						c-0.412-0.011,0.276,0.29,0.232,0.321c-0.046,0.032-0.072,0.205-0.072,0.205s-0.363,0.03-0.055,0.16
						c1.042,0.439-0.111,0.32-0.111,0.32l-0.148,0.181l0.291,0.365l0.224,0.16c0,0,0.472-0.157,0.619-0.182
						c0.147-0.024,0.517-0.301,0.517-0.301s0.112,0.079,0.029-0.083s0.306-0.09,0.403,0.031l0.689,0.311
						c0.008,0.024,0.024,0.046,0.048,0.062c0.134,0.094-0.121,0.255-0.095,0.427c0.025,0.169,0.181,0.45,0.352,0.42
						c-0.03-0.161,0.308-0.181,0.19-0.001c-0.117,0.179,0.014,0.176,0.014,0.176S16.8,6.03,17.03,5.889
						c-0.009,0.077,0.038,0.232,0.235,0.243c0,0-0.021,0.084,0.141,0.144c-0.022,0.289,0.071,0.298,0.093-0.141
						c0.041,0.193,0.165-0.078,0.19-0.208c0.024-0.131,0.292-0.417,0.22-0.164c-0.072,0.251,0.787,0.343,0.883,0.043
						c0.096-0.302,0.439-0.46,0.449-0.506c0.011-0.047-0.763-0.118-0.677-0.082c0.085,0.037,0.244-0.158,0.185-0.33
						c0.096,0.019,0.139-0.383-0.014-0.487c0.19-0.4,0.109-0.413,0.031-0.333c-0.095,0.201-0.487,0.503-0.221,0.131
						c0.267-0.377-0.109-0.047-0.239,0.034c-0.115,0.223-0.316,0.18-0.316,0.18s-0.037-0.152-0.252-0.101
						c0.024-0.268-0.11-0.139-0.187-0.192c-0.047-0.032-0.093-0.104-0.121-0.166c0.187,0.075,0.435,0.155,0.392,0.017
						c-0.028-0.09,0.352,0.107,0.364,0.066l0.475-0.066l0.46-0.291C16.177,1.048,12.795,1.188,12.795,1.188z"/>
				</g>
				<g>
					<defs>
						<ellipse id="XMLID_3_" cx="12.577" cy="10.902" rx="10.44" ry="10.472"/>
					</defs>
					<clipPath id="XMLID_4_">
						<use xlink:href="#XMLID_3_" />
					</clipPath>
					
						<linearGradient id="path117_1_" gradientUnits="userSpaceOnUse" x1="-194.6899" y1="306.4079" x2="-195.1015" y2="305.8033" gradientTransform="matrix(4.0601 0 0 -4.0698 798.8234 1251.2179)">
						<stop  offset="0" style="stop-color:#0F80BC"/>
						<stop  offset="0.3376" style="stop-color:#0A5F9E"/>
						<stop  offset="1" style="stop-color:#00145A"/>
					</linearGradient>
					<path id="path117" style="clip-path:url(#XMLID_4_);fill:url(#path117_1_);" d="M8.416,2.035
						C6.657,2.825,5.33,4.453,5.33,4.453s0.156,0.357,0.21,0.331c0.055-0.026-0.393,0.937-0.064,0.991
						C5.806,5.829,6.756,5.18,6.58,5.239C6.404,5.298,6.679,4.888,6.679,4.888s0.494-0.22,0.202,0.033
						c-0.29,0.251,0.386,0.031,0.375,0.083C7.246,5.056,7.344,5.195,7.344,5.195S7.112,5.443,7.411,5.343
						c1.027-0.345,0.135,0.296,0.135,0.296l0.018,0.219l0.444,0.077L8.271,5.91c0,0,0.23-0.405,0.319-0.516
						c0.089-0.11,0.171-0.546,0.171-0.546S8.894,4.834,8.725,4.77C8.556,4.706,8.887,4.506,9.039,4.531l0.716-0.222
						C9.778,4.32,9.804,4.326,9.834,4.322c0.164-0.019,0.081,0.267,0.215,0.375c0.133,0.107,0.437,0.21,0.546,0.078
						c-0.13-0.099,0.112-0.334,0.143-0.125c0.031,0.208,0.128,0.12,0.128,0.12s0.257-0.442,0.339-0.695
						c0.045,0.063,0.464-0.551,0.337-0.843c-0.128-0.297,0.08-0.575,0.057-0.618c-0.024-0.042-0.15,0.088-0.057,0.056
						c0.093-0.032-0.264,0.128-0.312-0.343c-0.048-0.481-0.117,0.041-0.164,0.195c0.063,0.251,0.714-1.014,0.714-1.014l0.84-0.342
						C12.619,1.167,10.709,1.007,8.416,2.035z"/>
				</g>
			</g>
			
				<linearGradient id="ellipse132_1_" gradientUnits="userSpaceOnUse" x1="-193.6999" y1="305.7778" x2="-193.6999" y2="306.7785" gradientTransform="matrix(4.0601 0 0 -4.0698 798.8234 1251.2179)">
				<stop  offset="0.0137" style="stop-color:#000000"/>
				<stop  offset="0.65" style="stop-color:#C4E0E3"/>
				<stop  offset="0.8224" style="stop-color:#C4E0E3"/>
				<stop  offset="0.8498" style="stop-color:#CDE5E8"/>
				<stop  offset="0.9443" style="stop-color:#E8F4F7"/>
				<stop  offset="1" style="stop-color:#F2FAFC"/>
			</linearGradient>
			
				<ellipse id="ellipse132" style="opacity:0.5;fill:url(#ellipse132_1_);enable-background:new    ;" cx="12.394" cy="4.894" rx="5.13" ry="3.324"/>
		</g>
		<g id="Fox">
			<g id="g146">
				
					<linearGradient id="path159_1_" gradientUnits="userSpaceOnUse" x1="-193.6243" y1="304.8892" x2="-193.0063" y2="305.2521" gradientTransform="matrix(4.0601 0 0 -4.0698 798.8234 1251.2179)">
					<stop  offset="0" style="stop-color:#DF731B"/>
					<stop  offset="0.5449" style="stop-color:#DF731B"/>
					<stop  offset="0.7014" style="stop-color:#EC8811"/>
					<stop  offset="0.8593" style="stop-color:#F4950B"/>
					<stop  offset="1" style="stop-color:#F79A09"/>
				</linearGradient>
				<path id="path159" style="fill:url(#path159_1_);" d="M22.823,8.191l-0.237,1.522c0,0-0.34-2.819-0.756-3.873
					c-0.637-1.615-0.921-1.602-0.922-1.6c0.427,1.085,0.349,1.667,0.349,1.667S20.5,3.847,18.501,3.191
					c-2.369-0.777-3.575-0.496-3.566-0.485c0.009,0.011,2.448,0.426,2.881,1.021c0,0-1.037,0-2.067,0.297
					c-0.047,0.014,3.792,0.48,4.577,4.317c0,0-0.42-0.878-0.941-1.027c0.342,1.041,0.255,3.018-0.072,4
					c-0.042,0.126-0.085-0.546-0.727-0.836c0.205,1.474-0.013,3.812-1.036,4.456c-0.08,0.05,0.642-2.308,0.145-1.397
					c-2.961,4.541-6.483,1.837-7.91,0.874c1.146,0.28,2.364,0.078,3.068-0.404c0.712-0.485,1.132-0.841,1.51-0.757
					c0.378,0.084,0.63-0.296,0.336-0.632c-0.294-0.336-1.007-0.8-1.972-0.548c-0.681,0.178-1.524,0.931-2.811,0.169
					c-1.098-0.651-1.091-1.179-1.091-1.516c0-0.337,0.299-0.849,0.845-0.765c0.488,0.075,0.231-0.211,0.756,0
					c0.144,0.057-0.014-0.687-0.218-1.164c0.392-0.819,1.665-1.062,1.76-1.134c0.172-0.13,0.077-0.195,0.136-0.391
					c0.055-0.183,0.09-0.676-1.334-0.54C10.116,6.793,9.7,5.944,9.563,5.738c0.044-0.263,0.116-0.502,0.212-0.722
					c0.098-0.2,0.204-0.384,0.311-0.523c0.034-0.043,0.063-0.081,0.089-0.117c0.212-0.248,0.473-0.459,0.786-0.635
					c0.163-0.092-1.825-0.006-2.72,1.16C8,4.933,7.67,4.864,7.301,4.864c-0.462,0-0.824,0.051-1.16,0.135
					C6.088,5.013,6.001,5.005,5.895,4.98C5.6,4.674,4.764,3.938,4.726,2.941c0,0-1.215,0.934-1.033,3.48
					C3.677,7.829,3.261,7.426,3.047,8.19c-0.1,0.362,0.15,0.635,0.15,0.645c0,0.005,0.299-0.324,0.299-0.324
					s-1.884,3.264,0.549,7.431c2.097,3.593,5.617,5.181,9.269,4.872c0.64-0.042,1.282-0.137,1.925-0.292
					C23.747,18.465,22.823,8.191,22.823,8.191z"/>
			</g>
			
				<linearGradient id="path166_1_" gradientUnits="userSpaceOnUse" x1="-194.5522" y1="305.6802" x2="-194.0727" y2="305.6391" gradientTransform="matrix(4.0601 0 0 -4.0698 798.8234 1251.2179)">
				<stop  offset="0.0112" style="stop-color:#941403"/>
				<stop  offset="0.8972" style="stop-color:#E85C0A"/>
			</linearGradient>
			<path id="path166" style="fill:url(#path166_1_);" d="M9.534,5.616c0,0,0.368,1.005,1.192,1.002
				c1.574-0.006,1.605,0.015,1.616,0.207c0.031,0.583-0.256,0.773-0.367,0.856c-0.11,0.083-1.608,0.952-1.664,1.2
				c-0.055,0.249-1.729-2.363-1.729-2.363L9.534,5.616z"/>
			
				<linearGradient id="path179_1_" gradientUnits="userSpaceOnUse" x1="-195.2653" y1="305.8022" x2="-193.5336" y2="305.5858" gradientTransform="matrix(4.0601 0 0 -4.0698 798.8234 1251.2179)">
				<stop  offset="0.0112" style="stop-color:#941403"/>
				<stop  offset="0.1357" style="stop-color:#A32104"/>
				<stop  offset="0.4978" style="stop-color:#C84107"/>
				<stop  offset="0.7893" style="stop-color:#DF5509"/>
				<stop  offset="0.972" style="stop-color:#E85C0A"/>
			</linearGradient>
			<path id="path179" style="fill:url(#path179_1_);" d="M10.372,6.699c0,0,0.512,0.653,0.125,0.914
				c-0.473,0.319,0.667,0.388,1.081,0.157c0.413-0.232,0.666-0.573,0.681-0.623c0.014-0.051,0.15-0.508-0.712-0.349
				C11.001,6.898,10.801,6.922,10.372,6.699z"/>
			
				<linearGradient id="path186_1_" gradientUnits="userSpaceOnUse" x1="-194.2708" y1="305.3792" x2="-194.1327" y2="305.4399" gradientTransform="matrix(4.0601 0 0 -4.0698 798.8234 1251.2179)">
				<stop  offset="0" style="stop-color:#F2C8A9"/>
				<stop  offset="1" style="stop-color:#FFFFCC"/>
			</linearGradient>
			<path id="path186" style="fill:url(#path186_1_);" d="M11.976,7.68c0.083-0.063,0.269-0.189,0.34-0.501
				c-0.052,0.021-0.057-0.038-0.118-0.013c-1.157,1.208-1.202,0.367-1.833,0.536C9.789,7.86,9.66,8.076,9.636,8.093
				C9.644,8.105,9.653,8.118,9.661,8.13c0.166,0.084,0.325,0.353,0.444,0.593c0.116,0.139,0.195,0.207,0.206,0.157
				C10.367,8.632,11.866,7.763,11.976,7.68z"/>
			
				<linearGradient id="path193_1_" gradientUnits="userSpaceOnUse" x1="-194.6781" y1="303.8134" x2="-192.356" y2="303.7178" gradientTransform="matrix(4.0601 0 0 -4.0698 798.8234 1251.2179)">
				<stop  offset="0" style="stop-color:#B30000"/>
				<stop  offset="1" style="stop-color:#DF731B"/>
			</linearGradient>
			<path id="path193" style="fill:url(#path193_1_);" d="M3.329,8.64c-0.236,0.495-1.753,3.058,0.722,7.322
				c2.422,4.175,6.613,5.538,10.892,4.611c1.221-0.264,2.63-1.219,3.527-1.921c-0.576-1.454-0.236-1.399-0.545-1.208
				c-3.446,2.133-6.187,0.029-8.308-0.24c-7.802-0.989-6.261-8.58-6.261-8.58L3.329,8.64z"/>
			
				<linearGradient id="path200_1_" gradientUnits="userSpaceOnUse" x1="-194.1652" y1="304.1479" x2="-192.9545" y2="303.7156" gradientTransform="matrix(4.0601 0 0 -4.0698 798.8234 1251.2179)">
				<stop  offset="0" style="stop-color:#941403"/>
				<stop  offset="1" style="stop-color:#DF731B"/>
			</linearGradient>
			<path id="path200" style="fill:url(#path200_1_);" d="M9.825,14.49c0.735,0.221,2.34,0.03,3.029-0.483
				c0.464-0.345,0.815-0.605,1.11-0.714c-0.521-0.353-0.53,0.148-1.627,0.402c-2.284,0.53-3.394-0.615-3.394-0.615
				c0.162,0.906,0.728,1.347,0.982,1.503C9.859,14.524,9.824,14.489,9.825,14.49z"/>
			
				<linearGradient id="path207_1_" gradientUnits="userSpaceOnUse" x1="-195.6373" y1="305.7516" x2="-194.4571" y2="305.7516" gradientTransform="matrix(4.0552 0.1989 0.1994 -4.0649 735.4316 1297.099)">
				<stop  offset="0.0562" style="stop-color:#B30000"/>
				<stop  offset="1" style="stop-color:#DE5C01"/>
			</linearGradient>
			<path id="path207" style="fill:url(#path207_1_);" d="M7.348,18.626c0,0-1.902-2.146-2.433-4.549
				c-0.783-0.739-1.338-1.365-1.707-1.817C3.421,13.971,4.293,16.626,7.348,18.626z"/>
			
				<linearGradient id="path214_1_" gradientUnits="userSpaceOnUse" x1="-13.5827" y1="502.2285" x2="-12.9406" y2="500.2392" gradientTransform="matrix(4.0312 0.4815 0.4827 -4.0409 -182.9527 2049.7258)">
				<stop  offset="0.0562" style="stop-color:#DE7210"/>
				<stop  offset="1" style="stop-color:#F6C08F"/>
			</linearGradient>
			<path id="path214" style="fill:url(#path214_1_);" d="M5.762,16.677c0,0-1.313-1.869-0.821-3.455
				c0.443-1.426-0.094-0.578-0.406-0.273C4.22,13.257,4.058,12.04,4.066,11.9c0-0.003,0-0.004,0-0.004
				C4.046,11.891,3.441,14.812,5.762,16.677z"/>
			
				<linearGradient id="path221_1_" gradientUnits="userSpaceOnUse" x1="-194.4697" y1="307.0669" x2="-194.4697" y2="304.8437" gradientTransform="matrix(4.056 0.1819 0.1823 -4.0657 736.9058 1294.9716)">
				<stop  offset="0.0562" style="stop-color:#DE7210"/>
				<stop  offset="1" style="stop-color:#F6C08F"/>
			</linearGradient>
			<path id="path221" style="fill:url(#path221_1_);" d="M3.817,15.049c0,0-0.299-3.793,0.647-4.329
				c1.502-0.851,0.126-0.652-0.31-0.416c-0.44,0.239-0.4-1.331-0.338-1.48C3.877,8.677,2.266,10.308,3.817,15.049z"/>
			<path id="path223" style="fill:#A40000;" d="M10.388,3.89c0,0-1.189,1.208-1.18,1.212c0.009,0.004,0.034,1.55,0.073,1.988
				c0.143,0.168,0.587,1.263,0.247,1.02C9.18,7.862,9.431,7.857,9.461,7.982c0.001,0.005,0.001,0.006,0,0.006
				C9.438,7.999,8.598,6.171,10.388,3.89z"/>
			
				<linearGradient id="path232_1_" gradientUnits="userSpaceOnUse" x1="-195.5154" y1="305.9297" x2="-195.7566" y2="306.5477" gradientTransform="matrix(4.0601 0 0 -4.0698 798.8234 1251.2179)">
				<stop  offset="0.0112" style="stop-color:#941403"/>
				<stop  offset="0.4719" style="stop-color:#E85C0A"/>
				<stop  offset="1" style="stop-color:#F9BD5F"/>
			</linearGradient>
			<path id="path232" style="fill:url(#path232_1_);" d="M4.732,2.959c0,0-1.264,0.97-1.022,3.629
				C4.688,5.71,6.071,5.053,6.071,5.053C5.839,4.907,4.774,4.055,4.732,2.959z"/>
			
				<linearGradient id="path241_1_" gradientUnits="userSpaceOnUse" x1="-194.5585" y1="305.7977" x2="-193.9807" y2="306.5572" gradientTransform="matrix(4.0601 0 0 -4.0698 798.8234 1251.2179)">
				<stop  offset="0.1966" style="stop-color:#DE7210"/>
				<stop  offset="0.8427" style="stop-color:#F9BD5F"/>
				<stop  offset="1" style="stop-color:#FFFCCF"/>
			</linearGradient>
			<path id="path241" style="fill:url(#path241_1_);" d="M7.846,5.867l1.898,2.361C9.197,5.91,9.618,4.519,10.966,3.76
				C11.166,3.648,8.15,3.801,7.846,5.867z"/>
			
				<linearGradient id="path250_1_" gradientUnits="userSpaceOnUse" x1="-194.8412" y1="304.8386" x2="-194.2551" y2="303.6663" gradientTransform="matrix(4.0601 0 0 -4.0698 798.8234 1251.2179)">
				<stop  offset="0.0169" style="stop-color:#941403"/>
				<stop  offset="0.5" style="stop-color:#E35100"/>
				<stop  offset="1" style="stop-color:#DF731B"/>
			</linearGradient>
			<path id="path250" style="fill:url(#path250_1_);" d="M6.509,11.699c0.323-2.04,3.162-1.74,3.162-1.74
				c-0.126,0.094-0.613,0.15-0.752,0.539c-0.459,1.285-0.021,4.091,2.842,5.268C12.063,15.89,6.031,14.713,6.509,11.699z"/>
			
				<linearGradient id="path265_1_" gradientUnits="userSpaceOnUse" x1="-194.0207" y1="305.503" x2="-193.8743" y2="305.3703" gradientTransform="matrix(4.0601 0 0 -4.0698 798.8234 1251.2179)">
				<stop  offset="0" style="stop-color:#EEA272"/>
				<stop  offset="0.1865" style="stop-color:#EFA777"/>
				<stop  offset="0.4064" style="stop-color:#F2B585"/>
				<stop  offset="0.643" style="stop-color:#F6CD9C"/>
				<stop  offset="0.8898" style="stop-color:#FCEEBB"/>
				<stop  offset="1" style="stop-color:#FFFFCC"/>
			</linearGradient>
			<path id="path265" style="fill:url(#path265_1_);" d="M12.3,7.235c-0.014-0.002-0.026-0.002-0.033,0.006
				c-0.035,0.047-0.17,0.206-0.491,0.467c-0.596,0.485-0.847,0.363-1.291,0.462c-0.203,0.045-0.395,0.181-0.524,0.289
				c0.053,0.085,0.101,0.176,0.145,0.264c0.117,0.139,0.195,0.207,0.207,0.157c0.055-0.249,1.554-1.117,1.664-1.2
				C12.055,7.621,12.22,7.505,12.3,7.235z"/>
			
				<linearGradient id="path274_1_" gradientUnits="userSpaceOnUse" x1="-194.8118" y1="305.2137" x2="-194.1394" y2="304.5276" gradientTransform="matrix(4.0601 0 0 -4.0698 798.8234 1251.2179)">
				<stop  offset="0.1966" style="stop-color:#DF731B"/>
				<stop  offset="0.8427" style="stop-color:#F9BD5F"/>
				<stop  offset="1" style="stop-color:#FFFCCF"/>
			</linearGradient>
			<path id="path274" style="fill:url(#path274_1_);" d="M10.47,10.318c0.016-0.431-0.014-1.478-0.462-1.932
				C9.666,8.038,9.585,7.641,9.54,7.187c-3.722,1.39-4.253,3.207-3.881,3.148C8.635,9.863,9.472,9.806,10.47,10.318z"/>
			
				<linearGradient id="path281_1_" gradientUnits="userSpaceOnUse" x1="591.2155" y1="1344.5331" x2="591.2155" y2="1342.0116" gradientTransform="matrix(3.9273 1.03 1.0325 -3.9367 -3705.926 4691.7217)">
				<stop  offset="0.0562" style="stop-color:#DE7210"/>
				<stop  offset="1" style="stop-color:#F6C08F"/>
			</linearGradient>
			<path id="path281" style="fill:url(#path281_1_);" d="M2.535,12.864c0,0,0.259-3.36,1.941-4.59C5.796,7.309,4.771,7.66,4.261,7.7
				C3.723,7.742,3.437,8.069,3.54,7.949C3.544,7.944,3.546,7.941,3.545,7.94C3.528,7.919,2.283,8.963,2.535,12.864z"/>
			
				<linearGradient id="path288_1_" gradientUnits="userSpaceOnUse" x1="-199.913" y1="311.3952" x2="-200.7649" y2="310.0079" gradientTransform="matrix(4.0182 -0.3252 -0.3862 -4.7726 928.0842 1428.2515)">
				<stop  offset="0.0562" style="stop-color:#DE7210"/>
				<stop  offset="1" style="stop-color:#F2C06E"/>
			</linearGradient>
			<path id="path288" style="fill:url(#path288_1_);" d="M2.358,10.283c0,0,0.901-2.861,2.723-2.837
				c1.208,0.017,0.25-1.021-0.116-1.178C4.584,6.105,4.493,6.111,4.404,6.19C4.27,6.308,3.072,6.263,2.358,10.283z"/>
			
				<linearGradient id="path307_1_" gradientUnits="userSpaceOnUse" x1="-192.951" y1="304.4164" x2="-193.8564" y2="304.2435" gradientTransform="matrix(4.0601 0 0 -4.0698 798.8234 1251.2179)">
				<stop  offset="0.0047" style="stop-color:#FFFAEE"/>
				<stop  offset="0.2757" style="stop-color:#F5F89B"/>
				<stop  offset="0.3102" style="stop-color:#F3ED91"/>
				<stop  offset="0.4668" style="stop-color:#ECC267"/>
				<stop  offset="0.6182" style="stop-color:#E6A046"/>
				<stop  offset="0.7611" style="stop-color:#E2872E"/>
				<stop  offset="0.8921" style="stop-color:#E07820"/>
				<stop  offset="1" style="stop-color:#DF731B"/>
			</linearGradient>
			<path id="path307" style="fill:url(#path307_1_);" d="M14.646,13.084c0.137-0.135,0.042-0.649-0.82-0.962
				c-0.781-0.284-2,0.438-2.361,0.579c0,0,1.381-0.259,1.899-0.172C14.065,12.646,14.311,13.411,14.646,13.084z"/>
			
				<linearGradient id="path314_1_" gradientUnits="userSpaceOnUse" x1="-584.4332" y1="-46.0217" x2="-584.4332" y2="-48.1284" gradientTransform="matrix(4.0276 0.512 0.5132 -4.0372 2381.9531 121.0817)">
				<stop  offset="0.0562" style="stop-color:#DE7210"/>
				<stop  offset="1" style="stop-color:#F2C06E"/>
			</linearGradient>
			<path id="path314" style="fill:url(#path314_1_);" d="M3.689,12.141c0,0-0.15-2.813,1.111-4.014
				c0.99-0.943,0.178-0.541-0.24-0.453c-0.441,0.093-0.643,0.395-0.57,0.284C3.993,7.954,3.993,7.951,3.993,7.95
				C3.975,7.935,3.057,8.935,3.689,12.141z"/>
			
				<linearGradient id="path321_1_" gradientUnits="userSpaceOnUse" x1="-576.2448" y1="-28.224" x2="-576.2448" y2="-30.3305" gradientTransform="matrix(3.7856 1.4681 1.4716 -3.7947 2227.5313 745.9972)">
				<stop  offset="0.0562" style="stop-color:#DE7210"/>
				<stop  offset="1" style="stop-color:#F2C06E"/>
			</linearGradient>
			<path id="path321" style="fill:url(#path321_1_);" d="M2.718,11.247c0,0,0.532-2.766,2.046-3.628
				C5.951,6.943,5.067,7.137,4.64,7.122C4.189,7.107,3.92,7.351,4.017,7.261c0.004-0.004,0.005-0.006,0.005-0.007
				C4.01,7.235,2.878,7.984,2.718,11.247z"/>
			
				<linearGradient id="path328_1_" gradientUnits="userSpaceOnUse" x1="-232.2672" y1="282.8382" x2="-232.854" y2="281.9579" gradientTransform="matrix(3.2903 -2.3788 -2.3845 -3.2981 1443.1698 390.9066)">
				<stop  offset="0.0562" style="stop-color:#DE7210"/>
				<stop  offset="1" style="stop-color:#F2C072"/>
			</linearGradient>
			<path id="path328" style="fill:url(#path328_1_);" d="M4.515,12.382c0,0-0.291-1.676,0.336-2.501
				C5.351,9.223,4.912,9.545,4.679,9.64C4.437,9.739,4.345,9.934,4.378,9.863C4.41,9.792,3.298,10.654,4.515,12.382z"/>
			
				<linearGradient id="path335_1_" gradientUnits="userSpaceOnUse" x1="-231.9732" y1="283.1048" x2="-232.5592" y2="282.2258" gradientTransform="matrix(3.2903 -2.3788 -2.3845 -3.2981 1443.1698 390.9066)">
				<stop  offset="0.0562" style="stop-color:#DE7210"/>
				<stop  offset="1" style="stop-color:#F2C072"/>
			</linearGradient>
			<path id="path335" style="fill:url(#path335_1_);" d="M4.847,10.802c0,0-0.291-1.676,0.336-2.501
				c0.501-0.659,0.061-0.336-0.171-0.242C4.769,8.158,4.677,8.354,4.71,8.282C4.742,8.212,3.631,9.073,4.847,10.802z"/>
			
				<linearGradient id="path342_1_" gradientUnits="userSpaceOnUse" x1="-195.7628" y1="305.6422" x2="-196.0195" y2="305.163" gradientTransform="matrix(4.0601 0 0 -4.0698 798.8234 1251.2179)">
				<stop  offset="0.0562" style="stop-color:#DE7210"/>
				<stop  offset="1" style="stop-color:#EED8A5"/>
			</linearGradient>
			<path id="path342" style="fill:url(#path342_1_);" d="M3.087,8.51c0,0,0.68-1.394,1.584-1.668
				c0.722-0.219,0.225-0.216,0.002-0.27C4.441,6.516,4.269,6.611,4.331,6.576C4.393,6.541,3.112,6.584,3.087,8.51z"/>
			
				<linearGradient id="path349_1_" gradientUnits="userSpaceOnUse" x1="-195.7868" y1="305.371" x2="-196.0435" y2="304.8918" gradientTransform="matrix(4.0601 0 0 -4.0698 798.8234 1251.2179)">
				<stop  offset="0.0562" style="stop-color:#DE7210"/>
				<stop  offset="1" style="stop-color:#EED8A5"/>
			</linearGradient>
			<path id="path349" style="fill:url(#path349_1_);" d="M2.99,9.613c0,0,0.68-1.394,1.584-1.668
				c0.722-0.219,0.225-0.216,0.002-0.27C4.344,7.619,4.172,7.714,4.235,7.678C4.296,7.644,3.014,7.687,2.99,9.613z"/>
			
				<linearGradient id="path356_1_" gradientUnits="userSpaceOnUse" x1="-195.5168" y1="305.5599" x2="-195.7648" y2="304.9442" gradientTransform="matrix(4.0601 0 0 -4.0698 798.8234 1251.2179)">
				<stop  offset="0.0562" style="stop-color:#DE7210"/>
				<stop  offset="1" style="stop-color:#F2C072"/>
			</linearGradient>
			<path id="path356" style="fill:url(#path356_1_);" d="M3.483,9.309c0,0,1.2-2.458,2.795-2.942C7.551,5.98,6.675,5.985,6.282,5.89
				c-0.41-0.099-0.713,0.069-0.603,0.006C5.787,5.836,3.527,5.911,3.483,9.309z"/>
			
				<linearGradient id="path363_1_" gradientUnits="userSpaceOnUse" x1="-195.4298" y1="305.8366" x2="-196.0166" y2="304.9564" gradientTransform="matrix(4.0601 0 0 -4.0698 798.8234 1251.2179)">
				<stop  offset="0.0562" style="stop-color:#DE7210"/>
				<stop  offset="1" style="stop-color:#F2C072"/>
			</linearGradient>
			<path id="path363" style="fill:url(#path363_1_);" d="M4.303,7.985c0,0,0.746-1.529,1.738-1.831
				c0.792-0.24,0.246-0.237,0.002-0.296C5.789,5.797,5.601,5.901,5.669,5.862C5.736,5.824,4.331,5.871,4.303,7.985z"/>
			
				<linearGradient id="path370_1_" gradientUnits="userSpaceOnUse" x1="-195.3931" y1="305.6729" x2="-195.9275" y2="304.8714" gradientTransform="matrix(4.0601 0 0 -4.0698 798.8234 1251.2179)">
				<stop  offset="0.0562" style="stop-color:#DE7210"/>
				<stop  offset="1" style="stop-color:#F2C072"/>
			</linearGradient>
			<path id="path370" style="fill:url(#path370_1_);" d="M4.547,8.525c0,0,0.681-1.394,1.584-1.668
				c0.722-0.219,0.225-0.216,0.002-0.27C5.901,6.531,5.729,6.626,5.792,6.59C5.853,6.556,4.572,6.599,4.547,8.525z"/>
			
				<linearGradient id="path377_1_" gradientUnits="userSpaceOnUse" x1="-193.796" y1="305.7878" x2="-193.7536" y2="305.7122" gradientTransform="matrix(4.0601 0 0 -4.0698 798.8234 1251.2179)">
				<stop  offset="0" style="stop-color:#8B8B89"/>
				<stop  offset="1" style="stop-color:#120500"/>
			</linearGradient>
			<path id="path377" style="fill:url(#path377_1_);" d="M12.342,6.824c-0.008-0.145-0.029-0.193-0.724-0.204
				c0.08,0.036,0.217,0.108,0.368,0.232c0.2,0.164,0.232,0.346,0.253,0.536C12.307,7.259,12.356,7.081,12.342,6.824z"/>
			
				<linearGradient id="path384_1_" gradientUnits="userSpaceOnUse" x1="-195.3432" y1="306.0255" x2="-195.3432" y2="306.2572" gradientTransform="matrix(4.0601 0 0 -4.0698 798.8234 1251.2179)">
				<stop  offset="0.0562" style="stop-color:#DE7210"/>
				<stop  offset="1" style="stop-color:#F6C08F"/>
			</linearGradient>
			<path id="path384" style="fill:url(#path384_1_);" d="M8.258,4.883L7.655,5.854c0,0-2.413-0.378-4.457,1.6
				C3.029,7.617,4.535,3.955,8.258,4.883z"/>
			
				<linearGradient id="path391_1_" gradientUnits="userSpaceOnUse" x1="-192.4898" y1="307.3164" x2="-192.0043" y2="307.8837" gradientTransform="matrix(4.0568 0.1616 0.162 -4.0665 736.843 1287.5438)">
				<stop  offset="0.0562" style="stop-color:#DE7210"/>
				<stop  offset="1" style="stop-color:#F6C08F"/>
			</linearGradient>
			<path id="path391" style="fill:url(#path391_1_);" d="M6.092,6.62c0,0,0.643-1.194,1.477-1.554C7.137,5.08,6.17,5.417,6.092,6.62
				z"/>
			
				<linearGradient id="path398_1_" gradientUnits="userSpaceOnUse" x1="-195.6319" y1="305.8212" x2="-195.8882" y2="305.3427" gradientTransform="matrix(4.0601 0 0 -4.0698 798.8234 1251.2179)">
				<stop  offset="0.0562" style="stop-color:#DE7210"/>
				<stop  offset="1" style="stop-color:#EED8A5"/>
			</linearGradient>
			<path id="path398" style="fill:url(#path398_1_);" d="M3.618,7.785c0,0,0.68-1.394,1.584-1.668
				c0.721-0.219,0.225-0.216,0.002-0.27C4.973,5.791,4.8,5.886,4.863,5.851C4.925,5.816,3.643,5.859,3.618,7.785z"/>
			
				<linearGradient id="path405_1_" gradientUnits="userSpaceOnUse" x1="-189.3961" y1="311.0887" x2="-188.9224" y2="311.6424" gradientTransform="matrix(4.0381 0.4218 0.4228 -4.0478 637.939 1346.0056)">
				<stop  offset="0.0562" style="stop-color:#DE7210"/>
				<stop  offset="1" style="stop-color:#F6C08F"/>
			</linearGradient>
			<path id="path405" style="fill:url(#path405_1_);" d="M5.043,6.803c0,0,0.702-1.123,1.537-1.422
				C6.16,5.367,5.195,5.635,5.043,6.803z"/>
			
				<linearGradient id="path412_1_" gradientUnits="userSpaceOnUse" x1="-189.431" y1="310.4777" x2="-188.8616" y2="310.3997" gradientTransform="matrix(4.0434 0.3666 0.3675 -4.0531 656.0774 1332.462)">
				<stop  offset="0.0562" style="stop-color:#DE7210"/>
				<stop  offset="1" style="stop-color:#F6C08F"/>
			</linearGradient>
			<path id="path412" style="fill:url(#path412_1_);" d="M6.246,4.884c0,0-0.529,0.231-1.462-0.157l0.832,0.418L6.246,4.884z"/>
			
				<linearGradient id="path419_1_" gradientUnits="userSpaceOnUse" x1="-195.9812" y1="306.2461" x2="-195.1772" y2="306.136" gradientTransform="matrix(4.0601 0 0 -4.0698 798.8234 1251.2179)">
				<stop  offset="0.0562" style="stop-color:#DE7210"/>
				<stop  offset="1" style="stop-color:#F6C08F"/>
			</linearGradient>
			<path id="path419" style="fill:url(#path419_1_);" d="M5.991,5.032c0,0-0.705,0.273-2.062-0.133l1.161,0.462
				C5.233,5.228,5.991,5.032,5.991,5.032z"/>
			
				<linearGradient id="path426_1_" gradientUnits="userSpaceOnUse" x1="-189.3273" y1="310.5048" x2="-188.8045" y2="310.4332" gradientTransform="matrix(4.0434 0.3666 0.3675 -4.0531 656.0774 1332.462)">
				<stop  offset="0.0562" style="stop-color:#DE7210"/>
				<stop  offset="1" style="stop-color:#F6C08F"/>
			</linearGradient>
			<path id="path426" style="fill:url(#path426_1_);" d="M6.505,4.808c0,0-0.468,0.143-1.333-0.192l0.832,0.418
				C6.092,4.957,6.505,4.808,6.505,4.808z"/>
			
				<linearGradient id="path433_1_" gradientUnits="userSpaceOnUse" x1="-195.6445" y1="306.0888" x2="-196.1162" y2="306.1372" gradientTransform="matrix(4.0601 0 0 -4.0698 798.8234 1251.2179)">
				<stop  offset="0.0562" style="stop-color:#DE7210"/>
				<stop  offset="1" style="stop-color:#F6C08F"/>
			</linearGradient>
			<path id="path433" style="fill:url(#path433_1_);" d="M5.046,5.347c0,0-0.348,0.289-1.239,0.301l0.771,0.025L5.046,5.347z"/>
			
				<linearGradient id="path440_1_" gradientUnits="userSpaceOnUse" x1="-189.6163" y1="311.0363" x2="-188.9636" y2="311.7991" gradientTransform="matrix(4.0381 0.4218 0.4228 -4.0478 637.939 1346.0056)">
				<stop  offset="0.0562" style="stop-color:#DE7210"/>
				<stop  offset="1" style="stop-color:#F6C08F"/>
			</linearGradient>
			<path id="path440" style="fill:url(#path440_1_);" d="M4.2,6.824c0,0,1.19-1.551,2.17-1.902C5.876,4.906,4.377,5.452,4.2,6.824z"
				/>
		</g>
		<g id="Fire">
			
				<linearGradient id="path458_1_" gradientUnits="userSpaceOnUse" x1="-192.6474" y1="302.3914" x2="-191.3693" y2="304.3628" gradientTransform="matrix(4.0601 0 0 -4.0698 798.8234 1251.2179)">
				<stop  offset="0" style="stop-color:#DE5C01"/>
				<stop  offset="0.736" style="stop-color:#FEFD00"/>
				<stop  offset="0.7783" style="stop-color:#FEFE26"/>
				<stop  offset="0.8369" style="stop-color:#FFFE54"/>
				<stop  offset="0.889" style="stop-color:#FFFF76"/>
				<stop  offset="0.932" style="stop-color:#FFFF8B"/>
				<stop  offset="0.9607" style="stop-color:#FFFF92"/>
			</linearGradient>
			<path id="path458" style="fill:url(#path458_1_);" d="M22.635,9.468c0,0,0.129,2.877-3.867,6.873
				c-0.444,0.444-2.856,2.703-2.771,3.381C16.027,19.962,22.324,18.756,22.635,9.468z"/>
			
				<linearGradient id="path475_1_" gradientUnits="userSpaceOnUse" x1="-191.9574" y1="306.2605" x2="-192.7943" y2="306.6281" gradientTransform="matrix(4.0601 0 0 -4.0698 798.8234 1251.2179)">
				<stop  offset="0" style="stop-color:#F79A09"/>
				<stop  offset="0.736" style="stop-color:#FEFD00"/>
				<stop  offset="0.7783" style="stop-color:#FEFE26"/>
				<stop  offset="0.8369" style="stop-color:#FFFE54"/>
				<stop  offset="0.889" style="stop-color:#FFFF76"/>
				<stop  offset="0.932" style="stop-color:#FFFF8B"/>
				<stop  offset="0.9607" style="stop-color:#FFFF92"/>
			</linearGradient>
			<path id="path475" style="fill:url(#path475_1_);" d="M14.888,2.701c4.813,0.37,5.746,3.831,5.746,3.619
				C20.646,2.956,16.068,2.7,14.888,2.701z"/>
			
				<linearGradient id="path492_1_" gradientUnits="userSpaceOnUse" x1="-191.4355" y1="305.4849" x2="-192.607" y2="306.5726" gradientTransform="matrix(4.0601 0 0 -4.0698 798.8234 1251.2179)">
				<stop  offset="0" style="stop-color:#DE5C01"/>
				<stop  offset="0.736" style="stop-color:#FEFD00"/>
				<stop  offset="0.7783" style="stop-color:#FEFE26"/>
				<stop  offset="0.8369" style="stop-color:#FFFE54"/>
				<stop  offset="0.889" style="stop-color:#FFFF76"/>
				<stop  offset="0.932" style="stop-color:#FFFF8B"/>
				<stop  offset="0.9607" style="stop-color:#FFFF92"/>
			</linearGradient>
			<path id="path492" style="fill:url(#path492_1_);" d="M16.354,4.017c0,0,3.336,0.682,4.278,4.219
				c0.125,0.469-0.402-2.873-0.239-2.556C20.555,5.999,19.05,4.123,16.354,4.017z"/>
			
				<linearGradient id="path509_1_" gradientUnits="userSpaceOnUse" x1="-294.3941" y1="209.4558" x2="-294.8846" y2="209.9632" gradientTransform="matrix(4.0584 -0.1145 -0.1148 -4.0681 1239.0914 826.1917)">
				<stop  offset="0" style="stop-color:#F79A09"/>
				<stop  offset="0.736" style="stop-color:#FEFD00"/>
				<stop  offset="0.7783" style="stop-color:#FEFE26"/>
				<stop  offset="0.8369" style="stop-color:#FFFE54"/>
				<stop  offset="0.889" style="stop-color:#FFFF76"/>
				<stop  offset="0.932" style="stop-color:#FFFF8B"/>
				<stop  offset="0.9607" style="stop-color:#FFFF92"/>
			</linearGradient>
			<path id="path509" style="fill:url(#path509_1_);" d="M17.688,3.93c0,0,3.013,0.628,3.043,5.41
				c0.022,3.385,0.523,1.271,1.021,0.51c0.429-0.657,0.135-1.458,0.125-1.456c-0.002,0-0.217-0.623-0.072-0.359
				c0.006,0.012-0.202-0.172-0.201-0.172C21.638,7.858,21.488,4.427,17.688,3.93z"/>
			
				<linearGradient id="path526_1_" gradientUnits="userSpaceOnUse" x1="-191.618" y1="304.9082" x2="-191.3419" y2="305.8579" gradientTransform="matrix(4.0601 0 0 -4.0698 798.8234 1251.2179)">
				<stop  offset="0" style="stop-color:#F79A09"/>
				<stop  offset="0.736" style="stop-color:#FEFD00"/>
				<stop  offset="0.7783" style="stop-color:#FEFE26"/>
				<stop  offset="0.8369" style="stop-color:#FFFE54"/>
				<stop  offset="0.889" style="stop-color:#FFFF76"/>
				<stop  offset="0.932" style="stop-color:#FFFF8B"/>
				<stop  offset="0.9607" style="stop-color:#FFFF92"/>
			</linearGradient>
			<path id="path526" style="fill:url(#path526_1_);" d="M21.081,4.578c0,0,1.083,2.82-0.065,4.222
				c-0.374,0.457-0.416,2.802,0.042,2.587c0.459-0.216,0.359,1.244,0.298,1.411c-0.001,0.004-0.001,0.005-0.001,0.005
				C21.386,12.822,23.618,9.199,21.081,4.578z"/>
			
				<linearGradient id="path543_1_" gradientUnits="userSpaceOnUse" x1="-342.5326" y1="165.2778" x2="-342.5427" y2="166.0001" gradientTransform="matrix(4.0568 -0.1673 -0.1677 -4.0665 1437.3658 625.9496)">
				<stop  offset="0" style="stop-color:#F79A09"/>
				<stop  offset="0.736" style="stop-color:#FEFD00"/>
				<stop  offset="0.7783" style="stop-color:#FEFE26"/>
				<stop  offset="0.8369" style="stop-color:#FFFE54"/>
				<stop  offset="0.889" style="stop-color:#FFFF76"/>
				<stop  offset="0.932" style="stop-color:#FFFF8B"/>
				<stop  offset="0.9607" style="stop-color:#FFFF92"/>
			</linearGradient>
			<path id="path543" style="fill:url(#path543_1_);" d="M19.576,7.547c0,0,0.681,1.995-0.032,3.422l0.539,1.205
				C20.48,11.201,20.983,9.145,19.576,7.547z"/>
			
				<linearGradient id="path560_1_" gradientUnits="userSpaceOnUse" x1="-452.2081" y1="68.0528" x2="-451.7104" y2="69.033" gradientTransform="matrix(4.0499 -0.287 -0.2877 -4.0596 1870.5497 159.9654)">
				<stop  offset="0" style="stop-color:#F79A09"/>
				<stop  offset="0.736" style="stop-color:#FEFD00"/>
				<stop  offset="0.7783" style="stop-color:#FEFE26"/>
				<stop  offset="0.8369" style="stop-color:#FFFE54"/>
				<stop  offset="0.889" style="stop-color:#FFFF76"/>
				<stop  offset="0.932" style="stop-color:#FFFF8B"/>
				<stop  offset="0.9607" style="stop-color:#FFFF92"/>
			</linearGradient>
			<path id="path560" style="fill:url(#path560_1_);" d="M20.775,7.31c0,0,0.471,3.167-1.23,6.026
				c0.026,0.661-0.09,1.259-0.249,1.753c0.074,0.098,0.174,0.164,0.304,0.176c-0.058,0.052-0.115,0.102-0.171,0.15
				c-0.101,0.045-0.207,0.092-0.308,0.142c-0.022,0.051-0.043,0.099-0.064,0.146c0.113-0.08,0.239-0.176,0.372-0.288
				c0.348-0.154,0.66-0.273,0.66-0.273s-0.064,0.024-0.217,0.08c-0.103,0.037-0.193,0.05-0.272,0.043
				C20.914,14.066,22.713,11.391,20.775,7.31z M18.793,15.729c-0.15,0.088-0.259,0.17-0.283,0.233
				c-0.016,0.047,0.085,0.02,0.262-0.079C18.782,15.83,18.79,15.778,18.793,15.729z"/>
			
				<linearGradient id="path577_1_" gradientUnits="userSpaceOnUse" x1="-188.4261" y1="310.4243" x2="-188.3592" y2="311.5102" gradientTransform="matrix(4.0499 -0.287 -0.2877 -4.0596 870.0721 1222.8048)">
				<stop  offset="0" style="stop-color:#DE5C01"/>
				<stop  offset="0.736" style="stop-color:#FEFD00"/>
				<stop  offset="0.7783" style="stop-color:#FEFE26"/>
				<stop  offset="0.8369" style="stop-color:#FFFE54"/>
				<stop  offset="0.889" style="stop-color:#FFFF76"/>
				<stop  offset="0.932" style="stop-color:#FFFF8B"/>
				<stop  offset="0.9607" style="stop-color:#FFFF92"/>
			</linearGradient>
			<path id="path577" style="fill:url(#path577_1_);" d="M18.677,10.684c0,0,1.341,3.816-2.944,7.394
				c-0.253,0.212,1.739,0.121,1.914,0.042c0.514-0.233,1.12-1.79,1.048-1.604C18.625,16.702,20.685,13.764,18.677,10.684z"/>
			
				<linearGradient id="path608_1_" gradientUnits="userSpaceOnUse" x1="-193.8753" y1="302.5352" x2="-191.7763" y2="303.7898" gradientTransform="matrix(4.0601 0 0 -4.0698 798.8234 1251.2179)">
				<stop  offset="0" style="stop-color:#B9120D"/>
				<stop  offset="0.078" style="stop-color:#BB180D"/>
				<stop  offset="0.1822" style="stop-color:#C0290C"/>
				<stop  offset="0.3013" style="stop-color:#C8450A"/>
				<stop  offset="0.4314" style="stop-color:#D36C08"/>
				<stop  offset="0.5706" style="stop-color:#E29E05"/>
				<stop  offset="0.7151" style="stop-color:#F4DA02"/>
				<stop  offset="0.7921" style="stop-color:#FEFD00"/>
				<stop  offset="0.8136" style="stop-color:#FEFD07"/>
				<stop  offset="0.8455" style="stop-color:#FEFD1B"/>
				<stop  offset="0.8837" style="stop-color:#FEFE3C"/>
				<stop  offset="0.9268" style="stop-color:#FFFE69"/>
				<stop  offset="0.9736" style="stop-color:#FFFFA3"/>
				<stop  offset="1" style="stop-color:#FFFFC7"/>
			</linearGradient>
			<path id="path608" style="fill:url(#path608_1_);" d="M20.553,13.104c0,0-0.809,4.95-6.401,5.349
				c-2.189,0.155-5.333-0.357-5.055,0.478c0.086,0.259,0.498,1.339,1.437,1.589C13.077,21.198,19.839,20.977,20.553,13.104z"/>
		</g>
		<g id="Layer_6">
			
				<linearGradient id="path616_1_" gradientUnits="userSpaceOnUse" x1="-193.7557" y1="304.2419" x2="-191.606" y2="303.9507" gradientTransform="matrix(4.0402 0.4015 0.4025 -4.0498 671.4852 1326.3234)">
				<stop  offset="0.0562" style="stop-color:#DE7210"/>
				<stop  offset="1" style="stop-color:#F6C08F"/>
			</linearGradient>
			<path id="path616" style="fill:url(#path616_1_);" d="M15.889,16.85c0,0-3.421,0.782-5.638-1.105
				c-2.028-1.727-1.022-0.274-0.747,0.443c0.282,0.736-1.307,0.174-1.546,0.055C7.72,16.127,11.724,18.637,15.889,16.85z"/>
			
				<linearGradient id="path623_1_" gradientUnits="userSpaceOnUse" x1="-193.6234" y1="307.339" x2="-191.1275" y2="306.5546" gradientTransform="matrix(4.0174 0.5879 0.5893 -4.027 605.3558 1367.2876)">
				<stop  offset="0.0562" style="stop-color:#DE7210"/>
				<stop  offset="1" style="stop-color:#F6C08F"/>
			</linearGradient>
			<path id="path623" style="fill:url(#path623_1_);" d="M13.684,18.715c0,0-4.081-0.802-5.373-3.567
				c-1.104-2.363-0.812-0.629-0.862,0.16c-0.052,0.811-1.197-0.297-1.35-0.49c-0.004-0.005-0.007-0.008-0.007-0.006
				C6.069,14.826,8.197,18.162,13.684,18.715z"/>
			
				<linearGradient id="path630_1_" gradientUnits="userSpaceOnUse" x1="-778.6089" y1="-209.6779" x2="-777.4218" y2="-211.9507" gradientTransform="matrix(3.9939 -0.7304 -0.7322 -4.0034 2961.8484 -1393.2645)">
				<stop  offset="0.0562" style="stop-color:#DE7210"/>
				<stop  offset="1" style="stop-color:#F6C08F"/>
			</linearGradient>
			<path id="path630" style="fill:url(#path630_1_);" d="M9.226,18.358c0,0-1.949-1.511-2.828-3.581
				c-0.739-0.257-1.721-0.843-1.74-0.944C4.97,15.442,6.613,17.32,9.226,18.358z"/>
		</g>
	</g>
	<rect style="fill:none;" width="22.11" height="22.11"/>
</g>
</svg>
