<?xml version="1.0" encoding="utf-8"?>
<!-- Generator: Adobe Illustrator 25.0.0, SVG Export Plug-In . SVG Version: 6.00 Build 0)  -->
<svg version="1.1" id="Layer_1" xmlns="http://www.w3.org/2000/svg" xmlns:xlink="http://www.w3.org/1999/xlink" x="0px" y="0px"
	 viewBox="0 0 24 24" style="enable-background:new 0 0 24 24;" xml:space="preserve">
<style type="text/css">
	.st0{fill:#890C0C;}
	.st1{fill:#DB4949;}
	.st2{fill:#5B0404;}
	.st3{fill:#6D0505;}
	.st4{fill:#C12323;}
	.st5{fill:#9E1010;}
	.st6{fill:#8E1717;}
	.st7{fill:#FFFFFF;}
	.st8{font-family:'SegoeUI-Bold';}
	.st9{font-size:15px;}
</style>
<ellipse class="st0" cx="16.9" cy="10.1" rx="6" ry="2.3"/>
<ellipse class="st1" cx="16.9" cy="5.8" rx="6" ry="2.3"/>
<ellipse class="st2" cx="16.9" cy="15" rx="6" ry="2.3"/>
<path class="st3" d="M20.7,16.7c-2.5,0.7-5.2,0.7-7.7,0c-1.2-0.4-2.1-1-2.2-1.7c0,0.1,0,0.1,0,0.2v3.5c0,1.3,2.7,2.4,6.1,2.4
	s6-1.1,6-2.4v-3.5c0-0.1,0-0.1,0-0.2C22.7,15.7,21.9,16.3,20.7,16.7z"/>
<path class="st4" d="M16.9,2.8c-3.3,0-6.1,1.1-6.1,2.4v3.5c0,1.3,2.7,2.4,6.1,2.4s6-1.1,6-2.4V5.2C23,3.8,20.3,2.8,16.9,2.8z
	 M16.9,7.8c-2.7,0-4.8-0.9-4.8-1.9S14.3,4,16.9,4s4.8,0.9,4.8,1.9S19.6,7.8,16.9,7.8z"/>
<path class="st5" d="M16.7,12.3c-3.2,0-5.8-1-6-2.2c0,0.1,0,0.1,0,0.2v3.5c0,0.8,0.9,1.4,2.3,1.9c2.6,0.7,5.4,0.7,8-0.1l0,0
	c1.1-0.4,1.9-1,1.9-1.7v-3.7c0-0.1,0-0.1,0-0.2C22.5,11.3,19.9,12.3,16.7,12.3z"/>
<polygon class="st6" points="1,2.7 15.4,0 15.4,24 1,21.3 "/>
<text transform="matrix(0.7788 0 0 1 3.251 16.9736)" class="st7 st8 st9">A</text>
</svg>
