<?xml version="1.0" encoding="utf-8"?>
<!-- Generator: Adobe Illustrator 25.0.0, SVG Export Plug-In . SVG Version: 6.00 Build 0)  -->
<svg version="1.1" id="Layer_1" xmlns="http://www.w3.org/2000/svg" xmlns:xlink="http://www.w3.org/1999/xlink" x="0px" y="0px"
	 viewBox="0 0 20 20" style="enable-background:new 0 0 20 20;" xml:space="preserve">
<style type="text/css">
	.st0{fill:#A8A240;}
	.st1{fill:#40875E;}
	.st2{fill:#606060;}
	.st3{fill:#F0AB00;}
</style>
<g>
	<path class="st0" d="M18.1,1.8H1.9C1,1.8,0.3,2.4,0.3,3.3v2.3h19.3V3.3C19.6,2.4,18.9,1.8,18.1,1.8z M2.5,4.2C2.2,4.2,2,4,2,3.7
		c0-0.3,0.2-0.5,0.5-0.5c0.3,0,0.5,0.2,0.5,0.5C3.1,4,2.8,4.2,2.5,4.2z M4.5,4.2C4.2,4.2,4,4,4,3.7c0-0.3,0.2-0.5,0.5-0.5
		s0.5,0.2,0.5,0.5C5.1,4,4.8,4.2,4.5,4.2z M6.5,4.2C6.2,4.2,5.9,4,5.9,3.7c0-0.3,0.2-0.5,0.5-0.5C6.8,3.1,7,3.4,7,3.7
		C7,4,6.8,4.2,6.5,4.2z"/>
	<g>
		<path class="st1" d="M14.1,17.3H1.7c-1,0-1.7-0.8-1.7-1.7V3.2c0-1,0.8-1.7,1.7-1.7h16.5c1,0,1.7,0.8,1.7,1.7v10.2h-0.6V3.2
			c0-0.6-0.5-1.1-1.1-1.1H1.7c-0.6,0-1.1,0.5-1.1,1.1v12.4c0,0.6,0.5,1.1,1.1,1.1h12.4V17.3z"/>
	</g>
	<g>
		<rect x="0.3" y="5.3" class="st1" width="19.3" height="0.6"/>
	</g>
	<path class="st2" d="M2.5,3.1C2.2,3.1,2,3.4,2,3.7C2,4,2.2,4.2,2.5,4.2c0.3,0,0.5-0.2,0.5-0.5C3.1,3.4,2.8,3.1,2.5,3.1z"/>
	<path class="st2" d="M4.5,3.1C4.2,3.1,4,3.4,4,3.7C4,4,4.2,4.2,4.5,4.2S5.1,4,5.1,3.7C5.1,3.4,4.8,3.1,4.5,3.1z"/>
	<path class="st2" d="M6.5,3.1c-0.3,0-0.5,0.2-0.5,0.5c0,0.3,0.2,0.5,0.5,0.5C6.8,4.2,7,4,7,3.7C7,3.4,6.8,3.1,6.5,3.1z"/>
	<path class="st3" d="M8.3,11.4H2.4C2.2,11.4,2,11.2,2,11V7.8c0-0.2,0.2-0.4,0.4-0.4h5.9c0.2,0,0.4,0.2,0.4,0.4V11
		C8.7,11.2,8.5,11.4,8.3,11.4z"/>
	<g>
		<path class="st3" d="M8.8,13.3H2.3C2.1,13.3,2,13.2,2,13s0.1-0.3,0.3-0.3h6.5c0.2,0,0.3,0.1,0.3,0.3S8.9,13.3,8.8,13.3z"/>
	</g>
	<g>
		<path class="st3" d="M6.4,14.9H2.3c-0.2,0-0.3-0.1-0.3-0.3c0-0.2,0.1-0.3,0.3-0.3h4.1c0.2,0,0.3,0.1,0.3,0.3
			C6.7,14.7,6.6,14.9,6.4,14.9z"/>
	</g>
	<path class="st0" d="M15.8,10.2h-3.4c-0.4,0-0.7-0.3-0.7-0.7V9.1c0-0.4,0.3-0.7,0.7-0.7h3.4c0.4,0,0.7,0.3,0.7,0.7v0.4
		C16.5,9.9,16.2,10.2,15.8,10.2z"/>
	<g>
		<path class="st1" d="M13.2,13.2c0,0,0-0.1,0-0.1c0-1,0-2,0-2.9c0-0.5,0.3-0.9,0.8-1.1c0.7-0.2,1.4,0.2,1.4,0.9c0,0.6,0,1.1,0,1.7
			c0,0.1,0,0.2,0,0.4c0.4-0.1,0.8-0.1,1.2,0.2c0.7-0.6,1.5-0.3,1.8,0.4c0.1,0,0.3-0.1,0.4-0.1c0.6-0.1,1.2,0.4,1.2,1.1
			c0,0.1,0,0.2,0,0.3c0,0.2-0.2,0.3-0.3,0.3c-0.2,0-0.3-0.1-0.3-0.3c0-0.1,0-0.2,0-0.3c0-0.3-0.2-0.5-0.4-0.5
			c-0.2,0-0.4,0.2-0.4,0.4c0,0.2,0,0.3,0,0.5c0,0.2-0.1,0.4-0.3,0.4c-0.2,0-0.3-0.2-0.3-0.4c0-0.4,0-0.8,0-1.2
			c0-0.2-0.1-0.3-0.3-0.4c-0.2-0.1-0.4,0-0.5,0.1c-0.1,0.1-0.1,0.2-0.1,0.3c0,0.4,0,0.7,0,1.1c0,0.1,0,0.3-0.2,0.3
			c-0.2,0.1-0.5,0-0.5-0.3c0-0.4,0-0.7,0-1.1c0-0.1,0-0.1,0-0.2c0-0.2-0.2-0.3-0.4-0.3c-0.2,0-0.4,0.2-0.4,0.4c0,0.2,0,0.4,0,0.5
			c0,0.2,0,0.5,0,0.7c0,0.2-0.1,0.3-0.3,0.3c-0.2,0-0.3-0.1-0.4-0.3c0-0.1,0-0.1,0-0.2c0-1.3,0-2.6,0-4c0-0.1,0-0.2,0-0.3
			c-0.1-0.2-0.3-0.3-0.5-0.2c-0.2,0-0.3,0.2-0.3,0.4c0,0.1,0,0.1,0,0.2c0,1.6,0,3.2,0,4.9c0,0.8,0.3,1.5,0.9,2.1
			c0.5,0.5,1.2,0.8,2,0.7c0.7,0,1.2-0.2,1.7-0.7c0.5-0.5,0.8-1,0.9-1.7c0-0.1,0-0.1,0-0.2c0-0.2,0.2-0.3,0.3-0.3
			c0.2,0,0.3,0.1,0.3,0.3c0,0.5-0.1,0.9-0.3,1.3c-0.6,1.2-1.6,1.8-2.9,1.9c-1.1,0.1-2.1-0.4-2.8-1.2c-0.1-0.1-0.2-0.2-0.3-0.2
			c-0.3-0.1-0.5-0.3-0.7-0.5c-0.5-0.5-0.8-1.1-1-1.8c-0.1-0.3-0.1-0.6,0-0.9c0.2-0.5,0.5-0.7,1-0.7C13.1,13.3,13.1,13.2,13.2,13.2
			C13.2,13.2,13.2,13.2,13.2,13.2z M13.2,13.9c-0.3,0-0.5,0.1-0.5,0.4c0,0.1,0,0.2,0,0.4c0.1,0.4,0.3,0.8,0.5,1.1c0,0,0,0,0,0.1
			C13.2,15.2,13.2,14.6,13.2,13.9z"/>
	</g>
</g>
</svg>
