<?xml version="1.0" encoding="utf-8"?>
<!-- Generator: Adobe Illustrator 25.0.0, SVG Export Plug-In . SVG Version: 6.00 Build 0)  -->
<svg version="1.1" id="Layer_1" xmlns="http://www.w3.org/2000/svg" xmlns:xlink="http://www.w3.org/1999/xlink" x="0px" y="0px"
	 viewBox="0 0 20 20" style="enable-background:new 0 0 20 20;" xml:space="preserve">
<style type="text/css">
	.st0{fill:#FFFFFF;}
	.st1{fill:#40875E;}
	.st2{fill:#F0AB00;}
	.st3{fill:#A8A240;}
</style>
<path class="st1" d="M9,8.2c0,0.4,0.3,0.7,0.9,1V7.2c-0.2,0-0.4,0.1-0.5,0.3C9.1,7.6,9,7.9,9,8.2z"/>
<path class="st1" d="M10.3,10.6v2.1c0.2-0.1,0.3-0.1,0.5-0.3c0.3-0.2,0.4-0.5,0.4-0.8C11.2,11.2,10.9,10.8,10.3,10.6z"/>
<path class="st1" d="M10.1,4c-3.3,0-6,2.7-6,6c0,3.3,2.7,6,6,6c3.3,0,6-2.7,6-6C16.1,6.7,13.4,4,10.1,4z M11.3,12.7
	c-0.3,0.2-0.6,0.4-1,0.4V14H9.9v-0.8c-0.1,0-0.1,0-0.2,0c-0.3,0-0.6,0-0.9-0.1c-0.3-0.1-0.6-0.2-0.8-0.3c0.1-0.2,0.1-0.3,0.2-0.5
	c0.1-0.2,0.1-0.3,0.1-0.5h0.1c0.2,0.3,0.4,0.5,0.7,0.7c0.3,0.2,0.5,0.3,0.8,0.3v-2.4c-0.1,0-0.1,0-0.2-0.1c-1-0.3-1.5-0.8-1.5-1.6
	c0-0.6,0.2-1.1,0.6-1.4C9.1,7,9.4,6.8,9.9,6.8V6.1h0.4v0.7c0.3,0,0.6,0,0.8,0.1c0.3,0.1,0.5,0.2,0.6,0.2c-0.1,0.3-0.2,0.6-0.3,0.9
	h-0.1c-0.1-0.2-0.2-0.4-0.4-0.6c-0.2-0.1-0.3-0.2-0.5-0.2v2.3c0.1,0,0.1,0.1,0.2,0.1c1,0.3,1.5,0.9,1.5,1.6
	C12.1,11.8,11.8,12.3,11.3,12.7z"/>
<path class="st2" d="M20,16.4l-3.7-3.7v1.7h-1.5c-1,1.1-2.4,1.9-3.9,2.1v2h5.4v1.7L20,16.4z"/>
<path class="st3" d="M9.1,3.7V1.6H3.7v-1.7L0,3.6l3.7,3.7V5.6h1.7C6.3,4.6,7.6,3.9,9.1,3.7z"/>
</svg>
