<?xml version="1.0" encoding="utf-8"?>
<!-- Generator: Adobe Illustrator 25.0.0, SVG Export Plug-In . SVG Version: 6.00 Build 0)  -->
<svg version="1.1" id="Layer_1" xmlns="http://www.w3.org/2000/svg" xmlns:xlink="http://www.w3.org/1999/xlink" x="0px" y="0px"
	 viewBox="0 0 36 36" style="enable-background:new 0 0 36 36;" xml:space="preserve">
<style type="text/css">
	.st0{fill:#CB1618;}
	.st1{fill:#185ABD;}
	.st2{fill:#D83039;}
	.st3{fill:#103F91;}
	.st4{fill:#185C37;}
	.st5{fill:#33C481;}
	.st6{fill:#107C41;}
	.st7{fill:#21A366;}
	.st8{fill:#0B4A99;}
	.st9{fill:none;}
	.st10{fill:#FFFFFF;}
	.st11{fill:#41A5EE;}
	.st12{fill:#2B7CD3;}
	.st13{opacity:0.5;enable-background:new    ;}
	.st14{fill:url(#SVGID_1_);}
	.st15{fill:url(#SVGID_2_);}
	.st16{fill:url(#SVGID_3_);}
	.st17{fill:url(#SVGID_4_);}
	.st18{fill:#E24951;}
	.st19{fill-rule:evenodd;clip-rule:evenodd;}
	.st20{fill:#262625;}
	.st21{fill:none;stroke:#000000;stroke-width:0.75;stroke-miterlimit:10;}
	.st22{fill:none;stroke:#000000;stroke-width:1.2;stroke-miterlimit:10;}
	.st23{fill-rule:evenodd;clip-rule:evenodd;fill:#0B4A99;}
</style>
<g>
	<g>
		<path class="st8" d="M14.4,34.8C11.5,34.6,9.8,34,9.7,34c-3.1-1-4.8-2.4-5.1-4l1.6-0.3c0.2,1,1.6,2,4,2.8c0,0,1.7,0.5,4.4,0.8
			L14.4,34.8z"/>
	</g>
	<g>
		<path class="st8" d="M18,11.4c-6.7,0-13.4-2-13.4-5.7C4.6,2,11.3,0,18,0s13.4,2,13.4,5.7C31.4,9.5,24.7,11.4,18,11.4z M18,1.6
			c-7.1,0-11.8,2.1-11.8,4.1c0,2,4.7,4.1,11.8,4.1s11.8-2.1,11.8-4.1C29.8,3.7,25.1,1.6,18,1.6z"/>
	</g>
	<g>
		<path class="st8" d="M18.2,22.8c-7.4,0-13-2.1-13.7-5.2l1.6-0.3c0.4,1.9,5.2,3.9,12.1,3.9V22.8z"/>
	</g>
	<g>
		<path class="st8" d="M17.5,22.8v-1.6c6.9,0,11.7-2,12.1-3.9l1.6,0.3C30.5,20.7,24.9,22.8,17.5,22.8z"/>
	</g>
	<g>
		<rect x="25" y="26.7" class="st8" width="1.7" height="9.3"/>
	</g>
	<g>
		<rect x="21.1" y="30.5" class="st8" width="9.3" height="1.7"/>
	</g>
</g>
</svg>
