<?xml version="1.0" encoding="utf-8"?>
<!-- Generator: Adobe Illustrator 25.0.0, SVG Export Plug-In . SVG Version: 6.00 Build 0)  -->
<svg version="1.1" id="Layer_1" xmlns="http://www.w3.org/2000/svg" xmlns:xlink="http://www.w3.org/1999/xlink" x="0px" y="0px"
	 viewBox="0 0 36 36" style="enable-background:new 0 0 36 36;" xml:space="preserve">
<style type="text/css">
	.st0{fill:#CB1618;}
	.st1{fill:#185ABD;}
	.st2{fill:#D83039;}
	.st3{fill:#103F91;}
	.st4{fill:#185C37;}
	.st5{fill:#33C481;}
	.st6{fill:#107C41;}
	.st7{fill:#21A366;}
	.st8{fill:#0B4A99;}
	.st9{fill:none;}
	.st10{fill:#FFFFFF;}
	.st11{fill:#41A5EE;}
	.st12{fill:#2B7CD3;}
	.st13{opacity:0.5;enable-background:new    ;}
	.st14{fill:url(#SVGID_1_);}
	.st15{fill:url(#SVGID_2_);}
	.st16{fill:url(#SVGID_3_);}
	.st17{fill:url(#SVGID_4_);}
	.st18{fill:#E24951;}
	.st19{fill-rule:evenodd;clip-rule:evenodd;}
	.st20{fill:#262625;}
	.st21{fill:none;stroke:#000000;stroke-width:0.75;stroke-miterlimit:10;}
	.st22{fill:none;stroke:#000000;stroke-width:1.2;stroke-miterlimit:10;}
	.st23{fill-rule:evenodd;clip-rule:evenodd;fill:#0B4A99;}
</style>
<rect x="19.5" y="29" class="st8" width="12" height="1.5"/>
<rect x="24.7" y="23.8" class="st8" width="1.5" height="12"/>
<path class="st8" d="M17.3,10C11.1,10,4.7,8.3,4.7,5.1c0-3.2,6.3-4.9,12.5-4.9s12.5,1.7,12.5,4.9C29.8,8.3,23.5,10,17.3,10z
	 M17.3,1.6c-6.6,0-11,1.8-11,3.5c0,1.7,4.4,3.5,11,3.5s11-1.8,11-3.5C28.3,3.4,23.9,1.6,17.3,1.6z"/>
<path class="st8" d="M17.6,17.7c-6.9,0-12.2-1.8-12.9-4.5l1.5-0.3c0.4,1.6,4.9,3.4,11.4,3.4V17.7z"/>
<path class="st8" d="M16.9,17.7v-1.4c6.5,0,11-1.8,11.4-3.4l1.5,0.3C29.2,15.8,23.9,17.7,16.9,17.7z"/>
<path class="st8" d="M17.6,26.3c-6.9,0-12.2-1.8-12.9-4.5l1.5-0.3c0.4,1.6,4.9,3.4,11.4,3.4V26.3z"/>
<rect x="4.8" y="5.3" class="st8" width="1.5" height="10.1"/>
<rect x="28.3" y="5.6" class="st8" width="1.5" height="9.8"/>
<rect x="4.8" y="14.3" class="st8" width="1.5" height="11.9"/>
<rect x="28.3" y="15.3" class="st8" width="1.5" height="6.7"/>
<path class="st8" d="M17.6,34.6c-6.9,0-12.2-1.8-12.9-4.5l1.5-0.3c0.4,1.6,4.9,3.4,11.4,3.4V34.6z"/>
<rect x="4.8" y="24.7" class="st8" width="1.5" height="5.7"/>
</svg>
