<?xml version="1.0" encoding="utf-8"?>
<!-- Generator: Adobe Illustrator 25.0.0, SVG Export Plug-In . SVG Version: 6.00 Build 0)  -->
<svg version="1.1" id="Layer_1" xmlns="http://www.w3.org/2000/svg" xmlns:xlink="http://www.w3.org/1999/xlink" x="0px" y="0px"
	 viewBox="0 0 36 36" style="enable-background:new 0 0 36 36;" xml:space="preserve">
<style type="text/css">
	.st0{fill:#CB1618;}
	.st1{fill:#185ABD;}
	.st2{fill:#D83039;}
	.st3{fill:#103F91;}
	.st4{fill:#185C37;}
	.st5{fill:#33C481;}
	.st6{fill:#107C41;}
	.st7{fill:#21A366;}
	.st8{fill:#0B4A99;}
	.st9{fill:none;}
	.st10{fill:#FFFFFF;}
	.st11{fill:#41A5EE;}
	.st12{fill:#2B7CD3;}
	.st13{opacity:0.5;enable-background:new    ;}
	.st14{fill:url(#SVGID_1_);}
	.st15{fill:url(#SVGID_2_);}
	.st16{fill:url(#SVGID_3_);}
	.st17{fill:url(#SVGID_4_);}
	.st18{fill:#E24951;}
	.st19{fill-rule:evenodd;clip-rule:evenodd;}
	.st20{fill:#262625;}
	.st21{fill:none;stroke:#000000;stroke-width:0.75;stroke-miterlimit:10;}
	.st22{fill:none;stroke:#000000;stroke-width:1.2;stroke-miterlimit:10;}
	.st23{fill-rule:evenodd;clip-rule:evenodd;fill:#0B4A99;}
	.st24{fill:none;stroke:#0071C5;stroke-width:1.3;stroke-linecap:round;stroke-miterlimit:10;}
	.st25{fill:none;stroke:#F0AB00;stroke-width:1.3;stroke-miterlimit:10;}
	.st26{fill:#1C55A6;}
	.st27{fill:none;stroke:#1C55A6;stroke-width:1.3;stroke-linecap:round;}
	.st28{fill-rule:evenodd;clip-rule:evenodd;fill:none;stroke:#1C55A6;stroke-width:1.3;stroke-linecap:round;}
	.st29{fill:none;stroke:#1C55A6;stroke-width:1.3;stroke-linecap:round;stroke-miterlimit:10;}
	.st30{fill:none;stroke:#231F20;}
	.st31{fill:none;stroke:#0B4A99;stroke-width:1.3;stroke-miterlimit:10;}
</style>
<g>
	<g>
		<g>
			<path class="st8" d="M33.4,36H3.3c-1.5,0-2.8-1.2-2.8-2.8V1.5c0-0.4,0.1-0.7,0.4-1C1.2,0.2,1.6,0,2,0h22.9l7.3,7v26.8
				c0,0.1,0,0.2,0.1,0.3c0.2,0.4,0.5,0.6,1.1,0.6V36z M2,1.3c-0.1,0-0.2,0-0.2,0.1c0,0-0.1,0.1-0.1,0.1l0,31.7
				c0,0.8,0.7,1.5,1.5,1.5h27.9c0-0.1-0.1-0.1-0.1-0.2C31,34.3,31,34,31,33.8V7.5l-6.6-6.3H2z"/>
		</g>
		<g>
			<path class="st8" d="M24.9,8L24.9,8c-0.5,0-1-0.4-1-1V0.4l0.8-0.3l0.3,0.3L32,6.7c0.2,0.2,0.3,0.5,0.2,0.8
				c-0.1,0.3-0.4,0.4-0.7,0.4L24.9,8z M25.2,2.2v4.6l4.9-0.1L25.2,2.2z M31.5,6.7C31.5,6.7,31.5,6.7,31.5,6.7L31.5,6.7L31.5,6.7z"/>
		</g>
		<g>
			<path class="st8" d="M33.2,36c-1.3,0-2.3-1-2.3-2.3V7.6l-4.2-4.1h7.2c0.9,0,1.6,0.7,1.6,1.6v28.6c0,0.6-0.2,1.2-0.6,1.6
				C34.5,35.7,33.8,36,33.2,36z M32.2,7.5v26.2c0,0.6,0.5,1,1,1c0.3,0,0.6-0.1,0.8-0.3c0.2-0.2,0.3-0.5,0.3-0.7l0-28.6
				c0-0.2-0.2-0.4-0.4-0.4h-4.1l2,1.9h0.1l0.4,0.6L32.2,7.5z"/>
		</g>
		<g>
			<rect x="5" y="3.5" class="st8" width="6.9" height="1.3"/>
		</g>
		<g>
			<rect x="5" y="6.2" class="st8" width="16.2" height="1.3"/>
		</g>
		<g>
			<rect x="16.9" y="23.8" class="st8" width="11.8" height="1.3"/>
		</g>
		<g>
			<rect x="16.9" y="27" class="st8" width="11.8" height="1.3"/>
		</g>
		<g>
			<rect x="16.9" y="30.2" class="st8" width="11.8" height="1.3"/>
		</g>
		<g>
			<rect x="3.8" y="18.7" class="st8" width="24.7" height="1.3"/>
		</g>
		<g>
			<rect x="14.3" y="3.5" class="st8" width="6.9" height="1.3"/>
		</g>
		<g>
			<path class="st8" d="M13.8,32.4H3.7v-9.8h10.1V32.4z M5,31.1h7.6v-7.3H5V31.1z"/>
		</g>
	</g>
	<g>
		<g>
			<path class="st8" d="M9.6,11v5.8H8.8l-3.1-4.6v4.6H5V11h0.8l3.1,4.6V11H9.6z"/>
		</g>
		<g>
			<path class="st8" d="M14,11.6h-2.4v1.9h2.1v0.6h-2.1v2H14v0.6h-3.1V11H14V11.6z"/>
		</g>
		<g>
			<path class="st8" d="M14.7,11h0.8l1.3,4.9l1.4-4.9H19l1.3,4.9l1.3-4.9h0.8l-1.7,5.8h-0.9l-1.4-4.7l-1.4,4.7l-0.8,0L14.7,11z"/>
		</g>
		<g>
			<path class="st8" d="M25.1,16.9c-1.2,0-2-0.7-2-1.6h0.8c0,0.5,0.4,1,1.2,1c0.7,0,1.2-0.4,1.2-1c0-1.6-3.1-0.6-3.1-2.7
				c0-1,0.8-1.6,1.9-1.6c1.1,0,1.8,0.6,1.9,1.5h-0.8c-0.1-0.4-0.4-0.8-1.1-0.8c-0.6,0-1.1,0.3-1.1,0.9c0,1.5,3.1,0.6,3.1,2.7
				C27.1,16,26.4,16.9,25.1,16.9z"/>
		</g>
	</g>
</g>
</svg>
