<?xml version="1.0" encoding="utf-8"?>
<!-- Generator: Adobe Illustrator 25.0.0, SVG Export Plug-In . SVG Version: 6.00 Build 0)  -->
<svg version="1.1" id="Layer_1" xmlns="http://www.w3.org/2000/svg" xmlns:xlink="http://www.w3.org/1999/xlink" x="0px" y="0px"
	 viewBox="0 0 36 36" style="enable-background:new 0 0 36 36;" xml:space="preserve">
<style type="text/css">
	.st0{fill:#CB1618;}
	.st1{fill:#185ABD;}
	.st2{fill:#D83039;}
	.st3{fill:#103F91;}
	.st4{fill:#185C37;}
	.st5{fill:#33C481;}
	.st6{fill:#107C41;}
	.st7{fill:#21A366;}
	.st8{fill:#0B4A99;}
	.st9{fill:none;}
	.st10{fill:#FFFFFF;}
	.st11{fill:#41A5EE;}
	.st12{fill:#2B7CD3;}
	.st13{opacity:0.5;enable-background:new    ;}
	.st14{fill:url(#SVGID_1_);}
	.st15{fill:url(#SVGID_2_);}
	.st16{fill:url(#SVGID_3_);}
	.st17{fill:url(#SVGID_4_);}
	.st18{fill:#E24951;}
	.st19{fill-rule:evenodd;clip-rule:evenodd;}
	.st20{fill:#262625;}
	.st21{fill:none;stroke:#000000;stroke-width:0.75;stroke-miterlimit:10;}
	.st22{fill:none;stroke:#000000;stroke-width:1.2;stroke-miterlimit:10;}
	.st23{fill-rule:evenodd;clip-rule:evenodd;fill:#0B4A99;}
	.st24{fill:none;stroke:#0071C5;stroke-width:1.3;stroke-linecap:round;stroke-miterlimit:10;}
	.st25{fill:none;stroke:#F0AB00;stroke-width:1.3;stroke-miterlimit:10;}
	.st26{fill:#1C55A6;}
	.st27{fill:none;stroke:#1C55A6;stroke-width:1.3;stroke-linecap:round;}
	.st28{fill-rule:evenodd;clip-rule:evenodd;fill:none;stroke:#1C55A6;stroke-width:1.3;stroke-linecap:round;}
	.st29{fill:none;stroke:#1C55A6;stroke-width:1.3;stroke-linecap:round;stroke-miterlimit:10;}
	.st30{fill:none;stroke:#231F20;}
	.st31{fill:none;stroke:#0B4A99;stroke-width:1.3;stroke-miterlimit:10;}
</style>
<g>
	<g>
		<path class="st8" d="M17.8,11.7c-4.6,0-9.2-0.6-13.8-1.8l0.3-1.1c8.9,2.4,18.1,2.4,27.2,0l0.3,1.1C27.1,11.1,22.5,11.7,17.8,11.7z
			"/>
	</g>
	<g>
		<path class="st8" d="M31.5,27.6c-9.1-2.4-18.3-2.4-27.2,0L4,26.4c9.1-2.4,18.4-2.4,27.8,0L31.5,27.6z"/>
	</g>
	<g>
		<path class="st8" d="M17.4,34.9c-7.1-0.2-13.4-4.9-15.5-11.7l-0.2-0.7h7.6l0.1,0.5c1.2,6.3,4.4,10.6,8.1,10.9L17.4,34.9z
			 M3.3,23.6c1.7,4.5,5.4,8,9.9,9.4c-2.2-2-4-5.3-4.8-9.4H3.3z"/>
	</g>
	<g>
		<path class="st8" d="M9.2,14.2H1.5l0.2-0.7C3.7,6.3,10,1.4,17.4,1.1l0.1,1.1c-3.8,0.2-7.2,4.9-8.2,11.5L9.2,14.2z M3.1,13.1h5.2
			c0.8-4.4,2.6-8,4.9-10C8.4,4.5,4.6,8.2,3.1,13.1z"/>
	</g>
	<g>
		<path class="st8" d="M18,34.9l-0.1,0c0,0,0,0,0,0l0-1.1c3.8-0.1,7.1-4.4,8.3-10.9l0.1-0.5h8.1l-0.2,0.7
			C31.9,30.2,25.4,34.9,18,34.9z M27.2,23.6c-0.9,4.3-2.7,7.7-5.1,9.6c4.8-1.3,8.8-4.8,10.6-9.6H27.2z"/>
	</g>
	<g>
		<path class="st8" d="M34.5,14.2h-8.1l-0.1-0.5C25.2,7,21.8,2.3,17.9,2.3l0-1.1l0.1,0c7.6,0,14.3,5.1,16.3,12.4L34.5,14.2z
			 M27.3,13.1H33c-1.7-5-5.8-8.8-10.7-10.2C24.7,4.8,26.5,8.5,27.3,13.1z"/>
	</g>
	<g>
		<path class="st8" d="M17.5,2.3l0-0.6h-0.3l0.3,0l0-0.6l0.1,0c0.1,0,0.2,0,0.2,0h0.6v1.1L17.5,2.3C17.5,2.3,17.5,2.3,17.5,2.3
			L17.5,2.3z"/>
	</g>
	<g>
		<polygon class="st8" points="17.8,2.3 17.2,2.3 17.2,1.1 17.8,1.1 17.9,1.1 17.9,1.7 18.4,1.7 17.9,1.7 17.9,2 17.9,2.3 		"/>
	</g>
	<g>
		<polygon class="st8" points="17.9,34.9 17.3,34.9 17.2,34.3 17.2,33.7 17.8,33.8 17.9,33.7 17.9,34.3 18.4,34.3 17.9,34.3 		"/>
	</g>
	<g>
		<path class="st8" d="M17.8,34.9c-0.1,0-0.2,0-0.2,0l-0.1,0l0-0.5h-0.3l0.3,0l0-0.6l0,0c0,0,0,0,0,0l0.8,0v1.1L17.8,34.9z"/>
	</g>
	<g>
		<path class="st8" d="M18.4,14.2H8l0.1-0.7C9.3,6.4,13,1.4,17.4,1.1l0.1,0c0.1,0,0.1,0,0.2,0l0.6,0V14.2z M9.4,13.1h7.8V2.3
			C13.7,2.7,10.5,7,9.4,13.1z"/>
	</g>
	<g>
		<path class="st8" d="M17.8,34.9l-0.6,0l0-0.5V22.4h10.2l-0.1,0.7C26,30.1,22.2,34.8,17.8,34.9L17.8,34.9z M18.4,23.6v10.2
			c3.5-0.4,6.5-4.4,7.7-10.2H18.4z"/>
	</g>
	<g>
		<path class="st8" d="M27.5,14.2H17.2V1.1l0.7,0c4.5,0.1,8.4,5.1,9.6,12.4L27.5,14.2z M18.4,13.1h7.8C25,7,21.9,2.7,18.4,2.3V13.1z
			"/>
	</g>
	<g>
		<path class="st8" d="M18.4,34.9l-0.6,0c-0.1,0-0.1,0-0.2,0l-0.1,0c-4.3-0.2-8-5-9.2-11.8l-0.1-0.7h10.2V34.9z M9.5,23.6
			c1.2,5.8,4.3,9.7,7.7,10.1V23.6H9.5z"/>
	</g>
	<g>
		<g>
			<path class="st8" d="M10.7,15v6.4H9.8l-3.4-5.1v5.1H5.6V15h0.8l3.4,5.1V15H10.7z"/>
		</g>
		<g>
			<path class="st8" d="M15.5,15.7h-2.6v2.1h2.3v0.7h-2.3v2.2h2.6v0.7h-3.5V15h3.5V15.7z"/>
		</g>
		<g>
			<path class="st8" d="M16.3,15.1h0.9l1.4,5.4l1.5-5.4h0.9l1.5,5.4l1.4-5.4h0.9L23,21.5h-0.9l-1.5-5.2L19,21.5l-0.9,0L16.3,15.1z"
				/>
		</g>
		<g>
			<path class="st8" d="M27.8,21.5c-1.3,0-2.2-0.7-2.2-1.8h0.9c0.1,0.5,0.4,1.1,1.3,1.1c0.8,0,1.3-0.5,1.3-1.1c0-1.7-3.5-0.6-3.5-3
				c0-1.1,0.9-1.8,2.1-1.8c1.2,0,2,0.7,2.1,1.6H29c-0.1-0.4-0.5-0.9-1.2-0.9c-0.7,0-1.2,0.3-1.2,1c0,1.7,3.5,0.6,3.5,3
				C30,20.6,29.2,21.5,27.8,21.5z"/>
		</g>
	</g>
	<g>
		<path class="st8" d="M35.2,23.6H0.8c-0.3,0-0.6-0.2-0.7-0.5c-0.1-0.3-0.1-0.7,0.1-0.9l3.1-3.9l-2.8-3.9c-0.2-0.3-0.2-0.6-0.1-0.9
			c0.1-0.3,0.4-0.5,0.7-0.5h34c0.3,0,0.6,0.2,0.7,0.4c0.2,0.3,0.2,0.6,0,0.9l-2.3,4l2.3,3.9c0.2,0.3,0.2,0.6,0,0.9
			C35.7,23.4,35.5,23.6,35.2,23.6z M1.5,22.4h33.2l-2.1-3.6c-0.2-0.3-0.2-0.6,0-0.9l2.1-3.7H1.8l2.6,3.6c0.2,0.3,0.2,0.7,0,1
			L1.5,22.4z M3.4,18.5C3.4,18.5,3.4,18.5,3.4,18.5L3.4,18.5z"/>
	</g>
</g>
</svg>
