<?xml version="1.0" encoding="utf-8"?>
<!-- Generator: Adobe Illustrator 25.0.0, SVG Export Plug-In . SVG Version: 6.00 Build 0)  -->
<svg version="1.1" id="Layer_1" xmlns="http://www.w3.org/2000/svg" xmlns:xlink="http://www.w3.org/1999/xlink" x="0px" y="0px"
	 viewBox="0 0 36 36" style="enable-background:new 0 0 36 36;" xml:space="preserve">
<style type="text/css">
	.st0{fill:#084DBC;}
	.st1{fill:#04318C;}
	.st2{fill:url(#SVGID_1_);}
	.st3{fill:#0B4A99;}
</style>
<g>
	<g>
		<path class="st3" d="M29.29,26.13c-0.31,0-0.58-0.25-0.59-0.56c-0.01-0.32,0.24-0.6,0.56-0.61c3.12-0.13,5.56-2.56,5.56-5.53
			c0-3.05-2.55-5.53-5.68-5.53h-0.57l-0.02-0.57c-0.13-3.59-2.14-7.45-6.26-7.45c-5.52,0-6.94,3.53-7.29,5.63l-0.03,0.19l-0.13,0.13
			c-0.25,0.25-0.51,0.2-1,0.11c-1.15-0.21-3.84-0.69-5.88,1.08c-0.85,0.74-1.43,1.85-1.55,2.97l-0.06,0.55l-0.55-0.03
			c-1.27-0.07-2.45,0.36-3.33,1.2c-0.84,0.79-1.29,1.87-1.29,3.02c0,2.29,1.93,4.22,4.22,4.22h4.9c0.33,0,0.59,0.26,0.59,0.59
			s-0.26,0.59-0.59,0.59H5.4c-2.93,0-5.4-2.47-5.4-5.4c0-1.48,0.59-2.86,1.66-3.87c0.99-0.94,2.28-1.47,3.67-1.53
			c0.26-1.23,0.92-2.38,1.86-3.2c2.4-2.1,5.49-1.6,6.76-1.37c0.51-2.18,2.26-6.06,8.34-6.06c4.68,0,7.07,4.07,7.4,8.03
			c3.52,0.28,6.3,3.17,6.3,6.69c0,3.6-2.94,6.55-6.68,6.71C29.31,26.13,29.3,26.13,29.29,26.13z"/>
	</g>
	<g>
		<g>
			<path class="st3" d="M26.08,20.04H12.89c-0.5,0-0.9-0.41-0.9-0.9v-3.29c0-0.5,0.41-0.9,0.9-0.9h13.19c0.5,0,0.9,0.41,0.9,0.9
				v3.29C26.98,19.64,26.57,20.04,26.08,20.04z M13.17,18.87H25.8v-2.74H13.17V18.87z"/>
		</g>
		<g>
			<path class="st3" d="M14.91,18.78c-0.33,0-0.59-0.26-0.59-0.59v-1.2c0-0.33,0.26-0.59,0.59-0.59s0.59,0.26,0.59,0.59v1.2
				C15.5,18.52,15.24,18.78,14.91,18.78z"/>
		</g>
		<g>
			<path class="st3" d="M16.57,18.78c-0.33,0-0.59-0.26-0.59-0.59v-1.2c0-0.33,0.26-0.59,0.59-0.59s0.59,0.26,0.59,0.59v1.2
				C17.16,18.52,16.89,18.78,16.57,18.78z"/>
		</g>
		<g>
			<path class="st3" d="M18.22,18.78c-0.33,0-0.59-0.26-0.59-0.59v-1.2c0-0.33,0.26-0.59,0.59-0.59s0.59,0.26,0.59,0.59v1.2
				C18.81,18.52,18.55,18.78,18.22,18.78z"/>
		</g>
		<g>
			<path class="st3" d="M24.7,18.1h-2.3c-0.33,0-0.59-0.26-0.59-0.59s0.26-0.59,0.59-0.59h2.3c0.33,0,0.59,0.26,0.59,0.59
				S25.02,18.1,24.7,18.1z"/>
		</g>
		<g>
			<path class="st3" d="M26.08,25.67H12.89c-0.5,0-0.9-0.41-0.9-0.9v-3.29c0-0.5,0.41-0.9,0.9-0.9h13.19c0.5,0,0.9,0.41,0.9,0.9
				v3.29C26.98,25.27,26.57,25.67,26.08,25.67z M13.17,24.49H25.8v-2.74H13.17V24.49z"/>
		</g>
		<g>
			<path class="st3" d="M14.91,24.41c-0.33,0-0.59-0.26-0.59-0.59v-1.2c0-0.33,0.26-0.59,0.59-0.59s0.59,0.26,0.59,0.59v1.2
				C15.5,24.14,15.24,24.41,14.91,24.41z"/>
		</g>
		<g>
			<path class="st3" d="M16.57,24.41c-0.33,0-0.59-0.26-0.59-0.59v-1.2c0-0.33,0.26-0.59,0.59-0.59s0.59,0.26,0.59,0.59v1.2
				C17.16,24.14,16.89,24.41,16.57,24.41z"/>
		</g>
		<g>
			<path class="st3" d="M18.22,24.41c-0.33,0-0.59-0.26-0.59-0.59v-1.2c0-0.33,0.26-0.59,0.59-0.59s0.59,0.26,0.59,0.59v1.2
				C18.81,24.14,18.55,24.41,18.22,24.41z"/>
		</g>
		<g>
			<path class="st3" d="M24.7,23.73h-2.3c-0.33,0-0.59-0.26-0.59-0.59s0.26-0.59,0.59-0.59h2.3c0.33,0,0.59,0.26,0.59,0.59
				S25.02,23.73,24.7,23.73z"/>
		</g>
		<g>
			<path class="st3" d="M26.08,31.3H12.89c-0.5,0-0.9-0.41-0.9-0.9V27.1c0-0.5,0.41-0.9,0.9-0.9h13.19c0.5,0,0.9,0.41,0.9,0.9v3.29
				C26.98,30.89,26.57,31.3,26.08,31.3z M13.17,30.12H25.8v-2.74H13.17V30.12z"/>
		</g>
		<g>
			<path class="st3" d="M14.91,30.03c-0.33,0-0.59-0.26-0.59-0.59v-1.2c0-0.33,0.26-0.59,0.59-0.59s0.59,0.26,0.59,0.59v1.2
				C15.5,29.77,15.24,30.03,14.91,30.03z"/>
		</g>
		<g>
			<path class="st3" d="M16.57,30.03c-0.33,0-0.59-0.26-0.59-0.59v-1.2c0-0.33,0.26-0.59,0.59-0.59s0.59,0.26,0.59,0.59v1.2
				C17.16,29.77,16.89,30.03,16.57,30.03z"/>
		</g>
		<g>
			<path class="st3" d="M18.22,30.03c-0.33,0-0.59-0.26-0.59-0.59v-1.2c0-0.33,0.26-0.59,0.59-0.59s0.59,0.26,0.59,0.59v1.2
				C18.81,29.77,18.55,30.03,18.22,30.03z"/>
		</g>
		<g>
			<path class="st3" d="M24.7,29.36h-2.3c-0.33,0-0.59-0.26-0.59-0.59s0.26-0.59,0.59-0.59h2.3c0.33,0,0.59,0.26,0.59,0.59
				S25.02,29.36,24.7,29.36z"/>
		</g>
		<g>
			<path class="st3" d="M14.72,21.72c-0.33,0-0.59-0.26-0.59-0.59v-1.66c0-0.33,0.26-0.59,0.59-0.59s0.59,0.26,0.59,0.59v1.66
				C15.31,21.45,15.05,21.72,14.72,21.72z"/>
		</g>
		<g>
			<path class="st3" d="M24.09,21.72c-0.33,0-0.59-0.26-0.59-0.59v-1.66c0-0.33,0.26-0.59,0.59-0.59s0.59,0.26,0.59,0.59v1.66
				C24.68,21.45,24.42,21.72,24.09,21.72z"/>
		</g>
		<g>
			<path class="st3" d="M14.72,27.25c-0.33,0-0.59-0.26-0.59-0.59v-1.58c0-0.33,0.26-0.59,0.59-0.59s0.59,0.26,0.59,0.59v1.58
				C15.31,26.99,15.05,27.25,14.72,27.25z"/>
		</g>
		<g>
			<path class="st3" d="M24.09,27.25c-0.33,0-0.59-0.26-0.59-0.59v-1.58c0-0.33,0.26-0.59,0.59-0.59s0.59,0.26,0.59,0.59v1.58
				C24.68,26.99,24.42,27.25,24.09,27.25z"/>
		</g>
	</g>
</g>
</svg>
