<svg id="Layer_1" data-name="Layer 1" xmlns="http://www.w3.org/2000/svg" viewBox="0 0 50 50"><defs><style>.cls-1{fill:#60987e;}.cls-2{fill:#128ece;}.cls-3{fill:#efaa1e;}.cls-4{fill:none;}.cls-5{fill:#a69f3d;}.cls-6{fill:#ff2400;}.cls-7{fill:#00a651;}</style></defs><title>CRM ICONS</title><polygon class="cls-1" points="25.27 0 17.32 11.08 21.3 11.08 21.3 22.07 25.27 26.34 29.48 22.07 29.48 11.23 33.31 11.23 25.27 0"/><path class="cls-2" d="M0,18.8l13.56-4-1.7,4s18.33,7.1,17.31,29.41H20.59s1-15.71-12.24-21.12L6.86,30.2Z"/><path class="cls-3" d="M35.8,17.63,50,21.21,42.9,32.86l-1.53-3.61s-7.83,2.63-11.26,9.39c0,0-1.79-7.39-4-9.09,0,0,1.95-5.37,11.31-8.33Z"/><path class="cls-4" d="M38.07,43.78a.56.56,0,0,0-.22,1.07V46a.18.18,0,0,0,.18.18h.07a.18.18,0,0,0,.18-.18V44.85a.56.56,0,0,0-.21-1.07Z"/><path class="cls-5" d="M41.6,41.14h-.2V39.38a3.33,3.33,0,1,0-6.66,0v1.76h-.21a.58.58,0,0,0-.57.57v4.93a.58.58,0,0,0,.57.57H41.6a.57.57,0,0,0,.57-.57V41.71A.57.57,0,0,0,41.6,41.14ZM38.31,44.3v1.28a.2.2,0,0,1-.21.2H38a.2.2,0,0,1-.21-.2V44.3a.63.63,0,1,1,.49,0Zm2-3.16H35.85V39.38a2.22,2.22,0,0,1,4.43,0Z"/><path class="cls-3" d="M37,7.83A2.93,2.93,0,0,0,37.31,9c.21.38-.82,2.91-.82,2.91s2.37-1.49,2.79-1.39a3.25,3.25,0,0,0,1.08.07A3.09,3.09,0,1,0,37,7.83Z"/><path class="cls-3" d="M46.41,9.63a10.23,10.23,0,0,1-1.35-2.37,3.2,3.2,0,0,0-3.45-4.08,3.19,3.19,0,0,0-2,1l.27,0a2.83,2.83,0,0,1,.5,0,2.75,2.75,0,0,1,4.25,3c-.1.34.43,1.28,1,2.17a7.74,7.74,0,0,0-2.29-.51.39.39,0,0,0-.14,0L43,8.91a3,3,0,0,1-.49.64,3.18,3.18,0,0,0,.87-.29,11.16,11.16,0,0,1,2.74.73l.69.24Z"/><path class="cls-6" d="M3.93,41.58a.87.87,0,0,0,.87.87H7.74a.8.8,0,0,1,0,.31,5.06,5.06,0,0,1-.53,1.35c-.22.38-.3,2.18.09,2.45a.87.87,0,0,0,1.22-.22L9,44.53l1-1.43c.18-.26,1.1-1.33,1.1-1.33V37l-1.53-.45H6.19a.87.87,0,0,0-.88.88.87.87,0,0,0,.06.32.87.87,0,0,0-.67.85.86.86,0,0,0,.29.64.87.87,0,0,0-.71.86.86.86,0,0,0,.29.65A.87.87,0,0,0,3.93,41.58Z"/><rect class="cls-6" x="11.41" y="36.54" width="3.2" height="5.65"/><path class="cls-7" d="M14.13,7a.88.88,0,0,0-.87-.88H10.33a.61.61,0,0,1,0-.3,4.94,4.94,0,0,1,.53-1.35c.22-.38.31-2.18-.09-2.46a.88.88,0,0,0-1.22.23L9,4.09l-1,1.43C7.87,5.78,7,6.84,7,6.84v4.79l1.53.45h3.39a.88.88,0,0,0,.88-.88.87.87,0,0,0-.06-.32.88.88,0,0,0,.67-.85.86.86,0,0,0-.29-.64.88.88,0,0,0,.71-.86.86.86,0,0,0-.29-.65A.87.87,0,0,0,14.13,7Z"/><rect class="cls-7" x="3.45" y="6.43" width="3.19" height="5.65"/></svg>