<?xml version="1.0" encoding="iso-8859-1"?>
<!-- Generator: Adobe Illustrator 12.0.0, SVG Export Plug-In . SVG Version: 6.00 Build 51448)  -->
<!DOCTYPE svg PUBLIC "-//W3C//DTD SVG 1.1//EN" "http://www.w3.org/Graphics/SVG/1.1/DTD/svg11.dtd" [
	<!ENTITY ns_svg "http://www.w3.org/2000/svg">
	<!ENTITY ns_xlink "http://www.w3.org/1999/xlink">
]>
<svg  version="1.1" id="Layer_1" xmlns="&ns_svg;" xmlns:xlink="&ns_xlink;" width="22.11" height="22.11"
	 viewBox="0 0 22.11 22.11" style="overflow:visible;enable-background:new 0 0 22.11 22.11;" xml:space="preserve">
<g>
	<g>
		<ellipse style="opacity:0.01;fill:#FFFFFF;enable-background:new    ;" cx="11.054" cy="11.018" rx="6.99" ry="9.813"/>
		
			<linearGradient id="XMLID_9_" gradientUnits="userSpaceOnUse" x1="471.3477" y1="-619.0591" x2="481.0145" y2="-673.8823" gradientTransform="matrix(0.3906 0 0 -0.3906 -174.8906 -241.293)">
			<stop  offset="0" style="stop-color:#FF8C8F"/>
			<stop  offset="0.3804" style="stop-color:#F21818"/>
			<stop  offset="0.4461" style="stop-color:#E51515"/>
			<stop  offset="0.5683" style="stop-color:#C20E0E"/>
			<stop  offset="0.7324" style="stop-color:#8A0202"/>
			<stop  offset="0.7607" style="stop-color:#800000"/>
		</linearGradient>
		<path style="fill:url(#XMLID_9_);" d="M11.015,19.881c3.595,0,3.918-5.445,3.918-9.108c0-4.217-0.631-8.817-3.918-8.817
			c-3.287,0-3.837,4.891-3.837,8.817C7.177,14.402,7.472,19.881,11.015,19.881L11.015,19.881z M11.014,0.186
			c5.885,0,10.289,4.255,10.289,10.768c0,5.751-4.172,10.971-10.288,10.971c-6.057,0-10.207-5.222-10.207-10.971
			C0.808,4.493,5.075,0.186,11.014,0.186z"/>
		
			<linearGradient id="XMLID_10_" gradientUnits="userSpaceOnUse" x1="475.9629" y1="-667.8276" x2="475.9629" y2="-673.2827" gradientTransform="matrix(0.3906 0 0 -0.3906 -174.8906 -241.293)">
			<stop  offset="0" style="stop-color:#FF444C"/>
			<stop  offset="0.2367" style="stop-color:#FF393F"/>
			<stop  offset="0.6708" style="stop-color:#FF1B1E"/>
			<stop  offset="1" style="stop-color:#FF0000"/>
		</linearGradient>
		<path style="opacity:0.5;fill:url(#XMLID_10_);enable-background:new    ;" d="M17.092,19.569
			c-1.53,1.351-3.551,2.118-6.077,2.118c-2.504,0-4.515-0.768-6.041-2.118l5.18-0.013c0.266,0.073,0.552,0.112,0.861,0.112
			c0.313,0,0.604-0.025,0.872-0.1H17.092L17.092,19.569z"/>
		
			<linearGradient id="XMLID_11_" gradientUnits="userSpaceOnUse" x1="475.7754" y1="-668.0283" x2="476.3469" y2="-621.2872" gradientTransform="matrix(0.3906 0 0 -0.3906 -174.8906 -241.293)">
			<stop  offset="0" style="stop-color:#E60000"/>
			<stop  offset="0.3568" style="stop-color:#DC0B0A"/>
			<stop  offset="0.9811" style="stop-color:#C02825"/>
			<stop  offset="1" style="stop-color:#BF2926"/>
		</linearGradient>
		<path style="opacity:0.8;fill:url(#XMLID_11_);enable-background:new    ;" d="M11.013,19.614c-3.664,0-3.817-5.204-3.817-8.854
			c0-4.28,0.415-8.391,3.817-8.391s3.921,4.162,3.921,8.387C14.933,14.412,14.729,19.614,11.013,19.614L11.013,19.614z
			 M11.014,1.829c-4.002,0-4.402,5.345-4.402,8.93c0,4.059,0.798,9.33,4.402,9.33c3.839,0,4.512-5.278,4.512-9.33
			C15.525,7.23,15.099,1.829,11.014,1.829L11.014,1.829z"/>
		
			<linearGradient id="XMLID_12_" gradientUnits="userSpaceOnUse" x1="476.0918" y1="-667.6938" x2="476.0918" y2="-621.6738" gradientTransform="matrix(0.3906 0 0 -0.3906 -174.8906 -241.293)">
			<stop  offset="0" style="stop-color:#B80000"/>
			<stop  offset="1" style="stop-color:#990000"/>
		</linearGradient>
		<path style="fill:url(#XMLID_12_);" d="M11.015,19.484c-3.541,0-3.682-5.121-3.682-8.71c0-4.211,0.394-8.249,3.682-8.249
			s3.784,4.088,3.784,8.245C14.798,14.365,14.606,19.484,11.015,19.484L11.015,19.484z M11.016,1.975
			c-3.941,0-4.221,5.299-4.221,8.796c0,3.993,0.665,9.18,4.221,9.18c3.71,0,4.354-5.194,4.354-9.18
			C15.37,7.33,14.963,1.975,11.016,1.975L11.016,1.975z"/>
		<g style="opacity:0.5;">
			<defs>
				<filter id="Adobe_OpacityMaskFilter" filterUnits="userSpaceOnUse" x="7.165" y="2.386" width="7.806" height="8.292">
					<feColorMatrix  type="matrix" values="1 0 0 0 0  0 1 0 0 0  0 0 1 0 0  0 0 0 1 0"/>
				</filter>
			</defs>
			<mask maskUnits="userSpaceOnUse" x="7.165" y="2.386" width="7.806" height="8.292" id="SVGID_2_">
				<g style="filter:url(#Adobe_OpacityMaskFilter);">
					
						<image style="enable-background:new    ;" width="88" height="93" xlink:href="3A4E1015.jpg"  transform="matrix(0.0944 0 0 0.0944 6.9932 1.4033)">
					</image>
				</g>
			</mask>
			<g style="mask:url(#SVGID_2_);">
				
					<linearGradient id="XMLID_13_" gradientUnits="userSpaceOnUse" x1="476.0547" y1="-644.5425" x2="476.0547" y2="-623.3135" gradientTransform="matrix(0.3906 0 0 -0.3906 -174.8906 -241.293)">
					<stop  offset="0" style="stop-color:#CF0000"/>
					<stop  offset="0.1308" style="stop-color:#BF0000"/>
					<stop  offset="0.5151" style="stop-color:#960000"/>
					<stop  offset="0.8181" style="stop-color:#7C0000"/>
					<stop  offset="1" style="stop-color:#730000"/>
				</linearGradient>
				<path style="fill:url(#XMLID_13_);" d="M7.165,10.679c0-3.769,0.505-8.152,3.849-8.152s3.957,4.578,3.957,8.093
					c0-3.175-0.431-8.233-3.952-8.233C7.505,2.386,7.166,7.448,7.165,10.679L7.165,10.679z"/>
			</g>
		</g>
		<g style="opacity:0.15;">
			<defs>
				<filter id="Adobe_OpacityMaskFilter_1_" filterUnits="userSpaceOnUse" x="7.288" y="11.353" width="7.542" height="8.291">
					<feColorMatrix  type="matrix" values="1 0 0 0 0  0 1 0 0 0  0 0 1 0 0  0 0 0 1 0"/>
				</filter>
			</defs>
			<mask maskUnits="userSpaceOnUse" x="7.288" y="11.353" width="7.542" height="8.291" id="SVGID_1_">
				<g style="filter:url(#Adobe_OpacityMaskFilter_1_);">
					
						<image style="enable-background:new    ;" width="85" height="93" xlink:href="3A4E1016.jpg"  transform="matrix(0.0944 0 0 0.0944 7.1816 10.3677)">
					</image>
				</g>
			</mask>
			<g style="mask:url(#SVGID_1_);">
				
					<linearGradient id="XMLID_1_" gradientUnits="userSpaceOnUse" x1="476.0293" y1="-667.4941" x2="476.0293" y2="-646.269" gradientTransform="matrix(0.3906 0 0 -0.3906 -174.8906 -241.293)">
					<stop  offset="0" style="stop-color:#730000"/>
					<stop  offset="0.1819" style="stop-color:#7C0000"/>
					<stop  offset="0.4849" style="stop-color:#960000"/>
					<stop  offset="0.8692" style="stop-color:#BF0000"/>
					<stop  offset="1" style="stop-color:#CF0000"/>
				</linearGradient>
				<path style="fill:url(#XMLID_1_);" d="M14.829,11.353c0,3.769-0.554,8.15-3.789,8.15c-3.236,0-3.753-4.337-3.753-8.091
					c0,3.414,0.341,8.231,3.748,8.231C14.436,19.645,14.829,14.582,14.829,11.353L14.829,11.353z"/>
			</g>
		</g>
		
			<linearGradient id="XMLID_2_" gradientUnits="userSpaceOnUse" x1="450.4971" y1="-659.479" x2="501.7217" y2="-659.479" gradientTransform="matrix(0.3906 0 0 -0.3906 -174.8906 -241.293)">
			<stop  offset="0" style="stop-color:#E8000F"/>
			<stop  offset="1" style="stop-color:#E0000F"/>
		</linearGradient>
		<path style="opacity:0.8;fill:url(#XMLID_2_);enable-background:new    ;" d="M1.085,10.887c0,5.562,3.791,10.858,9.952,10.858
			c6.206,0,10.058-5.446,10.058-10.858c0,5.363-3.941,10.771-10.058,10.771C4.967,21.657,1.085,16.397,1.085,10.887z"/>
		
			<linearGradient id="XMLID_3_" gradientUnits="userSpaceOnUse" x1="476.082" y1="-640.7588" x2="476.082" y2="-615.8755" gradientTransform="matrix(0.3906 0 0 -0.3906 -174.8906 -241.293)">
			<stop  offset="0" style="stop-color:#FFFFFF"/>
			<stop  offset="1" style="stop-color:#FFFFFF"/>
		</linearGradient>
		<path style="opacity:0.65;fill:url(#XMLID_3_);enable-background:new    ;" d="M1.122,10.634c0-4.579,3.142-10.221,9.893-10.221
			c5.624,0,10.022,4.362,10.022,10.221c0-5.917-4.019-10.433-10.022-10.433C4.964,0.2,1.122,4.593,1.122,10.634z"/>
	</g>
	<rect style="fill:none;" width="22.11" height="22.11"/>
</g>
</svg>
