<?xml version="1.0" encoding="utf-8"?>
<!-- Generator: Adobe Illustrator 25.0.0, SVG Export Plug-In . SVG Version: 6.00 Build 0)  -->
<svg version="1.1" id="Layer_1" xmlns="http://www.w3.org/2000/svg" xmlns:xlink="http://www.w3.org/1999/xlink" x="0px" y="0px"
	 viewBox="0 0 283.46 283.46" style="enable-background:new 0 0 283.46 283.46;" xml:space="preserve">
<style type="text/css">
	.st0{fill:#40875E;}
	.st1{fill:#A8A240;}
	.st2{fill:#F0AB00;}
</style>
<path class="st0" d="M70.78,117.69h-7.25V48.74c0-9.43,7.67-17.1,17.1-17.1h132.48c9.43,0,17.1,7.67,17.1,17.1v17.49h-7.25V48.74
	c0-5.43-4.42-9.85-9.85-9.85H80.63c-5.43,0-9.85,4.42-9.85,9.85V117.69z"/>
<path class="st0" d="M139.88,264.85H80.63c-9.43,0-17.1-7.67-17.1-17.1V186.2h7.25v61.55c0,5.43,4.42,9.85,9.85,9.85h59.25V264.85z"
	/>
<rect x="146.3" y="257.61" class="st0" width="14.53" height="7.25"/>
<path class="st0" d="M213.11,264.85h-46.17v-7.25h46.17c5.43,0,9.85-4.42,9.85-9.85v-8.32h7.25v8.32
	C230.21,257.18,222.54,264.85,213.11,264.85z"/>
<rect x="222.97" y="169.47" class="st0" width="7.25" height="34.7"/>
<path class="st1" d="M275.34,173.09H145.72c-4.21,0-7.64-3.43-7.64-7.64v-95.2c0-4.21,3.43-7.64,7.64-7.64h129.61
	c4.21,0,7.64,3.43,7.64,7.64v95.2C282.98,169.67,279.55,173.09,275.34,173.09z M145.72,69.86c-0.22,0-0.39,0.18-0.39,0.39v95.2
	c0,0.22,0.18,0.39,0.39,0.39h129.61c0.22,0,0.39-0.17,0.39-0.39v-95.2c0-0.22-0.17-0.39-0.39-0.39H145.72z"/>
<path class="st1" d="M246.53,172.16l-103.21-2.69l-3.9-47.54l20.55-16.84c6.93-5.68,16.8-5.45,23.46,0.54l67.95,61.13L246.53,172.16
	z"/>
<circle class="st2" cx="238.35" cy="104.64" r="17.93"/>
<path class="st0" d="M246.21,240.16h-71.35c-4.37,0-7.91-3.54-7.91-7.91v-22.13c0-4.37,3.54-7.91,7.91-7.91h71.35
	c4.37,0,7.91,3.54,7.91,7.91v22.13C254.12,236.62,250.58,240.16,246.21,240.16z"/>
<path class="st2" d="M133.61,187.77H0.49v-72.81h133.12V187.77z"/>
<g>
	<path d="M18.4,163.3c-1.92-1.12-3.39-2.72-4.43-4.8c-1.04-2.08-1.56-4.52-1.56-7.31c0-2.79,0.51-5.22,1.54-7.29
		c1.03-2.07,2.51-3.66,4.43-4.78c1.93-1.12,4.2-1.68,6.81-1.68c2.61,0,4.88,0.56,6.8,1.68c1.92,1.12,3.39,2.71,4.42,4.78
		c1.03,2.07,1.54,4.5,1.54,7.29c0,2.79-0.52,5.23-1.56,7.31c-1.04,2.08-2.52,3.68-4.43,4.8c-1.92,1.12-4.17,1.68-6.76,1.68
		C22.58,164.97,20.32,164.41,18.4,163.3z M30.96,158.5c1.38-1.7,2.07-4.14,2.07-7.31c0-3.17-0.69-5.6-2.07-7.29
		c-1.38-1.69-3.31-2.53-5.77-2.53c-2.49,0-4.42,0.84-5.81,2.53c-1.38,1.69-2.07,4.12-2.07,7.29c0,3.17,0.69,5.61,2.07,7.31
		c1.38,1.7,3.32,2.55,5.81,2.55C27.66,161.05,29.58,160.2,30.96,158.5z"/>
	<path d="M54.43,146.05c0.38,0.33,0.57,0.83,0.57,1.48c0,0.69-0.17,1.19-0.49,1.52c-0.33,0.33-0.93,0.55-1.79,0.65l-1.14,0.11
		c-1.5,0.15-2.6,0.66-3.29,1.52c-0.7,0.86-1.05,1.94-1.05,3.24v7.99c0,0.74-0.23,1.3-0.69,1.69c-0.46,0.39-1.03,0.59-1.71,0.59
		s-1.25-0.2-1.69-0.59c-0.44-0.39-0.67-0.96-0.67-1.69v-14.73c0-0.71,0.22-1.26,0.67-1.64c0.44-0.38,1-0.57,1.66-0.57
		c0.66,0,1.19,0.18,1.6,0.55c0.41,0.37,0.61,0.89,0.61,1.58v1.52c0.48-1.12,1.2-1.98,2.15-2.59c0.95-0.61,2.01-0.95,3.18-1.03
		l0.53-0.04C53.53,145.58,54.05,145.72,54.43,146.05z"/>
	<path d="M70.82,147.48c1.26,1.28,1.88,3.23,1.88,5.84v9.29c0,0.69-0.2,1.23-0.61,1.62c-0.41,0.39-0.97,0.59-1.68,0.59
		c-0.66,0-1.2-0.2-1.62-0.61c-0.42-0.41-0.63-0.94-0.63-1.6v-0.84c-0.43,0.99-1.11,1.76-2.04,2.32c-0.93,0.56-2,0.84-3.22,0.84
		c-1.24,0-2.37-0.25-3.39-0.76c-1.02-0.51-1.81-1.21-2.4-2.09c-0.58-0.89-0.88-1.88-0.88-2.97c0-1.37,0.35-2.45,1.05-3.24
		c0.7-0.79,1.83-1.36,3.41-1.71c1.57-0.36,3.74-0.53,6.51-0.53h0.95v-0.88c0-1.24-0.27-2.15-0.8-2.72c-0.53-0.57-1.4-0.86-2.59-0.86
		c-0.74,0-1.48,0.11-2.25,0.32c-0.76,0.22-1.66,0.53-2.7,0.93c-0.66,0.33-1.14,0.49-1.45,0.49c-0.46,0-0.83-0.16-1.12-0.49
		c-0.29-0.33-0.44-0.76-0.44-1.29c0-0.43,0.11-0.81,0.32-1.12c0.22-0.32,0.58-0.62,1.08-0.89c0.89-0.48,1.95-0.86,3.18-1.14
		c1.23-0.28,2.44-0.42,3.64-0.42C67.64,145.56,69.56,146.2,70.82,147.48z M66.97,160.23c0.8-0.85,1.2-1.95,1.2-3.29v-0.8h-0.69
		c-1.7,0-3.02,0.08-3.96,0.23c-0.94,0.15-1.61,0.42-2.02,0.8c-0.41,0.38-0.61,0.9-0.61,1.56c0,0.81,0.29,1.48,0.86,2
		c0.57,0.52,1.28,0.78,2.11,0.78C65.14,161.51,66.18,161.08,66.97,160.23z"/>
	<path d="M80.91,163.75c-1.41-0.79-2.49-1.9-3.25-3.35c-0.76-1.45-1.14-3.13-1.14-5.06c0-1.93,0.4-3.64,1.2-5.12
		c0.8-1.49,1.92-2.63,3.37-3.45c1.45-0.81,3.11-1.22,4.99-1.22c0.99,0,1.99,0.14,2.99,0.42c1,0.28,1.88,0.66,2.65,1.14
		c0.81,0.53,1.22,1.21,1.22,2.02c0,0.56-0.13,1.01-0.4,1.35c-0.27,0.34-0.62,0.51-1.05,0.51c-0.28,0-0.57-0.06-0.88-0.19
		c-0.3-0.13-0.61-0.28-0.91-0.46c-0.56-0.33-1.09-0.59-1.6-0.78c-0.51-0.19-1.09-0.29-1.75-0.29c-1.57,0-2.79,0.51-3.64,1.54
		c-0.85,1.03-1.28,2.51-1.28,4.43c0,1.9,0.42,3.37,1.28,4.4c0.85,1.03,2.06,1.54,3.64,1.54c0.63,0,1.2-0.1,1.69-0.29
		c0.49-0.19,1.05-0.45,1.66-0.78c0.38-0.23,0.71-0.4,0.99-0.51c0.28-0.11,0.56-0.17,0.84-0.17c0.41,0,0.75,0.18,1.03,0.53
		c0.28,0.36,0.42,0.8,0.42,1.33c0,0.43-0.1,0.81-0.29,1.12c-0.19,0.32-0.5,0.6-0.93,0.86c-0.79,0.51-1.7,0.91-2.74,1.2
		c-1.04,0.29-2.11,0.44-3.2,0.44C83.95,164.93,82.32,164.54,80.91,163.75z"/>
	<path d="M96.78,164.27c-0.44-0.39-0.67-0.96-0.67-1.69v-22.73c0-0.74,0.22-1.29,0.67-1.68c0.44-0.38,1.01-0.57,1.69-0.57
		c0.69,0,1.26,0.19,1.71,0.57c0.46,0.38,0.69,0.94,0.69,1.68v22.73c0,0.74-0.23,1.3-0.69,1.69c-0.46,0.39-1.03,0.59-1.71,0.59
		C97.79,164.86,97.23,164.66,96.78,164.27z"/>
	<path d="M121.56,160.02c0.27,0.33,0.4,0.77,0.4,1.33c0,0.79-0.47,1.45-1.41,1.98c-0.86,0.48-1.84,0.87-2.93,1.16
		c-1.09,0.29-2.13,0.44-3.12,0.44c-3,0-5.37-0.86-7.12-2.59c-1.75-1.73-2.63-4.09-2.63-7.08c0-1.9,0.38-3.59,1.14-5.06
		c0.76-1.47,1.83-2.61,3.22-3.43c1.38-0.81,2.95-1.22,4.7-1.22c1.68,0,3.13,0.37,4.38,1.1c1.24,0.74,2.21,1.78,2.89,3.12
		c0.69,1.35,1.03,2.93,1.03,4.76c0,1.09-0.48,1.64-1.45,1.64h-11.23c0.15,1.75,0.65,3.04,1.48,3.86c0.84,0.83,2.06,1.24,3.65,1.24
		c0.81,0,1.53-0.1,2.15-0.3c0.62-0.2,1.33-0.48,2.11-0.84c0.76-0.41,1.32-0.61,1.68-0.61C120.95,159.53,121.3,159.69,121.56,160.02z
		 M110.83,150.12c-0.77,0.81-1.24,1.98-1.39,3.5h8.6c-0.05-1.55-0.43-2.72-1.14-3.52c-0.71-0.8-1.7-1.2-2.97-1.2
		C112.64,148.91,111.6,149.31,110.83,150.12z"/>
</g>
</svg>
