<?xml version="1.0" encoding="utf-8"?>
<!-- Generator: Adobe Illustrator 25.0.0, SVG Export Plug-In . SVG Version: 6.00 Build 0)  -->
<svg version="1.1" id="Layer_1" xmlns="http://www.w3.org/2000/svg" xmlns:xlink="http://www.w3.org/1999/xlink" x="0px" y="0px"
	 viewBox="0 0 36 36" style="enable-background:new 0 0 36 36;" xml:space="preserve">
<style type="text/css">
	.st0{fill:#0B4A99;}
	.st1{fill:#A8A240;}
	.st2{fill:#40875E;}
	.st3{fill:#F0AB00;}
</style>
<g>
	<path class="st0" d="M4.6,14.9c-0.9,0-1.6,0.7-1.6,1.5v12.5c0,0.8,0.7,1.5,1.6,1.5h1.7c0.9,0,1.6-0.7,1.6-1.5V16.4
		c0-0.8-0.7-1.5-1.6-1.5H4.6z M6.6,16.4v12.5c0,0.1-0.1,0.2-0.3,0.2H4.6c-0.2,0-0.3-0.1-0.3-0.2V16.4c0-0.1,0.1-0.2,0.3-0.2h1.7
		C6.4,16.2,6.6,16.3,6.6,16.4z"/>
	<path class="st0" d="M12.7,14.9c-0.9,0-1.6,0.7-1.6,1.5v12.5c0,0.8,0.7,1.5,1.6,1.5h1.7c0.9,0,1.6-0.7,1.6-1.5V16.4
		c0-0.8-0.7-1.5-1.6-1.5H12.7z M14.7,16.4v12.5c0,0.1-0.1,0.2-0.3,0.2h-1.7c-0.2,0-0.3-0.1-0.3-0.2V16.4c0-0.1,0.1-0.2,0.3-0.2h1.7
		C14.6,16.2,14.7,16.3,14.7,16.4z"/>
	<path class="st0" d="M21.5,14.9c-0.9,0-1.6,0.7-1.6,1.5v12.5c0,0.8,0.7,1.5,1.6,1.5h1.7c0.9,0,1.6-0.7,1.6-1.5V16.4
		c0-0.8-0.7-1.5-1.6-1.5H21.5z M23.5,16.4v12.5c0,0.1-0.1,0.2-0.3,0.2h-1.7c-0.2,0-0.3-0.1-0.3-0.2V16.4c0-0.1,0.1-0.2,0.3-0.2h1.7
		C23.4,16.2,23.5,16.3,23.5,16.4z"/>
	<path class="st0" d="M29.6,14.9c-0.9,0-1.6,0.7-1.6,1.5v12.5c0,0.8,0.7,1.5,1.6,1.5h1.7c0.9,0,1.6-0.7,1.6-1.5V16.4
		c0-0.8-0.7-1.5-1.6-1.5H29.6z M31.6,16.4v12.5c0,0.1-0.1,0.2-0.3,0.2h-1.7c-0.2,0-0.3-0.1-0.3-0.2V16.4c0-0.1,0.1-0.2,0.3-0.2h1.7
		C31.5,16.2,31.6,16.3,31.6,16.4z"/>
	<path class="st0" d="M18,11.8c2.3,0,4.1-1.8,4.1-4.1S20.3,3.7,18,3.7s-4.1,1.8-4.1,4.1S15.7,11.8,18,11.8z M18,4.9
		c1.6,0,2.8,1.3,2.8,2.8c0,1.6-1.3,2.8-2.8,2.8s-2.8-1.3-2.8-2.8C15.2,6.2,16.4,4.9,18,4.9z"/>
	<path class="st0" d="M1.9,14.2l32.3,0l0.1,0c0.2-0.1,1.4-0.4,1.7-1.3c0.2-0.6-0.2-1.3-1-2L19.2,0.6c-0.9-0.7-1.9-0.3-2.3,0
		L1.2,10.8l-0.1,0.1c-0.8,0.8-1.2,1.5-1,2.1C0.4,13.9,1.7,14.2,1.9,14.2z M1.9,11.8L17.6,1.6c0,0,0.5-0.3,0.9,0l15.7,10.3
		c0.5,0.4,0.5,0.6,0.5,0.7c0,0.1-0.4,0.3-0.7,0.4H2c-0.3-0.1-0.6-0.2-0.7-0.3C1.3,12.6,1.4,12.3,1.9,11.8z"/>
	<path class="st0" d="M34.4,31H1.6C0.7,31,0,31.7,0,32.6v1.7c0,0.9,0.7,1.6,1.6,1.6h32.9c0.9,0,1.6-0.7,1.6-1.6v-1.7
		C36,31.7,35.3,31,34.4,31z M34.7,34.3c0,0.2-0.1,0.3-0.3,0.3H1.6c-0.2,0-0.3-0.1-0.3-0.3v-1.7c0-0.2,0.1-0.3,0.3-0.3h32.9
		c0.2,0,0.3,0.1,0.3,0.3V34.3z"/>
</g>
</svg>
