<?xml version="1.0" encoding="utf-8"?>
<!-- Generator: Adobe Illustrator 25.0.0, SVG Export Plug-In . SVG Version: 6.00 Build 0)  -->
<svg version="1.1" id="Layer_1" xmlns="http://www.w3.org/2000/svg" xmlns:xlink="http://www.w3.org/1999/xlink" x="0px" y="0px"
	 viewBox="0 0 16 16" style="enable-background:new 0 0 16 16;" xml:space="preserve">
<style type="text/css">
	.st0{fill:#A8A240;}
	.st1{fill:#40875E;}
	.st2{fill:#F0AB00;}
</style>
<g>
	<path class="st0" d="M3.03,13.16c0,0.24-0.19,0.43-0.43,0.43H1.82c-0.24,0-0.43-0.19-0.43-0.43V6.98c0-0.24,0.19-0.43,0.43-0.43
		H2.6c0.24,0,0.43,0.19,0.43,0.43V13.16z"/>
	<path class="st0" d="M6.77,13.16c0,0.24-0.19,0.43-0.43,0.43H5.57c-0.24,0-0.43-0.19-0.43-0.43V6.98c0-0.24,0.19-0.43,0.43-0.43
		h0.78c0.24,0,0.43,0.19,0.43,0.43V13.16z"/>
	<path class="st0" d="M10.82,13.16c0,0.24-0.19,0.43-0.43,0.43H9.62c-0.24,0-0.43-0.19-0.43-0.43V6.98c0-0.24,0.19-0.43,0.43-0.43
		h0.78c0.24,0,0.43,0.19,0.43,0.43V13.16z"/>
	<path class="st0" d="M14.57,13.16c0,0.24-0.19,0.43-0.43,0.43h-0.78c-0.24,0-0.43-0.19-0.43-0.43V6.98c0-0.24,0.19-0.43,0.43-0.43
		h0.78c0.24,0,0.43,0.19,0.43,0.43V13.16z"/>
	<path class="st1" d="M8.35,0.2l7.27,4.76c0.87,0.75-0.23,1-0.23,1H0.61c0,0-1.16-0.17-0.2-1.05L7.63,0.2
		C7.63,0.2,8.02-0.08,8.35,0.2z M8,1.68c-0.88,0-1.6,0.71-1.6,1.6c0,0.88,0.71,1.6,1.6,1.6s1.6-0.71,1.6-1.6
		C9.6,2.4,8.88,1.68,8,1.68z"/>
	<path class="st2" d="M16,15.49c0,0.24-0.19,0.43-0.43,0.43H0.43C0.19,15.92,0,15.73,0,15.49v-0.78c0-0.24,0.19-0.43,0.43-0.43
		h15.14c0.24,0,0.43,0.19,0.43,0.43V15.49z"/>
</g>
</svg>
