<?xml version="1.0" encoding="utf-8"?>
<!-- Generator: Adobe Illustrator 25.0.0, SVG Export Plug-In . SVG Version: 6.00 Build 0)  -->
<svg version="1.1" id="Layer_1" xmlns="http://www.w3.org/2000/svg" xmlns:xlink="http://www.w3.org/1999/xlink" x="0px" y="0px"
	 viewBox="0 0 16 16" style="enable-background:new 0 0 16 16;" xml:space="preserve">
<style type="text/css">
	.st0{fill:#40875E;}
	.st1{fill:#A8A240;}
	.st2{fill:#F0AB00;}
</style>
<path class="st0" d="M13.28,10.2c-0.42-0.33-0.77-0.59-1.09-0.84c0.13-0.5,0.31-0.97,0.37-1.45c0.2-1.67-0.8-3.22-2.38-3.77
	C8.6,3.59,6.85,4.2,5.96,5.62c-0.89,1.42-0.69,3.24,0.49,4.44c1.18,1.19,3,1.41,4.43,0.52c0.25-0.16,0.38-0.13,0.57,0.07
	c0.52,0.54,1.09,1.04,1.61,1.58c0.43,0.45,0.25,1.02,0.14,1.52c-0.1,0.44-0.51,0.57-0.95,0.57c-2.49-0.01-4.99,0-7.48,0
	c-0.69,0-1.02-0.32-1.02-1.01c-0.01-3.53-0.01-7.06,0-10.58c0-0.68,0.34-1.02,1.02-1.02c2.49,0,4.99,0,7.48,0
	c0.71,0,1.03,0.33,1.03,1.04C13.28,5.19,13.28,7.64,13.28,10.2z"/>
<path class="st1" d="M11.67,9.41c1.29,1,2.56,1.98,3.83,2.97c0.53,0.41,0.65,0.78,0.34,1.12c-0.3,0.33-0.66,0.27-1.13-0.19
	c-1.15-1.12-2.3-2.24-3.49-3.39c-0.89,0.73-1.9,1.02-3.03,0.74c-0.76-0.19-1.36-0.62-1.81-1.25C5.45,8.13,5.61,6.33,6.73,5.24
	C7.85,4.13,9.62,4,10.9,4.91C11.96,5.68,12.84,7.4,11.67,9.41z M11.66,7.53c0-1.46-1.21-2.66-2.67-2.66
	c-1.44,0.01-2.64,1.2-2.64,2.64C6.34,8.98,7.54,10.19,9,10.19C10.45,10.2,11.66,8.99,11.66,7.53z"/>
<path class="st1" d="M3.11,13.07c-1,0.12-1.25-0.09-1.25-1.06c0-2.68,0-5.37,0-8.05c0-0.9,0.3-1.16,1.25-1.03
	C3.11,6.3,3.11,9.67,3.11,13.07z"/>
<path class="st2" d="M1.26,4.09c0,2.63,0,5.19,0,7.81c-0.27,0-0.55,0.03-0.82-0.01C0.08,11.84,0,11.56,0,11.23c0-1.58,0-3.16,0-4.74
	c0-0.54,0-1.07,0-1.61c0-0.64,0.17-0.8,0.82-0.8C0.95,4.09,1.08,4.09,1.26,4.09z"/>
<path class="st2" d="M8.85,9.14c-0.23,0-0.42,0-0.64,0c0-0.91,0-1.79,0-2.71c0.21,0,0.41,0,0.64,0C8.85,7.33,8.85,8.21,8.85,9.14z"
	/>
<path class="st2" d="M9.8,9.14c-0.23,0-0.42,0-0.64,0c0-1.17,0-2.32,0-3.51c0.21,0,0.41,0,0.64,0C9.8,6.79,9.8,7.94,9.8,9.14z"/>
<path class="st2" d="M7.88,6.94c0,0.73,0,1.44,0,2.19c-0.2,0-0.38,0-0.6,0c0-0.73,0-1.44,0-2.19C7.47,6.94,7.66,6.94,7.88,6.94z"/>
<path class="st2" d="M10.14,6.93c0.21,0,0.38,0,0.59,0c0,0.73,0,1.44,0,2.2c-0.19,0-0.37,0-0.59,0C10.14,8.42,10.14,7.7,10.14,6.93z
	"/>
</svg>
