<?xml version="1.0" encoding="utf-8"?>
<!-- Generator: Adobe Illustrator 25.0.0, SVG Export Plug-In . SVG Version: 6.00 Build 0)  -->
<svg version="1.1" id="Layer_1" xmlns="http://www.w3.org/2000/svg" xmlns:xlink="http://www.w3.org/1999/xlink" x="0px" y="0px"
	 viewBox="0 0 36 36" style="enable-background:new 0 0 36 36;" xml:space="preserve">
<style type="text/css">
	.st0{fill:#CB1618;}
	.st1{fill:#185ABD;}
	.st2{fill:#D83039;}
	.st3{fill:#103F91;}
	.st4{fill:#185C37;}
	.st5{fill:#33C481;}
	.st6{fill:#107C41;}
	.st7{fill:#21A366;}
	.st8{fill:#0B4A99;}
	.st9{fill:none;}
	.st10{fill:#FFFFFF;}
	.st11{fill:#41A5EE;}
	.st12{fill:#2B7CD3;}
	.st13{opacity:0.5;enable-background:new    ;}
	.st14{fill:url(#SVGID_1_);}
	.st15{fill:url(#SVGID_2_);}
	.st16{fill:url(#SVGID_3_);}
	.st17{fill:url(#SVGID_4_);}
	.st18{fill:#E24951;}
	.st19{fill-rule:evenodd;clip-rule:evenodd;}
	.st20{fill:#262625;}
	.st21{fill:none;stroke:#000000;stroke-width:0.75;stroke-miterlimit:10;}
	.st22{fill:none;stroke:#000000;stroke-width:1.2;stroke-miterlimit:10;}
	.st23{fill-rule:evenodd;clip-rule:evenodd;fill:#0B4A99;}
</style>
<g>
	<path class="st8" d="M20,36c-0.5,0-0.9,0-1.4-0.1C8.3,34.8,2.1,28.1,1.5,17.8C1.2,9.8,7.2,3.3,13.3,0.9c4.4-1.7,8.4-1,10.7,1.7
		c1.6,2.1,1.6,3.2,1.6,4.3c0,1,0,2,1.7,4.1c0.4,0.5,1,1,1.6,1.4c1.1,0.8,2.5,1.8,4,4.1c2.2,3.1,2.1,7.8-0.2,12
		C30,33.3,25.3,36,20,36z M17.9,1.3c-1.3,0-2.7,0.3-4.2,0.8C8,4.3,2.4,10.4,2.7,17.7c0.6,9.8,6.3,15.9,16,17
		c5.4,0.5,10.3-2.1,12.9-6.8c2.1-3.7,2.2-8,0.3-10.6l0,0c-1.4-2.1-2.6-3-3.7-3.8c-0.7-0.5-1.3-1-1.9-1.7c-1.9-2.4-1.9-3.7-1.9-4.8
		c0-1,0-1.8-1.4-3.5C21.8,2,20,1.3,17.9,1.3z M22.8,16.1c-0.2,0-0.4,0-0.6-0.1c-2.1-0.3-3.6-1.9-3.9-4c-0.3-2.2,0.8-4.4,2.5-4.7
		c0.5-0.1,2.4-0.2,3.2,3.2c0.1,0.4,0.4,0.7,0.7,1c0.3,0.3,0.7,0.7,0.9,1.3c0.3,0.8,0.1,1.7-0.5,2.3C24.6,15.7,23.7,16.1,22.8,16.1z
		 M21.3,8.6c-0.1,0-0.1,0-0.2,0c-0.9,0.2-1.8,1.6-1.5,3.3c0.2,1.6,1.3,2.7,2.9,2.9l0,0c0.7,0.1,1.4-0.1,1.8-0.5
		c0.3-0.3,0.3-0.7,0.2-1.1c-0.1-0.3-0.3-0.5-0.6-0.8c-0.4-0.4-0.8-0.8-1-1.5C22.5,9.4,21.9,8.6,21.3,8.6z"/>
	<path class="st8" d="M12.1,13c-1.6,0-3-1.4-3-3c0-1.6,1.4-3,3-3c1.6,0,3,1.4,3,3C15.2,11.6,13.8,13,12.1,13z M12.1,8.2
		c-1,0-1.8,0.8-1.8,1.7c0,1,0.8,1.8,1.8,1.8c1,0,1.8-0.8,1.8-1.7C13.9,9,13.1,8.2,12.1,8.2z"/>
	<g>
		<path class="st8" d="M8.9,21.4c-1.6,0-3-1.4-3-3c0-1.6,1.4-3,3-3c1.6,0,3,1.4,3,3C11.9,20,10.5,21.4,8.9,21.4z M8.9,16.6
			c-1,0-1.8,0.8-1.8,1.7c0,1,0.8,1.8,1.8,1.8c1,0,1.8-0.8,1.8-1.7C10.6,17.4,9.8,16.6,8.9,16.6z"/>
	</g>
	<path class="st8" d="M12.7,29.2c-1.6,0-3-1.4-3-3.1c0-1.7,1.4-3,3-3c1.6,0,3,1.4,3,3.1C15.7,27.9,14.3,29.2,12.7,29.2z M12.7,24.4
		c-1,0-1.8,0.8-1.8,1.8c0,1,0.8,1.8,1.8,1.8c1,0,1.7-0.8,1.8-1.8C14.5,25.2,13.7,24.4,12.7,24.4z"/>
	<path class="st8" d="M21.1,32.1c-1.6,0-3-1.4-3-3c0-1.6,1.4-3,3-3c1.6,0,3,1.4,3,3C24.1,30.8,22.7,32.1,21.1,32.1z M21.1,27.3
		c-1,0-1.8,0.8-1.8,1.7c0,1,0.8,1.8,1.8,1.8c0.9,0,1.7-0.8,1.8-1.8C22.9,28.2,22.1,27.3,21.1,27.3z"/>
	<path class="st8" d="M27.3,25.9c-1.6,0-3-1.4-3-3c0-1.6,1.4-3,3-3c1.6,0,3,1.4,3,3C30.3,24.6,28.9,25.9,27.3,25.9z M27.3,21.2
		c-1,0-1.8,0.8-1.8,1.7c0,1,0.8,1.8,1.8,1.8c1,0,1.8-0.8,1.8-1.7C29.1,22,28.3,21.2,27.3,21.2z"/>
</g>
</svg>
