<svg id="Layer_1" data-name="Layer 1" xmlns="http://www.w3.org/2000/svg" viewBox="0 0 36 36"><defs><style>.cls-1{fill:#0b4a99;}</style></defs><path class="cls-1" d="M4.56,20.15l-1,0h0A1.57,1.57,0,0,1,2,18.54V14.26a1.57,1.57,0,0,1,1.57-1.58H5.8a14.93,14.93,0,0,1,1-2.33L5.14,8.65a1.7,1.7,0,0,1,0-2.27l3-3a1.69,1.69,0,0,1,2.28,0L12,4.9a14.42,14.42,0,0,1,2.32-1V1.69A1.76,1.76,0,0,1,15.94.11h4.28a1.57,1.57,0,0,1,1.57,1.58V3.94a14.42,14.42,0,0,1,2.32,1l1.52-1.52a1.67,1.67,0,0,1,2.28,0l3,3a1.67,1.67,0,0,1,0,2.28l-1.52,1.52a14.42,14.42,0,0,1,1,2.32h2.34a1.58,1.58,0,0,1,1.58,1.58v4.27a1.59,1.59,0,0,1-.37,1.25,1.61,1.61,0,0,1-1.21.52l-.71,0L31.93,19l.73,0a.47.47,0,0,0,.37-.12.57.57,0,0,0,.09-.41V14.08a.43.43,0,0,0-.42-.43H30.14A.8.8,0,0,1,29.3,13a13.12,13.12,0,0,0-1-2.43.72.72,0,0,1-.17-.47.74.74,0,0,1,.24-.54L30.1,7.84a.57.57,0,0,0,0-.64l-3-3a.57.57,0,0,0-.64,0l-1.9,1.9h-.18a.69.69,0,0,1-.66-.1,12.47,12.47,0,0,0-2.48-1l-.14-.05-.1-.1a1,1,0,0,1-.35-.68V1.69a.44.44,0,0,0-.42-.42H15.94a.6.6,0,0,0-.53.52V4.15a.8.8,0,0,1-.64.84,13.12,13.12,0,0,0-2.43,1,.72.72,0,0,1-1-.07L9.61,4.19a.55.55,0,0,0-.69,0l-3,3a.56.56,0,0,0,0,.64L7.79,9.76a.74.74,0,0,1,.06,1,12.62,12.62,0,0,0-1,2.47l0,.14-.11.1a1,1,0,0,1-.68.35H3.55a.44.44,0,0,0-.42.43v4.28a.44.44,0,0,0,.42.42l1,0ZM7,10.56H7Zm15.26,0a5.25,5.25,0,0,0-8.2,0l-.9-.72a6.41,6.41,0,0,1,10,0Z"/><path class="cls-1" d="M18.51,35.89l-.3,0a1.72,1.72,0,0,1-1.31-1.09,1.4,1.4,0,0,1-.06-.28,1.38,1.38,0,0,1-1.66.42,2,2,0,0,1-1.36-1.44V33.2A1.4,1.4,0,0,1,12.25,33a1.58,1.58,0,0,1-.42-.38.87.87,0,0,0-.13-.15,1.7,1.7,0,0,1-.35-.8,1.33,1.33,0,0,1-1.36.11,1.87,1.87,0,0,1-1.17-1.43,1.43,1.43,0,0,1,.26-1.25c.91-1.05,1.79-2.05,2.68-3.05s1.78-2,2.65-3a3.08,3.08,0,0,1,.36-.32,1.57,1.57,0,0,0,.21-.17l.12-.09L17,21.4a2.69,2.69,0,0,1,1.28-.34h.25a1.49,1.49,0,0,1,1.12.22,1.88,1.88,0,0,1,.58.85,2,2,0,0,0,.1.21c.13.19.25.4.37.62a4.52,4.52,0,0,0,.32.52c.2.26.36.27.52.24h.11a7.3,7.3,0,0,0,1.26-.17,1.66,1.66,0,0,0,.45-.4l.07-.08a.14.14,0,0,0,0-.19,7,7,0,0,0-.62-1.06l-.69-.93h1.15a4.65,4.65,0,0,0,2.36-.65l.55-.31.26.58a34.72,34.72,0,0,0,3.94,6.81l.3.4-.81.8a2.35,2.35,0,0,1-.6.48l-.26.13L28.79,29c-.2-.1-.4-.23-.6-.35s-.33-.21-.49-.29a1.23,1.23,0,0,0-.89-.1,1.21,1.21,0,0,0-.49.76,1.64,1.64,0,0,0-.08.24,1.7,1.7,0,0,1-.14.39l-.2.41-.45-.11c-1.18-.29-1.52.27-1.68.79l-.2.66L23,31.07,22.81,31a2.07,2.07,0,0,1-.3-.12,1.16,1.16,0,0,0-.87,0,1,1,0,0,0-.4.72l0,.18a.93.93,0,0,1-1,.76.76.76,0,0,0-.38.12c-.39.16-.45.31-.34.69s.33.83.5,1.18l.22.43-.5.37A1.86,1.86,0,0,1,18.51,35.89Zm-.13-2.21-.25.32a.41.41,0,0,0-.13.4.57.57,0,0,0,.43.33.44.44,0,0,0,.34-.08c-.12-.27-.24-.57-.36-.86Zm-3.06-1.07a1.87,1.87,0,0,1-.2.29c0,.07-.09.13-.12.19a.68.68,0,0,0,0,.29c0,.06.12.25.64.46.1,0,.22.09.42-.17.58-.59,1-1.11,1.48-1.66.11-.12.18-.22.26-.31s.21-.26.32-.37l.15-.11a.91.91,0,0,1,1.12,0,.82.82,0,0,1,.2.33,1.59,1.59,0,0,1,.55-.13l0-.07a2,2,0,0,1,.93-1.43,2.23,2.23,0,0,1,1.86-.13,2.18,2.18,0,0,1,2.28-1.1l.06-.14a2.11,2.11,0,0,1,1.07-1.37,2.27,2.27,0,0,1,1.86.09c.23.12.43.24.63.36l.2.13a.38.38,0,0,1,.09-.09l.1-.11a35.27,35.27,0,0,1-3.53-6.07,5.5,5.5,0,0,1-1.38.43l.17.34a1.25,1.25,0,0,1-.15,1.54,2.42,2.42,0,0,1-1.09.82,8,8,0,0,1-1.49.21,1.62,1.62,0,0,1-1.61-.69,7.14,7.14,0,0,1-.41-.65,3.92,3.92,0,0,0-.32-.53l-.06-.09-.14-.3A1,1,0,0,0,19,22.2h0a2,2,0,0,0-.34,0,2.12,2.12,0,0,0-1.06.22l-1.82,1a2,2,0,0,1-.28.23,1.57,1.57,0,0,0-.21.17c-.84,1-1.74,2-2.63,3s-1.76,2-2.62,3c0,0-.1.18-.07.26a.78.78,0,0,0,.48.65c.2.08.24.09.48-.15s.33-.4.52-.61.35-.4.52-.61c.57-.57,1.05-1.13,1.56-1.72.27-.32.55-.63.83-.95.59-.59,1-.38,1.3-.11l.1.15a.94.94,0,0,1,0,1l-.2.24-1.88,2.16-1.08,1.34c-.07.08-.11.12,0,.3a.68.68,0,0,1,.15.17l.11.12.1.06c.16.13.29.16.5,0l2.31-2.57a.86.86,0,0,1,.59-.42.89.89,0,0,1,.88,1.32.35.35,0,0,1-.06.14v.08l-.17.17C16.37,31.39,15.84,32,15.32,32.61Zm.87-2.67.55.1-.52-.24v0h0s0,0,0,.06l0,0,0,0Z"/><path class="cls-1" d="M5.29,29.23a1.08,1.08,0,0,1-.54-.16c-.48-.18-1-.38-1.44-.58S2,28,1.35,27.7a1,1,0,0,1-.43,0H0l.48-.83C2,23.66,3.58,20.47,5.13,17.2l.28-.61L6,17a2.93,2.93,0,0,0,.67.38l.12.06c1.15.71,2.35,1.44,3.63,2.17l.12.1a.75.75,0,0,1,.32.95,21.2,21.2,0,0,1-4.78,8.23A1.06,1.06,0,0,1,5.29,29.23ZM1.86,26.66c.65.24,1.28.5,1.9.76s1,.41,1.46.59l0,0A20.2,20.2,0,0,0,9.67,20.5c-1.22-.7-2.35-1.4-3.45-2.08l-.33-.15C4.55,21.11,3.2,23.89,1.86,26.66Z"/><path class="cls-1" d="M9.35,29.76,9,29.48a10.42,10.42,0,0,0-1-.61c-.35-.22-.71-.43-1-.67l-.48-.34.35-.47A23.4,23.4,0,0,0,10,21.08l.18-.52.52.15A3.29,3.29,0,0,0,13.53,20l1.19-.78c.38-.24.77-.49,1.17-.76A3.22,3.22,0,0,1,17.3,18h3.28a1.64,1.64,0,0,1,1.52.86l.48.89c.48.87.93,1.7,1.35,2.59a1.28,1.28,0,0,1-.3,1.56l-.09.07a2.41,2.41,0,0,1-1.92.31,2.22,2.22,0,0,1-1.45-1c-.15-.29-.28-.54-.42-.78l-.35-.66H17.76s0,0,0,0h0c-.42.28-.86.54-1.3.79s-.85.49-1.25.76a2.13,2.13,0,0,0-.56.56l-2.35,2.68c-.74.86-1.49,1.72-2.26,2.58ZM8.1,27.58l.49.3.62.38c.73-.81,1.45-1.64,2.17-2.47S12.9,24,13.69,23.16a3,3,0,0,1,.83-.82c.42-.28.87-.54,1.31-.8s.82-.47,1.21-.73a1.09,1.09,0,0,1,.72-.21h1.82a1,1,0,0,1,.68.35l.11.15c.13.27.26.51.4.76s.28.51.42.79a1.09,1.09,0,0,0,.7.47,1.3,1.3,0,0,0,1-.12c.09-.09.08-.11,0-.2-.41-.87-.85-1.68-1.32-2.53l-.5-.91c0-.07-.12-.25-.49-.25H17.3a2.25,2.25,0,0,0-.83.31l-1.12.73c-.39.25-.78.5-1.19.78a4.8,4.8,0,0,1-3.22,1A24.42,24.42,0,0,1,8.1,27.58Z"/><path class="cls-1" d="M31.29,28.55h-.13a.81.81,0,0,1-.57-.36,16.81,16.81,0,0,1-1.9-2.52l-.4-.61a49.92,49.92,0,0,1-2.5-4.91l-.2-.46.42-.27L28.26,18l2.21-1.4.54-.34.28.57c1.55,3.1,3,6.25,4.47,9.3l.24.51-.5.25c-.21.1-.41.18-.61.26s-.32.12-.49.2c-.94.38-1.85.74-2.66,1.1A1,1,0,0,1,31.29,28.55Zm-4.24-8.43a46.9,46.9,0,0,0,2.22,4.32l.39.59a15.07,15.07,0,0,0,1.72,2.31c.82-.36,1.69-.71,2.55-1.05a4.46,4.46,0,0,1,.53-.22c-1.26-2.69-2.56-5.44-3.92-8.16-.55.34-1.1.7-1.66,1.06Z"/><path class="cls-1" d="M23.41,34.81a2,2,0,0,1-.42-.05l-.16,0-.11-.12-.09-.06a1.59,1.59,0,0,1-.27-.21L21,32.65a1.49,1.49,0,0,1,.21-2.14,1.58,1.58,0,0,1,2.18,0c.48.47.95,1,1.41,1.59a1.77,1.77,0,0,1,.3.45l.06.09.19.2-.06.24a2,2,0,0,1-.82,1.41A1.81,1.81,0,0,1,23.41,34.81Zm0-1.16a.66.66,0,0,0,.4-.11.83.83,0,0,0,.3-.41l0,0a1.54,1.54,0,0,0-.14-.23c-.48-.56-.93-1.11-1.37-1.54-.23-.23-.52,0-.6,0-.29.3-.19.42-.09.56l1.36,1.62.06,0Z"/><path class="cls-1" d="M25.68,33.32a1.25,1.25,0,0,1-1-.49,10.35,10.35,0,0,1-1-1.11,1.36,1.36,0,0,1-.15-1.6A1.63,1.63,0,0,1,26,29.63a10.24,10.24,0,0,1,1.08.88,2.81,2.81,0,0,1,.47.69l.08.16,0,.19A2.13,2.13,0,0,1,25.68,33.32Zm-.75-2.93h0a.67.67,0,0,0-.38.31c-.07.16,0,.23,0,.26a11.32,11.32,0,0,0,1,1.09l.11.15a1.11,1.11,0,0,0,.78-.67.65.65,0,0,0-.16-.21,8.64,8.64,0,0,0-.93-.76A.8.8,0,0,0,24.93,30.39Z"/><path class="cls-1" d="M27.66,31.22a1.69,1.69,0,0,1-.66-.13,2.31,2.31,0,0,1-1.25-1.62,1.65,1.65,0,0,1,.34-1.36,1.56,1.56,0,0,1,1.23-.5,2.16,2.16,0,0,1,1.66.85,1.65,1.65,0,0,1,.35,1.42,1.7,1.7,0,0,1-1.67,1.34Zm-.34-2.46a.53.53,0,0,0-.36.11.54.54,0,0,0-.07.43,1.14,1.14,0,0,0,.63.76.54.54,0,0,0,.38,0,.58.58,0,0,0,.31-.41.53.53,0,0,0-.14-.43A1,1,0,0,0,27.32,28.76Z"/><path class="cls-1" d="M20.66,35.79l-.16-.07a1.61,1.61,0,0,1-.66-.54,3.82,3.82,0,0,1-.46-.62l-.26-.38a1.42,1.42,0,0,1,0-1.58A1.5,1.5,0,0,1,21,32.08a5.08,5.08,0,0,1,1.27,1.36,1.39,1.39,0,0,1,.1,1.36,1.91,1.91,0,0,1-1.53,1Zm-.28-2.73a.61.61,0,0,0-.34.21.24.24,0,0,0,0,.24c.09.12.19.27.28.41a4,4,0,0,0,.37.51l.11.15,0,0a.7.7,0,0,0,.46-.3s.05-.1-.05-.25A3.79,3.79,0,0,0,20.38,33.06Z"/><path class="cls-1" d="M24.4,18H23.25A5.08,5.08,0,0,0,13.1,18H11.94A6.23,6.23,0,1,1,24.4,18Z"/></svg>