<?xml version="1.0" encoding="utf-8"?>
<!-- Generator: Adobe Illustrator 25.0.0, SVG Export Plug-In . SVG Version: 6.00 Build 0)  -->
<svg version="1.1" id="Layer_1" xmlns="http://www.w3.org/2000/svg" xmlns:xlink="http://www.w3.org/1999/xlink" x="0px" y="0px"
	 viewBox="0 0 100 100" style="enable-background:new 0 0 100 100;" xml:space="preserve">
<style type="text/css">
	.st0{fill:#0B4A99;}
	.st1{fill:#CB1618;}
	.st2{fill:none;}
	.st3{fill:#40875E;}
	.st4{fill:#A8A240;}
	.st5{fill:#F0AB00;}
	.st6{fill:none;stroke:#000000;stroke-width:3;stroke-miterlimit:10;}
</style>
<g>
	<g>
		<path d="M91.27,54.3h-7v-2.27h7c0.38,0,0.69-0.31,0.69-0.69V39.24c0-0.38-0.31-0.68-0.69-0.68v-2.27c1.63,0,2.96,1.33,2.96,2.96
			v12.11C94.23,52.98,92.9,54.3,91.27,54.3z M15.72,54.3H8.73c-1.63,0-2.96-1.33-2.96-2.96V39.24c0-1.63,1.33-2.96,2.96-2.96h6.99
			c0.31,0,0.57-0.22,0.66-0.53c0.73-2.6,1.78-5.11,3.1-7.47c0.16-0.29,0.13-0.63-0.09-0.85l-4.95-4.95
			c-0.56-0.56-0.87-1.3-0.87-2.09c0-0.79,0.31-1.53,0.87-2.09L23,9.74c1.16-1.15,3.03-1.15,4.18,0l4.94,4.95
			c0.22,0.22,0.56,0.26,0.85,0.09c2.36-1.32,4.88-2.37,7.48-3.1c0.32-0.09,0.53-0.36,0.53-0.67V4.02c0-1.63,1.33-2.96,2.96-2.96
			h12.1c1.63,0,2.96,1.33,2.96,2.96v6.99c0,0.31,0.21,0.58,0.53,0.67c2.6,0.73,5.12,1.78,7.48,3.1c0.29,0.16,0.63,0.12,0.85-0.09
			l4.94-4.94c1.12-1.12,3.07-1.12,4.18,0l8.56,8.55c1.15,1.15,1.15,3.03,0,4.18l-4.95,4.94c-0.22,0.22-0.26,0.56-0.1,0.84
			c1.33,2.38,2.37,4.89,3.1,7.48c0.09,0.32,0.36,0.53,0.66,0.53h7v2.27h-7c-1.31,0-2.49-0.9-2.85-2.19
			c-0.69-2.42-1.66-4.77-2.9-6.99c-0.66-1.16-0.46-2.63,0.47-3.56l4.95-4.94c0.27-0.27,0.26-0.7,0-0.97l-8.56-8.55
			c-0.26-0.26-0.71-0.26-0.97,0l-4.94,4.94c-0.93,0.93-2.4,1.12-3.57,0.47c-2.2-1.23-4.55-2.21-6.99-2.89
			c-1.29-0.37-2.19-1.54-2.19-2.85V4.02c0-0.38-0.31-0.69-0.69-0.69h-12.1c-0.38,0-0.69,0.31-0.69,0.69v6.99
			c0,1.34-0.88,2.48-2.19,2.85c-2.43,0.69-4.78,1.66-6.99,2.9c-1.17,0.65-2.64,0.46-3.57-0.47l-4.94-4.94
			c-0.27-0.27-0.7-0.26-0.97,0l-8.56,8.55c-0.13,0.13-0.2,0.3-0.2,0.48c0,0.18,0.07,0.36,0.2,0.48L21,25.82
			c0.93,0.93,1.12,2.4,0.47,3.57c-1.23,2.2-2.2,4.54-2.89,6.97c-0.37,1.31-1.52,2.19-2.85,2.19H8.73c-0.38,0-0.69,0.31-0.69,0.68
			v12.11c0,0.38,0.31,0.69,0.69,0.69h6.99V54.3z M37.12,28.16l-1.77-1.42c3.58-4.47,8.92-7.03,14.65-7.03
			c5.72,0,11.06,2.56,14.65,7.03l-1.77,1.42c-3.15-3.93-7.84-6.18-12.87-6.18C44.97,21.98,40.27,24.23,37.12,28.16z"/>
	</g>
	<g>
		<g>
			<path class="st3" d="M37,36.66c0,7.11,5.79,12.89,12.89,12.89h0c3.44,0,6.67-1.34,9.11-3.78c2.44-2.44,3.78-5.68,3.78-9.11
				c0-7.11-5.79-12.89-12.9-12.89C42.78,23.77,37,29.55,37,36.66z"/>
		</g>
	</g>
	<g>
		<path class="st3" d="M69.27,50.46c5.58,0,10.11-4.54,10.12-10.11c0-5.58-4.53-10.12-10.11-10.12c-2.27,0-4.37,0.75-6.06,2.02
			c0.53,1.45,0.81,3.01,0.81,4.64c0,3.38-1.25,6.48-3.3,8.86C62.52,48.58,65.68,50.46,69.27,50.46z"/>
	</g>
	<g>
		<polygon class="st2" points="48.57,52.28 44.75,50.24 44.75,52.57 45.04,52.37 		"/>
	</g>
	<g>
		<polygon class="st2" points="49.57,53.75 54.4,56.21 54.4,52.12 50.69,52.22 49.57,52.82 48.57,52.28 45.04,52.37 44.75,52.57 
			44.75,56.21 		"/>
	</g>
	<g>
		<polygon class="st2" points="54.4,50.24 50.69,52.22 54.4,52.12 		"/>
	</g>
	<g>
		<polygon class="st2" points="28.68,58.18 27.74,56.7 27.47,56.53 28.59,58.72 		"/>
	</g>
	<g>
		<polygon class="st3" points="50.69,52.22 48.57,52.28 49.57,52.82 		"/>
	</g>
	<g>
		<path class="st3" d="M59.17,46.71c-0.11,0.1-0.23,0.2-0.34,0.3c-0.06,0.05-0.11,0.1-0.17,0.14c-1.1,0.88-3.63,2.52-6.97,3.05
			c-0.33,0.05-0.66,0.1-1,0.12c-0.29,0.02-0.57,0.03-0.86,0.03c-1.05,0-2.07-0.13-3.05-0.35c-3.11-0.79-5.48-2.62-6.16-3.19
			c-0.06-0.06-0.13-0.11-0.2-0.17l-0.11,0.1c-4.12,3.56-6.1,8.5-7.04,12.53l3.04-0.97l8.45-5.73v-2.33l3.82,2.04l2.12-0.06
			l3.71-1.98v1.88l2.29-0.06l6.74,9.99l-0.4-2.2c0,0,1.28,0.19,3.02,0.11C64.37,50.82,60.31,47.48,59.17,46.71z"/>
	</g>
	<g>
		<path class="st3" d="M79.07,52.99c-0.8-1.23-1.78-2.41-2.99-3.46l-0.09-0.07c-0.2,0.19-0.41,0.37-0.63,0.54l-4.48,8.71l-0.8-5.11
			l1.28-2.06c-0.81,0.2-1.66,0.3-2.53,0.3c-0.23,0-0.45-0.01-0.68-0.03c-0.41-0.02-0.81-0.07-1.21-0.14
			c-0.15-0.03-0.31-0.06-0.46-0.09l1.26,2.02l-0.84,4.87c0.13,0.47,0.25,0.93,0.35,1.38c1.85-0.23,3.96-0.83,5.55-2.25L79.07,52.99z
			"/>
	</g>
	<g>
		<path class="st3" d="M24.12,50c-0.22-0.17-0.43-0.35-0.63-0.54l-0.09,0.07c-1.01,0.87-1.85,1.83-2.57,2.84l6.64,4.16L24.12,50z"/>
	</g>
	<g>
		<path class="st3" d="M31.74,53.6l1.26-2.02c-0.15,0.04-0.31,0.06-0.46,0.09c-0.4,0.07-0.8,0.12-1.21,0.14
			c-0.22,0.02-0.45,0.03-0.68,0.03c-0.87,0-1.72-0.11-2.53-0.3l1.28,2.06l-0.71,4.58l0.75,1.18h2.91c0.07-0.29,0.15-0.59,0.24-0.89
			L31.74,53.6z"/>
	</g>
	<g>
		<path class="st3" d="M30.21,50.46c3.59,0,6.75-1.89,8.54-4.71c-2.05-2.38-3.3-5.48-3.3-8.86c0-1.63,0.29-3.19,0.81-4.64
			c-1.69-1.27-3.79-2.02-6.06-2.02c-5.58,0-10.11,4.54-10.11,10.12C20.1,45.93,24.64,50.46,30.21,50.46z"/>
	</g>
	<g>
		<g>
			<path class="st4" d="M53.89,97.68c-0.94,0.76-1.93,1.46-3.33,1.19c-2.26-0.43-3.26-2.91-1.83-4.71c1.04-1.31,2.17-2.56,3.26-3.84
				c0.16-0.19,0.44-0.38,0.44-0.57c0-0.44,0-0.99-0.26-1.27c-0.16-0.18-0.9-0.08-1.16,0.14c-0.62,0.53-1.11,1.21-1.65,1.83
				c-1.34,1.55-2.68,3.09-4.02,4.64c-0.85,0.99-1.92,1.44-3.19,1.08c-1.4-0.4-2.47-1.27-2.79-2.75c-0.11-0.51,0.04-1.15,0.26-1.65
				c0.24-0.54,0.66-1.02,1.05-1.48c1.58-1.82,3.18-3.63,4.77-5.44c0.12-0.14,0.25-0.27,0.36-0.41c0.34-0.42,0.52-0.86,0.04-1.29
				c-0.5-0.44-0.92-0.26-1.33,0.2c-2.24,2.46-4.49,4.91-6.73,7.37c-1.02,1.11-2.42,1.26-3.58,0.33c-0.47-0.38-0.9-0.83-1.25-1.32
				c-0.74-1.03-0.78-1.95,0-2.96c1-1.31,2.1-2.54,3.18-3.79c1.78-2.05,3.58-4.09,5.38-6.13c0.1-0.11,0.2-0.23,0.3-0.35
				c0.36-0.45,0.36-0.89-0.07-1.3c-0.49-0.46-0.87-0.23-1.24,0.18c-2.23,2.51-4.46,5.03-6.68,7.54c-1.05,1.19-2.1,2.38-3.15,3.57
				c-0.94,1.06-1.69,1.21-3.02,0.7c-1.32-0.51-2.03-1.54-2.38-2.83c-0.21-0.79-0.06-1.52,0.54-2.2c4.99-5.61,9.95-11.25,14.93-16.87
				c0.42-0.47,0.94-0.88,1.49-1.19c1.77-1.02,3.59-1.95,5.35-2.99c0.93-0.55,1.86-0.83,2.94-0.75c1,0.08,2.2-0.26,2.95,0.18
				c0.72,0.42,0.94,1.65,1.44,2.48c0.69,1.15,1.36,2.31,2.17,3.36c0.75,0.96,1.85,1.43,3.08,1.31c1.26-0.12,2.58-0.19,3.76-0.6
				c0.9-0.31,1.69-1.06,2.39-1.75c0.78-0.76,0.83-1.7,0.22-2.67c-0.59-0.95-1.12-1.94-1.74-3.04c2.78,0.05,5.23-0.68,7.56-2.07
				c3.14,6.92,6.73,13.52,11.28,19.63c-0.41,0.42-0.8,0.83-1.21,1.23c-0.41,0.4-0.83,0.79-1.2,1.13c-1.03-0.61-1.95-1.28-2.97-1.75
				c-3.01-1.4-5.14-0.45-6.21,2.72c-0.18,0.52-0.31,1.05-0.48,1.65c-3.2-0.81-5.62,0.06-6.8,3.38c-0.48-0.18-0.9-0.34-1.33-0.48
				c-3.12-1.04-5.33,0.21-5.95,3.44c-0.15,0.77-0.36,1.16-1.22,1.21c-0.65,0.04-1.31,0.3-1.91,0.57c-1.7,0.78-2.39,2.17-1.87,3.97
				C52.82,95.43,53.39,96.49,53.89,97.68z"/>
		</g>
		<g>
			<path class="st5" d="M14.66,48.57c0.8,0.49,1.55,0.95,2.29,1.41c3.4,2.1,6.8,4.2,10.2,6.3c0.35,0.22,0.73,0.35,0.53,0.96
				c-2.81,8.44-6.92,16.12-13.14,22.59c-0.6,0.63-1.08,0.71-1.87,0.38c-3.38-1.41-6.78-2.74-10.18-4.1
				c-0.33-0.13-0.65-0.29-0.97-0.44C5.91,66.62,10.27,57.63,14.66,48.57z"/>
		</g>
		<g>
			<path class="st5" d="M28.63,59.18c3.53,1,6.42-0.44,9.2-2.29c2.19-1.45,4.39-2.87,6.58-4.32c0.97-0.64,2-1,3.17-0.99
				c3.08,0.02,6.17,0.04,9.25-0.01c1.36-0.02,2.3,0.54,2.92,1.67c1.76,3.25,3.48,6.51,5.2,9.77c0.51,0.97,0.26,1.84-0.63,2.48
				c-2.3,1.66-5.91,0.84-7.26-1.65c-0.78-1.45-1.53-2.92-2.35-4.35c-0.15-0.27-0.58-0.52-0.89-0.53c-1.74-0.05-3.48-0.04-5.22-0.01
				c-0.35,0.01-0.73,0.11-1.03,0.28c-2.44,1.44-4.9,2.85-7.28,4.39c-0.83,0.53-1.49,1.35-2.15,2.1c-4.29,4.92-8.56,9.87-12.84,14.8
				c-0.24,0.27-0.48,0.54-0.77,0.87c-1.93-1.17-3.83-2.32-5.79-3.5C23.19,72.31,26.18,65.99,28.63,59.18z"/>
		</g>
		<g>
			<path class="st4" d="M73.2,55.33c4.23-2.68,8.4-5.31,12.53-7.93c4.25,8.76,8.47,17.47,12.74,26.27
				c-1.07,0.43-2.13,0.86-3.19,1.28c-2.52,1.01-5.04,1.99-7.55,3.03c-0.58,0.24-0.92,0.15-1.34-0.3c-2.48-2.64-4.5-5.61-6.36-8.7
				C77.44,64.64,75.22,60.1,73.2,55.33z"/>
		</g>
		<g>
			<path class="st5" d="M68.46,92.6c-0.14,2.24-2.35,3.99-4.32,3.33c-0.38-0.13-0.76-0.39-1.02-0.7c-1.27-1.52-2.51-3.06-3.74-4.61
				c-0.97-1.22-0.74-2.6,0.59-3.77c1.24-1.09,2.71-1.11,3.75-0.01c1.34,1.41,2.68,2.83,3.97,4.3C68.05,91.54,68.21,92.11,68.46,92.6
				z"/>
		</g>
		<g>
			<path class="st5" d="M75.26,88.1c-0.21,1.81-2.06,3.64-3.74,3.5c-0.58-0.05-1.24-0.37-1.67-0.77c-1.03-0.94-1.96-2-2.91-3.03
				c-0.82-0.89-0.87-1.82-0.2-2.82c1.29-1.92,2.9-2.16,4.69-0.7c0.97,0.79,1.97,1.54,2.88,2.39C74.73,87.04,74.96,87.61,75.26,88.1z
				"/>
		</g>
		<g>
			<path class="st5" d="M76.09,78.77c2.4-0.03,4.51,2.23,4.08,4.39c-0.42,2.12-2.57,3.18-4.48,2.19c-1.34-0.69-2.28-1.76-2.5-3.28
				C72.91,80.05,74.05,78.79,76.09,78.77z"/>
		</g>
		<g>
			<path class="st5" d="M57.52,98.64c-0.47-0.33-1.04-0.58-1.38-1.01c-0.71-0.87-1.31-1.84-1.94-2.78
				c-0.59-0.88-0.57-1.82,0.04-2.53c0.8-0.93,2.39-1.52,3.09-0.91c1.17,1.03,2.4,2.13,3.18,3.45C61.52,96.59,59.9,98.48,57.52,98.64
				z"/>
		</g>
	</g>
</g>
</svg>
