<?xml version="1.0" encoding="utf-8"?>
<!-- Generator: Adobe Illustrator 25.0.0, SVG Export Plug-In . SVG Version: 6.00 Build 0)  -->
<svg version="1.1" id="Layer_1" xmlns="http://www.w3.org/2000/svg" xmlns:xlink="http://www.w3.org/1999/xlink" x="0px" y="0px"
	 viewBox="0 0 16 16" style="enable-background:new 0 0 16 16;" xml:space="preserve">
<style type="text/css">
	.st0{fill:#40875E;}
	.st1{fill:#A8A240;}
	.st2{fill:#F0AB00;}
</style>
<g>
	<g>
		
			<rect x="12.89" y="10.49" transform="matrix(0.6957 -0.7184 0.7184 0.6957 -3.7903 13.7714)" class="st2" width="2.93" height="1.74"/>
	</g>
	<g>
		
			<rect x="11.04" y="9.29" transform="matrix(0.6957 -0.7184 0.7184 0.6957 -3.6393 11.7306)" class="st2" width="1.97" height="1.74"/>
	</g>
	<g>
		<g>
			
				<rect x="10.11" y="5.51" transform="matrix(0.6956 -0.7184 0.7184 0.6956 -4.6514 11.2759)" class="st1" width="1.74" height="11.24"/>
		</g>
	</g>
	<g>
		<g>
			<path class="st0" d="M8.59,4.57c0.04,2.37-1.86,4.33-4.23,4.37C2,8.97,0.04,7.07,0,4.7c-0.04-2.37,1.86-4.33,4.23-4.37
				C6.6,0.3,8.56,2.2,8.59,4.57z M1.74,4.68c0.02,1.41,1.19,2.54,2.6,2.52S6.88,6,6.86,4.59s-1.19-2.54-2.6-2.52
				C2.84,2.1,1.71,3.26,1.74,4.68z"/>
		</g>
	</g>
</g>
</svg>
