<?xml version="1.0" encoding="iso-8859-1"?>
<!-- Generator: Adobe Illustrator 12.0.0, SVG Export Plug-In . SVG Version: 6.00 Build 51448)  -->
<!DOCTYPE svg PUBLIC "-//W3C//DTD SVG 1.1//EN" "http://www.w3.org/Graphics/SVG/1.1/DTD/svg11.dtd" [
	<!ENTITY ns_svg "http://www.w3.org/2000/svg">
	<!ENTITY ns_xlink "http://www.w3.org/1999/xlink">
]>
<svg  version="1.1" id="Layer_1" xmlns="&ns_svg;" xmlns:xlink="&ns_xlink;" width="60.095" height="60.095"
	 viewBox="0 0 60.095 60.095" style="overflow:visible;enable-background:new 0 0 60.095 60.095;" xml:space="preserve">
<path style="fill:#008FD3;" d="M60.095,52.176c0,4.37-3.771,7.919-8.43,7.919H8.437C3.778,60.095,0,56.546,0,52.176V7.923
	C0,3.55,3.778,0,8.437,0h43.229c4.658,0,8.43,3.55,8.43,7.923V52.176z M57.167,10.079c0-3.947-3.404-7.151-7.608-7.151H10.542
	c-4.204,0-7.614,3.204-7.614,7.151V50.02c0,3.944,3.41,7.147,7.614,7.147h39.017c4.204,0,7.608-3.203,7.608-7.147V10.079z"/>
<g>
	<path style="fill:#008FD3;" d="M47.406,30.048"/>
	<path style="fill:#008FD3;" d="M44.203,43.406c0.542,0.542,0.542,1.417,0,1.959c-0.54,0.54-1.418,0.54-1.957,0
		c0,0-9.037-9.051-9.071-9.091c-3.105,2.186-7.431,1.896-10.206-0.88c-3.105-3.105-3.105-8.159,0-11.264
		c3.106-3.107,8.159-3.107,11.266,0c2.775,2.774,3.072,7.096,0.888,10.203C35.162,34.365,44.203,43.406,44.203,43.406L44.203,43.406
		z M49.914,50.559H26.751V39.837c0.594,0.105,1.197,0.167,1.813,0.167c1.461,0,2.877-0.304,4.185-0.89l2.429,2.429h-6.307v2.212
		h8.519l3.231,3.23c0.689,0.689,1.604,1.07,2.576,1.07c0.974,0,1.891-0.381,2.577-1.07c0.878-0.877,1.211-2.093,1.004-3.23h1.018
		v-2.212h-2.311l-4.004-4.003h6.314v-2.212H39.27l-1.365-1.365c0.422-0.941,0.693-1.925,0.816-2.919h9.075v-2.212h-9.041
		c-0.127-1.339-0.515-2.652-1.162-3.862h10.203v-2.211H35.992c-0.063-0.065-0.122-0.137-0.187-0.201
		c-1.929-1.929-4.496-2.993-7.23-2.993c-0.621,0-1.228,0.063-1.824,0.168v-2.507h23.163V50.559z M36.101,14.226v-3.7
		c0-2.079-1.685-3.765-3.766-3.765H13.402l-6.276,6.277v29.08c0,2.079,1.686,3.765,3.767,3.765h13.084l0.016,0.968v2.721
		c0,2.079,1.687,3.765,3.766,3.765h21.444c2.079,0,3.766-1.686,3.766-3.765V17.979c0-2.08-1.687-3.766-3.766-3.766H27.759
		l-2.577,0.267H12.199v2.839h11.729v3.364c-0.297,0.153-0.586,0.318-0.865,0.497H12.199v2.212h8.402
		c-1.013,1.258-1.701,2.717-2.027,4.286h-6.375v2.211h6.159c0.014,1.402,0.309,2.756,0.855,4.003h-7.014v2.212h8.343
		c0.25,0.315,0.512,0.625,0.802,0.912c0.767,0.77,1.643,1.393,2.583,1.873v4.018H10.081V14.001l4.236-4.427h18.927l-0.02,4.691
		L36.101,14.226z"/>
	<g>
		<path style="fill:#008FD3;" d="M22.075,30.8l-0.007,0.006l-0.264,0.705l-0.549-0.412l0.376-0.972l0.5-0.448l2.563,2.86
			l-0.588,0.526L22.075,30.8z"/>
		<path style="fill:#008FD3;" d="M26.3,31.186c-0.672,0.602-1.563,0.203-2.292-0.603c-0.745-0.832-1.013-1.767-0.341-2.369
			c0.692-0.62,1.579-0.186,2.281,0.598c0.789,0.88,1.013,1.781,0.356,2.37L26.3,31.186z M25.855,30.672
			c0.235-0.212,0.072-0.651-0.512-1.303c-0.567-0.633-0.991-0.856-1.235-0.637c-0.228,0.204-0.084,0.654,0.496,1.3
			c0.587,0.665,1.015,0.852,1.247,0.644L25.855,30.672z"/>
		<path style="fill:#008FD3;" d="M26.058,27.23l-0.008,0.007l-0.263,0.704l-0.55-0.412l0.376-0.971l0.5-0.448l2.562,2.858
			l-0.587,0.528L26.058,27.23z"/>
		<path style="fill:#008FD3;" d="M30.283,27.616c-0.672,0.602-1.563,0.202-2.292-0.604c-0.745-0.831-1.013-1.765-0.341-2.368
			c0.692-0.619,1.578-0.186,2.281,0.598c0.789,0.88,1.012,1.782,0.356,2.37L30.283,27.616z M29.838,27.102
			c0.235-0.211,0.072-0.651-0.512-1.303c-0.567-0.633-0.991-0.856-1.235-0.638c-0.228,0.205-0.084,0.655,0.496,1.3
			c0.587,0.664,1.015,0.852,1.247,0.644L29.838,27.102z"/>
		<path style="fill:#008FD3;" d="M30.041,23.66l-0.008,0.008l-0.263,0.703l-0.55-0.412l0.376-0.971l0.5-0.448l2.562,2.859
			l-0.588,0.527L30.041,23.66z"/>
		<path style="fill:#008FD3;" d="M25.391,34.499l-0.007,0.008l-0.264,0.703l-0.549-0.412l0.376-0.972l0.5-0.448l2.563,2.86
			l-0.588,0.526L25.391,34.499z"/>
		<path style="fill:#008FD3;" d="M27.382,32.715l-0.009,0.006l-0.263,0.705l-0.549-0.412l0.376-0.973l0.5-0.447L30,34.452
			l-0.588,0.527L27.382,32.715z"/>
		<path style="fill:#008FD3;" d="M31.607,33.101c-0.672,0.602-1.563,0.202-2.292-0.604c-0.745-0.831-1.013-1.766-0.341-2.368
			c0.692-0.621,1.579-0.186,2.281,0.597c0.788,0.881,1.013,1.782,0.356,2.37L31.607,33.101z M31.162,32.587
			c0.235-0.212,0.071-0.651-0.512-1.303c-0.567-0.633-0.991-0.857-1.235-0.638c-0.228,0.203-0.084,0.654,0.496,1.3
			c0.587,0.664,1.015,0.852,1.248,0.645L31.162,32.587z"/>
		<path style="fill:#008FD3;" d="M33.599,31.315c-0.672,0.602-1.563,0.203-2.292-0.603c-0.745-0.832-1.013-1.766-0.341-2.368
			c0.692-0.62,1.579-0.186,2.281,0.597c0.788,0.88,1.013,1.783,0.356,2.37L33.599,31.315z M33.153,30.801
			c0.236-0.21,0.072-0.651-0.512-1.302c-0.567-0.634-0.991-0.857-1.235-0.639c-0.228,0.205-0.084,0.655,0.496,1.301
			c0.587,0.664,1.015,0.852,1.247,0.643L33.153,30.801z"/>
		<path style="fill:#008FD3;" d="M33.356,27.359l-0.009,0.008l-0.263,0.703l-0.549-0.411l0.376-0.972l0.5-0.448l2.563,2.86
			l-0.588,0.526L33.356,27.359z"/>
	</g>
</g>
</svg>
