<?xml version="1.0" encoding="utf-8"?>
<!-- Generator: Adobe Illustrator 25.0.0, SVG Export Plug-In . SVG Version: 6.00 Build 0)  -->
<svg version="1.1" id="Layer_1" xmlns="http://www.w3.org/2000/svg" xmlns:xlink="http://www.w3.org/1999/xlink" x="0px" y="0px"
	 viewBox="0 0 36 36" style="enable-background:new 0 0 36 36;" xml:space="preserve">
<style type="text/css">
	.st0{fill:#7AB5F4;}
	.st1{fill:#FFFFFF;}
	.st2{fill:#0B4A99;}
	.st3{fill:#CB1618;}
	.st4{fill:none;}
	.st5{opacity:0.25;}
	.st6{fill:none;stroke:#0B4A99;stroke-width:3.000000e-02;stroke-miterlimit:10;}
</style>
<path class="st0" d="M17.2,0.5V19h18.1C35.3,19,35.9,1.7,17.2,0.5z"/>
<g>
	<g>
		<path class="st2" d="M18,36C8.1,36,0,27.9,0,18C0,8.5,7.5,0.6,17,0l0.7,0v18.9l13.8,11L31,30.4C27.6,34,23,36,18,36z M16.4,1.4
			C7.9,2.2,1.3,9.3,1.3,18c0,9.2,7.5,16.7,16.7,16.7c4.4,0,8.5-1.7,11.6-4.7L16.4,19.5V1.4z"/>
	</g>
	<g>
		<path class="st2" d="M35.9,19.8H17.1c-0.4,0-0.7-0.3-0.7-0.7v-19L17.3,0c0.2,0,0.5,0,0.7,0c9.9,0,18,8.1,18,18c0,0.3,0,0.7,0,1
			L35.9,19.8z M17.7,18.5h17.1c0-0.2,0-0.4,0-0.5c0-9.2-7.5-16.7-16.7-16.7c-0.1,0-0.2,0-0.3,0V18.5z"/>
	</g>
	<g>
		<path class="st2" d="M30.6,30.8L16.9,19.9c-0.2-0.2-0.3-0.5-0.2-0.8c0.1-0.3,0.4-0.5,0.7-0.5H36l0,0.7c-0.3,4.2-2,8.1-4.9,11.2
			L30.6,30.8z M18.8,19.8l11.7,9.3c2.3-2.6,3.7-5.9,4.1-9.3H18.8z M17.7,18.9L17.7,18.9C17.7,18.9,17.7,18.9,17.7,18.9z"/>
	</g>
</g>
</svg>
