<?xml version="1.0" encoding="utf-8"?>
<!-- Generator: Adobe Illustrator 25.0.0, SVG Export Plug-In . SVG Version: 6.00 Build 0)  -->
<svg version="1.1" id="Layer_1" xmlns="http://www.w3.org/2000/svg" xmlns:xlink="http://www.w3.org/1999/xlink" x="0px" y="0px"
	 viewBox="0 0 36 36" style="enable-background:new 0 0 36 36;" xml:space="preserve">
<style type="text/css">
	.st0{fill:#C2CCD3;stroke:#0B4A99;stroke-width:0.25;stroke-miterlimit:10;}
	.st1{fill:#0B4A99;}
	.st2{fill:#CB1618;}
	.st3{fill:none;}
	.st4{fill:none;stroke:#0B4A99;stroke-width:0.5;stroke-miterlimit:10;}
	.st5{opacity:0.25;}
	.st6{fill:none;stroke:#0B4A99;stroke-width:3.000000e-02;stroke-miterlimit:10;}
	.st7{fill:#7AB5F4;}
	.st8{fill:#C2CCD3;stroke:#0B4A99;stroke-width:0.5;stroke-miterlimit:10;}
	.st9{fill:#C2CCD3;stroke:#0B4A99;stroke-width:0.1;stroke-miterlimit:10;}
</style>
<path class="st0" d="M17.2,0.2l0.1,19l18.4,0C35.7,19.2,36.8,1.4,17.2,0.2z"/>
<path class="st1" d="M18,36c-0.8,0-1.7-0.1-2.5-0.2C7.6,34.8,1.1,28.2,0.1,20.2c-0.6-5.1,0.8-10,4.1-13.8C7.5,2.6,12.2,0.3,17.1,0
	l0.3,0v18.9H36l0,0.3c-0.3,3.9-1.8,7.7-4.5,10.7l0,0l-0.2,0.2c0,0,0,0,0,0l-0.1,0.2l0,0C27.7,34,23,36,18,36z M16.9,0.5
	C12.2,0.8,7.7,3.1,4.6,6.7c-3.2,3.8-4.6,8.5-4,13.5c0.9,7.7,7.2,14.1,14.9,15.2c5.7,0.8,11.3-1.2,15.2-5.4L17,19.4l0,0
	c-0.1-0.1-0.1-0.1-0.1-0.2V0.5z M17.9,19.4l13.2,10.2c2.5-2.8,4-6.4,4.4-10.2H17.9z"/>
<path class="st1" d="M35.9,19.4h-19l0-0.3V0.1l0.2,0c0.1,0,0.2,0,0.3,0c0.2,0,0.4,0,0.6,0c9.9,0,18,8.1,18,18c0,0.3,0,0.7,0,1
	L35.9,19.4z M17.4,18.9h18.1c0-0.3,0-0.6,0-0.9c0-9.7-7.9-17.5-17.5-17.5c-0.2,0-0.4,0-0.5,0c0,0-0.1,0-0.1,0V18.9z"/>
</svg>
