<?xml version="1.0" encoding="utf-8"?>
<!-- Generator: Adobe Illustrator 22.0.1, SVG Export Plug-In . SVG Version: 6.00 Build 0)  -->
<svg version="1.1" id="Layer_1" xmlns="http://www.w3.org/2000/svg" xmlns:xlink="http://www.w3.org/1999/xlink" x="0px" y="0px"
	 viewBox="0 0 30 30" style="enable-background:new 0 0 30 30;" xml:space="preserve">
<style type="text/css">
	.st0{fill:#008520;}
	.st1{opacity:0.5;fill:none;stroke:#000000;stroke-width:5.000000e-02;stroke-miterlimit:10;}
	.st2{fill:#0C4B96;}
	.st3{fill:#C63621;}
	.st4{fill:#F85544;}
	.st5{fill:#EFC150;}
	.st6{fill:#27314E;}
	.st7{fill:#063ABC;}
	.st8{fill:#C74E41;}
	.st9{fill:#C67E42;}
	.st10{fill:#2CBCBB;}
	.st11{fill:#134658;}
	.st12{fill:none;stroke:#134658;stroke-miterlimit:10;}
	.st13{fill:#2BBBBA;}
	.st14{fill:#8C7053;}
	.st15{fill:#A93B33;}
	.st16{fill:#2F99A5;}
	.st17{fill:#654538;}
	.st18{fill:#BE5141;}
	.st19{fill:none;stroke:#134658;stroke-width:0.75;stroke-miterlimit:10;}
	.st20{fill:none;}
	.st21{opacity:0.5;}
	.st22{fill:#FF040F;}
	.st23{fill:#00A4F5;}
	.st24{fill:#70B74F;}
	.st25{fill:#F45DF4;}
	.st26{fill:#213763;}
	.st27{fill:#E8C67C;}
	.st28{fill:#135D7A;}
	.st29{fill:#A07C2B;}
	.st30{fill:none;stroke:#FF040F;stroke-width:0.25;stroke-miterlimit:10;}
	.st31{fill:#00457F;}
	.st32{fill:#48A030;}
	.st33{fill:#FFD445;}
	.st34{fill:#FF431D;}
	.st35{fill:#39B0C7;}
	.st36{fill:#5379A9;}
	.st37{fill:#E84049;}
	.st38{fill:#F57C45;}
	.st39{fill:#F1602D;}
	.st40{fill:#945965;}
	.st41{fill:#5C55A8;}
	.st42{fill:#4673C5;}
	.st43{fill:#E68549;}
	.st44{fill:none;stroke:#000000;stroke-width:0.15;stroke-miterlimit:10;}
	.st45{fill:none;stroke:#000000;stroke-width:0.1;stroke-miterlimit:10;}
	.st46{fill:#278EAA;}
	.st47{fill:#39BCA9;}
	.st48{fill:#EFCC3C;}
	.st49{fill:#E04444;}
</style>
<g>
	<path class="st31" d="M14.7,0.2c-6,0.1-11.1,3.8-13.3,9L15,15L14.7,0.2z"/>
	<path class="st32" d="M15,15l5.9-13.6c-1.8-0.8-3.8-1.2-5.9-1.2c-0.1,0-0.2,0-0.3,0L15,15L15,15z"/>
	<polygon class="st27" points="15,15 15,15 15,15 	"/>
	<path class="st33" d="M20.9,1.4L15,15l10.6,10.3c2.6-2.7,4.2-6.3,4.2-10.3C29.8,8.9,26.1,3.7,20.9,1.4z"/>
	<path class="st34" d="M15,15L15,15L15,15L1.4,9.1c-0.8,1.8-1.2,3.8-1.2,5.9c0,6.1,3.7,11.3,9,13.6c1.8,0.8,3.8,1.2,5.9,1.2
		c0.1,0,0.3,0,0.4,0c4-0.1,7.6-1.8,10.2-4.5L15,15z"/>
</g>
</svg>
