<?xml version="1.0" encoding="utf-8"?>
<!-- Generator: Adobe Illustrator 25.0.0, SVG Export Plug-In . SVG Version: 6.00 Build 0)  -->
<svg version="1.1" id="Layer_1" xmlns="http://www.w3.org/2000/svg" xmlns:xlink="http://www.w3.org/1999/xlink" x="0px" y="0px"
	 viewBox="0 0 432 192" style="enable-background:new 0 0 432 192;" xml:space="preserve">
<style type="text/css">
	.st0{fill:#FFFFFF;}
</style>
<g>
	<path class="st0" d="M34.2,118.8V27.2h33c12.5,0,20.7,0.5,24.4,1.4c5.8,1.4,10.7,4.4,14.7,9c3.9,4.6,5.9,10.6,5.9,17.9
		c0,5.6-1.1,10.4-3.4,14.2c-2.3,3.8-5.1,6.9-8.6,9.1c-3.5,2.2-7,3.6-10.6,4.4c-4.9,0.9-12,1.3-21.3,1.3h-5.7v34.3H34.2z M62.4,45.6
		V66h2.8c6.3,0,10.5-0.4,12.6-1.1c2.1-0.8,3.8-1.9,5-3.5c1.2-1.6,1.8-3.5,1.8-5.6c0-2.6-0.8-4.8-2.5-6.5c-1.7-1.7-3.8-2.8-6.4-3.2
		c-1.9-0.3-5.7-0.5-11.5-0.5H62.4z"/>
</g>
<rect x="125.9" y="52.2" class="st0" width="25.3" height="66.6"/>
<rect x="125.9" y="27.2" class="st0" width="25.3" height="17.3"/>
<polygon class="st0" points="169.3,113 169.3,27.2 197.5,27.2 197.5,96.4 242.4,96.4 242.4,118.8 169.3,118.8 "/>
<path class="st0" d="M250.5,85.1c0-5.5,1.4-10.9,4.1-16c2.7-5.2,6.6-9.1,11.7-11.8c5-2.7,10.7-4.1,16.9-4.1c9.6,0,17.5,3.1,23.6,9.3
	c6.1,6.2,9.2,14,9.2,23.4c0,9.5-3.1,17.4-9.3,23.6c-6.2,6.2-14,9.4-23.4,9.4c-5.8,0-11.4-1.3-16.6-3.9c-5.3-2.6-9.3-6.4-12-11.4
	C251.8,98.4,250.5,92.3,250.5,85.1z M269.5,86c0,5.8,1.3,10.3,4,13.4c2.6,3.1,5.9,4.6,9.8,4.6c3.9,0,7.1-1.6,9.8-4.6
	c2.6-3.1,3.9-7.6,3.9-13.5c0-5.8-1.3-10.2-3.9-13.3c-2.6-3.1-5.9-4.6-9.8-4.6c-3.9,0-7.1,1.5-9.8,4.6
	C270.8,75.7,269.5,80.1,269.5,86z"/>
<path class="st0" d="M355.2,75.2c2.1-2.4,4.8-3.6,8.1-3.6c3.4,0,6.1,1.2,8.3,3.7c2.2,2.4,3.3,6.2,3.3,11.2c0,4.8-1.1,8.5-3.4,10.9
	c-2.3,2.5-5.1,3.7-8.4,3.7c-3.1,0-5.7-1.2-7.8-3.6c-2.1-2.4-3.2-6.2-3.2-11.3C352,81.3,353.1,77.6,355.2,75.2z M373.8,126.5
	c-3.1,6.3-10,5.9-10,5.9c-3.7,0-6.4-0.6-8.1-1.8c-1.2-0.8-2-2.4-2.4-4.6l-24.4-2.4c0,0.8-0.1,1.5-0.1,2c0,5.7,2.4,13,7.2,16.7
	c4.8,3.7,13,5.6,24.5,5.6c6.1,0,18.5-0.6,22.5-1.8c4-1.2,7.2-2.9,9.5-5c2.4-2.1,4.2-5.1,5.6-8.8c1.3-3.7,2-10,2-17.6l0-2.8V53.2H376
	v10.4c-5.4-6.9-12.3-10.4-20.7-10.4c-8.1,0-14.9,2.8-20.4,8.5c-5.5,5.7-8.2,13.8-8.2,24.5c0,8.5,2.1,16,6.2,21.7
	c5.3,7.3,12.5,10.9,21.6,10.9c8.2,0,14.9-3.5,20.4-10.5l-0.1,9.1v0.3c0,3.8-0.3,7-0.8,8.4L373.8,126.5z"/>
<rect x="34.2" y="128.2" class="st0" width="289.4" height="19.7"/>
<g>
	<polygon class="st0" points="399.8,147.8 399.8,142.7 397.8,142.7 397.8,142 402.5,142 402.5,142.7 400.6,142.7 400.6,147.8 	"/>
	<polygon class="st0" points="408.6,147.8 407.9,147.8 407.9,142.8 406.4,146.2 405.9,146.2 404.4,142.8 404.4,147.8 403.7,147.8 
		403.7,142 404.7,142 406.2,145.2 407.6,142 408.6,142 	"/>
</g>
</svg>
