<?xml version="1.0" encoding="iso-8859-1"?>
<!-- Generator: Adobe Illustrator 12.0.0, SVG Export Plug-In . SVG Version: 6.00 Build 51448)  -->
<!DOCTYPE svg PUBLIC "-//W3C//DTD SVG 1.1//EN" "http://www.w3.org/Graphics/SVG/1.1/DTD/svg11.dtd" [
	<!ENTITY ns_svg "http://www.w3.org/2000/svg">
	<!ENTITY ns_xlink "http://www.w3.org/1999/xlink">
]>
<svg  version="1.1" id="Layer_1" xmlns="&ns_svg;" xmlns:xlink="&ns_xlink;" width="374.482" height="120.668"
	 viewBox="0 0 374.482 120.668" style="overflow:visible;enable-background:new 0 0 374.482 120.668;" xml:space="preserve">
<g>
	<g>
		<g>
			<path style="fill:#144A9A;" d="M0,91.592V0h32.992c12.502,0,20.652,0.461,24.449,1.379c5.832,1.381,10.717,4.381,14.654,9
				C76.032,14.999,78,20.965,78,28.28c0,5.645-1.135,10.391-3.4,14.236s-5.145,6.865-8.637,9.061s-7.043,3.646-10.648,4.357
				c-4.904,0.879-12.004,1.316-21.299,1.316h-5.738v34.341H0z M28.265,18.407v20.437h2.822c6.286,0,10.488-0.375,12.607-1.129
				c2.12-0.753,3.78-1.932,4.984-3.537c1.203-1.604,1.805-3.472,1.805-5.601c0-2.62-0.845-4.782-2.533-6.485
				s-3.826-2.767-6.411-3.193c-1.904-0.327-5.729-0.491-11.476-0.491H28.265z"/>
		</g>
		<rect x="91.771" y="25" style="fill:#144A9A;" width="25.278" height="66.593"/>
		<rect x="91.772" y="0" style="fill:#144A9A;" width="25.278" height="17.26"/>
		<polygon style="fill:#144A9A;" points="135.096,85.824 135.096,0 163.375,0 163.375,69.24 208.223,69.24 208.225,91.594 
			135.096,91.594 		"/>
		<path style="fill:#144A9A;" d="M216.301,57.894c0-5.516,1.375-10.855,4.123-16.018c2.748-5.163,6.643-9.104,11.682-11.823
			c5.039-2.719,10.666-4.078,16.879-4.078c9.6,0,17.469,3.084,23.604,9.251s9.201,13.961,9.201,23.378
			c0,9.5-3.098,17.369-9.291,23.615c-6.195,6.246-13.992,9.369-23.393,9.369c-5.816,0-11.363-1.299-16.643-3.9
			c-5.277-2.6-9.291-6.414-12.039-11.438C217.676,71.225,216.301,65.104,216.301,57.894z M235.301,58.78
			c0,5.829,1.324,10.296,3.973,13.392c2.648,3.098,5.914,4.648,9.799,4.648c3.883,0,7.141-1.551,9.771-4.648
			c2.629-3.096,3.945-7.601,3.945-13.502c0-5.755-1.316-10.18-3.945-13.279c-2.631-3.098-5.889-4.647-9.771-4.647
			c-3.885,0-7.15,1.55-9.799,4.647C236.625,48.49,235.301,52.952,235.301,58.78z"/>
		<path style="fill:#144A9A;" d="M321.029,48.03c2.115-2.396,4.805-3.594,8.068-3.594c3.361,0,6.139,1.222,8.336,3.662
			c2.197,2.441,3.295,6.179,3.295,11.214c0,4.821-1.146,8.461-3.439,10.914c-2.295,2.457-5.105,3.686-8.434,3.686
			c-3.1,0-5.711-1.199-7.826-3.594s-3.174-6.17-3.174-11.326C317.855,54.081,318.914,50.425,321.029,48.03z M339.668,99.273
			c-3.084,6.334-10.004,5.902-10.004,5.902c-3.666,0-6.35-0.6-8.055-1.797c-1.236-0.84-2.023-2.377-2.365-4.611l-24.445-2.387
			c-0.043,0.801-0.063,1.484-0.063,2.047c0,5.699,2.404,12.957,7.217,16.67c4.814,3.713,12.971,5.57,24.469,5.57
			c6.09,0,18.498-0.604,22.48-1.805c3.98-1.205,7.164-2.869,9.549-4.994c2.387-2.127,4.238-5.057,5.561-8.785
			c1.318-3.73,1.98-10.018,1.98-17.559l-0.004-2.834V25.99h-24.203v10.395c-5.438-6.941-12.34-10.412-20.705-10.412
			c-8.113,0-14.9,2.829-20.357,8.482c-5.457,5.655-8.186,13.837-8.186,24.543c0,8.543,2.082,15.963,6.242,21.697
			c5.309,7.26,12.508,10.889,21.598,10.889c8.154,0,14.938-3.498,20.352-10.494l-0.074,9.078v0.283c0,3.785-0.277,7.033-0.83,8.443
			L339.668,99.273z"/>
		<rect x="0" y="100.975" style="fill:#CD1618;" width="289.427" height="19.684"/>
		<g>
			<polygon style="fill:#144A9A;" points="365.623,120.646 365.623,115.514 363.67,115.514 363.67,114.826 368.35,114.826 
				368.35,115.514 366.396,115.514 366.396,120.646 			"/>
			<polygon style="fill:#144A9A;" points="374.482,120.646 373.709,120.646 373.709,115.631 372.197,119.045 371.73,119.045 
				370.232,115.631 370.232,120.646 369.506,120.646 369.506,114.826 370.563,114.826 372.012,118.066 373.408,114.826 
				374.482,114.826 			"/>
		</g>
	</g>
	<rect style="fill:none;" width="374.482" height="120.668"/>
</g>
</svg>
