<?xml version="1.0" encoding="utf-8"?>
<!-- Generator: Adobe Illustrator 25.0.0, SVG Export Plug-In . SVG Version: 6.00 Build 0)  -->
<svg version="1.1" id="Layer_1" xmlns="http://www.w3.org/2000/svg" xmlns:xlink="http://www.w3.org/1999/xlink" x="0px" y="0px"
	 viewBox="0 0 100 100" style="enable-background:new 0 0 100 100;" xml:space="preserve">
<style type="text/css">
	.st0{fill:#0B4A99;}
	.st1{fill:#CB1618;}
	.st2{fill:none;}
	.st3{fill:#40875E;}
	.st4{fill:#A8A240;}
	.st5{fill:#F0AB00;}
	.st6{fill:none;stroke:#000000;stroke-width:3;stroke-miterlimit:10;}
</style>
<g>
	<path class="st5" d="M0.65,70.75c1.95-0.81,9.47-3.99,11.46-4.84c0.27-0.11,0.58,0.02,0.68,0.29l7.73,19.87
		c0.1,0.26-0.02,0.55-0.27,0.66L8.59,91.84C8.32,91.96,8,91.83,7.9,91.55L0.36,71.4C0.27,71.14,0.39,70.85,0.65,70.75z"/>
	<circle class="st4" cx="15.47" cy="84.33" r="2.03"/>
	<path class="st4" d="M84.58,40.77c-2.28-0.88-4.31-1.66-6.34-2.44c-7.3-2.8-14.59-5.6-21.89-8.4c-1.91-0.73-1.91-0.73-1.67-2.94
		c0.67,0.24,1.32,0.47,1.96,0.71c10.07,3.86,20.13,7.73,30.2,11.55c0.53,0.2,1.26,0.19,1.8-0.01c3.74-1.34,7.45-2.76,11.36-4.23
		c-2.95-1.11-5.72-2.15-8.49-3.19c-11.95-4.49-23.91-8.97-35.86-13.47c-0.7-0.26-1.3-0.3-2.03-0.02
		C39.23,23.77,24.81,29.17,10.4,34.58c-0.31,0.12-0.62,0.25-1.11,0.45c1.89,0.72,3.62,1.39,5.36,2.04
		c12.96,4.87,25.92,9.74,38.89,14.57c0.57,0.21,1.35,0.27,1.91,0.07c9.48-3.51,18.93-7.07,28.39-10.62
		C83.99,41.03,84.14,40.96,84.58,40.77z"/>
	<path class="st3" d="M47.59,58.59c0,0,16.21,6.72,17.69,7.18c0.84,0.26,3.3,0.84,5.14,1.86c2.48-0.85,4.91-1.89,7.29-3.12
		c3.19-1.65,3.21-1.62,3.21-5.21c0-4.28,0-8.57,0-12.85c0-0.33,0-0.67,0-1.16c-3.74,1.4-7.31,2.73-10.87,4.07
		c-4.92,1.85-9.84,3.71-14.77,5.53c-0.42,0.15-1,0.12-1.42-0.03c-8.18-3.04-16.35-6.11-24.53-9.18c-0.31-0.11-0.62-0.21-1.03-0.35
		c0,0.42,0,0.72,0,1.02c0,4.39,0,8.78-0.01,13.17C30.56,58.35,37.1,55.83,47.59,58.59z"/>
	<path class="st3" d="M99.96,67.84c-1.38-5.08-13.59-2.62-16.62-1.49c-2.68,1-7.96,2.02-9.15,2.24c-0.1,0.02-0.13,0.14-0.06,0.21
		c1.98,1.91,1.15,4.47,1.15,4.47s-1.9,6.56-12.05,3.9c-8.68-2.28-11.93-3.62-12.69-3.96c-0.04-0.02-0.02-0.07,0.02-0.07
		c1.29,0.14,8.34,0.92,12.16,2.08c4.21,1.28,9.13,0.82,9.85-2.31c0.31-1.36-0.74-2.39-2.14-3.17c-1.84-1.02-4.3-1.59-5.14-1.86
		c-1.49-0.46-17.69-7.18-17.69-7.18c-10.49-2.77-17.03-0.25-19.3,0.92c-0.59,0.3-0.91,0.52-0.91,0.52l-11.59,5.9l5.95,14.87
		c9.28-3.95,17.85-1.85,17.85-1.85s18.98,4.62,20.51,5.03c1.54,0.41,3.95,0,3.95,0l6-2.46C70.06,83.63,101.34,72.91,99.96,67.84z"/>
	<path class="st5" d="M84.07,76.49c2.04-1.42,4.02-1.46,6.12,0.06c-0.16-2.32-0.3-4.48-0.44-6.63c-0.18-2.65-0.33-5.31-0.58-7.96
		c-0.1-1.06-0.4-2.1-0.65-3.15c-0.12-0.49-0.43-0.69-0.98-0.57c-0.53,0.11-1.35-0.1-1.58,0.19c-0.43,0.54-0.67,1.33-0.75,2.05
		c-0.24,2.21-0.39,4.43-0.55,6.64c-0.22,2.92-0.42,5.85-0.62,8.77C84.03,76.05,84.05,76.21,84.07,76.49z"/>
	<path class="st5" d="M87.09,57.17c1.33,0,2.46-1.11,2.46-2.43c0-1.34-1.09-2.43-2.45-2.43c-1.35-0.01-2.46,1.08-2.46,2.42
		C84.65,56.05,85.76,57.17,87.09,57.17z"/>
	<path class="st5" d="M87.7,42.3c-0.99,0.02-1.33,0.46-1.3,1.45c0.08,2.11,0.02,4.23,0.02,6.35c0,0.33,0,0.65,0,1.01
		c0.48,0,0.84,0,1.27,0C87.7,48.18,87.7,45.27,87.7,42.3z"/>
</g>
</svg>
