<?xml version="1.0" encoding="utf-8"?>
<!-- Generator: Adobe Illustrator 25.0.0, SVG Export Plug-In . SVG Version: 6.00 Build 0)  -->
<svg version="1.1" id="Layer_1" xmlns="http://www.w3.org/2000/svg" xmlns:xlink="http://www.w3.org/1999/xlink" x="0px" y="0px"
	 viewBox="0 0 4088.97 1303.94" style="enable-background:new 0 0 4088.97 1303.94;" xml:space="preserve">
<style type="text/css">
	.st0{fill:#0B4A99;}
	.st1{fill:#CB1618;}
</style>
<g>
	<g>
		<path class="st0" d="M60.56,985.35V8.49h351.87c133.34,0,220.26,4.92,260.76,14.71c62.2,14.73,114.3,46.72,156.29,95.99
			c41.97,49.26,62.97,112.9,62.97,190.91c0,60.2-12.1,110.82-36.27,151.84c-24.16,41.02-54.87,73.22-92.11,96.63
			s-75.12,38.89-113.57,46.47c-52.31,9.37-128.03,14.04-227.16,14.04h-61.2v366.27H60.56z M362.01,204.8v217.96h30.1
			c67.04,0,111.86-4,134.46-12.05c22.61-8.03,40.32-20.6,53.16-37.72c12.83-17.11,19.25-37.03,19.25-59.73
			c0-27.94-9.01-51-27.02-69.17s-40.81-29.51-68.38-34.05c-20.3-3.49-61.11-5.24-122.39-5.24H362.01z"/>
	</g>
	<rect x="1039.33" y="275.12" class="st0" width="269.6" height="710.24"/>
	<rect x="1039.33" y="8.49" class="st0" width="269.6" height="184.08"/>
	<polygon class="st0" points="1501.4,923.83 1501.4,8.49 1803,8.49 1803,746.96 2281.33,746.96 2281.34,985.36 1501.4,985.36 	"/>
	<path class="st0" d="M2367.49,625.94c0-58.83,14.66-115.78,43.97-170.83c29.31-55.07,70.85-97.09,124.59-126.1
		c53.74-29,113.76-43.49,180.02-43.49c102.38,0,186.31,32.89,251.73,98.67c65.43,65.77,98.14,148.9,98.14,249.33
		c0,101.32-33.05,185.25-99.1,251.87c-66.06,66.62-149.23,99.92-249.48,99.92c-62.03,0-121.2-13.86-177.5-41.61
		c-56.28-27.73-99.09-68.4-128.4-121.97C2382.15,768.13,2367.49,702.85,2367.49,625.94z M2570.13,635.4
		c0,62.17,14.12,109.81,42.36,142.82c28.26,33.04,63.09,49.58,104.51,49.58s76.16-16.54,104.22-49.58
		c28.05-33.02,42.09-81.06,42.09-144c0-61.38-14.04-108.57-42.09-141.63c-28.06-33.04-62.79-49.57-104.22-49.57
		s-76.25,16.53-104.51,49.57C2584.25,525.65,2570.13,573.24,2570.13,635.4z"/>
	<path class="st0" d="M3484.44,520.74c22.56-25.55,51.25-38.33,86.06-38.33c35.84,0,65.46,13.04,88.89,39.06
		c23.44,26.03,35.15,65.9,35.15,119.6c0,51.42-12.23,90.24-36.69,116.41c-24.47,26.2-54.45,39.3-89.94,39.3
		c-33.07,0-60.92-12.78-83.48-38.32c-22.56-25.54-33.84-65.81-33.84-120.8C3450.6,585.27,3461.88,546.29,3484.44,520.74z
		 M3683.23,1067.28c-32.88,67.54-106.68,62.94-106.68,62.94c-39.11,0-67.73-6.39-85.91-19.15c-13.19-8.97-21.58-25.35-25.23-49.18
		l-260.72-25.46c-0.47,8.54-0.68,15.82-0.68,21.83c0,60.78,25.65,138.18,76.98,177.79c51.34,39.59,138.33,59.4,260.97,59.4
		c64.95,0,197.28-6.43,239.75-19.25c42.46-12.85,76.42-30.6,101.85-53.25c25.44-22.69,45.2-53.93,59.3-93.7
		c14.07-39.8,21.12-106.85,21.12-187.27l-0.03-30.24V285.67h-258.15v110.86c-57.99-74.03-131.6-111.04-220.83-111.04
		c-86.53,0-158.91,30.17-217.11,90.46c-58.2,60.31-87.3,147.58-87.3,261.76c0,91.11,22.2,170.26,66.58,231.4
		c56.61,77.43,133.4,116.13,230.34,116.13c86.97,0,159.32-37.31,217.07-111.92l-0.79,96.83v3.02c0,40.36-2.96,75-8.86,90.04
		L3683.23,1067.28z"/>
	<rect x="60.56" y="1085.42" class="st1" width="3086.86" height="209.92"/>
	<g>
		<polygon class="st0" points="3960.06,1295.22 3960.06,1240.48 3939.23,1240.48 3939.23,1233.14 3989.14,1233.14 3989.14,1240.48 
			3968.31,1240.48 3968.31,1295.22 		"/>
		<polygon class="st0" points="4054.54,1295.22 4046.29,1295.22 4046.29,1241.74 4030.18,1278.14 4025.2,1278.14 4009.21,1241.74 
			4009.21,1295.22 4001.46,1295.22 4001.46,1233.14 4012.74,1233.14 4028.19,1267.71 4043.09,1233.14 4054.54,1233.14 		"/>
	</g>
</g>
</svg>
