<svg id="Layer_1" data-name="Layer 1" xmlns="http://www.w3.org/2000/svg" viewBox="0 0 36 36"><defs><style>.cls-1{fill:#0b4a99;}</style></defs><path class="cls-1" d="M19.32,15l-17-6.21,1.48-.56s10-3.75,14.75-5.58a1.52,1.52,0,0,1,1.09,0l1.93.73C24.9,4.55,28.3,5.84,31.68,7.23c.85.34,1.79.68,2.73,1L36,8.83l-1.57.55c-.75.25-1.48.53-2.19.81-.52.2-1,.4-1.55.58l-.4-1.11c.51-.18,1-.37,1.53-.57l.7-.27c-.44-.17-.88-.33-1.29-.5-3.36-1.39-6.76-2.67-10-3.9l-1.9-.72a.37.37,0,0,0-.31,0l-13.24,5,13.58,5c1.49-.54,2.82-1,4.14-1.57s2.79-1.09,4.36-1.65l.41,1.1c-1.57.57-2.95,1.11-4.34,1.65s-2.79,1.08-4.37,1.65Z"/><path class="cls-1" d="M24.05,21.59l-.23-.13A5.76,5.76,0,0,0,22.49,21l-.31-.09c-.38-.07-4.25-1.68-5.89-2.37-3.61-1-5.61.17-5.83.3l-.9.57V13.62h1.18v3.79a9.74,9.74,0,0,1,5.94,0c2.6,1.09,5.48,2.26,5.81,2.35l.3.08a7.58,7.58,0,0,1,1.37.46,12.25,12.25,0,0,0,2.11-.92C27,19,27,19,27,18.16V13.54h1.18v4.62c0,1.44-.13,1.65-1.37,2.27a15,15,0,0,1-2.52,1.08Z"/><path class="cls-1" d="M28.72,23.28a1.54,1.54,0,0,1,2,0c-.08-.77-.08-1.45-.17-2.13-.08-.85-.08-1.71-.17-2.56,0-.34-.17-.68-.17-1,0-.17-.17-.25-.34-.17s-.42,0-.51.09a1,1,0,0,0-.25.68c-.09.68-.09,1.44-.17,2.13-.09.93-.18,1.87-.18,2.81Z"/><path class="cls-1" d="M21.89,31.27a2.36,2.36,0,0,1-.74-.1c-.36-.12-4.18-1-6.66-1.62A9.67,9.67,0,0,0,9,30.12l-.52.22L6,24.42l4.23-2.12c.37-.24,2.76-1.67,7.08-.49,1.52.62,5.38,2.2,5.79,2.34l.25.07a5.58,5.58,0,0,1,2,.9V24.5l.43-.19.64-.14c.7-.15,1.76-.37,2.35-.55s3.64-1,5.24-.17a1.72,1.72,0,0,1,.9,1.1c.46,1.76-5.24,4.15-10.1,5.84l-2,.77A4.11,4.11,0,0,1,21.89,31.27Zm-9.14-3a8.85,8.85,0,0,1,2,.2c.63.15,6.23,1.47,6.75,1.65a2.35,2.35,0,0,0,1,0l1.9-.75c4.9-1.7,9.19-3.78,9.38-4.55a.59.59,0,0,0-.32-.31c-1-.53-3.5-.07-4.36.25-.62.18-1.63.4-2.35.55a2.36,2.36,0,0,1,0,1.31s-.79,2.67-4.65,1.68c-2.44-.66-3.58-1.08-4-1.24L18,27l.29-1.1.7.1a30.15,30.15,0,0,1,3.31.6,3.07,3.07,0,0,0,2.17,0,.53.53,0,0,0,.3-.37c0-.07-.12-.4-1.74-.87l-.3-.08c-.52-.18-5.26-2.12-5.8-2.34-4-1.09-6.06.35-6.08.37L7.43,25l1.64,3.9A11.08,11.08,0,0,1,12.75,28.24Z"/><path class="cls-1" d="M3.44,33.5l-.21,0-.39-.11,0-.34L0,26.44c0-.59.25-.77.47-.83l1.75-.82L4,23.94l.22-.06a.92.92,0,0,1,.67.23l.09.08,2.85,6.66a.66.66,0,0,1-.42.73L3.66,33.49Zm-2.21-7,2.45,5.7,2.94-1.49L4.18,25.13l-1.48.69Z"/><rect class="cls-1" x="29.12" y="10.83" width="1.18" height="4.02"/><circle class="cls-1" cx="29.7" cy="16.19" r="0.97"/></svg>