<?xml version="1.0" encoding="utf-8"?>
<!-- Generator: Adobe Illustrator 22.0.1, SVG Export Plug-In . SVG Version: 6.00 Build 0)  -->
<svg version="1.1" id="Layer_1" xmlns="http://www.w3.org/2000/svg" xmlns:xlink="http://www.w3.org/1999/xlink" x="0px" y="0px"
	 viewBox="0 0 30 30" style="enable-background:new 0 0 30 30;" xml:space="preserve">
<style type="text/css">
	.st0{fill:#FFFFFF;}
	.st1{fill:#0B4A99;}
	.st2{fill:#043468;}
	.st3{fill:#F0AB00;}
	.st4{fill:#A8A240;}
	.st5{fill:#40875E;}
	.st6{fill:none;}
</style>
<g>
	<polygon class="st1" points="5.8,10.1 14.9,5 24,10.2 15,15.6 	"/>
</g>
<g>
	<path class="st2" d="M5.8,10.1v11L15,26V15.6C15,15.6,5.8,9.9,5.8,10.1z"/>
</g>
<g>
	<polygon class="st2" points="15,15.6 15,26 24,20.9 24,10.2 	"/>
</g>
<g>
	<g>
		<path class="st1" d="M15.9,29.6c-1.6,0-3-1.6-4-4.4c-1-2.7-1.5-6.3-1.5-10.1S10.9,7.7,11.9,5c1-2.9,2.5-4.4,4-4.4
			c1,0,2,0.7,2.8,1.9L17.9,3c-0.5-0.7-1.2-1.5-2-1.5c-1.1,0-2.3,1.4-3.2,3.8c-0.9,2.6-1.5,6.1-1.5,9.8c0,3.7,0.5,7.2,1.5,9.8
			c0.9,2.4,2,3.8,3.2,3.8c0.9,0,1.7-0.9,2.2-1.7l0.8,0.5C18,28.9,17,29.6,15.9,29.6z"/>
	</g>
	<g>
		<g>
			<polygon class="st1" points="15.9,2.7 16,2.2 18.2,2.6 18.4,0.4 18.8,0.4 18.6,3.1 			"/>
		</g>
	</g>
</g>
<g>
	<g>
		<path class="st1" d="M15.1,18.6c-3.8,0-7.4-0.5-10.1-1.5c-2.9-1-4.4-2.4-4.4-4c0-1,0.7-2,2-2.8L3,11.1c-0.7,0.5-1.6,1.2-1.6,2
			c0,1.1,1.4,2.2,3.8,3.1c2.6,0.9,6.1,1.4,9.8,1.4s7.2-0.5,9.8-1.4c2.4-0.9,3.8-2,3.8-3.1c0-0.9-1-1.7-1.8-2.2l0.5-0.8
			c1.5,0.9,2.3,1.9,2.3,3c0,1.5-1.6,2.9-4.4,4C22.5,18.1,18.9,18.6,15.1,18.6z"/>
	</g>
	<g>
		<g>
			<polygon class="st1" points="2.6,13.2 2.2,13.1 2.6,10.9 0.4,10.6 0.5,10.2 3.2,10.5 			"/>
		</g>
	</g>
</g>
</svg>
