<?xml version="1.0" encoding="utf-8"?>
<!-- Generator: Adobe Illustrator 25.0.0, SVG Export Plug-In . SVG Version: 6.00 Build 0)  -->
<svg version="1.1" id="Layer_1" xmlns="http://www.w3.org/2000/svg" xmlns:xlink="http://www.w3.org/1999/xlink" x="0px" y="0px"
	 viewBox="0 0 36 36" style="enable-background:new 0 0 36 36;" xml:space="preserve">
<style type="text/css">
	.st0{fill:#0B4A99;}
	.st1{fill:#ABA34A;}
	.st2{fill:#40875E;}
	.st3{fill:#F5AC3A;}
	.st4{fill:#2776CC;}
	.st5{fill:#4A97DD;}
	.st6{fill:#CB1618;}
</style>
<g>
	<path class="st0" d="M14.7,1.8c-0.5,0-0.9,0.4-0.9,0.9c0,0.2,0,0.3,0.1,0.4L9.9,7L9.8,7C9.5,6.9,9.2,6.9,8.9,7L8.6,6.7
		c0.1-0.1,0.1-0.3,0.1-0.4c0-0.5-0.4-0.9-0.9-0.9S6.8,5.8,6.8,6.3c0,0.1,0,0.3,0.1,0.4l-4.2,3.8c-0.1-0.1-0.3-0.1-0.4-0.1
		c-0.5,0-0.9,0.4-0.9,0.9s0.4,0.9,0.9,0.9s0.9-0.4,0.9-0.9c0-0.1,0-0.3-0.1-0.4l4.2-3.8c0.3,0.1,0.6,0.1,0.8,0l0.3,0.3
		C8.4,7.5,8.4,7.7,8.4,7.8c0,0.5,0.4,0.9,0.9,0.9s0.9-0.4,0.9-0.9c0-0.1,0-0.2,0-0.3l4.2-4c0.1,0.1,0.2,0.1,0.4,0.1
		c0.5,0,0.9-0.4,0.9-0.9S15.3,1.8,14.7,1.8z M2.7,11.3c0,0.2-0.2,0.3-0.3,0.3c-0.2,0-0.3-0.2-0.3-0.3C2,11.1,2.1,11,2.3,11
		C2.5,11,2.7,11.1,2.7,11.3z M8.1,6.3c0,0.2-0.2,0.3-0.3,0.3c-0.2,0-0.3-0.2-0.3-0.3c0-0.2,0.2-0.3,0.3-0.3C7.9,5.9,8.1,6.1,8.1,6.3
		z M9.7,7.8c0,0.2-0.2,0.3-0.3,0.3C9.1,8.1,9,8,9,7.8c0-0.2,0.2-0.3,0.3-0.3C9.5,7.5,9.7,7.6,9.7,7.8z M15.1,2.7
		c0,0.2-0.2,0.3-0.3,0.3s-0.3-0.2-0.3-0.3s0.2-0.3,0.3-0.3S15.1,2.5,15.1,2.7z"/>
</g>
<g>
	<g>
		<polygon class="st0" points="36,31.9 31.5,31.9 31.5,30.6 34.7,30.6 34.7,1.3 19.6,1.3 19.6,18.8 18.3,18.8 18.3,0 36,0 		"/>
	</g>
	<g>
		<rect x="19" y="8" class="st0" width="16.5" height="1.3"/>
	</g>
	<g>
		<rect x="19" y="15.5" class="st0" width="16.5" height="1.3"/>
	</g>
	<g>
		<rect x="31.3" y="23.1" class="st0" width="4.1" height="1.3"/>
	</g>
	<g>
		<rect x="26.8" y="0.6" class="st0" width="1.3" height="18.7"/>
	</g>
	<g>
		<g>
			<path class="st0" d="M32.1,36H0.2V18.3h31.9V36z M1.5,34.7h29.4V19.6H1.5V34.7z"/>
		</g>
		<g>
			<rect x="22.9" y="19" class="st0" width="1.3" height="16.5"/>
		</g>
		<g>
			<rect x="15.3" y="19" class="st0" width="1.3" height="16.5"/>
		</g>
		<g>
			<rect x="7.7" y="19" class="st0" width="1.3" height="16.5"/>
		</g>
		<g>
			<rect x="0.7" y="26.8" class="st0" width="30.8" height="1.3"/>
		</g>
	</g>
</g>
<g>
	<rect x="13.3" y="6.9" class="st0" width="1.3" height="8.3"/>
</g>
<g>
	<rect x="10" y="9.7" class="st0" width="1.3" height="5.5"/>
</g>
<g>
	<rect x="6.7" y="9.5" class="st0" width="1.3" height="5.7"/>
</g>
<g>
	<rect x="3.4" y="12.7" class="st0" width="1.3" height="2.5"/>
</g>
</svg>
