<?xml version="1.0" encoding="iso-8859-1"?>
<!-- Generator: Adobe Illustrator 12.0.0, SVG Export Plug-In . SVG Version: 6.00 Build 51448)  -->
<!DOCTYPE svg PUBLIC "-//W3C//DTD SVG 1.1//EN" "http://www.w3.org/Graphics/SVG/1.1/DTD/svg11.dtd" [
	<!ENTITY ns_svg "http://www.w3.org/2000/svg">
	<!ENTITY ns_xlink "http://www.w3.org/1999/xlink">
]>
<svg  version="1.1" id="Layer_1" xmlns="&ns_svg;" xmlns:xlink="&ns_xlink;" width="15.878" height="15.874"
	 viewBox="0 0 15.878 15.874" style="overflow:visible;enable-background:new 0 0 15.878 15.874;" xml:space="preserve">
<path style="fill-rule:evenodd;clip-rule:evenodd;fill:#0071C5;" d="M14.387,6.447h-4.96v-4.96C9.427,0.666,8.761,0,7.939,0
	c-0.823,0-1.49,0.666-1.49,1.487v4.96H1.487C0.667,6.447,0,7.114,0,7.938c0,0.821,0.667,1.487,1.487,1.487h4.962v4.96
	c0,0.823,0.667,1.489,1.49,1.489c0.821,0,1.487-0.666,1.487-1.489v-4.96h4.96c0.824,0,1.491-0.666,1.491-1.487
	C15.878,7.114,15.211,6.447,14.387,6.447L14.387,6.447z"/>
</svg>
