<?xml version="1.0" encoding="utf-8"?>
<!-- Generator: Adobe Illustrator 25.0.0, SVG Export Plug-In . SVG Version: 6.00 Build 0)  -->
<svg version="1.1" id="Layer_1" xmlns="http://www.w3.org/2000/svg" xmlns:xlink="http://www.w3.org/1999/xlink" x="0px" y="0px"
	 viewBox="0 0 100 100" style="enable-background:new 0 0 100 100;" xml:space="preserve">
<style type="text/css">
	.st0{fill-rule:evenodd;clip-rule:evenodd;fill:#40875E;}
	.st1{fill-rule:evenodd;clip-rule:evenodd;fill:#A8A240;}
	.st2{fill:none;}
	.st3{fill:#F0AB00;}
	.st4{fill:#A8A240;}
	.st5{fill:#40875E;}
	.st6{fill-rule:evenodd;clip-rule:evenodd;fill:#F0AB00;}
	.st7{fill-rule:evenodd;clip-rule:evenodd;fill:#0B4A99;}
	.st8{fill:none;stroke:#F0AB00;stroke-miterlimit:10;}
	.st9{fill:#A8A240;stroke:#F0AB00;stroke-width:2;stroke-miterlimit:10;}
	.st10{fill:#F0AB00;stroke:#A8A240;stroke-width:3;stroke-miterlimit:10;}
	.st11{fill:#3E865F;}
	.st12{fill:#EFAA03;}
	.st13{fill:#A6A13E;}
	.st14{fill:#0B4A99;}
	.st15{fill:#F5B026;}
	.st16{fill:#FFCD2E;}
	.st17{fill:#D4D2D2;}
	.st18{fill:#E3E4E3;}
	.st19{fill:#FBD97C;}
	.st20{fill:#57BEC5;}
	.st21{fill:#469BA3;}
	.st22{fill:#CB151A;}
	.st23{fill:url(#SVGID_1_);}
	.st24{fill:url(#SVGID_2_);}
	.st25{fill:url(#SVGID_3_);}
	.st26{fill:#CFCFCE;}
	.st27{fill:#D4D3D3;}
	.st28{fill:#E4E5E3;}
	.st29{fill:#A2BAD0;}
	.st30{fill:#4B708F;}
	.st31{fill:#8AA4BE;}
	.st32{fill:#CCCACA;}
	.st33{opacity:0.59;fill:#3E865F;}
	.st34{opacity:0.6;}
	.st35{fill:#3F5B7A;}
	.st36{opacity:0.2;}
	.st37{fill:#516D8C;}
	.st38{fill-rule:evenodd;clip-rule:evenodd;fill:#CC8E05;}
	.st39{fill:url(#SVGID_4_);}
	.st40{fill:none;stroke:#40875E;stroke-width:2;stroke-miterlimit:10;}
	.st41{fill:url(#SVGID_5_);}
	.st42{fill:url(#SVGID_6_);}
	.st43{fill:url(#SVGID_7_);}
	.st44{opacity:0.44;fill:#40875E;}
</style>
<rect x="30.67" y="44.97" transform="matrix(0.7668 -0.6419 0.6419 0.7668 -18.5301 42.1451)" class="st1" width="36.13" height="3.2"/>
<rect x="51.14" y="28.51" transform="matrix(0.6411 -0.7675 0.7675 0.6411 -16.8161 57.1877)" class="st1" width="3.2" height="36.13"/>
<rect x="44.39" y="0.2" class="st1" width="12.26" height="9.88"/>
<rect x="12.22" y="32.07" transform="matrix(0.3097 -0.9508 0.9508 0.3097 -5.2456 60.1808)" class="st1" width="53.21" height="3.26"/>
<rect x="60.58" y="7.1" transform="matrix(0.9507 -0.3101 0.3101 0.9507 -7.384 20.9513)" class="st1" width="3.26" height="53.21"/>
<polygon class="st1" points="60.24,29.54 61.26,28.36 43.22,17.25 42.21,18.43 "/>
<polygon class="st1" points="40.82,29.54 39.8,28.36 57.83,17.25 58.85,18.43 "/>
<rect x="47.27" y="9.71" class="st1" width="6.51" height="3"/>
<rect x="5.82" y="56.53" class="st0" width="89.4" height="11.3"/>
<rect x="15.93" y="66.5" class="st0" width="26.02" height="5.25"/>
<rect x="59.09" y="66.5" class="st0" width="26.02" height="5.25"/>
<polygon class="st0" points="33.7,87.01 24.19,91.02 24.19,69.5 33.7,69.5 "/>
<polygon class="st0" points="67.35,87.01 76.85,91.02 76.85,69.5 67.35,69.5 "/>
<g>
	<path class="st6" d="M13.22,97.59L13.22,97.59c1.93,0,4.25-1.41,4.25-3.08V91.3c0,0,0.81-2.35,3.13-1.98v6.29
		c0,2.14-3.89,3.75-6.38,3.75l0,0L13.22,97.59z"/>
	<path class="st6" d="M27.85,97.59L27.85,97.59c-1.94,0-4.25-1.41-4.25-3.08V91.3c0,0-0.81-2.35-3.13-1.98v6.29
		c0,2.14,3.89,3.75,6.38,3.75l0,0L27.85,97.59z"/>
</g>
<g>
	<path class="st6" d="M28.16,97.59L28.16,97.59c1.94,0,4.25-1.41,4.25-3.08V91.3c0,0,0.81-2.35,3.13-1.98v6.29
		c0,2.14-3.89,3.75-6.38,3.75l0,0L28.16,97.59z"/>
	<path class="st6" d="M42.8,97.59L42.8,97.59c-1.94,0-4.25-1.41-4.25-3.08V91.3c0,0-0.81-2.35-3.13-1.98v6.29
		c0,2.14,3.89,3.75,6.38,3.75l0,0L42.8,97.59z"/>
</g>
<g>
	<path class="st6" d="M43.17,97.59L43.17,97.59c1.94,0,4.25-1.41,4.25-3.08V91.3c0,0,0.81-2.35,3.13-1.98v6.29
		c0,2.14-3.89,3.75-6.38,3.75l0,0L43.17,97.59z"/>
	<path class="st6" d="M57.81,97.59L57.81,97.59c-1.94,0-4.25-1.41-4.25-3.08V91.3c0,0-0.81-2.35-3.13-1.98v6.29
		c0,2.14,3.9,3.75,6.38,3.75l0,0L57.81,97.59z"/>
</g>
<g>
	<path class="st6" d="M58.24,97.59L58.24,97.59c1.93,0,4.25-1.41,4.25-3.08V91.3c0,0,0.81-2.35,3.13-1.98v6.29
		c0,2.14-3.89,3.75-6.38,3.75l0,0L58.24,97.59z"/>
	<path class="st6" d="M72.88,97.59L72.88,97.59c-1.94,0-4.25-1.41-4.25-3.08V91.3c0,0-0.81-2.35-3.13-1.98v6.29
		c0,2.14,3.89,3.75,6.38,3.75l0,0L72.88,97.59z"/>
</g>
<g>
	<path class="st6" d="M73.19,97.59L73.19,97.59c1.93,0,4.25-1.41,4.25-3.08V91.3c0,0,0.81-2.35,3.13-1.98v6.29
		c0,2.14-3.89,3.75-6.38,3.75l0,0L73.19,97.59z"/>
	<path class="st6" d="M87.83,97.59L87.83,97.59c-1.94,0-4.25-1.41-4.25-3.08V91.3c0,0-0.81-2.35-3.13-1.98v6.29
		c0,2.14,3.89,3.75,6.38,3.75l0,0L87.83,97.59z"/>
</g>
<rect x="6.82" y="96.75" class="st6" width="87.4" height="2.87"/>
</svg>
