<?xml version="1.0" encoding="utf-8"?>
<!-- Generator: Adobe Illustrator 25.0.0, SVG Export Plug-In . SVG Version: 6.00 Build 0)  -->
<svg version="1.1" id="Layer_1" xmlns="http://www.w3.org/2000/svg" xmlns:xlink="http://www.w3.org/1999/xlink" x="0px" y="0px"
	 viewBox="0 0 100 100" style="enable-background:new 0 0 100 100;" xml:space="preserve">
<style type="text/css">
	.st0{fill-rule:evenodd;clip-rule:evenodd;fill:#40875E;}
	.st1{fill-rule:evenodd;clip-rule:evenodd;fill:#A8A240;}
	.st2{fill:none;}
	.st3{fill:#F0AB00;}
	.st4{fill:#A8A240;}
	.st5{fill:#40875E;}
	.st6{fill-rule:evenodd;clip-rule:evenodd;fill:#F0AB00;}
	.st7{fill-rule:evenodd;clip-rule:evenodd;fill:#0B4A99;}
	.st8{fill:none;stroke:#F0AB00;stroke-miterlimit:10;}
	.st9{fill:#A8A240;stroke:#F0AB00;stroke-width:2;stroke-miterlimit:10;}
	.st10{fill:#F0AB00;stroke:#A8A240;stroke-width:3;stroke-miterlimit:10;}
	.st11{fill:#3E865F;}
	.st12{fill:#EFAA03;}
	.st13{fill:#A6A13E;}
	.st14{fill:#0B4A99;}
	.st15{fill:#F5B026;}
	.st16{fill:#FFCD2E;}
	.st17{fill:#D4D2D2;}
	.st18{fill:#E3E4E3;}
	.st19{fill:#FBD97C;}
	.st20{fill:#57BEC5;}
	.st21{fill:#469BA3;}
	.st22{fill:#CB151A;}
	.st23{fill:url(#SVGID_1_);}
	.st24{fill:url(#SVGID_2_);}
	.st25{fill:url(#SVGID_3_);}
	.st26{fill:#CFCFCE;}
	.st27{fill:#D4D3D3;}
	.st28{fill:#E4E5E3;}
	.st29{fill:#A2BAD0;}
	.st30{fill:#4B708F;}
	.st31{fill:#8AA4BE;}
	.st32{fill:#CCCACA;}
	.st33{opacity:0.59;fill:#3E865F;}
	.st34{opacity:0.6;}
	.st35{fill:#3F5B7A;}
	.st36{opacity:0.2;}
	.st37{fill:#516D8C;}
	.st38{fill-rule:evenodd;clip-rule:evenodd;fill:#CC8E05;}
	.st39{fill:url(#SVGID_4_);}
	.st40{fill:none;stroke:#40875E;stroke-width:2;stroke-miterlimit:10;}
	.st41{fill:url(#SVGID_5_);}
	.st42{fill:url(#SVGID_6_);}
	.st43{fill:url(#SVGID_7_);}
	.st44{opacity:0.44;fill:#40875E;}
</style>
<path id="path1885_2_" class="st3" d="M53.33,10.54c-5.93,4.28-9.77,11.29-9.77,19.16c0,13.03,10.56,23.59,23.59,23.59
	c0.22,0,0.44,0,0.66-0.01L54,32.73c-0.47-0.6-0.75-1.35-0.75-2.17c0-1.92,1.57-3.48,3.48-3.48h18.01L58.27,2.51
	c2.79-0.92,5.77-1.41,8.87-1.41c15.79,0,28.6,12.81,28.6,28.6c0,11.31-6.55,21.08-16.07,25.73L66.2,35.61h1.56h16.28
	c-0.01,2.73-2.2,4.92-4.91,4.92l-3.29,0.01c-0.28,0-0.59-0.14-0.78-0.22c0.19,0.1,0.49,0.29,0.65,0.5l5.42,7.88
	c5.83-4.29,9.61-11.2,9.61-19c0-13.02-10.56-23.59-23.59-23.59c-0.15,0-0.3,0-0.44,0.01l13.71,20.46c0.03,0.05,0.06,0.09,0.09,0.14
	c0.34,0.54,0.54,1.18,0.54,1.87c0,1.92-1.56,3.48-3.48,3.48c-0.05,0-0.11,0-0.17,0H59.52L76.2,56.84c-2.85,0.95-5.89,1.46-9.05,1.46
	c-15.8,0-28.6-12.8-28.6-28.6c0-11.39,6.66-21.22,16.29-25.83l13.26,19.6h-1.55H50.25c0.01-2.72,2.2-4.92,4.9-4.92l3.29-0.01
	c0.27,0.01,0.59,0.14,0.78,0.23c-0.19-0.11-0.48-0.3-0.64-0.5L53.33,10.54z"/>
<rect x="18.5" y="1.29" class="st5" width="10.44" height="4.52"/>
<g>
	<g>
		<polygon class="st5" points="19.2,5.59 11.25,57.5 8.23,57.5 16.73,5.37 		"/>
		<polygon class="st5" points="28.24,5.59 36.2,57.5 39.21,57.5 30.71,5.37 		"/>
	</g>
</g>
<rect x="23.16" y="5.37" class="st5" width="1.13" height="52.13"/>
<g>
	<g>
		<rect x="17.23" y="14.08" class="st5" width="12.99" height="0.64"/>
		<rect x="14.97" y="25.89" class="st5" width="17.51" height="0.85"/>
		<rect x="13.2" y="38.15" class="st5" width="21.05" height="0.84"/>
		<rect x="10.88" y="49.76" class="st5" width="25.68" height="0.84"/>
		<g>
			<polygon class="st5" points="34.14,38.76 11.72,48.39 12.09,49.41 34.41,39.67 			"/>
			<polygon class="st5" points="13.92,38.76 36.35,48.39 35.97,49.41 13.65,39.67 			"/>
		</g>
		<g>
			<polygon class="st5" points="32.92,26.58 13.21,36.9 13.54,37.99 33.15,27.56 			"/>
			<polygon class="st5" points="15.15,26.58 34.85,36.9 34.52,37.99 14.91,27.56 			"/>
		</g>
		<g>
			<polygon class="st5" points="30.83,14.32 15.75,24.63 16,25.73 31.01,15.3 			"/>
			<polygon class="st5" points="17.23,14.32 32.31,24.63 32.06,25.73 17.05,15.3 			"/>
		</g>
	</g>
</g>
<rect x="21.85" y="83.41" class="st4" width="53.73" height="4.12"/>
<rect x="21.85" y="64" class="st4" width="3.17" height="23.53"/>
<polygon class="st4" points="36.9,77.55 36.9,75.02 33.97,75.02 33.97,72.08 36.9,72.08 36.9,68.99 42.77,68.99 42.77,77.71 
	45.7,77.71 45.7,83.81 39.68,83.81 39.68,77.63 "/>
<polygon class="st4" points="51.64,77.55 51.64,75.02 48.71,75.02 48.71,72.08 51.64,72.08 51.64,68.99 57.51,68.99 57.51,77.71 
	60.44,77.71 60.44,83.81 54.41,83.81 54.41,77.63 "/>
<polygon class="st4" points="74.46,71.85 68.6,71.85 68.6,77.71 65.67,77.71 65.67,83.81 71.69,83.81 71.69,77.63 74.46,77.55 
	74.46,75.02 "/>
<polygon class="st4" points="45.7,86.9 45.7,92.69 42.77,92.69 42.77,98.55 51.8,98.55 51.8,95.7 48.55,95.7 48.55,92.53 
	51.4,92.53 51.4,87.14 "/>
<polygon class="st4" points="60.84,86.9 60.84,92.69 57.9,92.69 57.9,98.55 66.94,98.55 66.94,95.7 63.69,95.7 63.69,92.53 
	66.54,92.53 66.54,87.14 "/>
<rect x="4.25" y="57.11" class="st5" width="86.38" height="8.87"/>
</svg>
