<?xml version="1.0" encoding="iso-8859-1"?>
<!-- Generator: Adobe Illustrator 12.0.0, SVG Export Plug-In . SVG Version: 6.00 Build 51448)  -->
<!DOCTYPE svg PUBLIC "-//W3C//DTD SVG 1.1//EN" "http://www.w3.org/Graphics/SVG/1.1/DTD/svg11.dtd" [
	<!ENTITY ns_svg "http://www.w3.org/2000/svg">
	<!ENTITY ns_xlink "http://www.w3.org/1999/xlink">
]>
<svg  version="1.1" id="Layer_1" xmlns="&ns_svg;" xmlns:xlink="&ns_xlink;" width="60.095" height="60.095"
	 viewBox="0 0 60.095 60.095" style="overflow:visible;enable-background:new 0 0 60.095 60.095;" xml:space="preserve">
<g>
	<path style="fill:#008FD3;" d="M60.095,52.176c0,4.37-3.771,7.919-8.43,7.919H8.437C3.778,60.095,0,56.546,0,52.176V7.923
		C0,3.55,3.778,0,8.437,0h43.229c4.658,0,8.43,3.55,8.43,7.923V52.176z M57.167,10.079c0-3.947-3.404-7.151-7.608-7.151H10.542
		c-4.204,0-7.614,3.204-7.614,7.151V50.02c0,3.944,3.41,7.147,7.614,7.147h39.017c4.204,0,7.608-3.203,7.608-7.147V10.079z"/>
	<g>
		<g>
			<path style="fill:#008FD3;" d="M18.331,43.228v8.788h23.432v-8.788V37.37H18.331V43.228z M21.26,40.299h17.574v2.93H21.26V40.299
				z M21.26,46.157h17.574v2.929H21.26V46.157z"/>
			<polygon style="fill:#008FD3;" points="41.763,16.866 41.763,8.079 18.331,8.079 18.331,16.866 18.331,22.724 41.763,22.724 			
				"/>
			<path style="fill:#008FD3;" d="M47.622,16.866h-2.93v5.857v2.93H15.401v-2.93v-5.857h-2.929c-2.929,0-5.858,2.93-5.858,5.857
				V37.37c0,2.929,2.93,5.857,5.858,5.857h2.929V37.37v-2.929h29.291v2.929v5.857h2.93c2.929,0,5.858-2.929,5.858-5.857V22.724
				C53.48,19.796,50.551,16.866,47.622,16.866"/>
		</g>
	</g>
</g>
</svg>
