<?xml version="1.0" encoding="utf-8"?>
<!-- Generator: Adobe Illustrator 25.0.0, SVG Export Plug-In . SVG Version: 6.00 Build 0)  -->
<svg version="1.1" id="Layer_1" xmlns="http://www.w3.org/2000/svg" xmlns:xlink="http://www.w3.org/1999/xlink" x="0px" y="0px"
	 viewBox="0 0 36 36" style="enable-background:new 0 0 36 36;" xml:space="preserve">
<style type="text/css">
	.st0{fill:#0B4A99;}
	.st1{fill:#F0AB00;}
	.st2{fill:#A8A240;}
	.st3{fill:#40875E;}
</style>
<g>
	<g>
		<path class="st0" d="M17.99,36c-0.47,0-0.94-0.01-1.42-0.02c-0.39-0.01-0.73-0.17-0.97-0.46c-0.26-0.3-0.37-0.72-0.3-1.14
			l0.13-0.87c0.23-1.51,0.45-3.02,0.67-4.53c0-0.01-0.01-0.07-0.03-0.11c-0.13-0.25-0.28-0.48-0.43-0.72l-0.23-0.36
			c-0.46-0.75-0.44-1.29,0.11-1.98L17,23.9l1.99,0l1.37,1.73c0.72,0.9,0.75,1.34,0.13,2.33l-0.12,0.21c-0.12,0.21-0.25,0.42-0.4,0.6
			c-0.06,0.07-0.1,0.15-0.05,0.44c0.26,1.73,0.52,3.47,0.77,5.2c0.06,0.41-0.05,0.82-0.3,1.12c-0.24,0.29-0.58,0.45-0.97,0.46
			C18.97,35.99,18.48,36,17.99,36z M17.61,25.16l-1.12,1.43c-0.16,0.2-0.16,0.26-0.16,0.26c0,0,0,0.07,0.14,0.29l0.22,0.34
			c0.16,0.26,0.33,0.52,0.48,0.79c0.15,0.27,0.22,0.61,0.18,0.89c-0.22,1.51-0.44,3.03-0.67,4.54l-0.13,0.87
			c-0.01,0.08,0.01,0.13,0.02,0.15c1,0.04,1.95,0.03,2.85,0.01c0.05-0.03,0.07-0.08,0.06-0.14c-0.25-1.73-0.51-3.46-0.77-5.19
			c-0.06-0.4-0.08-0.92,0.32-1.41c0.11-0.14,0.2-0.3,0.29-0.45l0.14-0.23c0.16-0.25,0.24-0.41,0.25-0.47
			c-0.01-0.04-0.11-0.18-0.29-0.41l-1-1.26H17.61z"/>
	</g>
	<g>
		<path class="st0" d="M18,24.78c-0.33,0-0.66-0.04-0.89-0.12c-0.23-0.08-0.37-0.22-0.46-0.3l-1.09-0.8
			c-0.95-0.69-1.89-1.37-2.84-2.05c-0.59-0.42-0.87-0.97-0.82-1.65c0.07-1.04-0.05-1.7-0.41-2.27c-0.09-0.15-0.14-0.29-0.17-0.4
			l0.56-0.32l-0.6,0.2c-0.16-0.48-0.28-0.86-0.6-1.21c-0.79-0.88-1.01-2.03-1.2-3.05c-0.06-0.32-0.09-0.65-0.09-1.05
			c0-0.72,0.22-1.18,0.72-1.51c-0.01-0.06-0.02-0.12-0.03-0.18C9.99,9.6,9.9,9.11,9.87,8.62c-0.15-2.88,1.08-5.21,3.76-7.13
			c1.49-1.07,3.08-1.56,4.73-1.49c2.27,0.11,4.04,1,5.28,2.66c0.82,0.23,1.48,0.82,1.94,1.76c0.33,0.68,0.52,1.46,0.56,2.36
			c0.05,1.2-0.04,2.33-0.28,3.44c0.91,0.57,0.78,1.68,0.73,2.09c-0.12,1.09-0.43,2.11-0.92,3.05c-0.14,0.26-0.33,0.46-0.5,0.64
			c-0.07,0.07-0.13,0.14-0.2,0.22c-0.3,0.74-0.55,1.41-0.79,2.07c-0.03,0.07-0.07,0.2-0.07,0.26c-0.01,0.45-0.02,0.91,0,1.36
			c0.02,0.64-0.25,1.17-0.8,1.56c-1.01,0.73-2.02,1.47-3.03,2.21l-0.99,0.73c-0.03,0.05-0.16,0.18-0.39,0.26
			C18.67,24.74,18.33,24.78,18,24.78z M18.02,1.25c-1.28,0-2.48,0.41-3.66,1.26c-2.3,1.65-3.36,3.62-3.24,6.04
			c0.02,0.41,0.1,0.83,0.18,1.28c0.04,0.22,0.08,0.44,0.12,0.66L11.5,11l-0.47,0.18c-0.36,0.14-0.39,0.18-0.39,0.57
			c0,0.32,0.02,0.58,0.06,0.8c0.18,0.96,0.35,1.85,0.9,2.47c0.49,0.54,0.68,1.11,0.86,1.66l0.05,0.16c0.67,1.1,0.7,2.18,0.63,3.11
			c-0.01,0.2,0.03,0.35,0.3,0.54c0.96,0.68,1.91,1.37,2.85,2.06l1.05,0.76c0.06,0.04,0.12,0.1,0.17,0.15
			c0.17,0.08,0.68,0.08,0.91,0.03c0.04-0.04,0.08-0.07,0.11-0.1l0.99-0.73c1.01-0.74,2.02-1.48,3.04-2.21
			c0.24-0.17,0.29-0.32,0.28-0.51c-0.01-0.48-0.01-0.96,0-1.44c0.01-0.24,0.08-0.45,0.15-0.65c0.25-0.67,0.5-1.34,0.75-2.01
			c0.06-0.15,0.15-0.3,0.25-0.43c0.08-0.09,0.17-0.19,0.25-0.28c0.12-0.13,0.24-0.25,0.29-0.36c0.41-0.8,0.68-1.67,0.78-2.6
			c0.09-0.82-0.07-0.9-0.38-0.98l-0.61-0.16l0.16-0.61c0.3-1.15,0.42-2.33,0.36-3.59c-0.03-0.73-0.17-1.34-0.43-1.86
			c-0.3-0.62-0.7-0.99-1.23-1.15c-0.23-0.07-0.44-0.22-0.58-0.41c-1.01-1.36-2.43-2.06-4.33-2.15C18.21,1.26,18.12,1.25,18.02,1.25z
			 M18.49,23.48C18.49,23.48,18.49,23.48,18.49,23.48L18.49,23.48L18.49,23.48z"/>
	</g>
	<g>
		<path class="st0" d="M10.85,35.53c-0.47,0-0.94,0-1.42,0H2.96c-1.2,0-1.86-0.66-1.87-1.85l0-3.41c0-1.3,0.53-2.39,1.58-3.24
			c2.42-1.93,5-3.65,7.67-5.11c0.57-0.31,1.07-0.36,1.5-0.16c0.43,0.2,0.7,0.63,0.81,1.26l1.97,10.84c0.08,0.45-0.02,0.87-0.27,1.18
			c-0.26,0.31-0.67,0.49-1.14,0.49C12.42,35.53,11.63,35.53,10.85,35.53z M8.01,34.28l1.42,0c1.26,0,2.52,0,3.77,0
			c0.12,0,0.17-0.03,0.18-0.04c0-0.01,0.02-0.05,0-0.15l-1.97-10.84c-0.05-0.26-0.12-0.34-0.13-0.35c0,0-0.11,0-0.35,0.13
			c-2.61,1.42-5.12,3.09-7.48,4.98c-0.76,0.61-1.11,1.32-1.11,2.25l0,3.42c0,0.49,0.11,0.6,0.61,0.6l3.37,0L8.01,34.28z"/>
	</g>
	<g>
		<path class="st0" d="M29.41,35.53h-6.53c-0.55,0-0.97-0.16-1.23-0.48c-0.26-0.32-0.35-0.75-0.25-1.29l1.99-10.87
			c0.1-0.53,0.38-0.92,0.79-1.12c0.41-0.2,0.9-0.16,1.37,0.09c2.74,1.49,5.37,3.24,7.81,5.2c1.02,0.82,1.54,1.88,1.54,3.14
			c0,1.17,0.01,2.35,0,3.52c-0.01,1.13-0.68,1.8-1.81,1.8L29.41,35.53z M27.94,34.28l1.47,0l3.68,0c0.43,0,0.55-0.12,0.55-0.55
			c0.01-1.17,0-2.34,0-3.51c0-0.88-0.35-1.59-1.07-2.17c-2.38-1.91-4.95-3.62-7.63-5.07c-0.14-0.08-0.22-0.07-0.23-0.06
			c-0.01,0-0.06,0.06-0.09,0.21l-1.99,10.87c-0.03,0.17-0.02,0.25-0.01,0.27c0.01-0.01,0.08,0.02,0.26,0.02l3.37,0L27.94,34.28z"/>
	</g>
</g>
</svg>
