<?xml version="1.0" encoding="utf-8"?>
<!-- Generator: Adobe Illustrator 22.0.1, SVG Export Plug-In . SVG Version: 6.00 Build 0)  -->
<svg version="1.1" id="Layer_1" xmlns="http://www.w3.org/2000/svg" xmlns:xlink="http://www.w3.org/1999/xlink" x="0px" y="0px"
	 viewBox="0 0 30 30" style="enable-background:new 0 0 30 30;" xml:space="preserve">
<style type="text/css">
	.st0{fill:#FFFFFF;}
	.st1{fill:#40875E;}
	.st2{fill:#A8A240;}
	.st3{fill:#F0AB00;}
	.st4{fill:none;}
	.st5{fill:#0B4A99;}
</style>
<path class="st3" d="M19.4,11.6H7.2c-0.3,0-0.5-0.2-0.5-0.5c0-0.3,0.2-0.5,0.5-0.5h12.2c0.3,0,0.5,0.2,0.5,0.5
	C19.9,11.4,19.6,11.6,19.4,11.6z"/>
<path class="st3" d="M19.4,15.1H7.2c-0.3,0-0.5-0.2-0.5-0.5s0.2-0.5,0.5-0.5h12.2c0.3,0,0.5,0.2,0.5,0.5S19.6,15.1,19.4,15.1z"/>
<path class="st3" d="M18,18.7H7.2c-0.3,0-0.5-0.2-0.5-0.5c0-0.3,0.2-0.5,0.5-0.5H18c0.3,0,0.5,0.2,0.5,0.5
	C18.4,18.5,18.2,18.7,18,18.7z"/>
<path class="st3" d="M14.3,22.2H7.2c-0.3,0-0.5-0.2-0.5-0.5c0-0.3,0.2-0.5,0.5-0.5h7.1c0.3,0,0.5,0.2,0.5,0.5
	C14.8,22,14.6,22.2,14.3,22.2z"/>
<path class="st3" d="M12.5,25.8H7.2c-0.3,0-0.5-0.2-0.5-0.5c0-0.3,0.2-0.5,0.5-0.5h5.3c0.3,0,0.5,0.2,0.5,0.5
	C13,25.6,12.8,25.8,12.5,25.8z"/>
<path class="st2" d="M15,26.9c0,0-0.4-7.9,9.2-8.5v-3.2l5.5,5.5l-5.6,5.7V23C24.2,23,17.5,21.6,15,26.9z"/>
<path class="st3" d="M3.7,1.1L0.3,4.4v20.8h2.3v-1.6H1.9V5.2h2.7V2.7h12.7v1.2h1.6V1.1H3.7z"/>
<polygon class="st1" points="21.5,27.3 21.5,27.3 5,27.3 5,8.9 7.7,8.9 7.7,6.4 21.5,6.4 21.5,13.9 23.1,13.9 23.1,4.8 6.8,4.8 
	3.4,8.1 3.4,28.9 23.1,28.9 23.1,28.6 "/>
</svg>
