<?xml version="1.0" encoding="utf-8"?>
<!-- Generator: Adobe Illustrator 25.0.0, SVG Export Plug-In . SVG Version: 6.00 Build 0)  -->
<svg version="1.1" id="Layer_1" xmlns="http://www.w3.org/2000/svg" xmlns:xlink="http://www.w3.org/1999/xlink" x="0px" y="0px"
	 viewBox="0 0 36 36" style="enable-background:new 0 0 36 36;" xml:space="preserve">
<style type="text/css">
	.st0{fill:#0B4A99;}
</style>
<g>
	<path class="st0" d="M32.5,32.5h-29v-29h29V32.5z M4.5,31.6h27.1V4.4H4.5V31.6z"/>
</g>
<g>
	<path class="st0" d="M7.5,18.9c-0.1,0-0.2,0-0.3-0.1L4,16.6l-3.3,2.2c-0.2,0.1-0.5,0.1-0.6-0.1C-0.1,18.4,0,18.1,0.2,18L4,15.5
		L7.8,18C8,18.1,8,18.4,7.9,18.6C7.8,18.8,7.7,18.9,7.5,18.9z"/>
</g>
<g>
	<path class="st0" d="M16.8,8c-0.1,0-0.2,0-0.3-0.1c-0.2-0.1-0.3-0.4-0.1-0.6L18.6,4l-2.2-3.3c-0.1-0.2-0.1-0.5,0.1-0.6
		c0.2-0.1,0.5-0.1,0.6,0.1L19.7,4l-2.5,3.8C17.1,7.9,17,8,16.8,8z"/>
</g>
<g>
	<path class="st0" d="M19.2,36c-0.2,0-0.3-0.1-0.4-0.2L16.3,32l2.5-3.8c0.1-0.2,0.4-0.3,0.6-0.1c0.2,0.1,0.3,0.4,0.1,0.6L17.4,32
		l2.2,3.3c0.1,0.2,0.1,0.5-0.1,0.6C19.4,36,19.3,36,19.2,36z"/>
</g>
<g>
	<path class="st0" d="M32,19l-3.8-2.5C28,16.3,28,16,28.1,15.8c0.1-0.2,0.4-0.3,0.6-0.1l3.3,2.2l3.3-2.2c0.2-0.1,0.5-0.1,0.6,0.1
		c0.1,0.2,0.1,0.5-0.1,0.6L32,19z"/>
</g>
</svg>
