<?xml version="1.0" encoding="utf-8"?>
<!-- Generator: Adobe Illustrator 25.0.0, SVG Export Plug-In . SVG Version: 6.00 Build 0)  -->
<svg version="1.1" id="Layer_1" xmlns="http://www.w3.org/2000/svg" xmlns:xlink="http://www.w3.org/1999/xlink" x="0px" y="0px"
	 viewBox="0 0 36 36" style="enable-background:new 0 0 36 36;" xml:space="preserve">
<style type="text/css">
	.st0{fill:#C2CCD3;stroke:#0B4A99;stroke-width:0.25;stroke-miterlimit:10;}
	.st1{fill:#0B4A99;}
	.st2{fill:#CB1618;}
	.st3{fill:none;}
	.st4{fill:none;stroke:#0B4A99;stroke-width:0.5;stroke-miterlimit:10;}
	.st5{opacity:0.15;}
	.st6{fill:none;stroke:#0B4A99;stroke-width:3.000000e-02;stroke-miterlimit:10;}
	.st7{fill:#7AB5F4;}
	.st8{opacity:0.25;}
	.st9{fill:#C2CCD3;stroke:#0B4A99;stroke-width:0.5;stroke-miterlimit:10;}
	.st10{fill:#C2CCD3;stroke:#0B4A99;stroke-width:0.1;stroke-miterlimit:10;}
	.st11{fill:#7AB5F4;stroke:#0B4A99;stroke-width:0.5;stroke-miterlimit:10;}
	.st12{fill:#F0F7FC;}
	.st13{fill:#DAE5EA;}
	.st14{fill:#A9B1B7;}
	.st15{fill:#C2CCD3;}
	.st16{fill:#E3F1FC;}
	.st17{fill:#409DE2;}
</style>
<g>
	<polygon class="st16" points="18,1.3 4,15.2 9.3,31.6 28.8,34.6 33.9,14.7 	"/>
</g>
<g>
	<polygon class="st7" points="7.5,16.3 17.9,10.6 29.6,17.9 28.2,22 32,15.2 18,5 0.5,14.1 7.1,34.7 18.5,30.8 9.4,31.6 	"/>
</g>
<g>
	<polygon class="st15" points="28.2,22 24.5,28.7 18.5,30.8 25.6,30.2 	"/>
</g>
<g>
	<polygon class="st17" points="28.2,22 29.6,17.9 17.9,10.6 7.5,16.3 9.4,31.6 18.5,30.8 24.5,28.7 	"/>
</g>
<g>
	<path class="st1" d="M6.8,35.2L0,13.9L18,0.8L36,14l-6.8,21.1L6.8,35.2z M1,14.2l6.5,20.1l21.1-0.1L35,14.3L18,1.9L1,14.2z"/>
</g>
<g>
	<path class="st1" d="M9,32L3.5,15L18,4.6l14.6,10.5L27,31.9L9,32z M4.4,15.3l5.2,15.8l16.8-0.1l5.2-15.7L18,5.6L4.4,15.3z"/>
</g>
<g>
	<path class="st1" d="M11.2,29.2L7,16.2l11-8l11.1,8l-4.2,12.8L11.2,29.2z M8,16.5l3.8,11.8l12.5-0.1l3.8-11.7L18,9.3L8,16.5z"/>
</g>
<g>
	<path class="st1" d="M13.4,26.2l-2.9-8.8L18,12l7.5,5.4l-2.9,8.7L13.4,26.2z M11.5,17.7l2.5,7.6l8.1,0l2.5-7.6L18,13L11.5,17.7z"/>
</g>
<g>
	<path class="st1" d="M15.5,23.2L14,18.5l4.1-2.9l4.1,2.9l-1.6,4.6L15.5,23.2z M14.9,18.9l1.2,3.5l3.8,0l1.2-3.5L18,16.7L14.9,18.9z
		"/>
</g>
<g>
	<polygon class="st1" points="17.6,20.3 17.6,1.3 18.4,1.3 18.4,19.2 35.4,13.7 35.6,14.5 	"/>
</g>
<g>
	<polygon class="st1" points="7.5,35 6.8,34.5 18,19 29.2,34.4 28.5,34.9 18,20.5 	"/>
</g>
<g>
	<rect x="8.8" y="7.7" transform="matrix(0.3092 -0.951 0.951 0.3092 -9.7064 20.4619)" class="st1" width="0.8" height="18.4"/>
</g>
</svg>
