<?xml version="1.0" encoding="utf-8"?>
<!-- Generator: Adobe Illustrator 25.0.0, SVG Export Plug-In . SVG Version: 6.00 Build 0)  -->
<svg version="1.1" id="Layer_1" xmlns="http://www.w3.org/2000/svg" xmlns:xlink="http://www.w3.org/1999/xlink" x="0px" y="0px"
	 viewBox="0 0 36 36" style="enable-background:new 0 0 36 36;" xml:space="preserve">
<style type="text/css">
	.st0{fill:#C2CCD3;stroke:#0B4A99;stroke-width:0.25;stroke-miterlimit:10;}
	.st1{fill:#0B4A99;}
	.st2{fill:#CB1618;}
	.st3{fill:none;}
	.st4{fill:none;stroke:#0B4A99;stroke-width:0.5;stroke-miterlimit:10;}
	.st5{opacity:0.15;}
	.st6{fill:none;stroke:#0B4A99;stroke-width:3.000000e-02;stroke-miterlimit:10;}
	.st7{fill:#7AB5F4;}
	.st8{opacity:0.25;}
	.st9{fill:#C2CCD3;stroke:#0B4A99;stroke-width:0.5;stroke-miterlimit:10;}
	.st10{fill:#C2CCD3;stroke:#0B4A99;stroke-width:0.1;stroke-miterlimit:10;}
	.st11{fill:#7AB5F4;stroke:#0B4A99;stroke-width:0.5;stroke-miterlimit:10;}
	.st12{fill:#F0F7FC;}
	.st13{fill:#DAE5EA;}
	.st14{fill:#A9B1B7;}
	.st15{fill:#C2CCD3;}
	.st16{fill:#E3F1FC;}
	.st17{fill:#409DE2;}
</style>
<g>
	<polygon class="st12" points="18,1.1 3.8,15.1 9.2,31.8 28.9,34.8 34.2,14.6 	"/>
</g>
<g>
	<polygon class="st13" points="7.4,16.2 17.9,10.4 29.7,17.9 28.4,22 32.2,15.1 18,4.8 0.2,14 6.9,35 18.5,31 9.2,31.8 	"/>
</g>
<g>
	<polygon class="st14" points="28.4,22 24.6,28.9 18.5,31 25.7,30.3 	"/>
</g>
<g>
	<polygon class="st15" points="28.4,22 29.7,17.9 17.9,10.4 7.4,16.2 9.2,31.8 18.5,31 24.6,28.9 	"/>
</g>
<g>
	<path class="st1" d="M6.8,35.2L0,13.9L18,0.8l0.1,0.1L36,14l-6.8,21.1L6.8,35.2z M0.5,14.1l6.7,20.7l21.7-0.1l6.7-20.5L18,1.4
		L0.5,14.1z"/>
</g>
<g>
	<path class="st1" d="M9,32L3.5,15L18,4.6l14.5,10.5l0,0.1L27,31.9L9,32z M4,15.2l5.3,16.4l17.3-0.1L32,15.2L18,5.1L4,15.2z"/>
</g>
<g>
	<path class="st1" d="M11.2,29.1L7.1,16.2l0.1-0.1L18,8.4l0.1,0.1L29,16.3L24.8,29L11.2,29.1z M7.6,16.4l4,12.2l13-0.1l4-12.1
		L18,8.9L7.6,16.4z"/>
</g>
<g>
	<path class="st1" d="M13.4,26.1l-2.8-8.6l0.1-0.1l7.2-5.2l7.4,5.3L22.6,26L13.4,26.1z M11.1,17.6l2.6,8l8.5,0l2.6-8l-6.9-5
		L11.1,17.6z"/>
</g>
<g>
	<path class="st1" d="M15.6,23l-1.5-4.4l3.9-2.7l3.9,2.7L20.4,23L15.6,23z M14.7,18.8l1.3,3.9l4.2,0l1.3-3.8L18,16.4L14.7,18.8z"/>
</g>
<g>
	<polygon class="st1" points="17.8,20 17.8,1.1 18.2,1.1 18.2,19.5 35.7,13.8 35.8,14.2 	"/>
</g>
<g>
	<polygon class="st1" points="7.2,35.1 6.8,34.8 18,19.4 29.2,34.7 28.8,35 18,20.1 	"/>
</g>
<g>
	<rect x="8.9" y="7.6" transform="matrix(0.3092 -0.951 0.951 0.3092 -9.7516 20.3193)" class="st1" width="0.4" height="18.6"/>
</g>
</svg>
