<?xml version="1.0" encoding="utf-8"?>
<!-- Generator: Adobe Illustrator 25.0.0, SVG Export Plug-In . SVG Version: 6.00 Build 0)  -->
<svg version="1.1" id="Layer_1" xmlns="http://www.w3.org/2000/svg" xmlns:xlink="http://www.w3.org/1999/xlink" x="0px" y="0px"
	 viewBox="0 0 36 36" style="enable-background:new 0 0 36 36;" xml:space="preserve">
<style type="text/css">
	.st0{fill:#CB1618;}
	.st1{fill:#185ABD;}
	.st2{fill:#D83039;}
	.st3{fill:#103F91;}
	.st4{fill:#185C37;}
	.st5{fill:#33C481;}
	.st6{fill:#107C41;}
	.st7{fill:#21A366;}
	.st8{fill:#0B4A99;}
	.st9{fill:none;}
	.st10{fill:#FFFFFF;}
	.st11{fill:#41A5EE;}
	.st12{fill:#2B7CD3;}
	.st13{opacity:0.5;enable-background:new    ;}
	.st14{fill:url(#SVGID_1_);}
	.st15{fill:url(#SVGID_2_);}
	.st16{fill:url(#SVGID_3_);}
	.st17{fill:url(#SVGID_4_);}
	.st18{fill:#E24951;}
	.st19{fill-rule:evenodd;clip-rule:evenodd;}
	.st20{fill:#262625;}
	.st21{fill:none;stroke:#000000;stroke-width:0.75;stroke-miterlimit:10;}
	.st22{fill:none;stroke:#000000;stroke-width:1.2;stroke-miterlimit:10;}
	.st23{fill-rule:evenodd;clip-rule:evenodd;fill:#0B4A99;}
	.st24{fill:none;stroke:#0071C5;stroke-width:1.3;stroke-linecap:round;stroke-miterlimit:10;}
	.st25{fill:none;stroke:#F0AB00;stroke-width:1.3;stroke-miterlimit:10;}
	.st26{fill:#1C55A6;}
	.st27{fill:none;stroke:#1C55A6;stroke-width:1.3;stroke-linecap:round;}
	.st28{fill-rule:evenodd;clip-rule:evenodd;fill:none;stroke:#1C55A6;stroke-width:1.3;stroke-linecap:round;}
	.st29{fill:none;stroke:#1C55A6;stroke-width:1.3;stroke-linecap:round;stroke-miterlimit:10;}
	.st30{fill:none;stroke:#231F20;}
</style>
<g>
	<g>
		<path class="st8" d="M30.1,18.5H18.3c-0.6,0-1.1-0.5-1.1-1.1V1.1c0-0.6,0.5-1.1,1.1-1.1h11.8c0.6,0,1.1,0.5,1.1,1.1v2.1
			c0,0.3-0.2,0.5-0.5,0.5s-0.5-0.2-0.5-0.5V1.1C30.3,1,30.2,1,30.1,1H18.3c-0.1,0-0.2,0.1-0.2,0.2v16.2c0,0.1,0.1,0.2,0.2,0.2h11.8
			c0.1,0,0.2-0.1,0.2-0.2v-4.5c0-0.3,0.2-0.5,0.5-0.5s0.5,0.2,0.5,0.5v4.5C31.3,18,30.8,18.5,30.1,18.5z"/>
	</g>
	<g>
		<g>
			<path class="st8" d="M4,18.5C4,18.5,4,18.5,4,18.5c-0.3,0-0.5-0.2-0.5-0.5c0-0.7,0.1-1.4,0.2-2c0-0.3,0.3-0.4,0.6-0.4
				c0.3,0,0.4,0.3,0.4,0.6c-0.1,0.6-0.2,1.2-0.2,1.9C4.5,18.3,4.3,18.5,4,18.5z"/>
		</g>
		<g>
			<path class="st8" d="M5.3,13.4c-0.1,0-0.1,0-0.2,0c-0.2-0.1-0.3-0.4-0.2-0.6c0.5-1,1.1-2,1.9-2.8c0.2-0.2,0.5-0.2,0.7,0
				c0.2,0.2,0.2,0.5,0,0.7c-0.7,0.8-1.3,1.7-1.7,2.6C5.6,13.3,5.5,13.4,5.3,13.4z M9.5,8.5c-0.2,0-0.3-0.1-0.4-0.2
				C9,8.1,9,7.8,9.3,7.6c0.9-0.6,2-1.1,3.1-1.5c0.3-0.1,0.5,0.1,0.6,0.3C13,6.7,12.9,7,12.6,7.1c-1,0.3-1.9,0.8-2.8,1.4
				C9.7,8.5,9.6,8.5,9.5,8.5z"/>
		</g>
		<g>
			<path class="st8" d="M17.6,6.5C17.6,6.5,17.6,6.5,17.6,6.5c-0.7-0.1-1.3-0.1-1.9,0c-0.3,0-0.5-0.2-0.5-0.5c0-0.3,0.2-0.5,0.5-0.5
				c0.7,0,1.3,0,2,0c0.3,0,0.5,0.3,0.4,0.5C18.1,6.3,17.9,6.5,17.6,6.5z"/>
		</g>
	</g>
	<g>
		<g>
			<path class="st8" d="M28.6,20.4C28.6,20.4,28.6,20.4,28.6,20.4c-0.3,0-0.5-0.3-0.5-0.6c0.1-0.5,0.1-1,0.1-1.6l0-0.3
				c0-0.3,0.2-0.5,0.5-0.5c0,0,0,0,0,0c0.3,0,0.5,0.2,0.5,0.5l0,0.3c0,0.6,0,1.1-0.1,1.7C29.1,20.3,28.8,20.4,28.6,20.4z"/>
		</g>
		<g>
			<path class="st8" d="M19.7,30.7c-0.2,0-0.4-0.1-0.5-0.4c-0.1-0.3,0.1-0.5,0.3-0.6c1.1-0.3,2.2-0.8,3.2-1.4
				c0.2-0.1,0.5-0.1,0.7,0.2c0.1,0.2,0.1,0.5-0.2,0.7c-1.1,0.7-2.2,1.2-3.4,1.5C19.8,30.7,19.7,30.7,19.7,30.7z M25.7,26.9
				c-0.1,0-0.2,0-0.3-0.1c-0.2-0.2-0.2-0.5,0-0.7c0.8-0.9,1.4-1.9,1.9-2.9c0.1-0.2,0.4-0.4,0.6-0.2c0.2,0.1,0.4,0.4,0.2,0.6
				c-0.5,1.1-1.2,2.2-2,3.1C25.9,26.8,25.8,26.9,25.7,26.9z"/>
		</g>
		<g>
			<path class="st8" d="M16.1,31.1C16.1,31.1,16.1,31.1,16.1,31.1c-0.7,0-1.4-0.1-2-0.2c-0.3,0-0.4-0.3-0.4-0.6
				c0-0.3,0.3-0.4,0.6-0.4c0.6,0.1,1.2,0.2,1.9,0.2c0.3,0,0.5,0.2,0.5,0.5C16.6,30.9,16.4,31.1,16.1,31.1z"/>
		</g>
	</g>
	<g>
		<path class="st8" d="M28.2,4H20c-0.3,0-0.5-0.2-0.5-0.5s0.2-0.5,0.5-0.5h8.3c0.3,0,0.5,0.2,0.5,0.5S28.5,4,28.2,4z"/>
	</g>
	<g>
		<path class="st8" d="M26.8,7.1H20c-0.3,0-0.5-0.2-0.5-0.5c0-0.3,0.2-0.5,0.5-0.5h6.9c0.3,0,0.5,0.2,0.5,0.5
			C27.3,6.9,27.1,7.1,26.8,7.1z"/>
	</g>
	<g>
		<path class="st8" d="M24.8,10.1H20c-0.3,0-0.5-0.2-0.5-0.5s0.2-0.5,0.5-0.5h4.8c0.3,0,0.5,0.2,0.5,0.5S25,10.1,24.8,10.1z"/>
	</g>
	<g>
		<path class="st8" d="M27.2,14c-0.2,0-0.3-0.1-0.4-0.2l-2-2l0-0.3c0-0.2,0.1-0.3,0.2-0.4l5-4.9l2.7-2.8c0.4-0.2,0.9-0.2,1.3,0.3
			l1.2,1.2c0.1,0.1,0.4,0.4,0.4,0.8c0,0.3-0.1,0.6-0.4,0.8l-0.9,0.8l-6.6,6.5C27.5,13.9,27.4,14,27.2,14z M27.5,13.1L27.5,13.1
			L27.5,13.1z M25.9,11.5l1.3,1.3l7.4-7.2c0,0,0-0.1-0.1-0.1l-1.3-1.2c-0.1-0.1-0.1-0.1-0.1-0.1l-2.5,2.7L25.9,11.5z"/>
	</g>
	<g>
		<path class="st8" d="M23.8,15.6c-0.2,0-0.4-0.1-0.5-0.2c-0.2-0.2-0.3-0.6-0.1-0.8l1.5-3.2c0.1-0.2,0.4-0.3,0.6-0.2
			c0.2,0.1,0.3,0.4,0.2,0.6l-1.2,2.6l2.6-1.2c0.2-0.1,0.5,0,0.6,0.2c0.1,0.2,0,0.5-0.2,0.6l-3.2,1.5C24.1,15.6,24,15.6,23.8,15.6z
			 M24.1,15L24.1,15C24.1,15,24.1,15,24.1,15z M23.7,14.7C23.7,14.7,23.7,14.7,23.7,14.7L23.7,14.7z"/>
	</g>
	<g>
		<path class="st8" d="M13.4,36H1.6c-0.6,0-1.1-0.5-1.1-1.1V18.7c0-0.6,0.5-1.1,1.1-1.1h11.8c0.6,0,1.1,0.5,1.1,1.1v2.1
			c0,0.3-0.2,0.5-0.5,0.5c-0.3,0-0.5-0.2-0.5-0.5v-2.1c0-0.1-0.1-0.2-0.2-0.2H1.6c-0.1,0-0.2,0.1-0.2,0.2v16.2C1.4,35,1.5,35,1.6,35
			h11.8c0.1,0,0.2-0.1,0.2-0.2v-4.5c0-0.3,0.2-0.5,0.5-0.5c0.3,0,0.5,0.2,0.5,0.5v4.5C14.5,35.5,14,36,13.4,36z"/>
	</g>
	<g>
		<path class="st8" d="M11.5,21.5H3.2c-0.3,0-0.5-0.2-0.5-0.5s0.2-0.5,0.5-0.5h8.3c0.3,0,0.5,0.2,0.5,0.5S11.8,21.5,11.5,21.5z"/>
	</g>
	<g>
		<path class="st8" d="M10.1,24.6H3.2c-0.3,0-0.5-0.2-0.5-0.5c0-0.3,0.2-0.5,0.5-0.5h6.9c0.3,0,0.5,0.2,0.5,0.5
			C10.6,24.4,10.4,24.6,10.1,24.6z"/>
	</g>
	<g>
		<path class="st8" d="M8,27.6H3.2c-0.3,0-0.5-0.2-0.5-0.5c0-0.3,0.2-0.5,0.5-0.5H8c0.3,0,0.5,0.2,0.5,0.5C8.5,27.4,8.3,27.6,8,27.6
			z"/>
	</g>
	<g>
		<path class="st8" d="M10.5,31.5c-0.2,0-0.3-0.1-0.4-0.2l-2-2l0-0.3c0-0.2,0.1-0.3,0.2-0.4l5-4.9l2.7-2.8c0.4-0.2,0.9-0.2,1.3,0.3
			l1.2,1.2c0.1,0.1,0.4,0.4,0.4,0.8c0,0.3-0.2,0.6-0.4,0.8l-0.9,0.8l-6.6,6.5C10.8,31.4,10.6,31.5,10.5,31.5z M10.7,30.6L10.7,30.6
			L10.7,30.6z M9.1,29l1.3,1.3l7.4-7.2c0,0,0-0.1-0.1-0.1l-1.3-1.2c-0.1-0.1-0.1-0.1-0.1-0.1l0,0l-2.5,2.7L9.1,29z M8.8,28.8
			L8.8,28.8C8.8,28.8,8.8,28.8,8.8,28.8z"/>
	</g>
	<g>
		<path class="st8" d="M7.1,33.1c-0.2,0-0.4-0.1-0.5-0.2c-0.2-0.2-0.3-0.6-0.1-0.8L8,28.9c0.1-0.2,0.4-0.3,0.6-0.2
			c0.2,0.1,0.3,0.4,0.2,0.6l-1.2,2.6l2.6-1.2c0.2-0.1,0.5,0,0.6,0.2c0.1,0.2,0,0.5-0.2,0.6l-3.2,1.5C7.3,33.1,7.2,33.1,7.1,33.1z
			 M7.3,32.5L7.3,32.5C7.3,32.5,7.3,32.5,7.3,32.5z M7,32.2C7,32.2,7,32.2,7,32.2L7,32.2z"/>
	</g>
</g>
</svg>
