<?xml version="1.0" encoding="utf-8"?>
<!-- Generator: Adobe Illustrator 25.0.0, SVG Export Plug-In . SVG Version: 6.00 Build 0)  -->
<svg version="1.1" id="Layer_1" xmlns="http://www.w3.org/2000/svg" xmlns:xlink="http://www.w3.org/1999/xlink" x="0px" y="0px"
	 viewBox="0 0 18 18" style="enable-background:new 0 0 18 18;" xml:space="preserve">
<style type="text/css">
	.st0{fill:#0B4A99;}
	.st1{fill:none;stroke:#0B4A99;stroke-width:0.8;stroke-linecap:round;stroke-miterlimit:10;}
</style>
<g>
	<g>
		<path class="st0" d="M8.1,17.2c-4.5,0-8.2-3.7-8.2-8.2s3.7-8.2,8.2-8.2c4,0,7.4,2.9,8.1,6.8c0,0.2-0.1,0.4-0.3,0.4
			c-0.2,0-0.4-0.1-0.4-0.3c-0.6-3.6-3.7-6.2-7.3-6.2C4,1.6,0.7,4.9,0.7,9s3.3,7.4,7.4,7.4c2.5,0,4.8-1.3,6.2-3.4
			c0.1-0.2,0.4-0.2,0.5-0.1c0.2,0.1,0.2,0.4,0.1,0.5C13.5,15.8,10.9,17.2,8.1,17.2z"/>
	</g>
	<g>
		<path class="st0" d="M16,8.7l-3.5-1.6c-0.2-0.1-0.3-0.3-0.2-0.5c0.1-0.2,0.3-0.3,0.5-0.2l2.8,1.3L17.4,5c0.1-0.2,0.3-0.2,0.5-0.1
			C18.1,5,18.1,5.2,18,5.4L16,8.7z"/>
	</g>
</g>
</svg>
