<?xml version="1.0" encoding="utf-8"?>
<!-- Generator: Adobe Illustrator 25.0.0, SVG Export Plug-In . SVG Version: 6.00 Build 0)  -->
<svg version="1.1" id="Layer_1" xmlns="http://www.w3.org/2000/svg" xmlns:xlink="http://www.w3.org/1999/xlink" x="0px" y="0px"
	 viewBox="0 0 36 36" style="enable-background:new 0 0 36 36;" xml:space="preserve">
<style type="text/css">
	.st0{fill:#CB1618;}
	.st1{fill:#185ABD;}
	.st2{fill:#D83039;}
	.st3{fill:#103F91;}
	.st4{fill:#185C37;}
	.st5{fill:#33C481;}
	.st6{fill:#107C41;}
	.st7{fill:#21A366;}
	.st8{fill:#0B4A99;}
	.st9{fill:none;}
	.st10{fill:#FFFFFF;}
	.st11{fill:#41A5EE;}
	.st12{fill:#2B7CD3;}
	.st13{opacity:0.5;enable-background:new    ;}
	.st14{fill:url(#SVGID_1_);}
	.st15{fill:url(#SVGID_2_);}
	.st16{fill:url(#SVGID_3_);}
	.st17{fill:url(#SVGID_4_);}
	.st18{fill:#E24951;}
	.st19{fill-rule:evenodd;clip-rule:evenodd;}
	.st20{fill:#262625;}
	.st21{fill:none;stroke:#000000;stroke-width:0.75;stroke-miterlimit:10;}
	.st22{fill:none;stroke:#000000;stroke-width:1.2;stroke-miterlimit:10;}
	.st23{fill-rule:evenodd;clip-rule:evenodd;fill:#0B4A99;}
</style>
<g>
	<path class="st8" d="M32.4,19.6c-0.4-0.1-0.7,0.2-0.8,0.6c-1.1,6.7-6.8,11.6-13.6,11.6c-6.6,0-12.2-4.6-13.5-11l4.2,1.9
		c0.3,0.2,0.8,0,0.9-0.3c0.1-0.2,0.1-0.4,0-0.5c-0.1-0.2-0.2-0.3-0.4-0.4l-6-2.8l-0.1,0l-3,5.6C0,24.4,0,24.6,0,24.8
		c0.1,0.2,0.2,0.3,0.3,0.4c0.1,0.1,0.2,0.1,0.3,0.1c0.3,0,0.5-0.1,0.6-0.4l1.9-3.4c1.6,6.9,7.6,11.7,14.8,11.7
		c7.5,0,13.8-5.4,15-12.8c0-0.2,0-0.4-0.1-0.5C32.7,19.7,32.6,19.6,32.4,19.6z"/>
	<path class="st8" d="M36,10.7c-0.1-0.2-0.2-0.3-0.3-0.4c-0.2-0.1-0.4-0.1-0.5-0.1c-0.2,0.1-0.3,0.2-0.4,0.3l-2,3.7
		C31,7.6,25,2.8,18,2.8c-7.5,0-13.8,5.3-15,12.7c0,0.2,0,0.4,0.1,0.5c0.1,0.2,0.3,0.3,0.5,0.3c0,0,0.1,0,0.1,0
		c0.3,0,0.6-0.2,0.7-0.6C5.4,9.1,11.2,4.2,18,4.2c6.4,0,11.8,4.3,13.4,10.4l-4-1.8c-0.2-0.1-0.4-0.1-0.5,0s-0.3,0.2-0.4,0.4
		c-0.2,0.4,0,0.8,0.3,0.9l6,2.8l0.1,0l3-5.6C36,11.1,36,10.9,36,10.7z"/>
</g>
</svg>
