<?xml version="1.0" encoding="iso-8859-1"?>
<!-- Generator: Adobe Illustrator 12.0.0, SVG Export Plug-In . SVG Version: 6.00 Build 51448)  -->
<!DOCTYPE svg PUBLIC "-//W3C//DTD SVG 1.1//EN" "http://www.w3.org/Graphics/SVG/1.1/DTD/svg11.dtd" [
	<!ENTITY ns_svg "http://www.w3.org/2000/svg">
	<!ENTITY ns_xlink "http://www.w3.org/1999/xlink">
]>
<svg  version="1.1" id="Layer_1" xmlns="&ns_svg;" xmlns:xlink="&ns_xlink;" width="60.095" height="60.095"
	 viewBox="0 0 60.095 60.095" style="overflow:visible;enable-background:new 0 0 60.095 60.095;" xml:space="preserve">
<g>
	<path style="fill:#008FD3;" d="M60.095,52.176c0,4.37-3.771,7.919-8.43,7.919H8.437C3.778,60.095,0,56.546,0,52.176V7.923
		C0,3.55,3.778,0,8.437,0h43.229c4.658,0,8.43,3.55,8.43,7.923V52.176z M57.167,10.079c0-3.947-3.404-7.151-7.608-7.151H10.542
		c-4.204,0-7.614,3.204-7.614,7.151V50.02c0,3.944,3.41,7.147,7.614,7.147h39.017c4.204,0,7.608-3.203,7.608-7.147V10.079z"/>
	<g>
		<path style="fill:none;stroke:#008FD3;stroke-width:1.5;" d="M12.71,47.645c0,0.267,0.244,0.482,0.548,0.482h30.859
			c0.303,0,0.55-0.216,0.55-0.482V26.419c0-0.267-0.102-0.285-0.229-0.042l-6.844,6.194c-0.125,0.243-0.469,0.405-0.77,0.362
			l-3.356-0.482c-0.302-0.043-0.666,0.11-0.82,0.34l-5.884,8.925c-0.153,0.23-0.521,0.385-0.821,0.344l-3.48-0.467
			c-0.298-0.039-0.733,0.066-0.966,0.235l-8.363,3.706c-0.237,0.17-0.424,0.523-0.424,0.789V47.645z"/>
		<g>
			<g>
				<g>
					<path style="fill:#008FD3;" d="M17.126,15.969l4.592,7.954c-1.234,0.615-2.62,0.969-4.094,0.969
						c-5.086,0-9.21-4.125-9.21-9.211c0-4.892,3.817-8.881,8.634-9.181v9.181C17.048,15.779,17.074,15.879,17.126,15.969
						L17.126,15.969z M26.806,15.105h-8.606V6.5C22.825,6.787,26.519,10.48,26.806,15.105L26.806,15.105z M19.351,13.953h6.134
						c-0.669-3.057-3.078-5.464-6.134-6.134V13.953z M22.717,23.353c2.331-1.551,3.905-4.135,4.089-7.097h-8.185L22.717,23.353z
						 M22.717,23.353"/>
				</g>
			</g>
			<path style="fill:#008FD3;" d="M48.562,26.902h-0.844c-0.304,0-0.551,0.216-0.551,0.482c0,0.267,0.247,0.483,0.551,0.483h0.844
				v3.473h-0.844c-0.304,0-0.551,0.217-0.551,0.483c0,0.265,0.247,0.482,0.551,0.482h0.844v3.471h-0.844
				c-0.304,0-0.551,0.217-0.551,0.483s0.247,0.482,0.551,0.482h0.844v3.473h-0.844c-0.304,0-0.551,0.218-0.551,0.483
				s0.247,0.482,0.551,0.482h0.844v3.473h-0.844c-0.304,0-0.551,0.217-0.551,0.482c0,0.267,0.247,0.484,0.551,0.484h0.844v5.562
				H38.178v-0.693c0-0.268-0.246-0.483-0.55-0.483s-0.55,0.216-0.55,0.483v0.693h-3.913v-0.693c0-0.268-0.245-0.483-0.548-0.483
				s-0.55,0.216-0.55,0.483v0.693h-3.913v-0.693c0-0.268-0.244-0.483-0.55-0.483c-0.303,0-0.547,0.216-0.547,0.483v0.693h-3.913
				v-0.693c0-0.268-0.247-0.483-0.551-0.483c-0.303,0-0.547,0.216-0.547,0.483v0.693h-3.912v-0.693c0-0.268-0.247-0.483-0.551-0.483
				c-0.303,0-0.549,0.216-0.549,0.483v0.693H9.101v2.413h42.21V25.697h-2.749V26.902z"/>
			<path style="fill:#008FD3;" d="M21.286,38.957l1.476,0.741c0.409,0.203,0.946,0.062,1.203-0.315l4.43-6.547l1.093,0.548
				c0.407,0.204,0.652,0.035,0.544-0.376l-0.845-3.231c-0.108-0.412-0.577-0.646-1.045-0.523l-3.684,0.963
				c-0.468,0.122-0.518,0.387-0.111,0.592l1.093,0.548l-4.431,6.547C20.753,38.28,20.876,38.753,21.286,38.957L21.286,38.957z"/>
			<path style="fill:#008FD3;" d="M46.958,12.973c0,0.841-0.378,1.522-0.846,1.522H33.62c-0.468,0-0.846-0.681-0.846-1.522l0,0
				c0-0.841,0.378-1.523,0.846-1.523h12.492C46.58,11.45,46.958,12.132,46.958,12.973L46.958,12.973z"/>
			<path style="fill:#008FD3;" d="M51.681,20.333c0,0.841-0.587,1.522-1.312,1.522H34.238c-0.725,0-1.311-0.681-1.311-1.522l0,0
				c0-0.841,0.586-1.523,1.311-1.523h16.131C51.094,18.81,51.681,19.492,51.681,20.333L51.681,20.333z"/>
			<g>
				<path style="fill:#008FD3;" d="M9.921,31.013c0-0.786,0.172-1.368,0.518-1.747c0.346-0.379,0.814-0.568,1.406-0.568
					c0.611,0,1.089,0.188,1.435,0.566c0.346,0.376,0.519,0.96,0.519,1.75c0,0.785-0.173,1.368-0.519,1.747s-0.814,0.568-1.406,0.568
					c-0.611,0-1.089-0.188-1.435-0.565C10.094,32.387,9.921,31.803,9.921,31.013z M11.236,30.998c0,0.569,0.065,0.952,0.197,1.147
					c0.099,0.144,0.237,0.215,0.412,0.215c0.179,0,0.318-0.071,0.418-0.215c0.127-0.195,0.191-0.578,0.191-1.147
					c0-0.57-0.064-0.95-0.191-1.141c-0.1-0.148-0.239-0.222-0.418-0.222c-0.175,0-0.313,0.072-0.412,0.215
					C11.301,30.046,11.236,30.428,11.236,30.998z M13.126,37.966h-1.245l4.678-9.269h1.213L13.126,37.966z M15.845,35.655
					c0-0.787,0.172-1.371,0.518-1.75c0.346-0.38,0.818-0.57,1.418-0.57c0.603,0,1.077,0.19,1.423,0.57
					c0.346,0.379,0.519,0.963,0.519,1.75c0,0.791-0.173,1.377-0.519,1.756c-0.346,0.38-0.814,0.57-1.405,0.57
					c-0.611,0-1.09-0.19-1.436-0.57C16.017,37.032,15.845,36.446,15.845,35.655z M17.159,35.65c0,0.57,0.065,0.95,0.197,1.142
					c0.099,0.147,0.237,0.222,0.412,0.222c0.179,0,0.317-0.072,0.412-0.215c0.132-0.195,0.197-0.578,0.197-1.148
					c0-0.569-0.064-0.952-0.191-1.147c-0.1-0.143-0.239-0.215-0.418-0.215s-0.317,0.072-0.412,0.215
					C17.225,34.698,17.159,35.081,17.159,35.65z"/>
			</g>
		</g>
	</g>
</g>
</svg>
