<?xml version="1.0" encoding="iso-8859-1"?>
<!-- Generator: Adobe Illustrator 12.0.0, SVG Export Plug-In . SVG Version: 6.00 Build 51448)  -->
<!DOCTYPE svg PUBLIC "-//W3C//DTD SVG 1.1//EN" "http://www.w3.org/Graphics/SVG/1.1/DTD/svg11.dtd" [
	<!ENTITY ns_svg "http://www.w3.org/2000/svg">
	<!ENTITY ns_xlink "http://www.w3.org/1999/xlink">
]>
<svg  version="1.1" id="Layer_1" xmlns="&ns_svg;" xmlns:xlink="&ns_xlink;" width="60.095" height="60.095"
	 viewBox="0 0 60.095 60.095" style="overflow:visible;enable-background:new 0 0 60.095 60.095;" xml:space="preserve">
<g>
	<path style="fill:#008FD3;" d="M60.095,52.176c0,4.37-3.771,7.919-8.43,7.919H8.437C3.778,60.095,0,56.546,0,52.176V7.923
		C0,3.55,3.778,0,8.437,0h43.229c4.658,0,8.43,3.55,8.43,7.923V52.176z M57.167,10.079c0-3.947-3.404-7.151-7.608-7.151H10.542
		c-4.204,0-7.614,3.204-7.614,7.151V50.02c0,3.944,3.41,7.147,7.614,7.147h39.017c4.204,0,7.608-3.203,7.608-7.147V10.079z"/>
	<g>
		<g>
			<g>
				<path style="fill:#008FD3;" d="M15.519,11.229c-4.907,0-8.883,3.977-8.883,8.882c0,4.904,3.976,8.88,8.883,8.88
					c4.9,0,8.879-3.976,8.879-8.88h-8.879V11.229z"/>
				<path style="fill:#008FD3;" d="M25.837,18.917c0-5.35-3.635-8.989-8.988-8.989v8.989H25.837z"/>
			</g>
			<g>
				<g>
					<rect x="6.277" y="47.984" style="fill:#008FD3;" width="19.917" height="2.184"/>
					<rect x="6.274" y="42.195" style="fill:#008FD3;" width="2.885" height="7.889"/>
					<rect x="11.66" y="35.057" style="fill:#008FD3;" width="2.882" height="15.027"/>
					<rect x="17.359" y="38.414" style="fill:#008FD3;" width="2.882" height="11.67"/>
					<rect x="23.316" y="37.031" style="fill:#008FD3;" width="2.882" height="13.053"/>
				</g>
			</g>
		</g>
		<g>
			<path style="fill:#008FD3;" d="M35.031,11.918c0,1.233-0.997,2.228-2.228,2.228c-1.229,0-2.227-0.994-2.227-2.228
				c0-1.23,0.997-2.226,2.227-2.226C34.034,9.692,35.031,10.688,35.031,11.918z"/>
			<path style="fill:#008FD3;" d="M53.066,12.182c0,0.576-0.732,1.046-1.637,1.046h-9.62c-0.905,0-1.637-0.47-1.637-1.046v-0.525
				c0-0.577,0.731-1.047,1.637-1.047h9.62c0.904,0,1.637,0.47,1.637,1.047V12.182z"/>
			<path style="fill:#008FD3;" d="M35.031,18.813c0,1.233-0.997,2.228-2.228,2.228c-1.229,0-2.227-0.994-2.227-2.228
				c0-1.23,0.997-2.225,2.227-2.225C34.034,16.588,35.031,17.582,35.031,18.813z"/>
			<path style="fill:#008FD3;" d="M53.066,19.077c0,0.576-0.732,1.046-1.637,1.046h-9.62c-0.905,0-1.637-0.47-1.637-1.046v-0.526
				c0-0.576,0.731-1.046,1.637-1.046h9.62c0.904,0,1.637,0.47,1.637,1.046V19.077z"/>
			<path style="fill:#008FD3;" d="M45.636,34.339c0,0.012,0,0.027,0,0.041l-0.008,2.027l0.008,0.458l-0.008-0.458l0.008-2.027
				C45.636,34.366,45.636,34.351,45.636,34.339v-0.972l0.247,0.033c0.271,0.019,0.677,0.024,1.204,0.024
				c0.916,0,1.549,0.408,1.906,1.22c0.111,0.253,0.188,0.532,0.229,0.833c0.021,0.154,0.032,0.279,0.032,0.382l-0.01,1.513
				c-0.182,3.602-0.536,6.362-1.06,8.282c-0.524,1.917-0.99,3.437-1.396,4.56l-10.796,0.03c-1.074-5.129-3.211-9.127-6.405-11.979
				c0.731-3.407,2.443-3.447,5.128-0.122V27.082c0.006-0.088,0.015-0.195,0.03-0.315c0.037-0.305,0.107-0.584,0.211-0.837
				c0.308-0.76,0.842-1.164,1.601-1.212c0.758,0.048,1.292,0.452,1.6,1.212c0.103,0.253,0.172,0.532,0.211,0.837
				c0.016,0.121,0.024,0.228,0.026,0.315v3.711v3.466v-3.466h0.248c0.273,0.015,0.675,0.026,1.205,0.026
				c0.916,0,1.55,0.407,1.908,1.218c0.109,0.254,0.188,0.532,0.227,0.834c0.019,0.125,0.028,0.231,0.031,0.319v2.222V33.19v-1.244
				h0.248c0.273,0.015,0.677,0.025,1.205,0.025c0.916,0,1.549,0.407,1.906,1.219c0.111,0.254,0.188,0.533,0.229,0.834
				C45.622,34.148,45.632,34.252,45.636,34.339z"/>
			<path style="fill:#008FD3;" d="M52.295,50.402v-24.75c0-0.562,0.341-1.017,0.764-1.017l0,0c0.421,0,0.762,0.456,0.762,1.017
				v24.75H52.295z"/>
		</g>
	</g>
</g>
</svg>
