<?xml version="1.0" encoding="utf-8"?>
<!-- Generator: Adobe Illustrator 22.0.1, SVG Export Plug-In . SVG Version: 6.00 Build 0)  -->
<svg version="1.1" id="Layer_1" xmlns="http://www.w3.org/2000/svg" xmlns:xlink="http://www.w3.org/1999/xlink" x="0px" y="0px"
	 viewBox="0 0 16 16" style="enable-background:new 0 0 16 16;" xml:space="preserve">
<style type="text/css">
	.st0{fill:#2DD54F;}
	.st1{fill:#FF0303;}
	.st2{fill:#0396FF;}
	.st3{fill:#FFB103;}
</style>
<path class="st2" d="M8,0C3.6,0,0,3.6,0,8s3.6,8,8,8s8-3.6,8-8S12.4,0,8,0z M7.1,3.6c0.2-0.1,0.4-0.2,0.7-0.2c0.5,0,0.8,0.2,1.1,0.6
	C9,4.1,9.1,4.4,9.1,4.6c0,0.5-0.2,0.8-0.6,1.1C8.3,5.8,8.1,5.9,7.8,5.9c-0.4,0-0.8-0.2-1-0.6C6.6,5.1,6.6,4.9,6.6,4.6
	C6.6,4.2,6.8,3.8,7.1,3.6z M10.2,12.6H5.8v-0.2c0.5,0,0.8-0.2,1-0.5c0.1-0.2,0.1-0.5,0.1-0.9v-0.7V9.5c0-0.9-0.2-1.4-0.6-1.6
	C6.2,7.9,6.1,7.9,6,7.9V7.7c0.3,0,0.6,0,0.9-0.1c0.3-0.1,0.6-0.2,0.8-0.3C8,7.2,8.2,7.1,8.4,7c0.2-0.1,0.3-0.2,0.4-0.3l0.1-0.1h0.2
	v3.6V11c0,0.7,0.2,1.2,0.5,1.3c0.2,0.1,0.3,0.1,0.6,0.1V12.6z"/>
</svg>
