<?xml version="1.0" encoding="utf-8"?>
<!-- Generator: Adobe Illustrator 22.0.1, SVG Export Plug-In . SVG Version: 6.00 Build 0)  -->
<svg version="1.1" id="Layer_1" xmlns="http://www.w3.org/2000/svg" xmlns:xlink="http://www.w3.org/1999/xlink" x="0px" y="0px"
	 viewBox="0 0 30 30" style="enable-background:new 0 0 30 30;" xml:space="preserve">
<style type="text/css">
	.st0{fill:#FFFFFF;}
	.st1{fill:#40875E;}
	.st2{fill:#A8A240;}
	.st3{fill:#F0AB00;}
	.st4{fill:none;}
	.st5{fill:#0B4A99;}
</style>
<path class="st1" d="M14.1,23.2c0-0.8,0.1-1.5,0.3-2.2c-3.1-0.3-5.5-2.9-5.5-6.1c0-3.4,2.7-6.1,6.1-6.1c3.3,0,6,2.7,6.1,6
	c0.5-0.1,1-0.1,1.5-0.1c2.6,0,4.8,1.1,6.4,2.9h0.3c0.3,0,0.6-0.3,0.6-0.6v-4.2c0-0.3-0.3-0.6-0.6-0.6h-2.4c-0.3,0-0.5-0.2-0.6-0.5
	c-0.2-0.9-0.6-1.7-1-2.5c-0.1-0.2-0.1-0.6,0.1-0.8L27,6.8c0.2-0.2,0.2-0.6,0-0.9l-3-3c-0.2-0.2-0.6-0.2-0.9,0l-1.7,1.7
	c-0.2,0.2-0.5,0.2-0.8,0.1c-0.8-0.4-1.6-0.8-2.5-1c-0.3-0.1-0.5-0.3-0.5-0.6V0.8c0-0.3-0.3-0.6-0.6-0.6h-4.2c-0.3,0-0.6,0.3-0.6,0.6
	v2.4c0,0.3-0.2,0.5-0.5,0.6c-0.9,0.2-1.7,0.6-2.5,1C9.1,4.9,8.8,4.9,8.6,4.7L6.8,3C6.6,2.8,6.2,2.8,6,3L3,6C2.8,6.2,2.8,6.6,3,6.8
	l1.7,1.7c0.2,0.2,0.2,0.5,0.1,0.8c-0.4,0.8-0.8,1.6-1,2.5c-0.1,0.3-0.3,0.5-0.6,0.5H0.8c-0.3,0-0.6,0.3-0.6,0.6v4.2
	c0,0.3,0.3,0.6,0.6,0.6h2.4c0.3,0,0.5,0.2,0.6,0.5c0.2,0.9,0.6,1.7,1,2.5c0.1,0.2,0.1,0.6-0.1,0.8L3,23.2c-0.2,0.2-0.2,0.6,0,0.9
	l3,3c0.2,0.2,0.6,0.2,0.9,0l1.7-1.7c0.2-0.2,0.5-0.2,0.8-0.1c0.8,0.4,1.6,0.8,2.5,1c0.3,0.1,0.5,0.3,0.5,0.6v2.4
	c0,0.3,0.3,0.6,0.6,0.6h4.2c0.1,0,0.1,0,0.2,0C15.3,28.3,14.1,25.9,14.1,23.2z"/>
<path class="st2" d="M18.8,15.6c0-0.2,0.1-0.4,0.1-0.6c0-2.2-1.7-3.9-3.9-3.9c-2.2,0-3.9,1.7-3.9,3.9c0,2.2,1.7,3.9,3.9,3.9
	c0.1,0,0.2,0,0.3,0C16.1,17.5,17.4,16.4,18.8,15.6z"/>
<g>
	<path class="st3" d="M18.4,23.1c0-1.2,0.6-2.3,1.5-3.1l0.3,1l2.2-2.4l-3.2-0.7l0.3,1.1c-1.4,0.9-2.2,2.5-2.2,4.2
		c0,1.7,0.9,3.3,2.3,4.2l0.6-0.9C19.1,25.7,18.4,24.4,18.4,23.1z"/>
	<path class="st3" d="M27.4,23.1c0-1.9-1-3.6-2.6-4.4l-0.5,1c1.3,0.7,2.1,2,2.1,3.5c0,1.2-0.6,2.3-1.5,3.1l-0.3-1l-2.2,2.4l3.2,0.7
		l-0.3-1.1C26.6,26.3,27.4,24.7,27.4,23.1z"/>
</g>
</svg>
