<?xml version="1.0" encoding="iso-8859-1"?>
<!-- Generator: Adobe Illustrator 12.0.0, SVG Export Plug-In . SVG Version: 6.00 Build 51448)  -->
<!DOCTYPE svg PUBLIC "-//W3C//DTD SVG 1.1//EN" "http://www.w3.org/Graphics/SVG/1.1/DTD/svg11.dtd" [
	<!ENTITY ns_svg "http://www.w3.org/2000/svg">
	<!ENTITY ns_xlink "http://www.w3.org/1999/xlink">
]>
<svg  version="1.1" id="Layer_1" xmlns="&ns_svg;" xmlns:xlink="&ns_xlink;" width="60.096" height="60.095"
	 viewBox="0 0 60.096 60.095" style="overflow:visible;enable-background:new 0 0 60.096 60.095;" xml:space="preserve">
<g>
	<path style="fill:#008FD3;" d="M60.096,55.981c0,2.271-1.842,4.113-4.115,4.113H4.114C1.842,60.095,0,58.253,0,55.981V4.113
		C0,1.842,1.842,0,4.114,0H55.98c2.273,0,4.115,1.842,4.115,4.113V55.981z M57.352,6.48c0-2.064-1.674-3.738-3.738-3.738H7.375
		c-2.064,0-3.738,1.674-3.738,3.738v46.955c0,2.064,1.674,3.737,3.738,3.737l46.238-0.536c2.064,0,3.738-1.674,3.738-3.738V6.48z"/>
	<g>
		<path style="fill:none;stroke:#008FD3;stroke-width:0.75;" d="M20.991,34.171h-7.393V16.047c0,0-0.06-3.339,3.458-3.22h26.709
			c0,0,3.637-0.417,3.457,3.22v27.245c0,0,0.357,2.564-2.742,3.101h-21.88l-10.97-10.493V13.364c0,0,0.238-2.742,3.517-2.861H46.27
			c0,0,3.248,0.372,3.338,3.771v30.45c0,0,0,3.264-3.488,3.666H21.527L9.768,37.032V11.859c0,0,0-2.907,3.801-3.533h34.205
			c0,0,3.668,0.582,3.936,3.891v34.205c0,0,0.135,3.398-3.891,4.069H20.365L7.577,37.972V10.428c0,0,0.134-3.442,4.248-4.113h37.693
			c0,0,3.801,0.402,4.338,4.203v37.693c0,0,0.09,3.935-4.695,4.427H19.381L5.52,38.821V8.773c0,0-0.134-3.845,4.829-4.561h41.27
			c0,0,3.846,0.895,4.113,4.65v41.583c0,0-0.357,3.756-4.783,4.382H18.666L3.418,39.536V6.717c0,0-0.045-2.951,3.041-4.292"/>
	</g>
	<polygon style="fill:#008FD3;" points="57.119,58.137 21.348,58.137 19.828,56.438 57.119,56.438 	"/>
	<path style="fill:#008FD3;" d="M40.128,36.913c0,1.186-0.961,2.146-2.146,2.146H22.898c-1.185,0-2.146-0.961-2.146-2.146V21.89
		c0-1.186,0.961-2.146,2.146-2.146h15.083c1.186,0,2.146,0.961,2.146,2.146V36.913z M23.646,32.062V29.89h0.213
		c0.241,0,0.417,0.02,0.529,0.059c0.111,0.039,0.216,0.111,0.316,0.216c0.099,0.106,0.284,0.36,0.554,0.766l0.758,1.132h1.256
		l-0.635-1.015c-0.25-0.405-0.45-0.686-0.598-0.845c-0.147-0.158-0.334-0.305-0.562-0.436c0.456-0.066,0.797-0.227,1.027-0.481
		c0.229-0.255,0.343-0.577,0.343-0.968c0-0.308-0.076-0.581-0.227-0.82c-0.151-0.238-0.353-0.404-0.605-0.498
		c-0.252-0.095-0.655-0.141-1.211-0.141h-2.21v5.203H23.646z M23.646,27.739h0.818c0.426,0,0.681,0.007,0.766,0.02
		c0.17,0.027,0.302,0.096,0.395,0.203c0.093,0.108,0.14,0.249,0.14,0.425c0,0.155-0.035,0.286-0.106,0.39
		c-0.071,0.104-0.169,0.179-0.294,0.221c-0.125,0.043-0.439,0.063-0.943,0.063h-0.776V27.739z M28.893,32.062v-2.21h2.172V28.97
		h-2.172v-1.23h2.517v-0.881h-3.569v5.203H28.893z M33.293,32.062v-5.203h-1.052v5.203H33.293z M34.291,32.062h1.976
		c0.388,0,0.698-0.036,0.929-0.109c0.311-0.1,0.557-0.237,0.738-0.416c0.241-0.234,0.428-0.54,0.557-0.919
		c0.107-0.311,0.16-0.679,0.16-1.107c0-0.487-0.057-0.896-0.17-1.229s-0.279-0.613-0.496-0.844c-0.219-0.229-0.48-0.389-0.785-0.479
		c-0.227-0.066-0.557-0.1-0.989-0.1h-1.919V32.062z M35.814,27.739c0.428,0,0.716,0.017,0.863,0.05
		c0.195,0.043,0.357,0.124,0.485,0.246c0.128,0.119,0.228,0.287,0.298,0.503c0.072,0.214,0.107,0.522,0.107,0.924
		s-0.035,0.719-0.107,0.951c-0.07,0.233-0.162,0.4-0.274,0.502s-0.254,0.174-0.425,0.216c-0.129,0.033-0.342,0.05-0.635,0.05h-0.784
		v-3.441H35.814z M28.685,25.994c0,0,1.807-0.668,3.231,0.028l0.348-0.773c0,0-1.842-0.77-3.84,0L28.685,25.994z M28.189,24.485
		c0,0,2.346-0.668,4.195,0.028l0.452-0.774c0,0-2.392-0.769-4.986,0L28.189,24.485z M27.625,23.114c0,0,2.96-0.88,5.293,0.038
		l0.569-1.02c0,0-3.017-1.015-6.29,0L27.625,23.114z M32.003,32.923c0,0-1.807,0.668-3.231-0.028l-0.348,0.773
		c0,0,1.842,0.77,3.84,0L32.003,32.923z M32.498,34.432c0,0-2.346,0.668-4.196-0.028l-0.452,0.774c0,0,2.392,0.769,4.986,0
		L32.498,34.432z M33.063,35.803c0,0-2.961,0.88-5.294-0.038l-0.57,1.02c0,0,3.017,1.015,6.29,0L33.063,35.803z"/>
</g>
</svg>
