<?xml version="1.0" encoding="utf-8"?>
<!-- Generator: Adobe Illustrator 22.0.1, SVG Export Plug-In . SVG Version: 6.00 Build 0)  -->
<svg version="1.1" id="Layer_1" xmlns="http://www.w3.org/2000/svg" xmlns:xlink="http://www.w3.org/1999/xlink" x="0px" y="0px"
	 viewBox="0 0 126 116" style="enable-background:new 0 0 126 116;" xml:space="preserve">
<style type="text/css">
	.st0{fill:url(#SVGID_1_);}
	.st1{fill:none;stroke:#0459A2;stroke-miterlimit:10;}
	.st2{fill:#FF0013;}
	.st3{fill:#0B4A99;}
	.st4{fill:#CD1618;}
	.st5{fill:#DB9821;}
	.st6{fill:#40875E;}
	.st7{fill:#918831;}
	.st8{fill:#F0AB00;}
	.st9{fill:#A8A240;}
	.st10{fill:none;}
	.st11{fill:#0071C5;}
	.st12{fill:#EFAA1E;}
	.st13{fill:none;stroke:#000000;stroke-width:0.5;stroke-miterlimit:10;}
	.st14{fill:#A69F3D;}
	.st15{fill:#231F20;}
	.st16{fill-rule:evenodd;clip-rule:evenodd;fill:#A69F3D;}
	.st17{fill-rule:evenodd;clip-rule:evenodd;fill:#F0AB00;}
	.st18{fill-rule:evenodd;clip-rule:evenodd;fill:#A8A240;}
	.st19{fill-rule:evenodd;clip-rule:evenodd;fill:#40875E;}
	.st20{fill-rule:evenodd;clip-rule:evenodd;fill:#0B4A99;}
	.st21{fill:#FFFFFF;}
	.st22{fill:#0057A2;}
</style>
<path class="st8" d="M9.9,102.1v7c0,0.4,0.3,0.8,0.8,0.8h5.4c0.4,0,0.8-0.3,0.8-0.8V96.8l-3.9,3.9C12.2,101.5,11.1,102,9.9,102.1"/>
<path class="st8" d="M19.6,96.7V109c0,0.4,0.3,0.8,0.8,0.8h5.4c0.4,0,0.8-0.3,0.8-0.8v-7.3c-1.2,0-2.4-0.5-3.2-1.4L19.6,96.7z"/>
<path class="st8" d="M29.4,100.1v9c0,0.5,0.4,0.9,0.9,0.9h6c0.5,0,0.9-0.4,0.9-0.9V92.5l-6.9,6.9C30,99.7,29.7,99.9,29.4,100.1"/>
<path class="st8" d="M47.3,82.4l-7.2,7.2V109c0,0.5,0.4,0.9,0.9,0.9h6c0.5,0,0.9-0.4,0.9-0.9V82.9c-0.2-0.2-0.3-0.3-0.5-0.4
	L47.3,82.4z"/>
<path class="st6" d="M52.2,69.7c-0.3-0.3-0.7-0.5-1.3-0.5h-0.2c-2.8,0.1-5.6,0.3-8.4,0.4c-0.4,0-0.9,0-1.3,0.4
	c-0.1,0.1-0.2,0.3-0.3,0.5c-0.4,0.9,0.2,1.5,0.4,1.7l0.7,0.7c0.5,0.5,1,1,1.5,1.5L26.5,91.3l-7.6-7.6c-0.5-0.5-1.1-0.7-1.7-0.7
	c-0.7,0-1.3,0.3-1.7,0.7L5.4,93.8c-0.9,0.9-0.9,2.5,0,3.4l0.5,0.5c0.5,0.5,1.1,0.7,1.7,0.7c0.7,0,1.3-0.3,1.7-0.7l7.9-7.9l7.6,7.6
	c0.5,0.5,1.1,0.7,1.7,0.7c0.6,0,1.2-0.3,1.7-0.7l19.1-19.1l2.2,2.1c0.3,0.3,0.6,0.6,1.2,0.6c0.2,0,0.5-0.1,0.7-0.2
	c0.2-0.1,0.3-0.2,0.4-0.3c0.4-0.4,0.5-1,0.5-1.4c0.1-1.8,0.2-3.6,0.3-5.4l0.1-2.7C52.6,70.4,52.5,70,52.2,69.7"/>
<g>
	<path class="st8" d="M43.5,61.6c0.5-3.6-0.6-7.1-2.6-9.9L30,59.9L43.5,61.6z"/>
</g>
<path class="st9" d="M37.3,50.7c-2.1-2.8-5.4-4.8-9.2-5.3c-2.9-0.4-5.7,0.2-8.1,1.5l6.4,12L37.3,50.7z"/>
<path class="st6" d="M23.8,75.5c0.6,0.1,1.2,0.1,1.8,0.1c0.2,0,0.4,0,0.7,0c0.5,0,1-0.1,1.4-0.2c0.2,0,0.4-0.1,0.6-0.1
	c0.4-0.1,0.9-0.2,1.3-0.3c0.2-0.1,0.4-0.1,0.5-0.2c0.4-0.1,0.8-0.3,1.2-0.5c0.2-0.1,0.3-0.2,0.5-0.2c0.4-0.2,0.8-0.4,1.2-0.7
	c0.2-0.1,0.3-0.2,0.4-0.3c0.3-0.2,0.7-0.5,1-0.7c0.1-0.1,0.3-0.2,0.4-0.4c0.3-0.3,0.6-0.6,0.9-0.9c0.1-0.1,0.2-0.3,0.4-0.4
	c0.3-0.3,0.5-0.6,0.8-1c0.1-0.2,0.2-0.3,0.3-0.5c0.3-0.4,0.5-0.8,0.7-1.3c0.1-0.2,0.2-0.4,0.3-0.5c0.2-0.4,0.4-0.9,0.5-1.3
	c0.1-0.2,0.1-0.4,0.2-0.6c0.1-0.5,0.3-1,0.3-1.5c0-0.2,0.1-0.4,0.1-0.5c0-0.1-0.1-0.3-0.2-0.3l-0.6-0.1l-1.7-0.2l-0.8-0.1l-1.7-0.2
	l-0.8-0.1l-1.9-0.2l-0.8-0.1l-1.7-0.2l-0.8-0.1l-1.7-0.2l-0.8-0.1l-0.3,0l-0.6-1l-1.5-2.8l-3.4-6.4l-0.9-1.6c0-0.1-0.1-0.1-0.2-0.1
	c-0.1,0-0.1,0-0.2,0c0,0-0.1,0-0.1,0c-0.4,0.2-0.7,0.4-1,0.6c-0.1,0.1-0.3,0.2-0.4,0.3c-0.3,0.2-0.6,0.5-1,0.8
	c-0.1,0.1-0.3,0.2-0.4,0.4c-0.3,0.3-0.7,0.6-1,1c-0.1,0.1-0.2,0.3-0.4,0.4c-0.3,0.3-0.5,0.7-0.7,1c-0.1,0.2-0.2,0.3-0.3,0.5
	c-0.2,0.4-0.4,0.8-0.6,1.2c-0.1,0.2-0.2,0.4-0.3,0.6c-0.2,0.4-0.4,0.9-0.5,1.3c-0.1,0.2-0.1,0.4-0.2,0.6c-0.2,0.6-0.3,1.2-0.3,1.8
	c0,0,0,0,0,0c0,0.2-0.1,0.5-0.1,0.7c0,0.7,0,1.3,0,2c0,0.3,0.1,0.7,0.1,1c0.2,1,0.4,2,0.8,3c0.4,1,0.9,1.9,1.5,2.8
	c0.3,0.5,0.7,0.9,1.1,1.4c0.7,0.8,1.5,1.5,2.3,2.1c0.8,0.6,1.7,1.1,2.7,1.5c0.3,0.1,0.6,0.3,1,0.4c0.6,0.2,1.3,0.4,1.9,0.5
	C23.2,75.4,23.5,75.5,23.8,75.5C23.7,75.5,23.7,75.5,23.8,75.5z"/>
<path class="st12" d="M103.6,92.6c-2.3,0-4.2,1.9-4.2,4.2c0,2.3,1.9,4.2,4.2,4.2c2.3,0,4.2-1.9,4.2-4.2
	C107.8,94.5,105.9,92.6,103.6,92.6L103.6,92.6z"/>
<path class="st9" d="M117,90.9c0.1-0.3,0.1-0.6,0.1-1c0-1.4-0.5-2.6-1.5-3.6l-2.1-2.1c-1.2-1.2-2.9-1.7-4.5-1.4
	c-0.7-1-1.7-1.8-3-2.1v-7.9c0-0.2-0.1-0.4-0.1-0.7c-0.9,4.7-11.7,8.4-24.8,8.4c-13.1,0-23.8-3.7-24.8-8.4c0,0.2-0.1,0.4-0.1,0.7
	v11.6c0,5,11.1,9.1,24.9,9.1c2.2,0,4.4-0.1,6.4-0.3c-0.3,0.6-0.4,1.3-0.4,2v2.6c-1.9,0.2-4,0.3-6,0.3c-13.1,0-23.8-3.7-24.8-8.4
	c0,0.2-0.1,0.5-0.1,0.7v11.6c0,5,11.1,9.1,24.9,9.1c4.6,0,8.9-0.5,12.6-1.3c1.1,0.7,2.4,1,3.7,0.7c0.9,1.4,2.5,2.3,4.2,2.3h3
	c1.8,0,3.3-0.9,4.2-2.2c1.6,0.3,3.4-0.2,4.5-1.4l2.2-2.2c1.2-1.2,1.7-3,1.4-4.6c1.3-0.9,2.2-2.5,2.2-4.2v-3
	C119.3,93.3,118.4,91.8,117,90.9L117,90.9z M115.7,98.4c0,0.6-0.5,1.2-1.2,1.2h-1.8c-0.2,0.7-0.5,1.3-0.8,1.9l1.3,1.3
	c0.5,0.4,0.5,1.2,0,1.6l-2.2,2.1c-0.4,0.4-1.2,0.4-1.6,0l-1.3-1.3c-0.6,0.3-1.2,0.6-1.9,0.8v1.8c0,0.6-0.5,1.2-1.2,1.2h-3
	c-0.6,0-1.2-0.5-1.2-1.2V106c-0.7-0.2-1.3-0.5-1.9-0.8l-1.3,1.3c-0.4,0.4-1.2,0.4-1.6,0l-2.1-2.1c-0.2-0.2-0.3-0.5-0.3-0.8
	c0-0.3,0.1-0.6,0.3-0.8l1.3-1.3c-0.3-0.6-0.6-1.2-0.8-1.9h-1.8c-0.6,0-1.2-0.5-1.2-1.2v-3c0-0.6,0.5-1.2,1.2-1.2h1.8
	c0.2-0.7,0.5-1.3,0.8-1.9L93.9,91c-0.5-0.4-0.5-1.2,0-1.6l2.1-2.2c0.4-0.4,1.2-0.4,1.6,0l1.3,1.3c0.6-0.3,1.2-0.6,1.9-0.8v-1.8
	c0-0.6,0.5-1.2,1.2-1.2h3c0.6,0,1.2,0.5,1.2,1.2v1.8c0.7,0.2,1.3,0.5,1.9,0.8l1.3-1.3c0.4-0.4,1.2-0.4,1.6,0l2.2,2.2
	c0.2,0.2,0.3,0.5,0.3,0.8c0,0.3-0.1,0.6-0.3,0.8l-1.3,1.3c0.3,0.6,0.6,1.2,0.8,1.9h1.8c0.6,0,1.2,0.5,1.2,1.2V98.4z M115.7,98.4"/>
<path class="st6" d="M81.1,76.1c13.7,0,24.9-4.1,24.9-9.1v-7.4c0-5-11.1-9.1-24.9-9.1c-13.7,0-24.9,4.1-24.9,9.1v7.4
	C56.2,72.1,67.4,76.1,81.1,76.1L81.1,76.1z"/>
<path class="st8" d="M116.3,49.5c0.1-0.6,0.2-1.1,0.2-1.7c0-5.4-4.4-9.9-9.9-9.9c-1.2,0-2.3,0.2-3.4,0.6c-3.2-5-8.8-8.3-15.2-8.3
	c-10,0-18,8.1-18,18c0,0.1,0,0.2,0,0.3c3.5-0.6,7.3-0.9,11.1-0.9c13.7,0,27.6,4,27.6,11.8v7.4c0,1.8-0.7,3.3-2,4.7h7.7
	c6.1,0,11.1-5,11.1-11.1C125.5,54.9,121.5,50.4,116.3,49.5z"/>
<g>
	<polygon class="st10" points="59.3,22.9 59.3,31.3 67,31.3 	"/>
</g>
<g>
	<polygon class="st10" points="59.3,31.3 67,31.3 59.3,22.9 	"/>
</g>
<g>
	<path class="st13" d="M1,94.6V19.9c0-3.6,2.9-6.5,6.5-6.5H58l0.1,0.1l15.5,16.9"/>
</g>
<g>
	<path d="M45.5,26.6H13.3c-0.2,0-0.3-0.1-0.3-0.3c0-0.2,0.1-0.3,0.3-0.3h32.2c0.2,0,0.3,0.1,0.3,0.3C45.8,26.4,45.7,26.6,45.5,26.6z
		"/>
</g>
<g>
	<path d="M61,40.2H13.3c-0.2,0-0.3-0.1-0.3-0.3c0-0.2,0.1-0.3,0.3-0.3H61c0.2,0,0.3,0.1,0.3,0.3C61.3,40.1,61.2,40.2,61,40.2z"/>
</g>
</svg>
