<?xml version="1.0" encoding="iso-8859-1"?>
<!-- Generator: Adobe Illustrator 12.0.0, SVG Export Plug-In . SVG Version: 6.00 Build 51448)  -->
<!DOCTYPE svg PUBLIC "-//W3C//DTD SVG 1.1//EN" "http://www.w3.org/Graphics/SVG/1.1/DTD/svg11.dtd" [
	<!ENTITY ns_svg "http://www.w3.org/2000/svg">
	<!ENTITY ns_xlink "http://www.w3.org/1999/xlink">
]>
<svg  version="1.1" id="Layer_1" xmlns="&ns_svg;" xmlns:xlink="&ns_xlink;" width="22.11" height="22.11"
	 viewBox="0 0 22.11 22.11" style="overflow:visible;enable-background:new 0 0 22.11 22.11;" xml:space="preserve">
<g>
	<rect style="fill:none;" width="22.11" height="22.11"/>
	<g>
		<circle style="fill:#C9C9C9;" cx="11.055" cy="11.056" r="10.986"/>
		
			<radialGradient id="XMLID_2_" cx="-286.7397" cy="431.4961" r="0.0115" fx="-286.7397" fy="431.4956" gradientTransform="matrix(880 0 0 -880 252342 379728.0625)" gradientUnits="userSpaceOnUse">
			<stop  offset="0" style="stop-color:#00F0FF"/>
			<stop  offset="1" style="stop-color:#0070E0"/>
		</radialGradient>
		<circle style="fill:url(#XMLID_2_);" cx="11.055" cy="11.055" r="9.836"/>
		<path style="fill:#DDDDDD;" d="M10.943,1.846V3.41c0,0.062,0.05,0.112,0.111,0.112c0.062,0,0.112-0.05,0.112-0.112V1.846
			c0-0.063-0.05-0.113-0.112-0.113C10.994,1.733,10.943,1.783,10.943,1.846z"/>
		<path style="fill:#DDDDDD;" d="M10.943,18.7v1.564c0,0.063,0.05,0.113,0.111,0.113c0.062,0,0.112-0.051,0.112-0.113V18.7
			c0-0.062-0.05-0.11-0.112-0.11C10.994,18.59,10.943,18.639,10.943,18.7z"/>
		<path style="fill:#DDDDDD;" d="M11.847,1.878l-0.066,0.668c-0.006,0.061,0.039,0.116,0.101,0.122
			c0.062,0.006,0.116-0.039,0.123-0.1L12.068,1.9c0.007-0.062-0.038-0.116-0.1-0.122C11.907,1.771,11.853,1.817,11.847,1.878z"/>
		<path style="fill:#DDDDDD;" d="M10.107,19.543l-0.065,0.666c-0.006,0.063,0.038,0.118,0.1,0.124
			c0.062,0.006,0.116-0.039,0.122-0.101l0.066-0.668c0.006-0.062-0.039-0.116-0.101-0.122
			C10.168,19.437,10.113,19.481,10.107,19.543z"/>
		<path style="fill:#DDDDDD;" d="M18.701,10.944c-0.063,0-0.111,0.05-0.111,0.111s0.049,0.112,0.111,0.112h1.563
			c0.063,0,0.113-0.051,0.113-0.112s-0.051-0.111-0.113-0.111H18.701z"/>
		<path style="fill:#DDDDDD;" d="M1.845,10.943c-0.063,0-0.112,0.05-0.112,0.112s0.05,0.112,0.112,0.112H3.41
			c0.062,0,0.112-0.051,0.112-0.112s-0.051-0.112-0.112-0.112H1.845z"/>
		<path style="fill:#DDDDDD;" d="M19.442,11.881c-0.007,0.063,0.039,0.116,0.102,0.123l0.667,0.065
			c0.061,0.006,0.114-0.039,0.122-0.1c0.006-0.062-0.04-0.115-0.102-0.122l-0.667-0.065C19.503,11.775,19.449,11.821,19.442,11.881z
			"/>
		<path style="fill:#DDDDDD;" d="M1.778,10.142c-0.006,0.061,0.039,0.116,0.101,0.123l0.667,0.065
			c0.061,0.006,0.116-0.039,0.122-0.1c0.006-0.062-0.039-0.116-0.101-0.122L1.9,10.041C1.838,10.036,1.784,10.08,1.778,10.142z"/>
		<path style="fill:#DDDDDD;" d="M17.489,4.463L16.382,5.57c-0.044,0.043-0.044,0.114,0,0.158c0.045,0.044,0.114,0.044,0.159,0
			l1.105-1.106c0.045-0.044,0.045-0.114,0-0.159C17.604,4.42,17.532,4.42,17.489,4.463z"/>
		<path style="fill:#DDDDDD;" d="M5.57,16.383l-1.106,1.106c-0.044,0.043-0.044,0.115,0,0.157c0.043,0.045,0.114,0.045,0.158,0
			l1.106-1.105c0.044-0.045,0.044-0.115,0-0.158C5.684,16.339,5.614,16.339,5.57,16.383z"/>
		<path style="fill:#DDDDDD;" d="M18.104,5.126l-0.519,0.425c-0.048,0.039-0.056,0.109-0.017,0.157
			c0.039,0.048,0.11,0.055,0.158,0.016l0.518-0.426c0.048-0.039,0.056-0.109,0.016-0.157C18.222,5.094,18.151,5.087,18.104,5.126z"
			/>
		<path style="fill:#DDDDDD;" d="M4.383,16.387l-0.518,0.425c-0.048,0.039-0.055,0.109-0.016,0.157
			c0.04,0.048,0.11,0.056,0.158,0.017l0.518-0.426c0.048-0.039,0.055-0.11,0.016-0.158C4.501,16.354,4.431,16.348,4.383,16.387z"/>
		<path style="fill:#DDDDDD;" d="M16.382,16.383c-0.044,0.043-0.044,0.113,0,0.158l1.107,1.105c0.043,0.045,0.114,0.045,0.157,0
			c0.045-0.042,0.045-0.114,0-0.157l-1.105-1.106C16.496,16.339,16.427,16.339,16.382,16.383z"/>
		<path style="fill:#DDDDDD;" d="M4.464,4.463c-0.044,0.044-0.044,0.115,0,0.159L5.57,5.728c0.044,0.044,0.114,0.044,0.157,0
			c0.044-0.043,0.044-0.114,0-0.158L4.622,4.463C4.578,4.42,4.507,4.42,4.464,4.463z"/>
		<path style="fill:#DDDDDD;" d="M16.401,17.57c-0.048,0.039-0.054,0.109-0.015,0.156l0.425,0.52
			c0.039,0.047,0.109,0.055,0.157,0.016s0.056-0.111,0.017-0.158l-0.426-0.518C16.521,17.538,16.449,17.531,16.401,17.57z"/>
		<path style="fill:#DDDDDD;" d="M5.142,3.849c-0.048,0.039-0.054,0.11-0.016,0.158l0.426,0.518C5.591,4.573,5.661,4.579,5.709,4.54
			c0.047-0.039,0.055-0.109,0.015-0.157L5.299,3.865C5.26,3.817,5.189,3.81,5.142,3.849z"/>
		<path style="fill:#DDDDDD;" d="M14.477,2.503l-0.6,1.446c-0.022,0.057,0.004,0.122,0.061,0.146
			c0.058,0.023,0.123-0.004,0.147-0.061l0.598-1.446c0.024-0.057-0.004-0.123-0.06-0.146C14.565,2.419,14.499,2.446,14.477,2.503z"
			/>
		<path style="fill:#DDDDDD;" d="M8.026,18.076l-0.598,1.445c-0.024,0.057,0.003,0.123,0.061,0.146
			c0.056,0.024,0.123-0.003,0.146-0.06l0.599-1.446c0.023-0.058-0.004-0.122-0.061-0.146C8.115,17.992,8.049,18.02,8.026,18.076z"/>
		<path style="fill:#DDDDDD;" d="M15.298,2.88l-0.316,0.591c-0.028,0.055-0.009,0.123,0.046,0.152
			c0.055,0.03,0.123,0.009,0.152-0.045l0.316-0.591c0.027-0.055,0.008-0.123-0.046-0.152C15.396,2.805,15.327,2.825,15.298,2.88z"/>
		<path style="fill:#DDDDDD;" d="M6.931,18.534l-0.316,0.592c-0.029,0.055-0.008,0.121,0.046,0.15
			c0.055,0.029,0.122,0.009,0.151-0.046l0.316-0.591c0.029-0.055,0.008-0.123-0.046-0.151C7.027,18.458,6.96,18.479,6.931,18.534z"
			/>
		<path style="fill:#DDDDDD;" d="M18.015,13.938c-0.023,0.058,0.005,0.124,0.062,0.146l1.445,0.599
			c0.057,0.024,0.123-0.003,0.146-0.06c0.024-0.058-0.003-0.124-0.06-0.146l-1.446-0.6C18.104,13.854,18.039,13.881,18.015,13.938z"
			/>
		<path style="fill:#DDDDDD;" d="M2.442,7.488C2.419,7.545,2.446,7.61,2.504,7.634l1.445,0.599c0.058,0.024,0.122-0.003,0.146-0.061
			C4.118,8.115,4.091,8.05,4.034,8.026L2.589,7.427C2.532,7.403,2.466,7.431,2.442,7.488z"/>
		<path style="fill:#DDDDDD;" d="M18.488,15.027c-0.03,0.055-0.009,0.123,0.046,0.152l0.591,0.316
			c0.055,0.029,0.122,0.008,0.152-0.046c0.028-0.055,0.008-0.123-0.048-0.152l-0.591-0.316
			C18.584,14.953,18.517,14.973,18.488,15.027z"/>
		<path style="fill:#DDDDDD;" d="M2.833,6.661C2.804,6.716,2.825,6.783,2.88,6.813l0.591,0.316c0.054,0.029,0.122,0.009,0.152-0.045
			C3.652,7.028,3.631,6.96,3.577,6.931L2.985,6.615C2.93,6.586,2.863,6.606,2.833,6.661z"/>
		<path style="fill:#DDDDDD;" d="M19.521,7.427l-1.445,0.599c-0.057,0.023-0.085,0.089-0.062,0.146
			c0.024,0.058,0.09,0.085,0.146,0.061l1.446-0.599c0.057-0.024,0.084-0.089,0.06-0.146C19.645,7.431,19.578,7.403,19.521,7.427z"/>
		<path style="fill:#DDDDDD;" d="M3.949,13.877l-1.445,0.6c-0.058,0.022-0.085,0.089-0.062,0.146c0.024,0.057,0.09,0.084,0.147,0.06
			l1.445-0.599c0.057-0.022,0.084-0.089,0.061-0.146C4.071,13.881,4.006,13.854,3.949,13.877z"/>
		<path style="fill:#DDDDDD;" d="M19.837,8.274l-0.643,0.195c-0.06,0.018-0.092,0.081-0.074,0.139c0.019,0.06,0.08,0.093,0.14,0.075
			L19.9,8.489c0.061-0.019,0.094-0.081,0.075-0.14C19.957,8.29,19.896,8.257,19.837,8.274z"/>
		<path style="fill:#DDDDDD;" d="M2.851,13.427l-0.642,0.196c-0.06,0.016-0.093,0.079-0.075,0.138
			c0.018,0.06,0.081,0.093,0.14,0.075l0.642-0.194c0.059-0.019,0.092-0.081,0.074-0.14C2.973,13.442,2.91,13.41,2.851,13.427z"/>
		<path style="fill:#DDDDDD;" d="M13.938,18.016c-0.057,0.023-0.083,0.088-0.061,0.146l0.6,1.446
			c0.022,0.057,0.089,0.084,0.146,0.06c0.056-0.022,0.084-0.089,0.06-0.146l-0.598-1.445C14.061,18.02,13.995,17.992,13.938,18.016z
			"/>
		<path style="fill:#DDDDDD;" d="M7.488,2.443C7.431,2.466,7.403,2.532,7.428,2.589l0.598,1.446
			c0.023,0.057,0.089,0.084,0.146,0.061c0.057-0.024,0.084-0.089,0.061-0.146L7.634,2.503C7.611,2.446,7.544,2.419,7.488,2.443z"/>
		<path style="fill:#DDDDDD;" d="M13.502,19.12c-0.06,0.019-0.093,0.08-0.074,0.14l0.194,0.641c0.017,0.061,0.08,0.094,0.139,0.075
			c0.06-0.019,0.093-0.079,0.075-0.139l-0.194-0.643C13.623,19.135,13.56,19.104,13.502,19.12z"/>
		<path style="fill:#DDDDDD;" d="M8.349,2.134C8.29,2.152,8.257,2.215,8.274,2.274L8.47,2.916c0.017,0.059,0.08,0.093,0.138,0.074
			c0.06-0.017,0.093-0.08,0.075-0.139L8.489,2.209C8.471,2.15,8.408,2.117,8.349,2.134z"/>
		<path style="fill:#DDDDDD;" d="M12.743,2l-0.306,1.534c-0.013,0.061,0.026,0.12,0.088,0.131c0.06,0.012,0.118-0.027,0.132-0.087
			l0.304-1.535c0.014-0.061-0.027-0.119-0.088-0.131C12.813,1.9,12.755,1.94,12.743,2z"/>
		<path style="fill:#DDDDDD;" d="M9.454,18.532l-0.306,1.534c-0.012,0.062,0.028,0.119,0.088,0.132
			c0.06,0.011,0.119-0.028,0.131-0.088l0.306-1.535c0.012-0.061-0.027-0.118-0.088-0.131S9.466,18.473,9.454,18.532z"/>
		<path style="fill:#DDDDDD;" d="M13.622,2.209l-0.194,0.642c-0.019,0.059,0.015,0.122,0.074,0.139
			c0.058,0.019,0.121-0.015,0.14-0.074l0.194-0.642c0.018-0.059-0.016-0.122-0.075-0.14C13.702,2.117,13.639,2.15,13.622,2.209z"/>
		<path style="fill:#DDDDDD;" d="M8.47,19.194l-0.195,0.643c-0.017,0.06,0.016,0.12,0.075,0.139c0.059,0.019,0.122-0.015,0.14-0.075
			l0.194-0.641c0.018-0.06-0.015-0.121-0.075-0.14C8.549,19.104,8.487,19.135,8.47,19.194z"/>
		<path style="fill:#DDDDDD;" d="M18.444,12.525c-0.013,0.061,0.027,0.118,0.088,0.132l1.534,0.304
			c0.062,0.014,0.12-0.025,0.132-0.087c0.013-0.061-0.027-0.119-0.088-0.131l-1.535-0.306
			C18.515,12.425,18.457,12.464,18.444,12.525z"/>
		<path style="fill:#DDDDDD;" d="M1.912,9.236C1.9,9.297,1.939,9.356,2,9.368l1.534,0.306c0.062,0.011,0.12-0.028,0.132-0.088
			c0.012-0.061-0.027-0.12-0.088-0.131L2.043,9.149C1.983,9.137,1.924,9.176,1.912,9.236z"/>
		<path style="fill:#DDDDDD;" d="M19.12,13.502c-0.018,0.059,0.015,0.121,0.074,0.14l0.643,0.194
			c0.059,0.018,0.12-0.016,0.139-0.075c0.019-0.059-0.015-0.122-0.075-0.138l-0.641-0.196C19.2,13.41,19.139,13.442,19.12,13.502z"
			/>
		<path style="fill:#DDDDDD;" d="M2.134,8.349C2.117,8.408,2.15,8.471,2.209,8.489l0.642,0.194C2.91,8.702,2.973,8.668,2.99,8.608
			C3.008,8.55,2.975,8.487,2.916,8.469L2.274,8.274C2.215,8.257,2.152,8.29,2.134,8.349z"/>
		<path style="fill:#DDDDDD;" d="M18.651,5.845l-1.301,0.871c-0.053,0.034-0.065,0.104-0.031,0.155
			c0.034,0.051,0.104,0.065,0.154,0.031l1.302-0.87c0.052-0.034,0.065-0.104,0.03-0.155C18.772,5.825,18.701,5.811,18.651,5.845z"/>
		<path style="fill:#DDDDDD;" d="M4.636,15.21l-1.301,0.869c-0.052,0.034-0.064,0.104-0.03,0.155s0.103,0.064,0.155,0.03
			l1.301-0.869c0.052-0.033,0.066-0.104,0.031-0.155C4.756,15.189,4.688,15.176,4.636,15.21z"/>
		<path style="fill:#DDDDDD;" d="M19.125,6.615l-0.591,0.316c-0.055,0.029-0.076,0.097-0.046,0.152
			c0.028,0.054,0.096,0.074,0.15,0.045l0.591-0.316c0.056-0.029,0.076-0.097,0.048-0.152C19.247,6.606,19.18,6.586,19.125,6.615z"/>
		<path style="fill:#DDDDDD;" d="M3.471,14.981L2.88,15.298c-0.055,0.029-0.076,0.098-0.046,0.152
			c0.029,0.054,0.097,0.075,0.152,0.046l0.591-0.316c0.054-0.029,0.075-0.098,0.046-0.152C3.593,14.973,3.525,14.953,3.471,14.981z"
			/>
		<path style="fill:#DDDDDD;" d="M15.24,17.318c-0.051,0.035-0.063,0.104-0.03,0.155l0.869,1.302
			c0.035,0.052,0.104,0.065,0.155,0.031c0.051-0.034,0.065-0.104,0.03-0.155l-0.869-1.3C15.362,17.298,15.293,17.285,15.24,17.318z"
			/>
		<path style="fill:#DDDDDD;" d="M5.876,3.305c-0.052,0.034-0.064,0.104-0.03,0.155l0.869,1.301C6.749,4.812,6.818,4.825,6.87,4.792
			C6.92,4.757,6.935,4.688,6.901,4.636l-0.87-1.301C5.997,3.284,5.928,3.27,5.876,3.305z"/>
		<path style="fill:#DDDDDD;" d="M15.027,18.488c-0.055,0.028-0.074,0.097-0.046,0.151l0.316,0.591
			c0.029,0.055,0.098,0.075,0.152,0.046c0.054-0.029,0.073-0.096,0.046-0.15l-0.316-0.592C15.15,18.479,15.082,18.458,15.027,18.488
			z"/>
		<path style="fill:#DDDDDD;" d="M6.661,2.834C6.606,2.863,6.585,2.931,6.615,2.986l0.316,0.591C6.96,3.631,7.027,3.652,7.083,3.623
			c0.054-0.029,0.075-0.097,0.046-0.152L6.812,2.88C6.783,2.825,6.716,2.805,6.661,2.834z"/>
		<path style="fill:#DDDDDD;" d="M16.079,3.335L15.21,4.636c-0.033,0.051-0.021,0.121,0.03,0.155
			c0.053,0.034,0.122,0.021,0.155-0.031l0.869-1.301c0.035-0.051,0.021-0.121-0.03-0.155C16.183,3.27,16.114,3.284,16.079,3.335z"/>
		<path style="fill:#DDDDDD;" d="M6.715,17.352l-0.869,1.3c-0.034,0.051-0.021,0.121,0.03,0.155s0.121,0.021,0.155-0.031l0.87-1.302
			c0.034-0.051,0.02-0.12-0.031-0.155C6.818,17.285,6.749,17.298,6.715,17.352z"/>
		<path style="fill:#DDDDDD;" d="M16.812,3.865l-0.425,0.518c-0.039,0.048-0.033,0.118,0.015,0.157s0.119,0.033,0.158-0.015
			l0.426-0.518c0.039-0.048,0.031-0.119-0.017-0.158S16.851,3.817,16.812,3.865z"/>
		<path style="fill:#DDDDDD;" d="M5.552,17.586l-0.426,0.518c-0.039,0.047-0.033,0.119,0.016,0.158
			c0.047,0.039,0.118,0.031,0.158-0.016l0.424-0.52c0.04-0.047,0.033-0.117-0.015-0.156C5.661,17.531,5.591,17.538,5.552,17.586z"/>
		<path style="fill:#DDDDDD;" d="M17.319,15.24c-0.034,0.052-0.021,0.122,0.031,0.155l1.301,0.869
			c0.05,0.034,0.121,0.021,0.154-0.03c0.035-0.051,0.021-0.121-0.03-0.155l-1.302-0.869C17.424,15.176,17.354,15.189,17.319,15.24z"
			/>
		<path style="fill:#DDDDDD;" d="M3.305,5.876c-0.034,0.051-0.021,0.121,0.03,0.155l1.301,0.87c0.052,0.034,0.121,0.02,0.155-0.031
			C4.826,6.819,4.812,6.749,4.76,6.715L3.459,5.845C3.408,5.811,3.339,5.825,3.305,5.876z"/>
		<path style="fill:#DDDDDD;" d="M17.569,16.401c-0.039,0.048-0.031,0.119,0.017,0.158l0.519,0.426
			c0.047,0.039,0.117,0.031,0.156-0.017c0.04-0.048,0.032-0.118-0.016-0.157l-0.518-0.425C17.68,16.348,17.608,16.354,17.569,16.401
			z"/>
		<path style="fill:#DDDDDD;" d="M3.849,5.142C3.81,5.189,3.817,5.259,3.865,5.298l0.518,0.426c0.048,0.04,0.118,0.032,0.157-0.016
			c0.04-0.047,0.033-0.118-0.016-0.157L4.007,5.126C3.958,5.087,3.889,5.094,3.849,5.142z"/>
		<path style="fill:#DDDDDD;" d="M20.066,9.149l-1.534,0.306c-0.061,0.012-0.101,0.07-0.088,0.132
			c0.013,0.06,0.07,0.099,0.131,0.088l1.535-0.306c0.061-0.013,0.101-0.071,0.088-0.132C20.187,9.176,20.128,9.137,20.066,9.149z"/>
		<path style="fill:#DDDDDD;" d="M3.534,12.438L2,12.743c-0.061,0.012-0.1,0.07-0.088,0.131c0.012,0.062,0.071,0.101,0.131,0.087
			l1.535-0.304c0.061-0.014,0.1-0.071,0.088-0.132C3.654,12.464,3.596,12.425,3.534,12.438z"/>
		<path style="fill:#DDDDDD;" d="M20.211,10.042l-0.667,0.066c-0.063,0.006-0.108,0.06-0.102,0.122
			c0.007,0.062,0.061,0.105,0.122,0.1l0.667-0.065c0.062-0.006,0.107-0.062,0.102-0.122C20.325,10.081,20.271,10.036,20.211,10.042z
			"/>
		<path style="fill:#DDDDDD;" d="M2.546,11.781l-0.667,0.065c-0.062,0.007-0.107,0.061-0.101,0.122
			c0.006,0.062,0.06,0.106,0.122,0.101l0.667-0.065c0.062-0.007,0.106-0.061,0.101-0.123C2.662,11.82,2.607,11.775,2.546,11.781z"/>
		<path style="fill:#DDDDDD;" d="M12.525,18.444c-0.062,0.013-0.101,0.07-0.088,0.131l0.306,1.535c0.012,0.06,0.07,0.099,0.13,0.088
			c0.061-0.013,0.102-0.07,0.088-0.132l-0.304-1.534C12.644,18.473,12.585,18.432,12.525,18.444z"/>
		<path style="fill:#DDDDDD;" d="M9.237,1.913c-0.061,0.012-0.1,0.071-0.088,0.131l0.306,1.535c0.012,0.061,0.071,0.1,0.131,0.087
			c0.061-0.012,0.1-0.07,0.088-0.131L9.368,2C9.355,1.94,9.297,1.9,9.237,1.913z"/>
		<path style="fill:#DDDDDD;" d="M11.881,19.442c-0.062,0.006-0.106,0.061-0.101,0.122l0.066,0.668
			c0.006,0.062,0.061,0.106,0.122,0.101s0.106-0.062,0.1-0.124l-0.064-0.666C11.997,19.481,11.943,19.437,11.881,19.442z"/>
		<path style="fill:#DDDDDD;" d="M10.142,1.778c-0.062,0.006-0.106,0.06-0.1,0.122l0.065,0.667c0.006,0.062,0.061,0.106,0.122,0.1
			c0.062-0.005,0.106-0.061,0.101-0.122l-0.066-0.668C10.258,1.817,10.203,1.771,10.142,1.778z"/>
		<g transform="rotate(-45 512 512)">
			<polygon style="fill:#DDDDDD;" points="502.456,-196.443 512,-197.828 512,-196.443 			"/>
			<polygon style="fill:#EE4444;" points="512,-197.828 521.546,-196.442 512,-196.443 			"/>
			<polygon style="fill:#CC0000;" points="521.546,-196.442 512,-195.057 512,-196.443 			"/>
			<polygon style="fill:#AAAAAA;" points="502.456,-196.443 512,-195.057 512,-196.443 			"/>
		</g>
	</g>
</g>
</svg>
