<?xml version="1.0" encoding="utf-8"?>
<!-- Generator: Adobe Illustrator 25.0.0, SVG Export Plug-In . SVG Version: 6.00 Build 0)  -->
<svg version="1.1" id="Layer_1" xmlns="http://www.w3.org/2000/svg" xmlns:xlink="http://www.w3.org/1999/xlink" x="0px" y="0px"
	 viewBox="0 0 283.46 283.46" style="enable-background:new 0 0 283.46 283.46;" xml:space="preserve">
<style type="text/css">
	.st0{fill:#40875E;}
	.st1{fill:#A8A240;}
	.st2{fill:#F0AB00;}
</style>
<path class="st0" d="M70.51,117.69h-7.25V48.74c0-9.43,7.67-17.1,17.1-17.1h132.48c9.43,0,17.1,7.67,17.1,17.1v17.49h-7.25V48.74
	c0-5.43-4.42-9.85-9.85-9.85H80.36c-5.43,0-9.85,4.42-9.85,9.85V117.69z"/>
<path class="st0" d="M139.62,264.85H80.36c-9.43,0-17.1-7.67-17.1-17.1V186.2h7.25v61.55c0,5.43,4.42,9.85,9.85,9.85h59.25V264.85z"
	/>
<rect x="146.04" y="257.61" class="st0" width="14.53" height="7.25"/>
<path class="st0" d="M212.85,264.85h-46.17v-7.25h46.17c5.43,0,9.85-4.42,9.85-9.85v-8.32h7.25v8.32
	C229.95,257.18,222.28,264.85,212.85,264.85z"/>
<rect x="222.7" y="169.47" class="st0" width="7.25" height="34.7"/>
<path class="st1" d="M275.07,173.09H145.46c-4.21,0-7.64-3.43-7.64-7.64v-95.2c0-4.21,3.43-7.64,7.64-7.64h129.61
	c4.21,0,7.64,3.43,7.64,7.64v95.2C282.71,169.67,279.28,173.09,275.07,173.09z M145.46,69.86c-0.22,0-0.39,0.18-0.39,0.39v95.2
	c0,0.22,0.18,0.39,0.39,0.39h129.61c0.22,0,0.39-0.17,0.39-0.39v-95.2c0-0.22-0.17-0.39-0.39-0.39H145.46z"/>
<path class="st1" d="M246.27,172.16l-103.21-2.69l-3.9-47.54l20.55-16.84c6.93-5.68,16.8-5.45,23.46,0.54l67.95,61.13L246.27,172.16
	z"/>
<circle class="st2" cx="238.08" cy="104.64" r="17.93"/>
<path class="st0" d="M245.94,240.16h-71.35c-4.37,0-7.91-3.54-7.91-7.91v-22.13c0-4.37,3.54-7.91,7.91-7.91h71.35
	c4.37,0,7.91,3.54,7.91,7.91v22.13C253.85,236.62,250.31,240.16,245.94,240.16z"/>
<path class="st2" d="M133.34,187.77H0.22v-72.81h133.12V187.77z"/>
<path d="M26.08,168.92c-2.16-0.65-3.92-1.52-5.28-2.63c-0.73-0.54-1.09-1.29-1.09-2.27c0-0.66,0.2-1.24,0.59-1.73
	c0.39-0.49,0.86-0.73,1.4-0.73c0.57,0,1.21,0.22,1.94,0.66c1.36,0.98,2.78,1.69,4.26,2.13c1.48,0.44,3.13,0.66,4.92,0.66
	c2.3,0,4.07-0.4,5.3-1.21c1.23-0.8,1.85-1.98,1.85-3.53c0-1.2-0.58-2.12-1.73-2.77c-1.15-0.65-3.07-1.27-5.75-1.87
	c-2.78-0.6-5.04-1.29-6.77-2.08c-1.74-0.79-3.05-1.8-3.93-3.03c-0.88-1.23-1.33-2.79-1.33-4.69c0-1.96,0.55-3.71,1.66-5.26
	c1.1-1.55,2.64-2.75,4.62-3.62c1.97-0.87,4.19-1.3,6.65-1.3c4.51,0,8.19,1.2,11.03,3.6c0.41,0.35,0.7,0.69,0.88,1.02
	c0.17,0.33,0.26,0.75,0.26,1.26c0,0.66-0.2,1.24-0.59,1.73c-0.4,0.49-0.86,0.73-1.4,0.73c-0.32,0-0.61-0.05-0.88-0.14
	c-0.27-0.09-0.62-0.27-1.07-0.52c-1.3-0.95-2.55-1.65-3.76-2.11c-1.22-0.46-2.71-0.69-4.48-0.69c-2.15,0-3.84,0.43-5.09,1.3
	c-1.25,0.87-1.87,2.08-1.87,3.62c0,1.29,0.55,2.29,1.66,2.98c1.1,0.7,2.98,1.34,5.64,1.94c2.81,0.63,5.09,1.33,6.84,2.11
	c1.75,0.77,3.09,1.76,4.03,2.96c0.93,1.2,1.4,2.7,1.4,4.5c0,1.96-0.54,3.69-1.63,5.19c-1.09,1.5-2.62,2.67-4.59,3.5
	c-1.97,0.84-4.24,1.26-6.8,1.26C30.54,169.89,28.25,169.57,26.08,168.92z"/>
<path d="M81.85,167.05c0,0.73-0.29,1.34-0.88,1.85c-0.58,0.51-1.26,0.76-2.01,0.76c-0.51,0-0.98-0.14-1.42-0.4
	c-0.44-0.27-0.79-0.69-1.04-1.26l-2.84-6.35H56.98L54.14,168c-0.25,0.57-0.6,0.99-1.04,1.26c-0.44,0.27-0.93,0.4-1.47,0.4
	c-0.73,0-1.39-0.25-1.99-0.76c-0.6-0.5-0.9-1.12-0.9-1.85c0-0.41,0.09-0.82,0.28-1.23l13.07-28.08c0.28-0.63,0.72-1.11,1.3-1.44
	c0.58-0.33,1.21-0.5,1.87-0.5c0.66,0,1.29,0.17,1.87,0.5c0.58,0.33,1.02,0.81,1.3,1.44l13.12,28.08
	C81.75,166.23,81.85,166.64,81.85,167.05z M59.07,156.92h12.5l-6.25-14.06L59.07,156.92z"/>
<path d="M87.27,168.92c-0.55-0.55-0.83-1.3-0.83-2.25v-27.7c0-0.92,0.26-1.63,0.78-2.13c0.52-0.5,1.24-0.76,2.15-0.76h11.65
	c3.57,0,6.35,0.89,8.33,2.68c1.99,1.78,2.98,4.29,2.98,7.51s-0.99,5.73-2.98,7.53c-1.99,1.8-4.77,2.7-8.33,2.7h-8.48v10.18
	c0,0.95-0.28,1.7-0.83,2.25c-0.55,0.55-1.3,0.83-2.25,0.83C88.55,169.75,87.82,169.48,87.27,168.92z M106.57,146.31
	c0-3.66-2.1-5.49-6.3-5.49h-7.72v10.99h7.72C104.47,151.8,106.57,149.97,106.57,146.31z"/>
</svg>
