<?xml version="1.0" encoding="utf-8"?>
<!-- Generator: Adobe Illustrator 25.0.0, SVG Export Plug-In . SVG Version: 6.00 Build 0)  -->
<svg version="1.1" id="Layer_1" xmlns="http://www.w3.org/2000/svg" xmlns:xlink="http://www.w3.org/1999/xlink" x="0px" y="0px"
	 viewBox="0 0 36 36" style="enable-background:new 0 0 36 36;" xml:space="preserve">
<style type="text/css">
	.st0{fill:#CB1618;}
	.st1{fill:#185ABD;}
	.st2{fill:#D83039;}
	.st3{fill:#103F91;}
	.st4{fill:#185C37;}
	.st5{fill:#33C481;}
	.st6{fill:#107C41;}
	.st7{fill:#21A366;}
	.st8{fill:#0B4A99;}
	.st9{fill:none;}
	.st10{fill:#FFFFFF;}
	.st11{fill:#41A5EE;}
	.st12{fill:#2B7CD3;}
	.st13{opacity:0.5;enable-background:new    ;}
	.st14{fill:url(#SVGID_1_);}
	.st15{fill:url(#SVGID_2_);}
	.st16{fill:url(#SVGID_3_);}
	.st17{fill:url(#SVGID_4_);}
	.st18{fill:#E24951;}
	.st19{fill-rule:evenodd;clip-rule:evenodd;}
	.st20{fill:#262625;}
	.st21{fill:none;stroke:#000000;stroke-width:0.75;stroke-miterlimit:10;}
	.st22{fill:none;stroke:#000000;stroke-width:1.2;stroke-miterlimit:10;}
	.st23{fill-rule:evenodd;clip-rule:evenodd;fill:#0B4A99;}
</style>
<g>
	<g>
		<g>
			<path class="st8" d="M25.4,28.2H7.5c-4.1,0-7.5-3.4-7.5-7.5c0-4.1,3.4-7.5,7.5-7.5h17.9V28.2z M7.5,14.3c-3.5,0-6.4,2.9-6.4,6.4
				C1.2,24.2,4,27,7.5,27h16.7V14.3H7.5z"/>
		</g>
		<g>
			<path class="st8" d="M7.8,25c-0.3,0-0.6-0.3-0.6-0.6v-7.5c0-0.3,0.3-0.6,0.6-0.6c0.3,0,0.6,0.3,0.6,0.6v7.5
				C8.4,24.8,8.1,25,7.8,25z"/>
		</g>
	</g>
	<g>
		<path class="st8" d="M36,25.6h-9.1v-9.9H36V25.6z M28,24.5h6.8v-7.6H28V24.5z"/>
	</g>
	<g>
		<g>
			<rect x="30.1" y="18.5" class="st8" width="2.9" height="1.2"/>
		</g>
		<g>
			<rect x="30.1" y="21.7" class="st8" width="2.9" height="1.2"/>
		</g>
	</g>
</g>
</svg>
