<?xml version="1.0" encoding="utf-8"?>
<!-- Generator: Adobe Illustrator 26.2.1, SVG Export Plug-In . SVG Version: 6.00 Build 0)  -->
<svg version="1.1" id="Layer_1" xmlns="http://www.w3.org/2000/svg" xmlns:xlink="http://www.w3.org/1999/xlink" x="0px" y="0px"
	 viewBox="0 0 36 36" style="enable-background:new 0 0 36 36;" xml:space="preserve">
<style type="text/css">
	.st0{fill:#FFFFFF;}
</style>
<g>
	<g>
		<path class="st0" d="M34.5,36h-33V0h22.2l10.7,11L34.5,36L34.5,36z M2.8,34.7h30.4V11.5l-10-10.3H2.8V34.7z"/>
	</g>
	<g>
		<path class="st0" d="M22.9,12.5h-17V3.8H23v8.7H22.9z M7.1,11.3h14.6V5H7.1V11.3z"/>
	</g>
	<g>
		<path class="st0" d="M30.5,31.4H5.9V17.1h24.6V31.4z M7.1,30.1h22.1V18.3H7.1V30.1z"/>
	</g>
	<g>
		<path class="st0" d="M27.9,28h-1.3v-4.8c0-0.5-0.4-0.8-0.8-0.8h-15c-0.5,0-0.8,0.4-0.8,0.8V28H8.7v-4.8c0-1.2,0.9-2.1,2.1-2.1h15
			c1.2,0,2.1,0.9,2.1,2.1V28z"/>
	</g>
	<g>
		<rect x="16.3" y="5.9" class="st0" width="1.3" height="4"/>
	</g>
	<g>
		<path class="st0" d="M24.9,26H11.3c-0.3,0-0.6-0.3-0.6-0.6c0-0.3,0.3-0.6,0.6-0.6h13.5c0.3,0,0.6,0.3,0.6,0.6
			C25.5,25.7,25.2,26,24.9,26z"/>
	</g>
</g>
</svg>
