<?xml version="1.0" encoding="utf-8"?>
<!-- Generator: Adobe Illustrator 22.0.1, SVG Export Plug-In . SVG Version: 6.00 Build 0)  -->
<svg version="1.1" id="Layer_1" xmlns="http://www.w3.org/2000/svg" xmlns:xlink="http://www.w3.org/1999/xlink" x="0px" y="0px"
	 viewBox="0 0 30 30" style="enable-background:new 0 0 30 30;" xml:space="preserve">
<style type="text/css">
	.st0{fill:#A8A240;}
	.st1{fill:#FF040F;}
	.st2{fill:#00A4F5;}
	.st3{fill:#70B74F;}
	.st4{fill:#EFC150;}
	.st5{fill:#F45DF4;}
	.st6{fill:#1B75BC;}
	.st7{fill:#F15A29;}
	.st8{fill:#40875E;}
	.st9{fill:#F0AB00;}
	.st10{fill:none;stroke:#231F20;stroke-width:2.5;stroke-miterlimit:10;}
	.st11{fill:#DB9E16;}
	.st12{fill:#DB9E16;stroke:#EFC150;stroke-width:0.75;stroke-miterlimit:10;}
	.st13{fill:none;stroke:#DB9E16;stroke-width:0.75;stroke-miterlimit:10;}
	.st14{fill:none;stroke:#A3832E;stroke-width:0.5;stroke-miterlimit:10;}
	.st15{fill-rule:evenodd;clip-rule:evenodd;fill:#938D8D;}
	.st16{fill:#AFADAA;}
	.st17{fill:#FFD00F;}
	.st18{fill:#A3832E;}
	.st19{fill:#F4E5A9;}
</style>
<path class="st0" d="M28.4,9.7v18.4c0,1-0.8,1.9-1.8,1.9H2.9c-1,0-1.8-0.8-1.8-1.9V1.9c0-1,0.8-1.9,1.8-1.9h16.2l0.1,0.1
	c0.2,0,0.4,0.2,0.7,0.4L28,8.9C28.2,9.2,28.3,9.4,28.4,9.7L28.4,9.7z M25.1,27.2V15.9c0-0.7-0.6-1.3-1.3-1.3H5.6
	c-0.7,0-1.3,0.6-1.3,1.3v11.3H25.1z M4.7,8c0,0.8,0.6,1.4,1.4,1.4H17c0.8,0,1.4-0.6,1.4-1.4V2.3c0-0.8-0.6-1.4-1.4-1.4H6.1
	c-0.7,0-1.4,0.6-1.4,1.4V8L4.7,8z M15.2,7.6c0,0.3-0.6,0.5-1.3,0.5h-1.3c-0.7,0-1.3-0.2-1.3-0.5V2.8c0-0.3,0.6-0.5,1.3-0.5h1.3
	c0.7,0,1.3,0.2,1.3,0.5V7.6z"/>
<rect x="7.7" y="17.8" class="st1" width="1.8" height="8.4"/>
<rect x="9.9" y="19" class="st2" width="1.8" height="7.2"/>
<rect x="12.2" y="21" class="st3" width="1.8" height="5.2"/>
<rect x="14.6" y="16.7" class="st4" width="1.8" height="9.5"/>
<rect x="17" y="19.5" class="st5" width="1.8" height="6.7"/>
<rect x="19.4" y="23.1" class="st6" width="1.8" height="3.1"/>
<rect x="21.6" y="18.2" class="st7" width="1.8" height="8"/>
<polygon points="23.7,26.2 6.8,26.2 6.8,15.6 6.9,15.6 6.9,26.1 23.7,26.1 "/>
<rect x="9.4" y="17" width="0.3" height="0"/>
<rect x="9.4" y="18.7" width="0.3" height="0"/>
<rect x="6.6" y="20.9" width="0.3" height="0"/>
<rect x="6.6" y="22.7" width="0.3" height="0"/>
<rect x="6.6" y="24.4" width="0.2" height="0"/>
<rect x="7.6" y="26.2" width="0" height="0.2"/>
<rect x="9.1" y="26.2" width="0" height="0.2"/>
<rect x="10.5" y="26.2" width="0" height="0.2"/>
<rect x="12" y="26.2" width="0" height="0.2"/>
<rect x="13.4" y="26.2" width="0" height="0.2"/>
<rect x="14.9" y="26.2" width="0" height="0.2"/>
<rect x="16.3" y="26.2" width="0" height="0.2"/>
<rect x="17.7" y="26.2" width="0" height="0.2"/>
<rect x="19.2" y="26.2" width="0" height="0.2"/>
<rect x="20.4" y="26.2" width="0" height="0.2"/>
<rect x="21.6" y="26.2" width="0" height="0.2"/>
<rect x="22.8" y="26.2" width="0" height="0.2"/>
</svg>
