<?xml version="1.0" encoding="utf-8"?>
<!-- Generator: Adobe Illustrator 25.0.0, SVG Export Plug-In . SVG Version: 6.00 Build 0)  -->
<svg version="1.1" id="Layer_1" xmlns="http://www.w3.org/2000/svg" xmlns:xlink="http://www.w3.org/1999/xlink" x="0px" y="0px"
	 viewBox="0 0 36 36" style="enable-background:new 0 0 36 36;" xml:space="preserve">
<style type="text/css">
	.st0{fill:#CB1618;}
	.st1{fill:#185ABD;}
	.st2{fill:#D83039;}
	.st3{fill:#103F91;}
	.st4{fill:#185C37;}
	.st5{fill:#33C481;}
	.st6{fill:#107C41;}
	.st7{fill:#21A366;}
	.st8{fill:#0B4A99;}
	.st9{fill:none;}
	.st10{fill:#FFFFFF;}
	.st11{fill:#41A5EE;}
	.st12{fill:#2B7CD3;}
	.st13{opacity:0.5;enable-background:new    ;}
	.st14{fill:url(#SVGID_1_);}
	.st15{fill:url(#SVGID_2_);}
	.st16{fill:url(#SVGID_3_);}
	.st17{fill:url(#SVGID_4_);}
	.st18{fill:#E24951;}
	.st19{fill-rule:evenodd;clip-rule:evenodd;}
	.st20{fill:#262625;}
	.st21{fill:none;stroke:#000000;stroke-width:0.75;stroke-miterlimit:10;}
	.st22{fill:none;stroke:#000000;stroke-width:1.2;stroke-miterlimit:10;}
	.st23{fill-rule:evenodd;clip-rule:evenodd;fill:#0B4A99;}
</style>
<g>
	<g>
		<path class="st8" d="M7.4,33.7c-0.2,0-0.4,0-0.7,0c-2-0.2-3.8-1.1-5-2.6c-2.6-3.1-2.2-7.8,0.9-10.4l7.9-6.6
			c3.1-2.6,7.8-2.2,10.4,0.9c1.4,1.6,2,3.8,1.6,5.9c-0.1,0.4-0.5,0.7-0.9,0.7c-0.4-0.1-0.7-0.5-0.7-0.9c0.3-1.7-0.2-3.3-1.3-4.6
			c-2.1-2.5-5.7-2.8-8.2-0.7l-7.9,6.6c-2.5,2.1-2.8,5.7-0.7,8.2c1,1.2,2.4,1.9,3.9,2.1c1.5,0.1,3.1-0.3,4.2-1.3l7.9-6.6
			c0.3-0.3,0.8-0.2,1.1,0.1c0.3,0.3,0.2,0.8-0.1,1.1L12.2,32C10.8,33.1,9.1,33.7,7.4,33.7z"/>
	</g>
	<g>
		<path class="st8" d="M20.7,23.7c-2.1,0-4.2-0.9-5.7-2.7c-1.4-1.7-2-3.9-1.6-6c0.1-0.4,0.5-0.7,0.9-0.6c0.4,0.1,0.7,0.5,0.6,0.9
			c-0.3,1.7,0.2,3.4,1.3,4.7c2.1,2.5,5.7,2.8,8.2,0.7l7.9-6.6c2.5-2.1,2.8-5.7,0.7-8.2c-1-1.2-2.4-1.9-3.9-2.1
			c-1.5-0.1-3.1,0.3-4.2,1.3l-7.9,6.6c-0.3,0.3-0.8,0.2-1.1-0.1c-0.3-0.3-0.2-0.8,0.1-1.1L23.8,4c1.5-1.3,3.4-1.9,5.4-1.7
			c2,0.2,3.8,1.1,5,2.6c2.6,3.1,2.2,7.8-0.9,10.4L25.4,22C24,23.2,22.4,23.7,20.7,23.7z"/>
	</g>
</g>
</svg>
