<?xml version="1.0" encoding="utf-8"?>
<!-- Generator: Adobe Illustrator 25.0.0, SVG Export Plug-In . SVG Version: 6.00 Build 0)  -->
<svg version="1.1" id="Layer_1" xmlns="http://www.w3.org/2000/svg" xmlns:xlink="http://www.w3.org/1999/xlink" x="0px" y="0px"
	 viewBox="0 0 36 36" style="enable-background:new 0 0 36 36;" xml:space="preserve">
<style type="text/css">
	.st0{fill:#CB1618;}
	.st1{fill:#185ABD;}
	.st2{fill:#D83039;}
	.st3{fill:#103F91;}
	.st4{fill:#185C37;}
	.st5{fill:#33C481;}
	.st6{fill:#107C41;}
	.st7{fill:#21A366;}
	.st8{fill:#0B4A99;}
	.st9{fill:none;}
	.st10{fill:#FFFFFF;}
	.st11{fill:#41A5EE;}
	.st12{fill:#2B7CD3;}
	.st13{opacity:0.5;enable-background:new    ;}
	.st14{fill:url(#SVGID_1_);}
	.st15{fill:url(#SVGID_2_);}
	.st16{fill:url(#SVGID_3_);}
	.st17{fill:url(#SVGID_4_);}
	.st18{fill:#E24951;}
	.st19{fill-rule:evenodd;clip-rule:evenodd;}
	.st20{fill:#262625;}
	.st21{fill:none;stroke:#000000;stroke-width:0.75;stroke-miterlimit:10;}
	.st22{fill:none;stroke:#000000;stroke-width:1.2;stroke-miterlimit:10;}
	.st23{fill-rule:evenodd;clip-rule:evenodd;fill:#0B4A99;}
</style>
<g>
	<g>
		<path class="st8" d="M19.7,13.2H2.4c-0.5,0-0.9-0.4-0.9-0.9V3.1c0-1.2,1-2.2,2.2-2.2h14.8c1.2,0,2.2,1,2.2,2.2v9.2
			C20.7,12.8,20.3,13.2,19.7,13.2z M2.6,12h16.9v-9C19.5,2.5,19,2,18.4,2H3.7C3.1,2,2.6,2.5,2.6,3.1V12z"/>
	</g>
	<g>
		<path class="st8" d="M21.5,15.4H0.6c-0.3,0-0.6-0.3-0.6-0.6s0.3-0.6,0.6-0.6h20.9c0.3,0,0.6,0.3,0.6,0.6S21.8,15.4,21.5,15.4z"/>
	</g>
	<g>
		<path class="st8" d="M33.6,33H16.3c-0.5,0-0.9-0.4-0.9-0.9v-9.2c0-1.2,1-2.2,2.3-2.2h14.8c1.2,0,2.2,1,2.2,2.2v9.2
			C34.6,32.6,34.2,33,33.6,33z M16.5,31.9h16.9v-9c0-0.6-0.5-1.1-1.1-1.1H17.6c-0.6,0-1.1,0.5-1.1,1.1V31.9z"/>
	</g>
	<g>
		<path class="st8" d="M35.4,35.2H14.5c-0.3,0-0.6-0.3-0.6-0.6s0.3-0.6,0.6-0.6h20.9c0.3,0,0.6,0.3,0.6,0.6S35.7,35.2,35.4,35.2z"/>
	</g>
	<g>
		<path class="st8" d="M15.3,28.7h-4.9c-1.8,0-3.2-1.5-3.2-3.4V15c0-0.3,0.3-0.6,0.6-0.6s0.6,0.3,0.6,0.6v10.3c0,1.3,0.9,2.3,2,2.3
			h4.9c0.3,0,0.6,0.3,0.6,0.6C15.9,28.4,15.6,28.7,15.3,28.7z"/>
	</g>
	<g>
		<path class="st8" d="M27.9,21.3c-0.3,0-0.6-0.3-0.6-0.6v-11c0-1.4-0.9-2.5-2-2.5h-4.9c-0.3,0-0.6-0.3-0.6-0.6
			C19.8,6.3,20,6,20.4,6h4.9c1.8,0,3.2,1.6,3.2,3.7v11C28.4,21,28.2,21.3,27.9,21.3z"/>
	</g>
</g>
</svg>
