<?xml version="1.0" encoding="utf-8"?>
<!-- Generator: Adobe Illustrator 22.0.1, SVG Export Plug-In . SVG Version: 6.00 Build 0)  -->
<svg version="1.1" id="Layer_1" xmlns="http://www.w3.org/2000/svg" xmlns:xlink="http://www.w3.org/1999/xlink" x="0px" y="0px"
	 viewBox="0 0 30 30" style="enable-background:new 0 0 30 30;" xml:space="preserve">
<style type="text/css">
	.st0{fill:#008520;}
	.st1{opacity:0.5;fill:none;stroke:#000000;stroke-width:5.000000e-02;stroke-miterlimit:10;}
	.st2{fill:#0C4B96;}
	.st3{fill:#C63621;}
	.st4{fill:#F85544;}
	.st5{fill:#EFC150;}
	.st6{fill:#27314E;}
	.st7{fill:#063ABC;}
	.st8{fill:#C74E41;}
	.st9{fill:#C67E42;}
	.st10{fill:#2CBCBB;}
	.st11{fill:#134658;}
	.st12{fill:none;stroke:#134658;stroke-miterlimit:10;}
	.st13{fill:#2BBBBA;}
	.st14{fill:#8C7053;}
	.st15{fill:#A93B33;}
	.st16{fill:#2F99A5;}
	.st17{fill:#654538;}
	.st18{fill:#BE5141;}
	.st19{fill:none;stroke:#134658;stroke-width:0.75;stroke-miterlimit:10;}
	.st20{fill:none;}
	.st21{font-family:'MyriadPro-Regular';}
	.st22{font-size:0.93px;}
	.st23{font-size:1px;}
	.st24{opacity:0.5;}
	.st25{fill:#FF040F;}
	.st26{fill:#00A4F5;}
	.st27{fill:#70B74F;}
	.st28{fill:#F45DF4;}
	.st29{fill:#213763;}
	.st30{fill:#E8C67C;}
	.st31{fill:#135D7A;}
	.st32{fill:#A07C2B;}
	.st33{fill:none;stroke:#FF040F;stroke-width:0.25;stroke-miterlimit:10;}
	.st34{fill:#00457F;}
	.st35{fill:#48A030;}
	.st36{fill:#FFD445;}
	.st37{fill:#FF431D;}
	.st38{fill:#39B0C7;}
	.st39{fill:#5379A9;}
	.st40{fill:#E84049;}
	.st41{fill:#F57C45;}
	.st42{fill:#F1602D;}
	.st43{fill:#945965;}
	.st44{fill:#5C55A8;}
	.st45{fill:#4673C5;}
	.st46{fill:#E68549;}
	.st47{fill:none;stroke:#000000;stroke-width:0.15;stroke-miterlimit:10;}
	.st48{fill:none;stroke:#000000;stroke-width:0.1;stroke-miterlimit:10;}
	.st49{fill:#278EAA;}
	.st50{fill:#39BCA9;}
	.st51{fill:#EFCC3C;}
	.st52{fill:#E04444;}
</style>
<polygon points="30,25.5 2.5,25.5 2.5,2.4 2.7,2.4 2.7,25.2 30,25.2 "/>
<rect x="2.2" y="6.3" width="0.6" height="0.1"/>
<rect x="2.2" y="10" width="0.6" height="0.1"/>
<rect x="2.1" y="13.9" width="0.6" height="0.1"/>
<rect x="2.1" y="17.7" width="0.6" height="0.1"/>
<rect x="2.2" y="21.5" width="0.5" height="0.1"/>
<rect x="4.4" y="25.3" width="0.1" height="0.5"/>
<rect x="7.5" y="25.3" width="0.1" height="0.5"/>
<rect x="10.6" y="25.3" width="0.1" height="0.5"/>
<rect x="13.8" y="25.3" width="0.1" height="0.5"/>
<rect x="16.9" y="25.3" width="0.1" height="0.5"/>
<rect x="20" y="25.3" width="0.1" height="0.5"/>
<rect x="23.1" y="25.3" width="0.1" height="0.5"/>
<rect x="26.3" y="25.3" width="0.1" height="0.5"/>
<rect x="29.4" y="25.3" width="0.1" height="0.5"/>
<text transform="matrix(1 0 0 1 0.4995 6.6462)" class="st21 st22">50</text>
<text transform="matrix(1 0 0 1 0.4995 10.4264)" class="st21 st22">40</text>
<text transform="matrix(1 0 0 1 0.4995 14.1833)" class="st21 st22">30</text>
<text transform="matrix(1 0 0 1 0.4995 17.9626)" class="st21 st22">20</text>
<text transform="matrix(1 0 0 1 1.0142 21.8542)" class="st21 st22">10</text>
<text transform="matrix(1 0 0 1 1.4614 25.6344)" class="st21 st22">0</text>
<text transform="matrix(1 0 0 1 3.8854 26.8509)" class="st21 st23">0.1</text>
<text transform="matrix(1 0 0 1 6.9167 26.8509)" class="st21 st23">0.2</text>
<text transform="matrix(1 0 0 1 10.0417 26.8509)" class="st21 st23">0.3</text>
<text transform="matrix(1 0 0 1 13.1667 26.8509)" class="st21 st23">0.4</text>
<text transform="matrix(1 0 0 1 16.2917 26.8509)" class="st21 st23">0.5</text>
<text transform="matrix(1 0 0 1 19.4167 26.8509)" class="st21 st23">0.6</text>
<text transform="matrix(1 0 0 1 22.5417 26.8509)" class="st21 st23">0.7</text>
<text transform="matrix(1 0 0 1 25.6667 26.8509)" class="st21 st23">0.8</text>
<text transform="matrix(1 0 0 1 28.7917 26.8509)" class="st21 st23">0.9</text>
<g>
	<path class="st2" d="M25.1,20.7c0,0.1,0,0.1,0,0.2c0,0.1,0,0.1-0.1,0.1c-0.1,0-0.1,0-0.2,0c0,0.2,0,0.3,0,0.4c0.2,0,0.3,0,0.5,0
		c0-0.1,0-0.2,0-0.2c0.1,0,0.2,0,0.3,0c0-0.2,0-0.3,0-0.4C25.4,20.7,25.3,20.7,25.1,20.7z M26.9,21.2c0-0.2,0-0.3,0-0.5
		c-0.1,0-0.2,0-0.3,0c0-0.1,0-0.2,0-0.3c-0.1,0-0.3,0-0.4,0c0,0-0.1,0-0.1,0.1c0,0.1,0,0.3,0,0.4c0.1,0,0.2,0,0.3,0
		c0,0.1,0,0.2,0,0.3C26.6,21.2,26.7,21.2,26.9,21.2z M17.3,12.8c-0.2,0-0.3,0-0.4,0c0,0.2,0,0.3,0,0.4c0.1,0,0.2,0,0.3,0
		c0,0.1,0,0.2,0,0.3c0.1,0,0.3,0,0.4,0c0,0,0.1,0,0.1,0c0-0.1,0-0.3,0-0.4c-0.1,0-0.2,0-0.3,0C17.3,13,17.3,12.9,17.3,12.8z
		 M21.2,19.1c0-0.2,0-0.3,0-0.4c-0.2,0-0.3,0-0.4,0c0,0.1,0,0.2,0,0.2c-0.1,0-0.2,0-0.3,0c0,0.1,0,0.3,0,0.4c0,0,0,0.1,0.1,0.1
		c0.1,0,0.3,0,0.4,0c0-0.1,0-0.2,0-0.2C21,19.1,21.1,19.1,21.2,19.1z M13.5,12.1c0,0.1,0,0.2,0,0.4c0,0.1,0,0.1,0.1,0.1
		c0.1,0,0.2,0,0.2,0c0,0.1,0,0.1,0,0.2c0.2,0,0.3,0,0.4,0c0-0.2,0-0.3,0-0.4c-0.1,0-0.2,0-0.3,0c0-0.1,0-0.1,0-0.2
		C13.8,12.1,13.7,12.1,13.5,12.1z M12.2,13.4c0.3,0,0.5,0,0.8,0.1c0-0.2,0-0.3,0-0.5c-0.1,0-0.2,0-0.3,0c-0.2-0.1-0.3,0-0.5,0
		c0,0.1,0,0.2,0,0.3C12.2,13.3,12.2,13.4,12.2,13.4z M26.2,18.4c0-0.2,0-0.2-0.2-0.2c-0.2,0-0.2,0-0.2,0.2c0,0.2,0,0.2,0.2,0.2
		C26.2,18.6,26.2,18.6,26.2,18.4z M12.3,12.1c-0.2,0-0.3,0-0.4,0c0,0.2,0,0.3,0,0.4c0.2,0,0.3,0,0.4,0
		C12.3,12.4,12.3,12.2,12.3,12.1z M9.9,10.3c0.2,0,0.3,0,0.4,0c0-0.2,0-0.3,0-0.4c-0.2,0-0.3,0-0.4,0C9.9,10,9.9,10.1,9.9,10.3z
		 M16.2,16.5c0,0.2,0,0.3,0,0.4c0.2,0,0.3,0,0.4,0c0-0.2,0-0.3,0-0.4C16.5,16.5,16.3,16.5,16.2,16.5z M19.3,11.4c0-0.2,0-0.3,0-0.4
		c-0.2,0-0.3,0-0.4,0c0,0.2,0,0.3,0,0.4C19,11.4,19.1,11.4,19.3,11.4z M10.6,10.3c0.1,0,0.3,0,0.4,0c0,0,0.1,0,0.1-0.1
		c0-0.1,0-0.3,0-0.4c-0.2,0-0.3,0-0.5,0C10.6,10,10.6,10.1,10.6,10.3z M24.9,15.5c0-0.2,0-0.3,0-0.4c-0.2,0-0.3,0-0.4,0
		c0,0.2,0,0.3,0,0.4C24.6,15.5,24.7,15.5,24.9,15.5z M23.1,19.8c0.2,0,0.3,0,0.4,0c0-0.2,0-0.3,0-0.4c-0.1,0-0.3,0-0.4,0
		C23.1,19.5,23.1,19.7,23.1,19.8z M18,14.7c0-0.2,0-0.2-0.2-0.2c0,0,0,0,0,0c-0.2,0-0.2,0-0.2,0.2c0,0.2,0,0.2,0.2,0.2
		C18,15,18,15,18,14.7z M9.3,11.1c0.2,0,0.3,0,0.4,0c0-0.1,0-0.3,0-0.4c-0.1,0-0.2,0-0.4,0c0,0,0,0,0,0c0,0,0,0-0.1,0.1
		C9.2,10.9,9.3,11,9.3,11.1z M23.2,20.3c-0.2,0-0.3,0-0.4,0c0,0.1,0,0.3,0,0.4c0.1,0,0.3,0,0.4,0c0,0,0.1,0,0.1-0.1
		C23.2,20.6,23.2,20.5,23.2,20.3z M18.2,15.1c0.2,0,0.3,0,0.4,0c0-0.1,0-0.3,0-0.4c-0.1,0-0.3,0-0.4,0C18.2,14.8,18.2,15,18.2,15.1z
		 M24.2,21.6c0-0.2,0-0.3,0-0.4c-0.1,0-0.3,0-0.4,0c0,0.2,0,0.3,0,0.4C23.9,21.6,24.1,21.6,24.2,21.6z M24.6,22.2
		c-0.2,0-0.3,0-0.4,0c0,0.2,0,0.3,0,0.4c0.1,0,0.3,0,0.4,0c0,0,0.1,0,0.1-0.1C24.6,22.5,24.6,22.4,24.6,22.2z M22.6,19.3
		c-0.2,0-0.3,0-0.4,0c0,0.2,0,0.3,0,0.4c0.2,0,0.3,0,0.4,0C22.6,19.6,22.6,19.4,22.6,19.3z M15,10.9c-0.2,0-0.3,0-0.4,0
		c0,0.2,0,0.3,0,0.4c0.2,0,0.3,0,0.4,0C15,11.2,15,11.1,15,10.9z M19.8,14.7c0,0.2,0,0.3,0,0.4c0.2,0,0.3,0,0.4,0c0-0.1,0-0.3,0-0.4
		C20.1,14.7,20,14.7,19.8,14.7z M11.4,14.9c-0.1,0-0.3,0-0.4,0c0,0-0.1,0-0.1,0c0,0.1,0,0.3,0,0.4c0.2,0,0.3,0,0.4,0
		C11.4,15.2,11.4,15,11.4,14.9z M16.3,16.1c0-0.2,0-0.3,0-0.4c-0.2,0-0.3,0-0.4,0c0,0.2,0,0.3,0,0.4C16,16.1,16.1,16.1,16.3,16.1z
		 M22.5,18.3c0.2,0,0.3,0,0.4,0c0-0.2,0-0.3,0-0.4c-0.2,0-0.3,0-0.4,0C22.5,18,22.5,18.2,22.5,18.3z M15.6,18.1c0-0.2,0-0.3,0-0.4
		c-0.2,0-0.3,0-0.4,0c0,0.2,0,0.3,0,0.4C15.4,18.1,15.5,18.1,15.6,18.1z M13.7,11c0-0.1,0-0.3,0-0.4c0,0,0-0.1-0.1-0.1
		c-0.1,0-0.3,0-0.4,0c0,0.2,0,0.3,0,0.4C13.4,11,13.5,11,13.7,11z M16,15.3c0-0.2,0-0.3,0-0.4c-0.1,0-0.3,0-0.4,0c0,0.2,0,0.3,0,0.4
		C15.7,15.3,15.8,15.3,16,15.3z M25.4,14.9c0,0.2,0,0.3,0,0.4c0.2,0,0.3,0,0.4,0c0-0.2,0-0.3,0-0.4C25.7,14.9,25.6,14.9,25.4,14.9z
		 M8.4,8.9c-0.1,0-0.3,0-0.4,0c0,0,0,0,0,0c0,0.1,0,0.3,0,0.4c0.2,0,0.3,0,0.4,0C8.4,9.2,8.4,9.1,8.4,8.9z M20.1,16.8
		c0,0.2,0,0.3,0,0.4c0.1,0,0.3,0,0.4,0c0-0.1,0-0.3,0-0.4c0,0,0-0.1-0.1-0.1C20.4,16.8,20.3,16.8,20.1,16.8z M7.6,8.7
		c0.2,0,0.3,0,0.4,0c0-0.2,0-0.3,0-0.4c-0.2,0-0.3,0-0.4,0C7.6,8.4,7.6,8.5,7.6,8.7z M8.7,10.3c0-0.1,0-0.3,0-0.4
		c-0.2,0-0.3,0-0.4,0c0,0.2,0,0.3,0,0.4C8.4,10.3,8.6,10.3,8.7,10.3z M10.7,16.5c0-0.1,0-0.3,0-0.4c0,0,0-0.1-0.1-0.1
		c-0.1,0-0.3,0-0.4,0c0,0.2,0,0.3,0,0.5C10.4,16.5,10.5,16.5,10.7,16.5z M19.2,15.8c0,0.2,0,0.3,0,0.4c0.2,0,0.3,0,0.4,0
		c0-0.2,0-0.3,0-0.4C19.5,15.8,19.3,15.8,19.2,15.8z M7.4,7.6c-0.2,0-0.3,0-0.4,0c0,0.1,0,0.3,0,0.4C6.9,8,7,8,7,8
		c0.1,0,0.3,0,0.4,0C7.4,7.8,7.4,7.7,7.4,7.6z M11.2,7.4c0,0.1,0,0.3,0,0.4c0.1,0,0.3,0,0.4,0c0-0.2,0-0.3,0-0.4
		C11.5,7.4,11.4,7.4,11.2,7.4z M18.3,15.8c0-0.2,0-0.3,0-0.4c-0.2,0-0.3,0-0.4,0c0,0.1,0,0.3,0,0.4c0,0,0,0.1,0.1,0.1
		C18,15.8,18.1,15.8,18.3,15.8z M23.9,16.1c-0.2,0-0.3,0-0.4,0c0,0.2,0,0.3,0,0.4c0.2,0,0.3,0,0.4,0C23.9,16.4,23.9,16.2,23.9,16.1z
		 M6.6,5.3c0.2,0,0.3,0,0.4,0c0-0.2,0-0.3,0-0.4c-0.1,0-0.3,0-0.4,0C6.6,5.1,6.6,5.2,6.6,5.3z M7.3,5.8c0.2,0,0.3,0,0.4,0
		c0-0.2,0-0.3,0-0.4c-0.1,0-0.3,0-0.4,0C7.3,5.5,7.3,5.7,7.3,5.8z M9.4,12.6c0-0.2,0-0.3,0-0.4c-0.2,0-0.3,0-0.4,0
		c0,0.1,0,0.3,0,0.4C9.1,12.6,9.2,12.6,9.4,12.6z M13.3,12.2c-0.2,0-0.3,0-0.4,0c0,0.1,0,0.3,0,0.4c0.1,0,0.3,0,0.4,0
		C13.3,12.5,13.3,12.3,13.3,12.2z M15.3,13.1c0-0.1,0-0.3,0-0.4c-0.2,0-0.3,0-0.4,0c0,0.2,0,0.3,0,0.4C15,13.1,15.2,13.1,15.3,13.1z
		 M18.9,12.8c-0.2,0-0.3,0-0.4,0c0,0.2,0,0.3,0,0.4c0.1,0,0.3,0,0.4,0C18.9,13.1,18.9,13,18.9,12.8z M16.5,13.7c0,0.2,0,0.3,0,0.4
		c0.2,0,0.3,0,0.4,0c0-0.1,0-0.3,0-0.4C16.8,13.7,16.7,13.7,16.5,13.7z M12,13.4c0-0.2,0-0.3,0-0.4c-0.2,0-0.3,0-0.4,0
		c0,0.2,0,0.3,0,0.4C11.7,13.4,11.9,13.4,12,13.4z M9.6,13c0,0.2,0,0.3,0,0.4c0.2,0,0.3,0,0.4,0c0-0.2,0-0.3,0-0.4
		C9.9,13,9.7,13,9.6,13z M8.6,13.4c0.2,0,0.3,0,0.4,0c0-0.2,0-0.3,0-0.4c-0.2,0-0.3,0-0.4,0C8.6,13.1,8.6,13.3,8.6,13.4z M14.2,12.8
		c0,0.2,0,0.3,0,0.4c0.1,0,0.3,0,0.4,0c0-0.2,0-0.3,0-0.4C14.5,12.8,14.4,12.8,14.2,12.8z M19.5,19.9c0.2,0,0.3,0,0.4,0
		c0-0.2,0-0.3,0-0.4c-0.2,0-0.3,0-0.4,0C19.5,19.6,19.5,19.8,19.5,19.9z M21.6,20.4c0-0.2,0-0.3,0-0.4c-0.2,0-0.3,0-0.4,0
		c0,0.2,0,0.3,0,0.4C21.3,20.4,21.4,20.4,21.6,20.4z M22,18.7c-0.2,0-0.2,0-0.2,0.2c0,0.2,0,0.2,0.2,0.2c0.2,0,0.2,0,0.2-0.2
		C22.3,18.7,22.3,18.7,22,18.7z"/>
	<path class="st2" d="M25.1,20.7c0.2,0,0.3,0,0.4,0c0,0.2,0,0.3,0,0.4c-0.1,0-0.2,0-0.3,0c0,0.1,0,0.2,0,0.2c-0.2,0-0.3,0-0.5,0
		c0-0.1,0-0.3,0-0.4c0.1,0,0.2,0,0.2,0c0.1,0,0.1,0,0.1-0.1C25.1,20.8,25.1,20.8,25.1,20.7z"/>
	<path class="st2" d="M26.9,21.2c-0.2,0-0.3,0-0.4,0c0-0.1,0-0.2,0-0.3c-0.1,0-0.2,0-0.3,0c0-0.1,0-0.3,0-0.4c0,0,0-0.1,0.1-0.1
		c0.1,0,0.3,0,0.4,0c0,0.1,0,0.2,0,0.3c0.1,0,0.2,0,0.3,0C26.9,21,26.9,21.1,26.9,21.2z"/>
	<path class="st2" d="M17.3,12.8c0,0.1,0,0.2,0,0.2c0.1,0,0.2,0,0.3,0c0,0.1,0,0.3,0,0.4c0,0,0,0-0.1,0c-0.1,0-0.3,0-0.4,0
		c0-0.1,0-0.2,0-0.3c-0.1,0-0.2,0-0.3,0c0-0.2,0-0.3,0-0.4C17,12.8,17.1,12.8,17.3,12.8z"/>
	<path class="st2" d="M21.2,19.1c-0.1,0-0.2,0-0.3,0c0,0.1,0,0.2,0,0.2c-0.1,0-0.3,0-0.4,0c0,0-0.1,0-0.1-0.1c0-0.1,0-0.3,0-0.4
		c0.1,0,0.2,0,0.3,0c0-0.1,0-0.2,0-0.2c0.1,0,0.3,0,0.4,0C21.2,18.8,21.2,18.9,21.2,19.1z"/>
	<path class="st2" d="M13.5,12.1c0.2,0,0.3,0,0.4,0c0,0.1,0,0.1,0,0.2c0.1,0,0.2,0,0.3,0c0,0.2,0,0.3,0,0.4c-0.1,0-0.3,0-0.4,0
		c0-0.1,0-0.1,0-0.2c-0.1,0-0.2,0-0.2,0c-0.1,0-0.1,0-0.1-0.1C13.5,12.4,13.5,12.2,13.5,12.1z"/>
	<path class="st2" d="M12.2,13.4c0,0,0-0.1,0-0.1c0-0.1,0-0.2,0-0.3c0.2,0,0.3,0,0.5,0c0.1,0,0.2,0,0.3,0c0,0.2,0,0.3,0,0.5
		C12.7,13.4,12.5,13.4,12.2,13.4z"/>
	<path class="st2" d="M26.2,18.4c0,0.2,0,0.2-0.2,0.2c-0.2,0-0.2,0-0.2-0.2c0-0.2,0-0.2,0.2-0.2C26.2,18.1,26.2,18.1,26.2,18.4z"/>
	<path class="st2" d="M12.3,12.1c0,0.2,0,0.3,0,0.4c-0.1,0-0.3,0-0.4,0c0-0.1,0-0.3,0-0.4C12,12.1,12.2,12.1,12.3,12.1z"/>
	<path class="st2" d="M9.9,10.3c0-0.2,0-0.3,0-0.4c0.1,0,0.3,0,0.4,0c0,0.1,0,0.3,0,0.4C10.2,10.3,10.1,10.3,9.9,10.3z"/>
	<path class="st2" d="M16.2,16.5c0.1,0,0.3,0,0.4,0c0,0.1,0,0.3,0,0.4c-0.1,0-0.3,0-0.4,0C16.2,16.8,16.2,16.7,16.2,16.5z"/>
	<path class="st2" d="M19.3,11.4c-0.2,0-0.3,0-0.4,0c0-0.1,0-0.3,0-0.4c0.1,0,0.3,0,0.4,0C19.3,11.1,19.3,11.2,19.3,11.4z"/>
	<path class="st2" d="M10.6,10.3c0-0.2,0-0.3,0-0.4c0.1,0,0.3,0,0.5,0c0,0.1,0,0.3,0,0.4c0,0,0,0.1-0.1,0.1
		C10.8,10.3,10.7,10.3,10.6,10.3z"/>
	<path class="st2" d="M24.9,15.5c-0.2,0-0.3,0-0.4,0c0-0.1,0-0.3,0-0.4c0.1,0,0.3,0,0.4,0C24.9,15.2,24.9,15.3,24.9,15.5z"/>
	<path class="st2" d="M23.1,19.8c0-0.1,0-0.3,0-0.4c0.2,0,0.3,0,0.4,0c0,0.1,0,0.3,0,0.4C23.4,19.8,23.3,19.8,23.1,19.8z"/>
	<path class="st2" d="M18,14.7c0,0.2,0,0.2-0.2,0.2c-0.2,0-0.2,0-0.2-0.2c0-0.2,0-0.2,0.2-0.2c0,0,0,0,0,0C18,14.5,18,14.5,18,14.7z
		"/>
	<path class="st2" d="M9.3,11.1c0-0.1,0-0.3,0-0.4c0,0,0,0,0.1-0.1c0,0,0,0,0,0c0.1,0,0.2,0,0.4,0c0,0.1,0,0.3,0,0.4
		C9.6,11.1,9.4,11.1,9.3,11.1z"/>
	<path class="st2" d="M23.2,20.3c0,0.1,0,0.3,0,0.4c0,0,0,0.1-0.1,0.1c-0.1,0-0.3,0-0.4,0c0-0.2,0-0.3,0-0.4
		C22.9,20.3,23.1,20.3,23.2,20.3z"/>
	<path class="st2" d="M18.2,15.1c0-0.1,0-0.3,0-0.4c0.1,0,0.3,0,0.4,0c0,0.1,0,0.3,0,0.4C18.5,15.1,18.3,15.1,18.2,15.1z"/>
	<path class="st2" d="M24.2,21.6c-0.1,0-0.3,0-0.4,0c0-0.1,0-0.3,0-0.4c0.1,0,0.3,0,0.4,0C24.2,21.3,24.2,21.5,24.2,21.6z"/>
	<path class="st2" d="M24.6,22.2c0,0.1,0,0.3,0,0.4c0,0,0,0.1-0.1,0.1c-0.1,0-0.3,0-0.4,0c0-0.2,0-0.3,0-0.4
		C24.3,22.2,24.4,22.2,24.6,22.2z"/>
	<path class="st2" d="M22.6,19.3c0,0.2,0,0.3,0,0.4c-0.1,0-0.3,0-0.4,0c0-0.1,0-0.3,0-0.4C22.3,19.3,22.4,19.3,22.6,19.3z"/>
	<path class="st2" d="M15,10.9c0,0.1,0,0.3,0,0.4c-0.1,0-0.3,0-0.4,0c0-0.1,0-0.3,0-0.4C14.7,10.9,14.8,10.9,15,10.9z"/>
	<path class="st2" d="M19.8,14.7c0.1,0,0.3,0,0.4,0c0,0.1,0,0.3,0,0.4c-0.1,0-0.3,0-0.4,0C19.8,15,19.8,14.8,19.8,14.7z"/>
	<path class="st2" d="M11.4,14.9c0,0.2,0,0.3,0,0.4c-0.1,0-0.3,0-0.4,0c0-0.1,0-0.3,0-0.4c0,0,0,0,0.1,0
		C11.1,14.9,11.2,14.9,11.4,14.9z"/>
	<path class="st2" d="M16.3,16.1c-0.2,0-0.3,0-0.4,0c0-0.1,0-0.3,0-0.4c0.1,0,0.3,0,0.4,0C16.3,15.8,16.3,16,16.3,16.1z"/>
	<path class="st2" d="M22.5,18.3c0-0.1,0-0.3,0-0.4c0.1,0,0.3,0,0.4,0c0,0.1,0,0.3,0,0.4C22.8,18.3,22.6,18.3,22.5,18.3z"/>
	<path class="st2" d="M15.6,18.1c-0.1,0-0.3,0-0.4,0c0-0.1,0-0.3,0-0.4c0.1,0,0.3,0,0.4,0C15.6,17.8,15.6,18,15.6,18.1z"/>
	<path class="st2" d="M13.7,11c-0.2,0-0.3,0-0.4,0c0-0.1,0-0.3,0-0.4c0.1,0,0.3,0,0.4,0c0,0,0.1,0,0.1,0.1
		C13.7,10.8,13.7,10.9,13.7,11z"/>
	<path class="st2" d="M16,15.3c-0.1,0-0.3,0-0.4,0c0-0.1,0-0.3,0-0.4c0.1,0,0.3,0,0.4,0C16,15,16,15.2,16,15.3z"/>
	<path class="st2" d="M25.4,14.9c0.1,0,0.3,0,0.4,0c0,0.1,0,0.3,0,0.4c-0.1,0-0.3,0-0.4,0C25.4,15.2,25.4,15.1,25.4,14.9z"/>
	<path class="st2" d="M8.4,8.9c0,0.2,0,0.3,0,0.4c-0.1,0-0.3,0-0.4,0c0-0.1,0-0.3,0-0.4c0,0,0,0,0,0C8.1,8.9,8.2,8.9,8.4,8.9z"/>
	<path class="st2" d="M20.1,16.8c0.1,0,0.3,0,0.4,0c0,0,0.1,0,0.1,0.1c0,0.1,0,0.3,0,0.4c-0.2,0-0.3,0-0.4,0
		C20.1,17.1,20.1,16.9,20.1,16.8z"/>
	<path class="st2" d="M7.6,8.7c0-0.1,0-0.3,0-0.4c0.1,0,0.3,0,0.4,0c0,0.1,0,0.3,0,0.4C7.9,8.7,7.8,8.7,7.6,8.7z"/>
	<path class="st2" d="M8.7,10.3c-0.1,0-0.3,0-0.4,0c0-0.1,0-0.3,0-0.4c0.1,0,0.3,0,0.4,0C8.7,10,8.7,10.2,8.7,10.3z"/>
	<path class="st2" d="M10.7,16.5c-0.2,0-0.3,0-0.4,0c0-0.1,0-0.3,0-0.5c0.1,0,0.3,0,0.4,0c0,0,0.1,0,0.1,0.1
		C10.7,16.2,10.7,16.3,10.7,16.5z"/>
	<path class="st2" d="M19.2,15.8c0.1,0,0.3,0,0.4,0c0,0.1,0,0.3,0,0.4c-0.1,0-0.3,0-0.4,0C19.2,16.1,19.2,15.9,19.2,15.8z"/>
	<path class="st2" d="M7.4,7.6c0,0.2,0,0.3,0,0.4C7.3,8,7.1,8,7,8c0,0,0,0,0-0.1c0-0.1,0-0.3,0-0.4C7.1,7.6,7.2,7.6,7.4,7.6z"/>
	<path class="st2" d="M11.2,7.4c0.1,0,0.3,0,0.4,0c0,0.1,0,0.3,0,0.4c-0.1,0-0.3,0-0.4,0C11.2,7.7,11.2,7.5,11.2,7.4z"/>
	<path class="st2" d="M18.3,15.8c-0.1,0-0.3,0-0.4,0c0,0-0.1,0-0.1-0.1c0-0.1,0-0.2,0-0.4c0.2,0,0.3,0,0.4,0
		C18.3,15.5,18.3,15.7,18.3,15.8z"/>
	<path class="st2" d="M23.9,16.1c0,0.2,0,0.3,0,0.4c-0.1,0-0.3,0-0.4,0c0-0.1,0-0.3,0-0.4C23.6,16.1,23.7,16.1,23.9,16.1z"/>
	<path class="st2" d="M6.6,5.3c0-0.1,0-0.3,0-0.4c0.1,0,0.3,0,0.4,0c0,0.1,0,0.3,0,0.4C6.9,5.3,6.8,5.3,6.6,5.3z"/>
	<path class="st2" d="M7.3,5.8c0-0.1,0-0.3,0-0.4c0.1,0,0.3,0,0.4,0c0,0.1,0,0.3,0,0.4C7.6,5.8,7.4,5.8,7.3,5.8z"/>
	<path class="st2" d="M9.4,12.6c-0.2,0-0.3,0-0.4,0c0-0.1,0-0.3,0-0.4c0.1,0,0.3,0,0.4,0C9.4,12.3,9.4,12.4,9.4,12.6z"/>
	<path class="st2" d="M13.3,12.2c0,0.1,0,0.3,0,0.4c-0.1,0-0.3,0-0.4,0c0-0.1,0-0.3,0-0.4C13,12.2,13.2,12.2,13.3,12.2z"/>
	<path class="st2" d="M15.3,13.1c-0.1,0-0.3,0-0.4,0c0-0.1,0-0.3,0-0.4c0.1,0,0.3,0,0.4,0C15.3,12.8,15.3,12.9,15.3,13.1z"/>
	<path class="st2" d="M18.9,12.8c0,0.1,0,0.3,0,0.4c-0.1,0-0.3,0-0.4,0c0-0.1,0-0.3,0-0.4C18.6,12.8,18.8,12.8,18.9,12.8z"/>
	<path class="st2" d="M16.5,13.7c0.1,0,0.3,0,0.4,0c0,0.1,0,0.3,0,0.4c-0.1,0-0.3,0-0.4,0C16.5,14,16.5,13.8,16.5,13.7z"/>
	<path class="st2" d="M12,13.4c-0.1,0-0.3,0-0.4,0c0-0.1,0-0.3,0-0.4c0.1,0,0.3,0,0.4,0C12,13.1,12,13.2,12,13.4z"/>
	<path class="st2" d="M9.6,13c0.1,0,0.3,0,0.4,0c0,0.1,0,0.3,0,0.4c-0.1,0-0.3,0-0.4,0C9.6,13.3,9.6,13.1,9.6,13z"/>
	<path class="st2" d="M8.6,13.4c0-0.1,0-0.3,0-0.4c0.1,0,0.3,0,0.4,0c0,0.1,0,0.3,0,0.4C8.9,13.4,8.8,13.4,8.6,13.4z"/>
	<path class="st2" d="M14.2,12.8c0.1,0,0.3,0,0.4,0c0,0.1,0,0.3,0,0.4c-0.1,0-0.3,0-0.4,0C14.2,13.1,14.2,13,14.2,12.8z"/>
	<path class="st2" d="M19.5,19.9c0-0.2,0-0.3,0-0.4c0.1,0,0.3,0,0.4,0c0,0.1,0,0.3,0,0.4C19.8,19.9,19.6,19.9,19.5,19.9z"/>
	<path class="st2" d="M21.6,20.4c-0.2,0-0.3,0-0.4,0c0-0.1,0-0.3,0-0.4c0.1,0,0.3,0,0.4,0C21.6,20.1,21.6,20.2,21.6,20.4z"/>
	<path class="st2" d="M22,18.7c0.2,0,0.2,0,0.2,0.2c0,0.2,0,0.2-0.2,0.2c-0.2,0-0.2,0-0.2-0.2C21.8,18.7,21.8,18.7,22,18.7z"/>
</g>
</svg>
