<?xml version="1.0" encoding="utf-8"?>
<!-- Generator: Adobe Illustrator 25.0.0, SVG Export Plug-In . SVG Version: 6.00 Build 0)  -->
<svg version="1.1" id="Layer_1" xmlns="http://www.w3.org/2000/svg" xmlns:xlink="http://www.w3.org/1999/xlink" x="0px" y="0px"
	 viewBox="0 0 36 36" style="enable-background:new 0 0 36 36;" xml:space="preserve">
<style type="text/css">
	.st0{fill:#C2CCD3;stroke:#0B4A99;stroke-width:0.25;stroke-miterlimit:10;}
	.st1{fill:#0B4A99;}
	.st2{fill:#CB1618;}
	.st3{fill:none;}
	.st4{fill:none;stroke:#0B4A99;stroke-width:0.5;stroke-miterlimit:10;}
	.st5{opacity:0.25;}
	.st6{fill:none;stroke:#0B4A99;stroke-width:3.000000e-02;stroke-miterlimit:10;}
	.st7{fill:#7AB5F4;}
	.st8{fill:#C2CCD3;stroke:#0B4A99;stroke-width:0.5;stroke-miterlimit:10;}
	.st9{fill:#C2CCD3;stroke:#0B4A99;stroke-width:0.1;stroke-miterlimit:10;}
</style>
<g>
	<polygon class="st1" points="36,36 0,36 0,0.7 0.5,0.7 0.5,35.5 36,35.5 	"/>
</g>
<circle class="st1" cx="14.8" cy="13.1" r="1.2"/>
<circle class="st1" cx="21.3" cy="22.7" r="1.2"/>
<circle class="st1" cx="29.2" cy="16.2" r="1.2"/>
<circle class="st1" cx="33.1" cy="21.6" r="1.2"/>
<circle class="st1" cx="26.1" cy="18.3" r="1.2"/>
<circle class="st1" cx="11.7" cy="26.4" r="1.2"/>
<circle class="st1" cx="16.6" cy="25.7" r="1.1"/>
<circle class="st1" cx="6.7" cy="21.3" r="1.1"/>
<circle class="st1" cx="17.6" cy="22" r="1"/>
<circle class="st1" cx="25.2" cy="22.1" r="1"/>
<circle class="st1" cx="29.1" cy="20.8" r="1"/>
<circle class="st1" cx="32.4" cy="13.5" r="1"/>
<circle class="st1" cx="23.1" cy="10.9" r="0.6"/>
<circle class="st1" cx="23.2" cy="18.7" r="0.8"/>
<circle class="st1" cx="10.2" cy="17.3" r="0.8"/>
<circle class="st1" cx="3.7" cy="28" r="0.8"/>
<circle class="st1" cx="8.5" cy="26.9" r="0.8"/>
<circle class="st1" cx="19.1" cy="11.5" r="0.8"/>
<circle class="st1" cx="27.2" cy="10.5" r="0.8"/>
<circle class="st1" cx="13.7" cy="23.5" r="0.6"/>
<g class="st5">
	<line class="st6" x1="0.7" y1="1.7" x2="36" y2="1.7"/>
	<line class="st6" x1="0.7" y1="2.9" x2="36" y2="2.9"/>
	<line class="st6" x1="0.7" y1="4.1" x2="36" y2="4.1"/>
	<line class="st6" x1="0.7" y1="5.3" x2="36" y2="5.3"/>
	<line class="st6" x1="0.7" y1="6.5" x2="36" y2="6.5"/>
	<line class="st6" x1="0.7" y1="7.7" x2="36" y2="7.7"/>
	<line class="st6" x1="0.7" y1="8.8" x2="36" y2="8.8"/>
	<line class="st6" x1="0.7" y1="10" x2="36" y2="10"/>
	<line class="st6" x1="0.7" y1="11.2" x2="36" y2="11.2"/>
	<line class="st6" x1="0.7" y1="12.4" x2="36" y2="12.4"/>
	<line class="st6" x1="0.7" y1="13.6" x2="36" y2="13.6"/>
	<line class="st6" x1="0.7" y1="14.8" x2="36" y2="14.8"/>
	<line class="st6" x1="0.7" y1="16" x2="36" y2="16"/>
	<line class="st6" x1="0.7" y1="17.2" x2="36" y2="17.2"/>
	<line class="st6" x1="0.7" y1="18.3" x2="36" y2="18.3"/>
	<line class="st6" x1="0.7" y1="19.5" x2="36" y2="19.5"/>
	<line class="st6" x1="0.7" y1="20.7" x2="36" y2="20.7"/>
	<line class="st6" x1="0.7" y1="21.9" x2="36" y2="21.9"/>
	<line class="st6" x1="0.7" y1="23.1" x2="36" y2="23.1"/>
	<line class="st6" x1="0.7" y1="24.3" x2="36" y2="24.3"/>
	<line class="st6" x1="0.7" y1="25.5" x2="36" y2="25.5"/>
	<line class="st6" x1="0.7" y1="26.6" x2="36" y2="26.6"/>
	<line class="st6" x1="0.7" y1="27.8" x2="36" y2="27.8"/>
	<line class="st6" x1="0.7" y1="29" x2="36" y2="29"/>
	<line class="st6" x1="0.7" y1="30.2" x2="36" y2="30.2"/>
	<line class="st6" x1="0.7" y1="31.4" x2="36" y2="31.4"/>
	<line class="st6" x1="0.7" y1="32.6" x2="36" y2="32.6"/>
	<line class="st6" x1="0.7" y1="33.8" x2="36" y2="33.8"/>
	<line class="st6" x1="0.7" y1="35" x2="36" y2="35"/>
</g>
<g class="st5">
	<line class="st6" x1="36" y1="1.1" x2="36" y2="35.4"/>
	<line class="st6" x1="34.7" y1="1.1" x2="34.7" y2="35.4"/>
	<line class="st6" x1="33.5" y1="1.1" x2="33.5" y2="35.4"/>
	<line class="st6" x1="32.2" y1="1.1" x2="32.2" y2="35.4"/>
	<line class="st6" x1="30.9" y1="1.1" x2="30.9" y2="35.4"/>
	<line class="st6" x1="29.7" y1="1.1" x2="29.7" y2="35.4"/>
	<line class="st6" x1="28.4" y1="1.1" x2="28.4" y2="35.4"/>
	<line class="st6" x1="27.1" y1="1.1" x2="27.1" y2="35.4"/>
	<line class="st6" x1="25.9" y1="1.1" x2="25.9" y2="35.4"/>
	<line class="st6" x1="24.6" y1="1.1" x2="24.6" y2="35.4"/>
	<line class="st6" x1="23.3" y1="1.1" x2="23.3" y2="35.4"/>
	<line class="st6" x1="22.1" y1="1.1" x2="22.1" y2="35.4"/>
	<line class="st6" x1="20.8" y1="1.1" x2="20.8" y2="35.4"/>
	<line class="st6" x1="19.5" y1="1.1" x2="19.5" y2="35.4"/>
	<line class="st6" x1="18.3" y1="1.1" x2="18.3" y2="35.4"/>
	<line class="st6" x1="17" y1="1.1" x2="17" y2="35.4"/>
	<line class="st6" x1="15.8" y1="1.1" x2="15.8" y2="35.4"/>
	<line class="st6" x1="14.5" y1="1.1" x2="14.5" y2="35.4"/>
	<line class="st6" x1="13.2" y1="1.1" x2="13.2" y2="35.4"/>
	<line class="st6" x1="12" y1="1.1" x2="12" y2="35.4"/>
	<line class="st6" x1="10.7" y1="1.1" x2="10.7" y2="35.4"/>
	<line class="st6" x1="9.4" y1="1.1" x2="9.4" y2="35.4"/>
	<line class="st6" x1="8.2" y1="1.1" x2="8.2" y2="35.4"/>
	<line class="st6" x1="6.9" y1="1.1" x2="6.9" y2="35.4"/>
	<line class="st6" x1="5.6" y1="1.1" x2="5.6" y2="35.4"/>
	<line class="st6" x1="4.4" y1="1.1" x2="4.4" y2="35.4"/>
	<line class="st6" x1="3.1" y1="1.1" x2="3.1" y2="35.4"/>
	<line class="st6" x1="1.8" y1="1.1" x2="1.8" y2="35.4"/>
	<line class="st6" x1="0.6" y1="1.1" x2="0.6" y2="35.4"/>
</g>
</svg>
