<?xml version="1.0" encoding="utf-8"?>
<!-- Generator: Adobe Illustrator 25.0.0, SVG Export Plug-In . SVG Version: 6.00 Build 0)  -->
<svg version="1.1" id="Layer_1" xmlns="http://www.w3.org/2000/svg" xmlns:xlink="http://www.w3.org/1999/xlink" x="0px" y="0px"
	 viewBox="0 0 36 36" style="enable-background:new 0 0 36 36;" xml:space="preserve">
<style type="text/css">
	.st0{fill:#0B4A99;}
	.st1{font-family:'Optima-Bold';}
	.st2{font-size:5.7636px;}
</style>
<g>
	<g>
		<path class="st0" d="M14.9,9.4C9.2,9.4,3.1,7.8,3.1,4.7S9.2,0,14.9,0c5.7,0,11.8,1.6,11.8,4.7S20.6,9.4,14.9,9.4z M14.9,1.3
			c-6,0-10.6,1.8-10.6,3.5s4.5,3.5,10.6,3.5c6,0,10.6-1.8,10.6-3.5S21,1.3,14.9,1.3z"/>
	</g>
	<g>
		<path class="st0" d="M14.9,16.6c-5.7,0-11.8-1.6-11.8-4.7V4.5h1.3v7.4c0,1.6,4.5,3.5,10.6,3.5c6,0,10.6-1.8,10.6-3.5v-7h1.3v7
			C26.7,15,20.6,16.6,14.9,16.6z"/>
	</g>
	<g>
		<rect x="25.5" y="11.4" class="st0" width="1.3" height="5.1"/>
	</g>
	<g>
		<path class="st0" d="M14.9,24.6c-5.7,0-11.8-1.7-11.8-4.7V11h1.3v8.9c0,1.6,4.5,3.5,10.6,3.5V24.6z"/>
	</g>
	<g>
		<path class="st0" d="M14.9,32.8c-5.7,0-11.8-1.7-11.8-4.7v-8.9h1.3v8.9c0,1.6,4.5,3.5,10.6,3.5V32.8z"/>
	</g>
	<g>
		<path class="st0" d="M24.4,36c-4.7,0-8.5-3.8-8.5-8.5s3.8-8.5,8.5-8.5c4.7,0,8.5,3.8,8.5,8.5S29.1,36,24.4,36z M24.4,20.2
			c-4,0-7.3,3.3-7.3,7.3s3.3,7.3,7.3,7.3c4,0,7.3-3.3,7.3-7.3S28.4,20.2,24.4,20.2z"/>
	</g>
</g>
<text transform="matrix(1 0 0 1 19.1087 29.8393)" class="st0 st1 st2">SCD</text>
</svg>
