<?xml version="1.0" encoding="utf-8"?>
<!-- Generator: Adobe Illustrator 22.0.1, SVG Export Plug-In . SVG Version: 6.00 Build 0)  -->
<svg version="1.1" id="Layer_1" xmlns="http://www.w3.org/2000/svg" xmlns:xlink="http://www.w3.org/1999/xlink" x="0px" y="0px"
	 viewBox="0 0 30 30" style="enable-background:new 0 0 30 30;" xml:space="preserve">
<style type="text/css">
	.st0{fill:#FFFFFF;}
	.st1{fill:#0B4A99;}
	.st2{fill:#043468;}
	.st3{fill:#F0AB00;}
	.st4{fill:#A8A240;}
	.st5{fill:#40875E;}
	.st6{fill:none;}
</style>
<path class="st6" d="M22.3,5.3c0-1.7-3.9-3-8.7-3c-4.8,0-8.7,1.4-8.7,3c0,1.7,3.9,3,8.7,3C18.4,8.3,22.3,6.9,22.3,5.3z"/>
<path class="st3" d="M11.8,28.2c0-0.1,0-0.2,0-0.4c0,0,0-0.1,0-0.1c-2.1,0-3-1.6-3.4-2.1c-0.4-0.6-0.6-1.3-0.6-2
	c0-0.4,0.1-0.8,0.4-1.1c-1-0.2-1.6-0.3-1.6-0.3c-2.2-0.6-3.7-1.6-3.9-2.7c0,0.1,0,0.2,0,0.3v5.6c0,1.9,4,3.5,9.2,3.8
	c-0.1-0.3-0.2-0.5-0.2-0.8L11.8,28.2z"/>
<path class="st5" d="M14.2,10.1c0.6,0,1.1,0,1.7,0l2.4,0c1.6,0,3.1,0,4.7,0c0,0,0,0,0,0c0.5,0,0.9,0.1,1.4,0.3
	c0.1-0.2,0.2-0.5,0.2-0.7V4.1c0-2.1-4.9-3.8-10.9-3.8C7.6,0.3,2.7,2,2.7,4.1v5.6c0,1.9,3.9,3.5,9.1,3.8l0-1
	C11.8,11.1,12.8,10.1,14.2,10.1z M4.9,5.3c0-1.7,3.9-3,8.7-3c4.8,0,8.7,1.4,8.7,3c0,1.7-3.9,3-8.7,3C8.8,8.3,4.9,6.9,4.9,5.3z"/>
<path class="st4" d="M8.7,16.4c0.2-0.6,0.6-1.1,1-1.5c-3.9-0.5-6.7-1.8-7-3.3c0,0.1,0,0.2,0,0.3v5.6c0,1.2,1.6,2.3,4,3
	c0,0,1.1,0.3,3,0.6c-0.3-0.6-0.6-1.1-0.9-1.7C8.4,18.3,8.4,17.3,8.7,16.4z"/>
<path class="st4" d="M9.9,23.8c0.1,0.8,0.4,1.4,1.1,1.8c0.1,0,0.2,0,0.3,0c0.1-0.1,0.2-0.2,0.3-0.3c0.3-0.4,0.5-0.9,0.5-1.4
	c0-0.3,0-0.6-0.1-0.8c-0.3-0.6-0.7-1.2-1-1.8c-0.4-0.8-0.8-1.5-1.2-2.3c-0.3-0.7-0.4-1.4-0.1-2.1c0.4-1,1.4-1.7,2.5-1.7
	c2.1,0,4.1,0,6.2,0c0.6,0,1.1,0.3,1.5,0.8c0.4,0.5,0.6,1.1,0.7,1.7c0.1,0.4-0.3,0.9-0.7,0.9c-1.2,0-2.3,0-3.5,0c-0.9,0-1.9,0-2.8,0
	c-0.4,0-0.7-0.2-0.8-0.7c-0.1-0.6-0.4-1.2-0.9-1.6C11.7,16,11.7,16,11.5,16c-0.6,0.2-1,0.7-1.1,1.3c0,0.5,0.1,1,0.3,1.4
	c0.4,0.8,0.8,1.5,1.3,2.3c0.3,0.5,0.5,1,0.8,1.5c0.3,0.7,0.4,1.4,0,2.2c-0.1,0.3-0.3,0.7-0.5,1c0.1,0,0.1,0,0.2,0c1.8,0,3.7,0,5.5,0
	c0.7,0,1.2-0.4,1.4-1c0.2-0.5,0.2-1.1,0-1.6c-0.3-0.7-0.6-1.3-0.9-1.9c-0.3-0.5-0.5-1.1-0.6-1.7c-0.1-0.3,0.1-0.5,0.3-0.6
	c0.3-0.1,0.5,0.1,0.6,0.3c0.2,0.9,0.7,1.7,1,2.5c0.2,0.5,0.5,1,0.6,1.6c0.3,1.4-0.5,2.9-1.8,3.3c-0.1,0-0.3,0.1-0.5,0.1
	c-2.1,0-4.3,0-6.4,0c-1.2,0-2-0.7-2.5-1.6c-0.3-0.4-0.4-0.9-0.4-1.4c0-0.5,0.3-0.8,0.8-0.8c0.4,0,0.9,0,1.3,0c0.3,0,0.5,0.2,0.5,0.5
	c0,0.3-0.2,0.5-0.5,0.5C10.6,23.8,10.3,23.8,9.9,23.8z M13,15.9c0.2,0.4,0.4,0.9,0.5,1.3c0.1,0.2,0.1,0.2,0.3,0.2c1.8,0,3.7,0,5.5,0
	c0.1,0,0.1,0,0.2,0c-0.1-0.4-0.3-0.8-0.6-1.2c-0.2-0.2-0.5-0.3-0.8-0.3c-1.6,0-3.3,0-4.9,0C13.3,15.9,13.1,15.9,13,15.9z"/>
<path class="st5" d="M27.5,21.9c0,2.1,0,4.2,0,6.3c0,0.5-0.2,0.9-0.6,1.2c-0.2,0.2-0.5,0.2-0.8,0.2c-3,0-6,0-9,0c-1,0-1.9,0-2.9,0
	c-0.8,0-1.4-0.6-1.4-1.4c0-0.1,0-0.3,0-0.4c0-0.3,0.2-0.5,0.5-0.4c0.3,0,0.4,0.2,0.5,0.5c0,0.2,0,0.3,0,0.5c0,0.3,0.1,0.3,0.3,0.3
	c1,0,2,0,3,0c3,0,5.9,0,8.9,0c0.5,0,0.5,0,0.5-0.5c0-4.2,0-8.4,0-12.6c0-0.3-0.1-0.5-0.3-0.7c-0.9-0.9-1.8-1.7-2.6-2.6
	C23.5,12.1,23.3,12,23,12c-2.9,0-5.9,0-8.8,0c-0.4,0-0.4,0-0.4,0.4c0,0.4,0,0.9,0,1.3c0,0.3-0.2,0.5-0.5,0.5c-0.3,0-0.5-0.2-0.5-0.5
	c0-0.4,0-0.9,0-1.3c0-0.8,0.6-1.3,1.3-1.3c0.8,0,1.6,0,2.5,0c2.1,0,4.2,0,6.3,0c0.6,0,1,0.2,1.5,0.6c0.9,0.9,1.7,1.7,2.6,2.6
	c0.3,0.3,0.5,0.8,0.5,1.2C27.5,17.6,27.5,19.8,27.5,21.9C27.5,21.9,27.5,21.9,27.5,21.9z"/>
<path class="st5" d="M24.7,15.9c-0.2,0-0.5,0-0.7,0c-0.7,0-1.3-0.6-1.3-1.3c0-0.5,0-1,0-1.5c0-0.3,0.2-0.5,0.5-0.5
	c0.3,0,0.5,0.2,0.5,0.5c0,0.5,0,1,0,1.5c0,0.4,0,0.4,0.4,0.4c0.5,0,1,0,1.6,0c0.3,0,0.5,0.2,0.5,0.5c0,0.3-0.2,0.5-0.5,0.5
	c-0.1,0-0.2,0-0.3,0s-0.2,0-0.3,0C24.9,15.9,24.8,15.9,24.7,15.9z"/>
<path class="st3" d="M16,21.8c0.5,0,1,0,1.5,0c0.3,0,0.5,0.2,0.5,0.5c0,0.3-0.2,0.5-0.5,0.5c-1,0-2,0-3,0c-0.3,0-0.5-0.2-0.5-0.5
	c0-0.3,0.2-0.5,0.5-0.5C15,21.8,15.5,21.8,16,21.8z"/>
<path class="st3" d="M15.1,19.9c0.5,0,1,0,1.4,0c0.3,0,0.5,0.2,0.5,0.5c0,0.3-0.2,0.5-0.5,0.5c-1,0-2,0-3,0c-0.3,0-0.5-0.2-0.5-0.5
	c0-0.3,0.2-0.5,0.5-0.5C14.1,19.9,14.6,19.9,15.1,19.9C15.1,19.9,15.1,19.9,15.1,19.9z"/>
<path class="st3" d="M16.3,24.8c-0.5,0-1,0-1.4,0c-0.3,0-0.5-0.1-0.5-0.4c-0.1-0.3,0.1-0.6,0.5-0.6c0.3,0,0.7,0,1,0c0.7,0,1.3,0,2,0
	c0.3,0,0.5,0.2,0.5,0.5c0,0.3-0.2,0.4-0.5,0.4c-0.4,0-0.9,0-1.3,0C16.4,24.8,16.3,24.8,16.3,24.8z"/>
</svg>
