<?xml version="1.0" encoding="utf-8"?>
<!-- Generator: Adobe Illustrator 25.0.0, SVG Export Plug-In . SVG Version: 6.00 Build 0)  -->
<svg version="1.1" id="Layer_1" xmlns="http://www.w3.org/2000/svg" xmlns:xlink="http://www.w3.org/1999/xlink" x="0px" y="0px"
	 viewBox="0 0 36 36" style="enable-background:new 0 0 36 36;" xml:space="preserve">
<style type="text/css">
	.st0{fill:#CB1618;}
	.st1{fill:#185ABD;}
	.st2{fill:#D83039;}
	.st3{fill:#103F91;}
	.st4{fill:#185C37;}
	.st5{fill:#33C481;}
	.st6{fill:#107C41;}
	.st7{fill:#21A366;}
	.st8{fill:#0B4A99;}
	.st9{fill:none;}
	.st10{fill:#FFFFFF;}
	.st11{fill:#41A5EE;}
	.st12{fill:#2B7CD3;}
	.st13{opacity:0.5;enable-background:new    ;}
	.st14{fill:url(#SVGID_1_);}
	.st15{fill:url(#SVGID_2_);}
	.st16{fill:url(#SVGID_3_);}
	.st17{fill:url(#SVGID_4_);}
	.st18{fill:#E24951;}
	.st19{fill-rule:evenodd;clip-rule:evenodd;}
	.st20{fill:#262625;}
	.st21{fill:none;stroke:#000000;stroke-width:0.75;stroke-miterlimit:10;}
	.st22{fill:none;stroke:#000000;stroke-width:1.2;stroke-miterlimit:10;}
	.st23{fill-rule:evenodd;clip-rule:evenodd;fill:#0B4A99;}
	.st24{fill:none;stroke:#231F20;}
	.st25{fill:none;stroke:#0071C5;stroke-width:1.3;stroke-linecap:round;stroke-miterlimit:10;}
	.st26{fill:none;stroke:#F0AB00;stroke-width:1.3;stroke-miterlimit:10;}
	.st27{fill:#1C55A6;}
	.st28{fill:none;stroke:#1C55A6;stroke-width:1.3;stroke-linecap:round;}
	.st29{fill-rule:evenodd;clip-rule:evenodd;fill:none;stroke:#1C55A6;stroke-width:1.3;stroke-linecap:round;}
	.st30{fill:none;stroke:#1C55A6;stroke-width:1.3;stroke-linecap:round;stroke-miterlimit:10;}
</style>
<g>
	<g>
		<path class="st8" d="M21.6,28.8c-7.9,0-14.4-6.5-14.4-14.4S13.7,0,21.6,0C29.5,0,36,6.5,36,14.4S29.5,28.8,21.6,28.8z M21.6,1.3
			c-7.2,0-13.1,5.9-13.1,13.1s5.9,13.1,13.1,13.1s13.1-5.9,13.1-13.1S28.8,1.3,21.6,1.3z"/>
	</g>
	<g>
		<path class="st8" d="M0.7,36c-0.2,0-0.3-0.1-0.5-0.2c-0.3-0.3-0.3-0.7,0-1l11-11c0.3-0.3,0.7-0.3,1,0s0.3,0.7,0,1l-11,11
			C1,35.9,0.8,36,0.7,36z"/>
	</g>
</g>
<g>
	<path class="st8" d="M23.1,24.6h-2.6c-0.5,0-1-0.4-1-1v-1.2c-0.6-0.2-1.1-0.3-1.6-0.6l-1,1c-0.4,0.4-1,0.4-1.4,0L13.8,21
		c-0.4-0.4-0.4-1,0-1.4l1-1c-0.3-0.5-0.4-1-0.6-1.4L14.2,17h-1.2c-0.5,0-1-0.4-1-1v-2.6c0-0.5,0.4-1,1-1h1.2
		c0.2-0.6,0.3-1.1,0.6-1.6l-1-1c-0.4-0.4-0.4-1,0-1.4l1.8-1.8c0.4-0.4,1-0.4,1.4,0l1,1c0.4-0.3,0.9-0.4,1.4-0.5l0.2-0.1V5.9
		c0-0.5,0.4-1,1-1h2.6c0.5,0,1,0.4,1,1v1.2c0.6,0.2,1.1,0.3,1.6,0.6l1-1c0.3-0.3,0.5-0.3,0.7-0.3s0.4,0.1,0.7,0.3l1.8,1.8
		c0.4,0.4,0.4,1,0,1.4l-1,1c0.3,0.5,0.4,1,0.6,1.4l0.1,0.2h1.2c0.5,0,0.8,0.2,1,0.5c0.1,0.2,0.1,0.4,0,0.6v2.5c0,0.5-0.4,1-1,1h-1.2
		c-0.2,0.6-0.3,1.1-0.6,1.6l1,1c0.4,0.4,0.4,1,0,1.4L28,22.8c-0.3,0.3-0.5,0.3-0.7,0.3s-0.4-0.1-0.7-0.3l-1-1
		c-0.5,0.3-1,0.4-1.4,0.6l-0.2,0.1v1.2C24.1,24.1,23.6,24.6,23.1,24.6z M20.8,23.3h2v-1.2c0-0.5,0.4-0.9,0.8-0.9l0.2-0.1
		c0.4-0.1,0.9-0.3,1.2-0.5c0.2-0.2,0.5-0.2,0.9-0.1h0.3l0.1,0.2l1,1l1.4-1.4l-1-1c-0.4-0.4-0.4-1,0-1.4c0.2-0.3,0.3-0.7,0.5-1.3
		c0.1-0.5,0.5-0.9,1-0.9h1.2v-2h-1.2c-0.5,0-0.9-0.4-1-0.8l-0.1-0.2c-0.1-0.4-0.3-0.9-0.5-1.2c-0.2-0.2-0.2-0.5-0.1-0.9v-0.3
		l0.2-0.2l1-1l-1.4-1.4l-1,1c-0.3,0.3-0.5,0.3-0.7,0.3h0c-0.2,0-0.4-0.1-0.7-0.3c-0.3-0.2-0.7-0.3-1.3-0.5c-0.5-0.1-0.9-0.5-0.9-1
		V6.2h-2v1.2c0,0.5-0.4,0.9-0.8,0.9l-0.2,0.1c-0.4,0.1-0.8,0.3-1.1,0.5C18.3,9.1,18,9.1,17.6,9h-0.3l-0.1-0.2l-1-1l-1.4,1.4l1,1
		c0.4,0.4,0.4,1,0,1.4c-0.2,0.3-0.3,0.7-0.5,1.3c-0.1,0.5-0.5,0.9-1,0.9h-1.2v2h1.2c0.5,0,0.9,0.4,0.9,0.8l0.1,0.2
		c0.1,0.4,0.3,0.9,0.5,1.2c0.2,0.2,0.2,0.5,0.1,0.9v0.3l-0.2,0.1l-1,1l1.4,1.4l1-1c0.3-0.3,0.5-0.3,0.7-0.3c0.2,0,0.4,0,0.6,0.3
		c0.4,0.3,0.8,0.4,1.4,0.5c0.5,0.1,0.9,0.5,0.9,1V23.3z M28.7,18.7C28.7,18.7,28.7,18.7,28.7,18.7L28.7,18.7
		C28.7,18.7,28.7,18.7,28.7,18.7z M14.9,10.8L14.9,10.8L14.9,10.8L14.9,10.8z M25.7,7.8L25.7,7.8C25.7,7.8,25.7,7.8,25.7,7.8z
		 M21.8,19.8c-2.8,0-5.1-2.3-5.1-5.1s2.3-5.1,5.1-5.1s5.1,2.3,5.1,5.1C26.7,17.6,24.4,19.8,21.8,19.8z M21.8,11
		c-2.1,0-3.8,1.7-3.8,3.8s1.7,3.8,3.8,3.8c2,0,3.7-1.7,3.8-3.8C25.6,12.6,23.9,11,21.8,11z"/>
</g>
</svg>
