<?xml version="1.0" encoding="iso-8859-1"?>
<!-- Generator: Adobe Illustrator 12.0.0, SVG Export Plug-In . SVG Version: 6.00 Build 51448)  -->
<!DOCTYPE svg PUBLIC "-//W3C//DTD SVG 1.1//EN" "http://www.w3.org/Graphics/SVG/1.1/DTD/svg11.dtd" [
	<!ENTITY ns_svg "http://www.w3.org/2000/svg">
	<!ENTITY ns_xlink "http://www.w3.org/1999/xlink">
]>
<svg  version="1.1" id="Layer_1" xmlns="&ns_svg;" xmlns:xlink="&ns_xlink;" width="60.095" height="60.095"
	 viewBox="0 0 60.095 60.095" style="overflow:visible;enable-background:new 0 0 60.095 60.095;" xml:space="preserve">
<g>
	<g>
		<g>
			<path style="fill:#008FD3;" d="M24.517,26.67c1.15-2.749,3.172-5.175,5.953-6.776c2.14-1.238,4.587-1.897,7.061-1.897
				c2.063,0,4.057,0.472,5.875,1.297v-6.581c0-3.861-7.828-6.996-17.476-6.996c-9.667,0-17.485,3.134-17.485,6.996v6.994
				C8.436,23.381,15.517,26.385,24.517,26.67L24.517,26.67z M25.921,7.467c9.604,0,15.736,3.104,15.736,5.246
				c0,2.14-6.132,5.245-15.736,5.245c-9.606,0-15.739-3.104-15.739-5.245C10.183,10.57,16.315,7.467,25.921,7.467L25.921,7.467z
				 M8.436,30.198v-6.995c0,3.547,6.581,6.464,15.109,6.925c-0.335,2.329-0.098,4.745,0.764,7.034
				C15.409,36.836,8.436,33.851,8.436,30.198L8.436,30.198z M36.5,46.257c-2.938,0.885-6.601,1.435-10.579,1.435
				c-9.658,0-17.485-3.134-17.485-7.003v-6.995c0,3.87,7.828,6.995,17.485,6.995c0.107,0,0.216,0,0.333,0
				C28.692,43.91,32.433,45.934,36.5,46.257L36.5,46.257z M48.081,26.082c-3.359-5.808-10.806-7.801-16.61-4.451
				c-5.797,3.35-7.798,10.795-4.448,16.601c3.359,5.806,10.803,7.8,16.608,4.45C49.438,39.332,51.432,31.888,48.081,26.082
				L48.081,26.082z M28.77,37.23c-2.799-4.842-1.128-11.061,3.711-13.86c4.844-2.791,11.063-1.129,13.852,3.712
				c2.8,4.853,1.13,11.06-3.713,13.862C37.776,43.742,31.568,42.073,28.77,37.23L28.77,37.23z M50.715,48.9l-5.236,3.024
				l-4.018-6.974l5.227-3.016L50.715,48.9z M50.145,53.979c-1.444,0.825-3.29,0.334-4.126-1.109l5.235-3.017
				C52.09,51.297,51.588,53.144,50.145,53.979L50.145,53.979z M50.145,53.979"/>
		</g>
		<g>
			<path style="fill:#008FD3;" d="M28.73,30.227l-0.009,0.005l-0.422,0.61l-0.427-0.528l0.597-0.838l0.587-0.307l1.758,3.357
				l-0.69,0.361L28.73,30.227z"/>
			<path style="fill:#008FD3;" d="M32.679,31.62c-0.788,0.414-1.545-0.186-2.047-1.133c-0.511-0.976-0.541-1.935,0.248-2.348
				c0.813-0.425,1.556,0.205,2.037,1.125c0.54,1.033,0.537,1.951-0.233,2.354L32.679,31.62z M32.377,31.021
				c0.276-0.146,0.228-0.606-0.173-1.37c-0.39-0.744-0.741-1.061-1.027-0.911c-0.268,0.14-0.239,0.605,0.158,1.365
				c0.401,0.778,0.766,1.06,1.037,0.917L32.377,31.021z"/>
			<path style="fill:#008FD3;" d="M33.407,27.777l-0.011,0.005l-0.422,0.61l-0.427-0.528l0.597-0.838l0.587-0.308l1.759,3.357
				l-0.69,0.361L33.407,27.777z"/>
			<path style="fill:#008FD3;" d="M37.356,29.171c-0.79,0.413-1.546-0.186-2.048-1.133c-0.511-0.976-0.541-1.935,0.248-2.348
				c0.812-0.426,1.556,0.205,2.036,1.125c0.542,1.033,0.538,1.951-0.232,2.354L37.356,29.171z M37.054,28.572
				c0.277-0.145,0.228-0.606-0.173-1.37c-0.39-0.744-0.741-1.061-1.027-0.911c-0.268,0.14-0.239,0.606,0.158,1.366
				c0.401,0.777,0.765,1.06,1.037,0.917L37.054,28.572z"/>
			<path style="fill:#008FD3;" d="M38.083,25.328l-0.009,0.005l-0.422,0.61l-0.427-0.528l0.597-0.838l0.587-0.307l1.758,3.357
				l-0.69,0.361L38.083,25.328z"/>
			<path style="fill:#008FD3;" d="M40.421,24.103l-0.009,0.005l-0.422,0.61l-0.427-0.528l0.597-0.838l0.587-0.307l1.758,3.357
				l-0.69,0.361L40.421,24.103z"/>
			<path style="fill:#008FD3;" d="M31.005,34.57l-0.01,0.004l-0.422,0.611l-0.426-0.528l0.596-0.839l0.586-0.307l1.759,3.356
				l-0.689,0.362L31.005,34.57z"/>
			<path style="fill:#008FD3;" d="M33.343,33.346l-0.01,0.005l-0.422,0.61l-0.426-0.528l0.596-0.839l0.587-0.307l1.758,3.356
				l-0.689,0.362L33.343,33.346z"/>
			<path style="fill:#008FD3;" d="M37.292,34.739c-0.789,0.413-1.545-0.186-2.047-1.134c-0.512-0.976-0.541-1.934,0.248-2.347
				c0.812-0.426,1.555,0.205,2.036,1.124c0.542,1.032,0.537,1.951-0.232,2.354L37.292,34.739z M36.99,34.14
				c0.277-0.145,0.227-0.605-0.173-1.369c-0.39-0.745-0.741-1.062-1.027-0.911c-0.268,0.141-0.239,0.605,0.158,1.365
				c0.401,0.778,0.765,1.061,1.037,0.918L36.99,34.14z"/>
			<path style="fill:#008FD3;" d="M39.631,33.515c-0.79,0.413-1.546-0.186-2.048-1.134c-0.512-0.976-0.54-1.934,0.248-2.347
				c0.813-0.425,1.556,0.206,2.038,1.125c0.54,1.032,0.536,1.951-0.233,2.354L39.631,33.515z M39.328,32.915
				c0.277-0.145,0.228-0.605-0.173-1.369c-0.39-0.745-0.74-1.061-1.027-0.911c-0.268,0.14-0.239,0.605,0.159,1.365
				c0.401,0.778,0.764,1.061,1.036,0.918L39.328,32.915z"/>
			<path style="fill:#008FD3;" d="M40.357,29.671l-0.009,0.005l-0.422,0.61L39.5,29.758l0.597-0.838l0.587-0.308l1.758,3.357
				l-0.69,0.362L40.357,29.671z"/>
			<path style="fill:#008FD3;" d="M44.307,31.065c-0.788,0.413-1.544-0.186-2.047-1.133c-0.511-0.977-0.541-1.935,0.249-2.348
				c0.812-0.425,1.555,0.206,2.036,1.125c0.54,1.033,0.537,1.95-0.233,2.354L44.307,31.065z M44.006,30.466
				c0.276-0.145,0.227-0.605-0.174-1.37c-0.39-0.744-0.74-1.061-1.027-0.911c-0.268,0.14-0.239,0.605,0.159,1.366
				c0.4,0.777,0.765,1.06,1.037,0.917L44.006,30.466z"/>
			<path style="fill:#008FD3;" d="M33.28,38.914L33.27,38.92l-0.422,0.609l-0.426-0.528l0.596-0.838l0.587-0.308l1.759,3.357
				l-0.69,0.361L33.28,38.914z"/>
			<path style="fill:#008FD3;" d="M37.229,40.309c-0.789,0.412-1.545-0.186-2.047-1.133c-0.512-0.977-0.541-1.936,0.248-2.349
				c0.812-0.425,1.555,0.205,2.036,1.124c0.542,1.034,0.537,1.951-0.232,2.354L37.229,40.309z M36.927,39.709
				c0.277-0.146,0.227-0.605-0.173-1.37c-0.39-0.744-0.741-1.061-1.027-0.911c-0.268,0.142-0.239,0.606,0.158,1.367
				c0.401,0.776,0.765,1.059,1.037,0.916L36.927,39.709z"/>
			<path style="fill:#008FD3;" d="M37.956,36.465l-0.009,0.005l-0.422,0.61l-0.427-0.528l0.597-0.838l0.587-0.308l1.758,3.357
				l-0.69,0.361L37.956,36.465z"/>
			<path style="fill:#008FD3;" d="M41.905,37.859c-0.788,0.412-1.545-0.186-2.047-1.133c-0.512-0.977-0.54-1.936,0.248-2.349
				c0.813-0.426,1.556,0.205,2.037,1.125c0.541,1.033,0.536,1.95-0.233,2.354L41.905,37.859z M41.604,37.259
				c0.277-0.145,0.228-0.605-0.173-1.369c-0.39-0.744-0.74-1.062-1.027-0.911c-0.268,0.141-0.238,0.606,0.159,1.366
				c0.401,0.777,0.765,1.06,1.037,0.917L41.604,37.259z"/>
			<path style="fill:#008FD3;" d="M42.634,34.016l-0.01,0.005l-0.423,0.61l-0.426-0.528l0.596-0.838l0.587-0.308l1.759,3.357
				l-0.69,0.361L42.634,34.016z"/>
			<path style="fill:#008FD3;" d="M44.972,32.791l-0.01,0.005l-0.423,0.61l-0.426-0.528l0.596-0.838l0.587-0.308l1.759,3.357
				l-0.689,0.361L44.972,32.791z"/>
		</g>
	</g>
	<path style="fill:#008FD3;" d="M60.095,52.176c0,4.37-3.771,7.919-8.43,7.919H8.437C3.778,60.095,0,56.546,0,52.176V7.923
		C0,3.55,3.778,0,8.437,0h43.229c4.658,0,8.43,3.55,8.43,7.923V52.176z M57.167,10.079c0-3.947-3.404-7.151-7.608-7.151H10.542
		c-4.204,0-7.614,3.204-7.614,7.151V50.02c0,3.944,3.41,7.147,7.614,7.147h39.017c4.204,0,7.608-3.203,7.608-7.147V10.079z"/>
</g>
</svg>
