<?xml version="1.0" encoding="utf-8"?>
<!-- Generator: Adobe Illustrator 25.0.0, SVG Export Plug-In . SVG Version: 6.00 Build 0)  -->
<svg version="1.1" id="Layer_1" xmlns="http://www.w3.org/2000/svg" xmlns:xlink="http://www.w3.org/1999/xlink" x="0px" y="0px"
	 viewBox="0 0 16 16" style="enable-background:new 0 0 16 16;" xml:space="preserve">
<style type="text/css">
	.st0{fill:#40875E;}
	.st1{fill:#F0AB00;}
	.st2{fill:#A8A240;}
</style>
<g>
	<path class="st0" d="M15.8,7.49h-0.77c-0.09,0-0.17-0.06-0.19-0.15c-0.08-0.28-0.19-0.55-0.33-0.8c-0.05-0.08-0.03-0.18,0.03-0.24
		l0.55-0.55c0.08-0.08,0.08-0.21,0-0.28l-0.95-0.95c-0.08-0.08-0.21-0.08-0.28,0L13.3,5.07c-0.06,0.06-0.16,0.08-0.24,0.03
		c-0.25-0.14-0.52-0.25-0.8-0.33c-0.09-0.02-0.15-0.1-0.15-0.19V3.8c0-0.11-0.09-0.2-0.2-0.2h-1.34c-0.11,0-0.2,0.09-0.2,0.2v0.77
		c0,0.09-0.06,0.17-0.15,0.19C9.93,4.84,9.66,4.96,9.41,5.1C9.33,5.14,9.24,5.13,9.17,5.07L8.62,4.52c-0.08-0.08-0.21-0.08-0.28,0
		L7.39,5.46c-0.08,0.08-0.08,0.21,0,0.28L7.94,6.3c0.06,0.06,0.08,0.16,0.03,0.24c-0.14,0.25-0.25,0.52-0.33,0.8
		c-0.03,0.09-0.1,0.15-0.19,0.15H6.67c-0.11,0-0.2,0.09-0.2,0.2v1.34c0,0.11,0.09,0.2,0.2,0.2h0.77c0.09,0,0.17,0.06,0.19,0.15
		c0.08,0.28,0.19,0.55,0.33,0.8c0.04,0.08,0.03,0.18-0.03,0.24l-0.55,0.55c-0.08,0.08-0.08,0.21,0,0.28l0.95,0.95
		c0.08,0.08,0.21,0.08,0.28,0l0.55-0.55c0.06-0.06,0.16-0.08,0.24-0.03c0.25,0.14,0.52,0.25,0.8,0.33c0.09,0.03,0.15,0.1,0.15,0.19
		v0.77c0,0.11,0.09,0.2,0.2,0.2h1.34c0.11,0,0.2-0.09,0.2-0.2v-0.77c0-0.09,0.06-0.17,0.15-0.19c0.28-0.08,0.55-0.19,0.8-0.33
		c0.08-0.04,0.18-0.03,0.24,0.03l0.55,0.55c0.08,0.08,0.21,0.08,0.28,0l0.95-0.95c0.08-0.08,0.08-0.21,0-0.28l-0.55-0.55
		c-0.07-0.06-0.08-0.16-0.03-0.24c0.14-0.25,0.25-0.52,0.33-0.8c0.02-0.09,0.1-0.15,0.19-0.15h0.77c0.11,0,0.2-0.09,0.2-0.2V7.69
		C16,7.58,15.91,7.49,15.8,7.49 M11.24,10.31c-1.08,0-1.95-0.87-1.95-1.95c0-1.08,0.87-1.95,1.95-1.95c1.08,0,1.95,0.87,1.95,1.95
		C13.18,9.44,12.31,10.31,11.24,10.31"/>
	<path class="st1" d="M7.5,3.98H7.04c-0.05,0-0.1-0.04-0.12-0.09c-0.05-0.17-0.11-0.33-0.2-0.47C6.7,3.37,6.71,3.31,6.75,3.27
		l0.32-0.32c0.05-0.05,0.05-0.12,0-0.17L6.51,2.21c-0.05-0.05-0.12-0.05-0.17,0L6.02,2.54c-0.04,0.04-0.1,0.05-0.15,0.02
		C5.73,2.47,5.57,2.41,5.4,2.36C5.35,2.35,5.31,2.3,5.31,2.24V1.79c0-0.07-0.05-0.12-0.12-0.12H4.4c-0.07,0-0.12,0.05-0.12,0.12
		v0.46c0,0.05-0.04,0.1-0.09,0.12c-0.17,0.05-0.33,0.11-0.47,0.2C3.67,2.58,3.61,2.58,3.57,2.54L3.24,2.21
		c-0.05-0.05-0.12-0.05-0.17,0L2.51,2.77c-0.05,0.05-0.05,0.12,0,0.17l0.33,0.32c0.04,0.04,0.05,0.1,0.02,0.14
		c-0.08,0.15-0.15,0.31-0.2,0.47C2.65,3.94,2.6,3.98,2.55,3.98H2.09c-0.07,0-0.12,0.05-0.12,0.12v0.79c0,0.07,0.05,0.12,0.12,0.12
		h0.46c0.05,0,0.1,0.04,0.12,0.09c0.05,0.17,0.11,0.33,0.2,0.47c0.03,0.05,0.02,0.11-0.02,0.14L2.51,6.04
		c-0.05,0.05-0.05,0.12,0,0.17l0.56,0.56c0.05,0.05,0.12,0.05,0.17,0l0.32-0.32c0.04-0.04,0.1-0.05,0.14-0.02
		c0.15,0.08,0.31,0.15,0.47,0.2c0.05,0.01,0.09,0.06,0.09,0.12V7.2c0,0.07,0.05,0.12,0.12,0.12h0.79c0.07,0,0.12-0.05,0.12-0.12
		V6.74c0-0.05,0.04-0.1,0.09-0.12c0.17-0.05,0.33-0.11,0.47-0.2C5.92,6.4,5.98,6.41,6.02,6.45l0.32,0.32c0.05,0.05,0.12,0.05,0.17,0
		l0.56-0.56c0.05-0.05,0.05-0.12,0-0.17L6.75,5.72C6.71,5.68,6.7,5.62,6.73,5.57c0.08-0.15,0.15-0.31,0.2-0.47
		c0.01-0.05,0.06-0.09,0.12-0.09H7.5c0.07,0,0.12-0.05,0.12-0.12V4.1C7.62,4.03,7.57,3.98,7.5,3.98 M4.79,5.65
		c-0.64,0-1.16-0.52-1.16-1.16c0-0.64,0.52-1.16,1.16-1.16c0.64,0,1.16,0.52,1.16,1.16C5.95,5.13,5.43,5.65,4.79,5.65"/>
	<path class="st2" d="M7.01,9.58L6.43,9.65C6.36,9.66,6.3,9.62,6.27,9.56c-0.09-0.2-0.2-0.4-0.33-0.57C5.9,8.93,5.9,8.86,5.94,8.8
		L6.3,8.34c0.05-0.07,0.04-0.16-0.03-0.21L5.47,7.5C5.4,7.45,5.31,7.46,5.26,7.53L4.9,7.99C4.85,8.05,4.78,8.07,4.72,8.04
		C4.51,7.96,4.3,7.9,4.08,7.87C4.01,7.86,3.96,7.8,3.95,7.74L3.87,7.15C3.86,7.07,3.79,7.01,3.7,7.02L2.69,7.15
		C2.61,7.16,2.55,7.24,2.56,7.32L2.64,7.9c0.01,0.07-0.03,0.13-0.09,0.16c-0.2,0.09-0.4,0.2-0.57,0.33c-0.06,0.04-0.13,0.04-0.19,0
		L1.32,8.03C1.25,7.98,1.16,7.99,1.1,8.06l-0.62,0.8C0.43,8.93,0.44,9.03,0.51,9.08l0.47,0.36c0.06,0.04,0.07,0.12,0.05,0.18
		c-0.08,0.2-0.14,0.41-0.17,0.63c-0.01,0.07-0.06,0.12-0.13,0.13l-0.58,0.07C0.05,10.47-0.01,10.55,0,10.63l0.13,1.01
		c0.01,0.08,0.09,0.14,0.17,0.13l0.58-0.07c0.07-0.01,0.13,0.03,0.16,0.09c0.09,0.2,0.2,0.4,0.33,0.57c0.04,0.06,0.04,0.13,0,0.19
		l-0.36,0.46c-0.05,0.07-0.04,0.16,0.03,0.21l0.8,0.62c0.07,0.05,0.16,0.04,0.21-0.03l0.36-0.46c0.04-0.05,0.12-0.07,0.18-0.05
		c0.2,0.08,0.41,0.14,0.63,0.17c0.07,0.01,0.12,0.06,0.13,0.13l0.07,0.58c0.01,0.08,0.09,0.14,0.17,0.13l1.01-0.13
		c0.08-0.01,0.14-0.09,0.13-0.17l-0.07-0.58c-0.01-0.07,0.03-0.13,0.09-0.16c0.2-0.09,0.4-0.2,0.57-0.33c0.06-0.04,0.13-0.04,0.19,0
		L6,13.32c0.07,0.05,0.16,0.04,0.21-0.03l0.62-0.8c0.05-0.07,0.04-0.16-0.03-0.21l-0.46-0.36c-0.06-0.04-0.07-0.12-0.05-0.18
		c0.08-0.2,0.14-0.41,0.17-0.63c0.01-0.07,0.06-0.12,0.13-0.13l0.58-0.07c0.08-0.01,0.14-0.09,0.13-0.17L7.19,9.71
		C7.17,9.63,7.1,9.57,7.01,9.58 M3.85,12.15c-0.81,0.1-1.55-0.47-1.66-1.28c-0.1-0.81,0.47-1.55,1.28-1.66
		c0.81-0.1,1.55,0.47,1.66,1.28C5.23,11.3,4.66,12.04,3.85,12.15"/>
</g>
</svg>
