<?xml version="1.0" encoding="utf-8"?>
<!-- Generator: Adobe Illustrator 25.0.0, SVG Export Plug-In . SVG Version: 6.00 Build 0)  -->
<svg version="1.1" id="Layer_1" xmlns="http://www.w3.org/2000/svg" xmlns:xlink="http://www.w3.org/1999/xlink" x="0px" y="0px"
	 viewBox="0 0 36 36" style="enable-background:new 0 0 36 36;" xml:space="preserve">
<style type="text/css">
	.st0{fill:#0B4A99;}
	.st1{fill:#40875E;}
	.st2{fill:#F0AB00;}
	.st3{fill:#A8A240;}
</style>
<g>
	<g>
		<path class="st0" d="M20.44,36h-4.88c-0.75,0-1.36-0.61-1.36-1.36v-2.82c0-0.06-0.05-0.09-0.09-0.11
			c-1.06-0.3-2.09-0.73-3.05-1.26c-0.04-0.02-0.1-0.03-0.14,0.01l-1.99,1.99c-0.53,0.53-1.39,0.53-1.93,0L3.54,29
			c-0.53-0.53-0.53-1.39,0-1.93l1.99-1.99c0.04-0.04,0.03-0.1,0.01-0.14c-0.54-0.96-0.96-1.99-1.26-3.05
			c-0.01-0.05-0.05-0.09-0.1-0.09H1.36C0.61,21.8,0,21.19,0,20.44v-4.88c0-0.75,0.61-1.36,1.36-1.36h2.82
			c0.06,0,0.09-0.05,0.11-0.09c0.3-1.06,0.72-2.09,1.26-3.05c0.02-0.04,0.03-0.1-0.01-0.14l-2-2C3.01,8.39,3.01,7.53,3.54,7L7,3.55
			c0.53-0.53,1.39-0.53,1.93,0l1.99,1.99c0.04,0.04,0.1,0.03,0.14,0.01c0.96-0.54,1.99-0.97,3.05-1.27
			c0.04-0.01,0.09-0.05,0.09-0.11V1.36C14.2,0.61,14.81,0,15.56,0h4.88c0.75,0,1.36,0.61,1.36,1.36v2.82c0,0.06,0.05,0.09,0.09,0.11
			c1.06,0.3,2.09,0.73,3.05,1.26c0.04,0.02,0.1,0.03,0.14-0.01l1.99-1.99c0.52-0.52,1.41-0.51,1.93,0L32.45,7
			c0.53,0.53,0.53,1.39,0,1.93l-1.99,1.99c-0.03,0.03-0.04,0.09-0.01,0.14c0.54,0.97,0.97,2,1.27,3.05
			c0.01,0.05,0.05,0.09,0.11,0.09h2.82c0.75,0,1.36,0.61,1.36,1.36v4.88c0,0.75-0.61,1.36-1.36,1.36h-2.82
			c-0.05,0-0.09,0.05-0.1,0.09c-0.3,1.06-0.72,2.08-1.26,3.05c-0.02,0.04-0.03,0.1,0.01,0.14l1.99,1.99c0.53,0.53,0.53,1.4,0,1.93
			L29,32.45c-0.53,0.53-1.39,0.53-1.92,0l-1.99-1.99c-0.04-0.04-0.1-0.03-0.14-0.01c-0.97,0.54-1.99,0.97-3.05,1.27
			c-0.05,0.01-0.09,0.05-0.09,0.1v2.82C21.8,35.39,21.19,36,20.44,36z M10.99,29.18c0.23,0,0.46,0.06,0.68,0.18
			c0.88,0.49,1.81,0.88,2.78,1.15c0.59,0.17,1,0.71,1,1.31v2.82c0,0.06,0.05,0.11,0.11,0.11h4.88c0.06,0,0.11-0.05,0.11-0.11v-2.82
			c0-0.61,0.41-1.15,1-1.31c0.97-0.27,1.9-0.66,2.78-1.15c0.53-0.3,1.21-0.21,1.64,0.22l1.99,1.99c0.04,0.04,0.11,0.04,0.15,0
			l3.45-3.45c0.04-0.04,0.04-0.11,0-0.15l-1.99-1.99c-0.43-0.43-0.52-1.1-0.22-1.64c0.49-0.88,0.88-1.81,1.15-2.77
			c0.17-0.59,0.71-1.01,1.31-1.01h2.82c0.06,0,0.11-0.05,0.11-0.11v-4.88c0-0.06-0.05-0.11-0.11-0.11h-2.82
			c-0.61,0-1.15-0.41-1.31-1.01c-0.27-0.96-0.66-1.9-1.15-2.78c-0.3-0.53-0.21-1.21,0.22-1.64l1.99-1.99c0.04-0.04,0.04-0.11,0-0.15
			l-3.45-3.45c-0.04-0.04-0.12-0.03-0.15,0l-1.99,1.99c-0.43,0.43-1.11,0.52-1.64,0.22c-0.87-0.49-1.81-0.88-2.78-1.15
			c-0.59-0.17-1-0.71-1-1.31V1.36c0-0.06-0.05-0.11-0.11-0.11h-4.88c-0.06,0-0.11,0.05-0.11,0.11v2.82c0,0.61-0.4,1.14-1,1.31
			c-0.97,0.27-1.9,0.66-2.78,1.15c-0.54,0.3-1.21,0.21-1.64-0.22L8.03,4.44c-0.04-0.04-0.11-0.04-0.15,0L4.43,7.88
			c-0.04,0.04-0.04,0.11,0,0.15l2,2c0.43,0.43,0.52,1.11,0.21,1.64c-0.49,0.87-0.88,1.81-1.15,2.77c-0.17,0.6-0.7,1.01-1.31,1.01
			H1.36c-0.06,0-0.11,0.05-0.11,0.11v4.88c0,0.06,0.05,0.11,0.11,0.11h2.82c0.6,0,1.14,0.41,1.31,1.01c0.27,0.97,0.66,1.9,1.15,2.78
			c0.3,0.54,0.22,1.2-0.22,1.64l-1.99,1.99c-0.04,0.04-0.04,0.11,0,0.15l3.45,3.45c0.04,0.04,0.11,0.04,0.15,0l1.99-1.99
			C10.28,29.31,10.63,29.18,10.99,29.18z M18,25.74c-4.27,0-7.74-3.47-7.74-7.74s3.47-7.74,7.74-7.74s7.74,3.47,7.74,7.74
			S22.27,25.74,18,25.74z M18,11.52c-3.57,0-6.48,2.91-6.48,6.48s2.91,6.48,6.48,6.48s6.48-2.91,6.48-6.48S21.57,11.52,18,11.52z"/>
	</g>
</g>
</svg>
