<?xml version="1.0" encoding="utf-8"?>
<!-- Generator: Adobe Illustrator 25.0.0, SVG Export Plug-In . SVG Version: 6.00 Build 0)  -->
<svg version="1.1" id="Layer_1" xmlns="http://www.w3.org/2000/svg" xmlns:xlink="http://www.w3.org/1999/xlink" x="0px" y="0px"
	 viewBox="0 0 36 36" style="enable-background:new 0 0 36 36;" xml:space="preserve">
<style type="text/css">
	.st0{fill:#0B4A99;}
</style>
<g>
	<g>
		<path class="st0" d="M32.03,29.04H11.18L3.75,3.53h-3.2C0.25,3.53,0,3.28,0,2.97s0.25-0.56,0.56-0.56h4.03l7.43,25.51h20.01
			c0.31,0,0.56,0.25,0.56,0.56S32.33,29.04,32.03,29.04z"/>
	</g>
	<g>
		<path class="st0" d="M32.31,25.07H10.42c-0.31,0-0.56-0.25-0.56-0.56s0.25-0.56,0.56-0.56h21.03l3.11-11.93H6.84
			c-0.31,0-0.56-0.25-0.56-0.56c0-0.31,0.25-0.56,0.56-0.56H36L32.31,25.07z"/>
	</g>
	<g>
		<path class="st0" d="M13.43,33.58c-1.55,0-2.81-1.26-2.81-2.81c0-1.55,1.26-2.81,2.81-2.81c1.55,0,2.81,1.26,2.81,2.81
			C16.23,32.32,14.97,33.58,13.43,33.58z M13.43,29.08c-0.94,0-1.7,0.76-1.7,1.7c0,0.94,0.76,1.7,1.7,1.7c0.94,0,1.7-0.76,1.7-1.7
			C15.12,29.84,14.36,29.08,13.43,29.08z"/>
	</g>
	<g>
		<path class="st0" d="M31.81,33.58c-1.55,0-2.81-1.26-2.81-2.81c0-1.55,1.26-2.81,2.81-2.81s2.81,1.26,2.81,2.81
			C34.62,32.32,33.36,33.58,31.81,33.58z M31.81,29.08c-0.94,0-1.7,0.76-1.7,1.7c0,0.94,0.76,1.7,1.7,1.7c0.94,0,1.7-0.76,1.7-1.7
			C33.51,29.84,32.75,29.08,31.81,29.08z"/>
	</g>
</g>
</svg>
