<?xml version="1.0" encoding="utf-8"?>
<!-- Generator: Adobe Illustrator 22.0.1, SVG Export Plug-In . SVG Version: 6.00 Build 0)  -->
<svg version="1.1" id="Layer_1" xmlns="http://www.w3.org/2000/svg" xmlns:xlink="http://www.w3.org/1999/xlink" x="0px" y="0px"
	 viewBox="0 0 30 30" style="enable-background:new 0 0 30 30;" xml:space="preserve">
<style type="text/css">
	.st0{fill:#3F865E;}
	.st1{fill:#A6A03C;}
	.st2{fill:#EEAA1F;}
	.st3{fill:#FF0000;}
</style>
<g>
	<g>
		<g>
			<path class="st0" d="M15.3,24.4c-4.9,0-9.9-3-14.9-8.9L0.1,15l0.3-0.4c4.5-5.8,9.2-8.9,14-9c5-0.1,10.1,2.9,15.2,8.9l0.3,0.4
				l-0.3,0.4c-4.5,5.8-9.2,8.9-14,9C15.5,24.4,15.4,24.4,15.3,24.4z M1.8,15c4.8,5.5,9.4,8.2,13.8,8.1c4.2-0.1,8.5-2.8,12.6-8
				C23.5,9.6,18.8,6.8,14.4,7C10.2,7.1,5.9,9.8,1.8,15z"/>
		</g>
	</g>
	<g>
		<g>
			<path class="st1" d="M15.1,23.7c-4.7,0-8.5-3.8-8.5-8.5s3.8-8.5,8.5-8.5s8.5,3.8,8.5,8.5S19.9,23.7,15.1,23.7z M15.1,7.9
				c-4,0-7.2,3.2-7.2,7.2s3.2,7.2,7.2,7.2s7.2-3.2,7.2-7.2S19.1,7.9,15.1,7.9z"/>
		</g>
	</g>
	<circle class="st2" cx="15" cy="15.3" r="4.4"/>
	<g>
		<path class="st0" d="M13.1,15.3h-0.8c0-1.5,1.2-2.7,2.7-2.7v0.8C14,13.5,13.1,14.3,13.1,15.3z"/>
	</g>
</g>
</svg>
