<?xml version="1.0" encoding="utf-8"?>
<!-- Generator: Adobe Illustrator 25.0.0, SVG Export Plug-In . SVG Version: 6.00 Build 0)  -->
<svg version="1.1" id="Layer_1" xmlns="http://www.w3.org/2000/svg" xmlns:xlink="http://www.w3.org/1999/xlink" x="0px" y="0px"
	 viewBox="0 0 30 30" style="enable-background:new 0 0 30 30;" xml:space="preserve">
<style type="text/css">
	.st0{fill:#0B4A99;}
</style>
<g>
	<path class="st0" d="M14.1,13.9L14.1,13.9L14.1,13.9c3.9,0,7.1-3.1,7.1-7c0-1.9-0.7-3.6-2-4.9c-1.3-1.3-3.1-2-4.9-2
		c-3.7,0-6.9,3.1-7,6.9c0,2,0.7,3.7,2,5S12.3,13.9,14.1,13.9z M8.7,6.9c0-3,2.5-5.4,5.5-5.4c1.4,0,2.9,0.6,4,1.6c1,1,1.6,2.5,1.6,4
		c-0.1,3.1-2.6,5.5-5.6,5.5c-1.5,0-2.8-0.6-3.9-1.6C9.3,9.8,8.7,8.3,8.7,6.9z"/>
	<path class="st0" d="M6.6,17.4C7,17,7.6,16.6,8.4,16.2L8.8,16c0.8-0.4,1.6-0.4,2.5,0c2.2,1.1,4.3,1.1,6.3,0
		c0.6-0.4,1.5-0.5,2.2-0.1c1,0.5,2,1.2,3.1,2.1c0.2,0.2,0.7,0.2,1-0.1c0.2-0.2,0.2-0.7-0.1-1c-0.9-0.8-2.1-1.7-3.5-2.3
		c-1.2-0.5-2.4-0.5-3.5,0.1c-1.7,0.9-3.2,0.9-4.9,0c-1.4-0.6-2.7-0.6-3.8,0.1L7.7,15c-0.2,0.2-0.5,0.3-0.7,0.5
		c-0.4,0.3-0.8,0.5-1.3,0.8c-3.3,2.4-5.1,5.6-5.3,9.4c-0.1,1.6,0.6,2.9,2.1,3.6c0,0,0.1,0,0.1,0.1c0.2,0.1,0.5,0.2,0.8,0.3
		C4.3,30,11.4,30,11.7,30h1.9c0.4,0,0.7-0.4,0.7-0.7c0-0.4-0.4-0.7-0.7-0.7h-1.9c-3.3,0-7.5-0.1-8-0.2l-0.6-0.3
		c-1-0.5-1.4-1.2-1.3-2.3C2,22.4,3.6,19.5,6.6,17.4z"/>
	<path class="st0" d="M29.2,22.3l-2.1-2.1C27,20.1,26.8,20,26.6,20h0c-0.2,0-0.4,0.1-0.5,0.2c-0.1,0.1-0.2,0.3-0.2,0.5
		c0,0.2,0.1,0.4,0.2,0.5l1.3,1.3h-8.9c-2.2,0-3.8,1.6-3.8,3.8c0,2.1,1.7,3.8,3.8,3.8H21c0.4,0,0.7-0.4,0.7-0.7
		c0-0.4-0.3-0.7-0.7-0.7h-2.5c-1.3,0-2.4-1-2.4-2.4c0-1.3,1-2.4,2.4-2.4h9.1l-1.4,1.8C26,25.7,26,25.8,26,26c0,0.2,0.1,0.4,0.2,0.6
		c0.1,0.1,0.4,0.1,0.5,0.1c0.1,0,0.4-0.1,0.5-0.2l2.1-2.6C29.6,23.5,29.6,22.7,29.2,22.3z"/>
</g>
</svg>
