<?xml version="1.0" encoding="iso-8859-1"?>
<!-- Generator: Adobe Illustrator 12.0.0, SVG Export Plug-In . SVG Version: 6.00 Build 51448)  -->
<!DOCTYPE svg PUBLIC "-//W3C//DTD SVG 1.1//EN" "http://www.w3.org/Graphics/SVG/1.1/DTD/svg11.dtd" [
	<!ENTITY ns_svg "http://www.w3.org/2000/svg">
	<!ENTITY ns_xlink "http://www.w3.org/1999/xlink">
]>
<svg  version="1.1" id="Layer_1" xmlns="&ns_svg;" xmlns:xlink="&ns_xlink;" width="49.888" height="49.89"
	 viewBox="0 0 49.888 49.89" style="overflow:visible;enable-background:new 0 0 49.888 49.89;" xml:space="preserve">
<g>
	<path style="fill:#0071C5;" d="M47.607,30.117c0.344-1.594,0.529-3.24,0.529-4.915c0-12.675-10.27-22.938-22.938-22.938
		c-1.336,0-2.646,0.113-3.925,0.333c-2.046-1.292-4.472-2.041-7.077-2.041c-7.345,0-13.3,5.954-13.3,13.297
		c0,2.452,0.666,4.746,1.827,6.731c-0.304,1.478-0.46,3.031-0.46,4.618c0,12.656,10.272,22.935,22.935,22.935
		c1.438,0,2.844-0.146,4.201-0.389c1.877,1.014,4.014,1.586,6.289,1.586c7.352,0,13.303-5.952,13.303-13.311
		C48.992,33.893,48.488,31.894,47.607,30.117 M36.964,36.155c-1.064,1.504-2.629,2.69-4.66,3.532
		c-2.012,0.845-4.426,1.262-7.167,1.262c-3.302,0-6.058-0.581-8.213-1.714c-1.547-0.838-2.813-1.97-3.776-3.354
		c-0.978-1.41-1.467-2.805-1.467-4.142c0-0.851,0.319-1.576,0.952-2.174c0.63-0.592,1.433-0.884,2.393-0.884
		c0.795,0,1.47,0.23,2.023,0.705c0.531,0.446,0.977,1.107,1.348,1.958c0.403,0.938,0.849,1.718,1.315,2.331
		c0.452,0.6,1.098,1.102,1.927,1.5c0.831,0.38,1.946,0.591,3.325,0.591c1.904,0,3.455-0.408,4.627-1.201
		c1.143-0.796,1.695-1.713,1.695-2.864c0-0.914-0.287-1.617-0.885-2.184c-0.629-0.579-1.449-1.039-2.453-1.342
		c-1.039-0.336-2.452-0.674-4.208-1.05c-2.374-0.515-4.397-1.112-6.013-1.796c-1.639-0.695-2.966-1.672-3.933-2.878
		c-0.984-1.241-1.486-2.788-1.486-4.603c0-1.736,0.526-3.303,1.555-4.644c1.031-1.333,2.527-2.377,4.451-3.086
		c1.905-0.701,4.175-1.072,6.731-1.072c2.048,0,3.849,0.235,5.358,0.702c1.51,0.483,2.785,1.108,3.783,1.907
		c1.01,0.779,1.762,1.614,2.23,2.506c0.477,0.873,0.723,1.762,0.723,2.603c0,0.835-0.324,1.574-0.951,2.218
		c-0.625,0.658-1.414,0.996-2.354,0.996c-0.848,0-1.512-0.227-1.967-0.623c-0.438-0.384-0.875-0.977-1.369-1.814
		c-0.576-1.095-1.268-1.958-2.061-2.56c-0.775-0.587-2.059-0.881-3.833-0.881c-1.646,0-2.979,0.321-3.976,0.971
		c-0.956,0.626-1.424,1.365-1.424,2.205c0,0.519,0.154,0.964,0.46,1.327c0.327,0.41,0.79,0.763,1.369,1.042
		c0.605,0.318,1.225,0.554,1.844,0.718c0.639,0.185,1.715,0.441,3.179,0.788c1.854,0.386,3.563,0.837,5.07,1.325
		c1.521,0.493,2.85,1.089,3.916,1.787c1.105,0.711,1.973,1.643,2.586,2.739c0.621,1.101,0.934,2.457,0.934,4.042
		C38.564,32.933,38.035,34.652,36.964,36.155"/>
	<rect style="fill:none;" width="49.888" height="49.89"/>
</g>
</svg>
