<?xml version="1.0" encoding="utf-8"?>
<!-- Generator: Adobe Illustrator 25.0.0, SVG Export Plug-In . SVG Version: 6.00 Build 0)  -->
<svg version="1.1" id="Layer_1" xmlns="http://www.w3.org/2000/svg" xmlns:xlink="http://www.w3.org/1999/xlink" x="0px" y="0px"
	 viewBox="0 0 36 36" style="enable-background:new 0 0 36 36;" xml:space="preserve">
<style type="text/css">
	.st0{fill:#CB1618;}
	.st1{fill:#185ABD;}
	.st2{fill:#D83039;}
	.st3{fill:#103F91;}
	.st4{fill:#185C37;}
	.st5{fill:#33C481;}
	.st6{fill:#107C41;}
	.st7{fill:#21A366;}
	.st8{fill:#0B4A99;}
	.st9{fill:none;}
	.st10{fill:#FFFFFF;}
	.st11{fill:#41A5EE;}
	.st12{fill:#2B7CD3;}
	.st13{opacity:0.5;enable-background:new    ;}
	.st14{fill:url(#SVGID_1_);}
	.st15{fill:url(#SVGID_2_);}
	.st16{fill:url(#SVGID_3_);}
	.st17{fill:url(#SVGID_4_);}
	.st18{fill:#E24951;}
	.st19{fill-rule:evenodd;clip-rule:evenodd;}
	.st20{fill:#262625;}
	.st21{fill:none;stroke:#000000;stroke-width:0.75;stroke-miterlimit:10;}
	.st22{fill:none;stroke:#000000;stroke-width:1.2;stroke-miterlimit:10;}
	.st23{fill-rule:evenodd;clip-rule:evenodd;fill:#0B4A99;}
	.st24{fill:none;stroke:#0071C5;stroke-width:1.3;stroke-linecap:round;stroke-miterlimit:10;}
	.st25{fill:none;stroke:#F0AB00;stroke-width:1.3;stroke-miterlimit:10;}
	.st26{fill:#1C55A6;}
	.st27{fill:none;stroke:#1C55A6;stroke-width:1.3;stroke-linecap:round;}
	.st28{fill-rule:evenodd;clip-rule:evenodd;fill:none;stroke:#1C55A6;stroke-width:1.3;stroke-linecap:round;}
	.st29{fill:none;stroke:#1C55A6;stroke-width:1.3;stroke-linecap:round;stroke-miterlimit:10;}
	.st30{fill:none;stroke:#231F20;}
	.st31{fill:none;stroke:#0B4A99;stroke-width:1.3;stroke-miterlimit:10;}
</style>
<g>
	<g>
		<path class="st8" d="M34.7,4.1H15c-0.3,0-0.6-0.3-0.6-0.6s0.3-0.6,0.6-0.6h19.6c0.3,0,0.6,0.3,0.6,0.6S35,4.1,34.7,4.1z"/>
	</g>
	<g>
		<path class="st8" d="M27.9,9.7H15c-0.3,0-0.6-0.3-0.6-0.6c0-0.3,0.3-0.6,0.6-0.6h12.9c0.3,0,0.6,0.3,0.6,0.6
			C28.6,9.5,28.3,9.7,27.9,9.7z"/>
	</g>
	<g>
		<path class="st8" d="M27.9,21.1H15c-0.3,0-0.6-0.3-0.6-0.6c0-0.3,0.3-0.6,0.6-0.6h12.9c0.3,0,0.6,0.3,0.6,0.6
			C28.6,20.8,28.3,21.1,27.9,21.1z"/>
	</g>
	<g>
		<path class="st8" d="M34.7,15.4H15c-0.3,0-0.6-0.3-0.6-0.6s0.3-0.6,0.6-0.6h19.6c0.3,0,0.6,0.3,0.6,0.6S35,15.4,34.7,15.4z"/>
	</g>
	<g>
		<path class="st8" d="M27.9,32.5H15c-0.3,0-0.6-0.3-0.6-0.6c0-0.3,0.3-0.6,0.6-0.6h12.9c0.3,0,0.6,0.3,0.6,0.6
			C28.6,32.2,28.3,32.5,27.9,32.5z"/>
	</g>
	<g>
		<path class="st8" d="M34.7,26.8H15c-0.3,0-0.6-0.3-0.6-0.6c0-0.3,0.3-0.6,0.6-0.6h19.6c0.3,0,0.6,0.3,0.6,0.6
			C35.3,26.5,35,26.8,34.7,26.8z"/>
	</g>
	<g>
		<path class="st8" d="M6.4,35.1c-0.3,0-0.6-0.3-0.6-0.6V1.2c0-0.3,0.3-0.6,0.6-0.6C6.7,0.6,7,0.9,7,1.2v33.2
			C7,34.8,6.7,35.1,6.4,35.1z"/>
	</g>
	<g>
		<path class="st8" d="M11.3,7c-0.2,0-0.4-0.1-0.5-0.2L6.4,1.5L1.8,6.8C1.6,7,1.2,7.1,0.9,6.8C0.7,6.6,0.6,6.2,0.8,6L6,0l0.4,0
			c0.2,0,0.4,0.1,0.6,0.3L11.8,6C12,6.2,12,6.6,11.7,6.8C11.6,6.9,11.4,7,11.3,7z"/>
	</g>
	<g>
		<path class="st8" d="M6.1,36l-0.3-0.3L0.8,30c-0.2-0.3-0.2-0.7,0.1-0.9c0.3-0.2,0.7-0.2,0.9,0.1l4.6,5.2l4.5-5.2
			c0.2-0.3,0.6-0.3,0.9-0.1c0.3,0.2,0.3,0.6,0.1,0.9l-4.8,5.7C6.8,35.9,6.6,36,6.4,36L6.1,36z M6,34.9C6,34.9,6,34.9,6,34.9L6,34.9z
			"/>
	</g>
</g>
</svg>
