<?xml version="1.0" encoding="utf-8"?>
<!-- Generator: Adobe Illustrator 26.5.1, SVG Export Plug-In . SVG Version: 6.00 Build 0)  -->
<svg version="1.1" id="Layer_1" xmlns="http://www.w3.org/2000/svg" xmlns:xlink="http://www.w3.org/1999/xlink" x="0px" y="0px"
	 viewBox="0 0 36 36" style="enable-background:new 0 0 36 36;" xml:space="preserve">
<style type="text/css">
	.st0{fill:#FFFFFF;}
</style>
<g>
	<g>
		<path class="st0" d="M30.5,27.7h-4.7c-0.3,0-0.6-0.2-0.7-0.5C25,27,25,26.6,25.2,26.4l2.3-3c0.3-0.4,1-0.4,1.3,0l2.3,3
			c0.2,0.3,0.2,0.6,0.1,0.9C31.1,27.5,30.8,27.7,30.5,27.7z M30.3,27.1L30.3,27.1L30.3,27.1z M26.5,26.5h3.3l-1.6-2.1L26.5,26.5z"/>
	</g>
	<g>
		<path class="st0" d="M28.2,33.1c-0.3,0-0.5-0.1-0.7-0.3l-2.3-3c-0.2-0.3-0.2-0.6-0.1-0.9s0.4-0.5,0.7-0.5h4.7
			c0.3,0,0.6,0.2,0.7,0.5s0.1,0.6-0.1,0.9l-2.3,3C28.7,33,28.4,33.1,28.2,33.1z M26.5,29.6l1.6,2.1l1.6-2.1H26.5z"/>
	</g>
	<g>
		<path class="st0" d="M32.5,8.5H0v-7c0-0.8,0.6-1.4,1.4-1.4h29.7c0.7,0,1.4,0.5,1.4,1.4V8.5z M1.1,7.4h30.4v-6
			c0-0.2-0.1-0.4-0.4-0.4H1.4C1.2,1,1,1.1,1,1.4v6H1.1z"/>
	</g>
	<g>
		<rect x="10.5" y="7.6" class="st0" width="1" height="24.2"/>
	</g>
	<g>
		<rect x="21" y="7.6" class="st0" width="1" height="12.6"/>
	</g>
	<g>
		<rect x="0.5" y="15.1" class="st0" width="31.2" height="1"/>
	</g>
	<g>
		<rect x="0.5" y="23.7" class="st0" width="17.3" height="1"/>
	</g>
	<g>
		<rect x="31.5" y="8.3" class="st0" width="1" height="10.1"/>
	</g>
	<g>
		<path class="st0" d="M1.3,31.5c-0.1,0-0.2-0.1-0.2-0.2V8.4H0v22.9c0,0.6,0.5,1.3,1.3,1.3h16v-1.1C17.3,31.5,1.3,31.5,1.3,31.5z"/>
	</g>
	<g>
		<path class="st0" d="M28.1,35.9c-4.4,0-7.9-3.5-7.9-7.9s3.5-7.9,7.9-7.9S36,23.6,36,28S32.5,35.9,28.1,35.9z M28.1,21.3
			c-3.7,0-6.7,3-6.7,6.7s3,6.7,6.7,6.7s6.7-3,6.7-6.7S31.8,21.3,28.1,21.3z"/>
	</g>
</g>
</svg>
