<?xml version="1.0" encoding="utf-8"?>
<!-- Generator: Adobe Illustrator 25.0.0, SVG Export Plug-In . SVG Version: 6.00 Build 0)  -->
<svg version="1.1" id="Layer_1" xmlns="http://www.w3.org/2000/svg" xmlns:xlink="http://www.w3.org/1999/xlink" x="0px" y="0px"
	 viewBox="0 0 100 100" style="enable-background:new 0 0 100 100;" xml:space="preserve">
<style type="text/css">
	.st0{fill-rule:evenodd;clip-rule:evenodd;fill:#40875E;}
	.st1{fill-rule:evenodd;clip-rule:evenodd;fill:#A8A240;}
	.st2{fill:none;}
	.st3{fill:#F0AB00;}
	.st4{fill:#A8A240;}
	.st5{fill:#40875E;}
	.st6{fill-rule:evenodd;clip-rule:evenodd;fill:#F0AB00;}
	.st7{fill-rule:evenodd;clip-rule:evenodd;fill:#0B4A99;}
	.st8{fill:none;stroke:#F0AB00;stroke-miterlimit:10;}
	.st9{fill:#A8A240;stroke:#F0AB00;stroke-width:2;stroke-miterlimit:10;}
	.st10{fill:#F0AB00;stroke:#A8A240;stroke-width:3;stroke-miterlimit:10;}
	.st11{fill:#3E865F;}
	.st12{fill:#EFAA03;}
	.st13{fill:#A6A13E;}
	.st14{fill:#0B4A99;}
	.st15{fill:#F5B026;}
	.st16{fill:#FFCD2E;}
	.st17{fill:#D4D2D2;}
	.st18{fill:#E3E4E3;}
	.st19{fill:#FBD97C;}
	.st20{fill:#57BEC5;}
	.st21{fill:#469BA3;}
	.st22{fill:#CB151A;}
	.st23{fill:url(#SVGID_1_);}
	.st24{fill:url(#SVGID_2_);}
	.st25{fill:url(#SVGID_3_);}
	.st26{fill:#CFCFCE;}
	.st27{fill:#D4D3D3;}
	.st28{fill:#E4E5E3;}
	.st29{fill:#A2BAD0;}
	.st30{fill:#4B708F;}
	.st31{fill:#8AA4BE;}
	.st32{fill:#CCCACA;}
	.st33{opacity:0.59;fill:#3E865F;}
	.st34{opacity:0.6;}
	.st35{fill:#3F5B7A;}
	.st36{opacity:0.2;}
	.st37{fill:#516D8C;}
	.st38{fill-rule:evenodd;clip-rule:evenodd;fill:#CC8E05;}
	.st39{fill:url(#SVGID_4_);}
	.st40{fill:none;stroke:#40875E;stroke-width:2;stroke-miterlimit:10;}
	.st41{fill:url(#SVGID_5_);}
	.st42{fill:url(#SVGID_6_);}
	.st43{fill:url(#SVGID_7_);}
	.st44{opacity:0.44;fill:#40875E;}
</style>
<g>
	<linearGradient id="SVGID_1_" gradientUnits="userSpaceOnUse" x1="24.4586" y1="50.8691" x2="24.4586" y2="40.5635">
		<stop  offset="0" style="stop-color:#F0AB00"/>
		<stop  offset="0.1539" style="stop-color:#CFA71E"/>
		<stop  offset="0.3492" style="stop-color:#A8A240"/>
		<stop  offset="0.4078" style="stop-color:#9C9F43"/>
		<stop  offset="0.6791" style="stop-color:#6B9252"/>
		<stop  offset="0.885" style="stop-color:#4C8A5B"/>
		<stop  offset="1" style="stop-color:#40875E"/>
	</linearGradient>
	<path class="st23" d="M24.51,40.6c-0.02-0.05-0.08-0.05-0.1,0c-0.15,0.37-0.57,1.33-1.14,2.32l-1.6,2.96c0,0-1.15,1.94,0.11,3.65
		c1.23,1.66,2.89,1.33,2.97,1.31c0,0,0,0,0.01,0c0.09-0.01,1.79-0.16,2.53-1.47c0.76-1.35,0.32-2.67,0.32-2.67s-0.33-0.94-1.28-2.55
		C26.32,44.14,24.77,41.39,24.51,40.6z"/>
	<polygon class="st40" points="59.09,16.41 40.32,16.41 30.93,32.67 40.32,48.93 59.09,48.93 68.48,32.67 	"/>
	<polygon class="st40" points="59.09,51.07 40.32,51.07 30.93,67.33 40.32,83.59 59.09,83.59 68.48,67.33 	"/>
	<polygon class="st40" points="89.51,33.94 70.74,33.94 61.35,50.2 70.74,66.46 89.51,66.46 98.9,50.2 	"/>
	<polygon class="st40" points="29.26,33.94 10.49,33.94 1.1,50.2 10.49,66.46 29.26,66.46 38.65,50.2 	"/>
	<g>
		<radialGradient id="SVGID_2_" cx="80.124" cy="50.8691" r="11.6997" gradientUnits="userSpaceOnUse">
			<stop  offset="0" style="stop-color:#40875E"/>
			<stop  offset="0.115" style="stop-color:#4C8A5B"/>
			<stop  offset="0.3209" style="stop-color:#6B9252"/>
			<stop  offset="0.5922" style="stop-color:#9C9F43"/>
			<stop  offset="0.6508" style="stop-color:#A8A240"/>
			<stop  offset="0.8461" style="stop-color:#CFA71E"/>
			<stop  offset="1" style="stop-color:#F0AB00"/>
		</radialGradient>
		<path class="st24" d="M82.37,61.07c-0.52-0.52-1.02-1.01-1.52-1.51c-0.06-0.06-0.15-0.13-0.15-0.2c-0.01-0.49-0.01-0.99-0.01-1.48
			c0.02-0.01,0.05-0.02,0.07-0.03c0.76,0.77,1.53,1.54,2.31,2.32c0.24-0.31,0.46-0.59,0.7-0.91c-0.08-0.07-0.15-0.13-0.22-0.19
			c-0.9-0.9-1.8-1.8-2.7-2.7c-0.06-0.07-0.15-0.15-0.16-0.23c-0.01-0.45-0.01-0.91-0.01-1.38c1.03-0.18,1.87-0.66,2.53-1.46
			c0.35,0.2,0.68,0.4,1.02,0.58c0.17,0.09,0.26,0.21,0.31,0.39c0.32,1.24,0.66,2.47,0.99,3.71c0.04,0.17,0.1,0.24,0.28,0.21
			c0.29-0.05,0.59-0.09,0.9-0.13c-0.29-1.07-0.57-2.13-0.86-3.24c0.29,0.16,0.51,0.33,0.76,0.43c0.49,0.2,0.71,0.54,0.81,1.05
			c0.1,0.54,0.28,1.06,0.43,1.6c0.38-0.05,0.74-0.1,1.12-0.16c-0.12-0.44-0.23-0.86-0.35-1.34c0.68,0.39,1.31,0.75,1.95,1.12
			c0.19-0.34,0.37-0.64,0.56-0.97c-0.65-0.37-1.27-0.74-1.94-1.13c0.48-0.13,0.9-0.25,1.34-0.37c-0.15-0.37-0.29-0.71-0.43-1.04
			c-0.72,0.19-1.41,0.38-2.09,0.56c-0.08,0.02-0.19,0.05-0.25,0.02c-0.43-0.23-0.85-0.48-1.32-0.75c1.11-0.3,2.17-0.58,3.24-0.87
			c-0.15-0.36-0.29-0.7-0.42-1.04c-0.11,0.03-0.19,0.04-0.28,0.07c-1.24,0.33-2.47,0.66-3.71,0.99c-0.11,0.03-0.25,0.03-0.34-0.02
			c-0.33-0.17-0.64-0.37-0.96-0.54c-0.13-0.07-0.14-0.14-0.09-0.28c0.29-0.85,0.29-1.71,0-2.56c-0.05-0.15-0.01-0.22,0.11-0.29
			c0.3-0.16,0.59-0.35,0.89-0.5c0.11-0.06,0.27-0.08,0.39-0.05c0.85,0.21,1.7,0.45,2.54,0.67c0.48,0.13,0.96,0.25,1.45,0.38
			c0.14-0.36,0.28-0.69,0.42-1.05c-1.07-0.29-2.13-0.57-3.24-0.87c0.41-0.24,0.77-0.44,1.13-0.66c0.16-0.1,0.31-0.12,0.49-0.07
			c0.67,0.19,1.35,0.36,2.05,0.55c0.14-0.35,0.28-0.69,0.42-1.05c-0.44-0.12-0.86-0.23-1.34-0.37c0.68-0.39,1.3-0.75,1.95-1.13
			c-0.19-0.34-0.37-0.65-0.56-0.97c-0.65,0.38-1.28,0.74-1.95,1.12c0.12-0.48,0.23-0.9,0.35-1.34c-0.4-0.05-0.75-0.1-1.12-0.15
			c-0.17,0.62-0.35,1.22-0.48,1.83c-0.08,0.35-0.24,0.57-0.56,0.72c-0.31,0.14-0.6,0.33-0.95,0.53c0.3-1.12,0.58-2.17,0.87-3.24
			c-0.39-0.05-0.75-0.1-1.11-0.15c-0.04,0.11-0.07,0.2-0.09,0.29c-0.32,1.21-0.64,2.42-0.97,3.64c-0.03,0.1-0.05,0.23-0.12,0.28
			c-0.39,0.25-0.79,0.47-1.13,0.67c-0.43-0.34-0.79-0.69-1.21-0.93c-0.42-0.24-0.9-0.37-1.38-0.57c0-0.35-0.01-0.74,0.01-1.14
			c0.01-0.14,0.08-0.31,0.17-0.41c0.77-0.79,1.55-1.56,2.33-2.33c0.19-0.18,0.38-0.36,0.58-0.54c-0.26-0.33-0.48-0.62-0.74-0.95
			c-0.79,0.79-1.56,1.56-2.35,2.35c0-0.44,0.01-0.86,0-1.28c-0.01-0.18,0.05-0.31,0.18-0.44c0.5-0.49,1-0.99,1.51-1.5
			c-0.24-0.3-0.46-0.59-0.74-0.95c-0.32,0.34-0.62,0.65-0.95,0.99c0-0.75,0-1.47,0-2.19c-0.38,0-0.74,0-1.13,0c0,0.74,0,1.45,0,2.17
			c-0.03,0.01-0.06,0.03-0.08,0.04c-0.3-0.31-0.59-0.62-0.9-0.93c-0.23,0.29-0.45,0.58-0.68,0.88c0.52,0.52,1.02,1.01,1.52,1.51
			c0.06,0.06,0.15,0.13,0.15,0.2c0.01,0.49,0.01,0.99,0.01,1.48c-0.02,0.01-0.05,0.02-0.07,0.03c-0.76-0.77-1.53-1.54-2.3-2.33
			c-0.24,0.31-0.46,0.59-0.71,0.92c0.09,0.07,0.16,0.12,0.22,0.18c0.9,0.9,1.8,1.8,2.7,2.7c0.07,0.07,0.15,0.17,0.16,0.25
			c0.02,0.45,0.01,0.89,0.01,1.35c-1.03,0.17-1.86,0.66-2.53,1.46c-0.32-0.19-0.63-0.38-0.94-0.54c-0.22-0.11-0.33-0.26-0.4-0.51
			c-0.31-1.22-0.65-2.44-0.97-3.66c-0.04-0.15-0.09-0.21-0.25-0.18c-0.3,0.05-0.61,0.09-0.93,0.13c0.29,1.07,0.57,2.13,0.87,3.24
			c-0.42-0.24-0.77-0.46-1.14-0.65c-0.17-0.09-0.25-0.21-0.3-0.39c-0.17-0.68-0.36-1.35-0.55-2.04c-0.38,0.05-0.73,0.1-1.12,0.15
			c0.11,0.44,0.22,0.86,0.35,1.34c-0.67-0.39-1.3-0.75-1.95-1.12c-0.19,0.33-0.37,0.65-0.56,0.97c0.66,0.38,1.28,0.74,1.95,1.13
			c-0.49,0.13-0.91,0.25-1.34,0.37c0.15,0.36,0.29,0.7,0.43,1.04c0.65-0.18,1.28-0.33,1.9-0.52c0.27-0.08,0.5-0.06,0.74,0.1
			c0.32,0.21,0.65,0.39,1.02,0.6c-1.12,0.3-2.17,0.58-3.24,0.87c0.15,0.37,0.29,0.7,0.43,1.04c0.09-0.02,0.17-0.04,0.24-0.06
			c1.25-0.33,2.49-0.67,3.74-1c0.09-0.02,0.21-0.06,0.28-0.02c0.4,0.21,0.79,0.45,1.19,0.68c-0.35,0.95-0.37,1.88-0.04,2.81
			c0.02,0.05-0.05,0.16-0.1,0.19c-0.31,0.19-0.61,0.38-0.94,0.54c-0.1,0.05-0.25,0.07-0.37,0.04c-0.52-0.12-1.04-0.27-1.55-0.41
			c-0.81-0.22-1.62-0.43-2.45-0.65c-0.14,0.36-0.28,0.69-0.42,1.05c1.08,0.29,2.13,0.57,3.24,0.87c-0.31,0.18-0.58,0.3-0.81,0.47
			c-0.39,0.29-0.77,0.32-1.22,0.16c-0.53-0.19-1.09-0.3-1.65-0.44c-0.15,0.36-0.28,0.69-0.42,1.04c0.44,0.12,0.86,0.24,1.34,0.37
			c-0.68,0.4-1.31,0.76-1.94,1.13c0.2,0.34,0.37,0.65,0.56,0.97c0.65-0.37,1.27-0.73,1.95-1.12c-0.12,0.48-0.23,0.9-0.35,1.34
			c0.39,0.05,0.75,0.1,1.12,0.15c0.19-0.71,0.37-1.39,0.55-2.07c0.02-0.09,0.05-0.21,0.12-0.25c0.41-0.26,0.84-0.49,1.32-0.77
			c-0.3,1.12-0.58,2.17-0.87,3.24c0.32,0.04,0.6,0.08,0.89,0.13c0.19,0.04,0.26-0.03,0.3-0.21c0.32-1.23,0.65-2.46,0.98-3.69
			c0.03-0.11,0.06-0.25,0.14-0.3c0.38-0.24,0.78-0.46,1.18-0.69c0.67,0.81,1.51,1.29,2.53,1.46c0,0.46,0.01,0.91-0.01,1.36
			c0,0.07-0.07,0.16-0.13,0.22c-0.31,0.32-0.63,0.64-0.95,0.95c-0.66,0.66-1.32,1.31-1.99,1.98c0.24,0.31,0.46,0.6,0.71,0.92
			c0.79-0.79,1.55-1.56,2.36-2.37c0,0.48,0.01,0.9-0.01,1.33c-0.01,0.14-0.07,0.31-0.17,0.41c-0.48,0.51-0.99,1-1.5,1.51
			c0.23,0.3,0.46,0.59,0.74,0.94c0.32-0.34,0.61-0.65,0.95-1.02c0,0.79,0,1.5,0,2.23c0.38,0,0.74,0,1.14,0c0-0.73,0-1.45,0-2.17
			c0.03-0.01,0.05-0.02,0.08-0.04c0.3,0.31,0.59,0.62,0.9,0.94C81.91,61.66,82.13,61.38,82.37,61.07z"/>
		<radialGradient id="SVGID_3_" cx="80.124" cy="50.8691" r="11.6997" gradientUnits="userSpaceOnUse">
			<stop  offset="0" style="stop-color:#40875E"/>
			<stop  offset="0.115" style="stop-color:#4C8A5B"/>
			<stop  offset="0.3209" style="stop-color:#6B9252"/>
			<stop  offset="0.5922" style="stop-color:#9C9F43"/>
			<stop  offset="0.6508" style="stop-color:#A8A240"/>
			<stop  offset="0.8461" style="stop-color:#CFA71E"/>
			<stop  offset="1" style="stop-color:#F0AB00"/>
		</radialGradient>
		<path class="st25" d="M82.37,61.07c-0.24,0.31-0.46,0.6-0.69,0.9c-0.31-0.32-0.6-0.63-0.9-0.94c-0.03,0.01-0.05,0.02-0.08,0.04
			c0,0.72,0,1.44,0,2.17c-0.4,0-0.75,0-1.14,0c0-0.73,0-1.44,0-2.23c-0.34,0.36-0.64,0.68-0.95,1.02c-0.28-0.35-0.5-0.64-0.74-0.94
			c0.51-0.51,1.02-1,1.5-1.51c0.1-0.1,0.16-0.27,0.17-0.41c0.02-0.42,0.01-0.85,0.01-1.33c-0.81,0.81-1.57,1.58-2.36,2.37
			c-0.25-0.32-0.47-0.61-0.71-0.92c0.67-0.67,1.33-1.32,1.99-1.98c0.32-0.32,0.64-0.63,0.95-0.95c0.06-0.06,0.12-0.14,0.13-0.22
			c0.01-0.45,0.01-0.89,0.01-1.36c-1.02-0.18-1.86-0.65-2.53-1.46c-0.4,0.23-0.8,0.45-1.18,0.69c-0.08,0.05-0.11,0.19-0.14,0.3
			c-0.33,1.23-0.66,2.46-0.98,3.69c-0.05,0.18-0.11,0.25-0.3,0.21c-0.28-0.05-0.57-0.08-0.89-0.13c0.29-1.07,0.57-2.12,0.87-3.24
			c-0.48,0.28-0.9,0.51-1.32,0.77c-0.07,0.04-0.09,0.16-0.12,0.25c-0.18,0.68-0.36,1.35-0.55,2.07c-0.36-0.05-0.73-0.1-1.12-0.15
			c0.11-0.44,0.22-0.86,0.35-1.34c-0.67,0.39-1.3,0.75-1.95,1.12c-0.19-0.32-0.37-0.63-0.56-0.97c0.64-0.37,1.26-0.73,1.94-1.13
			c-0.48-0.13-0.9-0.25-1.34-0.37c0.14-0.35,0.28-0.68,0.42-1.04c0.55,0.15,1.11,0.26,1.65,0.44c0.45,0.16,0.84,0.14,1.22-0.16
			c0.23-0.17,0.5-0.29,0.81-0.47c-1.11-0.3-2.16-0.58-3.24-0.87c0.14-0.36,0.28-0.69,0.42-1.05c0.83,0.22,1.64,0.44,2.45,0.65
			c0.52,0.14,1.03,0.28,1.55,0.41c0.11,0.03,0.26,0.01,0.37-0.04c0.32-0.16,0.63-0.35,0.94-0.54c0.06-0.03,0.12-0.15,0.1-0.19
			c-0.33-0.93-0.3-1.86,0.04-2.81c-0.4-0.23-0.79-0.47-1.19-0.68c-0.07-0.04-0.19,0-0.28,0.02c-1.25,0.33-2.49,0.67-3.74,1
			c-0.07,0.02-0.15,0.04-0.24,0.06c-0.14-0.34-0.27-0.67-0.43-1.04c1.07-0.29,2.12-0.57,3.24-0.87c-0.37-0.22-0.71-0.39-1.02-0.6
			c-0.24-0.16-0.46-0.18-0.74-0.1c-0.62,0.19-1.25,0.34-1.9,0.52c-0.14-0.34-0.28-0.68-0.43-1.04c0.43-0.12,0.85-0.23,1.34-0.37
			c-0.67-0.39-1.29-0.75-1.95-1.13c0.19-0.33,0.37-0.64,0.56-0.97c0.65,0.37,1.27,0.73,1.95,1.12c-0.12-0.48-0.23-0.9-0.35-1.34
			c0.38-0.05,0.74-0.1,1.12-0.15c0.19,0.69,0.37,1.36,0.55,2.04c0.05,0.18,0.13,0.3,0.3,0.39c0.37,0.2,0.73,0.41,1.14,0.65
			c-0.3-1.11-0.58-2.17-0.87-3.24c0.33-0.04,0.63-0.08,0.93-0.13c0.16-0.03,0.21,0.04,0.25,0.18c0.32,1.22,0.66,2.44,0.97,3.66
			c0.06,0.25,0.18,0.39,0.4,0.51c0.32,0.16,0.62,0.35,0.94,0.54c0.67-0.8,1.5-1.29,2.53-1.46c0-0.46,0.01-0.9-0.01-1.35
			c0-0.09-0.09-0.18-0.16-0.25c-0.9-0.9-1.8-1.81-2.7-2.7c-0.06-0.06-0.14-0.11-0.22-0.18c0.25-0.32,0.47-0.61,0.71-0.92
			c0.78,0.79,1.54,1.56,2.3,2.33c0.02-0.01,0.05-0.02,0.07-0.03c0-0.49,0.01-0.99-0.01-1.48c0-0.07-0.09-0.14-0.15-0.2
			c-0.5-0.5-1-0.99-1.52-1.51c0.23-0.3,0.46-0.59,0.68-0.88c0.31,0.32,0.6,0.63,0.9,0.93c0.03-0.01,0.06-0.03,0.08-0.04
			c0-0.72,0-1.44,0-2.17c0.4,0,0.75,0,1.13,0c0,0.72,0,1.44,0,2.19c0.33-0.34,0.63-0.65,0.95-0.99c0.28,0.36,0.5,0.65,0.74,0.95
			c-0.51,0.51-1,1.01-1.51,1.5c-0.13,0.13-0.18,0.26-0.18,0.44c0.01,0.42,0,0.84,0,1.28c0.79-0.79,1.56-1.56,2.35-2.35
			c0.26,0.34,0.48,0.62,0.74,0.95c-0.2,0.18-0.4,0.36-0.58,0.54c-0.78,0.77-1.56,1.55-2.33,2.33c-0.1,0.1-0.16,0.27-0.17,0.41
			c-0.02,0.39-0.01,0.79-0.01,1.14c0.49,0.19,0.97,0.33,1.38,0.57c0.42,0.24,0.78,0.59,1.21,0.93c0.34-0.2,0.74-0.42,1.13-0.67
			c0.07-0.05,0.1-0.18,0.12-0.28c0.33-1.21,0.65-2.42,0.97-3.64c0.02-0.09,0.06-0.18,0.09-0.29c0.37,0.05,0.72,0.1,1.11,0.15
			c-0.28,1.07-0.57,2.12-0.87,3.24c0.35-0.2,0.64-0.39,0.95-0.53c0.32-0.15,0.48-0.37,0.56-0.72c0.13-0.61,0.32-1.2,0.48-1.83
			c0.37,0.05,0.72,0.1,1.12,0.15c-0.11,0.44-0.22,0.87-0.35,1.34c0.67-0.39,1.29-0.74,1.95-1.12c0.19,0.32,0.37,0.64,0.56,0.97
			c-0.64,0.37-1.27,0.74-1.95,1.13c0.48,0.13,0.9,0.25,1.34,0.37c-0.14,0.36-0.28,0.69-0.42,1.05c-0.7-0.18-1.37-0.36-2.05-0.55
			c-0.19-0.05-0.33-0.03-0.49,0.07c-0.36,0.22-0.72,0.42-1.13,0.66c1.11,0.3,2.16,0.58,3.24,0.87c-0.14,0.36-0.28,0.69-0.42,1.05
			c-0.49-0.13-0.97-0.26-1.45-0.38c-0.85-0.23-1.69-0.46-2.54-0.67c-0.12-0.03-0.28-0.01-0.39,0.05c-0.31,0.15-0.59,0.34-0.89,0.5
			c-0.13,0.07-0.17,0.14-0.11,0.29c0.29,0.85,0.29,1.71,0,2.56c-0.05,0.13-0.04,0.2,0.09,0.28c0.32,0.18,0.63,0.38,0.96,0.54
			c0.09,0.05,0.24,0.05,0.34,0.02c1.24-0.32,2.48-0.66,3.71-0.99c0.08-0.02,0.17-0.04,0.28-0.07c0.14,0.34,0.28,0.68,0.42,1.04
			c-1.08,0.29-2.13,0.57-3.24,0.87c0.47,0.27,0.89,0.52,1.32,0.75c0.06,0.03,0.17,0.01,0.25-0.02c0.69-0.18,1.37-0.37,2.09-0.56
			c0.14,0.34,0.28,0.67,0.43,1.04c-0.43,0.12-0.86,0.24-1.34,0.37c0.67,0.39,1.3,0.75,1.94,1.13c-0.19,0.33-0.37,0.64-0.56,0.97
			c-0.64-0.37-1.27-0.73-1.95-1.12c0.12,0.47,0.23,0.89,0.35,1.34c-0.38,0.05-0.73,0.1-1.12,0.16c-0.15-0.54-0.33-1.07-0.43-1.6
			c-0.09-0.51-0.32-0.86-0.81-1.05c-0.25-0.1-0.47-0.26-0.76-0.43c0.3,1.11,0.58,2.17,0.86,3.24c-0.32,0.05-0.61,0.08-0.9,0.13
			c-0.18,0.03-0.24-0.04-0.28-0.21c-0.32-1.24-0.66-2.47-0.99-3.71c-0.05-0.18-0.14-0.3-0.31-0.39c-0.34-0.18-0.67-0.38-1.02-0.58
			c-0.66,0.8-1.5,1.28-2.53,1.46c0,0.47-0.01,0.92,0.01,1.38c0,0.08,0.09,0.16,0.16,0.23c0.9,0.9,1.8,1.8,2.7,2.7
			c0.06,0.06,0.13,0.12,0.22,0.19c-0.24,0.31-0.46,0.6-0.7,0.91c-0.78-0.79-1.54-1.56-2.31-2.32c-0.02,0.01-0.05,0.02-0.07,0.03
			c0,0.49-0.01,0.99,0.01,1.48c0,0.07,0.09,0.14,0.15,0.2C81.36,60.06,81.86,60.55,82.37,61.07z"/>
	</g>
	<path class="st3" d="M43.1,43.5c1.73-3.35,3.46-6.71,5.23-10.14c-1.19,0-2.3,0-3.47,0c0.12-0.24,0.21-0.41,0.29-0.57
		c1.57-2.98,3.14-5.96,4.71-8.94c0.13-0.25,0.28-0.35,0.57-0.35c1.55,0.01,3.1-0.01,4.65-0.01c0.06,0,0.13,0.01,0.25,0.02
		c-1.53,2.29-3.03,4.53-4.58,6.86c1.51,0,2.95,0,4.38,0c0.02,0.03,0.03,0.07,0.05,0.1c-4.01,4.36-8.01,8.72-12.02,13.08
		C43.13,43.53,43.11,43.51,43.1,43.5z"/>
	<path class="st4" d="M45.42,41.92c0.33-0.35,0.61-0.68,0.93-0.98c0.08-0.07,0.29-0.07,0.41-0.02c1.17,0.43,2.36,0.64,3.61,0.52
		c2.62-0.25,4.63-1.51,6.04-3.71c2.03-3.17,1.48-7.76-1.94-10.35c-0.22-0.17-0.44-0.33-0.69-0.51c0.23-0.34,0.45-0.66,0.65-0.99
		c0.13-0.2,0.25-0.19,0.43-0.06c2.12,1.45,3.51,3.41,4.01,5.94c1.07,5.32-2.5,10.35-7.89,11.12C49.07,43.15,47.22,42.85,45.42,41.92
		z"/>
	<path class="st4" d="M43.81,40.84c-2.56-1.94-4.37-5.95-3-10.14c1.14-3.49,5.06-6.58,8.13-6.34c-0.17,0.33-0.36,0.63-0.49,0.95
		c-0.17,0.45-0.49,0.63-0.94,0.78c-3.12,1-5.04,3.13-5.58,6.35c-0.42,2.49,0.32,4.73,2.07,6.59c0.48,0.51,0.48,0.51,0.16,1.13
		C44.05,40.39,43.93,40.61,43.81,40.84z"/>
	<linearGradient id="SVGID_4_" gradientUnits="userSpaceOnUse" x1="13.6329" y1="51.0707" x2="26.1192" y2="51.0707">
		<stop  offset="0" style="stop-color:#F0AB00"/>
		<stop  offset="0.1539" style="stop-color:#CFA71E"/>
		<stop  offset="0.3492" style="stop-color:#A8A240"/>
		<stop  offset="0.4078" style="stop-color:#9C9F43"/>
		<stop  offset="0.6791" style="stop-color:#6B9252"/>
		<stop  offset="0.885" style="stop-color:#4C8A5B"/>
		<stop  offset="1" style="stop-color:#40875E"/>
	</linearGradient>
	<path class="st39" d="M19.97,41.32c-0.03-0.09-0.15-0.09-0.19-0.01c-0.29,0.7-1.08,2.54-2.17,4.42l-3.06,5.65
		c0,0-2.2,3.71,0.21,6.95c2.35,3.16,5.51,2.53,5.67,2.49c0,0,0.01,0,0.01,0c0.17-0.01,3.42-0.3,4.83-2.81
		c1.44-2.58,0.61-5.09,0.61-5.09s-0.63-1.8-2.45-4.86C23.43,48.07,20.46,42.82,19.97,41.32z"/>
	<path class="st44" d="M19.23,45.46l-2.18,3.92c0,0,0,0,0,0.01c-0.06,0.12-1.9,4.08-1.65,5.36c0,0,0.35,4.28,4.37,4.63
		c0.12,0.01,0.15-0.15,0.05-0.19c-1.1-0.44-3.28-1.61-3.44-4.03c-0.21-3.21,2.89-9.33,2.99-9.52c0,0,0-0.01,0.01-0.01
		c0.01-0.01,0.02-0.03,0.03-0.06C19.47,45.44,19.29,45.35,19.23,45.46z"/>
	<path class="st5" d="M50.95,55.66c0,0,2.69,3.12-0.96,5.45c-3.66,2.33-5.87,4.06-5.83,9.32c0,0-1.54-0.94-1.77-4.13
		c0,0-2.25,8.49,3.72,11.7c2.51,1.35,5.55,1.37,8.05-0.01c1.39-0.76,2.8-2.05,3.59-4.21c0,0,0.98-1.91-0.68-6.33
		c0,0,0.3,2.61-0.6,3.21c0,0-0.6-2.89-2.37-4.02c-1.77-1.13-0.79-5.22-0.79-5.22S53.8,57.65,50.95,55.66z"/>
	<path class="st4" d="M50.66,62.67c0,0,1.88,2.18-0.67,3.81s-4.11,2.84-4.08,6.52c0,0-1.08-0.66-1.24-2.89c0,0-1.57,5.94,2.6,8.18
		c1.76,0.94,3.88,0.96,5.63,0c0.98-0.53,1.96-1.43,2.51-2.95c0,0,0.68-1.34-0.47-4.43c0,0,0.21,1.83-0.42,2.25
		c0,0-0.42-2.02-1.66-2.81c-1.24-0.79-0.55-3.65-0.55-3.65S52.66,64.06,50.66,62.67z"/>
	<path class="st3" d="M49.56,68.12c0,0-1.26,1.45,0.45,2.54s2.74,1.89,2.72,4.34c0,0,0.72-0.44,0.82-1.93c0,0,1.05,3.96-1.73,5.45
		c-1.17,0.63-2.59,0.64-3.75,0c-0.65-0.36-1.3-0.96-1.67-1.96c0,0-0.46-0.89,0.32-2.95c0,0-0.14,1.22,0.28,1.5
		c0,0,0.28-1.35,1.1-1.87s0.37-2.43,0.37-2.43S48.23,69.05,49.56,68.12z"/>
</g>
</svg>
