<?xml version="1.0" encoding="utf-8"?>
<!-- Generator: Adobe Illustrator 25.0.0, SVG Export Plug-In . SVG Version: 6.00 Build 0)  -->
<svg version="1.1" id="Layer_1" xmlns="http://www.w3.org/2000/svg" xmlns:xlink="http://www.w3.org/1999/xlink" x="0px" y="0px"
	 viewBox="0 0 100 100" style="enable-background:new 0 0 100 100;" xml:space="preserve">
<style type="text/css">
	.st0{fill:none;stroke:#000000;stroke-width:2;stroke-miterlimit:10;}
	.st1{fill:#A8A240;}
	.st2{fill:#40875E;}
	.st3{fill:#F0AB00;}
	.st4{fill:none;}
	.st5{fill:#A69F3D;}
</style>
<g>
	<polygon class="st3" points="69.61,34.38 67.05,34.38 67.46,25.98 68.33,25.15 69.2,25.98 	"/>
	<g>
		<path d="M23.34,82.63c-5.57,0-10.48-1.71-14.61-5.11c-6.45-5.3-9.35-12.24-8.62-20.65c0.4-4.66,2.2-8.87,5.33-12.52
			c5.06-5.9,11.68-8.7,19.65-8.34c0.07-0.01,0.3-0.16,0.35-0.26c1.55-2.64,3.1-4.57,4.87-6.06c2.18-1.84,4.65-3.1,7.53-3.85
			l0.31,1.2c-2.7,0.7-5,1.88-7.04,3.6c-1.66,1.4-3.12,3.23-4.6,5.74c-0.26,0.44-0.91,0.89-1.48,0.87
			c-7.67-0.35-13.78,2.24-18.65,7.91c-2.96,3.45-4.65,7.42-5.03,11.82C0.66,64.95,3.4,71.54,9.52,76.56
			c4.28,3.51,9.44,5.12,15.37,4.78l0.07,1.24C24.41,82.62,23.87,82.63,23.34,82.63z"/>
	</g>
	<g>
		<path d="M61.79,83.7l-0.38-1.19c2.27-0.72,4.22-2.01,6.12-4.06c0.58-0.62,1.11-0.76,1.95-0.53l0.43,0.12
			c1.24,0.34,2.52,0.7,3.76,0.73c6.1,0.17,11.17-3.97,12.31-10.02c0.45-2.4,0.16-4.76-0.87-7.02l1.13-0.51
			c1.13,2.5,1.45,5.11,0.96,7.76c-1.25,6.67-6.81,11.2-13.56,11.03c-1.38-0.04-2.74-0.41-4.06-0.78l-0.42-0.12
			c-0.42-0.12-0.47-0.09-0.71,0.18C66.39,81.52,64.27,82.91,61.79,83.7z"/>
	</g>
	<path class="st1" d="M35.37,57.07c-0.45,0.35-1.06,0.82-1.81,1.41c-0.22-0.36-0.46-0.68-0.61-1.04c-0.4-0.94-0.63-1.98-1.17-2.82
		c-0.71-1.09-0.48-1.98,0.17-2.91c0.14-0.2,0.28-0.39,0.61-0.85c-0.44-0.43-0.88-0.86-1.31-1.27c-0.58,0.39-0.92,0.63-1.27,0.87
		c-0.68,0.45-1.34,0.48-2.09,0.11c-1.07-0.53-2.24-0.87-3.28-1.44c-0.49-0.27-0.98-0.81-1.15-1.33c-0.54-1.6-0.48-1.62-2.3-1.38
		c0.2,2.21-1.34,2.88-3.12,3.33c-0.24,0.06-0.47,0.15-0.69,0.25c-2.2,1-2.2,1-4.05-0.22c-1.45,0.88-1.47,0.96-0.65,2.38
		c0.39,0.67,0.52,1.29,0.1,2.08c-0.56,1.05-0.96,2.19-1.37,3.32c-0.33,0.93-1.1,1.18-1.91,1.27C8.68,58.91,8.49,59.28,8.5,60
		c0,0.73,0.28,0.99,0.98,1.07c1.12,0.13,1.81,0.69,2.08,1.9c0.2,0.91,0.66,1.79,1.15,2.61c0.47,0.79,0.37,1.45-0.05,2.17
		c-0.82,1.4-0.79,1.52,0.68,2.39c0.31-0.21,0.62-0.44,0.94-0.66c0.78-0.54,1.54-0.52,2.38-0.04c0.79,0.45,1.63,0.92,2.5,1.1
		c1.21,0.25,1.75,0.92,1.89,2.07c0.04,0.31,0.14,0.61,0.21,0.94c0.61,0,1.17,0,1.71,0c0.07-0.07,0.15-0.11,0.16-0.16
		c0.15-1.69,0.89-2.79,2.73-3.07c0.77-0.11,1.46-0.69,2.19-1.03c1.18-0.55,1.63-0.27,1.64,0.99c0,0.46,0,0.92,0,1.1
		c-1.43,0.48-2.76,0.86-4.01,1.42c-0.27,0.12-0.32,0.88-0.35,1.36c-0.05,0.93-0.45,1.48-1.41,1.49c-1.26,0.01-2.53,0.02-3.79-0.03
		c-0.81-0.03-1.06-0.65-1.06-1.33c-0.01-1.09-0.41-1.8-1.56-1.96c-0.24-0.03-0.49-0.12-0.69-0.25c-0.94-0.63-1.76-0.69-2.6,0.23
		c-0.6,0.65-1.35,0.56-1.98-0.04c-0.79-0.75-1.54-1.55-2.32-2.32c-0.76-0.75-0.72-1.51,0.01-2.21c0.65-0.63,0.82-1.25,0.27-2.03
		c-0.14-0.2-0.23-0.44-0.29-0.68c-0.29-1.23-0.84-2.07-2.31-2.05c-0.36,0-1-0.65-1.04-1.06c-0.14-1.28-0.08-2.59-0.05-3.89
		c0.02-0.81,0.54-1.24,1.32-1.21c1.1,0.05,1.71-0.41,1.89-1.48c0.02-0.14,0.09-0.27,0.16-0.39c0.69-1.15,0.89-2.2-0.26-3.26
		c-0.22-0.2-0.15-1.06,0.1-1.38c0.7-0.92,1.54-1.75,2.36-2.57c0.75-0.75,1.61-0.79,2.33,0c0.7,0.75,1.36,0.75,2.14,0.2
		c0.14-0.1,0.31-0.2,0.48-0.22c1.43-0.19,2.1-0.96,2.13-2.44c0.01-0.34,0.62-0.92,1-0.96c1.22-0.13,2.47-0.08,3.7-0.07
		c0.93,0.01,1.45,0.48,1.44,1.44c-0.01,0.98,0.28,1.7,1.4,1.81c0.24,0.02,0.5,0.11,0.69,0.25c1.09,0.81,1.99,0.67,2.97-0.29
		c0.26-0.26,1.23-0.19,1.58,0.09c0.98,0.79,1.81,1.77,2.69,2.68c0.54,0.56,0.49,1.18-0.04,1.69c-0.83,0.79-0.98,1.55-0.32,2.57
		C34.75,55.22,34.97,56.1,35.37,57.07z"/>
	<path class="st3" d="M22.13,65.52c-3.09-0.03-5.58-2.55-5.55-5.62c0.03-3.07,2.6-5.57,5.65-5.52c3.03,0.05,5.51,2.56,5.51,5.56
		C27.75,62.99,25.18,65.55,22.13,65.52z M18.83,59.85c-0.05,1.86,1.42,3.41,3.26,3.44c1.78,0.04,3.34-1.43,3.41-3.19
		c0.07-1.85-1.39-3.44-3.21-3.5C20.44,56.55,18.88,58.01,18.83,59.85z"/>
	<path class="st1" d="M73.58,14.43c0,2.84-2.3,8.39-5.14,8.39c-2.84,0-5.14-5.55-5.14-8.39c0-2.84,2.3-5.14,5.14-5.14
		C71.28,9.29,73.58,11.59,73.58,14.43"/>
	<path class="st2" d="M64.9,24.04l-5.81,1.74c-1.09,0.32-2,1.06-2.54,2.05c-1.62,2.96-5.02,9.37-5.69,12.24
		c-0.89,3.8,3.49,15.35,3.49,15.35c1.17,0.55,2.53,0.47,3.62-0.22l0.23-0.14v2.13h19.83v-2.13l0.34,0.22
		c1.03,0.65,2.3,0.76,3.43,0.31l0.13-0.05l2.99-11.11c0.38-1.4,0.52-2.87,0.35-4.31c-0.05-0.47-0.14-0.93-0.27-1.33
		c0,0-2.75-7.36-4.86-10.95c-0.54-0.93-1.42-1.6-2.44-1.92l-6.07-1.86c0,0-1.74,10.04-3.58,9.26C66.2,32.52,64.9,24.04,64.9,24.04"
		/>
	<path class="st3" d="M90.13,21.42c0,2.39-1.94,7.05-4.32,7.05c-2.39,0-4.32-4.67-4.32-7.05c0-2.39,1.93-4.32,4.32-4.32
		C88.2,17.09,90.13,19.03,90.13,21.42"/>
	<path class="st1" d="M99.65,46.61l-2.51,9.34L97.03,56c-0.94,0.38-2.02,0.28-2.88-0.26l-0.29-0.19v1.79h-10.9l5.76-18.48
		c0.67-2.18,0.33-4.51-0.87-6.37c0.39-1.62,0.63-3.01,0.63-3.01l5.11,1.56c0.86,0.27,1.6,0.84,2.05,1.62
		c1.76,3.03,4.08,9.2,4.08,9.2c0.1,0.34,0.18,0.73,0.22,1.12C100.08,44.2,99.96,45.43,99.65,46.61"/>
	<path class="st3" d="M45.73,21.42c0,2.39,1.94,7.05,4.32,7.05c2.39,0,4.32-4.67,4.32-7.05c0-2.39-1.93-4.32-4.32-4.32
		C47.67,17.09,45.73,19.03,45.73,21.42"/>
	<path class="st1" d="M36.22,46.61l2.51,9.34L38.84,56c0.94,0.38,2.02,0.28,2.88-0.26l0.29-0.19v1.79h10.9l-5.76-18.48
		c-0.67-2.18-0.33-4.51,0.87-6.37c-0.39-1.62-0.63-3.01-0.63-3.01l-5.11,1.56c-0.86,0.27-1.59,0.84-2.05,1.62
		c-1.76,3.03-4.08,9.2-4.08,9.2c-0.1,0.34-0.18,0.73-0.22,1.12C35.78,44.2,35.91,45.43,36.22,46.61"/>
	<path class="st2" d="M55.27,74.32h-0.55v-4.75c0-4.95-4.03-8.99-8.99-8.99c-4.96,0-8.99,4.03-8.99,8.99v4.75H36.2
		c-0.85,0-1.55,0.7-1.55,1.55v13.29c0,0.85,0.7,1.55,1.55,1.55h19.07c0.85,0,1.55-0.7,1.55-1.55V75.88
		C56.82,75.02,56.12,74.32,55.27,74.32z M46.4,82.85v3.45c0,0.31-0.25,0.56-0.56,0.56h-0.21c-0.31,0-0.56-0.25-0.56-0.56v-3.45
		c-0.61-0.26-1.04-0.86-1.04-1.56c0-0.94,0.76-1.7,1.7-1.7s1.7,0.76,1.7,1.7C47.43,81.99,47.01,82.59,46.4,82.85z M51.7,74.32H39.77
		v-4.75c0-3.29,2.68-5.97,5.97-5.97c3.29,0,5.97,2.68,5.97,5.97V74.32z"/>
	<path class="st3" d="M78,65.56h-1.42c-0.17,0-0.31-0.11-0.36-0.28c-0.15-0.52-0.35-1.01-0.61-1.47c-0.08-0.15-0.06-0.33,0.06-0.45
		l1-1c0.15-0.14,0.15-0.38,0-0.52l-1.74-1.74c-0.14-0.14-0.38-0.14-0.52,0l-1,1c-0.12,0.12-0.3,0.14-0.45,0.06
		c-0.46-0.26-0.95-0.46-1.47-0.61c-0.16-0.05-0.28-0.19-0.28-0.36v-1.42c0-0.2-0.17-0.37-0.37-0.37h-2.46
		c-0.2,0-0.37,0.17-0.37,0.37v1.42c0,0.17-0.11,0.31-0.28,0.36c-0.52,0.15-1.01,0.35-1.47,0.61c-0.15,0.08-0.33,0.06-0.45-0.06
		l-1.01-1c-0.14-0.14-0.38-0.14-0.52,0l-1.74,1.74c-0.14,0.14-0.14,0.38,0,0.52l1.01,1.01c0.12,0.12,0.14,0.3,0.06,0.45
		c-0.26,0.46-0.46,0.95-0.61,1.47c-0.05,0.16-0.19,0.28-0.36,0.28h-1.42c-0.2,0-0.37,0.17-0.37,0.37v2.46c0,0.2,0.17,0.37,0.37,0.37
		h1.42c0.17,0,0.31,0.11,0.36,0.28c0.15,0.52,0.35,1.01,0.61,1.47c0.08,0.15,0.06,0.33-0.06,0.45l-1,1c-0.14,0.14-0.14,0.38,0,0.52
		l1.74,1.74c0.15,0.15,0.38,0.15,0.52,0l1.01-1c0.12-0.12,0.3-0.14,0.45-0.06c0.46,0.26,0.95,0.46,1.47,0.61
		c0.16,0.05,0.28,0.19,0.28,0.36v1.42c0,0.2,0.17,0.37,0.37,0.37h2.46c0.2,0,0.37-0.17,0.37-0.37v-1.42c0-0.17,0.11-0.31,0.28-0.36
		c0.52-0.15,1.01-0.35,1.47-0.61c0.15-0.08,0.33-0.06,0.45,0.06l1,1c0.14,0.15,0.38,0.15,0.52,0l1.74-1.74
		c0.15-0.14,0.15-0.38,0-0.52l-1-1c-0.12-0.12-0.14-0.3-0.06-0.45c0.26-0.46,0.46-0.95,0.61-1.47c0.05-0.16,0.19-0.28,0.36-0.28H78
		c0.21,0,0.37-0.17,0.37-0.37v-2.46C78.37,65.73,78.21,65.56,78,65.56 M69.61,70.74c-1.98,0-3.58-1.6-3.58-3.58
		c0-1.98,1.61-3.58,3.58-3.58c1.98,0,3.58,1.6,3.58,3.58C73.2,69.14,71.59,70.74,69.61,70.74"/>
</g>
</svg>
