<?xml version="1.0" encoding="utf-8"?>
<!-- Generator: Adobe Illustrator 25.0.0, SVG Export Plug-In . SVG Version: 6.00 Build 0)  -->
<svg version="1.1" id="Layer_1" xmlns="http://www.w3.org/2000/svg" xmlns:xlink="http://www.w3.org/1999/xlink" x="0px" y="0px"
	 viewBox="0 0 100 100" style="enable-background:new 0 0 100 100;" xml:space="preserve">
<style type="text/css">
	.st0{fill:none;stroke:#000000;stroke-width:2;stroke-miterlimit:10;}
	.st1{fill:#A8A240;}
	.st2{fill:#40875E;}
	.st3{fill:#F0AB00;}
	.st4{fill:none;}
	.st5{fill:#A69F3D;}
</style>
<line class="st0" x1="48.87" y1="90.21" x2="48.87" y2="62.86"/>
<polyline class="st0" points="14.92,77.11 14.92,68.58 82.96,68.58 82.96,77.95 "/>
<path class="st2" d="M46.91,60.11c-9.32,0-18.65,0-27.97,0c-3.02,0-4.02-1.05-4.02-4.09c0.01-14.42,0.01-28.84,0.01-43.25
	c0-2.97,0.98-3.96,3.96-3.96c5.38,0,10.77,0,16.15,0c2.49,0,2.99,0.35,3.97,2.72c0.62,1.51,1.26,3.01,1.89,4.52
	c0.95,2.28,1.57,2.71,4.01,2.71c10,0,19.99,0,29.99,0c3.19,0,4.14,0.94,4.14,4.1c0,11.1,0,22.2,0,33.31c0,2.86-1.06,3.94-3.88,3.94
	C65.74,60.12,56.32,60.11,46.91,60.11z"/>
<path class="st1" d="M81.66,52.25c0-0.75,0-1.41,0-2.08c0-10.43,0-20.86,0-31.29c0-2.5-0.24-2.73-2.69-2.73
	c-11.2,0-22.39-0.01-33.59,0.03c-1.16,0-1.83-0.27-2.23-1.45c-0.57-1.68-1.3-3.31-2.02-4.93c-1.03-2.33-2.78-3.61-5.38-3.62
	c-3.84,0-7.69,0-11.53,0c-0.47,0-0.94,0-1.38,0C22.05,2.7,23.3,1.1,26.68,1.09c5.38,0,10.76-0.01,16.15,0c2.15,0,2.9,0.51,3.72,2.48
	c0.7,1.68,1.45,3.35,2.1,5.06c0.67,1.76,1.87,2.51,3.75,2.5c10.04-0.03,20.09-0.01,30.13-0.01c3.28,0,4.15,0.88,4.15,4.21
	c0,10.96,0.01,21.91,0,32.87C86.68,51.77,85.48,52.78,81.66,52.25z"/>
<path class="st3" d="M21.75,88.23H8.09c-0.96,0-1.74-0.78-1.74-1.74v-7.76c0-0.96,0.78-1.74,1.74-1.74h13.66
	c0.96,0,1.74,0.78,1.74,1.74v7.76C23.48,87.45,22.71,88.23,21.75,88.23z"/>
<path class="st3" d="M55.7,99.97H42.04c-0.96,0-1.74-0.78-1.74-1.74v-7.76c0-0.96,0.78-1.74,1.74-1.74H55.7
	c0.96,0,1.74,0.78,1.74,1.74v7.76C57.43,99.19,56.65,99.97,55.7,99.97z"/>
<path class="st3" d="M89.79,88.23H76.13c-0.96,0-1.74-0.78-1.74-1.74v-7.76c0-0.96,0.78-1.74,1.74-1.74h13.66
	c0.96,0,1.74,0.78,1.74,1.74v7.76C91.53,87.45,90.75,88.23,89.79,88.23z"/>
</svg>
