<?xml version="1.0" encoding="utf-8"?>
<!-- Generator: Adobe Illustrator 25.0.0, SVG Export Plug-In . SVG Version: 6.00 Build 0)  -->
<svg version="1.1" id="Layer_1" xmlns="http://www.w3.org/2000/svg" xmlns:xlink="http://www.w3.org/1999/xlink" x="0px" y="0px"
	 viewBox="0 0 100 100" style="enable-background:new 0 0 100 100;" xml:space="preserve">
<style type="text/css">
	.st0{fill:#F0AB00;}
	.st1{fill:#008FD3;}
	.st2{fill:#609A7F;}
	.st3{fill:#A8A240;}
	.st4{fill-rule:evenodd;clip-rule:evenodd;fill:#008FD3;}
	.st5{fill-rule:evenodd;clip-rule:evenodd;fill:#F0AB00;}
	.st6{fill-rule:evenodd;clip-rule:evenodd;fill:#609A7F;}
	.st7{fill-rule:evenodd;clip-rule:evenodd;fill:#A8A240;}
	.st8{fill:none;stroke:#000000;}
	.st9{fill:none;}
	.st10{fill:#FFFFFF;}
	.st11{fill:#40875E;}
	.st12{fill:#231F20;}
	.st13{fill-rule:evenodd;clip-rule:evenodd;fill:#40875E;}
	.st14{stroke:#231F20;stroke-width:0.5;stroke-miterlimit:10;}
	.st15{fill-rule:evenodd;clip-rule:evenodd;}
</style>
<g>
	<path class="st0" d="M10.65,2.12v64.46c0,0,1.55,5.69,5.52,5.34c3.96-0.34,7.07-3.91,7.07-3.91V51.58l1.21-22.58
		c0,0,3.65-5.97,8.62-4.14l34.13-0.52V2.12H10.65z"/>
	<path class="st3" d="M35.99,24.87h49.29c0,0,4.14,1.55,4.14,5.69s0,63.25,0,63.25l-3.79,3.45l-7.07-6.55l-7.41,5.52l-1.03,1.03
		l-6.75-6.72l-7.38,6.72l-8.25-6.72l-7.26,6.72l-4.48-3.45v-4.48V24.87z"/>
	<path class="st11" d="M78.25,92.75c-1.89,1.96-3.59,3.74-5.31,5.49c-1.95,1.98-2.51,1.98-4.43,0.06c-1.74-1.74-3.45-3.51-5.3-5.4
		c-1.55,1.52-3,2.95-4.45,4.38c-3.21,3.18-3.22,3.19-6.46-0.06c-1.38-1.39-2.73-2.81-4.27-4.41c-1.85,1.88-3.56,3.62-5.28,5.36
		c-2.04,2.07-2.45,1.86-4.69,0.03c-2.75-2.24-3.32-4.89-3.29-8.29c0.15-19.25,0.07-38.51,0.06-57.76c0-0.2,0-0.4-0.01-0.6
		c-0.14-3-2.05-4.98-4.77-4.94c-2.63,0.03-4.58,2.01-4.65,4.92c-0.08,3.37-0.04,6.74-0.04,10.1c0,7.54,0.05,15.08-0.04,22.62
		c-0.02,1.71-0.51,3.42-0.82,5.41c0.71,0,1.68-0.03,2.65,0.01c1.44,0.05,2.29,0.76,2.29,1.85c0,1.11-0.84,1.83-2.29,1.84
		c-3.37,0.02-6.74,0.08-10.1-0.01c-4.8-0.13-8.23-3.28-8.4-8.11c-0.22-6.23-0.12-12.46-0.13-18.7C8.52,32.27,8.53,18,8.54,3.72
		c0-3.08,0.4-3.48,3.48-3.48c17.8-0.01,35.59-0.01,53.39-0.02c3.15,0,3.51,0.37,3.52,3.59c0.01,5.68,0.01,11.36,0.02,17.04
		c0,2,0,2,2.08,2c3.72,0,7.44-0.02,11.16,0.01c5.88,0.04,9.28,3.4,9.29,9.29c0.03,20.31,0,40.62,0.02,60.93
		c0,1.24-0.33,2.25-1.29,3.06c-0.5,0.42-0.92,0.93-1.38,1.39c-2.98,2.99-3,3-5.92,0.04C81.4,96.04,79.91,94.47,78.25,92.75z
		 M38.02,26.7c0.21,2.75,0.57,5.27,0.58,7.78c0.05,19,0.05,38.01-0.01,57.01c0,1.63,0.58,2.64,2,3.45c1.79-1.8,3.55-3.58,5.33-5.36
		c1.71-1.71,2.45-1.72,4.14-0.02c1.81,1.81,3.58,3.64,5.53,5.62c1.91-1.95,3.66-3.76,5.43-5.53c1.75-1.76,2.51-1.74,4.26,0
		c1.77,1.77,3.54,3.53,5.45,5.45c1.89-1.93,3.66-3.77,5.47-5.58c1.63-1.63,2.41-1.62,4.04,0.01c1.81,1.81,3.6,3.63,5.39,5.44
		c1.44-0.88,2.02-1.91,2.02-3.53c-0.06-19.61-0.04-39.21-0.04-58.82c0-4.32-1.59-5.91-5.91-5.91c-14.18,0-28.35,0-42.53,0
		C38.68,26.7,38.18,26.7,38.02,26.7z M12.28,3.98c0,0.73,0,1.22,0,1.71c0,14.37,0,28.75,0,43.12c0,5.38-0.03,10.76,0.03,16.13
		c0.03,2.54,1.83,4.44,4.24,4.68c2.26,0.23,4.4-1.25,4.97-3.52c0.18-0.72,0.17-1.49,0.17-2.24c0.01-10.5-0.01-21.01,0-31.51
		c0-6.07,3.33-9.44,9.42-9.46c10.85-0.03,21.71-0.02,32.56,0.01c1.11,0,1.61-0.21,1.59-1.48c-0.07-5.23-0.08-10.45-0.01-15.68
		c0.02-1.38-0.38-1.77-1.77-1.77C49.19,4.02,34.92,3.99,20.65,3.98C17.94,3.98,15.24,3.98,12.28,3.98z"/>
	<path d="M81.92,40.55h-36.8c-0.9,0-1.63-0.73-1.63-1.63s0.73-1.63,1.63-1.63h36.8c0.9,0,1.63,0.73,1.63,1.63
		S82.82,40.55,81.92,40.55z"/>
	<path d="M81.92,59.39h-36.8c-0.9,0-1.63-0.73-1.63-1.63s0.73-1.63,1.63-1.63h36.8c0.9,0,1.63,0.73,1.63,1.63
		S82.82,59.39,81.92,59.39z"/>
	<path d="M72.99,50.28H45.12c-0.9,0-1.63-0.73-1.63-1.63s0.73-1.63,1.63-1.63h27.87c0.9,0,1.63,0.73,1.63,1.63
		S73.9,50.28,72.99,50.28z"/>
	<path d="M51.21,69.67h-6.09c-0.9,0-1.63-0.73-1.63-1.63s0.73-1.63,1.63-1.63h6.09c0.9,0,1.63,0.73,1.63,1.63
		S52.12,69.67,51.21,69.67z"/>
	<path d="M51.21,78.66h-6.09c-0.9,0-1.63-0.73-1.63-1.63c0-0.9,0.73-1.63,1.63-1.63h6.09c0.9,0,1.63,0.73,1.63,1.63
		C52.85,77.93,52.12,78.66,51.21,78.66z"/>
	<path d="M81.92,69.67H56.01c-0.9,0-1.63-0.73-1.63-1.63s0.73-1.63,1.63-1.63h25.91c0.9,0,1.63,0.73,1.63,1.63
		S82.82,69.67,81.92,69.67z"/>
	<path d="M72.99,78.66H56.01c-0.9,0-1.63-0.73-1.63-1.63c0-0.9,0.73-1.63,1.63-1.63h16.98c0.9,0,1.63,0.73,1.63,1.63
		C74.63,77.93,73.9,78.66,72.99,78.66z"/>
</g>
</svg>
