<?xml version="1.0" encoding="utf-8"?>
<!-- Generator: Adobe Illustrator 25.0.0, SVG Export Plug-In . SVG Version: 6.00 Build 0)  -->
<svg version="1.1" id="Layer_1" xmlns="http://www.w3.org/2000/svg" xmlns:xlink="http://www.w3.org/1999/xlink" x="0px" y="0px"
	 viewBox="0 0 100 100" style="enable-background:new 0 0 100 100;" xml:space="preserve">
<style type="text/css">
	.st0{fill-rule:evenodd;clip-rule:evenodd;fill:#40875E;}
	.st1{fill:none;stroke:#000201;stroke-miterlimit:10;}
	.st2{fill:#F0AB00;}
	.st3{fill:none;stroke:#000000;stroke-width:2;stroke-miterlimit:10;}
	.st4{fill:#A8A240;}
	.st5{fill:#40875E;}
	.st6{fill:none;}
	.st7{fill:#A69F3D;}
	.st8{fill:none;stroke:#000000;stroke-width:1.5;stroke-miterlimit:10;}
	.st9{fill-rule:evenodd;clip-rule:evenodd;}
	.st10{fill-rule:evenodd;clip-rule:evenodd;fill:#A8A240;}
	.st11{fill-rule:evenodd;clip-rule:evenodd;fill:#F0AB00;}
	.st12{fill:#231F20;}
</style>
<path class="st5" d="M38.22,34.49h-1.14c-0.14,0-0.25-0.09-0.29-0.22c-0.12-0.42-0.28-0.81-0.49-1.18
	c-0.07-0.12-0.05-0.27,0.05-0.36l0.81-0.81c0.12-0.12,0.12-0.31,0-0.42l-1.4-1.4c-0.12-0.12-0.3-0.12-0.42,0l-0.81,0.81
	c-0.1,0.1-0.24,0.11-0.36,0.05c-0.37-0.21-0.77-0.37-1.18-0.49c-0.13-0.04-0.22-0.15-0.22-0.29v-1.14c0-0.16-0.13-0.3-0.3-0.3h-1.98
	c-0.16,0-0.3,0.13-0.3,0.3v1.14c0,0.14-0.09,0.25-0.22,0.29c-0.42,0.12-0.81,0.28-1.18,0.49c-0.12,0.07-0.27,0.05-0.36-0.05
	l-0.81-0.81c-0.12-0.12-0.3-0.12-0.42,0l-1.4,1.4c-0.12,0.12-0.12,0.3,0,0.42l0.81,0.81c0.1,0.1,0.11,0.24,0.05,0.36
	c-0.21,0.37-0.37,0.77-0.49,1.18c-0.04,0.13-0.15,0.22-0.29,0.22h-1.14c-0.16,0-0.3,0.13-0.3,0.3v1.98c0,0.16,0.13,0.3,0.3,0.3h1.14
	c0.14,0,0.25,0.09,0.29,0.22c0.12,0.42,0.28,0.81,0.49,1.18c0.07,0.12,0.05,0.27-0.05,0.36l-0.81,0.81c-0.12,0.12-0.12,0.3,0,0.42
	l1.4,1.4c0.12,0.12,0.31,0.12,0.42,0l0.81-0.81c0.1-0.1,0.24-0.11,0.36-0.05c0.37,0.21,0.77,0.37,1.18,0.49
	c0.13,0.04,0.22,0.15,0.22,0.29v1.14c0,0.16,0.13,0.3,0.3,0.3h1.98c0.16,0,0.3-0.13,0.3-0.3v-1.14c0-0.14,0.09-0.25,0.22-0.29
	c0.42-0.12,0.81-0.28,1.18-0.49c0.12-0.07,0.27-0.05,0.36,0.05l0.81,0.81c0.12,0.12,0.31,0.12,0.42,0l1.4-1.4
	c0.12-0.12,0.12-0.3,0-0.42l-0.81-0.81c-0.1-0.1-0.11-0.24-0.05-0.36c0.21-0.37,0.37-0.76,0.49-1.18c0.04-0.13,0.15-0.22,0.29-0.22
	h1.14c0.17,0,0.3-0.13,0.3-0.3v-1.98C38.52,34.62,38.39,34.49,38.22,34.49 M31.47,38.66c-1.59,0-2.88-1.29-2.88-2.88
	c0-1.59,1.29-2.88,2.88-2.88c1.59,0,2.88,1.29,2.88,2.88C34.36,37.37,33.07,38.66,31.47,38.66"/>
<path class="st4" d="M2.01,25.79l3.77-2.85c1.13-0.85,2.75-0.64,3.62,0.48l13.21,17.04c0.29,0.37,0.22,0.91-0.16,1.19l-6.5,4.91
	c-0.38,0.28-0.92,0.21-1.21-0.16L1.54,29.36C0.67,28.24,0.88,26.64,2.01,25.79"/>
<path class="st2" d="M1.52,30.72c0.58-1.37,1.6-2.44,2.99-3.26l-0.07-2.2l2.3,0.61c0.62-1.03,1.8-1.73,3.74-2
	c0,0-3.82-3.59-7.65-0.71C-0.99,26.03,1.52,30.72,1.52,30.72"/>
<path class="st2" d="M15.02,46.7l7.38-5.65c0.47-0.36,1.21-0.11,1.49,0.51l1.13,2.45c0.2,0.43,0.11,0.91-0.22,1.16l-6.45,4.93
	c-0.33,0.25-0.81,0.22-1.17-0.09l-2.07-1.73C14.6,47.84,14.55,47.06,15.02,46.7"/>
<line class="st4" x1="21.56" y1="41.71" x2="8.69" y2="24.89"/>
<line class="st4" x1="20.13" y1="42.8" x2="7.27" y2="25.98"/>
<line class="st4" x1="18.71" y1="43.89" x2="5.84" y2="27.07"/>
<line class="st4" x1="17.28" y1="44.98" x2="4.42" y2="28.16"/>
<line class="st4" x1="15.86" y1="46.07" x2="2.99" y2="29.25"/>
<path class="st3" d="M51.35,60.08c-12.17,0-24.35,0.01-36.52-0.02c-1.4,0-3.3,0.57-3.3-1.92c0-2.49,1.91-1.91,3.3-1.91
	c24.35-0.03,48.7-0.03,73.05,0c1.39,0,3.3-0.59,3.3,1.91c0,2.49-1.9,1.91-3.3,1.92C75.7,60.1,63.53,60.08,51.35,60.08z"/>
<path class="st4" d="M65.28,13.89c-1.12,2.32-2.22,4.12-2.89,6.08c-1.21,3.52,0.21,5.7,4.47,7.79c3.24,1.59,5.05,0.04,6.5-2.61
	c1.06-1.94,2.1-3.89,3.16-5.86c2.64,2.63,3.17,8.08,1.18,11.56c-2.75,4.81-7.68,7.24-12.25,6.05c-5.8-1.51-9.18-5.77-9.23-11.62
	C56.16,19.71,59.37,15.49,65.28,13.89z"/>
<path class="st2" d="M50.96,54.43c2.41-6.69,4.63-12.85,6.78-18.83c3.47,1.44,6.63,2.75,10.17,4.22c-1.59,4.4-3.2,8.96-4.92,13.49
	c-0.19,0.5-1.01,1.06-1.55,1.08C58.1,54.48,54.77,54.43,50.96,54.43z"/>
<path class="st2" d="M76.63,52.55c1.45-1.93,2.61-3.47,3.77-5.01c-0.31-0.27-0.62-0.54-0.93-0.82c-1.27,1.36-2.49,2.77-3.82,4.07
	c-1.34,1.31-2.78,2.51-4.17,3.76c-0.21-0.22-0.42-0.44-0.64-0.66c2.4-2.81,4.79-5.61,7.19-8.42c-0.36-0.32-0.73-0.65-1.09-0.97
	c-2.13,2.32-4.27,4.63-6.4,6.95c-0.26-0.18-0.52-0.36-0.79-0.54c0.91-1.34,1.78-2.71,2.75-4.01c0.96-1.29,2.01-2.51,3.02-3.76
	c-0.26-0.25-0.52-0.49-0.78-0.74c-1.32,1.16-2.64,2.32-4.07,3.57c0.28-3.09,3.02-6.67,4.69-5.77c2.82,1.51,5.34,3.91,7.37,6.43
	C83.72,47.84,79.77,51.73,76.63,52.55z"/>
<path class="st4" d="M99.29,23.3c-1.74,2.75-3.33,5.26-5.22,8.24c-1.74-1.49-3.35-2.87-5.25-4.51c2.57-2.19,4.88-4.16,7.34-6.26
	C97.2,21.61,98.09,22.33,99.29,23.3z"/>
<path class="st4" d="M89.07,29.32c0.96,0.87,1.64,1.49,2.5,2.27c-2.96,3.26-5.79,6.4-8.65,9.5c-1.76,1.91-2.41-0.02-3.65-1.02
	C82.55,36.48,85.67,33.06,89.07,29.32z"/>
<polygon class="st2" points="22.46,45.67 19.84,47.67 25.01,54.37 29.23,54.56 "/>
<path class="st5" d="M78.91,91.68h-55.9c-3.68,0-6.67-2.99-6.67-6.67V62.82h69.24v22.19C85.58,88.7,82.59,91.68,78.91,91.68z"/>
<path class="st2" d="M47.87,53.92h1.59c0.23,0,0.41-0.19,0.41-0.41v-2.75c0-0.23-0.19-0.41-0.41-0.41h-1.59
	c-0.19,0-0.35-0.13-0.4-0.31c-0.16-0.58-0.39-1.13-0.68-1.64c-0.09-0.16-0.07-0.37,0.06-0.5l1.12-1.12c0.16-0.16,0.16-0.42,0-0.58
	l-1.94-1.94c-0.16-0.16-0.42-0.16-0.58,0l-1.12,1.12c-0.13,0.13-0.34,0.16-0.5,0.06c-0.51-0.29-1.06-0.52-1.64-0.68
	c-0.18-0.05-0.31-0.21-0.31-0.4v-1.59c0-0.23-0.19-0.41-0.41-0.41h-2.74c-0.23,0-0.41,0.19-0.41,0.41v1.59
	c0,0.19-0.13,0.35-0.31,0.4c-0.58,0.16-1.13,0.39-1.64,0.68c-0.16,0.09-0.37,0.07-0.5-0.06l-1.12-1.12c-0.16-0.16-0.42-0.16-0.58,0
	l-1.94,1.94c-0.16,0.16-0.16,0.42,0,0.58l1.12,1.12c0.13,0.13,0.16,0.34,0.06,0.5c-0.29,0.51-0.52,1.06-0.68,1.64
	c-0.05,0.18-0.21,0.31-0.4,0.31h-1.59c-0.23,0-0.41,0.19-0.41,0.41v2.75c0,0.23,0.19,0.41,0.41,0.41h1.59c0.19,0,0.35,0.13,0.4,0.31
	c0,0.01,0.01,0.02,0.01,0.03h3.99c-0.39-0.62-0.62-1.34-0.62-2.13c0-2.21,1.79-4,4-4c2.21,0,4,1.79,4,4c0,0.78-0.23,1.51-0.62,2.13
	h3.99c0-0.01,0.01-0.02,0.01-0.03C47.53,54.05,47.69,53.92,47.87,53.92z"/>
<polygon class="st4" points="50.52,39.87 50.23,40.52 48.76,39.88 49.69,39.52 "/>
<path class="st4" d="M49.86,41.19l0.27,0.72l1.96-0.71c0,0,0.55-0.31,0.57-1.16l-0.62-1.02l-0.65,0.23l0.41,0.8
	c0,0,0.25,0.38-0.25,0.58L49.86,41.19z"/>
<path class="st4" d="M49.79,31.06c0.27-0.11,0.58,0.03,0.7,0.31l2.54,6.17c0.12,0.28-0.01,0.6-0.28,0.71l-6.11,2.52
	c-0.27,0.11-0.58-0.03-0.7-0.31l-2.54-6.17c-0.12-0.28,0.01-0.6,0.28-0.71L49.79,31.06z"/>
<path class="st4" d="M49.79,27.46c0.38-0.16,0.72-0.2,0.77-0.09l0.95,2.32c0.04,0.11-0.23,0.32-0.61,0.47l-8.62,3.55
	c-0.38,0.15-0.72,0.2-0.76,0.09l-0.95-2.32c-0.04-0.11,0.23-0.32,0.6-0.47L49.79,27.46z"/>
<path class="st4" d="M40.59,27.13c0.28-0.12,0.58-0.06,0.66,0.14l0.99,2.3c0.08,0.19-0.08,0.45-0.36,0.57l-3.1,1.33
	c-0.28,0.12-0.58,0.06-0.66-0.13l-0.98-2.3c-0.08-0.2,0.08-0.45,0.36-0.57L40.59,27.13z"/>
<path class="st4" d="M45.48,25.09c0.28-0.12,0.58-0.06,0.66,0.14l0.99,2.3c0.08,0.2-0.08,0.45-0.36,0.57l-3.1,1.33
	c-0.28,0.12-0.58,0.06-0.66-0.14L42.02,27c-0.08-0.19,0.08-0.45,0.36-0.57L45.48,25.09z"/>
<path class="st4" d="M50.5,23.12c0.28-0.12,0.58-0.06,0.66,0.13l0.99,2.3c0.08,0.19-0.08,0.45-0.36,0.57l-3.1,1.33
	c-0.28,0.12-0.58,0.06-0.66-0.14l-0.98-2.3c-0.09-0.2,0.08-0.45,0.36-0.57L50.5,23.12z"/>
<path class="st4" d="M48.77,21.79c0.27-0.11,0.59,0.07,0.73,0.4l0.06,0.15c0.14,0.33,0.03,0.69-0.24,0.8L38.3,27.6
	c-0.27,0.11-0.59-0.07-0.73-0.4l-0.06-0.15c-0.13-0.33-0.03-0.69,0.24-0.79L48.77,21.79z"/>
<path class="st4" d="M39.89,8.42c0.11-0.05,0.25,0.03,0.31,0.17l0.03,0.06c0.06,0.14,0.01,0.29-0.1,0.34l-4.69,1.9
	c-0.11,0.05-0.25-0.03-0.31-0.17l-0.03-0.07c-0.06-0.14-0.01-0.29,0.1-0.34L39.89,8.42z"/>
<path class="st4" d="M37.79,8.64c0.02,0.05-0.12,0.16-0.33,0.24l-0.09,0.04c-0.2,0.08-0.38,0.11-0.41,0.05l-0.88-2.15
	c-0.02-0.05,0.13-0.16,0.33-0.24l0.09-0.04c0.2-0.08,0.38-0.11,0.4-0.06L37.79,8.64z"/>
<polygon class="st2" points="42.53,23.69 39.14,25.03 39.5,23.26 38.29,22.26 38.75,20.26 37.62,19.22 38.01,17.54 36.89,16.64 
	37.24,14.73 36.07,13.95 36.23,12.17 35.55,11.53 37.94,10.3 38.16,10.22 40.74,9.49 40.67,10.43 42.01,11.62 41.69,12.99 
	43.24,14.15 43.03,15.57 44.46,16.53 44.35,18.06 46.04,19.21 45.84,20.77 47.31,21.82 43.91,23.16 "/>
</svg>
