<?xml version="1.0" encoding="utf-8"?>
<!-- Generator: Adobe Illustrator 25.0.0, SVG Export Plug-In . SVG Version: 6.00 Build 0)  -->
<svg version="1.1" id="Layer_1" xmlns="http://www.w3.org/2000/svg" xmlns:xlink="http://www.w3.org/1999/xlink" x="0px" y="0px"
	 viewBox="0 0 100 100" style="enable-background:new 0 0 100 100;" xml:space="preserve">
<style type="text/css">
	.st0{fill:none;stroke:#000000;stroke-width:2;stroke-miterlimit:10;}
	.st1{fill:#A8A240;}
	.st2{fill:#40875E;}
	.st3{fill:#F0AB00;}
	.st4{fill:none;}
	.st5{fill:#A69F3D;}
</style>
<path class="st1" d="M2.74,22.95l4.15-3.43c1.25-1.03,3.1-0.87,4.15,0.36l15.9,18.75c0.35,0.41,0.29,1.02-0.12,1.36l-7.16,5.92
	c-0.41,0.34-1.03,0.29-1.38-0.12L2.37,27.04C1.33,25.81,1.5,23.98,2.74,22.95"/>
<path class="st3" d="M2.42,28.59c0.59-1.59,1.7-2.87,3.25-3.86l-0.19-2.51l2.65,0.58c0.65-1.21,1.97-2.06,4.16-2.47
	c0,0-4.53-3.9-8.75-0.43C-0.68,23.37,2.42,28.59,2.42,28.59"/>
<path class="st3" d="M18.61,46.13l8.13-6.81c0.52-0.43,1.37-0.19,1.73,0.5l1.41,2.74c0.25,0.48,0.17,1.03-0.19,1.33l-7.1,5.94
	c-0.36,0.3-0.91,0.29-1.34-0.04l-2.44-1.87C18.19,47.45,18.09,46.56,18.61,46.13"/>
<line class="st1" x1="25.81" y1="40.11" x2="10.31" y2="21.59"/>
<line class="st1" x1="24.24" y1="41.42" x2="8.74" y2="22.9"/>
<line class="st1" x1="22.67" y1="42.74" x2="7.17" y2="24.22"/>
<line class="st1" x1="21.1" y1="44.05" x2="5.6" y2="25.53"/>
<line class="st1" x1="19.53" y1="45.36" x2="4.03" y2="26.84"/>
<path class="st0" d="M48.93,61.11c-13.89,0-27.78,0.02-41.66-0.02c-1.6,0-3.77,0.65-3.77-2.19c0-2.84,2.18-2.18,3.77-2.18
	c27.78-0.03,55.55-0.03,83.33,0c1.59,0,3.77-0.67,3.77,2.18c0,2.84-2.17,2.18-3.77,2.19C76.71,61.13,62.82,61.11,48.93,61.11z"/>
<path class="st1" d="M53.31,7.6c-1.28,2.64-2.53,4.7-3.3,6.93c-1.38,4.02,0.24,6.51,5.1,8.89c3.7,1.81,5.76,0.05,7.41-2.98
	c1.21-2.22,2.4-4.44,3.61-6.69c3.01,3,3.61,9.22,1.34,13.18c-3.14,5.48-8.76,8.26-13.97,6.9c-6.62-1.73-10.47-6.58-10.53-13.26
	C42.91,14.25,46.57,9.43,53.31,7.6z"/>
<path class="st3" d="M36.98,53.85c2.75-7.63,5.28-14.66,7.74-21.48c3.96,1.64,7.56,3.14,11.6,4.81c-1.81,5.01-3.65,10.22-5.61,15.39
	c-0.22,0.57-1.15,1.21-1.77,1.23C45.13,53.9,41.32,53.85,36.98,53.85z"/>
<path class="st3" d="M62.44,53.7c2.39-1.84,4.3-3.3,6.21-4.77c-0.28-0.43-0.57-0.86-0.85-1.3c-1.98,1.21-3.92,2.5-5.95,3.62
	c-2.05,1.13-4.18,2.09-6.28,3.13c-0.18-0.34-0.36-0.67-0.54-1.01c3.82-2.57,7.65-5.15,11.47-7.72c-0.33-0.51-0.66-1.02-0.99-1.53
	c-3.34,2.07-6.69,4.15-10.03,6.22c-0.25-0.31-0.51-0.61-0.76-0.92c1.55-1.31,3.05-2.67,4.65-3.91c1.58-1.23,3.26-2.35,4.89-3.52
	c-0.23-0.38-0.46-0.77-0.7-1.15c-1.98,0.95-3.96,1.91-6.09,2.94c1.37-3.62,5.86-7.02,7.58-5.38c2.89,2.76,5.11,6.49,6.71,10.21
	C72.55,50.41,66.5,53.77,62.44,53.7z"/>
<path class="st1" d="M99.5,26.1c-3.02,2.73-5.77,5.22-9.03,8.17c-1.59-2.38-3.06-4.58-4.81-7.18c3.83-1.78,7.26-3.37,10.93-5.07
	C97.55,23.36,98.38,24.52,99.5,26.1z"/>
<path class="st1" d="M85.18,29.92c0.86,1.37,1.47,2.35,2.25,3.57c-4.66,2.93-9.1,5.77-13.59,8.54c-2.76,1.71-2.89-0.83-4.05-2.45
	C74.94,36.35,79.84,33.28,85.18,29.92z"/>
<polygon class="st3" points="27.04,44.58 24.15,47 30.37,54.37 35.2,54.37 "/>
<path class="st2" d="M81.31,97.16H15.66c-3.68,0-6.67-2.99-6.67-6.67V64.23h78.99v26.26C87.98,94.17,84.99,97.16,81.31,97.16z"/>
</svg>
