<?xml version="1.0" encoding="utf-8"?>
<!-- Generator: Adobe Illustrator 25.0.0, SVG Export Plug-In . SVG Version: 6.00 Build 0)  -->
<svg version="1.1" id="Layer_1" xmlns="http://www.w3.org/2000/svg" xmlns:xlink="http://www.w3.org/1999/xlink" x="0px" y="0px"
	 viewBox="0 0 100 100" style="enable-background:new 0 0 100 100;" xml:space="preserve">
<style type="text/css">
	.st0{fill:none;stroke:#000000;stroke-width:2;stroke-miterlimit:10;}
	.st1{fill:#A8A240;}
	.st2{fill:#40875E;}
	.st3{fill:#F0AB00;}
	.st4{fill:none;}
	.st5{fill:#A69F3D;}
</style>
<path class="st3" d="M12.67,92.72c-0.57-0.91-1.03-1.84-1.38-2.79c-0.35-0.95-0.6-1.95-0.76-2.99c-0.3-1.95-0.24-3.89,0.2-5.83
	c0.43-1.94,1.26-3.77,2.49-5.48c1.23-1.71,2.69-3.07,4.37-4.08c1.68-1.01,3.47-1.66,5.37-1.95c1.76-0.28,3.52-0.23,5.29,0.14
	l33.31-47.17c-0.86-1.58-1.43-3.23-1.7-4.97c-0.3-1.95-0.24-3.91,0.19-5.89c0.43-1.97,1.26-3.82,2.49-5.53
	c1.21-1.68,2.66-3.03,4.36-4.04c1.69-1.01,3.48-1.66,5.36-1.95c1.99-0.31,4-0.22,6.02,0.27l-4.92,6.9c-1.78,2.5-1.24,5.97,1.22,7.81
	c2.54,1.9,6.15,1.34,8-1.25l4.76-6.69c0.57,0.91,1.03,1.84,1.38,2.81c0.35,0.97,0.61,1.97,0.77,3.01c0.3,1.95,0.24,3.89-0.2,5.82
	c-0.44,1.93-1.27,3.74-2.51,5.42c-1.23,1.71-2.69,3.07-4.38,4.08c-1.69,1.01-3.5,1.67-5.43,1.96c-1.92,0.3-3.86,0.22-5.8-0.24
	L38.15,76.88c0.49,0.85,0.9,1.75,1.23,2.69c0.34,0.94,0.58,1.9,0.73,2.87c0.3,1.94,0.24,3.9-0.2,5.85c-0.43,1.95-1.27,3.77-2.5,5.46
	c-1.23,1.71-2.7,3.08-4.4,4.1c-1.7,1.02-3.51,1.68-5.4,1.98c-1.95,0.3-3.91,0.21-5.88-0.3l5.53-7.79c1.44-2.03,1-4.84-0.99-6.33
	l-1.7-1.27c-2.06-1.54-4.98-1.09-6.47,1L12.67,92.72z"/>
<path class="st5" d="M96.39,48.51l-2.21-12.73c-0.18-1.06-1.19-1.76-2.25-1.58l-7.35,1.27c-0.87,0.15-1.71-0.31-2.1-1.11
	c-0.37-0.78-0.78-1.53-1.21-2.28L68.8,49.63c0.17,8.25-5.12,15.7-12.99,18.25L43.34,85.42c0.95,0.18,1.9,0.33,2.87,0.43
	c0.88,0.09,1.6,0.73,1.75,1.6l1.27,7.35c0.18,1.06,1.19,1.77,2.25,1.58l12.72-2.2c1.06-0.18,1.77-1.19,1.58-2.25l-1.27-7.35
	c-0.15-0.87,0.31-1.71,1.11-2.1c2.55-1.22,4.91-2.72,7.06-4.47c0.69-0.56,1.65-0.62,2.38-0.11l6.09,4.3
	c0.88,0.62,2.09,0.41,2.71-0.47l7.44-10.55c0.62-0.88,0.41-2.09-0.47-2.71l-6.09-4.3c-0.73-0.51-1-1.44-0.7-2.27
	c0.92-2.61,1.54-5.33,1.84-8.14c0.09-0.88,0.73-1.6,1.6-1.75l7.35-1.27C95.87,50.58,96.58,49.57,96.39,48.51z"/>
<path class="st2" d="M44.06,32.15l12.51-17.6c-0.92-0.17-1.85-0.32-2.79-0.42c-0.88-0.09-1.6-0.73-1.75-1.6l-1.27-7.35
	c-0.18-1.06-1.19-1.77-2.25-1.58l-12.72,2.2C34.73,5.99,34.02,7,34.2,8.06l1.27,7.35c0.15,0.87-0.31,1.71-1.11,2.1
	c-2.54,1.22-4.91,2.73-7.05,4.47c-0.69,0.56-1.65,0.61-2.37,0.11l-6.09-4.3c-0.88-0.62-2.09-0.41-2.71,0.47L8.7,28.79
	c-0.62,0.88-0.41,2.09,0.47,2.71l6.11,4.3c0.72,0.51,0.99,1.44,0.7,2.27c-0.92,2.61-1.54,5.33-1.83,8.14
	c-0.09,0.88-0.73,1.6-1.6,1.75l-7.35,1.27c-1.06,0.18-1.77,1.19-1.58,2.24l2.21,12.73c0.18,1.06,1.19,1.76,2.25,1.58l7.35-1.27
	c0.87-0.15,1.71,0.31,2.1,1.11c0.36,0.76,0.76,1.5,1.18,2.23l12.51-17.6C31.07,42.09,36.29,34.73,44.06,32.15z"/>
<path class="st0" d="M36.79,51.83c-1.21-7.29,3.71-14.19,11.01-15.4"/>
<path class="st0" d="M63.2,47.43c1.21,7.29-3.71,14.19-11.01,15.4"/>
</svg>
