<?xml version="1.0" encoding="iso-8859-1"?>
<!-- Generator: Adobe Illustrator 12.0.0, SVG Export Plug-In . SVG Version: 6.00 Build 51448)  -->
<!DOCTYPE svg PUBLIC "-//W3C//DTD SVG 1.1//EN" "http://www.w3.org/Graphics/SVG/1.1/DTD/svg11.dtd" [
	<!ENTITY ns_svg "http://www.w3.org/2000/svg">
	<!ENTITY ns_xlink "http://www.w3.org/1999/xlink">
]>
<svg  version="1.1" id="Layer_1" xmlns="&ns_svg;" xmlns:xlink="&ns_xlink;" width="255.32" height="249.197"
	 viewBox="0 0 255.32 249.197" style="overflow:visible;enable-background:new 0 0 255.32 249.197;" xml:space="preserve">
<path style="fill:#00AFF0;" d="M242.003,142.478l-0.055,0.563c-3.254,31.659-20.253,53.849-20.253,53.849
	c-18.083,25.75-40.426,36.822-40.426,36.822c-20.524,10.85-41.075,14.012-41.075,14.012c-10.306,1.691-20.085,1.811-29.083,0.951
	l-0.483-0.054C48.209,240.663,0,188.274,0,124.833C0,55.89,56.935,0,127.167,0c54.914,0,101.701,34.17,119.495,82.034
	c0,0,6.949,16.397,8.324,36.647c0,0,0.75,9.75,0,13.875c0,0-1.761,9.42-12.938,9.607L242.003,142.478z M239.822,141.888
	c-10.042-2.25-11.857-10.131-11.917-12.582c-0.041-1.709-0.375-16.417-0.375-16.417s-0.03-1.057-0.084-1.583
	c-0.805-8.033-4.305-18.521-4.305-18.521c-15.101-42.24-54.802-72.396-101.398-72.396c-59.597,0-107.909,49.323-107.909,110.167
	c0,45.389,26.886,84.364,65.283,101.238c0,0,35.246,17.262,76.121,6.762c0,0,24.358-5.916,46.509-25.113
	c0,0,14.366-11.387,24.241-28.637c0,0,6.708-11.084,12-29.375c0,0,1.423-4.043,2.673-13.375L239.822,141.888z"/>
</svg>
