<?xml version="1.0" encoding="iso-8859-1"?>
<!-- Generator: Adobe Illustrator 12.0.0, SVG Export Plug-In . SVG Version: 6.00 Build 51448)  -->
<!DOCTYPE svg PUBLIC "-//W3C//DTD SVG 1.1//EN" "http://www.w3.org/Graphics/SVG/1.1/DTD/svg11.dtd" [
	<!ENTITY ns_svg "http://www.w3.org/2000/svg">
	<!ENTITY ns_xlink "http://www.w3.org/1999/xlink">
]>
<svg  version="1.1" id="Layer_1" xmlns="&ns_svg;" xmlns:xlink="&ns_xlink;" width="255.321" height="249.197"
	 viewBox="0 0 255.321 249.197" style="overflow:visible;enable-background:new 0 0 255.321 249.197;" xml:space="preserve">
<path style="fill:#0071C5;" d="M242.003,142.477l-0.055,0.563c-3.253,31.659-20.252,53.848-20.252,53.848
	c-18.083,25.75-40.426,36.823-40.426,36.823c-20.525,10.849-41.075,14.01-41.075,14.01c-10.306,1.693-20.085,1.811-29.083,0.953
	l-0.484-0.054C48.209,240.663,0,188.274,0,124.833C0,55.89,56.935,0,127.167,0c54.914,0,101.701,34.17,119.495,82.034
	c0,0,6.95,16.397,8.325,36.647c0,0,0.75,9.75,0,13.875c0,0-1.761,9.419-12.937,9.607L242.003,142.477z M239.822,141.888
	c-10.042-2.25-11.858-10.131-11.917-12.583c-0.041-1.708-0.375-16.417-0.375-16.417s-0.031-1.057-0.084-1.583
	c-0.805-8.033-4.305-18.521-4.305-18.521c-15.1-42.24-54.801-72.396-101.399-72.396c-59.596,0-107.909,49.323-107.909,110.167
	c0,45.389,26.885,84.365,65.283,101.239c0,0,35.247,17.261,76.122,6.761c0,0,24.358-5.915,46.508-25.112
	c0,0,14.367-11.388,24.242-28.638c0,0,6.708-11.083,12-29.375c0,0,1.422-4.042,2.672-13.375L239.822,141.888z"/>
</svg>
