<?xml version="1.0" encoding="iso-8859-1"?>
<!-- Generator: Adobe Illustrator 12.0.0, SVG Export Plug-In . SVG Version: 6.00 Build 51448)  -->
<!DOCTYPE svg PUBLIC "-//W3C//DTD SVG 1.1//EN" "http://www.w3.org/Graphics/SVG/1.1/DTD/svg11.dtd" [
	<!ENTITY ns_svg "http://www.w3.org/2000/svg">
	<!ENTITY ns_xlink "http://www.w3.org/1999/xlink">
]>
<svg  version="1.1" id="Layer_1" xmlns="&ns_svg;" xmlns:xlink="&ns_xlink;" width="49.888" height="49.89"
	 viewBox="0 0 49.888 49.89" style="overflow:visible;enable-background:new 0 0 49.888 49.89;" xml:space="preserve">
<g>
	<g>
		<path style="fill:#0071C5;" d="M42.468,40.754c-3.396-5.647-11.082-3.936-13.117-8.595c-0.32-2.201,5.848-4.746,5.594-16.189
			c-0.131-5.821-4.855-10.258-10-10.069c-5.144-0.188-9.871,4.248-10,10.069c-0.256,11.443,5.913,13.988,5.593,16.189
			c-2.035,4.659-9.721,2.947-13.117,8.595c-1.817,2.067-1.445,5.441-0.858,8.516h36.763C43.914,46.195,44.287,42.821,42.468,40.754"
			/>
		<path style="fill:#0071C5;" d="M13.681,21.77l-0.372-6.148c0,0-0.501-0.142-1.191-0.212c0.071-1.714,0.552-5.789,3.362-8.75
			c2.202-2.321,5.421-3.498,9.57-3.498c4.062,0,7.218,1.165,9.384,3.462c3.701,3.923,3.391,9.952,3.387,10.01l-0.004,0.071
			l0.004,0.07c0.004,0.08,0.332,8.067-4.893,12.523c-0.531,0.454-0.596,1.256-0.143,1.79c0.252,0.295,0.609,0.445,0.967,0.445
			c0.293,0,0.586-0.099,0.826-0.303c5.949-5.074,5.814-13.586,5.781-14.51c0.039-0.797,0.203-7.286-4.061-11.821
			C33.632,2.06,29.847,0.62,25.049,0.62c-4.873,0-8.712,1.443-11.413,4.291C9.995,8.749,9.591,13.94,9.564,15.727
			c-0.979,0.462-1.696,1.468-1.425,3.526C8.139,19.253,8.139,23.446,13.681,21.77"/>
	</g>
	<rect style="fill:none;" width="49.888" height="49.89"/>
</g>
</svg>
