<?xml version="1.0" encoding="utf-8"?>
<!-- Generator: Adobe Illustrator 22.0.1, SVG Export Plug-In . SVG Version: 6.00 Build 0)  -->
<svg version="1.1" id="Layer_1" xmlns="http://www.w3.org/2000/svg" xmlns:xlink="http://www.w3.org/1999/xlink" x="0px" y="0px"
	 viewBox="0 0 16 16" style="enable-background:new 0 0 16 16;" xml:space="preserve">
<style type="text/css">
	.st0{fill:#2DD54F;}
	.st1{fill:#FF0303;}
	.st2{fill:#0396FF;}
	.st3{fill:#FFB103;}
</style>
<g>
	<path class="st0" d="M8,16c-4.4,0-8-3.6-8-8s3.6-8,8-8s8,3.6,8,8S12.4,16,8,16z M8,0.7C4,0.7,0.7,4,0.7,8S4,15.3,8,15.3
		S15.3,12,15.3,8S12,0.7,8,0.7z"/>
</g>
<g>
	<path class="st0" d="M11.4,4c-0.2,0-0.4,0-0.7,0.1c-0.3,0.1-0.5,0.1-0.7,0.2C9.9,4.3,9.7,4.5,9.4,4.8c-0.3,0.3-0.6,0.7-1,1.3
		C8,6.6,7.7,7.2,7.4,7.7c-0.3,0.5-0.5,1-0.8,1.5C6.4,9,6.2,8.8,6,8.7C5.7,8.5,5.5,8.4,5.3,8.4C5,8.4,4.8,8.5,4.5,8.7
		C4.2,8.9,4.1,9.2,4.1,9.4c0,0.2,0.1,0.4,0.4,0.7c0.4,0.4,0.7,0.8,0.9,1.1c0.2,0.2,0.3,0.4,0.3,0.5c0.1,0.1,0.2,0.1,0.3,0.2
		C6.1,12,6.2,12,6.5,12c0.4,0,0.6,0,0.8-0.1c0.1-0.1,0.3-0.2,0.3-0.3c0.1-0.1,0.2-0.4,0.4-0.8c0.4-1,1-2.1,1.6-3.1
		c0.7-1.1,1.3-1.9,2-2.5c0.2-0.1,0.2-0.2,0.3-0.3c0.1-0.1,0.1-0.2,0.1-0.3c0-0.1,0-0.3-0.1-0.4C11.7,4.1,11.6,4,11.4,4z"/>
</g>
</svg>
