<?xml version="1.0" encoding="utf-8"?>
<!-- Generator: Adobe Illustrator 25.0.0, SVG Export Plug-In . SVG Version: 6.00 Build 0)  -->
<svg version="1.1" id="Layer_1" xmlns="http://www.w3.org/2000/svg" xmlns:xlink="http://www.w3.org/1999/xlink" x="0px" y="0px"
	 viewBox="0 0 100 100" style="enable-background:new 0 0 100 100;" xml:space="preserve">
<style type="text/css">
	.st0{fill-rule:evenodd;clip-rule:evenodd;fill:#40875E;}
	.st1{fill:none;stroke:#000201;stroke-miterlimit:10;}
	.st2{fill:#F0AB00;}
	.st3{fill:none;stroke:#000000;stroke-width:2;stroke-miterlimit:10;}
	.st4{fill:#A8A240;}
	.st5{fill:#40875E;}
	.st6{fill:none;}
	.st7{fill:#A69F3D;}
	.st8{fill:none;stroke:#000000;stroke-width:1.5;stroke-miterlimit:10;}
	.st9{fill-rule:evenodd;clip-rule:evenodd;fill:#A8A240;}
	.st10{fill-rule:evenodd;clip-rule:evenodd;fill:#F0AB00;}
</style>
<path class="st0" d="M26.98,29.11c-5.08,0-9.5,3.89-9.5,10.09c0,5.46,4.42,10.09,9.5,10.09c5.12,0,9.5-4.64,9.5-10.09
	C36.47,33,32.1,29.11,26.98,29.11 M26.98,43.87c-0.71,0.78-2.19,0.78-2.89,0c-5.12-5.42-5.12-5.42-5.12-5.42c3.64,0,3.64,0,3.64,0
	c2.93,3.86,2.93,3.86,2.93,3.86c5.86-6.2,5.86-6.2,5.86-6.2c2.89,0,2.89,0,2.89,0L26.98,43.87L26.98,43.87z"/>
<path class="st8" d="M87.04,68.89c4.59,7,4.01,17.58-3.68,24.1c-7.5,6.37-18.69,5.71-25.5-1.48c-6.72-7.11-6.7-18.37,0.07-25.47
	c6.92-7.25,17.18-7.04,23.26-2.93"/>
<path class="st8" d="M80.79,73.07c2.7,4.26,2.16,10.43-2.3,14.2c-4.35,3.68-10.88,3.39-14.92-0.66c-4.03-4.05-4.31-10.57-0.64-14.88
	c3.89-4.58,10.14-4.91,14.15-2.34"/>
<path class="st5" d="M89.94,56.09c0,1.31,0,2.53,0,3.8c1.27,0,2.47,0,3.68,0c0.02,0.04,0.03,0.08,0.05,0.11
	c-0.68,0.67-1.37,1.34-2.05,2.01c-1.62,1.61-3.22,3.23-4.85,4.83c-0.18,0.18-0.51,0.34-0.74,0.31c-1.26-0.19-2.15,0.3-3,1.23
	c-1.52,1.67-6.24,6.67-7.85,8.27c-0.24,0.24-0.32,0.43-0.19,0.78c0.63,1.67,0.05,3.55-1.34,4.51c-1.52,1.04-3.48,0.95-4.82-0.23
	c-1.31-1.16-1.69-3.06-0.91-4.61c0.9-1.8,2.98-2.61,4.87-1.87c0.3,0.12,0.47,0.09,0.71-0.14c1.93-1.95,6.94-7.34,8.88-9.29
	c0.15-0.15,0.28-0.43,0.25-0.62c-0.22-1.34,0.33-2.26,1.31-3.16c1.92-1.77,3.73-3.68,5.58-5.53C89.63,56.38,89.75,56.27,89.94,56.09
	z"/>
<g>
	<rect x="44.57" y="26.47" class="st2" width="23.73" height="3.55"/>
</g>
<g>
	<rect x="44.57" y="36.89" class="st2" width="23.73" height="3.55"/>
</g>
<g>
	<rect x="44.57" y="47.31" class="st2" width="23.73" height="3.55"/>
</g>
<path class="st9" d="M32,53.3L32,53.3c-0.7-0.73-0.7-0.73-0.7-0.73v-0.73c1.43-0.77,2.86-1.5,3.59-2.24l0,0
	c2.86-2.24,4.99-5.97,4.99-9.71c0-7.44-5.72-13.42-12.9-13.42c-7.15,0-12.9,5.98-12.9,13.42c0,6.71,5.75,12.68,12.9,12.68
	c0.73,0,0.73,0,1.46,0c2.13,6.71,2.13,6.71,2.13,6.71c8.61,2.97,8.61,2.97,8.61,2.97c-3.59-11.18-3.59-11.18-3.59-11.18
	C34.89,51.83,33.43,52.57,32,53.3 M26.98,50.33c-5.72,0-10.01-5.2-10.01-10.44c0-5.94,4.29-10.41,10.01-10.41
	c5.75,0,10.04,4.47,10.04,10.41C37.02,45.13,32.73,50.33,26.98,50.33"/>
<path class="st10" d="M18.25,51.1c-3.59,11.14-3.59,11.14-3.59,11.14c8.58-2.97,8.58-2.97,8.58-2.97c1.39-5.17,1.39-5.17,1.39-5.17
	c-1.39,0-2.82-0.77-4.25-1.5C19.65,51.87,18.95,51.87,18.25,51.1"/>
<path class="st6" d="M84.48,4.59c0-0.02-0.02-0.04-0.04-0.04H22.26c-0.02,0-0.04,0.02-0.04,0.04v8.38h50.64
	c1.98,0,3.59,1.61,3.59,3.59v40.88c2.98,0.8,5.7,2.22,8.03,4.11V4.59z"/>
<path class="st4" d="M22.22,4.59c0-0.02,0.02-0.04,0.04-0.04h62.18c0.02,0,0.04,0.02,0.04,0.04V55.3l3.55-3.22V4.59
	c0-1.98-1.61-3.59-3.59-3.59H22.26c-1.98,0-3.59,1.61-3.59,3.59v8.38h3.55V4.59z"/>
<path class="st5" d="M9.91,95.94c-0.02,0-0.04-0.02-0.04-0.04V16.55c0-0.02,0.02-0.04,0.04-0.04h62.95c0.02,0,0.04,0.02,0.04,0.04
	l-0.01,40.23c1.22,0.12,2.41,0.34,3.56,0.65V16.55c0-1.98-1.61-3.59-3.59-3.59H22.22v1.28h-3.55v-1.28H9.91
	c-1.98,0-3.59,1.61-3.59,3.59V95.9c0,1.98,1.61,3.59,3.59,3.59H60.3c0.84,0,1.66-0.3,2.3-0.84c-1.73-0.7-3.35-1.61-4.82-2.71H9.91z"
	/>
<rect x="18.68" y="12.96" class="st5" width="3.55" height="1.28"/>
<path class="st2" d="M44.57,57.73v3.55h12.81c1.98-1.55,4.23-2.76,6.68-3.55H44.57z"/>
<path class="st2" d="M17.75,73.27v3.55h31.31c0.09-1.21,0.28-2.4,0.56-3.55H17.75z"/>
<rect x="17.75" y="82.24" class="st2" width="31.28" height="3.55"/>
</svg>
