<svg id="Layer_1" data-name="Layer 1" xmlns="http://www.w3.org/2000/svg" viewBox="0 0 36 36"><defs><style>.cls-1,.cls-2{fill:#0b4a99;}.cls-1{fill-rule:evenodd;}</style></defs><path class="cls-1" d="M8.44,9.91a3.19,3.19,0,0,0-3.2,3.38,3.35,3.35,0,0,0,3.2,3.37,3.35,3.35,0,0,0,3.2-3.37,3.19,3.19,0,0,0-3.2-3.38m0,4.93a.68.68,0,0,1-.95,0L5.76,13H7l1,1.29,2-2.07h.95L8.44,14.84Z"/><path class="cls-1" d="M10.31,18.63h0L10,18.35v-.27a5.33,5.33,0,0,0,1.29-.83h0a4.49,4.49,0,1,0-2.85,1.1H9l.74,2.38,3,1L11.5,17.8a4.35,4.35,0,0,1-1.19.83m-1.84-1.1A3.73,3.73,0,0,1,4.9,13.86a3.58,3.58,0,1,1,7.15,0,3.73,3.73,0,0,1-3.58,3.67"/><path class="cls-1" d="M5.45,17.8,4.17,21.74l3-1,.46-1.83a3.17,3.17,0,0,1-1.47-.55c-.27-.27-.55-.27-.73-.55"/><path class="cls-2" d="M31,18.73H29.79V1.86a.67.67,0,0,0-.7-.7h-22a.67.67,0,0,0-.7.7V4.8H5.22V1.86A1.82,1.82,0,0,1,7.08,0h22A1.82,1.82,0,0,1,31,1.86Z"/><path class="cls-2" d="M18.55,36H2.68A1.82,1.82,0,0,1,.82,34.14V6.08A1.88,1.88,0,0,1,2.68,4.22H25a1.82,1.82,0,0,1,1.86,1.86V20.57H25.66V6.08a.67.67,0,0,0-.7-.7H2.68a.73.73,0,0,0-.7.7V34.14a.67.67,0,0,0,.7.7H18.55Z"/><rect class="cls-2" x="14.51" y="9.61" width="9.44" height="1.16"/><rect class="cls-2" x="4.55" y="27.08" width="9.44" height="1.16"/><rect class="cls-2" x="4.55" y="31.29" width="9.44" height="1.16"/><rect class="cls-2" x="14.51" y="15.14" width="9.44" height="1.16"/><rect class="cls-2" x="14.51" y="20.67" width="5.43" height="1.16"/><circle class="cls-2" cx="25.17" cy="28.64" r="1.24"/><rect class="cls-2" x="23.17" y="23.24" width="13.6" height="1.16" transform="translate(-8.06 28.21) rotate(-45.07)"/><path class="cls-2" d="M25.17,35.47a6.83,6.83,0,1,1,3.47-12.71l-.59,1A5.62,5.62,0,0,0,25.17,23,5.66,5.66,0,1,0,30,25.68l1-.6a6.83,6.83,0,0,1-5.83,10.39Z"/><path class="cls-2" d="M25.17,33a4.4,4.4,0,1,1,1.68-8.46l-.44,1.08a3.09,3.09,0,0,0-1.24-.25,3.24,3.24,0,1,0,3.23,3.23,3.27,3.27,0,0,0-.32-1.41l1.05-.5a4.34,4.34,0,0,1,.43,1.91A4.4,4.4,0,0,1,25.17,33Z"/><rect class="cls-2" x="32.26" y="20.77" width="2.92" height="1.16"/><rect class="cls-2" x="31.01" y="19.4" width="2.92" height="1.16" transform="translate(12.39 52.38) rotate(-89.81)"/></svg>