<svg id="Layer_1" data-name="Layer 1" xmlns="http://www.w3.org/2000/svg" viewBox="0 0 36 36"><defs><style>.cls-1{fill:#e8f2f9;}.cls-2{fill:#0b4a99;}.cls-3{fill:#6f8189;}.cls-4{fill:#91a1aa;}</style></defs><path class="cls-1" d="M14.61,17.85a3.28,3.28,0,0,1,.35-1.5l-2.74-1.58A6.51,6.51,0,0,0,14,23l1.88-2.54A3.33,3.33,0,0,1,14.61,17.85Z"/><path class="cls-2" d="M18,14.51a3.47,3.47,0,0,1,1.25.24l1.29-2.89a6.52,6.52,0,0,0-8.11,2.64l2.73,1.58A3.35,3.35,0,0,1,18,14.51Z"/><path class="cls-3" d="M21.28,17.69h3.16A6.5,6.5,0,0,0,20.77,12l-1.29,2.89A3.36,3.36,0,0,1,21.28,17.69Z"/><path class="cls-4" d="M18,21.18a3.31,3.31,0,0,1-1.87-.57L14.2,23.15A6.49,6.49,0,0,0,24.44,18H21.28A3.33,3.33,0,0,1,18,21.18Z"/><path class="cls-1" d="M12.08,14.69,9.11,13a9.58,9.58,0,0,0-.68,1.49l3.24,1.16A7.72,7.72,0,0,1,12.08,14.69Z"/><path class="cls-1" d="M11.29,17.85H7.85a10.09,10.09,0,0,0,4,8l2-2.77A6.63,6.63,0,0,1,11.29,17.85Z"/><path class="cls-1" d="M11.57,15.91,8.33,14.76a10.19,10.19,0,0,0-.48,2.78H11.3A6.69,6.69,0,0,1,11.57,15.91Z"/><path class="cls-2" d="M18,11.19h.24V7.76H18a10.08,10.08,0,0,0-5,1.34L14.69,12A6.62,6.62,0,0,1,18,11.19Z"/><path class="cls-2" d="M14.42,12.2l-1.76-3a10.05,10.05,0,0,0-1.55,1.18l2.42,2.45A7.14,7.14,0,0,1,14.42,12.2Z"/><path class="cls-2" d="M9.26,12.7l3,1.72a6.52,6.52,0,0,1,1.06-1.34l-2.42-2.45A10.5,10.5,0,0,0,9.26,12.7Z"/><path class="cls-2" d="M20.55,11.72,22,8.58A9.78,9.78,0,0,0,20,8l-.59,3.4A6.55,6.55,0,0,1,20.55,11.72Z"/><path class="cls-2" d="M19.14,11.3l.58-3.39c-.4-.07-.81-.12-1.22-.15v3.45C18.71,11.23,18.93,11.26,19.14,11.3Z"/><path class="cls-4" d="M23.72,21.16l2.88,1.89a9.75,9.75,0,0,0,.63-1.25l-3.17-1.32A7.18,7.18,0,0,1,23.72,21.16Z"/><path class="cls-4" d="M14.11,23.28l-2,2.77a9.84,9.84,0,0,0,2.11,1.16L15.35,24A6.29,6.29,0,0,1,14.11,23.28Z"/><path class="cls-4" d="M28,18H24.6a6.72,6.72,0,0,1-.43,2.2l3.18,1.32A10.07,10.07,0,0,0,28,18Z"/><path class="cls-4" d="M15.64,24.09l-1.17,3.24a9.82,9.82,0,0,0,1.34.38l.62-3.38A5.53,5.53,0,0,1,15.64,24.09Z"/><path class="cls-4" d="M18,24.5a6.09,6.09,0,0,1-1.22-.11l-.62,3.38a10.08,10.08,0,0,0,10.32-4.46l-2.87-1.88A6.65,6.65,0,0,1,18,24.5Z"/><path class="cls-3" d="M24.6,17.69H28c0-.34,0-.68-.07-1l-3.41.44A5.65,5.65,0,0,1,24.6,17.69Z"/><path class="cls-3" d="M24.52,16.81l3.41-.44a10,10,0,0,0-.58-2.2L24.17,15.5A6.32,6.32,0,0,1,24.52,16.81Z"/><path class="cls-3" d="M24.06,15.22l3.17-1.33a10.09,10.09,0,0,0-5-5.19l-1.4,3.14A6.73,6.73,0,0,1,24.06,15.22Z"/><path class="cls-1" d="M8.66,27.4A11.46,11.46,0,0,0,9.9,28.47L11.73,26a9.72,9.72,0,0,1-.91-.79Z"/><path class="cls-1" d="M7.71,17.85H4.61a13.27,13.27,0,0,0,3.83,9.34L10.6,25A10.22,10.22,0,0,1,7.71,17.85Z"/><path class="cls-3" d="M27.36,13.83l2.86-1.19a13.46,13.46,0,0,0-5.33-6.17L23.35,9.15A10.33,10.33,0,0,1,27.36,13.83Z"/><path class="cls-3" d="M24.63,6.31c-.35-.2-.71-.39-1.09-.56L22.29,8.57c.27.13.53.27.79.42Z"/><path class="cls-2" d="M11.26,6.31,12.85,9a9.36,9.36,0,0,1,1.43-.68L13.15,5.41A12.6,12.6,0,0,0,11.26,6.31Z"/><path class="cls-2" d="M18,7.61h.24V4.52H18a13.19,13.19,0,0,0-4.51.78l1.13,2.88A10.2,10.2,0,0,1,18,7.61Z"/><path class="cls-2" d="M10.79,10.53,8.61,8.33A13.37,13.37,0,0,0,7.39,9.71l2.48,1.85A10,10,0,0,1,10.79,10.53Z"/><path class="cls-2" d="M6.46,11.08l2.68,1.55c.17-.29.35-.56.54-.83L7.21,10C6.94,10.32,6.69,10.69,6.46,11.08Z"/><path class="cls-4" d="M28.18,18A10.53,10.53,0,0,1,28,19.7l3,.59A14.33,14.33,0,0,0,31.27,18Z"/><path class="cls-4" d="M27.48,21.57l2.86,1.18A13.85,13.85,0,0,0,31,20.59L28,20A10.39,10.39,0,0,1,27.48,21.57Z"/><path class="cls-4" d="M29.14,25.08l-2.59-1.7a8.18,8.18,0,0,1-.74,1l2.33,2A14.72,14.72,0,0,0,29.14,25.08Z"/><path class="cls-4" d="M18,28.08a10.49,10.49,0,0,1-1.87-.17l-.56,3a13,13,0,0,0,2.43.23,13.28,13.28,0,0,0,10-4.52l-2.33-2A10.18,10.18,0,0,1,18,28.08Z"/><path class="cls-3" d="M28.85,9.84,31.38,8a16.81,16.81,0,0,0-4.81-4.39L25,6.3A13.45,13.45,0,0,1,28.85,9.84Z"/><path class="cls-3" d="M30.4,12.56l2.92-1.22A17,17,0,0,0,31.56,8.2L29,10.09A13.52,13.52,0,0,1,30.4,12.56Z"/><path class="cls-2" d="M16.72,4.37V1.2a16.86,16.86,0,0,0-4.51,1l1.16,2.94A13.7,13.7,0,0,1,16.72,4.37Z"/><path class="cls-2" d="M18,4.32h.24V1.16H18c-.31,0-.62,0-.92,0V4.35C17.33,4.33,17.64,4.32,18,4.32Z"/><path class="cls-4" d="M18,31.37a13.24,13.24,0,0,1-2.46-.22l-.57,3.11a16.74,16.74,0,0,0,3,.27c.5,0,1,0,1.5-.07l-.23-3.15C18.8,31.35,18.38,31.37,18,31.37Z"/><path class="cls-4" d="M19.53,31.28l.22,3.15a16.59,16.59,0,0,0,10.71-5.55L28.09,26.8A13.51,13.51,0,0,1,19.53,31.28Z"/><path class="cls-1" d="M4.42,17.85H1.26a16.72,16.72,0,0,0,.41,3.7l3.1-.63A13.44,13.44,0,0,1,4.42,17.85Z"/><path class="cls-1" d="M4.84,21.22l-3.09.63a16.72,16.72,0,0,0,4.34,7.74L8.3,27.33A13.63,13.63,0,0,1,4.84,21.22Z"/></svg>