<?xml version="1.0" encoding="utf-8"?>
<!-- Generator: Adobe Illustrator 25.0.0, SVG Export Plug-In . SVG Version: 6.00 Build 0)  -->
<svg version="1.1" id="Layer_1" xmlns="http://www.w3.org/2000/svg" xmlns:xlink="http://www.w3.org/1999/xlink" x="0px" y="0px"
	 viewBox="0 0 30 30" style="enable-background:new 0 0 30 30;" xml:space="preserve">
<style type="text/css">
	.st0{fill:#F5AC3A;}
	.st1{fill:#40875E;}
	.st2{fill:#ABA34A;}
	.st3{fill:#22663E;}
</style>
<g>
	<rect x="0.3" y="1.2" class="st0" width="27" height="14.7"/>
	<g>
		<g>
			<path class="st1" d="M27.6,16.2H0V0.6h27.6V16.2z M0.9,15.3h25.7V1.6H0.9V15.3z"/>
		</g>
		
			<rect x="13.3" y="-4.7" transform="matrix(-1.836970e-16 1 -1 -1.836970e-16 22.1832 -5.3138)" class="st1" width="0.9" height="26.3"/>
		<g>
			<rect x="6.7" y="0.9" class="st1" width="0.9" height="15"/>
			<rect x="13.4" y="0.9" class="st1" width="0.9" height="15"/>
			<rect x="20" y="0.9" class="st1" width="0.9" height="15"/>
		</g>
	</g>
	<rect x="8.1" y="12.9" class="st1" width="20.9" height="15.8"/>
	<g>
		<path class="st2" d="M30,29.4H6.7V12.2H30V29.4z M8.1,28.1h20.5V13.5H8.1V28.1z"/>
	</g>
	<rect x="9.2" y="15" class="st0" width="12.2" height="3.8"/>
	<rect x="8.9" y="21.2" class="st0" width="18.9" height="6.2"/>
	<rect x="23.9" y="14.2" class="st3" width="3.8" height="1.9"/>
	<g>
		<rect x="9.8" y="22.1" class="st3" width="3" height="1.9"/>
		<rect x="13.3" y="22.1" class="st3" width="3" height="1.9"/>
		<rect x="16.9" y="22.1" class="st3" width="3" height="1.9"/>
		<rect x="20.4" y="22.1" class="st3" width="3" height="1.9"/>
		<rect x="23.9" y="22.1" class="st3" width="3" height="1.9"/>
		<rect x="9.8" y="24.6" class="st3" width="3" height="1.9"/>
		<rect x="13.3" y="24.6" class="st3" width="3" height="1.9"/>
		<rect x="16.9" y="24.6" class="st3" width="3" height="1.9"/>
		<rect x="20.4" y="24.6" class="st3" width="3" height="1.9"/>
		<rect x="23.9" y="24.6" class="st3" width="3" height="1.9"/>
	</g>
</g>
</svg>
