<?xml version="1.0" encoding="iso-8859-1"?>
<!-- Generator: Adobe Illustrator 12.0.0, SVG Export Plug-In . SVG Version: 6.00 Build 51448)  -->
<!DOCTYPE svg PUBLIC "-//W3C//DTD SVG 1.1//EN" "http://www.w3.org/Graphics/SVG/1.1/DTD/svg11.dtd" [
	<!ENTITY ns_svg "http://www.w3.org/2000/svg">
	<!ENTITY ns_xlink "http://www.w3.org/1999/xlink">
]>
<svg  version="1.1" id="Layer_1" xmlns="&ns_svg;" xmlns:xlink="&ns_xlink;" width="47.055" height="60.095"
	 viewBox="0 0 47.055 60.095" style="overflow:visible;enable-background:new 0 0 47.055 60.095;" xml:space="preserve">
<g>
	<path style="fill:none;stroke:#000000;" d="M39.377,57.434"/>
	<path style="fill:#008FD3;" d="M16.102,20.366l-0.823,0.985c-0.286-0.557-0.857-0.94-1.519-0.94H8.815
		c-0.953,0-1.722,0.778-1.722,1.731v5.489c0,0.953,0.769,1.732,1.722,1.732h4.944c0.947,0,1.72-0.779,1.72-1.732v-3.187l2.253-2.708
		c0.374-0.453,0.319-1.128-0.129-1.505C17.149,19.852,16.482,19.915,16.102,20.366L16.102,20.366z M14.337,27.631L14.337,27.631
		c-0.005,0.316-0.263,0.574-0.577,0.574H8.815c-0.321,0-0.578-0.258-0.578-0.574v-5.489c0-0.317,0.257-0.581,0.578-0.581h4.944
		c0.314,0,0.572,0.264,0.572,0.581v0.343l-1.429,1.728c-0.38,0.451-1.031,0.491-1.461,0.091l-0.887-0.825
		c-0.425-0.406-1.104-0.377-1.5,0.052c-0.398,0.434-0.369,1.111,0.056,1.518l2.481,2.316c0.196,0.188,0.453,0.283,0.722,0.283
		c0.023,0,0.039,0,0.067,0c0.292-0.017,0.561-0.159,0.745-0.377l1.21-1.449V27.631z M14.337,27.631"/>
	<path style="fill:#BF0000;" d="M16.102,32.351l-0.852,1.027c-0.297-0.523-0.852-0.884-1.49-0.884H8.815
		c-0.953,0-1.722,0.777-1.722,1.736v5.483c0,0.958,0.769,1.737,1.722,1.737h4.944c0.947,0,1.72-0.779,1.72-1.737v-3.283l2.253-2.702
		c0.374-0.457,0.319-1.127-0.129-1.512C17.149,31.84,16.482,31.901,16.102,32.351L16.102,32.351z M14.337,39.714L14.337,39.714
		c-0.005,0.321-0.263,0.579-0.577,0.579H8.815c-0.321,0-0.578-0.258-0.578-0.579V34.23c0-0.321,0.257-0.58,0.578-0.58h4.944
		c0.314,0,0.572,0.259,0.572,0.58v0.248l-1.429,1.72c-0.38,0.452-1.031,0.491-1.461,0.091l-0.887-0.822
		c-0.425-0.409-1.104-0.38-1.5,0.056c-0.398,0.433-0.369,1.111,0.056,1.512l2.481,2.317c0.196,0.188,0.453,0.289,0.722,0.289
		c0.023,0,0.039,0,0.067-0.008c0.292-0.016,0.561-0.15,0.745-0.376l1.21-1.45V39.714z M14.337,39.714"/>
	<path style="fill:#008FD3;" d="M39.053,23.71H21.878c-0.59,0-1.065,0.474-1.065,1.071c0,0.587,0.476,1.067,1.065,1.067h17.175
		c0.588,0,1.064-0.48,1.064-1.067C40.117,24.184,39.641,23.71,39.053,23.71L39.053,23.71z M39.053,23.71"/>
	<path style="fill:#BF0000;" d="M39.053,35.441H21.878c-0.59,0-1.065,0.479-1.065,1.072c0,0.592,0.476,1.07,1.065,1.07h17.175
		c0.588,0,1.064-0.479,1.064-1.07C40.117,35.921,39.641,35.441,39.053,35.441L39.053,35.441z M39.053,35.441"/>
	<path style="fill:none;stroke:#3DA8DF;" d="M14.337,51.762"/>
	<path style="fill:#008FD3;" d="M39.053,47.491H21.878c-0.59,0-1.065,0.479-1.065,1.071c0,0.591,0.476,1.07,1.065,1.07h17.175
		c0.588,0,1.064-0.479,1.064-1.07C40.117,47.97,39.641,47.491,39.053,47.491L39.053,47.491z M39.053,47.491"/>
	<g>
		<path style="fill:#008FD3;" d="M10.372,49.021L8.85,50.554c-0.252,0.256-0.252,0.667,0,0.922c0.253,0.254,0.661,0.254,0.914,0
			l1.523-1.534l1.522,1.534c0.253,0.254,0.662,0.254,0.915,0c0.253-0.255,0.252-0.666,0-0.922L12.2,49.021l1.524-1.533
			c0.253-0.255,0.253-0.667,0-0.921s-0.662-0.254-0.915,0l-1.522,1.534l-1.523-1.534c-0.253-0.254-0.661-0.254-0.914,0
			c-0.252,0.254-0.252,0.666,0,0.92L10.372,49.021z"/>
		<path style="fill:#008FD3;" d="M14.337,49.856v1.905l0,0c-0.004,0.322-0.263,0.58-0.576,0.58H8.815
			c-0.32,0-0.578-0.258-0.578-0.58V46.28c0-0.321,0.258-0.58,0.578-0.58h4.945c0.313,0,0.572,0.259,0.572,0.58v0.248L14.337,49.856z
			 M15.479,46.229c0-0.931-0.756-1.686-1.688-1.686H8.781c-0.932,0-1.687,0.755-1.687,1.686v5.585c0,0.93,0.755,1.686,1.687,1.686
			h5.011c0.932,0,1.688-0.756,1.688-1.686V46.229z"/>
	</g>
	<path style="fill:#008FD3;" d="M7.504,4.795h9.041V3.244C16.545,1.455,17.984,0,19.766,0h7.344c1.782,0,3.227,1.455,3.227,3.244
		v1.552h9.041l0,0l1.982-0.003c3.146,0,5.695,2.568,5.695,5.735v43.832c0,3.168-2.55,5.735-5.695,5.735H5.695
		C2.55,60.095,0,57.527,0,54.359V10.527C0,7.36,2.55,4.792,5.695,4.792L7.504,4.795z M23.44,1.465c-0.891,0-1.608,0.723-1.608,1.619
		c0,0.893,0.718,1.619,1.608,1.619s1.607-0.726,1.607-1.619C25.048,2.188,24.331,1.465,23.44,1.465L23.44,1.465z M41.004,57.434
		c1.759,0,3.188-1.439,3.188-3.206V10.642c0-1.766-1.436-3.21-3.188-3.21h-4.668v4.816c0,2.06-1.663,3.735-3.709,3.735H14.253
		c-2.044,0-3.707-1.675-3.707-3.735V7.432H5.877c-1.76,0-3.188,1.444-3.188,3.21v43.585c0,1.767,1.429,3.206,3.188,3.206H41.004
		L41.004,57.434z"/>
</g>
</svg>
