<svg id="Layer_1" data-name="Layer 1" xmlns="http://www.w3.org/2000/svg" viewBox="0 0 36 36"><defs><style>.cls-1{fill:#0b4a99;}</style></defs><path class="cls-1" d="M18.25,30.14a10.31,10.31,0,1,1,10.31-10.3A10.31,10.31,0,0,1,18.25,30.14Zm0-19.43a9.13,9.13,0,1,0,9.13,9.13A9.13,9.13,0,0,0,18.25,10.71Z"/><path class="cls-1" d="M14.79,8.48a4,4,0,1,1,4-4A4,4,0,0,1,14.79,8.48Zm0-6.79a2.81,2.81,0,1,0,2.8,2.81A2.81,2.81,0,0,0,14.79,1.69Z"/><path class="cls-1" d="M30.83,35.23a4,4,0,1,1,4-4A4,4,0,0,1,30.83,35.23Zm0-6.78a2.81,2.81,0,1,0,2.8,2.8A2.8,2.8,0,0,0,30.83,28.45Z"/><path class="cls-1" d="M32.57,19.2A3.43,3.43,0,1,1,36,15.77,3.44,3.44,0,0,1,32.57,19.2Zm0-5.68a2.25,2.25,0,1,0,2.25,2.25A2.25,2.25,0,0,0,32.57,13.52Z"/><path class="cls-1" d="M17.18,35.48a2.42,2.42,0,1,1,2.42-2.42A2.42,2.42,0,0,1,17.18,35.48Zm0-3.66a1.25,1.25,0,1,0,1.24,1.24A1.25,1.25,0,0,0,17.18,31.82Z"/><path class="cls-1" d="M3,20.94a3,3,0,1,1,3-3A3,3,0,0,1,3,20.94Zm0-4.77A1.8,1.8,0,1,0,4.77,18,1.8,1.8,0,0,0,3,16.17Z"/><path class="cls-1" d="M19.25,27.5H17.2a.77.77,0,0,1-.75-.75v-1a4.31,4.31,0,0,1-1.21-.48l-.77.76a.71.71,0,0,1-1.08,0L12,24.67a.71.71,0,0,1,0-1.08l.77-.78a4.75,4.75,0,0,1-.43-1l-.05-.15h-1a.77.77,0,0,1-.75-.75V18.81a.77.77,0,0,1,.75-.74h1a4.37,4.37,0,0,1,.48-1.22L12,16.09A.71.71,0,0,1,12,15l1.4-1.41a.73.73,0,0,1,1.08,0l.77.77a5.36,5.36,0,0,1,1.06-.43l.15,0v-1a.77.77,0,0,1,.75-.74h2.05a.76.76,0,0,1,.74.74v1a4.37,4.37,0,0,1,1.22.48L22,13.6a.76.76,0,0,1,.54-.24.73.73,0,0,1,.54.24L24.46,15a.73.73,0,0,1,0,1.08l-.77.77a4.68,4.68,0,0,1,.43,1.07l.05.14h1a.75.75,0,0,1,.75.42.57.57,0,0,1,0,.46v1.91a.76.76,0,0,1-.74.75h-1a4,4,0,0,1-.49,1.21l.77.77a.72.72,0,0,1,0,1.07l-1.41,1.41a.73.73,0,0,1-.54.24.76.76,0,0,1-.54-.24l-.77-.77a5.22,5.22,0,0,1-1.06.44l-.15,0v1A.76.76,0,0,1,19.25,27.5Zm-1.82-1H19V25.6a.77.77,0,0,1,.65-.74l.19-.06a3.78,3.78,0,0,0,.92-.38.62.62,0,0,1,.68-.08h.21l.11.14.74.74,1.1-1.09-.74-.74a.73.73,0,0,1,0-1.08,3.72,3.72,0,0,0,.37-1,.76.76,0,0,1,.74-.67h.92V19.05H24a.79.79,0,0,1-.74-.65l0-.18a3.86,3.86,0,0,0-.38-.93.64.64,0,0,1-.09-.68v-.2l.15-.12.74-.74-1.1-1.1-.74.74a.73.73,0,0,1-.54.24h0a.76.76,0,0,1-.54-.24,3.48,3.48,0,0,0-1-.37.77.77,0,0,1-.67-.74v-.92H17.43v.92a.78.78,0,0,1-.64.74l-.19.06a3.93,3.93,0,0,0-.89.35.68.68,0,0,1-.71.11h-.21l-.11-.15-.75-.74-1.09,1.1.74.74a.73.73,0,0,1,0,1.08,3.76,3.76,0,0,0-.38,1,.77.77,0,0,1-.74.67h-.91v1.58h.91a.76.76,0,0,1,.74.64l.06.19a3.63,3.63,0,0,0,.38.92.64.64,0,0,1,.08.69v.2l-.14.12-.74.74,1.09,1.09.75-.74a.77.77,0,0,1,.54-.24.75.75,0,0,1,.49.2,3.4,3.4,0,0,0,1.06.42.76.76,0,0,1,.66.74Zm6.2-3.59ZM12.82,16.75Zm8.49-2.31Zm-3.09,9.35a3.95,3.95,0,1,1,4-3.95A4.09,4.09,0,0,1,18.22,23.79Zm0-6.92a3,3,0,0,0,0,5.93,3.13,3.13,0,0,0,3-3A2.92,2.92,0,0,0,18.22,16.87Z"/><rect class="cls-1" x="15.32" y="7.69" width="1.18" height="2.62" transform="translate(-1.6 3.75) rotate(-12.82)"/><rect class="cls-1" x="27.7" y="16.52" width="2.35" height="1.18" transform="translate(-4.37 12.46) rotate(-22.68)"/><rect class="cls-1" x="26.28" y="25.79" width="1.18" height="3.85" transform="translate(-11.68 25.73) rotate(-42.95)"/><rect class="cls-1" x="16.33" y="29.76" width="1.94" height="1.18" transform="translate(-13.16 47.46) rotate(-89.63)"/><rect class="cls-1" x="6.27" y="16.71" width="1.18" height="3.63" transform="translate(-12.41 22.84) rotate(-82.31)"/></svg>