<?xml version="1.0" encoding="iso-8859-1"?>
<!-- Generator: Adobe Illustrator 12.0.0, SVG Export Plug-In . SVG Version: 6.00 Build 51448)  -->
<!DOCTYPE svg PUBLIC "-//W3C//DTD SVG 1.1//EN" "http://www.w3.org/Graphics/SVG/1.1/DTD/svg11.dtd" [
	<!ENTITY ns_svg "http://www.w3.org/2000/svg">
	<!ENTITY ns_xlink "http://www.w3.org/1999/xlink">
]>
<svg  version="1.1" id="Layer_1" xmlns="&ns_svg;" xmlns:xlink="&ns_xlink;" width="49.888" height="49.89"
	 viewBox="0 0 49.888 49.89" style="overflow:visible;enable-background:new 0 0 49.888 49.89;" xml:space="preserve">
<g>
	<path style="fill:#0071C5;" d="M48.257,25.073l-2.453-0.264c0.574-5.471-1.225-11.139-5.406-15.318
		C36.22,5.313,30.546,3.511,25.083,4.09L24.82,1.632c6.184-0.652,12.6,1.385,17.328,6.111C46.871,12.47,48.912,18.887,48.257,25.073
		 M42.933,24.506l-2.451-0.262c0.41-3.915-0.875-7.974-3.867-10.967c-2.996-2.995-7.053-4.283-10.964-3.868l-0.264-2.454
		c4.63-0.49,9.435,1.033,12.972,4.576C41.904,15.072,43.425,19.876,42.933,24.506 M37.529,23.928l-2.459-0.265
		c0.25-2.332-0.518-4.756-2.303-6.537c-1.787-1.79-4.209-2.554-6.543-2.305l-0.263-2.458c3.056-0.322,6.22,0.678,8.552,3.011
		C36.847,17.707,37.849,20.876,37.529,23.928 M47.814,46.058c-3.057,3.351-5.316,4.584-14.42,1.602
		c-9.101-2.983-18.856-12.308-18.856-12.308S5.218,25.6,2.229,16.493C-0.754,7.394,0.485,5.134,3.833,2.076
		c3.349-3.057,6.261-0.872,7.715,0.732c1.458,1.6,6.119,8.153,6.119,8.153s1.529,2.837-0.439,4.659
		c-1.965,1.823-3.486,2.178-3.961,3.671c-0.479,1.501-1.06,2.081,0.905,5.214c0.123,0.195,0.247,0.389,0.378,0.587
		c2.667,4.089,6.161,7.58,10.246,10.246c0.198,0.132,0.392,0.255,0.591,0.379c3.132,1.965,3.712,1.384,5.21,0.905
		c1.494-0.477,1.852-1.996,3.674-3.962c1.818-1.966,4.656-0.438,4.656-0.438s6.555,4.657,8.154,6.116
		C48.687,39.797,50.871,42.711,47.814,46.058"/>
	<rect style="fill:none;" width="49.888" height="49.89"/>
</g>
</svg>
