<?xml version="1.0" encoding="utf-8"?>
<!-- Generator: Adobe Illustrator 25.0.0, SVG Export Plug-In . SVG Version: 6.00 Build 0)  -->
<svg version="1.1" id="Layer_1" xmlns="http://www.w3.org/2000/svg" xmlns:xlink="http://www.w3.org/1999/xlink" x="0px" y="0px"
	 viewBox="0 0 30 30" style="enable-background:new 0 0 30 30;" xml:space="preserve">
<style type="text/css">
	.st0{fill:#ABA34A;}
	.st1{fill:#F5AC3A;}
	.st2{fill:#40875E;}
</style>
<g>
	<path class="st0" d="M0.7,11.9h25.9c0.5,0,0.8,0.5,0.7,0.9l-3.7,11.7c-0.1,0.3-0.4,0.5-0.7,0.5H4c-0.3,0-0.6-0.2-0.7-0.5L0,12.8
		C-0.1,12.3,0.2,11.9,0.7,11.9z"/>
	<g>
		<path class="st1" d="M26.2,11.9h-1.4V8.1c0-0.5-0.4-1-1-1h-9.5c-0.6,0-1.2-0.2-1.7-0.7L9.9,3.6C9.7,3.5,9.5,3.4,9.3,3.4H3.5
			c-0.5,0-1,0.4-1,1v7.5H1.1V4.4c0-1.3,1.1-2.4,2.4-2.4h5.7c0.6,0,1.2,0.2,1.6,0.7l2.8,2.8c0.2,0.2,0.4,0.3,0.7,0.3h9.5
			c1.3,0,2.4,1.1,2.4,2.4V11.9z"/>
	</g>
	<path class="st2" d="M30,19.8l-11.6-3.5l0.8,3.3c-0.1,0-0.1,0-0.2,0.1c-0.7,0.2-1.4,0.4-2.1,0.5c-0.7,0.2-1.4,0.1-2.1,0.2
		c-0.4,0-0.7,0-1,0c-0.3,0-0.7,0-1,0c-1.3-0.1-2.5-0.5-3.5-1.3c-1-0.8-1.7-2.1-1.8-3.5l-0.5-0.1c-0.4,1.6-0.2,3.4,0.8,5
		c1,1.5,2.7,2.6,4.3,3.2c1.7,0.6,3.4,0.9,5,1c1.1,0.1,2.2,0.2,3.4,0.2l0.8,3.3L30,19.8z"/>
</g>
</svg>
