<?xml version="1.0" encoding="iso-8859-1"?>
<!-- Generator: Adobe Illustrator 12.0.0, SVG Export Plug-In . SVG Version: 6.00 Build 51448)  -->
<!DOCTYPE svg PUBLIC "-//W3C//DTD SVG 1.1//EN" "http://www.w3.org/Graphics/SVG/1.1/DTD/svg11.dtd" [
	<!ENTITY ns_svg "http://www.w3.org/2000/svg">
	<!ENTITY ns_xlink "http://www.w3.org/1999/xlink">
]>
<svg  version="1.1" id="Layer_1" xmlns="&ns_svg;" xmlns:xlink="&ns_xlink;" width="15.872" height="15.87"
	 viewBox="0 0 15.872 15.87" style="overflow:visible;enable-background:new 0 0 15.872 15.87;" xml:space="preserve">
<g>
	<rect style="fill:none;" width="15.872" height="15.87"/>
	<g>
		<path style="fill:#0071C5;" d="M8.427,1.082l6.586,6.552c0.27,0.304,0.27,0.742,0,1.012l-0.607,0.607L8.427,3.31
			c-0.27-0.27-0.71-0.27-0.979,0L1.469,9.253L0.861,8.646c-0.271-0.271-0.271-0.708,0-1.012l6.585-6.552
			C7.716,0.811,8.157,0.811,8.427,1.082L8.427,1.082z"/>
		<path style="fill:#0071C5;" d="M8.427,6.82l6.586,6.552c0.27,0.305,0.27,0.741,0,1.014l-0.607,0.606L8.427,9.049
			c-0.27-0.271-0.71-0.271-0.979,0l-5.979,5.943l-0.607-0.606c-0.271-0.272-0.271-0.709,0-1.014L7.446,6.82
			C7.716,6.551,8.157,6.551,8.427,6.82L8.427,6.82z"/>
	</g>
</g>
</svg>
