<?xml version="1.0" encoding="utf-8"?>
<!-- Generator: Adobe Illustrator 26.2.1, SVG Export Plug-In . SVG Version: 6.00 Build 0)  -->
<svg version="1.1" id="Layer_1" xmlns="http://www.w3.org/2000/svg" xmlns:xlink="http://www.w3.org/1999/xlink" x="0px" y="0px"
	 viewBox="0 0 36 36" style="enable-background:new 0 0 36 36;" xml:space="preserve">
<style type="text/css">
	.st0{fill:#FDFEFF;}
</style>
<g>
	<g>
		<path class="st0" d="M16.2,24.2H2.6c-1.1,0-1.9-0.9-1.9-1.9V1.9C0.6,0.9,1.5,0,2.6,0h12.2l5.6,5.9v6.2h-1.2V6.4l-5-5.2H2.6
			C2.2,1.2,1.8,1.6,1.8,2v20.3c0,0.4,0.4,0.8,0.8,0.8h13.6V24.2z"/>
	</g>
	<g>
		<path class="st0" d="M19.9,6.7h-4.1c-1.1,0-2-0.9-2-1.9V0.6H15v4.2c0,0.4,0.4,0.8,0.9,0.8H20v1.1H19.9z"/>
	</g>
	<g>
		<path class="st0" d="M33.4,36H17.5c-1.1,0-1.9-0.9-1.9-1.9V13.7c0-1.1,0.9-1.9,1.9-1.9h12.2l5.6,5.9v16.4
			C35.4,35.1,34.5,36,33.4,36z M17.5,12.9c-0.4,0-0.8,0.4-0.8,0.8V34c0,0.4,0.4,0.8,0.8,0.8h15.9c0.4,0,0.8-0.4,0.8-0.8V18.1l-5-5.2
			C29.2,12.9,17.5,12.9,17.5,12.9z"/>
	</g>
	<g>
		<path class="st0" d="M34.9,18.4h-4.1c-1.1,0-2-0.9-2-1.9v-4.2H30v4.2c0,0.4,0.4,0.8,0.9,0.8H35L34.9,18.4L34.9,18.4z"/>
	</g>
	<g>
		<polygon class="st0" points="32.3,9.5 31.2,9.5 31.2,5.6 23.6,5.6 23.6,4.5 32.3,4.5 		"/>
	</g>
	<g>
		<polygon class="st0" points="24.3,7.6 22.6,5.1 24.3,2.7 25.3,3.4 24,5.1 25.3,6.9 		"/>
	</g>
	<g>
		<polygon class="st0" points="12.2,31.6 3.5,31.6 3.5,26.6 4.7,26.6 4.7,30.4 12.2,30.4 		"/>
	</g>
	<g>
		<polygon class="st0" points="11.5,33.4 10.6,32.7 11.8,30.9 10.6,29.1 11.5,28.5 13.2,30.9 		"/>
	</g>
</g>
</svg>
