<svg id="Layer_1" data-name="Layer 1" xmlns="http://www.w3.org/2000/svg" viewBox="0 0 30 30"><defs><style>.cls-1,.cls-3{fill:none;}.cls-2,.cls-4{fill:#0b4a99;}.cls-3{stroke:#0b4a99;stroke-miterlimit:10;}.cls-4{font-size:5.86px;font-family:Optima-Bold, Optima;font-weight:700;}</style></defs><title>SQL ICON</title><ellipse class="cls-1" cx="13.32" cy="4.93" rx="7.66" ry="3.02"/><path class="cls-2" d="M11.82,22.45v0a23.1,23.1,0,0,1-4.59-.76C5.27,21,4,20.08,3.77,19a1.57,1.57,0,0,0,0,.27v5.53c0,2.09,4.29,3.77,9.58,3.77.62,0,1.23,0,1.82-.07A7.21,7.21,0,0,1,11.82,22.45Z"/><path class="cls-2" d="M13.33,13.08c5.29,0,9.58-1.69,9.58-3.78V3.78C22.91,1.69,18.62,0,13.33,0S3.74,1.69,3.74,3.78V9.31C3.74,11.39,8,13.08,13.33,13.08Zm0-11.17c4.23,0,7.66,1.35,7.66,3s-3.43,3-7.66,3-7.66-1.35-7.66-3S9.09,1.91,13.33,1.91Z"/><path class="cls-2" d="M19.08,15.21a7.23,7.23,0,0,1,3.82,1.1V11.47a1.15,1.15,0,0,0,0-.27c-.35,2-4.49,3.51-9.55,3.51s-9.2-1.55-9.55-3.51a1.66,1.66,0,0,0,0,.27V17c0,1.19,1.39,2.25,3.56,2.94a20.83,20.83,0,0,0,4.75.76A7.25,7.25,0,0,1,19.08,15.21Z"/><ellipse class="cls-3" cx="19.08" cy="22.35" rx="7.17" ry="7.15"/><text class="cls-4" transform="translate(14.25 24.71)">SQL</text></svg>