<?xml version="1.0" encoding="utf-8"?>
<!-- Generator: Adobe Illustrator 25.0.0, SVG Export Plug-In . SVG Version: 6.00 Build 0)  -->
<svg version="1.1" id="Layer_1" xmlns="http://www.w3.org/2000/svg" xmlns:xlink="http://www.w3.org/1999/xlink" x="0px" y="0px"
	 viewBox="0 0 36 36" style="enable-background:new 0 0 36 36;" xml:space="preserve">
<style type="text/css">
	.st0{fill:#0B4A99;}
</style>
<g>
	<g>
		<path class="st0" d="M26.1,29.5c-0.1,0-0.3,0-0.4,0c-0.8-0.1-1.4-0.5-1.9-1.1c-0.4-0.5-0.6-1.1-0.6-1.7c-0.6-0.3-1.1-0.9-1.3-1.5
			c-0.3-0.7-0.3-1.5,0.1-2.2c0.2-0.6,0.6-1,1.2-1.3c0-1,0.5-2,1.5-2.6c0.9-0.5,2-0.5,2.9,0c0.9-0.5,2-0.6,3,0
			c0.9,0.5,1.4,1.4,1.5,2.4c0.9,0.5,1.5,1.5,1.5,2.5v0c0,1-0.5,2-1.4,2.5c0,1-0.5,2-1.5,2.6c-0.9,0.5-2,0.5-2.9,0
			C27.2,29.3,26.6,29.5,26.1,29.5C26.1,29.5,26.1,29.5,26.1,29.5z M26,19.9c-0.3,0-0.6,0.1-0.8,0.2c-0.6,0.3-0.9,1-0.8,1.7l0.1,0.5
			L24,22.6c-0.4,0.2-0.7,0.5-0.9,0.8c-0.2,0.4-0.2,0.8,0,1.2c0.2,0.5,0.5,0.8,1,1l0.5,0.2l-0.1,0.5c-0.1,0.9,0.5,1.7,1.4,1.8
			c0.1,0,0.1,0,0.2,0c0,0,0,0,0,0c0.4,0,0.8-0.1,1.1-0.4l0.4-0.3l0.4,0.3c0.5,0.4,1.3,0.5,1.9,0.1c0.6-0.3,0.9-1,0.8-1.7l-0.1-0.5
			l0.5-0.2c0.6-0.2,1-0.8,1-1.5c0-0.7-0.5-1.3-1.1-1.5l-0.5-0.2l0.1-0.5c0.1-0.7-0.2-1.3-0.8-1.6c-0.6-0.3-1.4-0.3-1.9,0.2l-0.4,0.3
			L27,20.3C26.7,20,26.4,19.9,26,19.9z"/>
	</g>
	<g>
		<path class="st0" d="M9.2,16.4c-0.7,0-1.4-0.2-2-0.5c-1.4-0.8-2.2-2.3-2.1-3.8C4,11.6,3.2,10.7,2.8,9.6c-0.3-1-0.2-2.1,0.3-3.1
			c0.4-0.8,1.1-1.4,1.8-1.8c-0.2-1.6,0.6-3.2,2-4C8.3-0.1,10,0,11.3,0.8c1.3-1,3.1-1.1,4.5-0.3c1.4,0.8,2.2,2.3,2.1,3.8
			c1.5,0.6,2.5,2.1,2.5,3.7v0c0,1.6-0.9,3-2.3,3.7c0.2,1.6-0.6,3.2-2,4c-1.4,0.8-3.1,0.7-4.3-0.2C10.9,16.1,10.1,16.4,9.2,16.4z
			 M9,1.4c-0.5,0-1,0.1-1.4,0.4C6.5,2.4,5.9,3.7,6.3,4.9l0.2,0.6L5.8,5.7C4.4,6.1,3.6,7.7,4,9.2C4.3,10.1,5,10.8,6,11l0.6,0.2
			l-0.1,0.6c-0.2,1.2,0.3,2.4,1.4,3c1.1,0.6,2.5,0.4,3.4-0.4l0.4-0.4l0.4,0.4c0.9,0.8,2.3,0.9,3.3,0.3c1.1-0.6,1.6-1.9,1.3-3.1
			l-0.2-0.6l0.6-0.2c1.2-0.4,1.9-1.4,1.9-2.7c0-1.3-0.9-2.4-2.1-2.7l-0.6-0.2l0.1-0.6c0.3-1.2-0.3-2.4-1.3-3
			c-1.1-0.6-2.5-0.5-3.4,0.4l-0.4,0.4l-0.4-0.4C10.4,1.6,9.7,1.4,9,1.4z"/>
	</g>
	<g>
		<path class="st0" d="M9.2,27.4c-0.5,0-0.9-0.1-1.4-0.4c-0.8-0.5-1.3-1.3-1.4-2.2c-0.5-0.3-0.9-0.8-1.2-1.3c-0.5-1.2,0-2.6,1.1-3.3
			c0-1,0.5-1.9,1.4-2.4c0.8-0.5,1.8-0.5,2.6-0.1c0.8-0.5,1.9-0.5,2.7,0c0.8,0.5,1.3,1.3,1.4,2.2c0.8,0.5,1.4,1.4,1.4,2.3v0
			c0,1-0.5,1.8-1.3,2.3c0,1-0.5,1.9-1.4,2.3c-0.8,0.5-1.8,0.5-2.6,0.1C10.1,27.3,9.7,27.4,9.2,27.4C9.2,27.4,9.2,27.4,9.2,27.4z
			 M9.1,18.7c-0.3,0-0.5,0.1-0.7,0.2c-0.5,0.3-0.8,0.9-0.7,1.5L7.7,21l-0.5,0.2c-0.7,0.3-1.1,1.1-0.8,1.9c0.2,0.4,0.5,0.7,0.9,0.8
			L7.8,24l-0.1,0.5c-0.1,0.6,0.2,1.1,0.7,1.4c0.2,0.1,0.5,0.2,0.7,0.2c0,0,0,0,0,0c0.3,0,0.7-0.1,1-0.3l0.4-0.3l0.4,0.3
			c0.5,0.4,1.1,0.4,1.6,0.1c0.5-0.3,0.8-0.9,0.7-1.5l-0.1-0.5l0.5-0.2c0.5-0.2,0.9-0.7,0.9-1.3c0-0.6-0.4-1.1-1-1.3l-0.5-0.2
			l0.1-0.5c0.1-0.6-0.2-1.1-0.7-1.4c-0.5-0.3-1.2-0.2-1.7,0.2l-0.4,0.3L10,19C9.7,18.8,9.4,18.7,9.1,18.7z"/>
	</g>
	<g>
		<path class="st0" d="M24.1,18.3c-0.5,0-1.1-0.1-1.6-0.4c-1-0.6-1.6-1.6-1.6-2.7c-0.7-0.4-1.3-1-1.6-1.8c-0.5-1.5,0.1-3,1.4-3.8
			c-0.1-1.2,0.5-2.3,1.6-2.9c1-0.6,2.2-0.5,3.2,0c1-0.6,2.3-0.7,3.3-0.1c1,0.6,1.6,1.6,1.6,2.8c1.1,0.5,1.7,1.6,1.8,2.8v0
			c0,1.1-0.6,2.2-1.6,2.7c0.1,1.2-0.5,2.3-1.6,2.9c-1,0.6-2.2,0.5-3.2,0C25.3,18.1,24.7,18.3,24.1,18.3z M23.9,7.5
			c-0.3,0-0.7,0.1-0.9,0.3c-0.7,0.4-1.1,1.2-0.9,2l0.1,0.6l-0.5,0.2c-1,0.3-1.5,1.4-1.1,2.4c0.2,0.6,0.7,1,1.2,1.2l0.5,0.2l-0.1,0.6
			c-0.1,0.8,0.2,1.6,0.9,1.9c0.7,0.4,1.6,0.3,2.3-0.3l0.4-0.4l0.4,0.4c0.6,0.5,1.5,0.6,2.2,0.2c0.7-0.4,1.1-1.2,0.9-2l-0.1-0.6
			l0.5-0.2c0.7-0.3,1.2-1,1.2-1.7c0-0.8-0.5-1.5-1.3-1.8L29,10.2l0.1-0.6c0.1-0.8-0.2-1.6-0.9-1.9c-0.7-0.4-1.6-0.3-2.3,0.3
			l-0.4,0.4L25.1,8C24.8,7.7,24.4,7.5,23.9,7.5z"/>
	</g>
	<g>
		<path class="st0" d="M20,36l-1.3-0.1c0.7-14.1-3.5-20.3-3.5-20.4l1-0.7C16.4,15.1,20.7,21.4,20,36z"/>
	</g>
	<g>
		<path class="st0" d="M17.7,19.4l-0.5-1.2c1.3-0.6,3.6-1.9,4-2.8l1.2,0.5C21.5,17.7,18.1,19.3,17.7,19.4z"/>
	</g>
	<g>
		<path class="st0" d="M18.3,26.6c-1.9,0-4.4-1.2-4.7-1.4l0.6-1.1c0.8,0.4,3.2,1.5,4.6,1.2l0.3,1.2C18.9,26.5,18.6,26.6,18.3,26.6z"
			/>
	</g>
	<g>
		<path class="st0" d="M19.7,29.5l-0.8-1c0.8-0.7,3.6-3,4.9-3c0,0,0,0,0.1,0l-0.1,1.3c0,0,0,0,0,0C23.3,26.9,21.4,28.1,19.7,29.5z"
			/>
	</g>
</g>
</svg>
