<?xml version="1.0" encoding="iso-8859-1"?>
<!-- Generator: Adobe Illustrator 12.0.0, SVG Export Plug-In . SVG Version: 6.00 Build 51448)  -->
<!DOCTYPE svg PUBLIC "-//W3C//DTD SVG 1.1//EN" "http://www.w3.org/Graphics/SVG/1.1/DTD/svg11.dtd" [
	<!ENTITY ns_svg "http://www.w3.org/2000/svg">
	<!ENTITY ns_xlink "http://www.w3.org/1999/xlink">
]>
<svg  version="1.1" id="Layer_1" xmlns="&ns_svg;" xmlns:xlink="&ns_xlink;" width="60.095" height="60.095"
	 viewBox="0 0 60.095 60.095" style="overflow:visible;enable-background:new 0 0 60.095 60.095;" xml:space="preserve">
<g>
	<path style="fill:#008FD3;" d="M60.095,52.176c0,4.37-3.771,7.919-8.43,7.919H8.437C3.778,60.095,0,56.546,0,52.176V7.923
		C0,3.55,3.778,0,8.437,0h43.229c4.658,0,8.43,3.55,8.43,7.923V52.176z M57.167,10.079c0-3.947-3.404-7.151-7.608-7.151H10.542
		c-4.204,0-7.614,3.204-7.614,7.151V50.02c0,3.944,3.41,7.147,7.614,7.147h39.017c4.204,0,7.608-3.203,7.608-7.147V10.079z"/>
	<g>
		<rect x="12.29" y="10.233" style="fill:#008FD3;" width="1.274" height="40.347"/>
		<path style="fill:#008FD3;" d="M17.773,13.471c0,0.915-0.742,1.656-1.656,1.656H9.702c-0.914,0-1.656-0.742-1.656-1.656v-6
			c0-0.914,0.742-1.656,1.656-1.656h6.416c0.915,0,1.656,0.742,1.656,1.656V13.471z"/>
		<path style="fill:#008FD3;" d="M31.409,26.498c0,0.915-0.743,1.656-1.657,1.656h-6.416c-0.914,0-1.655-0.742-1.655-1.656v-6.001
			c0-0.915,0.741-1.655,1.655-1.655h6.416c0.914,0,1.657,0.741,1.657,1.655V26.498z"/>
		<rect x="35.594" y="23.183" style="fill:#008FD3;" width="1.274" height="20.457"/>
		<rect x="12.456" y="23.178" style="fill:#008FD3;" width="9.3" height="1.275"/>
		<path style="fill:#008FD3;" d="M31.409,39.653c0,0.913-0.743,1.656-1.657,1.656h-6.416c-0.914,0-1.655-0.743-1.655-1.656v-6.002
			c0-0.914,0.741-1.655,1.655-1.655h6.416c0.914,0,1.657,0.741,1.657,1.655V39.653z"/>
		<rect x="12.456" y="36.333" style="fill:#008FD3;" width="9.3" height="1.275"/>
		<path style="fill:#008FD3;" d="M52.049,33.075c0,0.915-0.741,1.656-1.656,1.656h-6.416c-0.914,0-1.654-0.741-1.654-1.656v-6
			c0-0.915,0.74-1.655,1.654-1.655h6.416c0.915,0,1.656,0.741,1.656,1.655V33.075z"/>
		<rect x="31.401" y="23.178" style="fill:#008FD3;" width="5.463" height="1.275"/>
		<rect x="36.865" y="29.208" style="fill:#008FD3;" width="5.463" height="1.275"/>
		<rect x="36.865" y="42.362" style="fill:#008FD3;" width="5.463" height="1.274"/>
		<path style="fill:#008FD3;" d="M52.049,46.23c0,0.914-0.741,1.656-1.656,1.656h-6.416c-0.914,0-1.654-0.742-1.654-1.656v-6.002
			c0-0.913,0.74-1.654,1.654-1.654h6.416c0.915,0,1.656,0.741,1.656,1.654V46.23z"/>
		<path style="fill:#008FD3;" d="M31.409,52.626c0,0.914-0.743,1.654-1.657,1.654h-6.416c-0.914,0-1.655-0.74-1.655-1.654v-6.002
			c0-0.914,0.741-1.655,1.655-1.655h6.416c0.914,0,1.657,0.741,1.657,1.655V52.626z"/>
		<rect x="12.456" y="49.307" style="fill:#008FD3;" width="9.3" height="1.274"/>
	</g>
</g>
</svg>
