<?xml version="1.0" encoding="utf-8"?>
<!-- Generator: Adobe Illustrator 25.0.0, SVG Export Plug-In . SVG Version: 6.00 Build 0)  -->
<svg version="1.1" id="Layer_1" xmlns="http://www.w3.org/2000/svg" xmlns:xlink="http://www.w3.org/1999/xlink" x="0px" y="0px"
	 viewBox="0 0 36 36" style="enable-background:new 0 0 36 36;" xml:space="preserve">
<style type="text/css">
	.st0{fill:#7AB5F4;}
	.st1{fill:#FFFFFF;}
	.st2{fill:#0B4A99;}
	.st3{fill:#CB1618;}
	.st4{fill:none;}
	.st5{opacity:0.25;}
	.st6{fill:none;stroke:#0B4A99;stroke-width:3.000000e-02;stroke-miterlimit:10;}
</style>
<rect x="0.8" y="0.9" class="st0" width="18.5" height="17.1"/>
<g>
	<g>
		<path class="st2" d="M20,18.6H0V0.1h20V18.6z M1.3,17.4h17.5v-16H1.3V17.4z"/>
	</g>
	<g>
		<path class="st2" d="M36,11H18.8V0.1H36V11z M20,9.7h14.7V1.4H20V9.7z"/>
	</g>
	<g>
		<path class="st2" d="M28,35.9h-9.2V9.7H28V35.9z M20,34.6h6.7V11H20V34.6z"/>
	</g>
	<g>
		<path class="st2" d="M36,28.2h-9.2V9.7H36V28.2z M28,26.9h6.7V11H28V26.9z"/>
	</g>
	<g>
		<path class="st2" d="M36,35.9h-9.2v-8.9H36V35.9z M28,34.6h6.7v-6.4H28V34.6z"/>
	</g>
	<g>
		<path class="st2" d="M20,35.9H0V17.4h20V35.9z M1.3,34.6h17.5v-16H1.3V34.6z"/>
	</g>
</g>
</svg>
