<?xml version="1.0" encoding="utf-8"?>
<!-- Generator: Adobe Illustrator 25.0.0, SVG Export Plug-In . SVG Version: 6.00 Build 0)  -->
<svg version="1.1" id="Layer_1" xmlns="http://www.w3.org/2000/svg" xmlns:xlink="http://www.w3.org/1999/xlink" x="0px" y="0px"
	 viewBox="0 0 36 36" style="enable-background:new 0 0 36 36;" xml:space="preserve">
<style type="text/css">
	.st0{fill:#C2CCD3;stroke:#0B4A99;stroke-width:0.25;stroke-miterlimit:10;}
	.st1{fill:#0B4A99;}
	.st2{fill:#CB1618;}
	.st3{fill:none;}
	.st4{fill:none;stroke:#0B4A99;stroke-width:0.5;stroke-miterlimit:10;}
	.st5{opacity:0.25;}
	.st6{fill:none;stroke:#0B4A99;stroke-width:3.000000e-02;stroke-miterlimit:10;}
	.st7{fill:#7AB5F4;}
	.st8{fill:#C2CCD3;stroke:#0B4A99;stroke-width:0.5;stroke-miterlimit:10;}
	.st9{fill:#C2CCD3;stroke:#0B4A99;stroke-width:0.1;stroke-miterlimit:10;}
</style>
<g>
	<rect x="0.3" y="0.2" class="st0" width="18.2" height="17.9"/>
</g>
<g>
	<path class="st1" d="M18.9,18.3H0V0.1h18.9V18.3z M0.5,17.8h18V0.6h-18V17.8z"/>
</g>
<g>
	<path class="st1" d="M18.9,36H0V17.8h18.9V36z M0.5,35.5h18V18.3h-18V35.5z"/>
</g>
<g>
	<path class="st1" d="M36,11.4H18.5V0.1H36V11.4z M19,10.9h16.5V0.6H19V10.9z"/>
</g>
<g>
	<path class="st1" d="M27.5,36h-9V11h9V36z M19,35.5h8v-24h-8V35.5z"/>
</g>
<g>
	<path class="st1" d="M36,27.4h-9V10.9h9V27.4z M27.5,26.9h8V11.4h-8V26.9z"/>
</g>
<g>
	<path class="st1" d="M36,36h-9v-9h9V36z M27.5,35.5h8v-8h-8V35.5z"/>
</g>
</svg>
