<?xml version="1.0" encoding="utf-8"?>
<!-- Generator: Adobe Illustrator 25.0.0, SVG Export Plug-In . SVG Version: 6.00 Build 0)  -->
<svg version="1.1" id="Layer_1" xmlns="http://www.w3.org/2000/svg" xmlns:xlink="http://www.w3.org/1999/xlink" x="0px" y="0px"
	 viewBox="0 0 30 30" style="enable-background:new 0 0 30 30;" xml:space="preserve">
<style type="text/css">
	.st0{fill:#F5AC3A;}
	.st1{fill:#40875E;}
	.st2{fill:#ABA34A;}
	.st3{fill:#22663E;}
	.st4{fill:none;stroke:#40875E;stroke-miterlimit:10;}
</style>
<g>
	<rect x="0.5" y="5.2" class="st0" width="29" height="7.7"/>
	<path class="st1" d="M30,13.5H0V4.7h30V13.5z M1,12.4h28V5.7H1V12.4z"/>
	<line class="st4" x1="7.1" y1="4.9" x2="7.1" y2="13.3"/>
	<line class="st4" x1="15" y1="4.9" x2="15" y2="13.3"/>
	<line class="st4" x1="22.9" y1="4.9" x2="22.9" y2="13.3"/>
	<polygon class="st2" points="3.8,17.7 3.8,20.4 5,20.4 5,17.7 6.3,17.7 4.4,14.4 2.5,17.7 	"/>
	<polygon class="st2" points="26.1,17.1 26.1,14.4 24.9,14.4 24.9,17.1 23.6,17.1 25.5,20.4 27.4,17.1 	"/>
	<polygon class="st2" points="15.3,26.4 18,26.4 18,25.2 15.3,25.2 15.3,23.9 12,25.8 15.3,27.7 	"/>
	<g>
		<path class="st1" d="M4.4,25v-0.4c0.1,0,0.1,0,0.2,0c0.3,0,0.5-0.1,0.6-0.3c0.1-0.2,0.2-0.4,0.2-0.7c0-0.2,0-0.4-0.1-0.6
			c-0.1-0.2-0.3-0.3-0.5-0.3c-0.2,0-0.4,0.1-0.5,0.3c-0.1,0.1-0.2,0.3-0.2,0.6l-0.1,0c-0.1-0.1-0.2-0.2-0.2-0.2
			c-0.1-0.1-0.2-0.2-0.2-0.2c0.2-0.3,0.4-0.4,0.6-0.6c0.2-0.1,0.5-0.2,0.8-0.2c0.5,0,0.8,0.1,1.1,0.3c0.3,0.2,0.4,0.5,0.4,0.8
			c0,0.3-0.1,0.5-0.2,0.7c-0.1,0.2-0.4,0.3-0.7,0.4l-0.1,0c0,0,0,0.1,0,0.1c0.1,0,0.2,0,0.2,0c0.4,0.1,0.7,0.2,0.8,0.4
			c0.1,0.2,0.2,0.4,0.2,0.7c0,0.4-0.2,0.8-0.5,1.1c-0.4,0.3-0.8,0.4-1.3,0.4c-0.3,0-0.5,0-0.8-0.1c-0.3-0.1-0.5-0.2-0.6-0.4
			c0.1-0.1,0.2-0.2,0.2-0.3s0.2-0.2,0.2-0.3l0.1,0c0,0.2,0.1,0.4,0.2,0.6C4.3,26.9,4.5,27,4.7,27c0.2,0,0.5-0.1,0.6-0.3
			c0.1-0.2,0.2-0.4,0.2-0.7c0-0.5-0.1-0.8-0.4-0.9C5.1,25,4.8,25,4.4,25z"/>
	</g>
	<g>
		<path class="st1" d="M23.8,27.3v-4.9h1.9c0.4,0,0.7,0.1,1,0.2c0.3,0.2,0.4,0.5,0.4,0.9c0,0.3-0.1,0.6-0.4,0.8
			c-0.2,0.2-0.5,0.3-0.8,0.4v0.1c0.3,0,0.6,0.1,0.8,0.3c0.3,0.2,0.5,0.5,0.5,0.9c0,0.5-0.2,0.8-0.5,1.1c-0.3,0.2-0.7,0.3-1.2,0.3
			H23.8z M24.9,22.9v1.7h0.2c0.1,0,0.2,0,0.3,0c0.1,0,0.2-0.1,0.3-0.1c0.1-0.1,0.2-0.2,0.2-0.3c0.1-0.1,0.1-0.3,0.1-0.4
			c0-0.3-0.1-0.4-0.2-0.6c-0.1-0.1-0.3-0.2-0.6-0.2C25.1,22.8,25,22.8,24.9,22.9z M24.9,25v2h0.4c0.2,0,0.4-0.1,0.6-0.3
			c0.2-0.2,0.3-0.4,0.3-0.7c0-0.4-0.1-0.6-0.3-0.8C25.6,25,25.3,25,24.9,25z"/>
	</g>
</g>
</svg>
