<?xml version="1.0" encoding="utf-8"?>
<!-- Generator: Adobe Illustrator 25.0.0, SVG Export Plug-In . SVG Version: 6.00 Build 0)  -->
<svg version="1.1" id="Layer_1" xmlns="http://www.w3.org/2000/svg" xmlns:xlink="http://www.w3.org/1999/xlink" x="0px" y="0px"
	 viewBox="0 0 30 30" style="enable-background:new 0 0 30 30;" xml:space="preserve">
<style type="text/css">
	.st0{fill:#ABA34A;}
	.st1{fill:#F5AC3A;}
	.st2{fill:#40875E;}
</style>
<g>
	<rect x="0.5" y="2.8" class="st0" width="29" height="10.3"/>
	<rect x="0.5" y="13" class="st1" width="29" height="10.3"/>
	<path class="st2" d="M30,23.8H0V2.2h30V23.8z M1,22.8h28V3.3H1V22.8z"/>
	<g>
		<g>
			<rect x="7.3" y="2.9" class="st2" width="1" height="20.3"/>
		</g>
		<g>
			<rect x="14.5" y="2.9" class="st2" width="1" height="20.3"/>
		</g>
		<g>
			<rect x="21.7" y="2.9" class="st2" width="1" height="20.3"/>
		</g>
		<g>
			<rect x="0.8" y="12.5" class="st2" width="28.4" height="1"/>
		</g>
	</g>
	<g>
		<g>
			<path class="st2" d="M19,14.3c-0.4-0.1-1-0.1-1.7-0.2c-0.7,0-1.2,0-1.5,0.1c-0.3,0.1-0.8,0.4-1.5,0.9c-0.7,0.5-1.6,1.3-2.8,2.4
				c-1.1,1.1-2.2,2.2-3,3.2c-0.8,0.9-1.6,1.9-2.5,3c0,0,0,0,0,0c-0.1,0.1-0.2,0.2-0.2,0.3c0,0,0,0,0,0c-0.8,1-1.9,2.8-1.6,4.1
				c0,0,0,0.1,0.1,0.1c0.1,0.1,0.3,0.2,0.4,0.2c0.2,0.1,0.3,0.1,0.5,0.2c0.2,0,0.3,0,0.5,0c0.8-0.1,1.6-0.3,2.4-0.7
				c0.1-0.1,0.3-0.2,0.4-0.4c0,0,0,0,0,0c1.3-2,3-4.1,5-6.2c2-2,3.8-3.6,5.5-4.6c0.4-0.2,0.7-0.4,0.8-0.6c0.2-0.2,0.3-0.4,0.3-0.6
				c0.1-0.3,0-0.6-0.2-0.8C19.6,14.5,19.3,14.3,19,14.3z"/>
		</g>
		<g>
			<path class="st2" d="M16.8,24.5c-0.5-0.7-1.2-1.6-2.3-2.6c-1-1.1-2-2.1-3-2.9c-0.8-0.7-1.8-1.5-2.7-2.2c-0.1,0-0.1-0.1-0.2-0.1
				c-0.8-0.8-1.7-1.3-2.8-1.7c0,0-0.1,0-0.1,0c-0.5-0.1-0.9-0.1-1.3,0c-0.1,0-0.1,0.1-0.2,0.1c-0.1,0.2-0.2,0.4-0.2,0.7
				c0,0.1,0,0.1,0,0.2c0,0.1,0,0.2,0,0.4c0.1,0.7,0.3,1.4,0.6,2c0.1,0.2,0.2,0.4,0.4,0.6c0,0,0.1,0,0.1,0.1c1.9,1.3,3.9,2.9,5.9,4.8
				c1.9,1.9,3.4,3.6,4.4,5.2c0.2,0.4,0.4,0.6,0.5,0.8c0.2,0.1,0.3,0.2,0.6,0.3c0.3,0.1,0.6,0,0.8-0.1c0.2-0.2,0.4-0.4,0.5-0.7
				c0.1-0.4,0.1-0.9,0.2-1.6c0-0.7,0-1.1-0.1-1.4C17.5,25.7,17.2,25.2,16.8,24.5z"/>
		</g>
	</g>
</g>
</svg>
