<?xml version="1.0" encoding="utf-8"?>
<!-- Generator: Adobe Illustrator 25.0.0, SVG Export Plug-In . SVG Version: 6.00 Build 0)  -->
<svg version="1.1" id="Layer_1" xmlns="http://www.w3.org/2000/svg" xmlns:xlink="http://www.w3.org/1999/xlink" x="0px" y="0px"
	 viewBox="0 0 30 30" style="enable-background:new 0 0 30 30;" xml:space="preserve">
<style type="text/css">
	.st0{fill:#ABA34A;}
	.st1{fill:#F5AC3A;}
	.st2{fill:#40875E;}
</style>
<g>
	<path class="st0" d="M15,24.9l-3.6-2.6L1.2,29.5C1.6,29.8,2.1,30,2.6,30h24.7c0.5,0,1.1-0.2,1.4-0.5l-10.2-7.2L15,24.9z"/>
	<polygon class="st0" points="29.4,28.6 29.4,14.4 19.5,21.6 	"/>
	<polygon class="st0" points="0.6,14.5 0.6,28.6 10.5,21.6 	"/>
	<path class="st1" d="M28.3,14.1c0.6-0.5,0.6-1.3,0-1.7H1.7c-0.6,0.5-0.6,1.3,0,1.7l12.2,8.7c0.6,0.5,1.5,0.5,2.1,0L28.3,14.1z"/>
	<path class="st2" d="M28.3,9.8l-8.4-9.7c-0.1-0.2-0.4-0.2-0.5,0L11,9.8c-0.2,0.2,0,0.6,0.3,0.6h4.3c0.2,0,0.4,0.2,0.4,0.4v8.1
		c0,0.2,0.2,0.4,0.4,0.4h6.8c0.2,0,0.4-0.2,0.4-0.4v-8.1c0-0.2,0.2-0.4,0.4-0.4h4.3C28.4,10.4,28.5,10.1,28.3,9.8z"/>
</g>
</svg>
