<?xml version="1.0" encoding="iso-8859-1"?>
<!-- Generator: Adobe Illustrator 12.0.0, SVG Export Plug-In . SVG Version: 6.00 Build 51448)  -->
<!DOCTYPE svg PUBLIC "-//W3C//DTD SVG 1.1//EN" "http://www.w3.org/Graphics/SVG/1.1/DTD/svg11.dtd" [
	<!ENTITY ns_svg "http://www.w3.org/2000/svg">
	<!ENTITY ns_xlink "http://www.w3.org/1999/xlink">
]>
<svg  version="1.1" id="Layer_1" xmlns="&ns_svg;" xmlns:xlink="&ns_xlink;" width="15.873" height="15.874"
	 viewBox="0 0 15.873 15.874" style="overflow:visible;enable-background:new 0 0 15.873 15.874;" xml:space="preserve">
<g>
	<rect style="fill:none;" width="15.873" height="15.874"/>
	<g>
		<circle style="fill:#4099FF;" cx="7.938" cy="7.937" r="7.686"/>
		<path style="fill:#FFFFFF;" d="M11.689,6.012c0.006,0.083,0.008,0.167,0.008,0.25c0,2.561-1.949,5.512-5.512,5.512
			c-1.093,0-2.111-0.32-2.97-0.87c0.152,0.018,0.306,0.027,0.463,0.027c0.908,0,1.743-0.311,2.406-0.829
			c-0.848-0.017-1.563-0.576-1.81-1.346c0.117,0.023,0.239,0.035,0.364,0.035c0.177,0,0.348-0.023,0.51-0.068
			C4.262,8.545,3.595,7.762,3.595,6.823c0-0.007,0-0.017,0-0.024c0.261,0.146,0.56,0.232,0.877,0.242
			C3.952,6.693,3.61,6.101,3.61,5.429c0-0.355,0.096-0.688,0.262-0.974c0.957,1.171,2.384,1.943,3.993,2.024
			c-0.033-0.141-0.05-0.291-0.05-0.442c0-1.069,0.867-1.937,1.936-1.937c0.557,0,1.063,0.236,1.414,0.612
			c0.441-0.086,0.855-0.249,1.23-0.47c-0.145,0.452-0.451,0.832-0.852,1.071c0.393-0.046,0.766-0.15,1.113-0.305
			C12.398,5.397,12.07,5.739,11.689,6.012z"/>
	</g>
</g>
</svg>
