<?xml version="1.0" encoding="utf-8"?>
<!-- Generator: Adobe Illustrator 25.0.0, SVG Export Plug-In . SVG Version: 6.00 Build 0)  -->
<svg version="1.1" id="Layer_1" xmlns="http://www.w3.org/2000/svg" xmlns:xlink="http://www.w3.org/1999/xlink" x="0px" y="0px"
	 viewBox="0 0 16 16" style="enable-background:new 0 0 16 16;" xml:space="preserve">
<style type="text/css">
	.st0{fill:#FFFFFF;}
</style>
<path class="st0" d="M15.9,3c-0.5,0.2-1.1,0.4-1.6,0.5c0.3,0,0.6-0.5,0.8-0.7c0.2-0.3,0.4-0.6,0.5-1c0,0,0-0.1,0-0.1
	c0,0-0.1,0-0.1,0C15,2,14.3,2.3,13.6,2.4c-0.1,0-0.1,0-0.1,0c-0.1-0.1-0.1-0.1-0.2-0.2c-0.3-0.2-0.6-0.4-0.9-0.6
	C12,1.5,11.5,1.4,11,1.4c-0.5,0-0.9,0.2-1.4,0.4C9.2,2,8.8,2.3,8.5,2.7C8.2,3.1,8,3.5,7.9,4c-0.1,0.5-0.1,0.9,0,1.4
	c0,0.1,0,0.1-0.1,0.1C5.2,5.1,3,4.1,1.2,2.1C1.1,2,1.1,2,1,2.1c-0.8,1.2-0.4,3,0.6,4C1.7,6.2,1.9,6.3,2,6.4c0,0-0.7-0.1-1.3-0.4
	C0.6,6,0.6,6,0.6,6.1c0,0.1,0,0.2,0,0.4c0.1,1.2,1,2.3,2.1,2.7C2.8,9.2,3,9.3,3.1,9.3c-0.2,0.1-0.5,0.1-1.2,0c-0.1,0-0.1,0-0.1,0.1
	c0.5,1.5,1.7,1.9,2.6,2.2c0.1,0,0.2,0,0.4,0.1c0,0,0,0,0,0c-0.3,0.4-1.3,0.8-1.8,0.9c-0.9,0.3-1.8,0.4-2.7,0.4c-0.2,0-0.2,0-0.2,0
	s0,0.1,0,0.1c0.2,0.1,0.4,0.2,0.6,0.3c0.6,0.3,1.2,0.6,1.8,0.7c3.3,0.9,6.9,0.2,9.4-2.2c1.9-1.9,2.6-4.6,2.6-7.2
	c0-0.1,0.1-0.2,0.2-0.2c0.5-0.4,0.9-0.8,1.3-1.3C16,3.2,16,3,15.9,3C16,3,16,3,15.9,3C16,3,16,3,15.9,3z"/>
</svg>
