<?xml version="1.0" encoding="utf-8"?>
<!-- Generator: Adobe Illustrator 25.0.0, SVG Export Plug-In . SVG Version: 6.00 Build 0)  -->
<svg version="1.1" id="Layer_1" xmlns="http://www.w3.org/2000/svg" xmlns:xlink="http://www.w3.org/1999/xlink" x="0px" y="0px"
	 viewBox="0 0 24 24" style="enable-background:new 0 0 24 24;" xml:space="preserve">
<style type="text/css">
	.st0{fill:none;}
	.st1{fill:url(#SVGID_1_);}
</style>
<rect x="3.9" y="3.4" class="st0" width="15.9" height="15.9"/>
<linearGradient id="SVGID_1_" gradientUnits="userSpaceOnUse" x1="0" y1="12" x2="24" y2="12">
	<stop  offset="0" style="stop-color:#25B6EB"/>
	<stop  offset="1" style="stop-color:#1EAFD7"/>
</linearGradient>
<path class="st1" d="M21.5,7.1c0,0.2,0,0.4,0,0.6c0,6.5-5,14-14,14c-2.8,0-5.4-0.8-7.5-2.2c0.4,0,0.8,0.1,1.2,0.1
	c2.3,0,4.4-0.8,6.1-2.1c-2.2,0-4-1.5-4.6-3.4c0.3,0.1,0.6,0.1,0.9,0.1c0.4,0,0.9-0.1,1.3-0.2C2.7,13.5,1,11.6,1,9.2c0,0,0,0,0-0.1
	c0.7,0.4,1.4,0.6,2.2,0.6C1.9,8.8,1,7.3,1,5.6c0-0.9,0.2-1.7,0.7-2.5c2.4,3,6.1,4.9,10.1,5.1c-0.1-0.4-0.1-0.7-0.1-1.1
	c0-2.7,2.2-4.9,4.9-4.9c1.4,0,2.7,0.6,3.6,1.6c1.1-0.2,2.2-0.6,3.1-1.2c-0.4,1.1-1.1,2.1-2.2,2.7c1-0.1,1.9-0.4,2.8-0.8
	C23.3,5.5,22.5,6.4,21.5,7.1z"/>
</svg>
