<svg id="Layer_1" data-name="Layer 1" xmlns="http://www.w3.org/2000/svg" viewBox="0 0 30 30"><defs><style>.cls-1{fill:#576d7e;}</style></defs><title>TXT Icon</title><path class="cls-1" d="M4.94,30a1.66,1.66,0,0,1-.82-1.6q0-13.39,0-26.77C4.13.38,4.5,0,5.76,0,10.18,0,14.6,0,19,0a1.5,1.5,0,0,1,1.26.58c1.71,2,3.46,3.93,5.15,5.93a2,2,0,0,1,.43,1.18c0,6.9,0,13.81,0,20.71a1.66,1.66,0,0,1-.82,1.6ZM24.67,7.76H24c-1.4,0-2.8,0-4.2,0-.59,0-.85-.23-.84-.83,0-1.4,0-2.8,0-4.2,0-.5,0-1,0-1.5H5.35V20H24.67ZM18.14,28.59c-.61-1.06-1.13-2-1.72-3a1.1,1.1,0,0,1,0-1.37c.57-.88,1.06-1.82,1.63-2.82a11.89,11.89,0,0,1-1.24,0,.75.75,0,0,0-.88.58c-.23.6-.52,1.19-.83,1.88-.35-.75-.65-1.41-1-2.06-.08-.16-.25-.36-.39-.37-.51,0-1,0-1.65,0a25.6,25.6,0,0,0,1.35,2.36,1.72,1.72,0,0,1,0,2.3A25.09,25.09,0,0,0,12,28.59a10.84,10.84,0,0,1,1.2,0,.79.79,0,0,0,.93-.61c.24-.63.55-1.23.87-1.94.38.77.7,1.45,1.06,2.1a.84.84,0,0,0,.51.42A13.47,13.47,0,0,0,18.14,28.59Zm3.94-5.77H24V21.48H18.56v1.33h1.86v5.72h1.65ZM11.45,21.49H6v1.34H7.91v5.7H9.54V22.78h1.91Z"/><path class="cls-1" d="M14.81,11.21c-1.66,0-3.33,0-5,0-.23,0-.46-.22-.69-.34.23-.14.46-.41.69-.41q5,0,10,0c.23,0,.45.27.68.42-.23.12-.45.33-.68.33C18.18,11.23,16.49,11.21,14.81,11.21Z"/><path class="cls-1" d="M14.83,16.75h4.79a1.5,1.5,0,0,1,.53,0,1.6,1.6,0,0,1,.4.35,2.06,2.06,0,0,1-.39.35c-.1.06-.26,0-.39,0H9.93a.94.94,0,0,1-.39,0,2.19,2.19,0,0,1-.4-.35c.13-.12.24-.29.39-.35a1.47,1.47,0,0,1,.53,0Z"/><path class="cls-1" d="M14.79,14.3c-1.66,0-3.32,0-5,0-.23,0-.63-.2-.65-.33,0-.48.38-.38.67-.38,3.35,0,6.69,0,10,0,.23,0,.63.19.65.33,0,.48-.38.38-.67.38Z"/><path class="cls-1" d="M12.76,7.32c1,0,2,0,3.06,0,.19,0,.38.24.56.38-.19.11-.37.32-.56.33q-3.06,0-6.13,0c-.18,0-.37-.21-.55-.32.18-.13.36-.38.55-.39C10.72,7.3,11.74,7.32,12.76,7.32Z"/></svg>