<?xml version="1.0" encoding="utf-8"?>
<!-- Generator: Adobe Illustrator 25.0.0, SVG Export Plug-In . SVG Version: 6.00 Build 0)  -->
<svg version="1.1" id="Layer_1" xmlns="http://www.w3.org/2000/svg" xmlns:xlink="http://www.w3.org/1999/xlink" x="0px" y="0px"
	 viewBox="0 0 36 36" style="enable-background:new 0 0 36 36;" xml:space="preserve">
<style type="text/css">
	.st0{fill:#40875E;}
	.st1{fill:#0B4A99;}
	.st2{font-family:'Optima-Bold';}
	.st3{font-size:5.8114px;}
</style>
<text transform="matrix(1 0 0 1 6.621 9.5883)"><tspan x="0" y="0" class="st1 st2 st3">1</tspan><tspan x="0" y="5.7" class="st1 st2 st3">2</tspan><tspan x="0" y="11.5" class="st1 st2 st3">3</tspan></text>
<g>
	<text transform="matrix(1 0 0 1 18.7859 19.5773)"><tspan x="0" y="0" class="st1 st2 st3">A</tspan><tspan x="0" y="5.7" class="st1 st2 st3">B</tspan><tspan x="0" y="11.5" class="st1 st2 st3">C</tspan></text>
</g>
<g>
	<polygon class="st1" points="11.2,26.6 3,26.6 3,0 18.4,0 23.5,5.5 23.5,7.9 22.5,7.9 22.5,5.9 17.9,1 4,1 4,25.6 11.2,25.6 	"/>
	<polygon class="st1" points="23,6.2 17.6,6.2 17.6,0.3 18.5,0.3 18.5,5.2 23,5.2 	"/>
	<polygon class="st1" points="33,36 12.5,36 12.5,9.4 27.9,9.4 33,14.9 33,35.3 32,35.3 32,15.3 27.4,10.4 13.5,10.4 13.5,35 33,35 
			"/>
	<polygon class="st1" points="32.5,15.6 27.1,15.6 27.1,9.8 28,9.8 28,14.6 32.5,14.6 	"/>
</g>
</svg>
