<?xml version="1.0" encoding="utf-8"?>
<!-- Generator: Adobe Illustrator 25.0.0, SVG Export Plug-In . SVG Version: 6.00 Build 0)  -->
<svg version="1.1" id="Layer_1" xmlns="http://www.w3.org/2000/svg" xmlns:xlink="http://www.w3.org/1999/xlink" x="0px" y="0px"
	 viewBox="0 0 36 36" style="enable-background:new 0 0 36 36;" xml:space="preserve">
<style type="text/css">
	.st0{fill:#FFFFFF;}
</style>
<g>
	<g>
		<g>
			<path class="st0" d="M18,36C8.1,36,0,27.9,0,18S8.1,0,18,0s18,8.1,18,18S27.9,36,18,36z M18,1C8.6,1,1,8.6,1,18s7.6,17,17,17
				s17-7.6,17-17S27.4,1,18,1z"/>
		</g>
	</g>
</g>
<g>
	<path class="st0" d="M16,26.7c-0.2,0-0.4-0.1-0.5-0.2l-8.2-7.8c-0.2-0.2-0.2-0.6,0-0.8c0.2-0.2,0.6-0.2,0.8,0l7.8,7.4L27.8,9.5
		c0.2-0.3,0.6-0.3,0.8-0.1c0.3,0.2,0.3,0.6,0.1,0.8L16.4,26.7h-0.2C16.1,26.7,16.1,26.7,16,26.7z M16.3,25.7L16.3,25.7
		C16.3,25.7,16.3,25.7,16.3,25.7z"/>
</g>
</svg>
