<?xml version="1.0" encoding="utf-8"?>
<!-- Generator: Adobe Illustrator 22.0.1, SVG Export Plug-In . SVG Version: 6.00 Build 0)  -->
<svg version="1.1" id="Layer_1" xmlns="http://www.w3.org/2000/svg" xmlns:xlink="http://www.w3.org/1999/xlink" x="0px" y="0px"
	 viewBox="0 0 30 30" style="enable-background:new 0 0 30 30;" xml:space="preserve">
<style type="text/css">
	.st0{fill:#FFFFFF;}
	.st1{fill:#0B4A99;}
	.st2{fill:#1172C9;}
	.st3{fill:#077C04;}
	.st4{fill:#FF0000;}
	.st5{fill:none;stroke:#0B4A99;stroke-width:20;stroke-miterlimit:10;}
	.st6{fill:none;stroke:#0B4A99;stroke-width:13;stroke-miterlimit:10;}
	.st7{fill:none;stroke:#0B4A99;stroke-width:18;stroke-miterlimit:10;}
</style>
<g>
	<circle class="st1" cx="5.5" cy="15.1" r="5.4"/>
	<rect x="9.8" y="13.7" class="st1" width="12.5" height="2.7"/>
	<path class="st4" d="M25.6,19.5c-2.4,0-4.4-2-4.4-4.4s2-4.4,4.4-4.4s4.4,2,4.4,4.4S28,19.5,25.6,19.5z M25.6,12.5
		c-1.4,0-2.6,1.2-2.6,2.6s1.2,2.6,2.6,2.6c1.4,0,2.6-1.2,2.6-2.6S27,12.5,25.6,12.5z"/>
	<path class="st1" d="M20.1,22.6C17,16,9.4,16.4,9.3,16.4L9.2,14c0.1,0,2.4-0.1,5.1,0.7c3.7,1.1,6.5,3.5,8.1,6.8L20.1,22.6z"/>
	<path class="st1" d="M9.3,16.2c-0.3,0-0.4,0-0.5,0L9,13.8c0,0,2,0.1,4.3-0.6c3-1,5.2-2.8,6.5-5.5l2.2,1c-1.6,3.3-4.4,5.7-8.1,6.8
		C11.9,16.2,10.1,16.2,9.3,16.2z"/>
	<path class="st4" d="M21.2,8.8c-2.4,0-4.4-2-4.4-4.4s2-4.4,4.4-4.4s4.4,2,4.4,4.4S23.6,8.8,21.2,8.8z M21.2,1.8
		c-1.4,0-2.6,1.2-2.6,2.6s1.2,2.6,2.6,2.6c1.4,0,2.6-1.2,2.6-2.6S22.7,1.8,21.2,1.8z"/>
	<path class="st4" d="M21.2,29.9c-2.4,0-4.4-2-4.4-4.4c0-2.4,2-4.4,4.4-4.4s4.4,2,4.4,4.4C25.6,28,23.6,29.9,21.2,29.9z M21.2,22.9
		c-1.4,0-2.6,1.2-2.6,2.6c0,1.4,1.2,2.6,2.6,2.6c1.4,0,2.6-1.2,2.6-2.6C23.8,24.1,22.7,22.9,21.2,22.9z"/>
</g>
</svg>
