<?xml version="1.0" encoding="utf-8"?>
<!-- Generator: Adobe Illustrator 25.0.0, SVG Export Plug-In . SVG Version: 6.00 Build 0)  -->
<svg version="1.1" id="Layer_1" xmlns="http://www.w3.org/2000/svg" xmlns:xlink="http://www.w3.org/1999/xlink" x="0px" y="0px"
	 viewBox="0 0 36 36" style="enable-background:new 0 0 36 36;" xml:space="preserve">
<style type="text/css">
	.st0{fill:#CB1618;}
	.st1{fill:#185ABD;}
	.st2{fill:#D83039;}
	.st3{fill:#103F91;}
	.st4{fill:#185C37;}
	.st5{fill:#33C481;}
	.st6{fill:#107C41;}
	.st7{fill:#21A366;}
	.st8{fill:#0B4A99;}
	.st9{fill:none;}
	.st10{fill:#FFFFFF;}
	.st11{fill:#41A5EE;}
	.st12{fill:#2B7CD3;}
	.st13{opacity:0.5;enable-background:new    ;}
	.st14{fill:url(#SVGID_1_);}
	.st15{fill:url(#SVGID_2_);}
	.st16{fill:url(#SVGID_3_);}
	.st17{fill:url(#SVGID_4_);}
	.st18{fill:#E24951;}
	.st19{fill-rule:evenodd;clip-rule:evenodd;}
	.st20{fill:#262625;}
	.st21{fill:none;stroke:#000000;stroke-width:0.75;stroke-miterlimit:10;}
	.st22{fill:none;stroke:#000000;stroke-width:1.2;stroke-miterlimit:10;}
	.st23{fill-rule:evenodd;clip-rule:evenodd;fill:#0B4A99;}
	.st24{fill:none;stroke:#0071C5;stroke-width:1.3;stroke-linecap:round;stroke-miterlimit:10;}
	.st25{fill:none;stroke:#F0AB00;stroke-width:1.3;stroke-miterlimit:10;}
	.st26{fill:#1C55A6;}
	.st27{fill:none;stroke:#1C55A6;stroke-width:1.3;stroke-linecap:round;}
	.st28{fill-rule:evenodd;clip-rule:evenodd;fill:none;stroke:#1C55A6;stroke-width:1.3;stroke-linecap:round;}
	.st29{fill:none;stroke:#1C55A6;stroke-width:1.3;stroke-linecap:round;stroke-miterlimit:10;}
	.st30{fill:none;stroke:#231F20;}
	.st31{fill:none;stroke:#0B4A99;stroke-width:1.3;stroke-miterlimit:10;}
</style>
<g>
	<g>
		<path class="st8" d="M32.3,13.7c-0.5,0-1-0.2-1.4-0.6l-8.3-8.3c-0.8-0.8-0.8-2,0-2.8l2-2l11.1,11.1l-2,2
			C33.3,13.5,32.8,13.7,32.3,13.7z M24.6,1.8l-1.1,1.1c-0.3,0.3-0.3,0.7,0,1l8.3,8.3c0.3,0.3,0.7,0.3,1,0l1.1-1.1L24.6,1.8z"/>
	</g>
	<g>
		<path class="st8" d="M20.7,29.8l-14-14l3.4-3.4c0.8-0.8,2-0.8,2.8,0l11.3,11.3c0.8,0.8,0.8,2,0,2.8L20.7,29.8z M8.4,15.8L20.7,28
			l2.5-2.5c0.3-0.3,0.3-0.7,0-1L12,13.3c-0.3-0.3-0.7-0.3-1,0L8.4,15.8z"/>
	</g>
	<g>
		<path class="st8" d="M14.9,15.6l-0.5-1.2c3.9-1.7,7-4.7,9.5-9.1L24.9,6C22.3,10.6,18.9,13.8,14.9,15.6z"/>
	</g>
	<g>
		<path class="st8" d="M22,21.7l-1.2-0.5c1.7-4.1,4.9-7.5,9.5-10.2l0.6,1.1C26.6,14.7,23.6,17.8,22,21.7z"/>
	</g>
	<g>
		<path class="st8" d="M0.7,36c-0.1,0-0.2,0-0.3-0.1c-0.1-0.1-0.1-0.4,0-0.5L13.8,22c0.1-0.1,0.4-0.1,0.5,0c0.1,0.1,0.1,0.4,0,0.5
			L0.9,35.9C0.9,36,0.8,36,0.7,36z"/>
	</g>
	<g>
		<path class="st8" d="M34.6,35.4c-0.2,0-0.3-0.1-0.4-0.2L1.3,2.4c-0.2-0.2-0.2-0.6,0-0.9s0.6-0.2,0.9,0L35,34.4
			c0.2,0.2,0.2,0.6,0,0.9C34.9,35.4,34.7,35.4,34.6,35.4z"/>
	</g>
</g>
</svg>
