<?xml version="1.0" encoding="utf-8"?>
<!-- Generator: Adobe Illustrator 25.0.0, SVG Export Plug-In . SVG Version: 6.00 Build 0)  -->
<svg version="1.1" id="Layer_1" xmlns="http://www.w3.org/2000/svg" xmlns:xlink="http://www.w3.org/1999/xlink" x="0px" y="0px"
	 viewBox="0 0 20 20" style="enable-background:new 0 0 20 20;" xml:space="preserve">
<style type="text/css">
	.st0{fill:#0B4A99;}
	.st1{fill:none;stroke:#0B4A99;stroke-width:0.8;stroke-linecap:round;stroke-miterlimit:10;}
</style>
<path class="st0" d="M9.4,12.8H9l-2.1-2.1c-0.2-0.2-0.2-0.4,0-0.6c0.2-0.2,0.4-0.2,0.6,0l1.7,1.7l4.9-4.3c0.2-0.2,0.5-0.1,0.6,0
	c0.2,0.2,0.1,0.5,0,0.6L9.4,12.8z"/>
<g>
	<path class="st0" d="M10,19c-4.9,0-8.9-4-8.9-8.9h0.6c0,4.5,3.7,8.2,8.2,8.2s8.2-3.7,8.2-8.2S14.5,1.9,10,1.9V1.2
		c4.9,0,8.9,4,8.9,8.9S14.9,19,10,19z"/>
</g>
<g>
	<path class="st0" d="M6.3,2.7L6,2.2c0.8-0.4,1.7-0.7,2.6-0.8L8.7,2C7.9,2.1,7.1,2.4,6.3,2.7z"/>
</g>
<g>
	<path class="st0" d="M3.7,4.8L3.2,4.4c0.5-0.6,1-1.1,1.6-1.5l0.4,0.5C4.6,3.9,4.1,4.3,3.7,4.8z"/>
</g>
<g>
	<path class="st0" d="M2.2,7.3L1.6,7c0.2-0.6,0.5-1.1,0.8-1.6L3,5.8C2.7,6.2,2.4,6.8,2.2,7.3z"/>
</g>
</svg>
