<?xml version="1.0" encoding="utf-8"?>
<!-- Generator: Adobe Illustrator 25.0.0, SVG Export Plug-In . SVG Version: 6.00 Build 0)  -->
<svg version="1.1" id="Layer_1" xmlns="http://www.w3.org/2000/svg" xmlns:xlink="http://www.w3.org/1999/xlink" x="0px" y="0px"
	 viewBox="0 0 16 16" style="enable-background:new 0 0 16 16;" xml:space="preserve">
<style type="text/css">
	.st0{fill:#40875E;}
	.st1{fill:#A8A240;}
	.st2{fill:#F0AB00;}
</style>
<g>
	<path class="st0" d="M8.01,0C3.6,0,0.01,3.58,0,7.99c-0.01,4.41,3.58,8,7.99,8.01C12.4,16.01,16,12.42,16,8.01
		C16,3.6,12.42,0,8.01,0z M7.99,15.06c-3.89,0-7.05-3.16-7.05-7.06c0-3.89,3.17-7.05,7.06-7.05c3.9,0,7.06,3.16,7.06,7.07
		C15.06,11.9,11.89,15.06,7.99,15.06z"/>
	<path class="st1" d="M11.05,8.85c-0.25-0.09-0.52-0.14-0.8-0.16c-0.03,0.32-0.2,0.54-0.44,0.71C9.71,9.48,9.59,9.56,9.46,9.61
		c-0.97,0.41-1.94,0.41-2.91,0.01C6.15,9.44,5.81,9.18,5.74,8.69C5.68,8.69,5.62,8.7,5.56,8.71c-1.51,0.26-2.51,1.12-3.02,2.56
		c-0.02,0.06-0.01,0.11,0.02,0.16c1.36,2.17,3.93,3.34,6.46,2.91c1.89-0.32,3.35-1.3,4.4-2.9c0.04-0.06,0.05-0.12,0.03-0.2
		C13.04,10.06,12.24,9.26,11.05,8.85z"/>
	<path class="st2" d="M6.52,8.39C6.91,8.74,7.36,8.97,7.89,9c0.57,0.03,1.05-0.16,1.49-0.52c0.54-0.44,0.88-1.02,1.12-1.67
		c0.18-0.48,0.26-0.98,0.32-1.5c0.06-0.56,0.01-1.1-0.2-1.63C10.17,2.6,9.13,1.88,8,1.87C7.81,1.89,7.61,1.91,7.43,1.95
		C6.15,2.23,5.2,3.39,5.16,4.71C5.14,5.54,5.29,6.34,5.62,7.11C5.84,7.6,6.12,8.04,6.52,8.39z"/>
</g>
</svg>
