<?xml version="1.0" encoding="utf-8"?>
<!-- Generator: Adobe Illustrator 25.0.0, SVG Export Plug-In . SVG Version: 6.00 Build 0)  -->
<svg version="1.1" id="Layer_1" xmlns="http://www.w3.org/2000/svg" xmlns:xlink="http://www.w3.org/1999/xlink" x="0px" y="0px"
	 viewBox="0 0 100 100" style="enable-background:new 0 0 100 100;" xml:space="preserve">
<style type="text/css">
	.st0{fill-rule:evenodd;clip-rule:evenodd;fill:#40875E;}
	.st1{fill:none;stroke:#000201;stroke-miterlimit:10;}
	.st2{fill:#F0AB00;}
	.st3{fill:none;stroke:#000000;stroke-width:2;stroke-miterlimit:10;}
	.st4{fill:#A8A240;}
	.st5{fill:#40875E;}
	.st6{fill:none;}
	.st7{fill:#A69F3D;}
	.st8{fill:none;stroke:#000000;stroke-width:1.5;stroke-miterlimit:10;}
	.st9{fill-rule:evenodd;clip-rule:evenodd;fill:#A8A240;}
	.st10{fill-rule:evenodd;clip-rule:evenodd;fill:#F0AB00;}
</style>
<line class="st1" x1="65.44" y1="18.21" x2="75.46" y2="18.21"/>
<line class="st1" x1="65.44" y1="23.09" x2="75.46" y2="23.09"/>
<path class="st1" d="M89.38,45.36h-2.77c-0.33,0-0.61-0.22-0.7-0.54c-0.29-1.01-0.69-1.97-1.19-2.87c-0.16-0.29-0.12-0.64,0.11-0.87
	l1.96-1.96c0.28-0.28,0.28-0.74,0-1.02L83.4,34.7c-0.28-0.28-0.74-0.28-1.02,0l-1.96,1.96c-0.23,0.23-0.59,0.27-0.88,0.11
	c-0.9-0.5-1.86-0.9-2.87-1.19c-0.32-0.09-0.54-0.37-0.54-0.7v-2.77c0-0.4-0.32-0.72-0.72-0.72h-4.8c-0.4,0-0.72,0.32-0.72,0.72v2.77
	c0,0.33-0.22,0.61-0.54,0.7c-1.01,0.29-1.97,0.69-2.87,1.19c-0.14,0.08-0.31,0.11-0.46,0.09v11.61c0-3.86,3.13-6.99,6.99-6.99
	c3.86,0,6.99,3.13,6.99,6.99c0,3.86-3.13,6.99-6.99,6.99c-3.86,0-6.99-3.13-6.99-6.99v11.61c0.16-0.02,0.32,0.01,0.46,0.09
	c0.9,0.5,1.86,0.9,2.87,1.19c0.32,0.09,0.54,0.37,0.54,0.7v2.77c0,0.4,0.32,0.72,0.72,0.72h4.8c0.4,0,0.72-0.32,0.72-0.72v-2.77
	c0-0.33,0.22-0.61,0.54-0.7c1.01-0.29,1.97-0.69,2.87-1.19c0.29-0.16,0.64-0.12,0.88,0.11l1.96,1.96c0.28,0.28,0.74,0.28,1.02,0
	l3.39-3.39c0.28-0.28,0.28-0.74,0-1.02l-1.96-1.96c-0.23-0.23-0.27-0.59-0.11-0.88c0.5-0.9,0.9-1.85,1.19-2.86
	c0.09-0.32,0.37-0.54,0.7-0.54h2.77c0.4,0,0.72-0.32,0.72-0.72v-4.8C90.11,45.68,89.78,45.36,89.38,45.36z"/>
<polygon class="st2" points="33.65,15.42 33.65,35.34 36.7,35.34 36.7,18.47 64.02,18.47 64.02,31.49 67.07,31.49 67.07,15.42 "/>
<path class="st4" d="M2.5,78.38c1.85-0.77,8.96-3.78,10.85-4.58c0.25-0.11,0.54,0.02,0.64,0.27l7.31,18.8
	c0.09,0.24-0.02,0.52-0.26,0.62l-11.04,4.84c-0.26,0.11-0.56-0.01-0.65-0.28L2.23,79.01C2.14,78.76,2.26,78.48,2.5,78.38z"/>
<path class="st5" d="M16.83,74.83l10.96-5.58c0,0,6.6-4.66,19.12-1.36c0,0,15.33,6.36,16.74,6.79c1.41,0.44,7.57,1.8,6.89,4.76
	c-0.68,2.96-5.34,3.4-9.32,2.18c-3.61-1.1-10.29-1.84-11.5-1.97c-0.04,0-0.05,0.05-0.02,0.06c0.72,0.32,3.79,1.59,12,3.75
	c9.61,2.52,11.4-3.69,11.4-3.69s0.78-2.42-1.09-4.23c-0.07-0.07-0.04-0.18,0.05-0.2c1.12-0.21,6.12-1.17,8.65-2.12
	c2.86-1.07,14.41-3.4,15.72,1.41c1.31,4.8-28.29,14.94-28.29,14.94l-5.68,2.33c0,0-2.28,0.39-3.74,0s-19.41-4.76-19.41-4.76
	s-8.1-1.99-16.89,1.75L16.83,74.83z"/>
<circle class="st2" cx="16.52" cy="91.24" r="1.92"/>
<polygon class="st2" points="81.33,9.56 75.15,3.57 48.08,3.57 48.08,16.8 50.95,16.8 50.95,6.44 73.67,6.44 73.67,11 78.45,11 
	78.45,29.46 81.33,29.46 "/>
<path class="st4" d="M63.78,64.32H32.87c-1.76,0-3.18-1.43-3.18-3.18V37.35c0-1.76,1.43-3.18,3.18-3.18h30.92
	c1.76,0,3.18,1.43,3.18,3.18v23.79C66.96,62.89,65.54,64.32,63.78,64.32z M32.87,37.22c-0.07,0-0.13,0.06-0.13,0.13v23.79
	c0,0.07,0.06,0.13,0.13,0.13h30.92c0.07,0,0.13-0.06,0.13-0.13V37.35c0-0.07-0.06-0.13-0.13-0.13H32.87z"/>
<rect x="36.32" y="37.16" transform="matrix(0.5145 -0.8575 0.8575 0.5145 -20.1291 54.2486)" class="st4" width="3.05" height="15.47"/>
<rect x="51.15" y="43.38" transform="matrix(0.856 -0.517 0.517 0.856 -14.7385 36.8937)" class="st4" width="15.4" height="3.05"/>
<path class="st4" d="M49.85,53.68h-2.96c-2.17,0-3.94-1.77-3.94-3.94V48.2c0-2.17,1.77-3.94,3.94-3.94h2.96
	c2.17,0,3.94,1.77,3.94,3.94v1.54C53.79,51.91,52.02,53.68,49.85,53.68z M46.89,47.31c-0.49,0-0.89,0.4-0.89,0.89v1.54
	c0,0.49,0.4,0.89,0.89,0.89h2.96c0.49,0,0.89-0.4,0.89-0.89V48.2c0-0.49-0.4-0.89-0.89-0.89H46.89z"/>
<rect x="31.21" y="56.56" class="st4" width="27.64" height="3.05"/>
<rect x="60.93" y="56.56" class="st4" width="4.51" height="3.05"/>
<line class="st1" x1="53.79" y1="10.96" x2="70.03" y2="10.96"/>
<line class="st1" x1="39.88" y1="23.09" x2="59.91" y2="23.09"/>
<line class="st1" x1="39.88" y1="27.97" x2="59.91" y2="27.97"/>
</svg>
