<svg id="Layer_1" data-name="Layer 1" xmlns="http://www.w3.org/2000/svg" viewBox="0 0 36 36"><defs><style>.cls-1{fill:#0b4a99;}</style></defs><polygon class="cls-1" points="14.54 11.73 13.38 11.73 13.38 5.27 24.2 5.27 24.2 10.41 23.04 10.41 23.04 6.43 14.54 6.43 14.54 11.73"/><path class="cls-1" d="M22.52,33.73a2.35,2.35,0,0,1-.75-.11C21.4,33.5,17.5,32.56,15,32a9.86,9.86,0,0,0-5.61.58l-.53.22-2.54-6,4.31-2.16c.37-.25,2.81-1.7,7.21-.5,1.54.63,5.49,2.24,5.9,2.38l.25.08a5.87,5.87,0,0,1,2.06.91v-.63l.44-.19.66-.15c.71-.14,1.79-.37,2.39-.55s3.71-1.05,5.35-.18a1.77,1.77,0,0,1,.91,1.12c.47,1.8-5.34,4.24-10.29,6l-2,.78A4.24,4.24,0,0,1,22.52,33.73Zm-9.32-3.1a8.77,8.77,0,0,1,2.05.21c.64.15,6.35,1.5,6.88,1.68a2.29,2.29,0,0,0,1,0l1.93-.76c5-1.74,9.37-3.86,9.57-4.64a.72.72,0,0,0-.33-.32c-1-.53-3.57-.06-4.44.25-.64.2-1.67.41-2.4.57a2.29,2.29,0,0,1,0,1.34s-.81,2.72-4.74,1.71c-2.48-.68-3.65-1.11-4.08-1.27l-.17-.06.3-1.12.71.11a29,29,0,0,1,3.37.6,3.07,3.07,0,0,0,2.21,0,.53.53,0,0,0,.31-.37c0-.08-.12-.41-1.77-.89l-.3-.09c-.53-.17-5.37-2.15-5.92-2.38-4-1.11-6.18.36-6.2.37L7.78,27.29l1.67,4A11.32,11.32,0,0,1,13.2,30.63Z"/><path class="cls-1" d="M3.71,36,3.5,36l-.4-.12-.05-.34L.21,28.8c0-.6.25-.79.47-.85l1.79-.83,1.85-.87.23-.05a.88.88,0,0,1,.68.22l.09.09L8.23,33.3A.68.68,0,0,1,7.8,34L3.93,36ZM1.46,28.87,4,34.68l3-1.51-2.48-5.7L3,28.17Z"/><polygon class="cls-1" points="30.25 9.71 29.09 9.71 29.09 2.93 27.25 1.16 18.58 1.16 18.58 5.23 17.42 5.23 17.42 0 27.71 0 30.25 2.44 30.25 9.71"/><path class="cls-1" d="M23.53,22.57H12.65a1.74,1.74,0,0,1-1.72-1.72V12.52a1.75,1.75,0,0,1,1.72-1.73H23.53a1.75,1.75,0,0,1,1.72,1.73v8.33A1.74,1.74,0,0,1,23.53,22.57ZM12.65,12a.59.59,0,0,0-.56.57v8.33a.58.58,0,0,0,.56.56H23.53a.58.58,0,0,0,.56-.56V12.52a.59.59,0,0,0-.56-.57Z"/><rect class="cls-1" x="13.6" y="11.9" width="1.16" height="5.44" transform="translate(-5.65 19.26) rotate(-59.04)"/><rect class="cls-1" x="19.12" y="14.13" width="5.71" height="1.16" transform="translate(-4.45 13.55) rotate(-31.28)"/><path class="cls-1" d="M18.62,18.8H17.56a2,2,0,0,1-2-2v-.53a2,2,0,0,1,2-2h1.06a2,2,0,0,1,2,2v.53A2,2,0,0,1,18.62,18.8Zm-1.06-3.33a.8.8,0,0,0-.82.82v.53a.8.8,0,0,0,.82.82h1.06a.8.8,0,0,0,.82-.82v-.53a.8.8,0,0,0-.82-.82Z"/><rect class="cls-1" x="12.1" y="19.15" width="9.74" height="1.16"/><rect class="cls-1" x="22.54" y="19.15" width="1.58" height="1.16"/><rect class="cls-1" x="20.02" y="2.28" width="5.7" height="1.16"/><rect class="cls-1" x="24.75" y="5.55" width="3.35" height="1.16"/><rect class="cls-1" x="24.75" y="7.86" width="3.35" height="1.16"/><rect class="cls-1" x="15.83" y="7.17" width="5.67" height="1.16"/><rect class="cls-1" x="15.83" y="9.26" width="5.67" height="1.16"/><path class="cls-1" d="M27.79,23.58h-1V22.46h.68v-.6a.8.8,0,0,1,.58-.77,3.57,3.57,0,0,0,.83-.35.83.83,0,0,1,1,.13l.42.43.68-.68-.43-.42a.83.83,0,0,1-.13-1,3.57,3.57,0,0,0,.35-.83.8.8,0,0,1,.77-.58h.6v-1h-.6a.8.8,0,0,1-.77-.58,4.39,4.39,0,0,0-.35-.84.82.82,0,0,1,.13-1l.43-.42-.68-.68-.42.43a.83.83,0,0,1-1,.13,3.63,3.63,0,0,0-.83-.35.8.8,0,0,1-.58-.77v-.6h-.68V11.1h1a.8.8,0,0,1,.8.8v.69a4.91,4.91,0,0,1,.63.26l.49-.48a.76.76,0,0,1,.56-.24.8.8,0,0,1,.57.24L32,13.49a.79.79,0,0,1,0,1.13l-.48.49a4.91,4.91,0,0,1,.26.63h.69a.8.8,0,0,1,.8.8v1.6a.8.8,0,0,1-.8.8h-.69a4.91,4.91,0,0,1-.26.63l.48.49a.79.79,0,0,1,0,1.13l-1.12,1.12a.8.8,0,0,1-.57.24.9.9,0,0,1-.56-.24l-.49-.48a4.39,4.39,0,0,1-.63.26v.69A.8.8,0,0,1,27.79,23.58Zm2.26-2.06h0Zm1.26-2.12h0Zm-1.26-6.24Z"/><path class="cls-1" d="M27,20.22h-.2l.05-1.12H27a1.76,1.76,0,1,0,0-3.52h-.15l-.09-1.11,0,.56v-.57H27a2.88,2.88,0,1,1,0,5.76Z"/></svg>