<?xml version="1.0" encoding="utf-8"?>
<!-- Generator: Adobe Illustrator 22.0.1, SVG Export Plug-In . SVG Version: 6.00 Build 0)  -->
<svg version="1.1" id="Layer_1" xmlns="http://www.w3.org/2000/svg" xmlns:xlink="http://www.w3.org/1999/xlink" x="0px" y="0px"
	 viewBox="0 0 20 20" style="enable-background:new 0 0 20 20;" xml:space="preserve">
<style type="text/css">
	.st0{fill:#F5AC3A;}
	.st1{fill:#ABA34A;}
	.st2{fill:#FFFFFF;}
	.st3{fill:#0B4A99;}
	.st4{fill:#40875E;}
	.st5{fill:#F5AC3A;stroke:#ABA34A;stroke-width:0.5;}
	.st6{fill:#F5AC3A;stroke:#ABA34A;}
</style>
<path class="st6" d="M13.9,9.6L8.1,6.2C7.7,6,7.3,6.2,7.3,6.6v6.8c0,0.4,0.4,0.6,0.8,0.4l5.9-3.4C14.3,10.2,14.3,9.8,13.9,9.6z"/>
<g>
	<path class="st4" d="M10,20C4.5,20,0,15.5,0,10C0,4.5,4.5,0,10,0s10,4.5,10,10C20,15.5,15.5,20,10,20z M10,1.5
		c-4.7,0-8.5,3.8-8.5,8.5c0,4.7,3.8,8.5,8.5,8.5s8.5-3.8,8.5-8.5C18.5,5.3,14.7,1.5,10,1.5z"/>
</g>
</svg>
