<?xml version="1.0" encoding="utf-8"?>
<!-- Generator: Adobe Illustrator 22.0.1, SVG Export Plug-In . SVG Version: 6.00 Build 0)  -->
<svg version="1.1" id="Layer_1" xmlns="http://www.w3.org/2000/svg" xmlns:xlink="http://www.w3.org/1999/xlink" x="0px" y="0px"
	 viewBox="0 0 20 20" style="enable-background:new 0 0 20 20;" xml:space="preserve">
<style type="text/css">
	.st0{fill:#FFFFFF;}
	.st1{fill:#0B4A99;}
</style>
<g>
	<path class="st1" d="M10,19.9c-5.5,0-9.9-4.5-9.9-9.9S4.5,0.1,10,0.1s9.9,4.5,9.9,9.9S15.5,19.9,10,19.9z M10,1.1
		c-4.9,0-8.9,4-8.9,8.9s4,8.9,8.9,8.9s8.9-4,8.9-8.9S14.9,1.1,10,1.1z"/>
</g>
<path class="st1" d="M13.3,9.6L7.4,6.2C7.1,6,6.7,6.2,6.7,6.6v6.8c0,0.4,0.4,0.6,0.8,0.4l5.9-3.4C13.6,10.2,13.6,9.8,13.3,9.6z"/>
</svg>
