<?xml version="1.0" encoding="utf-8"?>
<!-- Generator: Adobe Illustrator 25.0.0, SVG Export Plug-In . SVG Version: 6.00 Build 0)  -->
<svg version="1.1" id="Layer_1" xmlns="http://www.w3.org/2000/svg" xmlns:xlink="http://www.w3.org/1999/xlink" x="0px" y="0px"
	 viewBox="0 0 36 36" style="enable-background:new 0 0 36 36;" xml:space="preserve">
<style type="text/css">
	.st0{fill:#7AB5F4;}
	.st1{fill:#FFFFFF;}
	.st2{fill:#0B4A99;}
	.st3{fill:#CB1618;}
	.st4{fill:none;}
	.st5{opacity:0.25;}
	.st6{fill:none;stroke:#0B4A99;stroke-width:3.000000e-02;stroke-miterlimit:10;}
</style>
<rect x="20.1" y="8.4" class="st0" width="3.6" height="17"/>
<polygon class="st2" points="36,36 0,36 0,0.7 1.2,0.7 1.2,34.8 36,34.8 "/>
<g>
	<path class="st2" d="M7.2,32.5H2.5v-7.9h4.7V32.5z M3.5,31.5h2.7v-5.9H3.5V31.5z"/>
</g>
<g>
	<path class="st2" d="M12.8,24.7H8.1v-8.3h4.7V24.7z M9.1,23.7h2.7v-6.3H9.1V23.7z"/>
</g>
<g>
	<path class="st2" d="M18.6,16.5h-4.7V8h4.7V16.5z M14.9,15.5h2.7V9h-2.7V15.5z"/>
</g>
<g>
	<path class="st2" d="M24.2,25.9h-4.7V8h4.7V25.9z M20.5,24.9h2.7V9h-2.7V24.9z"/>
</g>
<g>
	<path class="st2" d="M29.9,31.3h-4.7v-5.5h4.7V31.3z M26.2,30.3h2.7v-3.5h-2.7V30.3z"/>
</g>
<g>
	<path class="st2" d="M35.6,33.9H31v-2.7h4.7V33.9z M32,32.9h2.7v-0.7H32V32.9z"/>
</g>
<g>
	<g>
		<rect x="5.8" y="24.6" class="st2" width="3.9" height="0.1"/>
	</g>
</g>
<g>
	<g>
		<rect x="11.2" y="16.4" class="st2" width="3.9" height="0.1"/>
	</g>
</g>
<g>
	<g>
		<rect x="23.1" y="25.8" class="st2" width="3.9" height="0.1"/>
	</g>
</g>
<g>
	<g>
		<rect x="29" y="31.2" class="st2" width="3.9" height="0.1"/>
	</g>
</g>
<g>
	<rect x="17.8" y="8" class="st2" width="3.9" height="0.1"/>
</g>
</svg>
