<?xml version="1.0" encoding="utf-8"?>
<!-- Generator: Adobe Illustrator 22.0.1, SVG Export Plug-In . SVG Version: 6.00 Build 0)  -->
<svg version="1.1" id="Layer_1" xmlns="http://www.w3.org/2000/svg" xmlns:xlink="http://www.w3.org/1999/xlink" x="0px" y="0px"
	 viewBox="0 0 30 30" style="enable-background:new 0 0 30 30;" xml:space="preserve">
<style type="text/css">
	.st0{fill:#FF040F;}
	.st1{fill:#008520;}
	.st2{fill:#0C4B96;}
	.st3{fill:#FFAA24;}
	.st4{fill:#135D7A;}
	.st5{opacity:0.5;fill:none;stroke:#000000;stroke-width:3.000000e-02;stroke-miterlimit:10;}
	.st6{fill:#C63621;}
	.st7{fill:#F85544;}
	.st8{fill:#EFC150;}
	.st9{fill:#27314E;}
	.st10{fill:#063ABC;}
	.st11{fill:#C74E41;}
	.st12{fill:#C67E42;}
	.st13{fill:#2CBCBB;}
	.st14{fill:#134658;}
	.st15{fill:none;stroke:#134658;stroke-miterlimit:10;}
	.st16{fill:#2BBBBA;}
	.st17{fill:#8C7053;}
	.st18{fill:#A93B33;}
	.st19{fill:#2F99A5;}
	.st20{fill:#654538;}
	.st21{fill:#BE5141;}
	.st22{fill:none;stroke:#134658;stroke-width:0.75;stroke-miterlimit:10;}
	.st23{fill:none;}
	.st24{opacity:0.5;}
	.st25{fill:#55F2ED;}
	.st26{fill:#70B74F;}
	.st27{fill:#00A4F5;}
	.st28{fill:#F45DF4;}
	.st29{fill:#00457F;}
	.st30{fill:#48A030;}
	.st31{fill:#E8C67C;}
	.st32{fill:#FFD445;}
	.st33{fill:#FF431D;}
	.st34{fill:#39B0C7;}
	.st35{fill:#5379A9;}
	.st36{fill:#E84049;}
	.st37{fill:#F57C45;}
	.st38{fill:#F1602D;}
	.st39{fill:#945965;}
	.st40{fill:#5C55A8;}
	.st41{fill:#4673C5;}
	.st42{fill:#E68549;}
	.st43{fill:none;stroke:#000000;stroke-width:0.15;stroke-miterlimit:10;}
	.st44{fill:none;stroke:#000000;stroke-width:0.1;stroke-miterlimit:10;}
	.st45{font-family:'MyriadPro-Regular';}
	.st46{font-size:1.0605px;}
	.st47{opacity:0.5;fill:none;stroke:#000000;stroke-width:5.000000e-02;stroke-miterlimit:10;}
	.st48{fill:#278EAA;}
	.st49{fill:#39BCA9;}
	.st50{fill:#EFCC3C;}
	.st51{fill:#E04444;}
	.st52{fill:#F7C192;}
	.st53{fill:#E16956;}
	.st54{fill:#FCBA32;}
	.st55{fill:#ACDFE3;}
	.st56{fill:#5DC9CC;}
	.st57{fill:#D9442C;}
	.st58{fill:#F39200;}
	.st59{fill:#079DAB;}
	.st60{fill:#FDD07D;}
	.st61{fill:#E67239;}
	.st62{fill:#E94E1B;}
	.st63{fill:#F9B233;}
	.st64{fill:#FFFFFF;}
	.st65{fill:#808080;stroke:#808080;stroke-width:0.1;stroke-miterlimit:10;}
	.st66{fill:#33A4FF;stroke:#33A4FF;stroke-width:0.1;stroke-miterlimit:10;}
	.st67{fill:#33A4FF;}
	.st68{fill:url(#SVGID_1_);stroke:#FFA424;stroke-width:0.1;stroke-miterlimit:10;}
	.st69{fill:url(#SVGID_2_);stroke:#FFA424;stroke-width:0.1;stroke-miterlimit:10;}
	.st70{fill:url(#SVGID_5_);stroke:#FFA424;stroke-width:0.1;stroke-miterlimit:10;}
	.st71{fill:url(#SVGID_8_);stroke:#FFA424;stroke-width:0.1;stroke-miterlimit:10;}
	.st72{fill:url(#SVGID_13_);}
	.st73{fill:url(#SVGID_14_);stroke:#FF4040;stroke-width:0.1;stroke-miterlimit:10;}
	.st74{fill:url(#SVGID_15_);stroke:#FF4040;stroke-width:0.1;stroke-miterlimit:10;}
	.st75{fill:url(#SVGID_18_);stroke:#FF4040;stroke-width:0.1;stroke-miterlimit:10;}
	.st76{fill:url(#SVGID_21_);stroke:#FF4040;stroke-width:0.1;stroke-miterlimit:10;}
	.st77{fill:url(#SVGID_26_);}
	.st78{fill:url(#SVGID_27_);stroke:#00CF5D;stroke-width:0.1;stroke-miterlimit:10;}
	.st79{fill:url(#SVGID_28_);stroke:#00CF5D;stroke-width:0.1;stroke-miterlimit:10;}
	.st80{fill:url(#SVGID_32_);stroke:#00CF5D;stroke-width:0.1;stroke-miterlimit:10;}
	.st81{fill:url(#SVGID_35_);stroke:#00CF5D;stroke-width:0.1;stroke-miterlimit:10;}
	.st82{fill:url(#SVGID_40_);}
	.st83{opacity:0.25;}
	.st84{fill:#808080;}
	.st85{fill:#4D70DF;}
	.st86{fill:none;stroke:#000102;stroke-width:3;stroke-miterlimit:10;}
	.st87{fill:#7191E6;}
	.st88{fill:#6989E5;}
	.st89{fill:#839FEA;}
	.st90{fill:#809EE9;}
	.st91{fill:#587BE2;}
	.st92{fill:#5B7DE1;}
	.st93{fill:#7C9AE9;}
	.st94{fill:#6D8FE6;}
	.st95{fill:#5577E1;}
	.st96{fill:#5173E0;}
	.st97{fill:#6586E4;}
	.st98{fill:#7796E6;}
	.st99{fill:#94AFEC;}
	.st100{fill:#ACC0F0;}
	.st101{fill:#99B1EC;}
	.st102{fill:#BBCBF3;}
	.st103{fill:#8BA7EA;}
	.st104{fill:#C4D3F4;}
	.st105{fill:#CEDBF7;}
	.st106{fill:#7897E7;}
	.st107{fill:#6786E4;}
	.st108{fill:none;stroke:#000102;stroke-width:4;stroke-miterlimit:10;}
	.st109{fill:#000102;}
	.st110{fill:#FF1200;}
	.st111{fill:#002282;}
	.st112{fill:#00B1FF;}
	.st113{opacity:0.74;fill:#C63621;}
	.st114{opacity:0.74;fill:#0C4B96;}
	.st115{fill:#3C3C5E;}
	.st116{fill:#00C572;}
	.st117{fill:#FFAD24;}
	.st118{fill:none;stroke:#000000;stroke-width:0.25;stroke-miterlimit:10;}
</style>
<g>
	<polyline class="st43" points="4.1,7.9 4.1,24.6 29.2,24.6 	"/>
	<line class="st44" x1="9.2" y1="24.6" x2="9.2" y2="25.1"/>
	<line class="st44" x1="4.1" y1="7.9" x2="3.6" y2="7.9"/>
	<line class="st44" x1="4.1" y1="11.2" x2="3.6" y2="11.2"/>
	<line class="st44" x1="4.1" y1="14.5" x2="3.6" y2="14.5"/>
	<line class="st44" x1="4.1" y1="17.9" x2="3.6" y2="17.9"/>
	<line class="st44" x1="4.1" y1="21.2" x2="3.6" y2="21.2"/>
	<line class="st44" x1="14.2" y1="24.6" x2="14.2" y2="25.1"/>
	<line class="st44" x1="19.2" y1="24.6" x2="19.2" y2="25.1"/>
	<line class="st44" x1="24.2" y1="24.6" x2="24.2" y2="25.1"/>
	<line class="st44" x1="29.2" y1="24.6" x2="29.2" y2="25.1"/>
</g>
<text transform="matrix(1 0 0 1 0.6745 8.2033)" class="st45 st46">1000</text>
<text transform="matrix(1 0 0 1 1.2184 11.3517)" class="st45 st46">800</text>
<text transform="matrix(1 0 0 1 1.2184 14.7985)" class="st45 st46">600</text>
<text transform="matrix(1 0 0 1 1.2184 18.2453)" class="st45 st46">400</text>
<text transform="matrix(1 0 0 1 1.2184 21.6256)" class="st45 st46">200</text>
<text transform="matrix(1 0 0 1 2.2326 24.9069)" class="st45 st46">0</text>
<text transform="matrix(1 0 0 1 8.9601 26.4645)" class="st45 st46">2</text>
<text transform="matrix(1 0 0 1 13.9645 26.4645)" class="st45 st46">4</text>
<text transform="matrix(1 0 0 1 18.9689 26.4645)" class="st45 st46">6</text>
<text transform="matrix(1 0 0 1 23.9733 26.4645)" class="st45 st46">8</text>
<text transform="matrix(1 0 0 1 28.6208 26.5101)" class="st45 st46">10</text>
<path class="st113" d="M3.9,24.6L3.9,24.6c0,0,1.5,0,2.6-1.1s2.8-2.4,3.6-3.9s0.5-1.5,2-3.3c1.5-1.8,1.7-2.5,3.8-3
	c2.1-0.4,2.8-0.4,3.1,0.4c0.3,0.7,0.5,2,1,2.5c0.5,0.6,1.5,0.7,2.5,1.2c1,0.5,1.1,0.4,1.3,0.7c0.2,0.3-0.2,1,0.1,1.6s0.6,0.5,1,0.9
	c0.4,0.4,1.1,0.7,1.1,0.7s0.5-0.1,0.8,0.5s0.6,0.7,0.8,0.9c0.2,0.3,1.2,1.8,1.2,1.8H3.9z"/>
<path class="st114" d="M4.1,24.6l4,0.1c0,0,2.4-0.5,4.1-2.8s6.8-5.6,8.3-6.5s1.7-0.5,2.2-1.5c0.5-1,1.8-1.5,1.8-1.5s2.9-2.3,2.7,1.2
	c-0.1,1.4,0.3,1.9,0.3,3.8c0.1,1.9,0.3,1.8,0.6,2.9c0.3,1.1-0.4,1.2,0.3,1.7c0.6,0.5,0.8,0.5,1,1.1c0.3,0.5,0.2,1.5,0.2,1.5
	L4.1,24.6z"/>
<rect x="25.4" y="7.6" transform="matrix(-1 -4.420654e-11 4.420654e-11 -1 52.3776 16.0387)" class="st114" width="1.6" height="0.9"/>
<rect x="24.4" y="8.9" transform="matrix(-1 -4.433310e-11 4.433310e-11 -1 49.776 18.7621)" class="st114" width="1" height="0.9"/>
<rect x="19.7" y="10.3" transform="matrix(-1 -4.472657e-11 4.472657e-11 -1 45.0875 21.4979)" class="st114" width="5.7" height="0.9"/>
<rect x="19.2" y="11.9" transform="matrix(-1 -4.500190e-11 4.500190e-11 -1 40.0804 24.5879)" class="st114" width="1.8" height="0.9"/>
<rect x="14" y="13.2" transform="matrix(-1 -4.511248e-11 4.511248e-11 -1 33.6703 27.3237)" class="st115" width="5.7" height="0.9"/>
<rect x="12" y="16.1" transform="matrix(-1 -4.500634e-11 4.500634e-11 -1 31.7165 33.1184)" class="st115" width="7.6" height="0.9"/>
<rect x="8.2" y="14.5" transform="matrix(-1 -4.478607e-11 4.478607e-11 -1 19.3226 29.8857)" class="st115" width="2.9" height="0.9"/>
<rect x="12.8" y="17.6" transform="matrix(-1 -4.485890e-11 4.485890e-11 -1 28.0369 36.0781)" class="st115" width="2.5" height="0.9"/>
<rect x="9.3" y="19" transform="matrix(-1 -4.497170e-11 4.497170e-11 -1 21.2901 38.7951)" class="st6" width="2.6" height="0.9"/>
<rect x="7.8" y="20.4" transform="matrix(-1 -4.485890e-11 4.485890e-11 -1 18.0231 41.618)" class="st6" width="2.5" height="0.9"/>
<rect x="5.4" y="21.7" transform="matrix(-1 -4.513069e-11 4.513069e-11 -1 13.6075 44.273)" class="st6" width="2.8" height="0.9"/>
<rect x="4.3" y="23.2" transform="matrix(-1 -4.452673e-11 4.452673e-11 -1 9.7299 47.2946)" class="st6" width="1.1" height="0.9"/>
</svg>
