<?xml version="1.0" encoding="utf-8"?>
<!-- Generator: Adobe Illustrator 22.0.1, SVG Export Plug-In . SVG Version: 6.00 Build 0)  -->
<svg version="1.1" id="Layer_1" xmlns="http://www.w3.org/2000/svg" xmlns:xlink="http://www.w3.org/1999/xlink" x="0px" y="0px"
	 viewBox="0 0 30 30" style="enable-background:new 0 0 30 30;" xml:space="preserve">
<style type="text/css">
	.st0{fill:#FF040F;}
	.st1{fill:#008520;}
	.st2{fill:#0C4B96;}
	.st3{fill:#FFAA24;}
	.st4{fill:#135D7A;}
	.st5{opacity:0.5;fill:none;stroke:#000000;stroke-width:3.000000e-02;stroke-miterlimit:10;}
	.st6{fill:#C63621;}
	.st7{fill:#F85544;}
	.st8{fill:#EFC150;}
	.st9{fill:#27314E;}
	.st10{fill:#063ABC;}
	.st11{fill:#C74E41;}
	.st12{fill:#C67E42;}
	.st13{fill:#2CBCBB;}
	.st14{fill:#134658;}
	.st15{fill:none;stroke:#134658;stroke-miterlimit:10;}
	.st16{fill:#2BBBBA;}
	.st17{fill:#8C7053;}
	.st18{fill:#A93B33;}
	.st19{fill:#2F99A5;}
	.st20{fill:#654538;}
	.st21{fill:#BE5141;}
	.st22{fill:none;stroke:#134658;stroke-width:0.75;stroke-miterlimit:10;}
	.st23{fill:none;}
	.st24{opacity:0.5;}
	.st25{fill:#55F2ED;}
	.st26{fill:#70B74F;}
	.st27{fill:#00A4F5;}
	.st28{fill:#F45DF4;}
	.st29{fill:#00457F;}
	.st30{fill:#48A030;}
	.st31{fill:#E8C67C;}
	.st32{fill:#FFD445;}
	.st33{fill:#FF431D;}
	.st34{fill:#39B0C7;}
	.st35{fill:#5379A9;}
	.st36{fill:#E84049;}
	.st37{fill:#F57C45;}
	.st38{fill:#F1602D;}
	.st39{fill:#945965;}
	.st40{fill:#5C55A8;}
	.st41{fill:#4673C5;}
	.st42{fill:#E68549;}
	.st43{fill:none;stroke:#000000;stroke-width:0.15;stroke-miterlimit:10;}
	.st44{fill:none;stroke:#000000;stroke-width:0.1;stroke-miterlimit:10;}
	.st45{font-family:'MyriadPro-Regular';}
	.st46{font-size:0.93px;}
	.st47{font-size:1px;}
	.st48{opacity:0.5;fill:none;stroke:#000000;stroke-width:5.000000e-02;stroke-miterlimit:10;}
	.st49{fill:#278EAA;}
	.st50{fill:#39BCA9;}
	.st51{fill:#EFCC3C;}
	.st52{fill:#E04444;}
	.st53{fill:#F7C192;}
	.st54{fill:#E16956;}
	.st55{fill:#FCBA32;}
	.st56{fill:#ACDFE3;}
	.st57{fill:#5DC9CC;}
	.st58{fill:#D9442C;}
	.st59{fill:#F39200;}
	.st60{fill:#079DAB;}
	.st61{fill:#FDD07D;}
	.st62{fill:#E67239;}
	.st63{fill:#E94E1B;}
	.st64{fill:#F9B233;}
	.st65{fill:#FFFFFF;}
	.st66{fill:#808080;stroke:#808080;stroke-width:0.1;stroke-miterlimit:10;}
	.st67{fill:#33A4FF;stroke:#33A4FF;stroke-width:0.1;stroke-miterlimit:10;}
	.st68{fill:#33A4FF;}
	.st69{fill:url(#SVGID_1_);stroke:#FFA424;stroke-width:0.1;stroke-miterlimit:10;}
	.st70{fill:url(#SVGID_2_);stroke:#FFA424;stroke-width:0.1;stroke-miterlimit:10;}
	.st71{fill:url(#SVGID_5_);stroke:#FFA424;stroke-width:0.1;stroke-miterlimit:10;}
	.st72{fill:url(#SVGID_8_);stroke:#FFA424;stroke-width:0.1;stroke-miterlimit:10;}
	.st73{fill:url(#SVGID_13_);}
	.st74{fill:url(#SVGID_14_);stroke:#FF4040;stroke-width:0.1;stroke-miterlimit:10;}
	.st75{fill:url(#SVGID_15_);stroke:#FF4040;stroke-width:0.1;stroke-miterlimit:10;}
	.st76{fill:url(#SVGID_18_);stroke:#FF4040;stroke-width:0.1;stroke-miterlimit:10;}
	.st77{fill:url(#SVGID_21_);stroke:#FF4040;stroke-width:0.1;stroke-miterlimit:10;}
	.st78{fill:url(#SVGID_26_);}
	.st79{fill:url(#SVGID_27_);stroke:#00CF5D;stroke-width:0.1;stroke-miterlimit:10;}
	.st80{fill:url(#SVGID_28_);stroke:#00CF5D;stroke-width:0.1;stroke-miterlimit:10;}
	.st81{fill:url(#SVGID_32_);stroke:#00CF5D;stroke-width:0.1;stroke-miterlimit:10;}
	.st82{fill:url(#SVGID_35_);stroke:#00CF5D;stroke-width:0.1;stroke-miterlimit:10;}
	.st83{fill:url(#SVGID_40_);}
	.st84{opacity:0.25;}
	.st85{fill:#808080;}
	.st86{fill:#4D70DF;}
	.st87{fill:none;stroke:#000102;stroke-width:3;stroke-miterlimit:10;}
	.st88{fill:#7191E6;}
	.st89{fill:#6989E5;}
	.st90{fill:#839FEA;}
	.st91{fill:#809EE9;}
	.st92{fill:#587BE2;}
	.st93{fill:#5B7DE1;}
	.st94{fill:#7C9AE9;}
	.st95{fill:#6D8FE6;}
	.st96{fill:#5577E1;}
	.st97{fill:#5173E0;}
	.st98{fill:#6586E4;}
	.st99{fill:#7796E6;}
	.st100{fill:#94AFEC;}
	.st101{fill:#ACC0F0;}
	.st102{fill:#99B1EC;}
	.st103{fill:#BBCBF3;}
	.st104{fill:#8BA7EA;}
	.st105{fill:#C4D3F4;}
	.st106{fill:#CEDBF7;}
	.st107{fill:#7897E7;}
	.st108{fill:#6786E4;}
	.st109{fill:none;stroke:#000102;stroke-width:4;stroke-miterlimit:10;}
	.st110{fill:#000102;}
	.st111{fill:#FF1200;}
	.st112{fill:#002282;}
	.st113{fill:#00B1FF;}
	.st114{opacity:0.74;fill:#C63621;}
	.st115{opacity:0.74;fill:#0C4B96;}
	.st116{fill:#3C3C5E;}
	.st117{fill:#00C572;}
	.st118{fill:#FFAD24;}
	.st119{fill:none;stroke:#000000;stroke-width:0.25;stroke-miterlimit:10;}
</style>
<rect x="2.5" y="6.3" class="st1" width="1.7" height="1"/>
<line class="st5" x1="4.2" y1="4.1" x2="4.2" y2="25.3"/>
<line class="st5" x1="7.3" y1="4.1" x2="7.3" y2="25.3"/>
<line class="st5" x1="10.4" y1="4.1" x2="10.4" y2="25.3"/>
<line class="st5" x1="13.5" y1="4.1" x2="13.5" y2="25.3"/>
<line class="st5" x1="16.6" y1="4.1" x2="16.6" y2="25.3"/>
<line class="st5" x1="19.8" y1="4.1" x2="19.8" y2="25.3"/>
<line class="st5" x1="22.9" y1="4.1" x2="22.9" y2="25.3"/>
<line class="st5" x1="26" y1="4.1" x2="26" y2="25.3"/>
<line class="st5" x1="29.2" y1="4.1" x2="29.2" y2="25.3"/>
<rect x="4.2" y="7.8" class="st1" width="1.1" height="1"/>
<rect x="4.2" y="9.3" class="st1" width="6.2" height="1"/>
<rect x="9.1" y="11" class="st1" width="1.9" height="1"/>
<rect x="10.4" y="12.4" class="st2" width="6.2" height="1"/>
<rect x="10.4" y="15.6" class="st2" width="8.3" height="1"/>
<rect x="19.8" y="13.8" class="st2" width="3.1" height="1"/>
<rect x="15.2" y="17.2" class="st2" width="2.7" height="1"/>
<rect x="18.8" y="18.7" class="st6" width="2.9" height="1"/>
<rect x="20.7" y="20.2" class="st6" width="2.7" height="1"/>
<rect x="22.9" y="21.7" class="st6" width="3.1" height="1"/>
<rect x="26" y="23.3" class="st6" width="1.2" height="1"/>
<polygon points="29.8,25.5 2.3,25.5 2.3,2.4 2.5,2.4 2.5,25.2 29.8,25.2 "/>
<rect x="1.9" y="6.3" width="0.6" height="0.1"/>
<rect x="1.9" y="10" width="0.6" height="0.1"/>
<rect x="1.8" y="13.9" width="0.6" height="0.1"/>
<rect x="1.9" y="17.7" width="0.6" height="0.1"/>
<rect x="1.9" y="21.5" width="0.5" height="0.1"/>
<rect x="4.1" y="25.3" width="0.1" height="0.5"/>
<rect x="7.3" y="25.3" width="0.1" height="0.5"/>
<rect x="10.4" y="25.3" width="0.1" height="0.5"/>
<rect x="13.5" y="25.3" width="0.1" height="0.5"/>
<rect x="16.6" y="25.3" width="0.1" height="0.5"/>
<rect x="19.8" y="25.3" width="0.1" height="0.5"/>
<rect x="22.9" y="25.3" width="0.1" height="0.5"/>
<rect x="26" y="25.3" width="0.1" height="0.5"/>
<rect x="29.1" y="25.3" width="0.1" height="0.5"/>
<text transform="matrix(1 0 0 1 0.2495 6.6462)" class="st45 st46">50</text>
<text transform="matrix(1 0 0 1 0.2495 10.4264)" class="st45 st46">40</text>
<text transform="matrix(1 0 0 1 0.2495 14.1833)" class="st45 st46">30</text>
<text transform="matrix(1 0 0 1 0.2495 17.9626)" class="st45 st46">20</text>
<text transform="matrix(1 0 0 1 0.7642 21.8542)" class="st45 st46">10</text>
<text transform="matrix(1 0 0 1 1.2114 25.6344)" class="st45 st46">0</text>
<text transform="matrix(1 0 0 1 3.6354 26.8509)" class="st45 st47">0.1</text>
<text transform="matrix(1 0 0 1 6.6667 26.8509)" class="st45 st47">0.2</text>
<text transform="matrix(1 0 0 1 9.7917 26.8509)" class="st45 st47">0.3</text>
<text transform="matrix(1 0 0 1 12.9167 26.8509)" class="st45 st47">0.4</text>
<text transform="matrix(1 0 0 1 16.0417 26.8509)" class="st45 st47">0.5</text>
<text transform="matrix(1 0 0 1 19.1667 26.8509)" class="st45 st47">0.6</text>
<text transform="matrix(1 0 0 1 22.2917 26.8509)" class="st45 st47">0.7</text>
<text transform="matrix(1 0 0 1 25.4167 26.8509)" class="st45 st47">0.8</text>
<text transform="matrix(1 0 0 1 28.5417 26.8509)" class="st45 st47">0.9</text>
<path class="st44" d="M2.5,5.6c0.1,0,2,0,2,0v1.5h1.1v1.6h4.9h0.4v1.5h0.6v1.6h5.4v1.7h6.3V15h-4.2v1.9h-0.8v1.6h3.8v1.4h1.8v1.5
	h2.6v1.8h1.3l0.2,2"/>
</svg>
