<?xml version="1.0" encoding="utf-8"?>
<!-- Generator: Adobe Illustrator 25.0.0, SVG Export Plug-In . SVG Version: 6.00 Build 0)  -->
<svg version="1.1" id="Layer_1" xmlns="http://www.w3.org/2000/svg" xmlns:xlink="http://www.w3.org/1999/xlink" x="0px" y="0px"
	 viewBox="0 0 100 100" style="enable-background:new 0 0 100 100;" xml:space="preserve">
<style type="text/css">
	.st0{fill:#40875E;}
	.st1{fill:#F0AB00;}
	.st2{fill:#A8A240;}
	.st3{fill:none;}
</style>
<path class="st0" d="M0,76v6.5c0,1.2,1,2.2,2.2,2.2h31.4c-0.6,2.4-1.2,5-1.8,7.4h-1.7c-0.8,0-1.4,0.8-1.4,1.7v0.7h32.8v-0.7
	c0-0.9-0.7-1.7-1.4-1.7h-1.7c-0.6-2.4-1.2-5-1.8-7.4h31.4c1.2,0,2.2-1,2.2-2.2V76H0z"/>
<g>
	<path class="st1" d="M28,46.8l-9.1-4.2v-1.4l9.1-4.4v2.2l-6.5,2.9l0,0l6.5,2.6V46.8z"/>
	<path class="st1" d="M37.8,33.3L31,49.8h-2.6l6.8-16.5H37.8z"/>
	<path class="st1" d="M47.4,42.5l-9.1,4.2v-2.2l6.6-2.6l0,0l-6.6-2.9v-2.2l9.1,4.4V42.5z"/>
</g>
<path class="st1" d="M99.4,46.7h-2.6c-0.3,0-0.6-0.2-0.7-0.6c-0.2-1-0.7-1.9-1.1-2.8c-0.1-0.2-0.1-0.7,0.1-0.9l1.9-1.9
	c0.2-0.2,0.2-0.7,0-1l-3.2-3.2c-0.2-0.2-0.7-0.2-1,0l-2,2c-0.2,0.2-0.6,0.2-0.9,0.1c-0.9-0.4-1.8-0.9-2.8-1.1
	c-0.3-0.1-0.6-0.3-0.6-0.7v-2.6c0-0.3-0.3-0.7-0.7-0.7h-4.6c-0.3,0-0.7,0.3-0.7,0.7v2.6c0,0.3-0.2,0.6-0.6,0.7
	c-1,0.2-1.9,0.7-2.8,1.1c-0.2,0.1-0.7,0.1-0.9-0.1l-1.9-1.9c-0.2-0.2-0.7-0.2-1,0l-3.2,3.2c-0.2,0.2-0.2,0.7,0,1l1.9,1.9
	c0.2,0.2,0.2,0.6,0.1,0.9c-0.4,0.9-0.9,1.8-1.1,2.8c-0.1,0.3-0.3,0.6-0.7,0.6H68c-0.3,0-0.7,0.3-0.7,0.7v4.6c0,0.3,0.3,0.7,0.7,0.7
	h2.6c0.3,0,0.6,0.2,0.7,0.6c0.2,1,0.7,1.9,1.1,2.8c0.1,0.2,0.1,0.7-0.1,0.9l-1.9,1.9c-0.2,0.2-0.2,0.7,0,1l3.2,3.2
	c0.2,0.2,0.7,0.2,1,0l1.9-1.9c0.2-0.2,0.6-0.2,0.9-0.1c0.9,0.4,1.8,0.9,2.8,1.1c0.3,0.1,0.6,0.3,0.6,0.7v2.6c0,0.3,0.3,0.7,0.7,0.7
	H86c0.3,0,0.7-0.3,0.7-0.7v-2.6c0-0.3,0.2-0.6,0.6-0.7c1-0.2,1.9-0.7,2.8-1.1c0.2-0.1,0.7-0.1,0.9,0.1l1.9,1.9c0.2,0.2,0.7,0.2,1,0
	l3.2-3.2c0.2-0.2,0.2-0.7,0-1L95,56.9c-0.2-0.2-0.2-0.6-0.1-0.9c0.4-0.9,0.9-1.8,1.1-2.8c0.1-0.3,0.3-0.6,0.7-0.6h2.6
	c0.3,0,0.7-0.3,0.7-0.7v-4.6C100.1,47,99.8,46.7,99.4,46.7 M83.8,56.2c-3.6,0-6.7-3-6.7-6.7c0-3.6,3-6.7,6.7-6.7
	c3.6,0,6.7,3,6.7,6.7C90.5,53.3,87.5,56.2,83.8,56.2"/>
<path class="st0" d="M69.2,33.2h-1.5c-0.2,0-0.3-0.1-0.4-0.3c-0.1-0.6-0.4-1.1-0.7-1.7c-0.1-0.1-0.1-0.3,0.1-0.4l1.1-1.1
	c0.1-0.1,0.1-0.4,0-0.6l-1.9-1.9c-0.1-0.1-0.4-0.1-0.6,0l-1.1,1.1c-0.1,0.1-0.3,0.1-0.6,0.1c-0.6-0.3-1.1-0.6-1.7-0.7
	c-0.2,0-0.3-0.2-0.3-0.4v-1.7c0-0.2-0.2-0.4-0.4-0.4h-2.8c-0.2,0-0.4,0.2-0.4,0.4v1.5c0,0.2-0.1,0.3-0.3,0.4
	c-0.6,0.1-1.1,0.4-1.7,0.7c-0.1,0.1-0.3,0.1-0.4-0.1l-1.1-1.1c-0.1-0.1-0.4-0.1-0.6,0L52.2,29c-0.1,0.1-0.1,0.4,0,0.6l1.1,1.1
	c0.1,0.1,0.1,0.3,0.1,0.4c-0.3,0.6-0.6,1.1-0.7,1.7c0,0.2-0.2,0.3-0.4,0.3h-1.5c-0.2,0-0.4,0.2-0.4,0.4v2.8c0,0.2,0.2,0.4,0.4,0.4
	h1.5c0.2,0,0.3,0.1,0.4,0.3c0.1,0.6,0.4,1.1,0.7,1.7c0.1,0.1,0.1,0.3-0.1,0.4l-1.1,1.1c-0.1,0.1-0.1,0.4,0,0.6l1.9,1.9
	c0.1,0.1,0.4,0.1,0.6,0l1.1-1.1c0.1-0.1,0.3-0.1,0.4-0.1c0.6,0.3,1.1,0.6,1.7,0.7c0.2,0,0.3,0.2,0.3,0.4v1.5c0,0.2,0.2,0.4,0.4,0.4
	h2.8c0.2,0,0.4-0.2,0.4-0.4v-1.5c0-0.2,0.1-0.3,0.3-0.4c0.6-0.1,1.1-0.4,1.7-0.7c0.1-0.1,0.3-0.1,0.6,0.1l1.1,1.1
	c0.1,0.1,0.4,0.1,0.6,0l1.9-1.9c0.1-0.1,0.1-0.4,0-0.6l-1.1-1.1c-0.2-0.2-0.2-0.3-0.1-0.6c0.3-0.6,0.6-1.1,0.7-1.7
	c0-0.2,0.2-0.3,0.4-0.3h1.5c0.2,0,0.4-0.2,0.4-0.4v-2.8C69.7,33.3,69.4,33.2,69.2,33.2 M60,38.9c-2.2,0-4-1.8-4-4s1.8-4,4-4
	c2.2,0,4,1.8,4,4C63.9,37.1,62.2,38.9,60,38.9"/>
<path class="st2" d="M67,55h-2c-0.2,0-0.4-0.1-0.6-0.4c-0.2-0.8-0.6-1.4-0.9-2.1c-0.1-0.2-0.1-0.4,0.1-0.7l1.4-1.4
	c0.2-0.2,0.2-0.6,0-0.8l-2.4-2.4c-0.2-0.2-0.6-0.2-0.8,0l-1.4,1.4c-0.2,0.2-0.4,0.2-0.7,0.1c-0.7-0.3-1.3-0.7-2.1-0.9
	c-0.2-0.1-0.4-0.2-0.4-0.6v-2c0-0.3-0.2-0.6-0.6-0.6h-3.5c-0.3,0-0.6,0.2-0.6,0.6v2c0,0.2-0.1,0.4-0.4,0.6c-0.8,0.2-1.4,0.6-2.1,0.9
	c-0.2,0.1-0.4,0.1-0.7-0.1l-1.4-1.4c-0.2-0.2-0.6-0.2-0.8,0l-2.4,2.4c-0.2,0.2-0.2,0.6,0,0.8l1.4,1.4c0.2,0.2,0.2,0.4,0.1,0.7
	c-0.3,0.7-0.7,1.3-0.9,2.1C45.4,54.8,45.3,55,45,55h-2c-0.3,0-0.6,0.2-0.6,0.6v3.5c0,0.3,0.2,0.6,0.6,0.6h2c0.2,0,0.4,0.1,0.6,0.4
	c0.2,0.8,0.6,1.4,0.9,2.1c0.1,0.2,0.1,0.4-0.1,0.7l-1.4,1.4c-0.2,0.2-0.2,0.6,0,0.8l2.4,2.4c0.2,0.2,0.6,0.2,0.8,0l1.4-1.4
	c0.2-0.2,0.4-0.2,0.7-0.1c0.7,0.3,1.3,0.7,2.1,0.9c0.2,0.1,0.4,0.2,0.4,0.6v2c0,0.3,0.2,0.6,0.6,0.6h3.5c0.3,0,0.6-0.2,0.6-0.6v-2
	c0-0.2,0.1-0.4,0.4-0.6c0.8-0.2,1.4-0.6,2.1-0.9c0.2-0.1,0.4-0.1,0.7,0.1l1.4,1.4c0.2,0.2,0.6,0.2,0.8,0l2.4-2.4
	c0.2-0.2,0.2-0.6,0-0.8l-1.4-1.4c-0.2-0.2-0.2-0.4-0.1-0.7c0.3-0.7,0.7-1.3,0.9-2.1c0.1-0.2,0.2-0.4,0.6-0.4h2
	c0.3,0,0.6-0.2,0.6-0.6v-3.5C67.6,55.3,67.4,55,67,55 M55.1,62.4c-2.8,0-5.1-2.3-5.1-5.1s2.3-5.1,5.1-5.1c2.8,0,5.1,2.3,5.1,5.1
	C60.2,60.1,58,62.4,55.1,62.4"/>
<circle class="st3" cx="31.3" cy="14.8" r="1.9"/>
<circle class="st3" cx="26.2" cy="14.8" r="1.9"/>
<circle class="st3" cx="21.3" cy="14.8" r="1.9"/>
<path class="st3" d="M71.1,13H39.9c-0.9,0-1.7,0.8-1.7,1.7s0.8,1.7,1.7,1.7h31.3c0.9,0,1.7-0.8,1.7-1.7S72.1,13,71.1,13z"/>
<path class="st2" d="M86.8,71H3.6V23.8h3.4v-3.5H2.2c-1.2,0-2.2,1-2.2,2.2v52.1h90.4v-6.2h-3.7V71H86.8z"/>
<path class="st2" d="M90.4,22.5c0-1.2-1-2.2-2.2-2.2h-5.4v3.5h4v6.7h3.7v-8H90.4z"/>
<circle class="st3" cx="21.3" cy="14.8" r="1.9"/>
<circle class="st3" cx="26.2" cy="14.8" r="1.9"/>
<circle class="st3" cx="31.3" cy="14.8" r="1.9"/>
<path class="st3" d="M71.1,13H39.9c-0.9,0-1.7,0.8-1.7,1.7s0.8,1.7,1.7,1.7h31.3c0.9,0,1.7-0.8,1.7-1.7S72.1,13,71.1,13z"/>
<path class="st0" d="M77.9,6.4H12.5c-1.3,0-2.3,1.1-2.3,2.3v49.9c0,1.3,1.1,2.3,2.3,2.3H39v-3.2H13.3V20.9h63.7v9.6h3.2V8.7
	C80.2,7.5,79.1,6.4,77.9,6.4z M21.3,16.8c-1.1,0-1.9-0.9-1.9-1.9c0-1.1,0.9-1.9,1.9-1.9c1.1,0,1.9,0.9,1.9,1.9
	C23.3,15.9,22.4,16.8,21.3,16.8z M26.2,16.8c-1.1,0-1.9-0.9-1.9-1.9c0-1.1,0.9-1.9,1.9-1.9c1.1,0,1.9,0.9,1.9,1.9
	S27.3,16.8,26.2,16.8z M31.3,16.8c-1.1,0-1.9-0.9-1.9-1.9c0-1.1,0.9-1.9,1.9-1.9c1.1,0,1.9,0.9,1.9,1.9S32.3,16.8,31.3,16.8z
	 M71.1,16.4H39.9c-0.9,0-1.7-0.8-1.7-1.7c0-0.9,0.8-1.7,1.7-1.7h31.3c0.9,0,1.7,0.8,1.7,1.7C72.9,15.7,72.1,16.4,71.1,16.4z"/>
<rect x="-246.9" y="179.1" class="st1" width="21.9" height="23.6"/>
<rect x="-219.2" y="154.7" class="st2" width="21.9" height="48"/>
<rect x="-191" y="132.6" class="st0" width="21.1" height="70.2"/>
</svg>
