<?xml version="1.0" encoding="utf-8"?>
<!-- Generator: Adobe Illustrator 22.0.1, SVG Export Plug-In . SVG Version: 6.00 Build 0)  -->
<svg version="1.1" id="Layer_1" xmlns="http://www.w3.org/2000/svg" xmlns:xlink="http://www.w3.org/1999/xlink" x="0px" y="0px"
	 viewBox="0 0 15 15" style="enable-background:new 0 0 15 15;" xml:space="preserve">
<style type="text/css">
	.st0{fill:#0B4A99;}
</style>
<g>
	<g>
		<path d="M7.5,15C3.4,15,0,11.6,0,7.5S3.4,0,7.5,0S15,3.4,15,7.5S11.6,15,7.5,15z M7.5,0.8c-3.7,0-6.7,3-6.7,6.7
			c0,3.7,3,6.7,6.7,6.7s6.7-3,6.7-6.7C14.2,3.8,11.2,0.8,7.5,0.8z"/>
	</g>
	<g>
		<path class="st0" d="M7.5,0.4c-3.9,0-7.1,3.2-7.1,7.1c0,3.9,3.2,7.1,7.1,7.1c3.9,0,7.1-3.2,7.1-7.1C14.6,3.6,11.4,0.4,7.5,0.4z
			 M11.3,11.5c-0.2,0.2-0.5,0.2-0.8,0.2c-0.3,0-0.5-0.1-0.7-0.2c-0.2-0.1-0.4-0.4-0.6-0.7L7.5,8.7l-1.7,2.2
			c-0.3,0.3-0.5,0.5-0.6,0.7c-0.2,0.1-0.4,0.2-0.7,0.2c-0.3,0-0.6-0.1-0.8-0.2c-0.2-0.2-0.3-0.4-0.3-0.6c0-0.2,0.2-0.5,0.5-0.9
			L6,7.3L4.1,5C3.8,4.6,3.6,4.3,3.6,4c0-0.2,0.1-0.4,0.3-0.6c0.2-0.2,0.5-0.2,0.8-0.2c0.3,0,0.5,0.1,0.7,0.2C5.5,3.6,5.7,3.8,6,4.1
			L7.5,6L9,4.1c0.2-0.3,0.5-0.5,0.6-0.7c0.2-0.1,0.4-0.2,0.7-0.2c0.3,0,0.6,0.1,0.8,0.2c0.2,0.2,0.3,0.3,0.3,0.6
			c0,0.2,0,0.3-0.1,0.5c-0.1,0.1-0.2,0.3-0.4,0.5L9,7.3l2.1,2.7c0.3,0.4,0.5,0.7,0.5,1C11.6,11.2,11.5,11.4,11.3,11.5z"/>
	</g>
</g>
</svg>
