<svg id="Layer_1" data-name="Layer 1" xmlns="http://www.w3.org/2000/svg" viewBox="0 0 30 30"><defs><style>.cls-1{fill:#107c41;}</style></defs><title>xlsx Icon</title><path class="cls-1" d="M26.06,8.84H17.64v2.75h2.79v1.86H17.64v1.83H20.4v1.84H17.64V19H20.4V20.8H17.64v1.84H20.4v1.84H17.64v2.76h8.42a.79.79,0,0,0,.77-.8V9.65a.79.79,0,0,0-.77-.8ZM25,24.48H21.32V22.64H25Zm0-3.68H21.32V19H25Zm0-3.68H21.32V15.28H25Zm0-3.68H21.32V11.61H25Z"/><path class="cls-1" d="M2.92,8.75v18.6L16.72,30V6.09Zm8.73,14-1.6-3a2.41,2.41,0,0,1-.19-.63h0a4.27,4.27,0,0,1-.22.65L8,22.72H5.5l3-4.66L5.76,13.4H8.31l1.33,2.79a5,5,0,0,1,.28.78h0c.05-.18.15-.45.29-.81l1.48-2.77h2.34L11.27,18l2.87,4.7Z"/><path class="cls-1" d="M22.93,2.57V0l4.15,4.15L22.93,8.3V5.69c-4.89.37-8.84,2.91-9.8,6.22a5.56,5.56,0,0,1-.22-1.56c0-4,4.39-7.36,10-7.78Z"/></svg>