<svg id="Layer_1" data-name="Layer 1" xmlns="http://www.w3.org/2000/svg" viewBox="0 0 30 30"><defs><style>.cls-1{fill:#2c3e50;}.cls-2{fill:none;}.cls-3{fill:#0071c5;}</style></defs><title>XML Icon</title><path class="cls-1" d="M26.39,10.8H3.61a1.68,1.68,0,0,0-1.68,1.68v8.73a1.68,1.68,0,0,0,1.68,1.68H26.39a1.68,1.68,0,0,0,1.68-1.68V12.48A1.68,1.68,0,0,0,26.39,10.8ZM8.69,20.46,7.25,17.68,6,20.46l-2,0,2.11-4.16L4,12.71l2-.1,1.33,2.73,1.33-2.89,2,.11L8.53,16.23a1.2,1.2,0,0,0,.27,1c.41.63,1.89,3.23,1.89,3.23Zm9.64,0-.27-5.61-1.78,5.39c-1,.45-1.41-.06-1.41-.06l-1.47-5.55-.31,5.84-1.62,0,.5-7.77h2.3l1.47,5.17,1.58-5.17h2.33l.45,7.77Zm7.89,0H21.39V12.68h1.78l0,6.25,3.08,0Z"/><path class="cls-2" d="M5.51,28.29h19V22.75h-19Z"/><path class="cls-3" d="M25.73,22.81l.08-.07H4.3v3.62c0,.59,0,1.18,0,1.77a1.58,1.58,0,0,0,.8,1.64H24.91a1.63,1.63,0,0,0,.8-1.64c0-1.57,0-3.15,0-4.72C25.7,23.19,25.72,23,25.73,22.81Zm-1.22,5.48h-19V22.75h19Z"/><path class="cls-2" d="M19.74,7.88c-.75,0-.87-.12-.87-.89,0-1.27,0-2.54,0-3.8V1.46H5.48V10.8h19V7.88Z"/><path class="cls-3" d="M25.7,10.78c0-.92,0-1.83,0-2.74A2.12,2.12,0,0,0,25.1,6.4C23.43,4.54,21.8,2.66,20.17.78A1.42,1.42,0,0,0,19,.23c-4.37,0-8.74,0-13.11,0C4.69.25,4.31.62,4.31,1.81c0,3,0,5.94,0,9H25.84Zm-1.2,0h-19V1.46h13.4V3.18c0,1.27,0,2.54,0,3.8,0,.76.12.89.87.89H24.5Z"/></svg>