<?xml version="1.0" encoding="iso-8859-1"?>
<!-- Generator: Adobe Illustrator 12.0.0, SVG Export Plug-In . SVG Version: 6.00 Build 51448)  -->
<!DOCTYPE svg PUBLIC "-//W3C//DTD SVG 1.1//EN" "http://www.w3.org/Graphics/SVG/1.1/DTD/svg11.dtd" [
	<!ENTITY ns_svg "http://www.w3.org/2000/svg">
	<!ENTITY ns_xlink "http://www.w3.org/1999/xlink">
]>
<svg  version="1.1" id="Layer_1" xmlns="&ns_svg;" xmlns:xlink="&ns_xlink;" width="15.869" height="15.874"
	 viewBox="0 0 15.869 15.874" style="overflow:visible;enable-background:new 0 0 15.869 15.874;" xml:space="preserve">
<g>
	<g>
		<circle style="fill:#B6B6B4;" cx="7.935" cy="7.937" r="7.686"/>
		<g>
			<g>
				<path style="fill:#C4302B;" d="M12.537,11.723c0,0.951-0.771,1.723-1.723,1.723H5.055c-0.951,0-1.723-0.771-1.723-1.723v-2.85
					c0-0.951,0.771-1.722,1.723-1.722h5.759c0.951,0,1.723,0.771,1.723,1.722V11.723z"/>
				<g>
					<polygon style="fill:#B6B6B4;" points="4.06,8.799 4.712,8.799 4.712,12.313 5.344,12.313 5.344,8.799 5.995,8.799 5.995,8.2 
						4.06,8.2 					"/>
					<path style="fill:#B6B6B4;" d="M9.324,9.241c-0.088,0-0.174,0.024-0.258,0.072C8.982,9.361,8.9,9.434,8.826,9.524V8.2H8.26
						v4.112h0.566V12.08c0.073,0.093,0.153,0.16,0.238,0.206c0.086,0.044,0.184,0.065,0.293,0.065c0.166,0,0.295-0.057,0.381-0.171
						c0.086-0.115,0.133-0.279,0.133-0.494v-1.683c0-0.249-0.049-0.439-0.143-0.567C9.636,9.307,9.5,9.241,9.324,9.241z
						 M9.292,11.604c0,0.097-0.016,0.165-0.049,0.209c-0.031,0.043-0.082,0.063-0.15,0.063c-0.047,0-0.092-0.01-0.135-0.032
						c-0.043-0.02-0.087-0.058-0.132-0.106V9.846C8.864,9.804,8.902,9.772,8.94,9.755c0.039-0.021,0.079-0.032,0.12-0.032
						c0.074,0,0.133,0.026,0.174,0.079c0.039,0.054,0.059,0.13,0.059,0.234V11.604z"/>
					<path style="fill:#B6B6B4;" d="M7.279,11.583c-0.052,0.065-0.11,0.119-0.173,0.163c-0.063,0.042-0.117,0.064-0.156,0.064
						c-0.053,0-0.091-0.017-0.115-0.049C6.813,11.729,6.8,11.678,6.8,11.606V9.278H6.242v2.537c0,0.181,0.031,0.315,0.097,0.406
						c0.067,0.091,0.163,0.136,0.292,0.136c0.106,0,0.214-0.031,0.326-0.096c0.112-0.066,0.219-0.16,0.322-0.281v0.332h0.56V9.278
						h-0.56V11.583L7.279,11.583z"/>
					<path style="fill:#B6B6B4;" d="M11.013,9.204c-0.252,0-0.455,0.082-0.613,0.248c-0.158,0.165-0.238,0.381-0.238,0.643v1.362
						c0,0.294,0.072,0.523,0.217,0.688c0.145,0.167,0.342,0.251,0.592,0.251c0.279,0,0.488-0.078,0.629-0.235
						c0.141-0.158,0.211-0.393,0.211-0.704v-0.154h-0.576v0.137c0,0.179-0.02,0.294-0.057,0.346c-0.035,0.054-0.102,0.08-0.193,0.08
						c-0.09,0-0.152-0.031-0.189-0.093c-0.037-0.063-0.055-0.172-0.055-0.333v-0.57h1.07v-0.774c0-0.288-0.068-0.507-0.205-0.661
						C11.464,9.281,11.267,9.204,11.013,9.204z M11.234,10.397H10.74V10.09c0-0.126,0.018-0.219,0.057-0.271
						c0.039-0.057,0.104-0.084,0.191-0.084c0.086,0,0.148,0.027,0.188,0.084c0.037,0.053,0.059,0.146,0.059,0.271V10.397
						L11.234,10.397z"/>
				</g>
			</g>
			<g>
				<path style="fill:#C4302B;" d="M9.257,3.503h0.561v2.319c0,0.072,0.012,0.125,0.035,0.155c0.023,0.033,0.063,0.05,0.115,0.05
					c0.039,0,0.092-0.022,0.156-0.064c0.063-0.043,0.121-0.097,0.172-0.164V3.503h0.563v3.025h-0.563V6.195
					c-0.102,0.122-0.209,0.216-0.322,0.281C9.863,6.54,9.755,6.573,9.648,6.573c-0.129,0-0.227-0.044-0.293-0.136
					C9.291,6.348,9.257,6.212,9.257,6.032V3.503z"/>
				<path style="fill:#C4302B;" d="M7.175,4.195c0-0.234,0.075-0.42,0.226-0.56C7.553,3.497,7.755,3.427,8.01,3.427
					c0.233,0,0.422,0.074,0.57,0.22c0.148,0.146,0.223,0.335,0.223,0.565v1.563c0,0.259-0.073,0.462-0.217,0.609
					c-0.146,0.146-0.347,0.22-0.602,0.22c-0.245,0-0.441-0.076-0.589-0.226C7.249,6.225,7.174,6.02,7.174,5.763L7.175,4.195
					L7.175,4.195z"/>
				<polygon style="fill:#C4302B;" points="5.646,2.428 6.057,4.067 6.096,4.067 6.486,2.428 7.129,2.428 6.394,4.829 6.394,6.529 
					5.763,6.529 5.763,4.904 5.011,2.428 				"/>
				<path style="fill:#B6B6B4;" d="M7.982,6.08c0.077,0,0.137-0.021,0.182-0.067C8.209,5.965,8.232,5.901,8.232,5.82V4.174
					c0-0.068-0.023-0.12-0.07-0.162c-0.045-0.041-0.104-0.061-0.18-0.061c-0.067,0-0.124,0.02-0.167,0.061
					C7.772,4.054,7.752,4.107,7.752,4.174V5.82c0,0.083,0.02,0.147,0.06,0.192C7.852,6.058,7.909,6.08,7.982,6.08z"/>
			</g>
		</g>
	</g>
	<rect style="fill:none;" width="15.869" height="15.874"/>
</g>
</svg>
