<?xml version="1.0" encoding="iso-8859-1"?>
<!-- Generator: Adobe Illustrator 12.0.0, SVG Export Plug-In . SVG Version: 6.00 Build 51448)  -->
<!DOCTYPE svg PUBLIC "-//W3C//DTD SVG 1.1//EN" "http://www.w3.org/Graphics/SVG/1.1/DTD/svg11.dtd" [
	<!ENTITY ns_svg "http://www.w3.org/2000/svg">
	<!ENTITY ns_xlink "http://www.w3.org/1999/xlink">
]>
<svg  version="1.1" id="Layer_1" xmlns="&ns_svg;" xmlns:xlink="&ns_xlink;" width="15.868" height="15.876"
	 viewBox="0 0 15.868 15.876" style="overflow:visible;enable-background:new 0 0 15.868 15.876;" xml:space="preserve">
<g>
	<g>
		<circle style="fill:#C4302B;" cx="7.935" cy="7.938" r="7.686"/>
		<path style="fill:#FFFFFF;" d="M12.536,11.724c0,0.951-0.771,1.723-1.723,1.723H5.055c-0.951,0-1.723-0.771-1.723-1.723v-2.85
			c0-0.951,0.771-1.723,1.723-1.723h5.759c0.951,0,1.723,0.771,1.723,1.723V11.724z"/>
		<g>
			<polygon style="fill:#C4302B;" points="4.06,8.799 4.712,8.799 4.712,12.313 5.344,12.313 5.344,8.799 5.995,8.799 5.995,8.201 
				4.06,8.201 			"/>
			<path style="fill:#C4302B;" d="M9.323,9.243c-0.088,0-0.174,0.023-0.258,0.072C8.982,9.362,8.9,9.435,8.826,9.526V8.201H8.26
				v4.112h0.566v-0.232c0.073,0.094,0.153,0.16,0.237,0.207c0.086,0.043,0.184,0.064,0.293,0.064c0.166,0,0.295-0.057,0.381-0.17
				c0.086-0.115,0.133-0.279,0.133-0.494v-1.684c0-0.248-0.049-0.439-0.143-0.566C9.636,9.308,9.499,9.243,9.323,9.243z
				 M9.292,11.604c0,0.098-0.016,0.166-0.049,0.209c-0.031,0.043-0.082,0.063-0.15,0.063c-0.047,0-0.092-0.01-0.135-0.031
				c-0.043-0.02-0.087-0.059-0.132-0.107V9.847c0.038-0.041,0.076-0.072,0.114-0.09C8.979,9.735,9.019,9.724,9.06,9.724
				c0.074,0,0.133,0.027,0.174,0.08c0.039,0.053,0.059,0.129,0.059,0.234V11.604z"/>
			<path style="fill:#C4302B;" d="M7.279,11.585c-0.052,0.064-0.11,0.119-0.173,0.162c-0.063,0.043-0.117,0.064-0.156,0.064
				c-0.053,0-0.091-0.016-0.115-0.049C6.813,11.729,6.8,11.679,6.8,11.608V9.28H6.242v2.537c0,0.18,0.031,0.314,0.097,0.406
				c0.067,0.09,0.163,0.135,0.292,0.135c0.106,0,0.214-0.031,0.326-0.096c0.112-0.066,0.219-0.16,0.322-0.281v0.332h0.56V9.28h-0.56
				V11.585L7.279,11.585z"/>
			<path style="fill:#C4302B;" d="M11.013,9.206c-0.252,0-0.455,0.082-0.613,0.248c-0.158,0.164-0.238,0.381-0.238,0.643v1.361
				c0,0.295,0.072,0.523,0.217,0.689s0.342,0.25,0.592,0.25c0.279,0,0.488-0.078,0.629-0.234c0.141-0.158,0.211-0.393,0.211-0.705
				v-0.154h-0.576v0.137c0,0.18-0.02,0.295-0.057,0.346c-0.035,0.055-0.102,0.08-0.193,0.08c-0.09,0-0.152-0.031-0.189-0.092
				c-0.037-0.063-0.055-0.172-0.055-0.334v-0.57h1.07v-0.773c0-0.289-0.068-0.508-0.205-0.662
				C11.464,9.282,11.267,9.206,11.013,9.206z M11.233,10.399h-0.494v-0.309c0-0.125,0.018-0.219,0.057-0.271
				c0.039-0.057,0.104-0.084,0.191-0.084c0.086,0,0.148,0.027,0.188,0.084c0.037,0.053,0.059,0.146,0.059,0.271V10.399
				L11.233,10.399z"/>
		</g>
		<path style="fill:#FFFFFF;" d="M9.257,3.504h0.561v2.319c0,0.072,0.012,0.125,0.035,0.155c0.023,0.032,0.063,0.049,0.115,0.049
			c0.039,0,0.092-0.021,0.156-0.064c0.063-0.043,0.121-0.096,0.172-0.163V3.504h0.563v3.025h-0.563V6.195
			c-0.102,0.121-0.209,0.217-0.322,0.281C9.862,6.54,9.755,6.573,9.647,6.573c-0.129,0-0.227-0.044-0.293-0.136
			C9.29,6.348,9.257,6.213,9.257,6.032V3.504z"/>
		<path style="fill:#FFFFFF;" d="M7.175,4.195c0-0.232,0.075-0.42,0.226-0.561C7.553,3.497,7.755,3.428,8.01,3.428
			c0.233,0,0.422,0.073,0.57,0.22c0.148,0.146,0.223,0.335,0.223,0.565v1.563c0,0.26-0.073,0.463-0.217,0.609
			c-0.146,0.146-0.347,0.22-0.602,0.22c-0.245,0-0.441-0.075-0.589-0.226C7.249,6.225,7.174,6.02,7.174,5.764L7.175,4.195
			L7.175,4.195z"/>
		<polygon style="fill:#FFFFFF;" points="5.646,2.428 6.057,4.068 6.096,4.068 6.486,2.428 7.129,2.428 6.394,4.828 6.394,6.529 
			5.763,6.529 5.763,4.904 5.011,2.428 		"/>
		<path style="fill:#C4302B;" d="M7.982,6.08c0.077,0,0.137-0.021,0.182-0.067c0.045-0.048,0.068-0.11,0.068-0.19V4.174
			c0-0.068-0.023-0.119-0.07-0.16c-0.045-0.042-0.104-0.063-0.18-0.063c-0.067,0-0.124,0.021-0.167,0.063
			c-0.043,0.041-0.063,0.094-0.063,0.16v1.648c0,0.082,0.02,0.146,0.06,0.19C7.852,6.059,7.909,6.08,7.982,6.08z"/>
	</g>
	<rect style="fill:none;" width="15.868" height="15.876"/>
</g>
</svg>
